<svg width="131" height="64" viewBox="0 0 131 64" fill="none" xmlns="http://www.w3.org/2000/svg">
<path d="M1.76 42.288C1.76 40.792 2.22933 39.5893 3.168 38.68C4.136 37.7413 5.26533 37.2867 6.556 37.316C7.524 37.3453 8.448 37.5653 9.328 37.976C10.2373 38.3573 11.176 38.7387 12.144 39.12C13.112 39.5013 14.212 39.692 15.444 39.692C16.588 39.692 17.3213 39.5307 17.644 39.208C17.996 38.856 18.172 38.46 18.172 38.02C18.172 37.4627 17.9227 37.0373 17.424 36.744C16.9547 36.4213 16.2947 36.1573 15.444 35.952L13.42 35.468C11.3667 34.9693 9.504 34.4413 7.832 33.884C6.16 33.2973 4.84 32.5053 3.872 31.508C2.904 30.5107 2.42 29.1613 2.42 27.46C2.42 25.8467 2.816 24.512 3.608 23.456C4.4 22.3707 5.48533 21.52 6.864 20.904C8.24267 20.288 9.79733 19.8773 11.528 19.672C11.4107 19.4373 11.3373 19.1733 11.308 18.88C11.2787 18.5867 11.264 18.2787 11.264 17.956C11.264 16.9293 11.5573 16.1813 12.144 15.712C12.76 15.2133 13.4933 14.964 14.344 14.964C15.1947 14.964 15.8987 15.2133 16.456 15.712C17.0427 16.1813 17.336 16.9293 17.336 17.956C17.336 18.6013 17.248 19.1733 17.072 19.672C19.3893 19.9653 21.3107 20.6253 22.836 21.652C24.3907 22.6493 25.168 23.9253 25.168 25.48C25.168 26.8293 24.8013 27.8707 24.068 28.604C23.364 29.3373 22.4107 29.704 21.208 29.704C20.416 29.704 19.6387 29.5867 18.876 29.352C18.1133 29.088 17.3067 28.824 16.456 28.56C15.6347 28.296 14.6813 28.164 13.596 28.164C12.54 28.164 11.7773 28.296 11.308 28.56C10.868 28.7947 10.648 29.1613 10.648 29.66C10.648 30.2467 10.9413 30.716 11.528 31.068C12.144 31.3907 13.2147 31.7427 14.74 32.124L16.984 32.652C18.8613 33.1213 20.504 33.664 21.912 34.28C23.32 34.8667 24.4053 35.6733 25.168 36.7C25.96 37.6973 26.356 39.0467 26.356 40.748C26.356 43.476 25.5053 45.5293 23.804 46.908C22.132 48.2573 19.8733 49.064 17.028 49.328C17.2333 49.8267 17.336 50.4427 17.336 51.176C17.336 52.1733 17.0427 52.9213 16.456 53.42C15.8987 53.9187 15.1947 54.168 14.344 54.168C13.4933 54.168 12.76 53.9187 12.144 53.42C11.5573 52.9213 11.264 52.1733 11.264 51.176C11.264 50.7653 11.2933 50.3987 11.352 50.076C11.4107 49.7533 11.4987 49.46 11.616 49.196C9.91467 48.9613 8.316 48.5507 6.82 47.964C5.324 47.348 4.10667 46.5707 3.168 45.632C2.22933 44.664 1.76 43.5493 1.76 42.288ZM33.4696 28.736C32.0029 28.736 30.8002 28.3107 29.8616 27.46C28.9522 26.6093 28.4976 25.436 28.4976 23.94C28.4976 22.4733 28.9082 21.3 29.7296 20.42C30.5802 19.5107 31.8269 19.056 33.4696 19.056H52.4336C54.0762 19.056 55.3082 19.5107 56.1296 20.42C56.9802 21.3 57.4056 22.4733 57.4056 23.94C57.4056 25.436 56.9362 26.6093 55.9976 27.46C55.0882 28.3107 53.9002 28.736 52.4336 28.736C51.4362 28.736 50.6296 28.6333 50.0136 28.428C49.4269 28.1933 48.9429 27.9293 48.5616 27.636C48.1802 27.3133 47.8136 27.0493 47.4616 26.844C47.1096 26.6093 46.6696 26.492 46.1416 26.492L45.7456 27.284C45.8629 27.548 46.0682 27.9293 46.3616 28.428C46.6549 28.8973 46.9336 29.5867 47.1976 30.496C47.4616 31.376 47.5936 32.5787 47.5936 34.104V46.82C47.5936 48.0227 47.1389 49.02 46.2296 49.812C45.3496 50.604 44.2642 51 42.9736 51C41.6536 51 40.5389 50.604 39.6296 49.812C38.7496 49.02 38.3096 48.0227 38.3096 46.82V34.104C38.3096 32.5787 38.4416 31.376 38.7056 30.496C38.9696 29.5867 39.2482 28.8973 39.5416 28.428C39.8642 27.9293 40.0842 27.548 40.2016 27.284L39.7616 26.492C39.2336 26.492 38.7936 26.6093 38.4416 26.844C38.0896 27.0493 37.7229 27.3133 37.3416 27.636C36.9602 27.9293 36.4762 28.1933 35.8896 28.428C35.3029 28.6333 34.4962 28.736 33.4696 28.736ZM63.3473 51.088C61.9979 51.088 60.8979 50.6773 60.0473 49.856C59.1966 49.0347 58.7713 47.9933 58.7713 46.732V23.456C58.7713 22.1653 59.1819 21.08 60.0033 20.2C60.8539 19.32 61.9686 18.88 63.3473 18.88C64.8139 18.88 65.9579 19.32 66.7793 20.2C67.6299 21.0507 68.0553 22.1067 68.0553 23.368V46.732C68.0553 47.9933 67.6006 49.0347 66.6913 49.856C65.8113 50.6773 64.6966 51.088 63.3473 51.088ZM75.8062 51C74.3395 51 73.2248 50.5453 72.4622 49.636C71.6995 48.7267 71.3182 47.5093 71.3182 45.984V25.348C71.3182 23.8227 71.5968 22.5907 72.1542 21.652C72.7408 20.684 73.4888 19.98 74.3982 19.54C75.3368 19.1 76.3488 18.88 77.4342 18.88C79.0475 18.88 80.4115 19.3053 81.5262 20.156C82.6408 21.0067 83.5062 22.5027 84.1222 24.644L88.8742 40.88H89.5782V23.984C89.5782 22.4293 89.9742 21.212 90.7662 20.332C91.5582 19.4227 92.6875 18.968 94.1542 18.968C95.6795 18.968 96.8088 19.4227 97.5422 20.332C98.3048 21.212 98.6862 22.4293 98.6862 23.984V43.872C98.6862 46.336 98.1435 48.1547 97.0582 49.328C95.9728 50.5013 94.4475 51.088 92.4822 51.088C90.4875 51.088 88.9328 50.56 87.8182 49.504C86.7035 48.448 85.8528 46.8933 85.2662 44.84L82.1422 34.148C82.0835 33.8547 81.9662 33.5907 81.7902 33.356C81.6435 33.092 81.4382 32.96 81.1742 32.96C80.8515 32.96 80.6315 33.092 80.5142 33.356C80.3968 33.5907 80.3382 33.8547 80.3382 34.148V45.984C80.3382 47.5093 79.9568 48.7267 79.1942 49.636C78.4315 50.5453 77.3022 51 75.8062 51ZM101.878 27.46C101.028 25.6413 100.837 24.0133 101.306 22.576C101.776 21.1093 102.67 20.0827 103.99 19.496C105.34 18.9093 106.704 18.9093 108.082 19.496C109.49 20.0533 110.517 21.2413 111.162 23.06C111.485 23.9693 111.72 25.0253 111.866 26.228C112.013 27.4013 112.174 28.5453 112.35 29.66C112.556 30.7453 112.878 31.6547 113.318 32.388C113.788 33.092 114.506 33.444 115.474 33.444C116.442 33.444 117.161 33.092 117.63 32.388C118.1 31.6547 118.422 30.7453 118.598 29.66C118.804 28.5453 118.965 27.4013 119.082 26.228C119.229 25.0253 119.464 23.9693 119.786 23.06C120.461 21.2413 121.488 20.0533 122.866 19.496C124.245 18.9093 125.609 18.9093 126.958 19.496C128.278 20.0827 129.173 21.1093 129.642 22.576C130.112 24.0133 129.921 25.6413 129.07 27.46C128.63 28.3987 128.044 29.2933 127.31 30.144C126.606 30.9653 125.829 31.816 124.978 32.696C124.128 33.576 123.277 34.5587 122.426 35.644C121.576 36.7 120.798 37.9173 120.094 39.296V46.82C120.094 48.0227 119.654 49.02 118.774 49.812C117.894 50.604 116.794 51 115.474 51C114.184 51 113.084 50.604 112.174 49.812C111.294 49.02 110.854 48.0227 110.854 46.82V39.296C110.18 37.9173 109.417 36.7 108.566 35.644C107.716 34.5587 106.865 33.576 106.014 32.696C105.164 31.816 104.372 30.9653 103.638 30.144C102.905 29.2933 102.318 28.3987 101.878 27.46Z" fill="#FFE983"/>
</svg>
