<svg width="173" height="41" viewBox="0 0 173 41" fill="none" xmlns="http://www.w3.org/2000/svg">
<path d="M0.76 28.288C0.76 26.792 1.22933 25.5893 2.168 24.68C3.136 23.7413 4.26533 23.2867 5.556 23.316C6.524 23.3453 7.448 23.5653 8.328 23.976C9.23733 24.3573 10.176 24.7387 11.144 25.12C12.112 25.5013 13.212 25.692 14.444 25.692C15.588 25.692 16.3213 25.5307 16.644 25.208C16.996 24.856 17.172 24.46 17.172 24.02C17.172 23.4627 16.9227 23.0373 16.424 22.744C15.9547 22.4213 15.2947 22.1573 14.444 21.952L12.42 21.468C10.3667 20.9693 8.504 20.4413 6.832 19.884C5.16 19.2973 3.84 18.5053 2.872 17.508C1.904 16.5107 1.42 15.1613 1.42 13.46C1.42 11.8467 1.816 10.512 2.608 9.456C3.4 8.37066 4.48533 7.52 5.864 6.904C7.24267 6.288 8.79733 5.87733 10.528 5.672C10.4107 5.43733 10.3373 5.17333 10.308 4.88C10.2787 4.58667 10.264 4.27867 10.264 3.956C10.264 2.92933 10.5573 2.18133 11.144 1.712C11.76 1.21333 12.4933 0.963997 13.344 0.963997C14.1947 0.963997 14.8987 1.21333 15.456 1.712C16.0427 2.18133 16.336 2.92933 16.336 3.956C16.336 4.60133 16.248 5.17333 16.072 5.672C18.3893 5.96533 20.3107 6.62533 21.836 7.652C23.3907 8.64933 24.168 9.92533 24.168 11.48C24.168 12.8293 23.8013 13.8707 23.068 14.604C22.364 15.3373 21.4107 15.704 20.208 15.704C19.416 15.704 18.6387 15.5867 17.876 15.352C17.1133 15.088 16.3067 14.824 15.456 14.56C14.6347 14.296 13.6813 14.164 12.596 14.164C11.54 14.164 10.7773 14.296 10.308 14.56C9.868 14.7947 9.648 15.1613 9.648 15.66C9.648 16.2467 9.94133 16.716 10.528 17.068C11.144 17.3907 12.2147 17.7427 13.74 18.124L15.984 18.652C17.8613 19.1213 19.504 19.664 20.912 20.28C22.32 20.8667 23.4053 21.6733 24.168 22.7C24.96 23.6973 25.356 25.0467 25.356 26.748C25.356 29.476 24.5053 31.5293 22.804 32.908C21.132 34.2573 18.8733 35.064 16.028 35.328C16.2333 35.8267 16.336 36.4427 16.336 37.176C16.336 38.1733 16.0427 38.9213 15.456 39.42C14.8987 39.9187 14.1947 40.168 13.344 40.168C12.4933 40.168 11.76 39.9187 11.144 39.42C10.5573 38.9213 10.264 38.1733 10.264 37.176C10.264 36.7653 10.2933 36.3987 10.352 36.076C10.4107 35.7533 10.4987 35.46 10.616 35.196C8.91467 34.9613 7.316 34.5507 5.82 33.964C4.324 33.348 3.10667 32.5707 2.168 31.632C1.22933 30.664 0.76 29.5493 0.76 28.288ZM32.0736 37C30.1082 36.7067 28.8322 35.812 28.2456 34.316C27.6589 32.7907 27.7762 30.8693 28.5976 28.552L34.4056 12.052C34.9336 10.5267 35.5349 9.22133 36.2096 8.136C36.9136 7.05067 37.7789 6.21467 38.8056 5.628C39.8616 5.04133 41.1669 4.748 42.7216 4.748C45.0682 4.748 46.8282 5.39333 48.0016 6.684C49.2042 7.97467 50.2016 9.764 50.9936 12.052L56.7576 28.552C57.5789 30.8693 57.7256 32.7907 57.1976 34.316C56.6989 35.812 55.4522 36.7067 53.4576 37C51.8442 37.2053 50.4362 37.0147 49.2336 36.428C48.0602 35.8413 47.3562 34.888 47.1216 33.568C46.9456 32.688 46.9162 31.9547 47.0336 31.368C47.1802 30.7813 47.3122 30.312 47.4296 29.96C47.5176 29.6667 47.5176 29.388 47.4296 29.124C47.3709 28.8307 47.1509 28.684 46.7696 28.684H38.5856C38.2042 28.684 37.9696 28.8307 37.8816 29.124C37.8229 29.388 37.8522 29.6667 37.9696 29.96C38.0869 30.312 38.2042 30.7813 38.3216 31.368C38.4389 31.9547 38.4242 32.688 38.2776 33.568C38.0429 34.888 37.3536 35.8413 36.2096 36.428C35.0656 37.0147 33.6869 37.2053 32.0736 37ZM45.9336 22.524L43.6456 15.352C43.5869 15.0587 43.4842 14.8387 43.3376 14.692C43.2202 14.516 43.0149 14.428 42.7216 14.428C42.4282 14.428 42.2082 14.516 42.0616 14.692C41.9442 14.8387 41.8416 15.0587 41.7536 15.352L39.5096 22.524H45.9336ZM64.1929 37C62.7262 37 61.6115 36.5453 60.8489 35.636C60.0862 34.7267 59.7049 33.5093 59.7049 31.984V11.348C59.7049 9.82267 59.9835 8.59066 60.5409 7.652C61.1275 6.684 61.8755 5.98 62.7849 5.54C63.7235 5.1 64.7355 4.88 65.8209 4.88C67.4342 4.88 68.7982 5.30533 69.9129 6.156C71.0275 7.00666 71.8929 8.50266 72.5089 10.644L77.2609 26.88H77.9649V9.984C77.9649 8.42933 78.3609 7.212 79.1529 6.332C79.9449 5.42266 81.0742 4.968 82.5409 4.968C84.0662 4.968 85.1955 5.42266 85.9289 6.332C86.6915 7.212 87.0729 8.42933 87.0729 9.984V29.872C87.0729 32.336 86.5302 34.1547 85.4449 35.328C84.3595 36.5013 82.8342 37.088 80.8689 37.088C78.8742 37.088 77.3195 36.56 76.2049 35.504C75.0902 34.448 74.2395 32.8933 73.6529 30.84L70.5289 20.148C70.4702 19.8547 70.3529 19.5907 70.1769 19.356C70.0302 19.092 69.8249 18.96 69.5609 18.96C69.2382 18.96 69.0182 19.092 68.9009 19.356C68.7835 19.5907 68.7249 19.8547 68.7249 20.148V31.984C68.7249 33.5093 68.3435 34.7267 67.5809 35.636C66.8182 36.5453 65.6889 37 64.1929 37ZM101.045 37.264C98.6983 37.264 96.6596 36.5893 94.9289 35.24C93.1983 33.8613 91.8636 31.984 90.9249 29.608C89.9863 27.2027 89.5169 24.4893 89.5169 21.468C89.5169 18.652 89.9276 16.188 90.7489 14.076C91.5996 11.9347 92.7436 10.16 94.1809 8.752C95.6476 7.31467 97.3343 6.244 99.2409 5.54C101.177 4.80667 103.216 4.44 105.357 4.44C109.288 4.44 112.192 4.99733 114.069 6.112C115.976 7.19733 116.929 8.60533 116.929 10.336C116.929 11.6853 116.577 12.8733 115.873 13.9C115.198 14.9267 114.172 15.44 112.793 15.44C111.854 15.44 110.96 15.352 110.109 15.176C109.288 15 108.437 14.8387 107.557 14.692C106.706 14.516 105.753 14.428 104.697 14.428C102.38 14.428 100.708 15.088 99.6809 16.408C98.6836 17.728 98.1849 19.3853 98.1849 21.38C98.1849 22.9933 98.5076 24.3133 99.1529 25.34C99.8276 26.3667 100.708 27.1293 101.793 27.628C102.908 28.0973 104.14 28.332 105.489 28.332C106.604 28.332 107.645 28.0827 108.613 27.584C109.581 27.0853 110.197 26.1613 110.461 24.812H108.305C107.278 24.812 106.486 24.504 105.929 23.888C105.372 23.2427 105.093 22.4213 105.093 21.424C105.093 20.4267 105.372 19.62 105.929 19.004C106.486 18.388 107.278 18.08 108.305 18.08H113.585C115.492 18.08 116.826 18.5933 117.589 19.62C118.381 20.6173 118.777 22.1133 118.777 24.108V32.336C118.777 33.8613 118.366 35.02 117.545 35.812C116.724 36.604 115.638 37 114.289 37C112.852 37 111.722 36.604 110.901 35.812C110.08 35.02 109.669 33.8613 109.669 32.336V29.608H108.877C108.877 32.2773 108.202 34.228 106.853 35.46C105.504 36.6627 103.7 37.264 101.441 37.264H101.045ZM131.714 36.912C130.277 36.912 128.898 36.78 127.578 36.516C126.288 36.252 125.144 35.7533 124.146 35.02C123.178 34.2573 122.401 33.172 121.814 31.764C121.257 30.3267 120.978 28.4493 120.978 26.132C120.978 24.0493 121.257 22.26 121.814 20.764C122.372 19.268 123.032 18.08 123.794 17.2C124.586 16.32 125.305 15.7773 125.95 15.572L125.73 14.736H124.982C123.633 14.736 122.562 14.3107 121.77 13.46C121.008 12.58 120.612 11.392 120.582 9.896C120.553 8.42933 120.934 7.256 121.726 6.376C122.548 5.496 123.633 5.056 124.982 5.056H140.778C143.917 5.056 145.486 6.52267 145.486 9.456C145.486 10.776 145.105 11.832 144.342 12.624C143.58 13.416 142.392 13.812 140.778 13.812H131.67C130.585 13.812 130.042 14.4427 130.042 15.704V19.004C131.509 18.6813 133.034 18.3 134.618 17.86C136.232 17.42 137.757 17.2 139.194 17.2C140.573 17.2 141.6 17.508 142.274 18.124C142.978 18.7107 143.33 19.5173 143.33 20.544C143.33 21.6 142.978 22.436 142.274 23.052C141.6 23.6387 140.573 23.9467 139.194 23.976C137.757 24.0053 136.232 23.8 134.618 23.36C133.005 22.92 131.465 22.5387 129.998 22.216V27.98C129.998 28.5373 130.145 28.9333 130.438 29.168C130.761 29.3733 131.26 29.2853 131.934 28.904C133.401 28.0533 134.838 27.3787 136.246 26.88C137.654 26.352 139.033 26.088 140.382 26.088C142.289 26.088 143.726 26.5867 144.694 27.584C145.692 28.5813 146.19 29.8867 146.19 31.5C146.19 33.2307 145.662 34.5653 144.606 35.504C143.58 36.4427 141.908 36.912 139.59 36.912H131.714ZM148.349 9.236C148.349 7.88666 148.76 6.84533 149.581 6.112C150.432 5.34933 151.517 4.968 152.837 4.968C154.216 4.968 155.316 5.34933 156.137 6.112C156.959 6.84533 157.369 7.88666 157.369 9.236V27.98C157.369 28.5373 157.516 28.9333 157.809 29.168C158.103 29.3733 158.587 29.2853 159.261 28.904C160.728 28.0533 162.033 27.3787 163.177 26.88C164.321 26.352 165.583 26.088 166.961 26.088C168.868 26.088 170.305 26.5867 171.273 27.584C172.241 28.5813 172.725 29.8867 172.725 31.5C172.725 33.2307 172.197 34.5653 171.141 35.504C170.115 36.4427 168.457 36.912 166.169 36.912H157.105C155.169 36.912 153.556 36.692 152.265 36.252C150.975 35.7827 149.992 34.9467 149.317 33.744C148.672 32.5413 148.349 30.796 148.349 28.508V9.236Z" fill="#FFE983"/>
</svg>
