<svg width="1440" height="661" viewBox="0 0 1440 661" fill="none" xmlns="http://www.w3.org/2000/svg">
<g clip-path="url(#clip0_1_133)" filter="url(#filter0_d_1_133)">
<rect width="2440" height="105" transform="translate(-141.767 116) rotate(10)" fill="white"/>
<path d="M-77.0586 189.221C-76.8461 188.016 -76.297 187.113 -75.4115 186.514C-74.4982 185.895 -73.5236 185.689 -72.4878 185.896C-71.712 186.057 -70.9988 186.366 -70.348 186.822C-69.6695 187.258 -68.9674 187.699 -68.2416 188.144C-67.5158 188.588 -66.6566 188.898 -65.6639 189.073C-64.7421 189.236 -64.1283 189.21 -63.8224 188.996C-63.4888 188.762 -63.2907 188.468 -63.2282 188.114C-63.149 187.665 -63.2895 187.287 -63.6496 186.979C-63.982 186.653 -64.4762 186.346 -65.1325 186.06L-66.6946 185.382C-68.2782 184.689 -69.704 183.999 -70.9721 183.312C-72.2359 182.602 -73.187 181.776 -73.8253 180.835C-74.4635 179.894 -74.6618 178.738 -74.4201 177.367C-74.1909 176.067 -73.6822 175.048 -72.894 174.31C-72.1016 173.548 -71.1063 173.016 -69.9079 172.716C-68.7095 172.415 -67.3985 172.305 -65.9748 172.386C-66.036 172.18 -66.0576 171.957 -66.0396 171.716C-66.0215 171.476 -65.9896 171.226 -65.9437 170.966C-65.7979 170.138 -65.4553 169.577 -64.9159 169.283C-64.3487 168.968 -63.7224 168.872 -63.0369 168.992C-62.3515 169.113 -61.8197 169.414 -61.4415 169.895C-61.0354 170.357 -60.9054 171.001 -61.0512 171.828C-61.1429 172.348 -61.2951 172.797 -61.5077 173.174C-59.6822 173.739 -58.2279 174.544 -57.1447 175.588C-56.0337 176.612 -55.5887 177.751 -55.8096 179.004C-56.0013 180.091 -56.4447 180.878 -57.1397 181.364C-57.8112 181.855 -58.6314 182.015 -59.6005 181.844C-60.2386 181.732 -60.8483 181.527 -61.4295 181.229C-62.0065 180.908 -62.6189 180.581 -63.2669 180.248C-63.8911 179.918 -64.6405 179.676 -65.515 179.522C-66.3659 179.372 -66.9992 179.37 -67.4149 179.516C-67.8027 179.643 -68.0321 179.907 -68.1029 180.309C-68.1863 180.781 -68.0166 181.201 -67.5939 181.568C-67.1434 181.916 -66.3307 182.351 -65.1559 182.875L-63.4228 183.62C-61.9768 184.265 -60.7303 184.935 -59.6833 185.632C-58.6322 186.304 -57.8723 187.109 -57.4036 188.044C-56.9072 188.96 -56.7798 190.104 -57.0215 191.475C-57.4091 193.673 -58.3863 195.206 -59.953 196.075C-61.4919 196.925 -63.4265 197.254 -65.7566 197.063C-65.662 197.494 -65.6668 198.005 -65.771 198.595C-65.9127 199.399 -66.2553 199.96 -66.7989 200.279C-67.3188 200.601 -67.9215 200.702 -68.6069 200.581C-69.2923 200.46 -69.8478 200.155 -70.2733 199.666C-70.6751 199.181 -70.8052 198.536 -70.6635 197.733C-70.6052 197.402 -70.5294 197.111 -70.4363 196.859C-70.3432 196.607 -70.2306 196.383 -70.0986 196.187C-71.4361 195.757 -72.6659 195.199 -73.7879 194.513C-74.9058 193.804 -75.7762 193.005 -76.3992 192.115C-77.018 191.202 -77.2378 190.237 -77.0586 189.221ZM-49.5832 182.807C-50.7649 182.598 -51.6735 182.085 -52.309 181.266C-52.9209 180.451 -53.1205 179.441 -52.908 178.236C-52.6996 177.054 -52.202 176.167 -51.4152 175.575C-50.6005 174.963 -49.5314 174.773 -48.2079 175.007L-32.9276 177.701C-31.604 177.935 -30.6759 178.476 -30.1433 179.325C-29.5829 180.155 -29.4069 181.161 -29.6153 182.343C-29.8278 183.548 -30.3727 184.427 -31.2499 184.979C-32.1034 185.535 -33.1211 185.709 -34.3029 185.501C-35.1065 185.359 -35.7419 185.162 -36.209 184.909C-36.6484 184.636 -37.0009 184.355 -37.2665 184.064C-37.5279 183.75 -37.7858 183.485 -38.0403 183.27C-38.2905 183.031 -38.6284 182.874 -39.0538 182.799L-39.4854 183.381C-39.4284 183.61 -39.3171 183.947 -39.1516 184.39C-38.982 184.81 -38.8554 185.405 -38.7718 186.175C-38.6842 186.922 -38.7487 187.909 -38.9654 189.138L-40.772 199.384C-40.9429 200.353 -41.4509 201.092 -42.2961 201.601C-43.1177 202.115 -44.0485 202.279 -45.0885 202.096C-46.1521 201.909 -46.9939 201.431 -47.6141 200.664C-48.2106 199.901 -48.4235 199.034 -48.2526 198.065L-46.446 187.819C-46.2293 186.59 -45.952 185.64 -45.6143 184.969C-45.2724 184.273 -44.9499 183.758 -44.6469 183.421C-44.316 183.065 -44.0846 182.789 -43.9525 182.593L-44.1945 181.892C-44.62 181.817 -44.9912 181.849 -45.3081 181.988C-45.6209 182.104 -45.9539 182.265 -46.307 182.47C-46.6559 182.653 -47.0834 182.796 -47.5895 182.902C-48.0914 182.984 -48.7559 182.952 -49.5832 182.807ZM-28.6848 205.062C-29.772 204.87 -30.6 204.383 -31.1687 203.6C-31.7375 202.817 -31.9322 201.918 -31.753 200.902L-28.4461 182.147C-28.2627 181.107 -27.7776 180.291 -26.9908 179.698C-26.1804 179.11 -25.2197 178.914 -24.1088 179.11C-22.9271 179.318 -22.0678 179.835 -21.531 180.661C-20.9665 181.467 -20.7738 182.379 -20.953 183.395L-24.2724 202.221C-24.4516 203.237 -24.9659 204.011 -25.8153 204.544C-26.6411 205.081 -27.5976 205.253 -28.6848 205.062ZM-18.6335 206.761C-19.8153 206.552 -20.6489 206.028 -21.1342 205.187C-21.6195 204.346 -21.7538 203.311 -21.5371 202.082L-18.6052 185.454C-18.3885 184.225 -17.9889 183.272 -17.4065 182.595C-16.7963 181.898 -16.0935 181.437 -15.2983 181.212C-14.4795 180.991 -13.6328 180.957 -12.7583 181.111C-11.4584 181.341 -10.4197 181.877 -9.64246 182.721C-8.86517 183.565 -8.38047 184.893 -8.18836 186.706L-6.66617 200.463L-6.09892 200.563L-3.69841 186.949C-3.47753 185.697 -2.9855 184.772 -2.22231 184.175C-1.45496 183.555 -0.480406 183.349 0.701362 183.558C1.9304 183.774 2.77577 184.301 3.23746 185.138C3.72695 185.956 3.86126 186.991 3.64038 188.243L0.814776 204.268C0.464701 206.253 -0.230942 207.642 -1.27215 208.433C-2.31337 209.224 -3.62576 209.48 -5.20933 209.201C-6.81653 208.918 -7.99419 208.271 -8.74231 207.262C-9.49042 206.253 -9.95496 204.879 -10.1359 203.141L-11.134 194.082C-11.1396 193.838 -11.1967 193.608 -11.3051 193.394C-11.3858 193.161 -11.5325 193.025 -11.7452 192.988C-12.0052 192.942 -12.2012 193.017 -12.3333 193.213C-12.4612 193.385 -12.5459 193.59 -12.5876 193.826L-14.2692 203.363C-14.4859 204.592 -14.9661 205.519 -15.7099 206.143C-16.4536 206.767 -17.4281 206.973 -18.6335 206.761ZM5.71853 191.498C5.29149 189.911 5.36916 188.573 5.95154 187.481C6.53808 186.366 7.40483 185.666 8.55177 185.381C9.72235 185.1 10.8214 185.293 11.8489 185.962C12.9042 186.611 13.5627 187.714 13.8243 189.271C13.9551 190.05 13.9941 190.934 13.9414 191.924C13.8929 192.89 13.8604 193.835 13.8438 194.758C13.855 195.662 13.9858 196.44 14.2362 197.094C14.5143 197.728 15.0434 198.113 15.8234 198.251C16.6033 198.388 17.2324 198.207 17.7106 197.706C18.1929 197.182 18.5821 196.495 18.8781 195.646C19.202 194.777 19.4945 193.878 19.7557 192.949C20.0448 192.001 20.3839 191.183 20.7731 190.497C21.5751 189.127 22.5711 188.316 23.7611 188.062C24.9554 187.786 26.0544 187.979 27.0583 188.644C28.0385 189.304 28.6135 190.258 28.7833 191.507C28.9573 192.732 28.5723 194.016 27.6285 195.361C27.1406 196.055 26.5408 196.692 25.8291 197.274C25.1451 197.835 24.3979 198.41 23.5875 198.998C22.777 199.587 21.952 200.258 21.1124 201.011C20.2769 201.741 19.4776 202.612 18.7145 203.623L17.6455 209.685C17.4746 210.654 16.9784 211.395 16.1568 211.908C15.3353 212.421 14.3927 212.584 13.3291 212.397C12.2891 212.213 11.459 211.738 10.8389 210.971C10.2423 210.207 10.0295 209.341 10.2004 208.372L11.2694 202.31C10.9216 201.103 10.48 200.014 9.94465 199.042C9.41343 198.047 8.86761 197.134 8.30721 196.304C7.74681 195.474 7.22952 194.676 6.75532 193.91C6.2853 193.121 5.9397 192.316 5.71853 191.498Z" fill="black"/>
<path d="M189.824 236.28C190.037 235.074 190.586 234.172 191.471 233.572C192.385 232.954 193.359 232.748 194.395 232.955C195.171 233.116 195.884 233.424 196.535 233.88C197.213 234.317 197.916 234.757 198.641 235.202C199.367 235.647 200.226 235.957 201.219 236.132C202.141 236.294 202.755 236.269 203.06 236.055C203.394 235.821 203.592 235.527 203.655 235.172C203.734 234.723 203.593 234.345 203.233 234.038C202.901 233.711 202.407 233.405 201.75 233.118L200.188 232.441C198.605 231.747 197.179 231.057 195.911 230.371C194.647 229.66 193.696 228.835 193.058 227.894C192.419 226.952 192.221 225.796 192.463 224.426C192.692 223.126 193.201 222.107 193.989 221.368C194.781 220.606 195.777 220.075 196.975 219.774C198.173 219.474 199.484 219.364 200.908 219.444C200.847 219.239 200.825 219.016 200.843 218.775C200.861 218.535 200.893 218.284 200.939 218.024C201.085 217.197 201.428 216.636 201.967 216.341C202.534 216.027 203.161 215.93 203.846 216.051C204.531 216.172 205.063 216.473 205.441 216.954C205.847 217.415 205.978 218.06 205.832 218.887C205.74 219.407 205.588 219.855 205.375 220.232C207.201 220.798 208.655 221.602 209.738 222.646C210.849 223.671 211.294 224.809 211.073 226.062C210.882 227.149 210.438 227.936 209.743 228.423C209.072 228.914 208.252 229.074 207.282 228.903C206.644 228.791 206.035 228.586 205.453 228.288C204.876 227.967 204.264 227.64 203.616 227.306C202.992 226.977 202.242 226.735 201.368 226.581C200.517 226.431 199.884 226.429 199.468 226.575C199.08 226.701 198.851 226.965 198.78 227.367C198.697 227.84 198.866 228.26 199.289 228.627C199.74 228.974 200.552 229.41 201.727 229.934L203.46 230.678C204.906 231.323 206.153 231.994 207.2 232.69C208.251 233.363 209.011 234.167 209.479 235.103C209.976 236.019 210.103 237.162 209.861 238.533C209.474 240.731 208.497 242.265 206.93 243.134C205.391 243.984 203.456 244.313 201.126 244.121C201.221 244.552 201.216 245.063 201.112 245.654C200.97 246.458 200.628 247.019 200.084 247.337C199.564 247.66 198.961 247.761 198.276 247.64C197.591 247.519 197.035 247.214 196.61 246.724C196.208 246.239 196.078 245.595 196.219 244.791C196.278 244.46 196.354 244.169 196.447 243.918C196.54 243.666 196.652 243.442 196.784 243.246C195.447 242.815 194.217 242.257 193.095 241.572C191.977 240.863 191.107 240.064 190.484 239.174C189.865 238.261 189.645 237.296 189.824 236.28ZM217.3 229.865C216.118 229.657 215.209 229.143 214.574 228.324C213.962 227.51 213.762 226.5 213.975 225.294C214.183 224.113 214.681 223.226 215.468 222.633C216.282 222.021 217.351 221.832 218.675 222.065L233.955 224.76C235.279 224.993 236.207 225.535 236.74 226.384C237.3 227.214 237.476 228.22 237.268 229.401C237.055 230.607 236.51 231.486 235.633 232.038C234.779 232.594 233.762 232.768 232.58 232.559C231.776 232.418 231.141 232.22 230.674 231.967C230.235 231.695 229.882 231.414 229.616 231.123C229.355 230.809 229.097 230.544 228.843 230.329C228.592 230.089 228.255 229.932 227.829 229.857L227.397 230.439C227.455 230.669 227.566 231.005 227.731 231.449C227.901 231.868 228.028 232.463 228.111 233.234C228.199 233.98 228.134 234.968 227.918 236.197L226.111 246.443C225.94 247.412 225.432 248.151 224.587 248.66C223.765 249.173 222.834 249.338 221.794 249.155C220.731 248.967 219.889 248.49 219.269 247.722C218.672 246.959 218.459 246.093 218.63 245.124L220.437 234.878C220.654 233.649 220.931 232.699 221.269 232.027C221.611 231.332 221.933 230.816 222.236 230.48C222.567 230.124 222.798 229.848 222.93 229.652L222.688 228.951C222.263 228.876 221.892 228.908 221.575 229.047C221.262 229.162 220.929 229.323 220.576 229.529C220.227 229.711 219.8 229.855 219.293 229.961C218.792 230.043 218.127 230.011 217.3 229.865ZM238.198 252.12C237.111 251.928 236.283 251.441 235.714 250.659C235.145 249.876 234.951 248.977 235.13 247.96L238.437 229.206C238.62 228.166 239.105 227.349 239.892 226.757C240.703 226.169 241.663 225.973 242.774 226.169C243.956 226.377 244.815 226.894 245.352 227.72C245.916 228.526 246.109 229.437 245.93 230.454L242.61 249.279C242.431 250.296 241.917 251.07 241.068 251.603C240.242 252.139 239.285 252.312 238.198 252.12ZM248.249 253.819C247.068 253.611 246.234 253.086 245.749 252.245C245.263 251.404 245.129 250.369 245.346 249.14L248.278 232.513C248.494 231.284 248.894 230.33 249.476 229.653C250.087 228.957 250.789 228.496 251.585 228.27C252.403 228.049 253.25 228.016 254.125 228.17C255.425 228.399 256.463 228.936 257.24 229.779C258.018 230.623 258.502 231.952 258.695 233.765L260.217 247.522L260.784 247.622L263.185 234.008C263.405 232.755 263.897 231.831 264.661 231.234C265.428 230.614 266.403 230.408 267.584 230.616C268.813 230.833 269.659 231.36 270.12 232.197C270.61 233.014 270.744 234.049 270.523 235.302L267.698 251.327C267.348 253.312 266.652 254.7 265.611 255.492C264.57 256.283 263.257 256.539 261.674 256.26C260.066 255.976 258.889 255.33 258.141 254.321C257.393 253.311 256.928 251.938 256.747 250.2L255.749 241.141C255.743 240.896 255.686 240.667 255.578 240.453C255.497 240.219 255.35 240.084 255.138 240.046C254.878 240 254.682 240.076 254.55 240.272C254.422 240.444 254.337 240.648 254.295 240.885L252.614 250.422C252.397 251.651 251.917 252.577 251.173 253.202C250.429 253.826 249.455 254.032 248.249 253.819ZM272.601 238.556C272.174 236.97 272.252 235.631 272.834 234.54C273.421 233.425 274.288 232.724 275.435 232.439C276.605 232.158 277.704 232.352 278.732 233.021C279.787 233.67 280.446 234.773 280.707 236.33C280.838 237.108 280.877 237.993 280.824 238.983C280.776 239.949 280.743 240.894 280.727 241.817C280.738 242.72 280.869 243.499 281.119 244.152C281.397 244.786 281.926 245.172 282.706 245.309C283.486 245.447 284.115 245.266 284.594 244.765C285.076 244.241 285.465 243.554 285.761 242.704C286.085 241.835 286.377 240.937 286.639 240.008C286.928 239.06 287.267 238.242 287.656 237.555C288.458 236.186 289.454 235.374 290.644 235.121C291.838 234.844 292.937 235.038 293.941 235.702C294.921 236.363 295.496 237.317 295.666 238.566C295.84 239.79 295.455 241.075 294.511 242.42C294.024 243.113 293.424 243.751 292.712 244.332C292.028 244.894 291.281 245.469 290.47 246.057C289.66 246.645 288.835 247.316 287.995 248.07C287.16 248.8 286.361 249.67 285.597 250.681L284.528 256.744C284.358 257.713 283.861 258.454 283.04 258.967C282.218 259.48 281.276 259.643 280.212 259.455C279.172 259.272 278.342 258.797 277.722 258.029C277.125 257.266 276.912 256.4 277.083 255.431L278.152 249.368C277.805 248.162 277.363 247.072 276.828 246.101C276.296 245.105 275.751 244.193 275.19 243.363C274.63 242.533 274.112 241.735 273.638 240.969C273.168 240.179 272.823 239.375 272.601 238.556Z" fill="black"/>
<path d="M456.707 283.338C456.92 282.133 457.469 281.23 458.354 280.631C459.268 280.012 460.242 279.806 461.278 280.013C462.054 280.175 462.767 280.483 463.418 280.939C464.096 281.376 464.798 281.816 465.524 282.261C466.25 282.706 467.109 283.016 468.102 283.191C469.024 283.353 469.638 283.327 469.943 283.113C470.277 282.88 470.475 282.586 470.538 282.231C470.617 281.782 470.476 281.404 470.116 281.097C469.784 280.77 469.29 280.463 468.633 280.177L467.071 279.5C465.488 278.806 464.062 278.116 462.794 277.429C461.53 276.719 460.579 275.893 459.941 274.952C459.302 274.011 459.104 272.855 459.346 271.484C459.575 270.184 460.084 269.165 460.872 268.427C461.664 267.665 462.66 267.134 463.858 266.833C465.056 266.533 466.367 266.423 467.791 266.503C467.73 266.297 467.708 266.074 467.726 265.834C467.744 265.593 467.776 265.343 467.822 265.083C467.968 264.256 468.311 263.695 468.85 263.4C469.417 263.086 470.043 262.989 470.729 263.11C471.414 263.231 471.946 263.532 472.324 264.013C472.73 264.474 472.86 265.118 472.715 265.946C472.623 266.466 472.471 266.914 472.258 267.291C474.084 267.856 475.538 268.661 476.621 269.705C477.732 270.73 478.177 271.868 477.956 273.121C477.765 274.208 477.321 274.995 476.626 275.482C475.955 275.973 475.134 276.133 474.165 275.962C473.527 275.849 472.918 275.644 472.336 275.347C471.759 275.026 471.147 274.698 470.499 274.365C469.875 274.035 469.125 273.794 468.251 273.639C467.4 273.489 466.767 273.487 466.351 273.633C465.963 273.76 465.734 274.024 465.663 274.426C465.58 274.899 465.749 275.319 466.172 275.686C466.622 276.033 467.435 276.469 468.61 276.993L470.343 277.737C471.789 278.382 473.035 279.053 474.082 279.749C475.134 280.422 475.894 281.226 476.362 282.161C476.859 283.078 476.986 284.221 476.744 285.592C476.357 287.79 475.38 289.324 473.813 290.193C472.274 291.042 470.339 291.371 468.009 291.18C468.104 291.611 468.099 292.122 467.995 292.713C467.853 293.516 467.511 294.077 466.967 294.396C466.447 294.718 465.844 294.819 465.159 294.698C464.474 294.578 463.918 294.273 463.493 293.783C463.091 293.298 462.961 292.654 463.102 291.85C463.161 291.519 463.236 291.228 463.329 290.976C463.423 290.725 463.535 290.501 463.667 290.305C462.33 289.874 461.1 289.316 459.978 288.631C458.86 287.922 457.99 287.122 457.367 286.233C456.748 285.319 456.528 284.355 456.707 283.338ZM484.183 276.924C483.001 276.715 482.092 276.202 481.457 275.383C480.845 274.568 480.645 273.558 480.858 272.353C481.066 271.171 481.564 270.284 482.351 269.692C483.165 269.08 484.234 268.891 485.558 269.124L500.838 271.819C502.162 272.052 503.09 272.593 503.622 273.443C504.183 274.273 504.359 275.278 504.151 276.46C503.938 277.666 503.393 278.544 502.516 279.096C501.662 279.653 500.645 279.827 499.463 279.618C498.659 279.476 498.024 279.279 497.557 279.026C497.117 278.754 496.765 278.472 496.499 278.182C496.238 277.868 495.98 277.603 495.726 277.387C495.475 277.148 495.137 276.991 494.712 276.916L494.28 277.498C494.337 277.727 494.449 278.064 494.614 278.507C494.784 278.927 494.91 279.522 494.994 280.292C495.082 281.039 495.017 282.027 494.8 283.256L492.994 293.502C492.823 294.471 492.315 295.21 491.47 295.719C490.648 296.232 489.717 296.397 488.677 296.213C487.614 296.026 486.772 295.548 486.152 294.781C485.555 294.018 485.342 293.152 485.513 292.183L487.32 281.937C487.537 280.708 487.814 279.757 488.152 279.086C488.493 278.391 488.816 277.875 489.119 277.538C489.45 277.182 489.681 276.906 489.813 276.71L489.571 276.01C489.146 275.935 488.775 275.967 488.458 276.106C488.145 276.221 487.812 276.382 487.459 276.588C487.11 276.77 486.682 276.914 486.176 277.02C485.674 277.102 485.01 277.07 484.183 276.924ZM505.081 299.179C503.994 298.987 503.166 298.5 502.597 297.717C502.028 296.935 501.834 296.035 502.013 295.019L505.32 276.264C505.503 275.224 505.988 274.408 506.775 273.816C507.585 273.228 508.546 273.031 509.657 273.227C510.839 273.436 511.698 273.953 512.235 274.778C512.799 275.585 512.992 276.496 512.813 277.512L509.493 296.338C509.314 297.354 508.8 298.129 507.95 298.661C507.125 299.198 506.168 299.371 505.081 299.179ZM515.132 300.878C513.95 300.67 513.117 300.145 512.632 299.304C512.146 298.463 512.012 297.428 512.229 296.199L515.161 279.571C515.377 278.342 515.777 277.389 516.359 276.712C516.97 276.015 517.672 275.554 518.467 275.329C519.286 275.108 520.133 275.074 521.008 275.229C522.307 275.458 523.346 275.994 524.123 276.838C524.901 277.682 525.385 279.01 525.577 280.823L527.1 294.581L527.667 294.681L530.067 281.067C530.288 279.814 530.78 278.889 531.543 278.293C532.311 277.673 533.285 277.467 534.467 277.675C535.696 277.892 536.542 278.419 537.003 279.255C537.493 280.073 537.627 281.108 537.406 282.361L534.581 298.385C534.231 300.371 533.535 301.759 532.494 302.55C531.452 303.342 530.14 303.598 528.556 303.318C526.949 303.035 525.772 302.389 525.024 301.379C524.275 300.37 523.811 298.997 523.63 297.259L522.632 288.2C522.626 287.955 522.569 287.726 522.461 287.512C522.38 287.278 522.233 287.143 522.021 287.105C521.761 287.059 521.565 287.134 521.433 287.33C521.305 287.503 521.22 287.707 521.178 287.943L519.497 297.48C519.28 298.709 518.8 299.636 518.056 300.26C517.312 300.885 516.338 301.091 515.132 300.878ZM539.484 285.615C539.057 284.029 539.135 282.69 539.717 281.598C540.304 280.483 541.171 279.783 542.318 279.498C543.488 279.217 544.587 279.411 545.615 280.079C546.67 280.728 547.328 281.832 547.59 283.389C547.721 284.167 547.76 285.051 547.707 286.041C547.659 287.008 547.626 287.952 547.61 288.875C547.621 289.779 547.752 290.558 548.002 291.211C548.28 291.845 548.809 292.231 549.589 292.368C550.369 292.506 550.998 292.324 551.476 291.824C551.959 291.299 552.348 290.613 552.644 289.763C552.968 288.894 553.26 287.995 553.522 287.067C553.811 286.118 554.15 285.301 554.539 284.614C555.341 283.244 556.337 282.433 557.527 282.18C558.721 281.903 559.82 282.097 560.824 282.761C561.804 283.421 562.379 284.376 562.549 285.624C562.723 286.849 562.338 288.134 561.394 289.478C560.906 290.172 560.307 290.81 559.595 291.391C558.911 291.953 558.164 292.528 557.353 293.116C556.543 293.704 555.718 294.375 554.878 295.129C554.043 295.859 553.243 296.729 552.48 297.74L551.411 303.802C551.24 304.771 550.744 305.512 549.923 306.026C549.101 306.539 548.158 306.702 547.095 306.514C546.055 306.331 545.225 305.855 544.605 305.088C544.008 304.325 543.795 303.459 543.966 302.49L545.035 296.427C544.687 295.22 544.246 294.131 543.71 293.159C543.179 292.164 542.633 291.251 542.073 290.421C541.513 289.592 540.995 288.794 540.521 288.028C540.051 287.238 539.706 286.434 539.484 285.615Z" fill="black"/>
<path d="M723.59 330.397C723.803 329.191 724.352 328.289 725.237 327.69C726.151 327.071 727.125 326.865 728.161 327.072C728.937 327.233 729.65 327.542 730.301 327.998C730.979 328.434 731.681 328.875 732.407 329.32C733.133 329.764 733.992 330.074 734.985 330.249C735.907 330.412 736.52 330.386 736.826 330.172C737.16 329.938 737.358 329.644 737.42 329.29C737.5 328.841 737.359 328.462 736.999 328.155C736.667 327.829 736.172 327.522 735.516 327.236L733.954 326.558C732.371 325.865 730.945 325.175 729.677 324.488C728.413 323.778 727.462 322.952 726.823 322.011C726.185 321.07 725.987 319.914 726.229 318.543C726.458 317.243 726.967 316.224 727.755 315.485C728.547 314.723 729.542 314.192 730.741 313.892C731.939 313.591 733.25 313.481 734.674 313.562C734.613 313.356 734.591 313.133 734.609 312.892C734.627 312.652 734.659 312.402 734.705 312.142C734.851 311.314 735.193 310.753 735.733 310.458C736.3 310.144 736.926 310.047 737.612 310.168C738.297 310.289 738.829 310.59 739.207 311.071C739.613 311.533 739.743 312.177 739.597 313.004C739.506 313.524 739.354 313.973 739.141 314.349C740.966 314.915 742.421 315.72 743.504 316.764C744.615 317.788 745.06 318.927 744.839 320.179C744.647 321.267 744.204 322.054 743.509 322.54C742.838 323.031 742.017 323.191 741.048 323.02C740.41 322.908 739.8 322.703 739.219 322.405C738.642 322.084 738.03 321.757 737.382 321.423C736.758 321.094 736.008 320.852 735.134 320.698C734.283 320.548 733.65 320.546 733.234 320.692C732.846 320.819 732.617 321.083 732.546 321.485C732.462 321.957 732.632 322.377 733.055 322.744C733.505 323.092 734.318 323.527 735.493 324.051L737.226 324.796C738.672 325.44 739.918 326.111 740.965 326.807C742.017 327.48 742.776 328.284 743.245 329.22C743.742 330.136 743.869 331.28 743.627 332.65C743.24 334.849 742.262 336.382 740.696 337.251C739.157 338.101 737.222 338.43 734.892 338.239C734.987 338.67 734.982 339.18 734.878 339.771C734.736 340.575 734.393 341.136 733.85 341.454C733.33 341.777 732.727 341.878 732.042 341.757C731.356 341.636 730.801 341.331 730.375 340.842C729.974 340.357 729.844 339.712 729.985 338.909C730.044 338.578 730.119 338.286 730.212 338.035C730.306 337.783 730.418 337.559 730.55 337.363C729.213 336.932 727.983 336.374 726.861 335.689C725.743 334.98 724.872 334.181 724.25 333.291C723.631 332.378 723.411 331.413 723.59 330.397ZM747.583 341.865C746.041 341.35 745.14 340.448 744.88 339.159C744.624 337.847 744.992 336.315 745.983 334.565L753.007 322.095C753.649 320.941 754.319 319.975 755.017 319.196C755.738 318.421 756.554 317.871 757.465 317.544C758.399 317.221 759.493 317.17 760.745 317.391C762.636 317.725 763.962 318.495 764.724 319.701C765.51 320.912 766.06 322.496 766.373 324.452L768.673 338.565C769.005 340.549 768.85 342.118 768.208 343.272C767.594 344.407 766.462 344.951 764.813 344.904C763.484 344.84 762.377 344.486 761.491 343.843C760.629 343.203 760.197 342.335 760.196 341.238C760.179 340.504 760.26 339.909 760.438 339.453C760.639 339.001 760.812 338.642 760.957 338.375C761.069 338.151 761.109 337.926 761.075 337.701C761.07 337.456 760.913 337.307 760.606 337.253L754.012 336.09C753.705 336.036 753.495 336.121 753.382 336.345C753.297 336.549 753.281 336.778 753.334 337.031C753.379 337.331 753.407 337.726 753.418 338.215C753.429 338.705 753.313 339.293 753.07 339.982C752.693 341.012 752.002 341.682 750.997 341.992C749.992 342.302 748.854 342.26 747.583 341.865ZM760.808 332.171L759.983 326.067C759.978 325.822 759.926 325.63 759.829 325.491C759.759 325.333 759.606 325.233 759.37 325.191C759.134 325.149 758.944 325.189 758.801 325.31C758.685 325.411 758.571 325.574 758.459 325.798L755.632 331.258L760.808 332.171ZM773.463 346.429C772.282 346.22 771.448 345.696 770.963 344.855C770.478 344.014 770.343 342.979 770.56 341.75L773.492 325.122C773.709 323.893 774.108 322.94 774.691 322.263C775.301 321.566 776.003 321.105 776.799 320.88C777.618 320.659 778.464 320.625 779.339 320.779C780.639 321.009 781.677 321.545 782.455 322.389C783.232 323.233 783.717 324.561 783.909 326.374L785.431 340.131L785.998 340.231L788.399 326.617C788.62 325.365 789.112 324.44 789.875 323.843C790.642 323.223 791.617 323.017 792.798 323.226C794.027 323.442 794.873 323.969 795.334 324.806C795.824 325.624 795.958 326.659 795.737 327.911L792.912 343.936C792.562 345.921 791.866 347.31 790.825 348.101C789.784 348.892 788.471 349.148 786.888 348.869C785.281 348.586 784.103 347.939 783.355 346.93C782.607 345.921 782.142 344.547 781.961 342.809L780.963 333.75C780.957 333.506 780.9 333.276 780.792 333.062C780.711 332.829 780.565 332.693 780.352 332.656C780.092 332.61 779.896 332.685 779.764 332.881C779.636 333.053 779.551 333.258 779.509 333.494L777.828 343.031C777.611 344.26 777.131 345.187 776.387 345.811C775.643 346.435 774.669 346.641 773.463 346.429ZM803.12 351.877C801.229 351.544 799.682 350.711 798.479 349.378C797.281 348.021 796.472 346.319 796.053 344.271C795.639 342.199 795.646 339.946 796.075 337.512C796.475 335.243 797.156 333.316 798.118 331.731C799.108 330.126 800.282 328.859 801.64 327.929C803.026 326.979 804.537 326.356 806.173 326.059C807.837 325.744 809.532 325.738 811.257 326.042C814.425 326.6 816.685 327.462 818.04 328.627C819.422 329.772 819.99 331.042 819.744 332.437C819.552 333.524 819.1 334.431 818.387 335.158C817.697 335.89 816.797 336.158 815.686 335.962C814.93 335.828 814.222 335.63 813.561 335.368C812.924 335.109 812.262 334.858 811.574 334.615C810.913 334.352 810.158 334.146 809.307 333.996C807.439 333.667 805.998 333.961 804.984 334.879C803.993 335.801 803.355 337.065 803.072 338.672C802.843 339.972 802.915 341.082 803.289 342.001C803.687 342.924 804.288 343.663 805.091 344.219C805.923 344.756 806.882 345.12 807.969 345.312C808.868 345.47 809.742 345.417 810.593 345.153C811.444 344.889 812.071 344.232 812.476 343.182L810.738 342.876C809.911 342.73 809.317 342.369 808.955 341.793C808.598 341.194 808.49 340.493 808.632 339.689C808.773 338.886 809.113 338.275 809.649 337.858C810.186 337.441 810.868 337.305 811.695 337.451L815.949 338.201C817.486 338.472 818.488 339.076 818.957 340.011C819.453 340.927 819.56 342.189 819.276 343.796L818.107 350.426C817.891 351.655 817.395 352.53 816.621 353.052C815.846 353.573 814.916 353.738 813.828 353.546C812.67 353.342 811.817 352.863 811.267 352.108C810.718 351.353 810.552 350.361 810.769 349.132L811.156 346.934L810.518 346.821C810.139 348.972 809.318 350.448 808.056 351.249C806.798 352.026 805.259 352.254 803.439 351.934L803.12 351.877ZM827.882 355.951C826.723 355.747 825.631 355.445 824.605 355.044C823.603 354.648 822.752 354.084 822.052 353.351C821.381 352.599 820.909 351.614 820.636 350.397C820.391 349.159 820.433 347.607 820.763 345.74C821.058 344.062 821.537 342.659 822.199 341.533C822.86 340.407 823.561 339.544 824.301 338.943C825.064 338.346 825.72 338.011 826.269 337.937L826.211 337.233L825.608 337.126C824.521 336.935 823.718 336.44 823.201 335.642C822.712 334.824 822.561 333.811 822.75 332.601C822.935 331.415 823.409 330.524 824.172 329.928C824.959 329.335 825.896 329.135 826.983 329.327L839.711 331.571C842.24 332.017 843.296 333.421 842.879 335.785C842.692 336.849 842.234 337.645 841.507 338.175C840.78 338.705 839.767 338.855 838.467 338.626L831.128 337.332C830.254 337.178 829.727 337.609 829.547 338.625L829.079 341.284C830.306 341.233 831.589 341.142 832.928 341.012C834.291 340.887 835.551 340.927 836.709 341.131C837.82 341.327 838.603 341.721 839.06 342.313C839.543 342.886 839.712 343.586 839.567 344.413C839.417 345.264 839.014 345.887 838.359 346.284C837.732 346.661 836.861 346.763 835.746 346.591C834.584 346.41 833.384 346.028 832.147 345.444C830.909 344.86 829.723 344.334 828.587 343.866L827.768 348.51C827.689 348.959 827.751 349.299 827.954 349.53C828.184 349.741 828.599 349.741 829.197 349.53C830.499 349.053 831.753 348.713 832.958 348.512C834.168 348.286 835.316 348.269 836.404 348.461C837.94 348.732 839.027 349.338 839.665 350.279C840.327 351.224 840.544 352.347 840.314 353.647C840.069 355.042 839.454 356.042 838.469 356.648C837.509 357.259 836.095 357.399 834.228 357.07L827.882 355.951ZM845.217 336.015C845.409 334.927 845.888 334.147 846.654 333.672C847.448 333.179 848.376 333.026 849.44 333.213C850.551 333.409 851.383 333.873 851.936 334.604C852.494 335.311 852.677 336.209 852.485 337.296L849.822 352.399C849.743 352.848 849.805 353.188 850.008 353.419C850.215 353.626 850.618 353.624 851.215 353.412C852.518 352.935 853.666 352.577 854.658 352.338C855.655 352.075 856.709 352.041 857.82 352.237C859.356 352.508 860.443 353.114 861.082 354.055C861.72 354.997 861.924 356.117 861.695 357.417C861.449 358.812 860.834 359.812 859.85 360.418C858.889 361.029 857.487 361.171 855.644 360.846L848.34 359.559C846.78 359.283 845.512 358.877 844.534 358.339C843.561 357.778 842.888 356.964 842.515 355.899C842.166 354.839 842.154 353.387 842.479 351.543L845.217 336.015Z" fill="black"/>
<path d="M990.473 377.456C990.686 376.25 991.235 375.348 992.12 374.748C993.033 374.13 994.008 373.924 995.044 374.131C995.82 374.292 996.533 374.6 997.184 375.056C997.862 375.493 998.564 375.933 999.29 376.378C1000.02 376.823 1000.88 377.133 1001.87 377.308C1002.79 377.471 1003.4 377.445 1003.71 377.231C1004.04 376.997 1004.24 376.703 1004.3 376.348C1004.38 375.899 1004.24 375.521 1003.88 375.214C1003.55 374.887 1003.06 374.581 1002.4 374.294L1000.84 373.617C999.253 372.923 997.828 372.233 996.56 371.547C995.296 370.836 994.345 370.011 993.706 369.07C993.068 368.128 992.87 366.972 993.112 365.602C993.341 364.302 993.849 363.283 994.638 362.544C995.43 361.782 996.425 361.251 997.624 360.951C998.822 360.65 1000.13 360.54 1001.56 360.62C1001.5 360.415 1001.47 360.192 1001.49 359.951C1001.51 359.711 1001.54 359.46 1001.59 359.2C1001.73 358.373 1002.08 357.812 1002.62 357.517C1003.18 357.203 1003.81 357.106 1004.49 357.227C1005.18 357.348 1005.71 357.649 1006.09 358.13C1006.5 358.591 1006.63 359.236 1006.48 360.063C1006.39 360.583 1006.24 361.031 1006.02 361.408C1007.85 361.974 1009.3 362.778 1010.39 363.822C1011.5 364.847 1011.94 365.986 1011.72 367.238C1011.53 368.325 1011.09 369.112 1010.39 369.599C1009.72 370.09 1008.9 370.25 1007.93 370.079C1007.29 369.967 1006.68 369.762 1006.1 369.464C1005.53 369.143 1004.91 368.816 1004.26 368.482C1003.64 368.153 1002.89 367.911 1002.02 367.757C1001.17 367.607 1000.53 367.605 1000.12 367.751C999.729 367.877 999.5 368.141 999.429 368.543C999.345 369.016 999.515 369.436 999.938 369.803C1000.39 370.15 1001.2 370.586 1002.38 371.11L1004.11 371.854C1005.55 372.499 1006.8 373.17 1007.85 373.866C1008.9 374.539 1009.66 375.343 1010.13 376.279C1010.62 377.195 1010.75 378.338 1010.51 379.709C1010.12 381.907 1009.15 383.441 1007.58 384.31C1006.04 385.16 1004.11 385.489 1001.78 385.297C1001.87 385.728 1001.86 386.239 1001.76 386.83C1001.62 387.634 1001.28 388.195 1000.73 388.513C1000.21 388.836 999.61 388.937 998.925 388.816C998.239 388.695 997.684 388.39 997.258 387.9C996.856 387.415 996.726 386.771 996.868 385.967C996.926 385.636 997.002 385.345 997.095 385.094C997.188 384.842 997.301 384.618 997.433 384.422C996.096 383.991 994.866 383.433 993.744 382.748C992.626 382.039 991.755 381.24 991.132 380.35C990.514 379.437 990.294 378.472 990.473 377.456ZM1017.95 371.041C1016.77 370.833 1015.86 370.319 1015.22 369.5C1014.61 368.686 1014.41 367.676 1014.62 366.47C1014.83 365.289 1015.33 364.402 1016.12 363.809C1016.93 363.197 1018 363.008 1019.32 363.241L1034.6 365.936C1035.93 366.169 1036.86 366.711 1037.39 367.56C1037.95 368.39 1038.12 369.396 1037.92 370.578C1037.7 371.783 1037.16 372.662 1036.28 373.214C1035.43 373.77 1034.41 373.944 1033.23 373.735C1032.43 373.594 1031.79 373.396 1031.32 373.143C1030.88 372.871 1030.53 372.59 1030.27 372.299C1030 371.985 1029.75 371.72 1029.49 371.505C1029.24 371.266 1028.9 371.108 1028.48 371.033L1028.05 371.615C1028.1 371.845 1028.21 372.181 1028.38 372.625C1028.55 373.044 1028.68 373.639 1028.76 374.41C1028.85 375.156 1028.78 376.144 1028.57 377.373L1026.76 387.619C1026.59 388.588 1026.08 389.327 1025.24 389.836C1024.41 390.349 1023.48 390.514 1022.44 390.331C1021.38 390.143 1020.54 389.666 1019.92 388.898C1019.32 388.135 1019.11 387.269 1019.28 386.3L1021.09 376.054C1021.3 374.825 1021.58 373.875 1021.92 373.203C1022.26 372.508 1022.58 371.992 1022.88 371.656C1023.22 371.3 1023.45 371.024 1023.58 370.828L1023.34 370.127C1022.91 370.052 1022.54 370.084 1022.22 370.223C1021.91 370.339 1021.58 370.499 1021.22 370.705C1020.88 370.887 1020.45 371.031 1019.94 371.137C1019.44 371.219 1018.78 371.187 1017.95 371.041ZM1038.85 393.296C1037.76 393.105 1036.93 392.617 1036.36 391.835C1035.79 391.052 1035.6 390.153 1035.78 389.136L1039.09 370.382C1039.27 369.342 1039.75 368.525 1040.54 367.933C1041.35 367.345 1042.31 367.149 1043.42 367.345C1044.6 367.553 1045.46 368.07 1046 368.896C1046.57 369.702 1046.76 370.613 1046.58 371.63L1043.26 390.455C1043.08 391.472 1042.57 392.246 1041.72 392.779C1040.89 393.315 1039.93 393.488 1038.85 393.296ZM1048.9 394.995C1047.72 394.787 1046.88 394.262 1046.4 393.421C1045.91 392.58 1045.78 391.545 1045.99 390.316L1048.93 373.689C1049.14 372.46 1049.54 371.507 1050.13 370.829C1050.74 370.133 1051.44 369.672 1052.23 369.446C1053.05 369.225 1053.9 369.192 1054.77 369.346C1056.07 369.575 1057.11 370.112 1057.89 370.955C1058.67 371.799 1059.15 373.128 1059.34 374.941L1060.87 388.698L1061.43 388.798L1063.83 375.184C1064.05 373.931 1064.55 373.007 1065.31 372.41C1066.08 371.79 1067.05 371.584 1068.23 371.792C1069.46 372.009 1070.31 372.536 1070.77 373.373C1071.26 374.19 1071.39 375.225 1071.17 376.478L1068.35 392.503C1068 394.488 1067.3 395.876 1066.26 396.668C1065.22 397.459 1063.91 397.715 1062.32 397.436C1060.72 397.152 1059.54 396.506 1058.79 395.497C1058.04 394.487 1057.58 393.114 1057.4 391.376L1056.4 382.317C1056.39 382.072 1056.33 381.843 1056.23 381.629C1056.15 381.395 1056 381.26 1055.79 381.222C1055.53 381.176 1055.33 381.252 1055.2 381.448C1055.07 381.62 1054.99 381.824 1054.94 382.061L1053.26 391.598C1053.05 392.827 1052.57 393.753 1051.82 394.378C1051.08 395.002 1050.1 395.208 1048.9 394.995ZM1073.25 379.732C1072.82 378.146 1072.9 376.807 1073.48 375.716C1074.07 374.601 1074.94 373.9 1076.08 373.615C1077.25 373.334 1078.35 373.528 1079.38 374.197C1080.44 374.846 1081.09 375.949 1081.36 377.506C1081.49 378.284 1081.53 379.169 1081.47 380.159C1081.42 381.125 1081.39 382.07 1081.38 382.993C1081.39 383.896 1081.52 384.675 1081.77 385.328C1082.05 385.962 1082.58 386.348 1083.35 386.486C1084.13 386.623 1084.76 386.442 1085.24 385.941C1085.72 385.417 1086.11 384.73 1086.41 383.88C1086.73 383.011 1087.03 382.113 1087.29 381.184C1087.58 380.236 1087.92 379.418 1088.3 378.731C1089.11 377.362 1090.1 376.55 1091.29 376.297C1092.49 376.02 1093.59 376.214 1094.59 376.878C1095.57 377.539 1096.15 378.493 1096.31 379.742C1096.49 380.966 1096.1 382.251 1095.16 383.596C1094.67 384.289 1094.07 384.927 1093.36 385.508C1092.68 386.07 1091.93 386.645 1091.12 387.233C1090.31 387.821 1089.48 388.492 1088.64 389.246C1087.81 389.976 1087.01 390.846 1086.25 391.857L1085.18 397.92C1085.01 398.889 1084.51 399.63 1083.69 400.143C1082.87 400.656 1081.92 400.819 1080.86 400.631C1079.82 400.448 1078.99 399.973 1078.37 399.205C1077.77 398.442 1077.56 397.576 1077.73 396.607L1078.8 390.544C1078.45 389.338 1078.01 388.248 1077.48 387.277C1076.95 386.281 1076.4 385.369 1075.84 384.539C1075.28 383.709 1074.76 382.911 1074.29 382.145C1073.82 381.355 1073.47 380.551 1073.25 379.732Z" fill="black"/>
<path d="M1257.36 424.514C1257.57 423.309 1258.12 422.406 1259 421.807C1259.92 421.188 1260.89 420.982 1261.93 421.189C1262.7 421.351 1263.42 421.659 1264.07 422.115C1264.74 422.551 1265.45 422.992 1266.17 423.437C1266.9 423.882 1267.76 424.192 1268.75 424.367C1269.67 424.529 1270.29 424.503 1270.59 424.289C1270.93 424.056 1271.12 423.761 1271.19 423.407C1271.27 422.958 1271.12 422.58 1270.76 422.273C1270.43 421.946 1269.94 421.639 1269.28 421.353L1267.72 420.676C1266.14 419.982 1264.71 419.292 1263.44 418.605C1262.18 417.895 1261.23 417.069 1260.59 416.128C1259.95 415.187 1259.75 414.031 1259.99 412.66C1260.22 411.36 1260.73 410.341 1261.52 409.603C1262.31 408.841 1263.31 408.31 1264.51 408.009C1265.7 407.709 1267.02 407.599 1268.44 407.679C1268.38 407.473 1268.36 407.25 1268.37 407.01C1268.39 406.769 1268.42 406.519 1268.47 406.259C1268.62 405.432 1268.96 404.871 1269.5 404.576C1270.07 404.262 1270.69 404.165 1271.38 404.286C1272.06 404.407 1272.59 404.707 1272.97 405.188C1273.38 405.65 1273.51 406.294 1273.36 407.122C1273.27 407.642 1273.12 408.09 1272.91 408.467C1274.73 409.032 1276.19 409.837 1277.27 410.881C1278.38 411.906 1278.83 413.044 1278.6 414.297C1278.41 415.384 1277.97 416.171 1277.27 416.658C1276.6 417.149 1275.78 417.309 1274.81 417.138C1274.18 417.025 1273.57 416.82 1272.99 416.523C1272.41 416.202 1271.8 415.874 1271.15 415.541C1270.52 415.211 1269.77 414.97 1268.9 414.815C1268.05 414.665 1267.42 414.663 1267 414.809C1266.61 414.936 1266.38 415.2 1266.31 415.602C1266.23 416.075 1266.4 416.494 1266.82 416.861C1267.27 417.209 1268.08 417.645 1269.26 418.169L1270.99 418.913C1272.44 419.558 1273.68 420.228 1274.73 420.925C1275.78 421.598 1276.54 422.402 1277.01 423.337C1277.51 424.253 1277.63 425.397 1277.39 426.768C1277.01 428.966 1276.03 430.499 1274.46 431.369C1272.92 432.218 1270.99 432.547 1268.66 432.356C1268.75 432.787 1268.75 433.298 1268.64 433.889C1268.5 434.692 1268.16 435.253 1267.62 435.572C1267.1 435.894 1266.49 435.995 1265.81 435.874C1265.12 435.753 1264.57 435.448 1264.14 434.959C1263.74 434.474 1263.61 433.83 1263.75 433.026C1263.81 432.695 1263.89 432.404 1263.98 432.152C1264.07 431.9 1264.18 431.677 1264.32 431.481C1262.98 431.05 1261.75 430.492 1260.63 429.806C1259.51 429.098 1258.64 428.298 1258.02 427.409C1257.4 426.495 1257.18 425.53 1257.36 424.514ZM1284.83 418.1C1283.65 417.891 1282.74 417.378 1282.11 416.559C1281.49 415.744 1281.29 414.734 1281.51 413.529C1281.71 412.347 1282.21 411.46 1283 410.868C1283.81 410.256 1284.88 410.067 1286.21 410.3L1301.49 412.994C1302.81 413.228 1303.74 413.769 1304.27 414.619C1304.83 415.448 1305.01 416.454 1304.8 417.636C1304.59 418.842 1304.04 419.72 1303.16 420.272C1302.31 420.829 1301.29 421.002 1300.11 420.794C1299.31 420.652 1298.67 420.455 1298.21 420.202C1297.77 419.93 1297.41 419.648 1297.15 419.358C1296.89 419.043 1296.63 418.779 1296.37 418.563C1296.12 418.324 1295.79 418.167 1295.36 418.092L1294.93 418.674C1294.99 418.903 1295.1 419.24 1295.26 419.683C1295.43 420.103 1295.56 420.698 1295.64 421.468C1295.73 422.215 1295.67 423.203 1295.45 424.432L1293.64 434.678C1293.47 435.647 1292.96 436.386 1292.12 436.895C1291.3 437.408 1290.37 437.573 1289.33 437.389C1288.26 437.202 1287.42 436.724 1286.8 435.957C1286.2 435.194 1285.99 434.328 1286.16 433.359L1287.97 423.113C1288.19 421.884 1288.46 420.933 1288.8 420.262C1289.14 419.567 1289.46 419.051 1289.77 418.714C1290.1 418.358 1290.33 418.082 1290.46 417.886L1290.22 417.186C1289.79 417.111 1289.42 417.143 1289.11 417.282C1288.79 417.397 1288.46 417.558 1288.11 417.764C1287.76 417.946 1287.33 418.09 1286.83 418.195C1286.32 418.278 1285.66 418.246 1284.83 418.1ZM1305.73 440.355C1304.64 440.163 1303.81 439.676 1303.25 438.893C1302.68 438.111 1302.48 437.211 1302.66 436.195L1305.97 417.44C1306.15 416.4 1306.64 415.584 1307.42 414.992C1308.23 414.403 1309.19 414.207 1310.31 414.403C1311.49 414.612 1312.35 415.129 1312.88 415.954C1313.45 416.761 1313.64 417.672 1313.46 418.688L1310.14 437.514C1309.96 438.53 1309.45 439.305 1308.6 439.837C1307.77 440.374 1306.82 440.547 1305.73 440.355ZM1315.78 442.054C1314.6 441.846 1313.77 441.321 1313.28 440.48C1312.79 439.639 1312.66 438.604 1312.88 437.375L1315.81 420.747C1316.03 419.518 1316.43 418.565 1317.01 417.888C1317.62 417.191 1318.32 416.73 1319.12 416.505C1319.93 416.284 1320.78 416.25 1321.66 416.405C1322.96 416.634 1323.99 417.17 1324.77 418.014C1325.55 418.858 1326.03 420.186 1326.23 421.999L1327.75 435.756L1328.32 435.856L1330.72 422.242C1330.94 420.99 1331.43 420.065 1332.19 419.469C1332.96 418.849 1333.93 418.643 1335.12 418.851C1336.34 419.068 1337.19 419.594 1337.65 420.431C1338.14 421.249 1338.28 422.284 1338.05 423.537L1335.23 439.561C1334.88 441.547 1334.18 442.935 1333.14 443.726C1332.1 444.517 1330.79 444.773 1329.21 444.494C1327.6 444.211 1326.42 443.564 1325.67 442.555C1324.92 441.546 1324.46 440.172 1324.28 438.435L1323.28 429.376C1323.27 429.131 1323.22 428.902 1323.11 428.688C1323.03 428.454 1322.88 428.318 1322.67 428.281C1322.41 428.235 1322.21 428.31 1322.08 428.506C1321.95 428.679 1321.87 428.883 1321.83 429.119L1320.15 438.656C1319.93 439.885 1319.45 440.812 1318.7 441.436C1317.96 442.061 1316.99 442.267 1315.78 442.054ZM1340.13 426.791C1339.71 425.205 1339.78 423.866 1340.37 422.774C1340.95 421.659 1341.82 420.959 1342.97 420.674C1344.14 420.393 1345.24 420.587 1346.26 421.255C1347.32 421.904 1347.98 423.007 1348.24 424.565C1348.37 425.343 1348.41 426.227 1348.36 427.217C1348.31 428.183 1348.27 429.128 1348.26 430.051C1348.27 430.955 1348.4 431.734 1348.65 432.387C1348.93 433.021 1349.46 433.407 1350.24 433.544C1351.02 433.682 1351.65 433.5 1352.13 433C1352.61 432.475 1353 431.788 1353.29 430.939C1353.62 430.07 1353.91 429.171 1354.17 428.242C1354.46 427.294 1354.8 426.477 1355.19 425.79C1355.99 424.42 1356.99 423.609 1358.18 423.356C1359.37 423.079 1360.47 423.273 1361.47 423.937C1362.45 424.597 1363.03 425.552 1363.2 426.8C1363.37 428.025 1362.99 429.31 1362.04 430.654C1361.56 431.348 1360.96 431.986 1360.24 432.567C1359.56 433.129 1358.81 433.703 1358 434.292C1357.19 434.88 1356.37 435.551 1355.53 436.304C1354.69 437.034 1353.89 437.905 1353.13 438.916L1352.06 444.978C1351.89 445.947 1351.39 446.688 1350.57 447.202C1349.75 447.715 1348.81 447.877 1347.74 447.69C1346.7 447.507 1345.87 447.031 1345.25 446.264C1344.66 445.501 1344.44 444.635 1344.61 443.665L1345.68 437.603C1345.34 436.396 1344.89 435.307 1344.36 434.335C1343.83 433.34 1343.28 432.427 1342.72 431.597C1342.16 430.767 1341.64 429.97 1341.17 429.204C1340.7 428.414 1340.35 427.61 1340.13 426.791Z" fill="black"/>
</g>
<g clip-path="url(#clip1_1_133)" filter="url(#filter1_d_1_133)">
<rect width="2440" height="105" transform="translate(-81 423.702) rotate(-10)" fill="white"/>
<path d="M4.84901 470.375C4.63646 469.17 4.84376 468.134 5.4709 467.268C6.1175 466.374 6.96287 465.847 8.00699 465.688C8.79113 465.574 9.5669 465.62 10.3343 465.825C11.1212 466.004 11.9317 466.177 12.7658 466.347C13.6 466.517 14.5134 466.514 15.5061 466.339C16.4279 466.177 16.9958 465.943 17.21 465.637C17.4436 465.303 17.5291 464.959 17.4666 464.604C17.3874 464.155 17.1261 463.848 16.6826 463.683C16.2586 463.489 15.6893 463.37 14.9747 463.326L13.2751 463.223C11.5498 463.113 9.97393 462.952 8.54753 462.741C7.11696 462.506 5.94085 462.055 5.01918 461.389C4.09752 460.723 3.51582 459.705 3.27411 458.334C3.04489 457.034 3.17434 455.902 3.66247 454.939C4.14642 453.952 4.90007 453.112 5.92342 452.42C6.94676 451.728 8.14109 451.176 9.50641 450.764C9.37853 450.592 9.28193 450.39 9.21662 450.158C9.15131 449.925 9.09573 449.679 9.04989 449.419C8.90402 448.592 9.0341 447.948 9.44013 447.486C9.86563 446.997 10.4211 446.692 11.1065 446.571C11.7919 446.45 12.3946 446.551 12.9145 446.874C13.4539 447.168 13.7965 447.729 13.9424 448.557C14.0341 449.077 14.0445 449.55 13.9735 449.977C15.8824 449.884 17.5243 450.143 18.8992 450.753C20.2935 451.336 21.1012 452.254 21.322 453.506C21.5137 454.594 21.3663 455.485 20.8796 456.18C20.4165 456.871 19.7004 457.302 18.7314 457.472C18.0932 457.585 17.4502 457.601 16.8024 457.52C16.1503 457.416 15.4629 457.318 14.7399 457.226C14.0406 457.13 13.2537 457.159 12.3792 457.313C11.5283 457.463 10.9326 457.678 10.5919 457.957C10.2707 458.209 10.1456 458.536 10.2164 458.937C10.2997 459.41 10.6028 459.747 11.1255 459.947C11.6677 460.119 12.5804 460.251 13.8636 460.341L15.7467 460.448C17.3261 460.559 18.7268 460.763 19.9488 461.06C21.1666 461.332 22.1557 461.828 22.9161 462.547C23.696 463.238 24.2068 464.269 24.4485 465.64C24.8361 467.838 24.4424 469.613 23.2674 470.966C22.1119 472.291 20.4066 473.261 18.1514 473.878C18.3877 474.251 18.558 474.733 18.6622 475.324C18.8039 476.127 18.6738 476.772 18.2719 477.257C17.8937 477.738 17.3619 478.039 16.6765 478.16C15.991 478.28 15.3647 478.184 14.7975 477.869C14.254 477.551 13.9113 476.99 13.7696 476.186C13.7113 475.855 13.6828 475.556 13.6843 475.288C13.6857 475.019 13.7149 474.77 13.772 474.541C12.3678 474.594 11.0213 474.49 9.73254 474.23C8.43961 473.946 7.3483 473.492 6.45861 472.87C5.56475 472.223 5.02821 471.391 4.84901 470.375ZM28.4736 454.95C27.2919 455.159 26.2624 454.987 25.3852 454.435C24.5316 453.879 23.9986 452.998 23.786 451.792C23.5777 450.611 23.7419 449.607 24.2786 448.781C24.8349 447.928 25.7748 447.384 27.0983 447.151L42.3786 444.456C43.7022 444.223 44.7595 444.414 45.5505 445.03C46.3609 445.619 46.8703 446.504 47.0787 447.685C47.2913 448.891 47.0798 449.903 46.4443 450.722C45.8325 451.536 44.9357 452.048 43.7539 452.256C42.9503 452.398 42.2858 452.43 41.7602 452.352C41.2542 452.246 40.8267 452.102 40.4778 451.92C40.1247 451.714 39.7917 451.553 39.4789 451.438C39.1619 451.299 38.7907 451.267 38.3653 451.342L38.1588 452.036C38.2908 452.232 38.5104 452.51 38.8176 452.871C39.1207 453.207 39.4431 453.723 39.785 454.418C40.1228 455.09 40.4 456.04 40.6167 457.269L42.4234 467.515C42.5942 468.484 42.3696 469.352 41.7494 470.12C41.1529 470.883 40.3346 471.356 39.2947 471.539C38.2311 471.727 37.2767 471.566 36.4315 471.057C35.6099 470.544 35.1136 469.803 34.9428 468.834L33.1361 458.588C32.9194 457.359 32.8549 456.371 32.9426 455.625C33.0261 454.854 33.1527 454.259 33.3224 453.84C33.5115 453.392 33.6346 453.053 33.6917 452.824L33.2246 452.248C32.7992 452.323 32.4613 452.48 32.211 452.72C31.9566 452.935 31.6986 453.2 31.4372 453.514C31.1716 453.804 30.8192 454.086 30.3798 454.358C29.9363 454.607 29.3009 454.805 28.4736 454.95ZM55.7233 468.716C54.6361 468.907 53.6914 468.733 52.8893 468.192C52.0872 467.651 51.5965 466.872 51.4173 465.856L48.1104 447.101C47.927 446.061 48.1037 445.128 48.6405 444.303C49.2009 443.473 50.0365 442.96 51.1474 442.764C52.3291 442.556 53.3134 442.748 54.1002 443.34C54.9065 443.905 55.3993 444.695 55.5785 445.711L58.8979 464.537C59.0771 465.553 58.8587 466.457 58.2427 467.248C57.6504 468.035 56.8106 468.524 55.7233 468.716ZM65.7496 466.875C64.5678 467.083 63.6051 466.875 62.8614 466.251C62.1177 465.626 61.6374 464.7 61.4207 463.471L58.4889 446.843C58.2721 445.614 58.3216 444.582 58.6374 443.746C58.9725 442.883 59.4752 442.209 60.1454 441.726C60.8392 441.238 61.6234 440.917 62.4979 440.763C63.7978 440.533 64.9573 440.682 65.9763 441.209C66.9953 441.736 67.9051 442.819 68.7057 444.457L74.8414 456.864L75.4086 456.764L73.0081 443.15C72.7872 441.897 72.9333 440.86 73.4465 440.038C73.9554 439.193 74.8008 438.666 75.9826 438.458C77.2116 438.241 78.1862 438.447 78.9062 439.076C79.6458 439.676 80.126 440.603 80.3469 441.856L83.1725 457.881C83.5226 459.866 83.3437 461.408 82.6359 462.508C81.9281 463.608 80.7824 464.297 79.1988 464.576C77.5916 464.86 76.2639 464.655 75.2157 463.963C74.1676 463.27 73.2613 462.138 72.4968 460.567L68.4606 452.396C68.3716 452.168 68.2396 451.972 68.0644 451.808C67.9087 451.616 67.7245 451.539 67.5118 451.576C67.2518 451.622 67.0933 451.76 67.0363 451.989C66.9751 452.195 66.9653 452.416 67.007 452.652L68.6886 462.189C68.9053 463.418 68.771 464.453 68.2857 465.294C67.8004 466.135 66.955 466.662 65.7496 466.875ZM83.4127 444.203C82.4689 442.859 82.084 441.574 82.258 440.349C82.4277 439.101 83.0028 438.146 83.983 437.486C84.9869 436.822 86.0859 436.628 87.2801 436.905C88.4938 437.154 89.4898 437.965 90.2682 439.339C90.6574 440.026 90.9965 440.843 91.2856 441.791C91.5704 442.716 91.863 443.615 92.1631 444.488C92.4828 445.333 92.872 446.02 93.3307 446.548C93.8089 447.049 94.438 447.231 95.2179 447.093C95.9979 446.955 96.5269 446.57 96.8051 445.936C97.0791 445.278 97.2099 444.5 97.1975 443.6C97.2046 442.673 97.172 441.728 97.0999 440.766C97.0472 439.776 97.0862 438.892 97.217 438.113C97.5022 436.552 98.1607 435.449 99.1924 434.804C100.22 434.136 101.319 433.942 102.49 434.223C103.636 434.508 104.503 435.208 105.09 436.323C105.672 437.415 105.75 438.753 105.323 440.34C105.102 441.159 104.756 441.963 104.286 442.752C103.835 443.514 103.33 444.31 102.77 445.14C102.209 445.97 101.663 446.883 101.132 447.878C100.597 448.85 100.143 449.941 99.7719 451.152L100.841 457.214C101.012 458.183 100.799 459.05 100.202 459.813C99.6059 460.576 98.7758 461.051 97.7122 461.239C96.6723 461.422 95.7297 461.259 94.8844 460.75C94.0629 460.237 93.5666 459.496 93.3958 458.527L92.3268 452.465C91.5873 451.45 90.7998 450.577 89.9644 449.847C89.1247 449.093 88.2997 448.423 87.4892 447.834C86.6788 447.246 85.9198 446.673 85.2122 446.116C84.5005 445.534 83.9006 444.897 83.4127 444.203Z" fill="black"/>
<path d="M271.732 423.316C271.519 422.111 271.727 421.075 272.354 420.209C273 419.315 273.846 418.789 274.89 418.629C275.674 418.515 276.45 418.561 277.217 418.767C278.004 418.945 278.815 419.119 279.649 419.288C280.483 419.458 281.396 419.456 282.389 419.281C283.311 419.118 283.879 418.884 284.093 418.578C284.326 418.244 284.412 417.9 284.35 417.546C284.27 417.097 284.009 416.789 283.566 416.624C283.142 416.431 282.572 416.312 281.858 416.267L280.158 416.165C278.433 416.055 276.857 415.894 275.43 415.682C274 415.447 272.824 414.996 271.902 414.33C270.98 413.664 270.399 412.646 270.157 411.275C269.928 409.975 270.057 408.843 270.545 407.88C271.029 406.893 271.783 406.053 272.806 405.361C273.83 404.669 275.024 404.117 276.389 403.706C276.261 403.533 276.165 403.331 276.1 403.099C276.034 402.867 275.979 402.621 275.933 402.361C275.787 401.533 275.917 400.889 276.323 400.427C276.749 399.938 277.304 399.633 277.989 399.512C278.675 399.391 279.278 399.492 279.797 399.815C280.337 400.11 280.679 400.671 280.825 401.498C280.917 402.018 280.927 402.491 280.856 402.918C282.765 402.825 284.407 403.084 285.782 403.695C287.176 404.277 287.984 405.195 288.205 406.448C288.397 407.535 288.249 408.426 287.762 409.121C287.299 409.812 286.583 410.243 285.614 410.414C284.976 410.526 284.333 410.542 283.685 410.461C283.033 410.357 282.346 410.259 281.623 410.167C280.924 410.071 280.137 410.1 279.262 410.254C278.411 410.404 277.815 410.619 277.475 410.899C277.154 411.15 277.028 411.477 277.099 411.879C277.183 412.351 277.486 412.688 278.008 412.888C278.551 413.061 279.463 413.192 280.747 413.283L282.63 413.389C284.209 413.501 285.61 413.705 286.832 414.001C288.05 414.273 289.039 414.769 289.799 415.488C290.579 416.179 291.09 417.21 291.331 418.581C291.719 420.779 291.325 422.554 290.15 423.907C288.995 425.232 287.289 426.203 285.034 426.82C285.271 427.192 285.441 427.674 285.545 428.265C285.687 429.069 285.557 429.713 285.155 430.198C284.777 430.679 284.245 430.98 283.559 431.101C282.874 431.222 282.248 431.125 281.68 430.811C281.137 430.492 280.794 429.931 280.653 429.128C280.594 428.797 280.566 428.497 280.567 428.229C280.569 427.96 280.598 427.712 280.655 427.482C279.251 427.535 277.904 427.431 276.615 427.171C275.323 426.887 274.231 426.434 273.342 425.811C272.448 425.164 271.911 424.333 271.732 423.316ZM295.357 407.892C294.175 408.1 293.145 407.928 292.268 407.376C291.415 406.82 290.881 405.939 290.669 404.734C290.461 403.552 290.625 402.548 291.162 401.722C291.718 400.869 292.658 400.325 293.981 400.092L309.262 397.398C310.585 397.164 311.642 397.356 312.433 397.972C313.244 398.56 313.753 399.445 313.962 400.627C314.174 401.832 313.963 402.844 313.327 403.663C312.715 404.477 311.819 404.989 310.637 405.197C309.833 405.339 309.169 405.371 308.643 405.293C308.137 405.187 307.71 405.043 307.361 404.861C307.008 404.655 306.675 404.495 306.362 404.379C306.045 404.24 305.674 404.208 305.248 404.283L305.042 404.978C305.174 405.174 305.393 405.452 305.701 405.812C306.004 406.148 306.326 406.664 306.668 407.359C307.006 408.031 307.283 408.981 307.5 410.21L309.306 420.456C309.477 421.425 309.252 422.293 308.632 423.061C308.036 423.824 307.218 424.297 306.178 424.481C305.114 424.668 304.16 424.507 303.314 423.999C302.493 423.485 301.997 422.744 301.826 421.775L300.019 411.529C299.802 410.3 299.738 409.312 299.826 408.566C299.909 407.796 300.036 407.201 300.205 406.781C300.394 406.333 300.518 405.995 300.575 405.765L300.108 405.19C299.682 405.265 299.344 405.422 299.094 405.661C298.839 405.876 298.582 406.141 298.32 406.455C298.055 406.746 297.702 407.027 297.263 407.3C296.819 407.548 296.184 407.746 295.357 407.892ZM322.606 421.657C321.519 421.849 320.574 421.674 319.772 421.133C318.97 420.592 318.479 419.814 318.3 418.797L314.993 400.043C314.81 399.003 314.987 398.07 315.523 397.244C316.084 396.414 316.919 395.901 318.03 395.705C319.212 395.497 320.196 395.689 320.983 396.281C321.789 396.846 322.282 397.636 322.461 398.653L325.781 417.478C325.96 418.495 325.742 419.398 325.126 420.189C324.533 420.976 323.693 421.465 322.606 421.657ZM332.633 419.816C331.451 420.024 330.488 419.816 329.744 419.192C329.001 418.568 328.52 417.641 328.304 416.412L325.372 399.784C325.155 398.555 325.205 397.523 325.52 396.688C325.855 395.824 326.358 395.151 327.028 394.667C327.722 394.179 328.506 393.858 329.381 393.704C330.681 393.475 331.84 393.624 332.859 394.151C333.878 394.678 334.788 395.76 335.589 397.398L341.724 409.805L342.292 409.705L339.891 396.091C339.67 394.838 339.816 393.801 340.329 392.98C340.838 392.134 341.684 391.608 342.865 391.399C344.095 391.183 345.069 391.388 345.789 392.017C346.529 392.618 347.009 393.544 347.23 394.797L350.055 410.822C350.405 412.807 350.227 414.35 349.519 415.449C348.811 416.549 347.665 417.238 346.082 417.518C344.475 417.801 343.147 417.596 342.099 416.904C341.05 416.211 340.144 415.08 339.38 413.508L335.343 405.337C335.255 405.109 335.122 404.913 334.947 404.749C334.792 404.557 334.607 404.48 334.395 404.518C334.135 404.563 333.976 404.701 333.919 404.93C333.858 405.136 333.848 405.357 333.89 405.594L335.572 415.13C335.788 416.359 335.654 417.394 335.169 418.236C334.683 419.077 333.838 419.603 332.633 419.816ZM350.296 397.144C349.352 395.8 348.967 394.515 349.141 393.29C349.311 392.042 349.886 391.088 350.866 390.427C351.87 389.763 352.969 389.569 354.163 389.846C355.377 390.095 356.373 390.906 357.151 392.28C357.54 392.967 357.879 393.784 358.168 394.733C358.453 395.657 358.746 396.556 359.046 397.429C359.366 398.275 359.755 398.961 360.214 399.49C360.692 399.99 361.321 400.172 362.101 400.034C362.881 399.897 363.41 399.511 363.688 398.877C363.962 398.22 364.093 397.441 364.08 396.541C364.087 395.614 364.055 394.669 363.983 393.707C363.93 392.717 363.969 391.833 364.1 391.055C364.385 389.493 365.044 388.39 366.075 387.745C367.103 387.077 368.202 386.883 369.372 387.164C370.519 387.449 371.386 388.149 371.973 389.264C372.555 390.356 372.633 391.695 372.206 393.281C371.984 394.1 371.639 394.904 371.169 395.694C370.718 396.456 370.213 397.251 369.652 398.081C369.092 398.911 368.546 399.824 368.015 400.819C367.48 401.791 367.026 402.882 366.655 404.093L367.724 410.156C367.895 411.125 367.682 411.991 367.085 412.754C366.489 413.517 365.659 413.993 364.595 414.18C363.555 414.363 362.613 414.201 361.767 413.692C360.946 413.179 360.45 412.437 360.279 411.468L359.21 405.406C358.47 404.391 357.683 403.518 356.847 402.788C356.008 402.035 355.183 401.364 354.372 400.776C353.562 400.187 352.803 399.615 352.095 399.057C351.383 398.476 350.784 397.838 350.296 397.144Z" fill="black"/>
<path d="M538.615 376.258C538.402 375.052 538.61 374.017 539.237 373.151C539.883 372.257 540.729 371.73 541.773 371.57C542.557 371.456 543.333 371.502 544.1 371.708C544.887 371.886 545.697 372.06 546.532 372.23C547.366 372.4 548.279 372.397 549.272 372.222C550.194 372.059 550.762 371.825 550.976 371.519C551.209 371.186 551.295 370.842 551.232 370.487C551.153 370.038 550.892 369.731 550.448 369.565C550.024 369.372 549.455 369.253 548.741 369.208L547.041 369.106C545.316 368.996 543.74 368.835 542.313 368.624C540.883 368.388 539.707 367.938 538.785 367.272C537.863 366.606 537.282 365.587 537.04 364.216C536.811 362.916 536.94 361.785 537.428 360.821C537.912 359.834 538.666 358.995 539.689 358.302C540.713 357.61 541.907 357.058 543.272 356.647C543.144 356.475 543.048 356.272 542.982 356.04C542.917 355.808 542.862 355.562 542.816 355.302C542.67 354.475 542.8 353.83 543.206 353.369C543.631 352.88 544.187 352.574 544.872 352.454C545.558 352.333 546.16 352.434 546.68 352.756C547.22 353.051 547.562 353.612 547.708 354.439C547.8 354.959 547.81 355.433 547.739 355.859C549.648 355.767 551.29 356.025 552.665 356.636C554.059 357.219 554.867 358.136 555.088 359.389C555.28 360.476 555.132 361.367 554.645 362.062C554.182 362.753 553.466 363.184 552.497 363.355C551.859 363.468 551.216 363.484 550.568 363.403C549.916 363.298 549.229 363.2 548.506 363.109C547.806 363.012 547.02 363.042 546.145 363.196C545.294 363.346 544.698 363.561 544.358 363.84C544.037 364.092 543.911 364.418 543.982 364.82C544.066 365.293 544.369 365.629 544.891 365.829C545.433 366.002 546.346 366.133 547.629 366.224L549.513 366.331C551.092 366.442 552.493 366.646 553.715 366.942C554.932 367.215 555.922 367.711 556.682 368.43C557.462 369.121 557.973 370.152 558.214 371.522C558.602 373.721 558.208 375.496 557.033 376.848C555.878 378.173 554.172 379.144 551.917 379.761C552.154 380.134 552.324 380.615 552.428 381.206C552.57 382.01 552.44 382.654 552.038 383.139C551.659 383.62 551.128 383.921 550.442 384.042C549.757 384.163 549.131 384.066 548.563 383.752C548.02 383.434 547.677 382.873 547.535 382.069C547.477 381.738 547.449 381.439 547.45 381.17C547.451 380.902 547.481 380.653 547.538 380.424C546.134 380.476 544.787 380.373 543.498 380.112C542.205 379.829 541.114 379.375 540.224 378.752C539.331 378.106 538.794 377.274 538.615 376.258ZM562.239 360.833C561.058 361.041 560.028 360.87 559.151 360.318C558.297 359.761 557.764 358.881 557.552 357.675C557.343 356.493 557.508 355.49 558.044 354.664C558.601 353.81 559.541 353.267 560.864 353.033L576.144 350.339C577.468 350.106 578.525 350.297 579.316 350.913C580.127 351.501 580.636 352.386 580.845 353.568C581.057 354.773 580.846 355.785 580.21 356.604C579.598 357.419 578.701 357.93 577.52 358.139C576.716 358.28 576.052 358.312 575.526 358.234C575.02 358.129 574.592 357.985 574.244 357.803C573.89 357.597 573.557 357.436 573.245 357.321C572.928 357.182 572.557 357.15 572.131 357.225L571.925 357.919C572.057 358.115 572.276 358.393 572.583 358.753C572.886 359.09 573.209 359.606 573.551 360.301C573.889 360.972 574.166 361.923 574.383 363.152L576.189 373.398C576.36 374.367 576.135 375.235 575.515 376.002C574.919 376.765 574.1 377.239 573.06 377.422C571.997 377.61 571.042 377.449 570.197 376.94C569.376 376.427 568.879 375.686 568.709 374.717L566.902 364.471C566.685 363.242 566.621 362.254 566.708 361.507C566.792 360.737 566.919 360.142 567.088 359.722C567.277 359.275 567.4 358.936 567.457 358.707L566.99 358.131C566.565 358.206 566.227 358.363 565.977 358.602C565.722 358.818 565.464 359.082 565.203 359.397C564.937 359.687 564.585 359.969 564.146 360.241C563.702 360.49 563.067 360.687 562.239 360.833ZM589.489 374.598C588.402 374.79 587.457 374.615 586.655 374.075C585.853 373.534 585.362 372.755 585.183 371.739L581.876 352.984C581.693 351.944 581.869 351.011 582.406 350.185C582.967 349.355 583.802 348.843 584.913 348.647C586.095 348.438 587.079 348.63 587.866 349.223C588.672 349.787 589.165 350.578 589.344 351.594L592.664 370.42C592.843 371.436 592.625 372.34 592.009 373.131C591.416 373.917 590.576 374.407 589.489 374.598ZM599.515 372.757C598.334 372.966 597.371 372.758 596.627 372.133C595.883 371.509 595.403 370.582 595.187 369.353L592.255 352.726C592.038 351.497 592.087 350.465 592.403 349.629C592.738 348.766 593.241 348.092 593.911 347.608C594.605 347.121 595.389 346.8 596.264 346.645C597.564 346.416 598.723 346.565 599.742 347.092C600.761 347.619 601.671 348.702 602.471 350.339L608.607 362.747L609.174 362.646L606.774 349.032C606.553 347.78 606.699 346.743 607.212 345.921C607.721 345.076 608.567 344.549 609.748 344.341C610.977 344.124 611.952 344.33 612.672 344.958C613.412 345.559 613.892 346.486 614.113 347.738L616.938 363.763C617.288 365.749 617.109 367.291 616.402 368.391C615.694 369.49 614.548 370.18 612.965 370.459C611.357 370.742 610.03 370.538 608.982 369.845C607.933 369.153 607.027 368.021 606.263 366.45L602.226 358.279C602.137 358.051 602.005 357.855 601.83 357.69C601.675 357.499 601.49 357.421 601.278 357.459C601.018 357.505 600.859 357.642 600.802 357.872C600.741 358.078 600.731 358.299 600.773 358.535L602.454 368.072C602.671 369.301 602.537 370.336 602.051 371.177C601.566 372.018 600.721 372.545 599.515 372.757ZM617.179 350.086C616.235 348.741 615.85 347.457 616.024 346.232C616.194 344.983 616.769 344.029 617.749 343.369C618.753 342.704 619.852 342.51 621.046 342.787C622.26 343.036 623.256 343.848 624.034 345.221C624.423 345.908 624.762 346.726 625.051 347.674C625.336 348.599 625.629 349.497 625.929 350.371C626.249 351.216 626.638 351.903 627.096 352.431C627.575 352.932 628.204 353.113 628.984 352.976C629.764 352.838 630.293 352.452 630.571 351.819C630.845 351.161 630.976 350.382 630.963 349.483C630.97 348.556 630.938 347.611 630.866 346.649C630.813 345.659 630.852 344.775 630.983 343.996C631.268 342.435 631.926 341.332 632.958 340.687C633.986 340.018 635.085 339.824 636.255 340.105C637.402 340.391 638.269 341.091 638.856 342.206C639.438 343.297 639.516 344.636 639.089 346.222C638.867 347.041 638.522 347.845 638.052 348.635C637.601 349.397 637.096 350.193 636.535 351.023C635.975 351.853 635.429 352.765 634.898 353.761C634.362 354.732 633.909 355.824 633.538 357.035L634.607 363.097C634.778 364.066 634.565 364.932 633.968 365.695C633.372 366.459 632.542 366.934 631.478 367.121C630.438 367.305 629.495 367.142 628.65 366.633C627.829 366.12 627.332 365.379 627.162 364.41L626.093 358.347C625.353 357.332 624.566 356.46 623.73 355.73C622.891 354.976 622.065 354.305 621.255 353.717C620.445 353.129 619.686 352.556 618.978 351.998C618.266 351.417 617.666 350.78 617.179 350.086Z" fill="black"/>
<path d="M805.498 329.199C805.285 327.994 805.492 326.958 806.12 326.092C806.766 325.198 807.612 324.671 808.656 324.512C809.44 324.398 810.216 324.444 810.983 324.649C811.77 324.828 812.58 325.001 813.415 325.171C814.249 325.341 815.162 325.338 816.155 325.163C817.077 325.001 817.645 324.766 817.859 324.461C818.092 324.127 818.178 323.783 818.115 323.428C818.036 322.979 817.775 322.672 817.331 322.507C816.907 322.313 816.338 322.194 815.623 322.15L813.924 322.047C812.198 321.937 810.623 321.776 809.196 321.565C807.766 321.33 806.59 320.879 805.668 320.213C804.746 319.547 804.165 318.528 803.923 317.158C803.694 315.858 803.823 314.726 804.311 313.763C804.795 312.776 805.549 311.936 806.572 311.244C807.595 310.552 808.79 310 810.155 309.588C810.027 309.416 809.931 309.214 809.865 308.982C809.8 308.749 809.744 308.503 809.699 308.243C809.553 307.416 809.683 306.772 810.089 306.31C810.514 305.821 811.07 305.516 811.755 305.395C812.441 305.274 813.043 305.375 813.563 305.697C814.103 305.992 814.445 306.553 814.591 307.381C814.683 307.901 814.693 308.374 814.622 308.801C816.531 308.708 818.173 308.967 819.548 309.577C820.942 310.16 821.75 311.078 821.971 312.33C822.162 313.418 822.015 314.309 821.528 315.004C821.065 315.695 820.349 316.126 819.38 316.296C818.742 316.409 818.099 316.425 817.451 316.344C816.799 316.24 816.112 316.142 815.389 316.05C814.689 315.954 813.902 315.983 813.028 316.137C812.177 316.287 811.581 316.502 811.241 316.781C810.919 317.033 810.794 317.359 810.865 317.761C810.948 318.234 811.251 318.57 811.774 318.771C812.316 318.943 813.229 319.075 814.512 319.165L816.395 319.272C817.975 319.383 819.375 319.587 820.597 319.884C821.815 320.156 822.804 320.652 823.565 321.371C824.345 322.062 824.855 323.093 825.097 324.464C825.485 326.662 825.091 328.437 823.916 329.79C822.761 331.115 821.055 332.085 818.8 332.702C819.036 333.075 819.207 333.557 819.311 334.148C819.453 334.951 819.322 335.596 818.921 336.081C818.542 336.562 818.011 336.863 817.325 336.984C816.64 337.104 816.013 337.008 815.446 336.693C814.903 336.375 814.56 335.814 814.418 335.01C814.36 334.679 814.332 334.38 814.333 334.111C814.334 333.843 814.364 333.594 814.421 333.365C813.016 333.418 811.67 333.314 810.381 333.054C809.088 332.77 807.997 332.316 807.107 331.693C806.213 331.047 805.677 330.215 805.498 329.199ZM829.122 313.774C827.941 313.983 826.911 313.811 826.034 313.259C825.18 312.703 824.647 311.822 824.435 310.616C824.226 309.435 824.391 308.431 824.927 307.605C825.484 306.752 826.423 306.208 827.747 305.975L843.027 303.28C844.351 303.047 845.408 303.238 846.199 303.854C847.01 304.443 847.519 305.328 847.727 306.509C847.94 307.715 847.728 308.727 847.093 309.546C846.481 310.36 845.584 310.872 844.403 311.08C843.599 311.222 842.934 311.254 842.409 311.176C841.903 311.07 841.475 310.926 841.126 310.744C840.773 310.538 840.44 310.377 840.128 310.262C839.811 310.123 839.439 310.091 839.014 310.166L838.807 310.86C838.939 311.056 839.159 311.334 839.466 311.695C839.769 312.031 840.092 312.547 840.434 313.242C840.771 313.914 841.049 314.864 841.265 316.093L843.072 326.339C843.243 327.308 843.018 328.176 842.398 328.944C841.802 329.707 840.983 330.18 839.943 330.363C838.88 330.551 837.925 330.39 837.08 329.881C836.259 329.368 835.762 328.627 835.591 327.658L833.785 317.412C833.568 316.183 833.504 315.195 833.591 314.449C833.675 313.678 833.801 313.083 833.971 312.664C834.16 312.216 834.283 311.877 834.34 311.648L833.873 311.072C833.448 311.147 833.11 311.304 832.86 311.544C832.605 311.759 832.347 312.024 832.086 312.338C831.82 312.628 831.468 312.91 831.028 313.182C830.585 313.431 829.95 313.629 829.122 313.774ZM856.372 327.54C855.285 327.731 854.34 327.557 853.538 327.016C852.736 326.475 852.245 325.696 852.066 324.68L848.759 305.925C848.576 304.885 848.752 303.952 849.289 303.127C849.85 302.297 850.685 301.784 851.796 301.588C852.978 301.38 853.962 301.572 854.749 302.164C855.555 302.729 856.048 303.519 856.227 304.535L859.547 323.361C859.726 324.377 859.507 325.281 858.891 326.072C858.299 326.859 857.459 327.348 856.372 327.54ZM866.398 325.699C865.217 325.907 864.254 325.699 863.51 325.075C862.766 324.45 862.286 323.524 862.069 322.295L859.138 305.667C858.921 304.438 858.97 303.406 859.286 302.57C859.621 301.707 860.124 301.033 860.794 300.55C861.488 300.062 862.272 299.741 863.147 299.587C864.447 299.357 865.606 299.506 866.625 300.033C867.644 300.56 868.554 301.643 869.354 303.281L875.49 315.688L876.057 315.588L873.657 301.974C873.436 300.721 873.582 299.684 874.095 298.862C874.604 298.017 875.449 297.49 876.631 297.282C877.86 297.065 878.835 297.271 879.555 297.9C880.294 298.5 880.775 299.427 880.996 300.68L883.821 316.705C884.171 318.69 883.992 320.232 883.285 321.332C882.577 322.432 881.431 323.121 879.848 323.4C878.24 323.684 876.913 323.479 875.864 322.787C874.816 322.094 873.91 320.962 873.146 319.391L869.109 311.22C869.02 310.992 868.888 310.796 868.713 310.632C868.557 310.44 868.373 310.363 868.161 310.4C867.901 310.446 867.742 310.584 867.685 310.813C867.624 311.019 867.614 311.24 867.656 311.476L869.337 321.013C869.554 322.242 869.42 323.277 868.934 324.118C868.449 324.959 867.604 325.486 866.398 325.699ZM884.061 303.027C883.118 301.682 882.733 300.398 882.907 299.173C883.076 297.925 883.651 296.97 884.632 296.31C885.636 295.646 886.735 295.452 887.929 295.729C889.143 295.978 890.139 296.789 890.917 298.163C891.306 298.85 891.645 299.667 891.934 300.615C892.219 301.54 892.512 302.439 892.812 303.312C893.131 304.157 893.521 304.844 893.979 305.372C894.458 305.873 895.087 306.055 895.867 305.917C896.647 305.779 897.176 305.394 897.454 304.76C897.728 304.102 897.859 303.324 897.846 302.424C897.853 301.497 897.821 300.552 897.749 299.59C897.696 298.6 897.735 297.716 897.866 296.937C898.151 295.376 898.809 294.273 899.841 293.628C900.869 292.96 901.968 292.766 903.138 293.047C904.285 293.332 905.152 294.032 905.738 295.147C906.321 296.239 906.398 297.577 905.971 299.164C905.75 299.983 905.405 300.787 904.935 301.576C904.484 302.338 903.979 303.134 903.418 303.964C902.858 304.794 902.312 305.707 901.781 306.702C901.245 307.674 900.792 308.765 900.421 309.976L901.49 316.038C901.66 317.007 901.448 317.874 900.851 318.637C900.255 319.4 899.424 319.875 898.361 320.063C897.321 320.246 896.378 320.083 895.533 319.574C894.712 319.061 894.215 318.32 894.044 317.351L892.975 311.289C892.236 310.274 891.449 309.401 890.613 308.671C889.773 307.917 888.948 307.247 888.138 306.658C887.327 306.07 886.568 305.497 885.861 304.94C885.149 304.358 884.549 303.721 884.061 303.027Z" fill="black"/>
<path d="M1072.38 282.141C1072.17 280.935 1072.38 279.899 1073 279.033C1073.65 278.139 1074.49 277.613 1075.54 277.453C1076.32 277.339 1077.1 277.385 1077.87 277.591C1078.65 277.769 1079.46 277.943 1080.3 278.113C1081.13 278.282 1082.04 278.28 1083.04 278.105C1083.96 277.942 1084.53 277.708 1084.74 277.402C1084.98 277.068 1085.06 276.724 1085 276.37C1084.92 275.921 1084.66 275.613 1084.21 275.448C1083.79 275.255 1083.22 275.136 1082.51 275.091L1080.81 274.989C1079.08 274.879 1077.51 274.718 1076.08 274.506C1074.65 274.271 1073.47 273.821 1072.55 273.154C1071.63 272.488 1071.05 271.47 1070.81 270.099C1070.58 268.799 1070.71 267.667 1071.19 266.704C1071.68 265.717 1072.43 264.877 1073.46 264.185C1074.48 263.493 1075.67 262.941 1077.04 262.53C1076.91 262.357 1076.81 262.155 1076.75 261.923C1076.68 261.691 1076.63 261.445 1076.58 261.185C1076.44 260.357 1076.57 259.713 1076.97 259.252C1077.4 258.762 1077.95 258.457 1078.64 258.336C1079.32 258.215 1079.93 258.316 1080.45 258.639C1080.99 258.934 1081.33 259.495 1081.47 260.322C1081.57 260.842 1081.58 261.315 1081.51 261.742C1083.41 261.649 1085.06 261.908 1086.43 262.519C1087.83 263.101 1088.63 264.019 1088.85 265.272C1089.05 266.359 1088.9 267.25 1088.41 267.945C1087.95 268.636 1087.23 269.067 1086.26 269.238C1085.62 269.35 1084.98 269.366 1084.33 269.286C1083.68 269.181 1082.99 269.083 1082.27 268.991C1081.57 268.895 1080.79 268.924 1079.91 269.078C1079.06 269.228 1078.46 269.443 1078.12 269.723C1077.8 269.974 1077.68 270.301 1077.75 270.703C1077.83 271.175 1078.13 271.512 1078.66 271.712C1079.2 271.885 1080.11 272.016 1081.4 272.107L1083.28 272.213C1084.86 272.325 1086.26 272.529 1087.48 272.825C1088.7 273.098 1089.69 273.593 1090.45 274.312C1091.23 275.003 1091.74 276.034 1091.98 277.405C1092.37 279.603 1091.97 281.379 1090.8 282.731C1089.64 284.056 1087.94 285.027 1085.68 285.644C1085.92 286.016 1086.09 286.498 1086.19 287.089C1086.34 287.893 1086.21 288.537 1085.8 289.022C1085.43 289.503 1084.89 289.804 1084.21 289.925C1083.52 290.046 1082.9 289.949 1082.33 289.635C1081.79 289.316 1081.44 288.755 1081.3 287.952C1081.24 287.621 1081.21 287.321 1081.22 287.053C1081.22 286.785 1081.25 286.536 1081.3 286.306C1079.9 286.359 1078.55 286.255 1077.26 285.995C1075.97 285.711 1074.88 285.258 1073.99 284.635C1073.1 283.988 1072.56 283.157 1072.38 282.141ZM1096.01 266.716C1094.82 266.924 1093.79 266.752 1092.92 266.2C1092.06 265.644 1091.53 264.763 1091.32 263.558C1091.11 262.376 1091.27 261.372 1091.81 260.547C1092.37 259.693 1093.31 259.149 1094.63 258.916L1109.91 256.222C1111.23 255.988 1112.29 256.18 1113.08 256.796C1113.89 257.384 1114.4 258.269 1114.61 259.451C1114.82 260.656 1114.61 261.668 1113.98 262.487C1113.36 263.302 1112.47 263.813 1111.29 264.021C1110.48 264.163 1109.82 264.195 1109.29 264.117C1108.79 264.011 1108.36 263.867 1108.01 263.685C1107.66 263.479 1107.32 263.319 1107.01 263.203C1106.69 263.064 1106.32 263.032 1105.9 263.107L1105.69 263.802C1105.82 263.998 1106.04 264.276 1106.35 264.636C1106.65 264.972 1106.97 265.488 1107.32 266.183C1107.65 266.855 1107.93 267.805 1108.15 269.034L1109.95 279.28C1110.13 280.249 1109.9 281.118 1109.28 281.885C1108.68 282.648 1107.87 283.121 1106.83 283.305C1105.76 283.492 1104.81 283.332 1103.96 282.823C1103.14 282.31 1102.65 281.568 1102.47 280.599L1100.67 270.353C1100.45 269.124 1100.39 268.137 1100.47 267.39C1100.56 266.62 1100.68 266.025 1100.85 265.605C1101.04 265.157 1101.17 264.819 1101.22 264.589L1100.76 264.014C1100.33 264.089 1099.99 264.246 1099.74 264.485C1099.49 264.7 1099.23 264.965 1098.97 265.279C1098.7 265.57 1098.35 265.851 1097.91 266.124C1097.47 266.373 1096.83 266.57 1096.01 266.716ZM1123.25 280.481C1122.17 280.673 1121.22 280.498 1120.42 279.957C1119.62 279.416 1119.13 278.638 1118.95 277.621L1115.64 258.867C1115.46 257.827 1115.64 256.894 1116.17 256.068C1116.73 255.238 1117.57 254.725 1118.68 254.529C1119.86 254.321 1120.85 254.513 1121.63 255.105C1122.44 255.67 1122.93 256.46 1123.11 257.477L1126.43 276.302C1126.61 277.319 1126.39 278.222 1125.77 279.013C1125.18 279.8 1124.34 280.289 1123.25 280.481ZM1133.28 278.64C1132.1 278.848 1131.14 278.64 1130.39 278.016C1129.65 277.392 1129.17 276.465 1128.95 275.236L1126.02 258.609C1125.8 257.379 1125.85 256.347 1126.17 255.512C1126.5 254.648 1127.01 253.975 1127.68 253.491C1128.37 253.003 1129.15 252.682 1130.03 252.528C1131.33 252.299 1132.49 252.448 1133.51 252.975C1134.53 253.502 1135.44 254.584 1136.24 256.222L1142.37 268.629L1142.94 268.529L1140.54 254.915C1140.32 253.663 1140.46 252.625 1140.98 251.804C1141.49 250.959 1142.33 250.432 1143.51 250.223C1144.74 250.007 1145.72 250.213 1146.44 250.841C1147.18 251.442 1147.66 252.368 1147.88 253.621L1150.7 269.646C1151.05 271.631 1150.88 273.174 1150.17 274.273C1149.46 275.373 1148.31 276.062 1146.73 276.342C1145.12 276.625 1143.8 276.421 1142.75 275.728C1141.7 275.036 1140.79 273.904 1140.03 272.333L1135.99 264.161C1135.9 263.933 1135.77 263.737 1135.6 263.573C1135.44 263.381 1135.26 263.304 1135.04 263.342C1134.78 263.387 1134.62 263.525 1134.57 263.754C1134.51 263.96 1134.5 264.181 1134.54 264.418L1136.22 273.955C1136.44 275.184 1136.3 276.219 1135.82 277.06C1135.33 277.901 1134.49 278.428 1133.28 278.64ZM1150.94 255.968C1150 254.624 1149.62 253.339 1149.79 252.114C1149.96 250.866 1150.53 249.912 1151.51 249.251C1152.52 248.587 1153.62 248.393 1154.81 248.67C1156.03 248.919 1157.02 249.73 1157.8 251.104C1158.19 251.791 1158.53 252.608 1158.82 253.557C1159.1 254.481 1159.39 255.38 1159.69 256.253C1160.01 257.099 1160.4 257.785 1160.86 258.314C1161.34 258.814 1161.97 258.996 1162.75 258.858C1163.53 258.721 1164.06 258.335 1164.34 257.701C1164.61 257.044 1164.74 256.265 1164.73 255.366C1164.74 254.438 1164.7 253.494 1164.63 252.531C1164.58 251.542 1164.62 250.657 1164.75 249.879C1165.03 248.318 1165.69 247.214 1166.72 246.57C1167.75 245.901 1168.85 245.707 1170.02 245.988C1171.17 246.273 1172.03 246.973 1172.62 248.089C1173.2 249.18 1173.28 250.519 1172.85 252.105C1172.63 252.924 1172.29 253.728 1171.82 254.518C1171.37 255.28 1170.86 256.075 1170.3 256.905C1169.74 257.735 1169.19 258.648 1168.66 259.643C1168.13 260.615 1167.67 261.706 1167.3 262.917L1168.37 268.98C1168.54 269.949 1168.33 270.815 1167.73 271.578C1167.14 272.341 1166.31 272.817 1165.24 273.004C1164.2 273.188 1163.26 273.025 1162.42 272.516C1161.59 272.003 1161.1 271.262 1160.93 270.293L1159.86 264.23C1159.12 263.215 1158.33 262.343 1157.5 261.613C1156.66 260.859 1155.83 260.188 1155.02 259.6C1154.21 259.012 1153.45 258.439 1152.74 257.881C1152.03 257.3 1151.43 256.662 1150.94 255.968Z" fill="black"/>
<path d="M1339.26 235.082C1339.05 233.876 1339.26 232.841 1339.89 231.975C1340.53 231.081 1341.38 230.554 1342.42 230.394C1343.21 230.28 1343.98 230.326 1344.75 230.532C1345.54 230.71 1346.35 230.884 1347.18 231.054C1348.01 231.224 1348.93 231.221 1349.92 231.046C1350.84 230.883 1351.41 230.649 1351.62 230.343C1351.86 230.01 1351.94 229.666 1351.88 229.311C1351.8 228.862 1351.54 228.555 1351.1 228.389C1350.67 228.196 1350.1 228.077 1349.39 228.032L1347.69 227.93C1345.96 227.82 1344.39 227.659 1342.96 227.448C1341.53 227.212 1340.36 226.762 1339.43 226.096C1338.51 225.43 1337.93 224.411 1337.69 223.04C1337.46 221.74 1337.59 220.609 1338.08 219.645C1338.56 218.658 1339.31 217.819 1340.34 217.126C1341.36 216.434 1342.56 215.882 1343.92 215.471C1343.79 215.299 1343.7 215.096 1343.63 214.864C1343.57 214.632 1343.51 214.386 1343.46 214.126C1343.32 213.299 1343.45 212.654 1343.85 212.193C1344.28 211.703 1344.84 211.398 1345.52 211.278C1346.21 211.157 1346.81 211.258 1347.33 211.58C1347.87 211.875 1348.21 212.436 1348.36 213.263C1348.45 213.783 1348.46 214.257 1348.39 214.683C1350.3 214.591 1351.94 214.849 1353.31 215.46C1354.71 216.043 1355.52 216.96 1355.74 218.213C1355.93 219.3 1355.78 220.191 1355.29 220.886C1354.83 221.577 1354.11 222.008 1353.15 222.179C1352.51 222.292 1351.86 222.308 1351.22 222.227C1350.56 222.122 1349.88 222.024 1349.15 221.932C1348.46 221.836 1347.67 221.866 1346.79 222.02C1345.94 222.17 1345.35 222.384 1345.01 222.664C1344.69 222.915 1344.56 223.242 1344.63 223.644C1344.71 224.117 1345.02 224.453 1345.54 224.653C1346.08 224.826 1346.99 224.957 1348.28 225.048L1350.16 225.155C1351.74 225.266 1353.14 225.47 1354.36 225.766C1355.58 226.039 1356.57 226.535 1357.33 227.254C1358.11 227.945 1358.62 228.976 1358.86 230.346C1359.25 232.545 1358.86 234.32 1357.68 235.672C1356.53 236.997 1354.82 237.968 1352.57 238.585C1352.8 238.958 1352.97 239.439 1353.08 240.03C1353.22 240.834 1353.09 241.478 1352.69 241.963C1352.31 242.444 1351.78 242.745 1351.09 242.866C1350.41 242.987 1349.78 242.89 1349.21 242.576C1348.67 242.258 1348.33 241.697 1348.18 240.893C1348.13 240.562 1348.1 240.263 1348.1 239.994C1348.1 239.726 1348.13 239.477 1348.19 239.248C1346.78 239.3 1345.44 239.196 1344.15 238.936C1342.85 238.653 1341.76 238.199 1340.87 237.576C1339.98 236.93 1339.44 236.098 1339.26 235.082ZM1362.89 219.657C1361.71 219.865 1360.68 219.694 1359.8 219.142C1358.95 218.585 1358.41 217.704 1358.2 216.499C1357.99 215.317 1358.16 214.314 1358.69 213.488C1359.25 212.634 1360.19 212.091 1361.51 211.857L1376.79 209.163C1378.12 208.93 1379.17 209.121 1379.96 209.737C1380.78 210.325 1381.28 211.21 1381.49 212.392C1381.71 213.597 1381.49 214.609 1380.86 215.428C1380.25 216.243 1379.35 216.754 1378.17 216.963C1377.36 217.104 1376.7 217.136 1376.17 217.058C1375.67 216.953 1375.24 216.809 1374.89 216.627C1374.54 216.421 1374.21 216.26 1373.89 216.145C1373.58 216.006 1373.21 215.974 1372.78 216.049L1372.57 216.743C1372.71 216.939 1372.92 217.217 1373.23 217.577C1373.54 217.914 1373.86 218.43 1374.2 219.125C1374.54 219.796 1374.81 220.747 1375.03 221.976L1376.84 232.222C1377.01 233.191 1376.78 234.059 1376.16 234.826C1375.57 235.589 1374.75 236.063 1373.71 236.246C1372.65 236.434 1371.69 236.273 1370.85 235.764C1370.02 235.251 1369.53 234.51 1369.36 233.541L1367.55 223.295C1367.33 222.066 1367.27 221.078 1367.36 220.331C1367.44 219.561 1367.57 218.966 1367.74 218.546C1367.93 218.099 1368.05 217.76 1368.11 217.531L1367.64 216.955C1367.21 217.03 1366.88 217.187 1366.63 217.426C1366.37 217.642 1366.11 217.906 1365.85 218.221C1365.59 218.511 1365.23 218.793 1364.79 219.065C1364.35 219.314 1363.72 219.511 1362.89 219.657ZM1390.14 233.422C1389.05 233.614 1388.11 233.439 1387.3 232.899C1386.5 232.358 1386.01 231.579 1385.83 230.563L1382.52 211.808C1382.34 210.768 1382.52 209.835 1383.05 209.009C1383.62 208.179 1384.45 207.667 1385.56 207.471C1386.74 207.262 1387.73 207.454 1388.51 208.047C1389.32 208.611 1389.81 209.402 1389.99 210.418L1393.31 229.244C1393.49 230.26 1393.27 231.164 1392.66 231.955C1392.06 232.741 1391.23 233.231 1390.14 233.422ZM1400.16 231.581C1398.98 231.79 1398.02 231.582 1397.28 230.957C1396.53 230.333 1396.05 229.406 1395.84 228.177L1392.9 211.55C1392.69 210.321 1392.74 209.289 1393.05 208.453C1393.39 207.59 1393.89 206.916 1394.56 206.432C1395.25 205.945 1396.04 205.623 1396.91 205.469C1398.21 205.24 1399.37 205.389 1400.39 205.916C1401.41 206.443 1402.32 207.526 1403.12 209.163L1409.26 221.57L1409.82 221.47L1407.42 207.856C1407.2 206.604 1407.35 205.567 1407.86 204.745C1408.37 203.9 1409.22 203.373 1410.4 203.165C1411.63 202.948 1412.6 203.154 1413.32 203.782C1414.06 204.383 1414.54 205.31 1414.76 206.562L1417.59 222.587C1417.94 224.573 1417.76 226.115 1417.05 227.215C1416.34 228.314 1415.2 229.004 1413.61 229.283C1412.01 229.566 1410.68 229.362 1409.63 228.669C1408.58 227.977 1407.68 226.845 1406.91 225.274L1402.88 217.103C1402.79 216.875 1402.65 216.679 1402.48 216.514C1402.32 216.323 1402.14 216.245 1401.93 216.283C1401.67 216.329 1401.51 216.466 1401.45 216.696C1401.39 216.902 1401.38 217.123 1401.42 217.359L1403.1 226.896C1403.32 228.125 1403.19 229.16 1402.7 230.001C1402.21 230.842 1401.37 231.369 1400.16 231.581ZM1417.83 208.91C1416.88 207.565 1416.5 206.281 1416.67 205.056C1416.84 203.807 1417.42 202.853 1418.4 202.193C1419.4 201.528 1420.5 201.334 1421.69 201.611C1422.91 201.86 1423.9 202.672 1424.68 204.045C1425.07 204.732 1425.41 205.55 1425.7 206.498C1425.98 207.423 1426.28 208.321 1426.58 209.195C1426.9 210.04 1427.29 210.727 1427.75 211.255C1428.22 211.756 1428.85 211.937 1429.63 211.8C1430.41 211.662 1430.94 211.276 1431.22 210.642C1431.49 209.985 1431.62 209.206 1431.61 208.307C1431.62 207.38 1431.59 206.435 1431.51 205.473C1431.46 204.483 1431.5 203.599 1431.63 202.82C1431.92 201.259 1432.58 200.156 1433.61 199.511C1434.63 198.842 1435.73 198.648 1436.9 198.929C1438.05 199.215 1438.92 199.915 1439.5 201.03C1440.09 202.121 1440.16 203.46 1439.74 205.046C1439.52 205.865 1439.17 206.669 1438.7 207.459C1438.25 208.221 1437.74 209.017 1437.18 209.847C1436.62 210.677 1436.08 211.589 1435.55 212.585C1435.01 213.556 1434.56 214.648 1434.19 215.859L1435.26 221.921C1435.43 222.89 1435.21 223.756 1434.62 224.519C1434.02 225.283 1433.19 225.758 1432.13 225.945C1431.09 226.129 1430.14 225.966 1429.3 225.457C1428.48 224.944 1427.98 224.203 1427.81 223.234L1426.74 217.171C1426 216.156 1425.21 215.284 1424.38 214.554C1423.54 213.8 1422.71 213.129 1421.9 212.541C1421.09 211.953 1420.33 211.38 1419.63 210.822C1418.91 210.241 1418.32 209.604 1417.83 208.91Z" fill="black"/>
</g>
<defs>
<filter id="filter0_d_1_133" x="-167" y="116" width="2435.16" height="544.106" filterUnits="userSpaceOnUse" color-interpolation-filters="sRGB">
<feFlood flood-opacity="0" result="BackgroundImageFix"/>
<feColorMatrix in="SourceAlpha" type="matrix" values="0 0 0 0 0 0 0 0 0 0 0 0 0 0 0 0 0 0 127 0" result="hardAlpha"/>
<feOffset dy="10"/>
<feGaussianBlur stdDeviation="3.5"/>
<feComposite in2="hardAlpha" operator="out"/>
<feColorMatrix type="matrix" values="0 0 0 0 0 0 0 0 0 0 0 0 0 0 0 0 0 0 0.7 0"/>
<feBlend mode="normal" in2="BackgroundImageFix" result="effect1_dropShadow_1_133"/>
<feBlend mode="normal" in="SourceGraphic" in2="effect1_dropShadow_1_133" result="shape"/>
</filter>
<filter id="filter1_d_1_133" x="-88" y="0" width="2435.16" height="544.106" filterUnits="userSpaceOnUse" color-interpolation-filters="sRGB">
<feFlood flood-opacity="0" result="BackgroundImageFix"/>
<feColorMatrix in="SourceAlpha" type="matrix" values="0 0 0 0 0 0 0 0 0 0 0 0 0 0 0 0 0 0 127 0" result="hardAlpha"/>
<feOffset dy="10"/>
<feGaussianBlur stdDeviation="3.5"/>
<feComposite in2="hardAlpha" operator="out"/>
<feColorMatrix type="matrix" values="0 0 0 0 0 0 0 0 0 0 0 0 0 0 0 0 0 0 0.7 0"/>
<feBlend mode="normal" in2="BackgroundImageFix" result="effect1_dropShadow_1_133"/>
<feBlend mode="normal" in="SourceGraphic" in2="effect1_dropShadow_1_133" result="shape"/>
</filter>
<clipPath id="clip0_1_133">
<rect width="2440" height="105" fill="white" transform="translate(-141.767 116) rotate(10)"/>
</clipPath>
<clipPath id="clip1_1_133">
<rect width="2440" height="105" fill="white" transform="translate(-81 423.702) rotate(-10)"/>
</clipPath>
</defs>
</svg>
