<svg width="280" height="70" viewBox="0 0 280 70" fill="none" xmlns="http://www.w3.org/2000/svg">
<g filter="url(#filter0_d_1_56)">
<rect width="280" height="64" rx="15" fill="#FFE983"/>
<rect x="1.5" y="1.5" width="277" height="61" rx="13.5" stroke="black" stroke-width="3"/>
</g>
<path d="M73.1729 40.98C72.5596 40.9533 71.9862 40.8667 71.4529 40.72C70.9329 40.5733 70.4729 40.3267 70.0729 39.98C69.6729 39.62 69.3596 39.1267 69.1329 38.5C68.9196 37.8733 68.8129 37.0733 68.8129 36.1C68.8129 35.1533 68.9396 34.3333 69.1929 33.64C69.4596 32.9467 69.7729 32.3933 70.1329 31.98C70.4929 31.5667 70.8196 31.3133 71.1129 31.22L71.0129 30.84H70.6729C70.0596 30.84 69.5729 30.6467 69.2129 30.26C68.8662 29.86 68.6862 29.3267 68.6729 28.66C68.6596 27.9933 68.8329 27.46 69.1929 27.06C69.5662 26.6467 70.0596 26.44 70.6729 26.44H76.1729C77.6129 26.44 78.6529 26.7867 79.2929 27.48C79.9329 28.16 80.2529 29.0467 80.2529 30.14C80.2529 31.02 80.0462 31.7533 79.6329 32.34C79.2329 32.9267 78.6262 33.28 77.8129 33.4V33.7C78.6929 33.74 79.4062 34.0467 79.9529 34.62C80.5129 35.18 80.7929 36.0133 80.7929 37.12C80.7929 38.32 80.4462 39.2733 79.7529 39.98C79.0596 40.6733 77.9196 41.0133 76.3329 41L73.1729 40.98ZM72.6329 32C72.6329 32.2933 72.6862 32.4867 72.7929 32.58C72.8996 32.6733 73.0996 32.72 73.3929 32.72H75.2329C75.7396 32.72 76.1262 32.6467 76.3929 32.5C76.6596 32.34 76.7929 32.0333 76.7929 31.58C76.7929 31.1133 76.6596 30.8067 76.3929 30.66C76.1262 30.5133 75.7396 30.44 75.2329 30.44H73.3929C73.0996 30.44 72.8996 30.48 72.7929 30.56C72.6862 30.64 72.6329 30.8333 72.6329 31.14V32ZM72.6329 36.02C72.6329 36.3133 72.6862 36.5133 72.7929 36.62C72.9129 36.7267 73.1262 36.78 73.4329 36.78H75.4929C76.0129 36.78 76.4129 36.6867 76.6929 36.5C76.9729 36.3133 77.1129 35.98 77.1129 35.5C77.1129 35.02 76.9729 34.6933 76.6929 34.52C76.4129 34.3333 76.0129 34.24 75.4929 34.24H73.4329C73.1262 34.24 72.9129 34.2867 72.7929 34.38C72.6862 34.4733 72.6329 34.6667 72.6329 34.96V36.02ZM87.804 41.06C87.004 41.0467 86.2373 40.94 85.504 40.74C84.784 40.54 84.1373 40.2133 83.564 39.76C82.9907 39.3067 82.5373 38.7 82.204 37.94C81.884 37.18 81.724 36.24 81.724 35.12V28.34C81.724 27.7 81.9307 27.2267 82.344 26.92C82.7707 26.6 83.264 26.44 83.824 26.44C84.3707 26.44 84.8573 26.6 85.284 26.92C85.7107 27.2267 85.924 27.7 85.924 28.34V34.18C85.924 35.1267 86.144 35.82 86.584 36.26C87.0373 36.7 87.6173 36.9 88.324 36.86C89.0707 36.8067 89.604 36.52 89.924 36C90.2573 35.48 90.3507 34.7867 90.204 33.92C90.1107 33.3333 90.004 32.84 89.884 32.44C89.7773 32.04 89.664 31.6867 89.544 31.38C89.4373 31.06 89.344 30.7467 89.264 30.44C89.184 30.12 89.124 29.7467 89.084 29.32C89.004 28.4267 89.184 27.7267 89.624 27.22C90.0773 26.7 90.6707 26.44 91.404 26.44C92.1373 26.44 92.7107 26.6867 93.124 27.18C93.5373 27.6733 93.744 28.42 93.744 29.42V35.12C93.744 36.24 93.584 37.1867 93.264 37.96C92.9573 38.72 92.524 39.3333 91.964 39.8C91.4173 40.2533 90.784 40.58 90.064 40.78C89.3573 40.9667 88.604 41.06 87.804 41.06ZM95.1852 30.3C94.7986 29.4733 94.7119 28.7333 94.9252 28.08C95.1386 27.4133 95.5452 26.9467 96.1452 26.68C96.7586 26.4133 97.3786 26.4133 98.0052 26.68C98.6452 26.9333 99.1119 27.4733 99.4052 28.3C99.5519 28.7133 99.6586 29.1933 99.7252 29.74C99.7919 30.2733 99.8652 30.7933 99.9452 31.3C100.039 31.7933 100.185 32.2067 100.385 32.54C100.599 32.86 100.925 33.02 101.365 33.02C101.805 33.02 102.132 32.86 102.345 32.54C102.559 32.2067 102.705 31.7933 102.785 31.3C102.879 30.7933 102.952 30.2733 103.005 29.74C103.072 29.1933 103.179 28.7133 103.325 28.3C103.632 27.4733 104.099 26.9333 104.725 26.68C105.352 26.4133 105.972 26.4133 106.585 26.68C107.185 26.9467 107.592 27.4133 107.805 28.08C108.019 28.7333 107.932 29.4733 107.545 30.3C107.345 30.7267 107.079 31.1333 106.745 31.52C106.425 31.8933 106.072 32.28 105.685 32.68C105.299 33.08 104.912 33.5267 104.525 34.02C104.139 34.5 103.785 35.0533 103.465 35.68V39.1C103.465 39.6467 103.265 40.1 102.865 40.46C102.465 40.82 101.965 41 101.365 41C100.779 41 100.279 40.82 99.8652 40.46C99.4652 40.1 99.2652 39.6467 99.2652 39.1V35.68C98.9586 35.0533 98.6119 34.5 98.2252 34.02C97.8386 33.5267 97.4519 33.08 97.0652 32.68C96.6786 32.28 96.3186 31.8933 95.9852 31.52C95.6519 31.1333 95.3852 30.7267 95.1852 30.3ZM114.223 41C113.33 40.8667 112.75 40.46 112.483 39.78C112.216 39.0867 112.27 38.2133 112.643 37.16L115.283 29.66C115.523 28.9667 115.796 28.3733 116.103 27.88C116.423 27.3867 116.816 27.0067 117.283 26.74C117.763 26.4733 118.356 26.34 119.063 26.34C120.13 26.34 120.93 26.6333 121.463 27.22C122.01 27.8067 122.463 28.62 122.823 29.66L125.443 37.16C125.816 38.2133 125.883 39.0867 125.643 39.78C125.416 40.46 124.85 40.8667 123.943 41C123.21 41.0933 122.57 41.0067 122.023 40.74C121.49 40.4733 121.17 40.04 121.063 39.44C120.983 39.04 120.97 38.7067 121.023 38.44C121.09 38.1733 121.15 37.96 121.203 37.8C121.243 37.6667 121.243 37.54 121.203 37.42C121.176 37.2867 121.076 37.22 120.903 37.22H117.183C117.01 37.22 116.903 37.2867 116.863 37.42C116.836 37.54 116.85 37.6667 116.903 37.8C116.956 37.96 117.01 38.1733 117.063 38.44C117.116 38.7067 117.11 39.04 117.043 39.44C116.936 40.04 116.623 40.4733 116.103 40.74C115.583 41.0067 114.956 41.0933 114.223 41ZM120.523 34.42L119.483 31.16C119.456 31.0267 119.41 30.9267 119.343 30.86C119.29 30.78 119.196 30.74 119.063 30.74C118.93 30.74 118.83 30.78 118.763 30.86C118.71 30.9267 118.663 31.0267 118.623 31.16L117.603 34.42H120.523ZM128.823 41C128.156 41 127.649 40.7933 127.303 40.38C126.956 39.9667 126.783 39.4133 126.783 38.72V29.34C126.783 28.6467 126.909 28.0867 127.163 27.66C127.429 27.22 127.769 26.9 128.183 26.7C128.609 26.5 129.069 26.4 129.563 26.4C130.296 26.4 130.916 26.5933 131.423 26.98C131.929 27.3667 132.323 28.0467 132.603 29.02L134.763 36.4H135.083V28.72C135.083 28.0133 135.263 27.46 135.623 27.06C135.983 26.6467 136.496 26.44 137.163 26.44C137.856 26.44 138.369 26.6467 138.703 27.06C139.049 27.46 139.223 28.0133 139.223 28.72V37.76C139.223 38.88 138.976 39.7067 138.483 40.24C137.989 40.7733 137.296 41.04 136.403 41.04C135.496 41.04 134.789 40.8 134.283 40.32C133.776 39.84 133.389 39.1333 133.123 38.2L131.703 33.34C131.676 33.2067 131.623 33.0867 131.543 32.98C131.476 32.86 131.383 32.8 131.263 32.8C131.116 32.8 131.016 32.86 130.963 32.98C130.909 33.0867 130.883 33.2067 130.883 33.34V38.72C130.883 39.4133 130.709 39.9667 130.363 40.38C130.016 40.7933 129.503 41 128.823 41ZM145.574 41.12C144.507 41.12 143.58 40.8133 142.794 40.2C142.007 39.5733 141.4 38.72 140.974 37.64C140.547 36.5467 140.334 35.3133 140.334 33.94C140.334 32.66 140.52 31.54 140.894 30.58C141.28 29.6067 141.8 28.8 142.454 28.16C143.12 27.5067 143.887 27.02 144.754 26.7C145.634 26.3667 146.56 26.2 147.534 26.2C149.32 26.2 150.64 26.4533 151.494 26.96C152.36 27.4533 152.794 28.0933 152.794 28.88C152.794 29.4933 152.634 30.0333 152.314 30.5C152.007 30.9667 151.54 31.2 150.914 31.2C150.487 31.2 150.08 31.16 149.694 31.08C149.32 31 148.934 30.9267 148.534 30.86C148.147 30.78 147.714 30.74 147.234 30.74C146.18 30.74 145.42 31.04 144.954 31.64C144.5 32.24 144.274 32.9933 144.274 33.9C144.274 34.6333 144.42 35.2333 144.714 35.7C145.02 36.1667 145.42 36.5133 145.914 36.74C146.42 36.9533 146.98 37.06 147.594 37.06C148.1 37.06 148.574 36.9467 149.014 36.72C149.454 36.4933 149.734 36.0733 149.854 35.46H148.874C148.407 35.46 148.047 35.32 147.794 35.04C147.54 34.7467 147.414 34.3733 147.414 33.92C147.414 33.4667 147.54 33.1 147.794 32.82C148.047 32.54 148.407 32.4 148.874 32.4H151.274C152.14 32.4 152.747 32.6333 153.094 33.1C153.454 33.5533 153.634 34.2333 153.634 35.14V38.88C153.634 39.5733 153.447 40.1 153.074 40.46C152.7 40.82 152.207 41 151.594 41C150.94 41 150.427 40.82 150.054 40.46C149.68 40.1 149.494 39.5733 149.494 38.88V37.64H149.134C149.134 38.8533 148.827 39.74 148.214 40.3C147.6 40.8467 146.78 41.12 145.754 41.12H145.574ZM159.514 40.96C158.861 40.96 158.234 40.9 157.634 40.78C157.047 40.66 156.527 40.4333 156.074 40.1C155.634 39.7533 155.281 39.26 155.014 38.62C154.761 37.9667 154.634 37.1133 154.634 36.06C154.634 35.1133 154.761 34.3 155.014 33.62C155.267 32.94 155.567 32.4 155.914 32C156.274 31.6 156.601 31.3533 156.894 31.26L156.794 30.88H156.454C155.841 30.88 155.354 30.6867 154.994 30.3C154.647 29.9 154.467 29.36 154.454 28.68C154.441 28.0133 154.614 27.48 154.974 27.08C155.347 26.68 155.841 26.48 156.454 26.48H163.634C165.061 26.48 165.774 27.1467 165.774 28.48C165.774 29.08 165.601 29.56 165.254 29.92C164.907 30.28 164.367 30.46 163.634 30.46H159.494C159.001 30.46 158.754 30.7467 158.754 31.32V32.82C159.421 32.6733 160.114 32.5 160.834 32.3C161.567 32.1 162.261 32 162.914 32C163.541 32 164.007 32.14 164.314 32.42C164.634 32.6867 164.794 33.0533 164.794 33.52C164.794 34 164.634 34.38 164.314 34.66C164.007 34.9267 163.541 35.0667 162.914 35.08C162.261 35.0933 161.567 35 160.834 34.8C160.101 34.6 159.401 34.4267 158.734 34.28V36.9C158.734 37.1533 158.801 37.3333 158.934 37.44C159.081 37.5333 159.307 37.4933 159.614 37.32C160.281 36.9333 160.934 36.6267 161.574 36.4C162.214 36.16 162.841 36.04 163.454 36.04C164.321 36.04 164.974 36.2667 165.414 36.72C165.867 37.1733 166.094 37.7667 166.094 38.5C166.094 39.2867 165.854 39.8933 165.374 40.32C164.907 40.7467 164.147 40.96 163.094 40.96H159.514ZM167.076 28.38C167.076 27.7667 167.262 27.2933 167.636 26.96C168.022 26.6133 168.516 26.44 169.116 26.44C169.742 26.44 170.242 26.6133 170.616 26.96C170.989 27.2933 171.176 27.7667 171.176 28.38V36.9C171.176 37.1533 171.242 37.3333 171.376 37.44C171.509 37.5333 171.729 37.4933 172.036 37.32C172.702 36.9333 173.296 36.6267 173.816 36.4C174.336 36.16 174.909 36.04 175.536 36.04C176.402 36.04 177.056 36.2667 177.496 36.72C177.936 37.1733 178.156 37.7667 178.156 38.5C178.156 39.2867 177.916 39.8933 177.436 40.32C176.969 40.7467 176.216 40.96 175.176 40.96H171.056C170.176 40.96 169.442 40.86 168.856 40.66C168.269 40.4467 167.822 40.0667 167.516 39.52C167.222 38.9733 167.076 38.18 167.076 37.14V28.38ZM182.11 41.06C181.297 41.06 180.657 40.86 180.19 40.46C179.723 40.06 179.35 39.5133 179.07 38.82C178.803 38.1133 178.55 37.3133 178.31 36.42L176.37 29.22C176.223 28.66 176.257 28.14 176.47 27.66C176.683 27.1667 177.103 26.84 177.73 26.68C178.317 26.52 178.837 26.56 179.29 26.8C179.743 27.04 180.05 27.46 180.21 28.06L182.01 34.64C182.17 35.2133 182.337 35.6333 182.51 35.9C182.697 36.1667 182.99 36.2533 183.39 36.16C183.763 36.0667 183.963 35.86 183.99 35.54C184.017 35.22 183.95 34.7667 183.79 34.18L182.51 29.32C182.337 28.6533 182.357 28.08 182.57 27.6C182.797 27.1067 183.237 26.7867 183.89 26.64C184.557 26.48 185.09 26.5667 185.49 26.9C185.903 27.22 186.183 27.6733 186.33 28.26L187.95 34.64C188.123 35.2933 188.31 35.7333 188.51 35.96C188.723 36.1867 188.997 36.2533 189.33 36.16C189.703 36.0533 189.883 35.8467 189.87 35.54C189.857 35.22 189.81 34.76 189.73 34.16C189.61 33.2267 189.503 32.46 189.41 31.86C189.33 31.26 189.263 30.76 189.21 30.36C189.17 29.96 189.15 29.5933 189.15 29.26C189.15 28.5133 189.37 27.88 189.81 27.36C190.25 26.8267 190.85 26.56 191.61 26.56C192.383 26.56 192.97 26.8 193.37 27.28C193.77 27.7467 193.97 28.3933 193.97 29.22C193.97 29.7533 193.89 30.3133 193.73 30.9C193.583 31.4867 193.437 32.04 193.29 32.56L192.17 36.42C191.917 37.3 191.663 38.0933 191.41 38.8C191.17 39.4933 190.843 40.0467 190.43 40.46C190.017 40.86 189.43 41.06 188.67 41.06C187.75 41.06 187.03 40.7733 186.51 40.2C185.99 39.6267 185.59 38.6867 185.31 37.38H185.17C184.903 38.6867 184.55 39.6267 184.11 40.2C183.67 40.7733 183.003 41.06 182.11 41.06ZM197.144 41.04C196.53 41.04 196.03 40.8533 195.644 40.48C195.257 40.1067 195.064 39.6333 195.064 39.06V28.48C195.064 27.8933 195.25 27.4 195.624 27C196.01 26.6 196.517 26.4 197.144 26.4C197.81 26.4 198.33 26.6 198.704 27C199.09 27.3867 199.284 27.8667 199.284 28.44V39.06C199.284 39.6333 199.077 40.1067 198.664 40.48C198.264 40.8533 197.757 41.04 197.144 41.04ZM202.692 41C202.038 41 201.518 40.82 201.132 40.46C200.758 40.1 200.572 39.5733 200.572 38.88V36.06C200.572 34.6467 200.785 33.5733 201.212 32.84C201.638 32.1067 202.178 31.58 202.832 31.26L202.732 30.88H202.392C201.778 30.88 201.292 30.6867 200.932 30.3C200.585 29.9 200.405 29.36 200.392 28.68C200.378 28.0133 200.552 27.48 200.912 27.08C201.285 26.68 201.778 26.48 202.392 26.48H209.392C210.818 26.48 211.532 27.1467 211.532 28.48C211.532 29.08 211.358 29.56 211.012 29.92C210.665 30.28 210.125 30.46 209.392 30.46H205.492C204.998 30.46 204.752 30.7467 204.752 31.32V32.76C205.378 32.5867 206.032 32.3867 206.712 32.16C207.392 31.9333 208.045 31.82 208.672 31.82C209.338 31.82 209.852 31.9867 210.212 32.32C210.585 32.64 210.772 33.1333 210.772 33.8C210.772 34.4533 210.585 34.9467 210.212 35.28C209.852 35.6 209.338 35.7667 208.672 35.78C208.045 35.7933 207.385 35.6933 206.692 35.48C206.012 35.2533 205.358 35.0533 204.732 34.88L204.712 38.88C204.712 39.5733 204.525 40.1 204.152 40.46C203.792 40.82 203.305 41 202.692 41Z" fill="black"/>
<defs>
<filter id="filter0_d_1_56" x="0" y="0" width="280" height="70" filterUnits="userSpaceOnUse" color-interpolation-filters="sRGB">
<feFlood flood-opacity="0" result="BackgroundImageFix"/>
<feColorMatrix in="SourceAlpha" type="matrix" values="0 0 0 0 0 0 0 0 0 0 0 0 0 0 0 0 0 0 127 0" result="hardAlpha"/>
<feOffset dy="6"/>
<feComposite in2="hardAlpha" operator="out"/>
<feColorMatrix type="matrix" values="0 0 0 0 0 0 0 0 0 0 0 0 0 0 0 0 0 0 1 0"/>
<feBlend mode="normal" in2="BackgroundImageFix" result="effect1_dropShadow_1_56"/>
<feBlend mode="normal" in="SourceGraphic" in2="effect1_dropShadow_1_56" result="shape"/>
</filter>
</defs>
</svg>
