<svg width="280" height="70" viewBox="0 0 280 70" fill="none" xmlns="http://www.w3.org/2000/svg">
<g filter="url(#filter0_d_1_56)">
<rect width="280" height="64" rx="15" fill="#FFE983"/>
<rect x="1.5" y="1.5" width="277" height="61" rx="13.5" stroke="black" stroke-width="3"/>
</g>
<path d="M93.3389 40.98C92.7256 40.9533 92.1522 40.8667 91.6189 40.72C91.0989 40.5733 90.6389 40.3267 90.2389 39.98C89.8389 39.62 89.5256 39.1267 89.2989 38.5C89.0856 37.8733 88.9789 37.0733 88.9789 36.1C88.9789 35.1533 89.1056 34.3333 89.3589 33.64C89.6256 32.9467 89.9389 32.3933 90.2989 31.98C90.6589 31.5667 90.9856 31.3133 91.2789 31.22L91.1789 30.84H90.8389C90.2256 30.84 89.7389 30.6467 89.3789 30.26C89.0322 29.86 88.8522 29.3267 88.8389 28.66C88.8256 27.9933 88.9989 27.46 89.3589 27.06C89.7322 26.6467 90.2256 26.44 90.8389 26.44H96.3389C97.7789 26.44 98.8189 26.7867 99.4589 27.48C100.099 28.16 100.419 29.0467 100.419 30.14C100.419 31.02 100.212 31.7533 99.7989 32.34C99.3989 32.9267 98.7922 33.28 97.9789 33.4V33.7C98.8589 33.74 99.5722 34.0467 100.119 34.62C100.679 35.18 100.959 36.0133 100.959 37.12C100.959 38.32 100.612 39.2733 99.9189 39.98C99.2256 40.6733 98.0856 41.0133 96.4989 41L93.3389 40.98ZM92.7989 32C92.7989 32.2933 92.8522 32.4867 92.9589 32.58C93.0656 32.6733 93.2656 32.72 93.5589 32.72H95.3989C95.9056 32.72 96.2922 32.6467 96.5589 32.5C96.8256 32.34 96.9589 32.0333 96.9589 31.58C96.9589 31.1133 96.8256 30.8067 96.5589 30.66C96.2922 30.5133 95.9056 30.44 95.3989 30.44H93.5589C93.2656 30.44 93.0656 30.48 92.9589 30.56C92.8522 30.64 92.7989 30.8333 92.7989 31.14V32ZM92.7989 36.02C92.7989 36.3133 92.8522 36.5133 92.9589 36.62C93.0789 36.7267 93.2922 36.78 93.5989 36.78H95.6589C96.1789 36.78 96.5789 36.6867 96.8589 36.5C97.1389 36.3133 97.2789 35.98 97.2789 35.5C97.2789 35.02 97.1389 34.6933 96.8589 34.52C96.5789 34.3333 96.1789 34.24 95.6589 34.24H93.5989C93.2922 34.24 93.0789 34.2867 92.9589 34.38C92.8522 34.4733 92.7989 34.6667 92.7989 34.96V36.02ZM107.97 41.06C107.17 41.0467 106.403 40.94 105.67 40.74C104.95 40.54 104.303 40.2133 103.73 39.76C103.157 39.3067 102.703 38.7 102.37 37.94C102.05 37.18 101.89 36.24 101.89 35.12V28.34C101.89 27.7 102.097 27.2267 102.51 26.92C102.937 26.6 103.43 26.44 103.99 26.44C104.537 26.44 105.023 26.6 105.45 26.92C105.877 27.2267 106.09 27.7 106.09 28.34V34.18C106.09 35.1267 106.31 35.82 106.75 36.26C107.203 36.7 107.783 36.9 108.49 36.86C109.237 36.8067 109.77 36.52 110.09 36C110.423 35.48 110.517 34.7867 110.37 33.92C110.277 33.3333 110.17 32.84 110.05 32.44C109.943 32.04 109.83 31.6867 109.71 31.38C109.603 31.06 109.51 30.7467 109.43 30.44C109.35 30.12 109.29 29.7467 109.25 29.32C109.17 28.4267 109.35 27.7267 109.79 27.22C110.243 26.7 110.837 26.44 111.57 26.44C112.303 26.44 112.877 26.6867 113.29 27.18C113.703 27.6733 113.91 28.42 113.91 29.42V35.12C113.91 36.24 113.75 37.1867 113.43 37.96C113.123 38.72 112.69 39.3333 112.13 39.8C111.583 40.2533 110.95 40.58 110.23 40.78C109.523 40.9667 108.77 41.06 107.97 41.06ZM115.351 30.3C114.965 29.4733 114.878 28.7333 115.091 28.08C115.305 27.4133 115.711 26.9467 116.311 26.68C116.925 26.4133 117.545 26.4133 118.171 26.68C118.811 26.9333 119.278 27.4733 119.571 28.3C119.718 28.7133 119.825 29.1933 119.891 29.74C119.958 30.2733 120.031 30.7933 120.111 31.3C120.205 31.7933 120.351 32.2067 120.551 32.54C120.765 32.86 121.091 33.02 121.531 33.02C121.971 33.02 122.298 32.86 122.511 32.54C122.725 32.2067 122.871 31.7933 122.951 31.3C123.045 30.7933 123.118 30.2733 123.171 29.74C123.238 29.1933 123.345 28.7133 123.491 28.3C123.798 27.4733 124.265 26.9333 124.891 26.68C125.518 26.4133 126.138 26.4133 126.751 26.68C127.351 26.9467 127.758 27.4133 127.971 28.08C128.185 28.7333 128.098 29.4733 127.711 30.3C127.511 30.7267 127.245 31.1333 126.911 31.52C126.591 31.8933 126.238 32.28 125.851 32.68C125.465 33.08 125.078 33.5267 124.691 34.02C124.305 34.5 123.951 35.0533 123.631 35.68V39.1C123.631 39.6467 123.431 40.1 123.031 40.46C122.631 40.82 122.131 41 121.531 41C120.945 41 120.445 40.82 120.031 40.46C119.631 40.1 119.431 39.6467 119.431 39.1V35.68C119.125 35.0533 118.778 34.5 118.391 34.02C118.005 33.5267 117.618 33.08 117.231 32.68C116.845 32.28 116.485 31.8933 116.151 31.52C115.818 31.1333 115.551 30.7267 115.351 30.3ZM132.929 37.04C132.929 36.36 133.142 35.8133 133.569 35.4C134.009 34.9733 134.522 34.7667 135.109 34.78C135.549 34.7933 135.969 34.8933 136.369 35.08C136.782 35.2533 137.209 35.4267 137.649 35.6C138.089 35.7733 138.589 35.86 139.149 35.86C139.669 35.86 140.002 35.7867 140.149 35.64C140.309 35.48 140.389 35.3 140.389 35.1C140.389 34.8467 140.276 34.6533 140.049 34.52C139.836 34.3733 139.536 34.2533 139.149 34.16L138.229 33.94C137.296 33.7133 136.449 33.4733 135.689 33.22C134.929 32.9533 134.329 32.5933 133.889 32.14C133.449 31.6867 133.229 31.0733 133.229 30.3C133.229 29.5667 133.409 28.96 133.769 28.48C134.129 27.9867 134.622 27.6 135.249 27.32C135.876 27.04 136.582 26.8533 137.369 26.76C137.316 26.6533 137.282 26.5333 137.269 26.4C137.256 26.2667 137.249 26.1267 137.249 25.98C137.249 25.5133 137.382 25.1733 137.649 24.96C137.929 24.7333 138.262 24.62 138.649 24.62C139.036 24.62 139.356 24.7333 139.609 24.96C139.876 25.1733 140.009 25.5133 140.009 25.98C140.009 26.2733 139.969 26.5333 139.889 26.76C140.942 26.8933 141.816 27.1933 142.509 27.66C143.216 28.1133 143.569 28.6933 143.569 29.4C143.569 30.0133 143.402 30.4867 143.069 30.82C142.749 31.1533 142.316 31.32 141.769 31.32C141.409 31.32 141.056 31.2667 140.709 31.16C140.362 31.04 139.996 30.92 139.609 30.8C139.236 30.68 138.802 30.62 138.309 30.62C137.829 30.62 137.482 30.68 137.269 30.8C137.069 30.9067 136.969 31.0733 136.969 31.3C136.969 31.5667 137.102 31.78 137.369 31.94C137.649 32.0867 138.136 32.2467 138.829 32.42L139.849 32.66C140.702 32.8733 141.449 33.12 142.089 33.4C142.729 33.6667 143.222 34.0333 143.569 34.5C143.929 34.9533 144.109 35.5667 144.109 36.34C144.109 37.58 143.722 38.5133 142.949 39.14C142.189 39.7533 141.162 40.12 139.869 40.24C139.962 40.4667 140.009 40.7467 140.009 41.08C140.009 41.5333 139.876 41.8733 139.609 42.1C139.356 42.3267 139.036 42.44 138.649 42.44C138.262 42.44 137.929 42.3267 137.649 42.1C137.382 41.8733 137.249 41.5333 137.249 41.08C137.249 40.8933 137.262 40.7267 137.289 40.58C137.316 40.4333 137.356 40.3 137.409 40.18C136.636 40.0733 135.909 39.8867 135.229 39.62C134.549 39.34 133.996 38.9867 133.569 38.56C133.142 38.12 132.929 37.6133 132.929 37.04ZM147.342 30.88C146.676 30.88 146.129 30.6867 145.702 30.3C145.289 29.9133 145.082 29.38 145.082 28.7C145.082 28.0333 145.269 27.5 145.642 27.1C146.029 26.6867 146.596 26.48 147.342 26.48H155.962C156.709 26.48 157.269 26.6867 157.642 27.1C158.029 27.5 158.222 28.0333 158.222 28.7C158.222 29.38 158.009 29.9133 157.582 30.3C157.169 30.6867 156.629 30.88 155.962 30.88C155.509 30.88 155.142 30.8333 154.862 30.74C154.596 30.6333 154.376 30.5133 154.202 30.38C154.029 30.2333 153.862 30.1133 153.702 30.02C153.542 29.9133 153.342 29.86 153.102 29.86L152.922 30.22C152.976 30.34 153.069 30.5133 153.202 30.74C153.336 30.9533 153.462 31.2667 153.582 31.68C153.702 32.08 153.762 32.6267 153.762 33.32V39.1C153.762 39.6467 153.556 40.1 153.142 40.46C152.742 40.82 152.249 41 151.662 41C151.062 41 150.556 40.82 150.142 40.46C149.742 40.1 149.542 39.6467 149.542 39.1V33.32C149.542 32.6267 149.602 32.08 149.722 31.68C149.842 31.2667 149.969 30.9533 150.102 30.74C150.249 30.5133 150.349 30.34 150.402 30.22L150.202 29.86C149.962 29.86 149.762 29.9133 149.602 30.02C149.442 30.1133 149.276 30.2333 149.102 30.38C148.929 30.5133 148.709 30.6333 148.442 30.74C148.176 30.8333 147.809 30.88 147.342 30.88ZM160.923 41.04C160.31 41.04 159.81 40.8533 159.423 40.48C159.036 40.1067 158.843 39.6333 158.843 39.06V28.48C158.843 27.8933 159.03 27.4 159.403 27C159.79 26.6 160.296 26.4 160.923 26.4C161.59 26.4 162.11 26.6 162.483 27C162.87 27.3867 163.063 27.8667 163.063 28.44V39.06C163.063 39.6333 162.856 40.1067 162.443 40.48C162.043 40.8533 161.536 41.04 160.923 41.04ZM166.586 41C165.92 41 165.413 40.7933 165.066 40.38C164.72 39.9667 164.546 39.4133 164.546 38.72V29.34C164.546 28.6467 164.673 28.0867 164.926 27.66C165.193 27.22 165.533 26.9 165.946 26.7C166.373 26.5 166.833 26.4 167.326 26.4C168.06 26.4 168.68 26.5933 169.186 26.98C169.693 27.3667 170.086 28.0467 170.366 29.02L172.526 36.4H172.846V28.72C172.846 28.0133 173.026 27.46 173.386 27.06C173.746 26.6467 174.26 26.44 174.926 26.44C175.62 26.44 176.133 26.6467 176.466 27.06C176.813 27.46 176.986 28.0133 176.986 28.72V37.76C176.986 38.88 176.74 39.7067 176.246 40.24C175.753 40.7733 175.06 41.04 174.166 41.04C173.26 41.04 172.553 40.8 172.046 40.32C171.54 39.84 171.153 39.1333 170.886 38.2L169.466 33.34C169.44 33.2067 169.386 33.0867 169.306 32.98C169.24 32.86 169.146 32.8 169.026 32.8C168.88 32.8 168.78 32.86 168.726 32.98C168.673 33.0867 168.646 33.2067 168.646 33.34V38.72C168.646 39.4133 168.473 39.9667 168.126 40.38C167.78 40.7933 167.266 41 166.586 41ZM178.437 30.3C178.051 29.4733 177.964 28.7333 178.177 28.08C178.391 27.4133 178.797 26.9467 179.397 26.68C180.011 26.4133 180.631 26.4133 181.257 26.68C181.897 26.9333 182.364 27.4733 182.657 28.3C182.804 28.7133 182.911 29.1933 182.977 29.74C183.044 30.2733 183.117 30.7933 183.197 31.3C183.291 31.7933 183.437 32.2067 183.637 32.54C183.851 32.86 184.177 33.02 184.617 33.02C185.057 33.02 185.384 32.86 185.597 32.54C185.811 32.2067 185.957 31.7933 186.037 31.3C186.131 30.7933 186.204 30.2733 186.257 29.74C186.324 29.1933 186.431 28.7133 186.577 28.3C186.884 27.4733 187.351 26.9333 187.977 26.68C188.604 26.4133 189.224 26.4133 189.837 26.68C190.437 26.9467 190.844 27.4133 191.057 28.08C191.271 28.7333 191.184 29.4733 190.797 30.3C190.597 30.7267 190.331 31.1333 189.997 31.52C189.677 31.8933 189.324 32.28 188.937 32.68C188.551 33.08 188.164 33.5267 187.777 34.02C187.391 34.5 187.037 35.0533 186.717 35.68V39.1C186.717 39.6467 186.517 40.1 186.117 40.46C185.717 40.82 185.217 41 184.617 41C184.031 41 183.531 40.82 183.117 40.46C182.717 40.1 182.517 39.6467 182.517 39.1V35.68C182.211 35.0533 181.864 34.5 181.477 34.02C181.091 33.5267 180.704 33.08 180.317 32.68C179.931 32.28 179.571 31.8933 179.237 31.52C178.904 31.1333 178.637 30.7267 178.437 30.3Z" fill="black"/>
<defs>
<filter id="filter0_d_1_56" x="0" y="0" width="280" height="70" filterUnits="userSpaceOnUse" color-interpolation-filters="sRGB">
<feFlood flood-opacity="0" result="BackgroundImageFix"/>
<feColorMatrix in="SourceAlpha" type="matrix" values="0 0 0 0 0 0 0 0 0 0 0 0 0 0 0 0 0 0 127 0" result="hardAlpha"/>
<feOffset dy="6"/>
<feComposite in2="hardAlpha" operator="out"/>
<feColorMatrix type="matrix" values="0 0 0 0 0 0 0 0 0 0 0 0 0 0 0 0 0 0 1 0"/>
<feBlend mode="normal" in2="BackgroundImageFix" result="effect1_dropShadow_1_56"/>
<feBlend mode="normal" in="SourceGraphic" in2="effect1_dropShadow_1_56" result="shape"/>
</filter>
</defs>
</svg>
