<svg width="179" height="87" viewBox="0 0 179 87" fill="none" xmlns="http://www.w3.org/2000/svg">
<g filter="url(#filter0_d_1_97)">
<rect width="179" height="80.7498" rx="15" fill="white"/>
<rect x="1.5" y="1.5" width="176" height="77.7498" rx="13.5" stroke="black" stroke-width="3"/>
</g>
<path d="M36.3942 51.973C35.5662 51.937 34.7922 51.82 34.0722 51.622C33.3702 51.424 32.7492 51.091 32.2092 50.623C31.6692 50.137 31.2462 49.471 30.9402 48.625C30.6522 47.779 30.5082 46.699 30.5082 45.385C30.5082 44.107 30.6792 43 31.0212 42.064C31.3812 41.128 31.8042 40.381 32.2902 39.823C32.7762 39.265 33.2172 38.923 33.6132 38.797L33.4782 38.284H33.0192C32.1912 38.284 31.5342 38.023 31.0482 37.501C30.5802 36.961 30.3372 36.241 30.3192 35.341C30.3012 34.441 30.5352 33.721 31.0212 33.181C31.5252 32.623 32.1912 32.344 33.0192 32.344H40.4442C42.3882 32.344 43.7922 32.812 44.6562 33.748C45.5202 34.666 45.9522 35.863 45.9522 37.339C45.9522 38.527 45.6732 39.517 45.1152 40.309C44.5752 41.101 43.7562 41.578 42.6582 41.74V42.145C43.8462 42.199 44.8092 42.613 45.5472 43.387C46.3032 44.143 46.6812 45.268 46.6812 46.762C46.6812 48.382 46.2132 49.669 45.2772 50.623C44.3412 51.559 42.8022 52.018 40.6602 52L36.3942 51.973ZM35.6652 39.85C35.6652 40.246 35.7372 40.507 35.8812 40.633C36.0252 40.759 36.2952 40.822 36.6912 40.822H39.1752C39.8592 40.822 40.3812 40.723 40.7412 40.525C41.1012 40.309 41.2812 39.895 41.2812 39.283C41.2812 38.653 41.1012 38.239 40.7412 38.041C40.3812 37.843 39.8592 37.744 39.1752 37.744H36.6912C36.2952 37.744 36.0252 37.798 35.8812 37.906C35.7372 38.014 35.6652 38.275 35.6652 38.689V39.85ZM35.6652 45.277C35.6652 45.673 35.7372 45.943 35.8812 46.087C36.0432 46.231 36.3312 46.303 36.7452 46.303H39.5262C40.2282 46.303 40.7682 46.177 41.1462 45.925C41.5242 45.673 41.7132 45.223 41.7132 44.575C41.7132 43.927 41.5242 43.486 41.1462 43.252C40.7682 43 40.2282 42.874 39.5262 42.874H36.7452C36.3312 42.874 36.0432 42.937 35.8812 43.063C35.7372 43.189 35.6652 43.45 35.6652 43.846V45.277ZM56.1462 52.081C55.0662 52.063 54.0312 51.919 53.0412 51.649C52.0692 51.379 51.1962 50.938 50.4222 50.326C49.6482 49.714 49.0362 48.895 48.5862 47.869C48.1542 46.843 47.9382 45.574 47.9382 44.062V34.909C47.9382 34.045 48.2172 33.406 48.7752 32.992C49.3512 32.56 50.0172 32.344 50.7732 32.344C51.5112 32.344 52.1682 32.56 52.7442 32.992C53.3202 33.406 53.6082 34.045 53.6082 34.909V42.793C53.6082 44.071 53.9052 45.007 54.4992 45.601C55.1112 46.195 55.8942 46.465 56.8482 46.411C57.8562 46.339 58.5762 45.952 59.0082 45.25C59.4582 44.548 59.5842 43.612 59.3862 42.442C59.2602 41.65 59.1162 40.984 58.9542 40.444C58.8102 39.904 58.6572 39.427 58.4952 39.013C58.3512 38.581 58.2252 38.158 58.1172 37.744C58.0092 37.312 57.9282 36.808 57.8742 36.232C57.7662 35.026 58.0092 34.081 58.6032 33.397C59.2152 32.695 60.0162 32.344 61.0062 32.344C61.9962 32.344 62.7702 32.677 63.3282 33.343C63.8862 34.009 64.1652 35.017 64.1652 36.367V44.062C64.1652 45.574 63.9492 46.852 63.5172 47.896C63.1032 48.922 62.5182 49.75 61.7622 50.38C61.0242 50.992 60.1692 51.433 59.1972 51.703C58.2432 51.955 57.2262 52.081 56.1462 52.081ZM66.1109 37.555C65.5889 36.439 65.4719 35.44 65.7599 34.558C66.0479 33.658 66.5969 33.028 67.4069 32.668C68.2349 32.308 69.0719 32.308 69.9179 32.668C70.7819 33.01 71.4119 33.739 71.8079 34.855C72.0059 35.413 72.1499 36.061 72.2399 36.799C72.3299 37.519 72.4289 38.221 72.5369 38.905C72.6629 39.571 72.8609 40.129 73.1309 40.579C73.4189 41.011 73.8599 41.227 74.4539 41.227C75.0479 41.227 75.4889 41.011 75.7769 40.579C76.0649 40.129 76.2629 39.571 76.3709 38.905C76.4969 38.221 76.5959 37.519 76.6679 36.799C76.7579 36.061 76.9019 35.413 77.0999 34.855C77.5139 33.739 78.1439 33.01 78.9899 32.668C79.8359 32.308 80.6729 32.308 81.5009 32.668C82.3109 33.028 82.8599 33.658 83.1479 34.558C83.4359 35.44 83.3189 36.439 82.7969 37.555C82.5269 38.131 82.1669 38.68 81.7169 39.202C81.2849 39.706 80.8079 40.228 80.2859 40.768C79.7639 41.308 79.2419 41.911 78.7199 42.577C78.1979 43.225 77.7209 43.972 77.2889 44.818V49.435C77.2889 50.173 77.0189 50.785 76.4789 51.271C75.9389 51.757 75.2639 52 74.4539 52C73.6619 52 72.9869 51.757 72.4289 51.271C71.8889 50.785 71.6189 50.173 71.6189 49.435V44.818C71.2049 43.972 70.7369 43.225 70.2149 42.577C69.6929 41.911 69.1709 41.308 68.6489 40.768C68.1269 40.228 67.6409 39.706 67.1909 39.202C66.7409 38.68 66.3809 38.131 66.1109 37.555ZM92.3787 52C91.4787 52 90.7947 51.721 90.3267 51.163C89.8587 50.605 89.6247 49.858 89.6247 48.922V36.259C89.6247 35.323 89.7957 34.567 90.1377 33.991C90.4977 33.397 90.9567 32.965 91.5147 32.695C92.0907 32.425 92.7117 32.29 93.3777 32.29C94.3677 32.29 95.2047 32.551 95.8887 33.073C96.5727 33.595 97.1037 34.513 97.4817 35.827L100.398 45.79H100.83V35.422C100.83 34.468 101.073 33.721 101.559 33.181C102.045 32.623 102.738 32.344 103.638 32.344C104.574 32.344 105.267 32.623 105.717 33.181C106.185 33.721 106.419 34.468 106.419 35.422V47.626C106.419 49.138 106.086 50.254 105.42 50.974C104.754 51.694 103.818 52.054 102.612 52.054C101.388 52.054 100.434 51.73 99.7497 51.082C99.0657 50.434 98.5437 49.48 98.1837 48.22L96.2667 41.659C96.2307 41.479 96.1587 41.317 96.0507 41.173C95.9607 41.011 95.8347 40.93 95.6727 40.93C95.4747 40.93 95.3397 41.011 95.2677 41.173C95.1957 41.317 95.1597 41.479 95.1597 41.659V48.922C95.1597 49.858 94.9257 50.605 94.4577 51.163C93.9897 51.721 93.2967 52 92.3787 52ZM116.856 52.081C114.93 52.081 113.301 51.658 111.969 50.812C110.637 49.966 109.629 48.796 108.945 47.302C108.261 45.808 107.919 44.089 107.919 42.145C107.919 40.219 108.261 38.509 108.945 37.015C109.629 35.503 110.637 34.324 111.969 33.478C113.301 32.614 114.93 32.182 116.856 32.182C118.782 32.182 120.402 32.614 121.716 33.478C123.048 34.324 124.056 35.503 124.74 37.015C125.424 38.509 125.766 40.219 125.766 42.145C125.766 44.089 125.424 45.808 124.74 47.302C124.056 48.796 123.048 49.966 121.716 50.812C120.402 51.658 118.782 52.081 116.856 52.081ZM111.321 41.713C111.321 42.271 111.456 42.802 111.726 43.306C111.996 43.792 112.527 44.188 113.319 44.494C114.111 44.782 115.29 44.926 116.856 44.926C118.422 44.926 119.592 44.782 120.366 44.494C121.158 44.188 121.689 43.792 121.959 43.306C122.229 42.802 122.364 42.271 122.364 41.713C122.364 41.137 122.229 40.624 121.959 40.174C121.689 39.706 121.158 39.337 120.366 39.067C119.592 38.779 118.422 38.635 116.856 38.635C115.29 38.635 114.111 38.779 113.319 39.067C112.527 39.337 111.996 39.706 111.726 40.174C111.456 40.624 111.321 41.137 111.321 41.713ZM133.678 52.081C132.58 52.081 131.716 51.811 131.086 51.271C130.456 50.731 129.952 49.993 129.574 49.057C129.214 48.103 128.872 47.023 128.548 45.817L125.929 36.097C125.731 35.341 125.776 34.639 126.064 33.991C126.352 33.325 126.919 32.884 127.765 32.668C128.557 32.452 129.259 32.506 129.871 32.83C130.483 33.154 130.897 33.721 131.113 34.531L133.543 43.414C133.759 44.188 133.984 44.755 134.218 45.115C134.47 45.475 134.866 45.592 135.406 45.466C135.91 45.34 136.18 45.061 136.216 44.629C136.252 44.197 136.162 43.585 135.946 42.793L134.218 36.232C133.984 35.332 134.011 34.558 134.299 33.91C134.605 33.244 135.199 32.812 136.081 32.614C136.981 32.398 137.701 32.515 138.241 32.965C138.799 33.397 139.177 34.009 139.375 34.801L141.562 43.414C141.796 44.296 142.048 44.89 142.318 45.196C142.606 45.502 142.975 45.592 143.425 45.466C143.929 45.322 144.172 45.043 144.154 44.629C144.136 44.197 144.073 43.576 143.965 42.766C143.803 41.506 143.659 40.471 143.533 39.661C143.425 38.851 143.335 38.176 143.263 37.636C143.209 37.096 143.182 36.601 143.182 36.151C143.182 35.143 143.479 34.288 144.073 33.586C144.667 32.866 145.477 32.506 146.503 32.506C147.547 32.506 148.339 32.83 148.879 33.478C149.419 34.108 149.689 34.981 149.689 36.097C149.689 36.817 149.581 37.573 149.365 38.365C149.167 39.157 148.969 39.904 148.771 40.606L147.259 45.817C146.917 47.005 146.575 48.076 146.233 49.03C145.909 49.966 145.468 50.713 144.91 51.271C144.352 51.811 143.56 52.081 142.534 52.081C141.292 52.081 140.32 51.694 139.618 50.92C138.916 50.146 138.376 48.877 137.998 47.113H137.809C137.449 48.877 136.972 50.146 136.378 50.92C135.784 51.694 134.884 52.081 133.678 52.081Z" fill="black"/>
<defs>
<filter id="filter0_d_1_97" x="0" y="0" width="179" height="86.7498" filterUnits="userSpaceOnUse" color-interpolation-filters="sRGB">
<feFlood flood-opacity="0" result="BackgroundImageFix"/>
<feColorMatrix in="SourceAlpha" type="matrix" values="0 0 0 0 0 0 0 0 0 0 0 0 0 0 0 0 0 0 127 0" result="hardAlpha"/>
<feOffset dy="6"/>
<feComposite in2="hardAlpha" operator="out"/>
<feColorMatrix type="matrix" values="0 0 0 0 0 0 0 0 0 0 0 0 0 0 0 0 0 0 1 0"/>
<feBlend mode="normal" in2="BackgroundImageFix" result="effect1_dropShadow_1_97"/>
<feBlend mode="normal" in="SourceGraphic" in2="effect1_dropShadow_1_97" result="shape"/>
</filter>
</defs>
</svg>
