<svg width="659" height="36" viewBox="0 0 659 36" fill="none" xmlns="http://www.w3.org/2000/svg">
<path d="M10.725 14.6C10.2583 14.8833 9.68333 15.2 9 15.55C8.33333 15.8833 7.54167 16.175 6.625 16.425C5.70833 16.675 4.65 16.8 3.45 16.8C2.45 16.8 1.7 16.525 1.2 15.975C0.7 15.4083 0.45 14.7 0.45 13.85C0.45 12.9833 0.7 12.2667 1.2 11.7C1.7 11.1333 2.45 10.85 3.45 10.85H10.8C12.0333 10.85 12.975 11.1417 13.625 11.725C14.2917 12.3083 14.625 13.2083 14.625 14.425C14.625 15.0417 14.525 15.5833 14.325 16.05C14.125 16.5167 13.8583 16.9583 13.525 17.375C13.1917 17.7917 12.8333 18.225 12.45 18.675C12.0833 19.125 11.725 19.625 11.375 20.175C10.8583 20.9917 10.4417 21.9417 10.125 23.025C9.80833 24.1083 9.58333 25.2333 9.45 26.4C9.35 27.2833 9.06667 27.9583 8.6 28.425C8.15 28.875 7.48333 29.1083 6.6 29.125C5.7 29.1417 4.96667 28.8917 4.4 28.375C3.83333 27.8583 3.55833 27.1333 3.575 26.2C3.60833 24.5833 3.85833 23.1 4.325 21.75C4.80833 20.4 5.45833 19.3083 6.275 18.475C6.75833 17.975 7.275 17.525 7.825 17.125C8.39167 16.725 8.925 16.3833 9.425 16.1C9.925 15.8 10.3333 15.575 10.65 15.425C10.9667 15.275 11.125 15.2 11.125 15.2L10.725 14.6ZM18.3385 29.1C17.3718 29.1 16.6385 28.825 16.1385 28.275C15.6551 27.7083 15.4135 27.0417 15.4135 26.275C15.4135 25.7917 15.5385 25.2917 15.7885 24.775C16.0385 24.2583 16.4551 23.8167 17.0385 23.45C17.3718 23.2333 17.7968 23.0667 18.3135 22.95C18.8468 22.8167 19.3218 22.7083 19.7385 22.625C18.8218 22.3417 18.1051 22.0083 17.5885 21.625C17.0718 21.2417 16.6468 20.85 16.3135 20.45C15.8468 19.8167 15.6301 19.1333 15.6635 18.4C15.7135 17.65 16.0551 17.0083 16.6885 16.475C17.1385 16.0917 17.6301 15.8917 18.1635 15.875C18.7135 15.8583 19.2385 16 19.7385 16.3C20.2385 16.6 20.6468 17.0417 20.9635 17.625C21.3301 18.275 21.5885 18.8417 21.7385 19.325C21.9051 19.7917 22.0885 20.2167 22.2885 20.6C22.5051 20.9833 22.8468 21.3667 23.3135 21.75C23.5135 21.6833 23.6885 21.5917 23.8385 21.475C23.9885 21.3583 24.1551 21.125 24.3385 20.775C23.9218 20.675 23.5468 20.425 23.2135 20.025C22.8801 19.625 22.7135 19.0667 22.7135 18.35C22.7135 17.5833 22.9468 16.975 23.4135 16.525C23.8801 16.0583 24.5718 15.825 25.4885 15.825C26.2385 15.825 26.8468 16.075 27.3135 16.575C27.7801 17.0583 28.0135 17.6667 28.0135 18.4C28.0135 19.1833 27.8551 19.8083 27.5385 20.275C27.2385 20.725 26.8301 21.1167 26.3135 21.45C26.0468 21.65 25.7218 21.825 25.3385 21.975C24.9551 22.1083 24.5468 22.225 24.1135 22.325C24.7968 22.425 25.4468 22.6167 26.0635 22.9C26.6801 23.1833 27.2468 23.5917 27.7635 24.125C28.1468 24.5083 28.4051 24.975 28.5385 25.525C28.6885 26.0583 28.6885 26.5917 28.5385 27.125C28.4051 27.6583 28.1135 28.1083 27.6635 28.475C27.1968 28.8417 26.6801 29.0333 26.1135 29.05C25.5468 29.0667 25.0051 28.9333 24.4885 28.65C23.9885 28.35 23.5885 27.925 23.2885 27.375C22.9885 26.825 22.7551 26.2833 22.5885 25.75C22.4218 25.2 22.2301 24.7 22.0135 24.25C21.8135 23.7833 21.5135 23.4083 21.1135 23.125C20.8468 23.275 20.6885 23.4583 20.6385 23.675C20.5885 23.875 20.5968 24.1083 20.6635 24.375C20.7468 24.625 20.8301 24.9 20.9135 25.2C21.0135 25.4833 21.0635 25.7833 21.0635 26.1C21.0635 26.6 20.9635 27.0833 20.7635 27.55C20.5635 28 20.2551 28.375 19.8385 28.675C19.4385 28.9583 18.9385 29.1 18.3385 29.1ZM35.9039 28.95C35.0872 28.95 34.3039 28.875 33.5539 28.725C32.8206 28.575 32.1706 28.2917 31.6039 27.875C31.0539 27.4417 30.6122 26.825 30.2789 26.025C29.9622 25.2083 29.8039 24.1417 29.8039 22.825C29.8039 21.6417 29.9622 20.625 30.2789 19.775C30.5956 18.925 30.9706 18.25 31.4039 17.75C31.8539 17.25 32.2622 16.9417 32.6289 16.825L32.5039 16.35H32.0789C31.3122 16.35 30.7039 16.1083 30.2539 15.625C29.8206 15.125 29.5956 14.45 29.5789 13.6C29.5622 12.7667 29.7789 12.1 30.2289 11.6C30.6956 11.1 31.3122 10.85 32.0789 10.85H41.0539C42.8372 10.85 43.7289 11.6833 43.7289 13.35C43.7289 14.1 43.5122 14.7 43.0789 15.15C42.6456 15.6 41.9706 15.825 41.0539 15.825H35.8789C35.2622 15.825 34.9539 16.1833 34.9539 16.9V18.775C35.7872 18.5917 36.6539 18.375 37.5539 18.125C38.4706 17.875 39.3372 17.75 40.1539 17.75C40.9372 17.75 41.5206 17.925 41.9039 18.275C42.3039 18.6083 42.5039 19.0667 42.5039 19.65C42.5039 20.25 42.3039 20.725 41.9039 21.075C41.5206 21.4083 40.9372 21.5833 40.1539 21.6C39.3372 21.6167 38.4706 21.5 37.5539 21.25C36.6372 21 35.7622 20.7833 34.9289 20.6V23.875C34.9289 24.1917 35.0122 24.4167 35.1789 24.55C35.3622 24.6667 35.6456 24.6167 36.0289 24.4C36.8622 23.9167 37.6789 23.5333 38.4789 23.25C39.2789 22.95 40.0622 22.8 40.8289 22.8C41.9122 22.8 42.7289 23.0833 43.2789 23.65C43.8456 24.2167 44.1289 24.9583 44.1289 25.875C44.1289 26.8583 43.8289 27.6167 43.2289 28.15C42.6456 28.6833 41.6956 28.95 40.3789 28.95H35.9039ZM49.4854 29C46.452 29 44.9354 26.7667 44.9354 22.3C44.9354 20.3667 45.3104 18.825 46.0604 17.675C46.8104 16.5083 47.9354 15.925 49.4354 15.925C50.252 15.925 50.9104 16.0917 51.4104 16.425C51.927 16.7583 52.327 17.2167 52.6104 17.8C52.9104 18.3667 53.127 19.025 53.2604 19.775L53.3354 19.75V12.175C53.3354 11.4917 53.5354 10.9167 53.9354 10.45C54.352 9.96667 54.952 9.725 55.7354 9.725C56.502 9.725 57.0687 9.96667 57.4354 10.45C57.8187 10.9167 58.0104 11.5083 58.0104 12.225V23.475C58.0104 24.0417 58.052 24.5667 58.1354 25.05C58.2354 25.5167 58.3104 25.9833 58.3604 26.45C58.4104 27.0833 58.277 27.6333 57.9604 28.1C57.6604 28.55 57.1187 28.8417 56.3354 28.975C55.3187 29.1417 54.5604 28.9667 54.0604 28.45C53.577 27.9333 53.3354 27.1667 53.3354 26.15V25.225H52.8604C52.8604 26.4417 52.552 27.375 51.9354 28.025C51.3354 28.675 50.5187 29 49.4854 29ZM49.1104 22.075C49.1104 22.5917 49.2687 22.975 49.5854 23.225C49.902 23.475 50.4687 23.6 51.2854 23.6C52.1187 23.6 52.6937 23.475 53.0104 23.225C53.327 22.975 53.4854 22.5917 53.4854 22.075C53.4854 21.5417 53.327 21.1583 53.0104 20.925C52.7104 20.675 52.1437 20.55 51.3104 20.55C50.477 20.55 49.902 20.675 49.5854 20.925C49.2687 21.1583 49.1104 21.5417 49.1104 22.075ZM65.2367 17.725L68.9867 12.425C69.6534 11.475 70.3784 10.9417 71.1617 10.825C71.9451 10.6917 72.6534 10.875 73.2867 11.375C73.7034 11.6917 73.9784 12.1167 74.1117 12.65C74.2451 13.1833 74.2034 13.75 73.9867 14.35C73.7701 14.95 73.3367 15.5167 72.6867 16.05L68.5117 19.425V19.95C69.0451 19.95 69.6701 20.0167 70.3867 20.15C71.1034 20.2833 71.7534 20.5833 72.3367 21.05C72.8034 21.4 73.2034 21.8 73.5367 22.25C73.8867 22.7 74.1617 23.2583 74.3617 23.925C74.5617 24.575 74.6617 25.4 74.6617 26.4C74.6617 27.2167 74.4367 27.875 73.9867 28.375C73.5534 28.8583 72.9034 29.1 72.0367 29.1C71.1701 29.1 70.5034 28.8583 70.0367 28.375C69.5867 27.875 69.3617 27.2167 69.3617 26.4C69.3617 25.4833 69.2117 24.7583 68.9117 24.225C68.6284 23.675 68.2451 23.275 67.7617 23.025C67.2784 22.775 66.7534 22.65 66.1867 22.65H64.9617V26.575C64.9617 27.2917 64.7117 27.8833 64.2117 28.35C63.7284 28.8167 63.1034 29.05 62.3367 29.05C61.5701 29.05 60.9367 28.8167 60.4367 28.35C59.9534 27.8833 59.7117 27.2917 59.7117 26.575V13.35C59.7117 12.6167 59.9534 12 60.4367 11.5C60.9201 11 61.5534 10.75 62.3367 10.75C63.1701 10.75 63.8117 11 64.2617 11.5C64.7284 11.9833 64.9617 12.5833 64.9617 13.3V17.675L65.2367 17.725ZM82.925 29.075C82.0417 29.075 81.2417 28.875 80.525 28.475C79.825 28.075 79.275 27.5083 78.875 26.775C78.475 26.025 78.275 25.15 78.275 24.15V19.75L77.35 19.875C76.85 19.9417 76.4083 19.7667 76.025 19.35C75.6417 18.9333 75.45 18.4083 75.45 17.775C75.45 17.1417 75.6417 16.625 76.025 16.225C76.4083 15.8083 76.85 15.6333 77.35 15.7L78.275 15.825L78.25 14.125C78.2333 13.4583 78.425 12.9333 78.825 12.55C79.225 12.15 79.8083 11.95 80.575 11.95C81.3417 11.95 81.9333 12.15 82.35 12.55C82.7667 12.9333 82.9583 13.4583 82.925 14.125L82.875 15.825L84.2 15.65C85.1 15.5167 85.7833 15.6833 86.25 16.15C86.7167 16.6 86.95 17.1417 86.95 17.775C86.95 18.4083 86.7167 18.9583 86.25 19.425C85.8 19.875 85.1417 20.0417 84.275 19.925L82.875 19.75V23.475C82.875 23.6917 82.95 23.8917 83.1 24.075C83.25 24.2417 83.4333 24.2917 83.65 24.225C83.9 24.1583 84.1583 24.0167 84.425 23.8C84.7083 23.5833 85.0667 23.475 85.5 23.475C86.15 23.475 86.65 23.7083 87 24.175C87.35 24.6417 87.525 25.2167 87.525 25.9C87.525 26.4333 87.3333 26.95 86.95 27.45C86.5833 27.9333 86.0583 28.325 85.375 28.625C84.6917 28.925 83.875 29.075 82.925 29.075ZM88.2756 13.025C88.2756 12.325 88.5006 11.75 88.9506 11.3C89.4006 10.85 90.0173 10.625 90.8006 10.625C91.6339 10.625 92.2506 10.85 92.6506 11.3C93.0673 11.7333 93.2756 12.3 93.2756 13C93.2756 13.7 93.0673 14.2667 92.6506 14.7C92.2506 15.1167 91.6339 15.325 90.8006 15.325C89.9839 15.325 89.3589 15.1167 88.9256 14.7C88.4923 14.2667 88.2756 13.7083 88.2756 13.025ZM89.6006 34.2C88.7839 34.2 88.0756 33.95 87.4756 33.45C86.8923 32.95 86.6006 32.2667 86.6006 31.4C86.6006 30.5667 86.8339 29.925 87.3006 29.475C87.7673 29.0417 88.3256 28.825 88.9756 28.825C89.4589 28.825 89.8589 28.9 90.1756 29.05C90.5089 29.2 90.7923 29.3667 91.0256 29.55C91.3923 29.8167 91.6589 29.9583 91.8256 29.975C92.0089 29.9917 92.1423 29.9417 92.2256 29.825C92.3923 29.575 92.2256 29.25 91.7256 28.85L90.2256 27.675C89.5923 27.175 89.1423 26.6083 88.8756 25.975C88.6089 25.325 88.4756 24.4667 88.4756 23.4L88.5006 18.125C88.5006 17.425 88.6923 16.8667 89.0756 16.45C89.4589 16.0333 90.0256 15.825 90.7756 15.825C91.5589 15.825 92.1423 16.0333 92.5256 16.45C92.9256 16.8667 93.1256 17.4167 93.1256 18.1L93.1006 30.15C93.1006 31.55 92.7673 32.575 92.1006 33.225C91.4339 33.875 90.6006 34.2 89.6006 34.2ZM97.9977 18.85C97.9977 18.85 98.331 18.7583 98.9977 18.575C99.681 18.3917 100.581 18.3 101.698 18.3C102.898 18.3 103.973 18.425 104.923 18.675C105.889 18.9083 106.656 19.3667 107.223 20.05C107.789 20.7333 108.073 21.725 108.073 23.025C108.073 24.8583 107.564 26.3167 106.548 27.4C105.531 28.4667 103.898 29 101.648 29C100.148 29 98.8477 28.725 97.7477 28.175C96.6643 27.625 95.8227 26.7417 95.2227 25.525C94.6393 24.2917 94.3477 22.6667 94.3477 20.65C94.3477 18.6667 94.6227 16.925 95.1727 15.425C95.7227 13.925 96.5643 12.7583 97.6977 11.925C98.831 11.075 100.273 10.65 102.023 10.65C103.956 10.65 105.364 10.925 106.248 11.475C107.148 12.0083 107.598 12.7667 107.598 13.75C107.598 14.5333 107.389 15.1583 106.973 15.625C106.573 16.0917 106.039 16.325 105.373 16.325C104.806 16.325 104.206 16.25 103.573 16.1C102.939 15.95 102.281 15.875 101.598 15.875C100.764 15.875 100.081 16.025 99.5477 16.325C99.0143 16.625 98.6227 17 98.3727 17.45C98.1227 17.9 97.9977 18.3667 97.9977 18.85ZM98.2727 21.9C98.2727 22.3667 98.4977 22.7 98.9477 22.9C99.4143 23.1 100.281 23.2 101.548 23.2C102.831 23.2 103.689 23.1 104.123 22.9C104.573 22.7 104.798 22.3667 104.798 21.9C104.798 21.45 104.573 21.1333 104.123 20.95C103.689 20.7667 102.831 20.675 101.548 20.675C100.281 20.675 99.4143 20.7667 98.9477 20.95C98.4977 21.1333 98.2727 21.45 98.2727 21.9ZM111.694 29C110.96 29 110.369 28.7833 109.919 28.35C109.485 27.9 109.269 27.35 109.269 26.7V18.425C109.269 17.725 109.477 17.1333 109.894 16.65C110.31 16.1667 110.91 15.925 111.694 15.925C112.46 15.925 113.044 16.1667 113.444 16.65C113.844 17.1333 114.044 17.7417 114.044 18.475V19.725H114.494C114.494 18.775 114.66 18.025 114.994 17.475C115.344 16.925 115.785 16.5333 116.319 16.3C116.852 16.05 117.385 15.925 117.919 15.925C119.202 15.925 120.144 16.3917 120.744 17.325C121.344 18.2417 121.644 19.55 121.644 21.25V26.7C121.644 27.35 121.427 27.9 120.994 28.35C120.56 28.7833 119.977 29 119.244 29C118.494 29 117.894 28.7833 117.444 28.35C117.01 27.9 116.794 27.35 116.794 26.7V22.275C116.794 21.675 116.677 21.2083 116.444 20.875C116.227 20.5417 115.902 20.375 115.469 20.375C114.969 20.375 114.602 20.5583 114.369 20.925C114.152 21.2917 114.044 21.7583 114.044 22.325V26.7C114.044 27.35 113.835 27.9 113.419 28.35C113.002 28.7833 112.427 29 111.694 29ZM123.566 23.75C124.182 22.9333 124.866 22.2333 125.616 21.65C126.366 21.05 127.199 20.4667 128.116 19.9C127.699 19.4333 127.241 19.0167 126.741 18.65C126.257 18.2833 125.766 17.9083 125.266 17.525C124.782 17.125 124.316 16.6583 123.866 16.125C123.432 15.575 123.132 15 122.966 14.4C122.799 13.7833 122.799 13.1917 122.966 12.625C123.149 12.0583 123.516 11.5917 124.066 11.225C124.666 10.8083 125.274 10.6583 125.891 10.775C126.507 10.875 127.091 11.1667 127.641 11.65C128.191 12.1167 128.666 12.7083 129.066 13.425C129.432 14.0583 129.791 14.6667 130.141 15.25C130.491 15.8167 130.832 16.3417 131.166 16.825C131.616 16.3917 131.941 15.9833 132.141 15.6C132.341 15.2 132.516 14.7667 132.666 14.3C132.832 13.8333 133.066 13.2917 133.366 12.675C133.616 12.1417 133.957 11.7167 134.391 11.4C134.841 11.0667 135.341 10.875 135.891 10.825C136.441 10.775 136.982 10.9167 137.516 11.25C138.049 11.5667 138.399 12.0083 138.566 12.575C138.749 13.125 138.757 13.7167 138.591 14.35C138.441 14.9833 138.132 15.5833 137.666 16.15C137.132 16.7833 136.482 17.35 135.716 17.85C134.966 18.3333 134.174 18.7667 133.341 19.15C134.174 19.9167 134.982 20.6417 135.766 21.325C136.549 22.0083 137.257 22.8 137.891 23.7C138.524 24.6 138.816 25.5083 138.766 26.425C138.732 27.3417 138.324 28.0583 137.541 28.575C136.724 29.0917 135.882 29.1917 135.016 28.875C134.149 28.5583 133.391 27.9167 132.741 26.95C132.107 25.9833 131.582 25.15 131.166 24.45C130.766 23.7333 130.374 23.0583 129.991 22.425C129.857 22.7583 129.741 23.1417 129.641 23.575C129.557 24.0083 129.432 24.5083 129.266 25.075C129.116 25.6417 128.857 26.3 128.491 27.05C128.191 27.7 127.774 28.2 127.241 28.55C126.707 28.8833 126.132 29.0333 125.516 29C124.899 28.9833 124.307 28.7667 123.741 28.35C123.274 27.9833 122.966 27.5417 122.816 27.025C122.682 26.4917 122.682 25.9417 122.816 25.375C122.949 24.7917 123.199 24.25 123.566 23.75ZM144.108 29C143.358 29 142.658 28.9167 142.008 28.75C141.375 28.5833 140.858 28.2667 140.458 27.8C140.058 27.3333 139.858 26.6417 139.858 25.725C139.858 24.9583 140.033 24.3167 140.383 23.8C140.733 23.2833 141.167 22.8417 141.683 22.475C142.2 22.1083 142.7 21.775 143.183 21.475L147.058 19.05C147.692 18.65 148.108 18.3167 148.308 18.05C148.508 17.7833 148.608 17.4917 148.608 17.175C148.608 16.8917 148.517 16.65 148.333 16.45C148.167 16.25 147.767 16.15 147.133 16.15C146.517 16.15 145.867 16.2167 145.183 16.35C144.5 16.4833 143.842 16.55 143.208 16.55C142.292 16.55 141.542 16.3333 140.958 15.9C140.392 15.45 140.108 14.7917 140.108 13.925C140.108 13.0917 140.408 12.4417 141.008 11.975C141.608 11.4917 142.417 11.15 143.433 10.95C144.467 10.75 145.617 10.65 146.883 10.65C148.933 10.65 150.517 11.0333 151.633 11.8C152.767 12.5667 153.333 13.7583 153.333 15.375C153.333 16.4917 153.008 17.4417 152.358 18.225C151.725 19.0083 150.842 19.775 149.708 20.525L145.083 23.575H150.808C151.742 23.575 152.475 23.8083 153.008 24.275C153.558 24.725 153.833 25.4 153.833 26.3C153.833 27.2 153.558 27.875 153.008 28.325C152.475 28.775 151.742 29 150.808 29H144.108ZM157.861 29C157.127 29 156.536 28.7833 156.086 28.35C155.652 27.9 155.436 27.35 155.436 26.7V18.425C155.436 17.725 155.644 17.1333 156.061 16.65C156.477 16.1667 157.077 15.925 157.861 15.925C158.627 15.925 159.211 16.1667 159.611 16.65C160.011 17.1333 160.211 17.7417 160.211 18.475V19.725H160.661C160.661 18.775 160.827 18.025 161.161 17.475C161.511 16.925 161.952 16.5333 162.486 16.3C163.019 16.05 163.552 15.925 164.086 15.925C165.369 15.925 166.311 16.3917 166.911 17.325C167.511 18.2417 167.811 19.55 167.811 21.25V26.7C167.811 27.35 167.594 27.9 167.161 28.35C166.727 28.7833 166.144 29 165.411 29C164.661 29 164.061 28.7833 163.611 28.35C163.177 27.9 162.961 27.35 162.961 26.7V22.275C162.961 21.675 162.844 21.2083 162.611 20.875C162.394 20.5417 162.069 20.375 161.636 20.375C161.136 20.375 160.769 20.5583 160.536 20.925C160.319 21.2917 160.211 21.7583 160.211 22.325V26.7C160.211 27.35 160.002 27.9 159.586 28.35C159.169 28.7833 158.594 29 157.861 29ZM175.608 29C174.524 29 173.599 28.6833 172.833 28.05C172.066 27.4167 171.433 26.3667 170.933 24.9L168.958 19.2C168.691 18.45 168.691 17.7583 168.958 17.125C169.241 16.4917 169.758 16.0917 170.508 15.925C171.174 15.775 171.758 15.8417 172.258 16.125C172.774 16.4083 173.141 16.8833 173.358 17.55L175.308 23.275C175.541 23.9417 175.824 24.4333 176.158 24.75C176.508 25.0667 176.933 25.1417 177.433 24.975C177.899 24.7917 178.149 24.4917 178.183 24.075C178.233 23.6417 178.141 23.1417 177.908 22.575C177.708 22.0583 177.441 21.6167 177.108 21.25C176.774 20.8833 176.474 20.5 176.208 20.1C175.941 19.7 175.808 19.2 175.808 18.6C175.808 17.7333 176.083 17.0583 176.633 16.575C177.199 16.075 177.941 15.8417 178.858 15.875C179.641 15.8917 180.283 16.1667 180.783 16.7C181.283 17.2333 181.533 17.9083 181.533 18.725C181.533 19.175 181.458 19.6583 181.308 20.175C181.158 20.6917 180.991 21.2333 180.808 21.8L179.808 24.95C179.541 25.7833 179.241 26.5083 178.908 27.125C178.591 27.725 178.174 28.1917 177.658 28.525C177.158 28.8417 176.474 29 175.608 29ZM186.347 29C185.03 29 183.964 28.4417 183.147 27.325C182.347 26.1917 181.947 24.5167 181.947 22.3C181.947 20.3667 182.33 18.825 183.097 17.675C183.864 16.5083 184.98 15.925 186.447 15.925C187.314 15.925 188.005 16.1333 188.522 16.55C189.055 16.95 189.455 17.4667 189.722 18.1C190.005 18.7167 190.189 19.35 190.272 20L190.347 19.975V18.425C190.347 17.7083 190.547 17.1167 190.947 16.65C191.364 16.1667 191.955 15.925 192.722 15.925C193.505 15.925 194.08 16.1667 194.447 16.65C194.83 17.1167 195.022 17.6917 195.022 18.375V31.775C195.022 32.4583 194.822 33.025 194.422 33.475C194.022 33.925 193.455 34.15 192.722 34.15C192.005 34.15 191.43 33.925 190.997 33.475C190.564 33.025 190.347 32.4583 190.347 31.775V25.95H189.897C189.747 26.85 189.364 27.5833 188.747 28.15C188.147 28.7167 187.347 29 186.347 29ZM186.097 22.25C186.097 22.7667 186.255 23.15 186.572 23.4C186.889 23.65 187.455 23.775 188.272 23.775C188.905 23.775 189.38 23.7083 189.697 23.575C190.014 23.425 190.23 23.2167 190.347 22.95C190.43 22.7333 190.472 22.5 190.472 22.25C190.472 22.1167 190.464 21.9917 190.447 21.875C190.43 21.7417 190.397 21.625 190.347 21.525C190.23 21.2417 190.014 21.0417 189.697 20.925C189.397 20.7917 188.93 20.725 188.297 20.725C187.464 20.725 186.889 20.85 186.572 21.1C186.255 21.3333 186.097 21.7167 186.097 22.25ZM201.58 23.225V26.35C201.58 27.2167 201.347 27.875 200.88 28.325C200.43 28.775 199.83 29 199.08 29H199.055C198.239 29 197.589 28.775 197.105 28.325C196.639 27.875 196.405 27.2167 196.405 26.35V22.825C196.405 21.0583 196.672 19.7167 197.205 18.8C197.739 17.8833 198.414 17.225 199.23 16.825L199.105 16.35H198.68C197.914 16.35 197.305 16.1083 196.855 15.625C196.422 15.125 196.197 14.45 196.18 13.6C196.164 12.7667 196.38 12.0917 196.83 11.575C197.297 11.0583 197.914 10.8 198.68 10.8H205.255C206.939 10.8 208.305 11.3083 209.355 12.325C210.422 13.325 210.955 14.9083 210.955 17.075C210.955 18.6417 210.68 19.875 210.13 20.775C209.58 21.675 208.855 22.3083 207.955 22.675C207.055 23.0417 206.08 23.225 205.03 23.225H201.58ZM201.255 18.4C201.255 18.7667 201.322 19.0083 201.455 19.125C201.605 19.2417 201.864 19.3 202.23 19.3H204.555C205.255 19.3 205.764 19.1417 206.08 18.825C206.397 18.4917 206.555 18.025 206.555 17.425C206.555 16.825 206.397 16.3667 206.08 16.05C205.764 15.7333 205.255 15.575 204.555 15.575H202.23C201.864 15.575 201.605 15.625 201.455 15.725C201.322 15.825 201.255 16.0667 201.255 16.45V18.4ZM218.478 29.15C217.145 29.15 215.986 28.7667 215.003 28C214.02 27.2167 213.261 26.15 212.728 24.8C212.195 23.4333 211.928 21.8917 211.928 20.175C211.928 18.575 212.161 17.175 212.628 15.975C213.111 14.7583 213.761 13.75 214.578 12.95C215.411 12.1333 216.37 11.525 217.453 11.125C218.553 10.7083 219.711 10.5 220.928 10.5C223.161 10.5 224.811 10.8167 225.878 11.45C226.961 12.0667 227.503 12.8667 227.503 13.85C227.503 14.6167 227.303 15.2917 226.903 15.875C226.52 16.4583 225.936 16.75 225.153 16.75C224.62 16.75 224.111 16.7 223.628 16.6C223.161 16.5 222.678 16.4083 222.178 16.325C221.695 16.225 221.153 16.175 220.553 16.175C219.236 16.175 218.286 16.55 217.703 17.3C217.136 18.05 216.853 18.9917 216.853 20.125C216.853 21.0417 217.036 21.7917 217.403 22.375C217.786 22.9583 218.286 23.3917 218.903 23.675C219.536 23.9417 220.236 24.075 221.003 24.075C221.636 24.075 222.228 23.9333 222.778 23.65C223.328 23.3667 223.678 22.8417 223.828 22.075H222.603C222.02 22.075 221.57 21.9 221.253 21.55C220.936 21.1833 220.778 20.7167 220.778 20.15C220.778 19.5833 220.936 19.125 221.253 18.775C221.57 18.425 222.02 18.25 222.603 18.25H225.603C226.686 18.25 227.445 18.5417 227.878 19.125C228.328 19.6917 228.553 20.5417 228.553 21.675V26.35C228.553 27.2167 228.32 27.875 227.853 28.325C227.386 28.775 226.77 29 226.003 29C225.186 29 224.545 28.775 224.078 28.325C223.611 27.875 223.378 27.2167 223.378 26.35V24.8H222.928C222.928 26.3167 222.545 27.425 221.778 28.125C221.011 28.8083 219.986 29.15 218.703 29.15H218.478ZM233.379 29C232.146 29 231.179 28.6667 230.479 28C229.796 27.3333 229.454 26.4 229.454 25.2C229.454 24 229.854 23.1333 230.654 22.6C231.454 22.05 232.479 21.775 233.729 21.775C234.462 21.775 235.129 21.825 235.729 21.925C236.329 22.025 236.871 22.1667 237.354 22.35H237.429V21.975C237.429 21.5917 237.287 21.2917 237.004 21.075C236.721 20.8417 236.362 20.7333 235.929 20.75C235.512 20.75 235.154 20.775 234.854 20.825C234.571 20.875 234.212 20.9583 233.779 21.075C232.979 21.275 232.287 21.2583 231.704 21.025C231.121 20.7917 230.721 20.3333 230.504 19.65C230.304 18.9333 230.346 18.3333 230.629 17.85C230.929 17.3667 231.379 16.9917 231.979 16.725C232.496 16.475 233.071 16.2667 233.704 16.1C234.354 15.9333 235.054 15.85 235.804 15.85C237.987 15.85 239.587 16.3833 240.604 17.45C241.637 18.5 242.154 20.2667 242.154 22.75V26.625C242.154 27.3083 241.946 27.875 241.529 28.325C241.112 28.775 240.537 29 239.804 29C239.004 29 238.404 28.775 238.004 28.325C237.621 27.875 237.429 27.325 237.429 26.675V26.1H236.929C236.929 26.5333 236.846 26.975 236.679 27.425C236.529 27.875 236.204 28.25 235.704 28.55C235.221 28.85 234.446 29 233.379 29ZM233.629 23.525C233.629 23.8083 233.729 24.0083 233.929 24.125C234.146 24.2417 234.604 24.3 235.304 24.3C235.937 24.3 236.379 24.2417 236.629 24.125C236.879 24.0083 237.004 23.8083 237.004 23.525C237.004 23.2583 236.879 23.075 236.629 22.975C236.379 22.8583 235.937 22.8 235.304 22.8C234.604 22.8 234.146 22.8583 233.929 22.975C233.729 23.075 233.629 23.2583 233.629 23.525ZM247.664 34.15C246.547 34.15 245.63 33.9667 244.914 33.6C244.214 33.2333 243.664 32.75 243.264 32.15C242.93 31.6333 242.739 31.0917 242.689 30.525C242.655 29.9583 242.764 29.4333 243.014 28.95C243.264 28.45 243.639 28.0667 244.139 27.8C244.655 27.5167 245.172 27.4083 245.689 27.475C246.205 27.525 246.68 27.7167 247.114 28.05C247.547 28.3667 247.88 28.7833 248.114 29.3C248.364 29.85 248.614 30.25 248.864 30.5C249.13 30.7667 249.472 30.825 249.889 30.675C250.289 30.5417 250.43 30.175 250.314 29.575C250.214 28.975 249.997 28.2667 249.664 27.45H248.739C248.022 27.45 247.305 27.1917 246.589 26.675C245.872 26.1583 245.272 25.3417 244.789 24.225L242.739 19.475C242.422 18.725 242.389 18.0333 242.639 17.4C242.905 16.7667 243.38 16.3083 244.064 16.025C244.697 15.7417 245.322 15.725 245.939 15.975C246.555 16.225 247.039 16.7583 247.389 17.575L249.289 22C249.605 22.7167 249.947 23.2333 250.314 23.55C250.697 23.8667 251.097 23.9167 251.514 23.7C251.88 23.5 252.08 23.225 252.114 22.875C252.147 22.5083 251.972 22.0667 251.589 21.55C251.422 21.3167 251.222 21.0583 250.989 20.775C250.772 20.4917 250.572 20.1667 250.389 19.8C250.222 19.4167 250.139 18.9917 250.139 18.525C250.139 17.7417 250.405 17.1 250.939 16.6C251.472 16.0833 252.172 15.825 253.039 15.825C253.822 15.825 254.447 16.075 254.914 16.575C255.397 17.075 255.639 17.725 255.639 18.525C255.639 19.0917 255.572 19.7167 255.439 20.4C255.305 21.0833 255.155 21.7167 254.989 22.3L253.189 28.875C252.922 29.8583 252.572 30.75 252.139 31.55C251.705 32.35 251.13 32.9833 250.414 33.45C249.697 33.9167 248.78 34.15 247.664 34.15ZM256.781 13.225C256.781 12.4583 257.015 11.8667 257.481 11.45C257.965 11.0167 258.581 10.8 259.331 10.8C260.115 10.8 260.74 11.0167 261.206 11.45C261.673 11.8667 261.906 12.4583 261.906 13.225V23.875C261.906 24.1917 261.99 24.4167 262.156 24.55C262.323 24.6667 262.598 24.6167 262.981 24.4C263.815 23.9167 264.556 23.5333 265.206 23.25C265.856 22.95 266.573 22.8 267.356 22.8C268.44 22.8 269.256 23.0833 269.806 23.65C270.356 24.2167 270.631 24.9583 270.631 25.875C270.631 26.8583 270.331 27.6167 269.731 28.15C269.148 28.6833 268.206 28.95 266.906 28.95H261.756C260.656 28.95 259.74 28.825 259.006 28.575C258.273 28.3083 257.715 27.8333 257.331 27.15C256.965 26.4667 256.781 25.475 256.781 24.175V13.225ZM271.425 13.025C271.425 12.3083 271.641 11.7333 272.075 11.3C272.525 10.85 273.141 10.625 273.925 10.625C274.758 10.625 275.375 10.8417 275.775 11.275C276.191 11.7083 276.4 12.2833 276.4 13C276.4 13.7 276.191 14.2667 275.775 14.7C275.375 15.1167 274.758 15.325 273.925 15.325C273.108 15.325 272.483 15.1167 272.05 14.7C271.633 14.2667 271.425 13.7083 271.425 13.025ZM273.925 29C273.141 29 272.558 28.7833 272.175 28.35C271.791 27.9167 271.6 27.375 271.6 26.725V18.175C271.6 17.4583 271.791 16.8917 272.175 16.475C272.558 16.0583 273.141 15.85 273.925 15.85C274.708 15.85 275.291 16.0583 275.675 16.475C276.075 16.8917 276.275 17.4417 276.275 18.125V26.725C276.275 27.375 276.066 27.9167 275.65 28.35C275.25 28.7833 274.675 29 273.925 29ZM288.353 29C287.519 29 286.886 28.7667 286.453 28.3C286.019 27.8167 285.803 27.2167 285.803 26.5V23.85H285.428C285.344 24.2167 285.161 24.5917 284.878 24.975C284.594 25.3583 284.186 25.675 283.653 25.925C283.119 26.175 282.436 26.3 281.603 26.3C280.936 26.3 280.294 26.175 279.678 25.925C279.078 25.6583 278.586 25.2667 278.203 24.75C277.836 24.2167 277.653 23.5583 277.653 22.775C277.653 22.1583 277.778 21.5667 278.028 21C278.294 20.4167 278.711 19.7 279.278 18.85L282.478 14.05C283.244 12.9167 284.003 12.0667 284.753 11.5C285.519 10.9333 286.369 10.65 287.303 10.65C287.953 10.65 288.544 10.7667 289.078 11C289.628 11.2167 290.069 11.6 290.403 12.15C290.736 12.7 290.903 13.45 290.903 14.4V20.825C290.903 20.825 290.994 20.8167 291.178 20.8C291.361 20.7667 291.561 20.75 291.778 20.75C292.344 20.75 292.844 20.9167 293.278 21.25C293.711 21.5667 293.928 22.1417 293.928 22.975C293.928 23.7917 293.711 24.3667 293.278 24.7C292.844 25.0333 292.344 25.2 291.778 25.2C291.561 25.2 291.361 25.1833 291.178 25.15C290.994 25.1167 290.903 25.1 290.903 25.1V26.5C290.903 27.2167 290.686 27.8167 290.253 28.3C289.836 28.7667 289.203 29 288.353 29ZM282.628 20.45C282.511 20.6167 282.494 20.7583 282.578 20.875C282.661 20.9917 282.786 21.05 282.953 21.05H285.803V16.05H285.528L282.628 20.45ZM294.887 22.5C294.887 21.1833 295.145 20.025 295.662 19.025C296.195 18.025 296.945 17.2417 297.912 16.675C298.895 16.1083 300.062 15.825 301.412 15.825C302.462 15.825 303.403 16.0167 304.237 16.4C305.087 16.7833 305.753 17.3 306.237 17.95C306.72 18.5833 306.962 19.2833 306.962 20.05C306.962 20.85 306.728 21.4167 306.262 21.75C305.795 22.0833 305.103 22.25 304.187 22.25H298.937C298.937 22.6833 299.103 23.0417 299.437 23.325C299.787 23.6083 300.37 23.75 301.187 23.75C301.603 23.75 301.987 23.7083 302.337 23.625C302.703 23.5417 303.07 23.4667 303.437 23.4C303.82 23.3167 304.245 23.275 304.712 23.275C305.378 23.275 305.928 23.5167 306.362 24C306.795 24.4667 307.012 25.1167 307.012 25.95C307.012 26.9333 306.503 27.7 305.487 28.25C304.487 28.8 303.17 29.075 301.537 29.075C300.387 29.075 299.303 28.85 298.287 28.4C297.287 27.95 296.47 27.2417 295.837 26.275C295.203 25.2917 294.887 24.0333 294.887 22.5ZM302.987 21.425C303.237 21.425 303.32 21.3083 303.237 21.075C303.17 20.8417 302.97 20.6 302.637 20.35C302.303 20.1 301.82 19.975 301.187 19.975C300.453 19.975 299.903 20.1333 299.537 20.45C299.187 20.7667 299.012 21.0917 299.012 21.425H302.987ZM313.971 34.15C312.954 34.15 312.087 34.0417 311.371 33.825C310.671 33.6083 309.996 33.275 309.346 32.825C308.779 32.425 308.379 31.8667 308.146 31.15C307.912 30.4333 308.029 29.7083 308.496 28.975C308.796 28.525 309.129 28.2167 309.496 28.05C309.879 27.8833 310.246 27.8167 310.596 27.85C310.962 27.8667 311.279 27.9417 311.546 28.075C312.129 28.3583 312.579 28.5667 312.896 28.7C313.229 28.8167 313.604 28.875 314.021 28.875C314.637 28.875 315.154 28.6583 315.571 28.225C316.004 27.7917 316.221 27.1833 316.221 26.4V24.375H315.771C315.654 25.2583 315.312 25.9583 314.746 26.475C314.196 26.975 313.437 27.225 312.471 27.225C311.737 27.225 311.021 27.0417 310.321 26.675C309.621 26.3083 309.046 25.725 308.596 24.925C308.146 24.125 307.921 23.0667 307.921 21.75C307.921 19.8167 308.346 18.375 309.196 17.425C310.046 16.475 311.146 16 312.496 16C313.429 16 314.229 16.3167 314.896 16.95C315.562 17.5667 315.896 18.4333 315.896 19.55L315.971 19.525V18.125C315.971 17.5417 316.154 17.0333 316.521 16.6C316.904 16.15 317.496 15.925 318.296 15.925C319.146 15.925 319.754 16.15 320.121 16.6C320.504 17.0333 320.696 17.5417 320.696 18.125L320.721 26C320.737 27.7333 320.521 29.2083 320.071 30.425C319.637 31.6417 318.921 32.5667 317.921 33.2C316.937 33.8333 315.621 34.15 313.971 34.15ZM312.121 21.325C312.121 22.225 312.721 22.675 313.921 22.675C314.704 22.675 315.254 22.5667 315.571 22.35C315.887 22.1333 316.046 21.7917 316.046 21.325C316.046 20.8417 315.879 20.5083 315.546 20.325C315.229 20.1417 314.679 20.05 313.896 20.05C313.329 20.05 312.887 20.1417 312.571 20.325C312.271 20.5083 312.121 20.8417 312.121 21.325ZM329.813 29.075C328.88 29.075 327.938 28.9833 326.988 28.8C326.055 28.6 325.188 28.3167 324.388 27.95C323.605 27.5667 322.972 27.1083 322.488 26.575C322.005 26.025 321.763 25.3917 321.763 24.675C321.763 23.7583 322.055 23.025 322.638 22.475C323.222 21.925 323.905 21.6667 324.688 21.7C325.305 21.7167 325.922 21.85 326.538 22.1C327.155 22.3333 327.78 22.5667 328.413 22.8C329.063 23.0333 329.713 23.15 330.363 23.15C331.013 23.15 331.463 23.0667 331.713 22.9C331.963 22.7333 332.088 22.5083 332.088 22.225C332.088 21.8917 331.913 21.6167 331.563 21.4C331.213 21.1833 330.772 21.0167 330.238 20.9L329.013 20.6C327.747 20.3 326.613 19.9667 325.613 19.6C324.613 19.2167 323.822 18.7167 323.238 18.1C322.672 17.4667 322.388 16.625 322.388 15.575C322.388 14.425 322.705 13.4917 323.338 12.775C323.972 12.0417 324.83 11.5083 325.913 11.175C326.997 10.8417 328.205 10.675 329.538 10.675C330.905 10.675 332.105 10.8167 333.138 11.1C334.172 11.3833 334.972 11.7917 335.538 12.325C336.122 12.8583 336.413 13.5083 336.413 14.275C336.413 15.0917 336.188 15.7333 335.738 16.2C335.305 16.65 334.722 16.875 333.988 16.875C333.505 16.875 332.997 16.7917 332.463 16.625C331.947 16.4583 331.397 16.3 330.813 16.15C330.247 15.9833 329.638 15.9 328.988 15.9C328.405 15.9 327.963 15.9917 327.663 16.175C327.363 16.3417 327.213 16.5667 327.213 16.85C327.213 17.2 327.413 17.4583 327.813 17.625C328.213 17.7917 328.872 17.9917 329.788 18.225L331.188 18.55C332.338 18.8333 333.347 19.175 334.213 19.575C335.08 19.975 335.755 20.5 336.238 21.15C336.722 21.8 336.963 22.65 336.963 23.7C336.963 24.9667 336.663 26 336.063 26.8C335.463 27.5833 334.63 28.1583 333.563 28.525C332.497 28.8917 331.247 29.075 329.813 29.075ZM345.008 29.075C343.992 29.075 343.192 28.825 342.608 28.325C342.025 27.825 341.558 27.1417 341.208 26.275C340.875 25.3917 340.558 24.3917 340.258 23.275L337.833 14.275C337.65 13.575 337.692 12.925 337.958 12.325C338.225 11.7083 338.75 11.3 339.533 11.1C340.267 10.9 340.917 10.95 341.483 11.25C342.05 11.55 342.433 12.075 342.633 12.825L344.883 21.05C345.083 21.7667 345.292 22.2917 345.508 22.625C345.742 22.9583 346.108 23.0667 346.608 22.95C347.075 22.8333 347.325 22.575 347.358 22.175C347.392 21.775 347.308 21.2083 347.108 20.475L345.508 14.4C345.292 13.5667 345.317 12.85 345.583 12.25C345.867 11.6333 346.417 11.2333 347.233 11.05C348.067 10.85 348.733 10.9583 349.233 11.375C349.75 11.775 350.1 12.3417 350.283 13.075L352.308 21.05C352.525 21.8667 352.758 22.4167 353.008 22.7C353.275 22.9833 353.617 23.0667 354.033 22.95C354.5 22.8167 354.725 22.5583 354.708 22.175C354.692 21.775 354.633 21.2 354.533 20.45C354.383 19.2833 354.25 18.325 354.133 17.575C354.033 16.825 353.95 16.2 353.883 15.7C353.833 15.2 353.808 14.7417 353.808 14.325C353.808 13.3917 354.083 12.6 354.633 11.95C355.183 11.2833 355.933 10.95 356.883 10.95C357.85 10.95 358.583 11.25 359.083 11.85C359.583 12.4333 359.833 13.2417 359.833 14.275C359.833 14.9417 359.733 15.6417 359.533 16.375C359.35 17.1083 359.167 17.8 358.983 18.45L357.583 23.275C357.267 24.375 356.95 25.3667 356.633 26.25C356.333 27.1167 355.925 27.8083 355.408 28.325C354.892 28.825 354.158 29.075 353.208 29.075C352.058 29.075 351.158 28.7167 350.508 28C349.858 27.2833 349.358 26.1083 349.008 24.475H348.833C348.5 26.1083 348.058 27.2833 347.508 28C346.958 28.7167 346.125 29.075 345.008 29.075ZM366.362 29C365.395 29 364.604 28.6833 363.987 28.05C363.387 27.4167 362.837 26.375 362.337 24.925L360.437 19.275C360.22 18.6417 360.212 18 360.412 17.35C360.612 16.7 361.07 16.2583 361.787 16.025C362.454 15.7917 363.062 15.8083 363.612 16.075C364.162 16.3417 364.545 16.8 364.762 17.45L366.812 23.575C367.045 24.2917 367.287 24.775 367.537 25.025C367.787 25.2583 368.12 25.3083 368.537 25.175C368.887 25.0583 369.104 24.8083 369.187 24.425C369.287 24.025 369.17 23.3417 368.837 22.375L367.812 19.275C367.595 18.625 367.587 17.9833 367.787 17.35C368.004 16.7 368.47 16.2583 369.187 16.025C369.854 15.7917 370.462 15.8083 371.012 16.075C371.562 16.3417 371.945 16.8 372.162 17.45L374.262 23.85C374.395 24.2333 374.604 24.5833 374.887 24.9C375.17 25.2167 375.537 25.3083 375.987 25.175C376.337 25.0583 376.562 24.825 376.662 24.475C376.779 24.125 376.762 23.7167 376.612 23.25C376.412 22.6167 376.187 22.1167 375.937 21.75C375.704 21.3833 375.47 21.0667 375.237 20.8C375.02 20.5333 374.837 20.25 374.687 19.95C374.554 19.65 374.47 19.2417 374.437 18.725C374.404 18.1917 374.512 17.725 374.762 17.325C375.029 16.9083 375.379 16.5833 375.812 16.35C376.262 16.1167 376.754 16 377.287 16C378.104 16 378.762 16.275 379.262 16.825C379.779 17.3583 380.037 17.9917 380.037 18.725C380.037 18.9917 379.995 19.3417 379.912 19.775C379.829 20.2083 379.72 20.6083 379.587 20.975L378.537 23.7C378.32 24.3 378.07 24.9167 377.787 25.55C377.52 26.1667 377.204 26.7333 376.837 27.25C376.487 27.7667 376.079 28.1917 375.612 28.525C375.145 28.8417 374.604 29 373.987 29C372.92 29 372.062 28.725 371.412 28.175C370.779 27.625 370.279 26.7167 369.912 25.45H369.662C369.445 26.4833 369.087 27.3333 368.587 28C368.087 28.6667 367.345 29 366.362 29ZM383.546 29C382.762 29 382.154 28.775 381.721 28.325C381.287 27.875 381.071 27.3083 381.071 26.625V18.425C381.071 17.7083 381.287 17.1167 381.721 16.65C382.154 16.1667 382.762 15.925 383.546 15.925C384.329 15.925 384.929 16.1667 385.346 16.65C385.762 17.1167 385.971 17.6917 385.971 18.375V18.9H386.446C386.512 18.0167 386.846 17.2917 387.446 16.725C388.046 16.1583 388.754 15.875 389.571 15.875C390.387 15.875 391.029 16.125 391.496 16.625C391.979 17.125 392.221 17.7917 392.221 18.625C392.221 19.4083 391.996 20.0583 391.546 20.575C391.096 21.0917 390.521 21.35 389.821 21.35C389.237 21.35 388.746 21.2167 388.346 20.95C387.962 20.6667 387.679 20.3417 387.496 19.975C386.962 19.9083 386.571 19.9667 386.321 20.15C386.087 20.3167 385.971 20.6583 385.971 21.175V26.625C385.971 27.3083 385.762 27.875 385.346 28.325C384.929 28.775 384.329 29 383.546 29ZM401.881 18.15C402.881 18.15 403.764 18.3 404.531 18.6C405.314 18.9 405.923 19.4167 406.356 20.15C406.806 20.8667 407.031 21.8833 407.031 23.2C407.031 24.35 406.823 25.3083 406.406 26.075C406.006 26.825 405.456 27.4167 404.756 27.85C404.073 28.2667 403.298 28.5667 402.431 28.75C401.564 28.9167 400.664 29 399.731 29C397.614 29 395.973 28.7417 394.806 28.225C393.639 27.6917 393.056 26.7833 393.056 25.5C393.056 24.6 393.356 23.9083 393.956 23.425C394.556 22.925 395.331 22.7333 396.281 22.85C397.014 22.9333 397.814 23.025 398.681 23.125C399.548 23.225 400.464 23.2667 401.431 23.25C402.081 23.25 402.548 23.15 402.831 22.95C403.131 22.7333 403.281 22.425 403.281 22.025C403.281 21.5417 403.131 21.175 402.831 20.925C402.548 20.6583 402.081 20.525 401.431 20.525H396.406C395.506 20.525 394.814 20.3583 394.331 20.025C393.848 19.6917 393.606 19.0917 393.606 18.225V14.1C393.606 13.2333 393.739 12.5667 394.006 12.1C394.289 11.6333 394.673 11.3083 395.156 11.125C395.656 10.9417 396.223 10.85 396.856 10.85H403.631C404.714 10.85 405.473 11.0917 405.906 11.575C406.339 12.0583 406.556 12.6917 406.556 13.475C406.556 14.2583 406.339 14.9083 405.906 15.425C405.473 15.925 404.714 16.175 403.631 16.175C402.764 16.175 401.898 15.9833 401.031 15.6C400.181 15.2167 399.464 14.6917 398.881 14.025H398.381V18.15H401.881ZM415.091 28.975C413.891 28.9583 412.774 28.8583 411.741 28.675C410.724 28.4917 409.899 28.1583 409.266 27.675C408.649 27.1917 408.341 26.5167 408.341 25.65C408.341 24.7667 408.574 24.0917 409.041 23.625C409.524 23.1417 410.124 22.9 410.841 22.9C411.741 22.9 412.533 22.9583 413.216 23.075C413.916 23.1917 414.674 23.25 415.491 23.25C416.191 23.25 416.658 23.1417 416.891 22.925C417.141 22.7083 417.266 22.4083 417.266 22.025C417.266 21.2083 416.608 20.8 415.291 20.8H413.866C413.299 20.8 412.891 20.6667 412.641 20.4C412.391 20.1167 412.266 19.7833 412.266 19.4C412.266 19 412.391 18.6667 412.641 18.4C412.891 18.1333 413.299 18 413.866 18H415.291C415.908 18 416.316 17.8833 416.516 17.65C416.716 17.4 416.816 17.0917 416.816 16.725C416.816 16.425 416.708 16.1917 416.491 16.025C416.274 15.8583 415.891 15.775 415.341 15.775C414.674 15.775 413.999 15.8583 413.316 16.025C412.633 16.1917 411.924 16.275 411.191 16.275C410.408 16.275 409.741 16.1083 409.191 15.775C408.658 15.425 408.391 14.7667 408.391 13.8C408.391 13.1333 408.583 12.6 408.966 12.2C409.366 11.7833 409.899 11.4667 410.566 11.25C411.233 11.0167 411.966 10.8583 412.766 10.775C413.583 10.6917 414.416 10.65 415.266 10.65C416.466 10.65 417.558 10.8 418.541 11.1C419.524 11.3833 420.308 11.85 420.891 12.5C421.491 13.15 421.791 14.0333 421.791 15.15C421.791 16.3667 421.399 17.35 420.616 18.1C419.849 18.8333 418.833 19.2 417.566 19.2V19.75C418.416 19.75 419.174 19.8917 419.841 20.175C420.524 20.4417 421.066 20.875 421.466 21.475C421.866 22.075 422.066 22.875 422.066 23.875C422.066 25.0083 421.749 25.9583 421.116 26.725C420.483 27.475 419.641 28.0417 418.591 28.425C417.541 28.7917 416.374 28.975 415.091 28.975ZM426.079 29C425.246 29 424.613 28.7417 424.179 28.225C423.746 27.7083 423.529 27.0167 423.529 26.15V14.425C423.529 13.5583 423.688 12.8583 424.004 12.325C424.338 11.775 424.763 11.375 425.279 11.125C425.813 10.875 426.388 10.75 427.004 10.75C427.921 10.75 428.696 10.9917 429.329 11.475C429.963 11.9583 430.454 12.8083 430.804 14.025L433.504 23.25H433.904V13.65C433.904 12.7667 434.129 12.075 434.579 11.575C435.029 11.0583 435.671 10.8 436.504 10.8C437.371 10.8 438.013 11.0583 438.429 11.575C438.863 12.075 439.079 12.7667 439.079 13.65V24.95C439.079 26.35 438.771 27.3833 438.154 28.05C437.538 28.7167 436.671 29.05 435.554 29.05C434.421 29.05 433.538 28.75 432.904 28.15C432.271 27.55 431.788 26.6667 431.454 25.5L429.679 19.425C429.646 19.2583 429.579 19.1083 429.479 18.975C429.396 18.825 429.279 18.75 429.129 18.75C428.946 18.75 428.821 18.825 428.754 18.975C428.688 19.1083 428.654 19.2583 428.654 19.425V26.15C428.654 27.0167 428.438 27.7083 428.004 28.225C427.571 28.7417 426.929 29 426.079 29ZM440.893 15.625C440.41 14.5917 440.301 13.6667 440.568 12.85C440.835 12.0167 441.343 11.4333 442.093 11.1C442.86 10.7667 443.635 10.7667 444.418 11.1C445.218 11.4167 445.801 12.0917 446.168 13.125C446.351 13.6417 446.485 14.2417 446.568 14.925C446.651 15.5917 446.743 16.2417 446.843 16.875C446.96 17.4917 447.143 18.0083 447.393 18.425C447.66 18.825 448.068 19.025 448.618 19.025C449.168 19.025 449.576 18.825 449.843 18.425C450.11 18.0083 450.293 17.4917 450.393 16.875C450.51 16.2417 450.601 15.5917 450.668 14.925C450.751 14.2417 450.885 13.6417 451.068 13.125C451.451 12.0917 452.035 11.4167 452.818 11.1C453.601 10.7667 454.376 10.7667 455.143 11.1C455.893 11.4333 456.401 12.0167 456.668 12.85C456.935 13.6667 456.826 14.5917 456.343 15.625C456.093 16.1583 455.76 16.6667 455.343 17.15C454.943 17.6167 454.501 18.1 454.018 18.6C453.535 19.1 453.051 19.6583 452.568 20.275C452.085 20.875 451.643 21.5667 451.243 22.35V26.625C451.243 27.3083 450.993 27.875 450.493 28.325C449.993 28.775 449.368 29 448.618 29C447.885 29 447.26 28.775 446.743 28.325C446.243 27.875 445.993 27.3083 445.993 26.625V22.35C445.61 21.5667 445.176 20.875 444.693 20.275C444.21 19.6583 443.726 19.1 443.243 18.6C442.76 18.1 442.31 17.6167 441.893 17.15C441.476 16.6667 441.143 16.1583 440.893 15.625ZM464.872 29.075C463.939 29.075 462.997 28.9833 462.047 28.8C461.114 28.6 460.247 28.3167 459.447 27.95C458.664 27.5667 458.03 27.1083 457.547 26.575C457.064 26.025 456.822 25.3917 456.822 24.675C456.822 23.7583 457.114 23.025 457.697 22.475C458.28 21.925 458.964 21.6667 459.747 21.7C460.364 21.7167 460.98 21.85 461.597 22.1C462.214 22.3333 462.839 22.5667 463.472 22.8C464.122 23.0333 464.772 23.15 465.422 23.15C466.072 23.15 466.522 23.0667 466.772 22.9C467.022 22.7333 467.147 22.5083 467.147 22.225C467.147 21.8917 466.972 21.6167 466.622 21.4C466.272 21.1833 465.83 21.0167 465.297 20.9L464.072 20.6C462.805 20.3 461.672 19.9667 460.672 19.6C459.672 19.2167 458.88 18.7167 458.297 18.1C457.73 17.4667 457.447 16.625 457.447 15.575C457.447 14.425 457.764 13.4917 458.397 12.775C459.03 12.0417 459.889 11.5083 460.972 11.175C462.055 10.8417 463.264 10.675 464.597 10.675C465.964 10.675 467.164 10.8167 468.197 11.1C469.23 11.3833 470.03 11.7917 470.597 12.325C471.18 12.8583 471.472 13.5083 471.472 14.275C471.472 15.0917 471.247 15.7333 470.797 16.2C470.364 16.65 469.78 16.875 469.047 16.875C468.564 16.875 468.055 16.7917 467.522 16.625C467.005 16.4583 466.455 16.3 465.872 16.15C465.305 15.9833 464.697 15.9 464.047 15.9C463.464 15.9 463.022 15.9917 462.722 16.175C462.422 16.3417 462.272 16.5667 462.272 16.85C462.272 17.2 462.472 17.4583 462.872 17.625C463.272 17.7917 463.93 17.9917 464.847 18.225L466.247 18.55C467.397 18.8333 468.405 19.175 469.272 19.575C470.139 19.975 470.814 20.5 471.297 21.15C471.78 21.8 472.022 22.65 472.022 23.7C472.022 24.9667 471.722 26 471.122 26.8C470.522 27.5833 469.689 28.1583 468.622 28.525C467.555 28.8917 466.305 29.075 464.872 29.075ZM476.519 29C475.285 29 474.319 28.6667 473.619 28C472.935 27.3333 472.594 26.4 472.594 25.2C472.594 24 472.994 23.1333 473.794 22.6C474.594 22.05 475.619 21.775 476.869 21.775C477.602 21.775 478.269 21.825 478.869 21.925C479.469 22.025 480.01 22.1667 480.494 22.35H480.569V21.975C480.569 21.5917 480.427 21.2917 480.144 21.075C479.86 20.8417 479.502 20.7333 479.069 20.75C478.652 20.75 478.294 20.775 477.994 20.825C477.71 20.875 477.352 20.9583 476.919 21.075C476.119 21.275 475.427 21.2583 474.844 21.025C474.26 20.7917 473.86 20.3333 473.644 19.65C473.444 18.9333 473.485 18.3333 473.769 17.85C474.069 17.3667 474.519 16.9917 475.119 16.725C475.635 16.475 476.21 16.2667 476.844 16.1C477.494 15.9333 478.194 15.85 478.944 15.85C481.127 15.85 482.727 16.3833 483.744 17.45C484.777 18.5 485.294 20.2667 485.294 22.75V26.625C485.294 27.3083 485.085 27.875 484.669 28.325C484.252 28.775 483.677 29 482.944 29C482.144 29 481.544 28.775 481.144 28.325C480.76 27.875 480.569 27.325 480.569 26.675V26.1H480.069C480.069 26.5333 479.985 26.975 479.819 27.425C479.669 27.875 479.344 28.25 478.844 28.55C478.36 28.85 477.585 29 476.519 29ZM476.769 23.525C476.769 23.8083 476.869 24.0083 477.069 24.125C477.285 24.2417 477.744 24.3 478.444 24.3C479.077 24.3 479.519 24.2417 479.769 24.125C480.019 24.0083 480.144 23.8083 480.144 23.525C480.144 23.2583 480.019 23.075 479.769 22.975C479.519 22.8583 479.077 22.8 478.444 22.8C477.744 22.8 477.285 22.8583 477.069 22.975C476.869 23.075 476.769 23.2583 476.769 23.525ZM495.238 29.075C494.121 29.075 493.196 28.8583 492.463 28.425C491.746 27.9917 491.155 27.3667 490.688 26.55C490.238 25.7333 489.83 24.7417 489.463 23.575L486.663 14.6C486.396 13.7667 486.413 13.0417 486.713 12.425C487.03 11.7917 487.588 11.3583 488.388 11.125C489.121 10.9083 489.788 10.9583 490.388 11.275C490.988 11.575 491.396 12.0917 491.613 12.825L494.338 21.475C494.621 22.4083 494.98 23.0333 495.413 23.35C495.863 23.65 496.346 23.7167 496.863 23.55C497.396 23.4 497.738 23.1 497.888 22.65C498.038 22.1833 497.996 21.4833 497.763 20.55C497.38 18.8833 497.121 17.575 496.988 16.625C496.855 15.675 496.788 14.925 496.788 14.375C496.788 13.4417 497.038 12.6417 497.538 11.975C498.055 11.2917 498.846 10.95 499.913 10.95C500.963 10.95 501.721 11.2917 502.188 11.975C502.671 12.6417 502.913 13.4417 502.913 14.375C502.913 14.925 502.838 15.4917 502.688 16.075C502.538 16.6583 502.363 17.2583 502.163 17.875L499.938 24.6C499.638 25.5 499.305 26.2917 498.938 26.975C498.588 27.6417 498.121 28.1583 497.538 28.525C496.971 28.8917 496.205 29.075 495.238 29.075ZM507.016 28.95C506.016 28.95 505.25 28.675 504.716 28.125C504.2 27.5583 503.941 26.8333 503.941 25.95C503.941 25.4333 504.041 24.9833 504.241 24.6C504.458 24.2167 504.716 23.875 505.016 23.575C505.316 23.275 505.608 22.9917 505.891 22.725L511.916 16.825L511.766 16.35H506.766C506 16.35 505.366 16.1167 504.866 15.65C504.383 15.1667 504.125 14.5 504.091 13.65C504.075 12.8167 504.325 12.1417 504.841 11.625C505.358 11.1083 506 10.85 506.766 10.85H515.091C516.041 10.85 516.75 11.0917 517.216 11.575C517.683 12.0583 517.916 12.7417 517.916 13.625C517.916 14.2583 517.741 14.8583 517.391 15.425C517.041 15.975 516.65 16.4583 516.216 16.875L509.816 23.175C509.616 23.375 509.525 23.5917 509.541 23.825C509.558 24.0417 509.658 24.2083 509.841 24.325C510.041 24.4417 510.291 24.4417 510.591 24.325C511.141 24.0917 511.658 23.85 512.141 23.6C512.625 23.35 513.1 23.1417 513.566 22.975C514.05 22.7917 514.55 22.7 515.066 22.7C516.2 22.7 517.05 23.0083 517.616 23.625C518.183 24.225 518.466 24.9667 518.466 25.85C518.466 26.7333 518.183 27.475 517.616 28.075C517.05 28.6583 516.2 28.95 515.066 28.95H507.016ZM518.52 19.525C518.52 17.8083 518.837 16.2833 519.47 14.95C520.103 13.6167 521.037 12.5667 522.27 11.8C523.503 11.0333 525.012 10.65 526.795 10.65C528.578 10.65 530.078 11.0333 531.295 11.8C532.528 12.5667 533.462 13.6167 534.095 14.95C534.728 16.2833 535.045 17.8083 535.045 19.525C535.045 21.0417 534.803 22.4083 534.32 23.625C533.837 24.825 533.12 25.825 532.17 26.625C531.237 27.4083 530.078 27.9333 528.695 28.2C528.778 28.5333 528.97 28.7667 529.27 28.9C529.57 29.0333 530.012 29.1 530.595 29.1C531.128 29.1 531.612 29.1833 532.045 29.35C532.495 29.5167 532.853 29.7917 533.12 30.175C533.403 30.575 533.545 31.1167 533.545 31.8C533.545 32.4667 533.403 33 533.12 33.4C532.853 33.8 532.495 34.0833 532.045 34.25C531.612 34.4167 531.128 34.5 530.595 34.5C529.628 34.5 528.828 34.2917 528.195 33.875C527.562 33.475 527.087 32.925 526.77 32.225C526.47 31.525 526.32 30.7583 526.32 29.925V28.375C524.637 28.2917 523.212 27.8667 522.045 27.1C520.895 26.3333 520.02 25.3 519.42 24C518.82 22.7 518.52 21.2083 518.52 19.525ZM526.795 22C528.245 22 529.328 21.8667 530.045 21.6C530.778 21.3333 531.27 20.9833 531.52 20.55C531.77 20.1167 531.895 19.65 531.895 19.15C531.895 18.6333 531.77 18.175 531.52 17.775C531.27 17.3583 530.778 17.025 530.045 16.775C529.328 16.525 528.245 16.4 526.795 16.4C525.345 16.4 524.253 16.525 523.52 16.775C522.787 17.025 522.295 17.3583 522.045 17.775C521.795 18.175 521.67 18.6333 521.67 19.15C521.67 19.65 521.795 20.1167 522.045 20.55C522.295 20.9833 522.787 21.3333 523.52 21.6C524.253 21.8667 525.345 22 526.795 22ZM536.445 13.225C536.445 12.4583 536.678 11.8667 537.145 11.45C537.628 11.0167 538.245 10.8 538.995 10.8C539.778 10.8 540.403 11.0167 540.87 11.45C541.336 11.8667 541.57 12.4583 541.57 13.225V23.875C541.57 24.1917 541.653 24.4167 541.82 24.55C541.986 24.6667 542.261 24.6167 542.645 24.4C543.478 23.9167 544.22 23.5333 544.87 23.25C545.52 22.95 546.236 22.8 547.02 22.8C548.103 22.8 548.92 23.0833 549.47 23.65C550.02 24.2167 550.295 24.9583 550.295 25.875C550.295 26.8583 549.995 27.6167 549.395 28.15C548.811 28.6833 547.87 28.95 546.57 28.95H541.42C540.32 28.95 539.403 28.825 538.67 28.575C537.936 28.3083 537.378 27.8333 536.995 27.15C536.628 26.4667 536.445 25.475 536.445 24.175V13.225ZM563.488 29C562.654 29 561.996 28.75 561.513 28.25C561.029 27.7333 560.771 27.0667 560.738 26.25C560.671 24.8333 560.313 23.8333 559.663 23.25C559.029 22.65 558.179 22.35 557.113 22.35H556.613V26.35C556.613 27.2167 556.379 27.875 555.913 28.325C555.446 28.775 554.829 29 554.063 29C553.246 29 552.604 28.775 552.138 28.325C551.671 27.875 551.438 27.2167 551.438 26.35V22.825C551.438 21.0583 551.696 19.7167 552.213 18.8C552.746 17.8833 553.421 17.225 554.238 16.825L554.113 16.35H553.713C552.946 16.35 552.338 16.1083 551.888 15.625C551.454 15.125 551.221 14.45 551.188 13.6C551.171 12.7667 551.396 12.0917 551.863 11.575C552.329 11.0583 552.946 10.8 553.713 10.8H560.088C561.871 10.8 563.313 11.2333 564.413 12.1C565.513 12.9667 566.063 14.35 566.063 16.25C566.063 17.2333 565.896 18.0583 565.563 18.725C565.229 19.375 564.804 19.875 564.288 20.225C563.771 20.575 563.229 20.7833 562.663 20.85V21.175C563.696 21.425 564.546 21.975 565.213 22.825C565.896 23.675 566.238 24.8167 566.238 26.25C566.238 27.1667 565.988 27.8583 565.488 28.325C565.004 28.775 564.338 29 563.488 29ZM556.488 18.525C556.488 18.8917 556.554 19.1333 556.688 19.25C556.821 19.3667 557.071 19.425 557.438 19.425H559.788C560.488 19.425 560.996 19.2667 561.313 18.95C561.629 18.6333 561.788 18.1917 561.788 17.625C561.788 17.0417 561.629 16.5917 561.313 16.275C560.996 15.9583 560.488 15.8 559.788 15.8H557.438C557.071 15.8 556.821 15.85 556.688 15.95C556.554 16.05 556.488 16.2917 556.488 16.675V18.525ZM567.377 13.225C567.377 12.4583 567.61 11.8667 568.077 11.45C568.56 11.0167 569.177 10.8 569.927 10.8C570.71 10.8 571.335 11.0167 571.802 11.45C572.269 11.8667 572.502 12.4583 572.502 13.225V23.875C572.502 24.1917 572.585 24.4167 572.752 24.55C572.919 24.6667 573.194 24.6167 573.577 24.4C574.41 23.9167 575.152 23.5333 575.802 23.25C576.452 22.95 577.169 22.8 577.952 22.8C579.035 22.8 579.852 23.0833 580.402 23.65C580.952 24.2167 581.227 24.9583 581.227 25.875C581.227 26.8583 580.927 27.6167 580.327 28.15C579.744 28.6833 578.802 28.95 577.502 28.95H572.352C571.252 28.95 570.335 28.825 569.602 28.575C568.869 28.3083 568.31 27.8333 567.927 27.15C567.56 26.4667 567.377 25.475 567.377 24.175V13.225ZM585.82 29C584.587 29 583.62 28.6667 582.92 28C582.237 27.3333 581.895 26.4 581.895 25.2C581.895 24 582.295 23.1333 583.095 22.6C583.895 22.05 584.92 21.775 586.17 21.775C586.904 21.775 587.57 21.825 588.17 21.925C588.77 22.025 589.312 22.1667 589.795 22.35H589.87V21.975C589.87 21.5917 589.729 21.2917 589.445 21.075C589.162 20.8417 588.804 20.7333 588.37 20.75C587.954 20.75 587.595 20.775 587.295 20.825C587.012 20.875 586.654 20.9583 586.22 21.075C585.42 21.275 584.729 21.2583 584.145 21.025C583.562 20.7917 583.162 20.3333 582.945 19.65C582.745 18.9333 582.787 18.3333 583.07 17.85C583.37 17.3667 583.82 16.9917 584.42 16.725C584.937 16.475 585.512 16.2667 586.145 16.1C586.795 15.9333 587.495 15.85 588.245 15.85C590.429 15.85 592.029 16.3833 593.045 17.45C594.079 18.5 594.595 20.2667 594.595 22.75V26.625C594.595 27.3083 594.387 27.875 593.97 28.325C593.554 28.775 592.979 29 592.245 29C591.445 29 590.845 28.775 590.445 28.325C590.062 27.875 589.87 27.325 589.87 26.675V26.1H589.37C589.37 26.5333 589.287 26.975 589.12 27.425C588.97 27.875 588.645 28.25 588.145 28.55C587.662 28.85 586.887 29 585.82 29ZM586.07 23.525C586.07 23.8083 586.17 24.0083 586.37 24.125C586.587 24.2417 587.045 24.3 587.745 24.3C588.379 24.3 588.82 24.2417 589.07 24.125C589.32 24.0083 589.445 23.8083 589.445 23.525C589.445 23.2583 589.32 23.075 589.07 22.975C588.82 22.8583 588.379 22.8 587.745 22.8C587.045 22.8 586.587 22.8583 586.37 22.975C586.17 23.075 586.07 23.2583 586.07 23.525ZM604.74 29C603.823 29 603.057 28.7167 602.44 28.15C601.84 27.5833 601.457 26.85 601.29 25.95H600.84V31.7C600.84 32.3833 600.648 32.9583 600.265 33.425C599.882 33.9083 599.298 34.15 598.515 34.15C597.765 34.15 597.182 33.9083 596.765 33.425C596.365 32.9583 596.165 32.3667 596.165 31.65V22.3C596.165 21.4667 596.132 20.7667 596.065 20.2C596.015 19.6167 595.965 19.0917 595.915 18.625C595.848 17.925 595.99 17.3333 596.34 16.85C596.69 16.35 597.257 16.05 598.04 15.95C599.057 15.8167 599.773 16 600.19 16.5C600.623 16.9833 600.84 17.7417 600.84 18.775V19.975L600.94 20C601.023 19.35 601.215 18.7167 601.515 18.1C601.832 17.4667 602.273 16.95 602.84 16.55C603.407 16.1333 604.123 15.925 604.99 15.925C606.44 15.925 607.515 16.5083 608.215 17.675C608.932 18.825 609.29 20.3667 609.29 22.3C609.29 26.7667 607.773 29 604.74 29ZM600.74 22.25C600.74 22.5167 600.773 22.725 600.84 22.875C600.94 23.1917 601.148 23.425 601.465 23.575C601.798 23.7083 602.29 23.775 602.94 23.775C603.773 23.775 604.34 23.65 604.64 23.4C604.957 23.15 605.115 22.7667 605.115 22.25C605.115 21.7167 604.965 21.3333 604.665 21.1C604.365 20.85 603.798 20.725 602.965 20.725C602.298 20.725 601.798 20.8 601.465 20.95C601.148 21.0833 600.94 21.3083 600.84 21.625C600.773 21.775 600.74 21.9833 600.74 22.25ZM614.538 29C613.372 29 612.422 28.5583 611.688 27.675C610.955 26.7917 610.58 25.55 610.563 23.95L610.538 18.175C610.538 17.4583 610.755 16.9 611.188 16.5C611.638 16.0833 612.247 15.875 613.013 15.875C613.747 15.875 614.338 16.0833 614.788 16.5C615.238 16.9 615.463 17.4583 615.463 18.175V23.4C615.463 24.65 615.955 25.275 616.938 25.275C617.422 25.275 617.747 25.1 617.913 24.75C618.08 24.3833 618.163 23.9167 618.163 23.35V18.175C618.163 17.525 618.388 16.9833 618.838 16.55C619.288 16.1 619.872 15.875 620.588 15.875C621.338 15.875 621.913 16.1 622.313 16.55C622.73 16.9833 622.938 17.525 622.938 18.175V26.375C622.938 27.175 622.755 27.8167 622.388 28.3C622.038 28.7667 621.463 29 620.663 29C619.88 29 619.263 28.7667 618.813 28.3C618.38 27.8167 618.163 27.175 618.163 26.375V25.95H617.713C617.713 26.9167 617.422 27.6667 616.838 28.2C616.272 28.7333 615.505 29 614.538 29ZM626.585 29C625.835 29 625.235 28.7833 624.785 28.35C624.351 27.9 624.135 27.35 624.135 26.7V18.425C624.135 17.725 624.343 17.1333 624.76 16.65C625.193 16.1667 625.801 15.925 626.585 15.925C627.351 15.925 627.926 16.1667 628.31 16.65C628.693 17.1333 628.885 17.7417 628.885 18.475V19.725H629.335C629.335 18.3083 629.635 17.325 630.235 16.775C630.835 16.2083 631.576 15.925 632.46 15.925C633.593 15.925 634.426 16.275 634.96 16.975C635.493 17.675 635.76 18.5917 635.76 19.725H636.21C636.21 18.775 636.368 18.025 636.685 17.475C637.001 16.925 637.401 16.5333 637.885 16.3C638.385 16.05 638.901 15.925 639.435 15.925C640.518 15.925 641.31 16.1833 641.81 16.7C642.326 17.2167 642.66 17.9083 642.81 18.775C642.96 19.6417 643.035 20.6167 643.035 21.7V26.7C643.035 27.35 642.81 27.9 642.36 28.35C641.926 28.7833 641.343 29 640.61 29C639.876 29 639.285 28.7833 638.835 28.35C638.385 27.9 638.16 27.35 638.16 26.7V22.275C638.16 21.675 638.085 21.2083 637.935 20.875C637.785 20.5417 637.485 20.375 637.035 20.375C636.551 20.375 636.235 20.5583 636.085 20.925C635.951 21.2917 635.885 21.7583 635.885 22.325V26.7C635.885 27.35 635.676 27.9 635.26 28.35C634.843 28.7833 634.268 29 633.535 29C632.785 29 632.185 28.7833 631.735 28.35C631.301 27.9 631.085 27.35 631.085 26.7V22.275C631.085 21.675 631.01 21.2083 630.86 20.875C630.71 20.5417 630.418 20.375 629.985 20.375C629.501 20.375 629.193 20.5583 629.06 20.925C628.943 21.2917 628.885 21.7583 628.885 22.325V26.7C628.885 27.35 628.685 27.9 628.285 28.35C627.885 28.7833 627.318 29 626.585 29ZM653.177 29C652.261 29 651.494 28.7167 650.877 28.15C650.277 27.5833 649.894 26.85 649.727 25.95H649.277V31.7C649.277 32.3833 649.086 32.9583 648.702 33.425C648.319 33.9083 647.736 34.15 646.952 34.15C646.202 34.15 645.619 33.9083 645.202 33.425C644.802 32.9583 644.602 32.3667 644.602 31.65V22.3C644.602 21.4667 644.569 20.7667 644.502 20.2C644.452 19.6167 644.402 19.0917 644.352 18.625C644.286 17.925 644.427 17.3333 644.777 16.85C645.127 16.35 645.694 16.05 646.477 15.95C647.494 15.8167 648.211 16 648.627 16.5C649.061 16.9833 649.277 17.7417 649.277 18.775V19.975L649.377 20C649.461 19.35 649.652 18.7167 649.952 18.1C650.269 17.4667 650.711 16.95 651.277 16.55C651.844 16.1333 652.561 15.925 653.427 15.925C654.877 15.925 655.952 16.5083 656.652 17.675C657.369 18.825 657.727 20.3667 657.727 22.3C657.727 26.7667 656.211 29 653.177 29ZM649.177 22.25C649.177 22.5167 649.211 22.725 649.277 22.875C649.377 23.1917 649.586 23.425 649.902 23.575C650.236 23.7083 650.727 23.775 651.377 23.775C652.211 23.775 652.777 23.65 653.077 23.4C653.394 23.15 653.552 22.7667 653.552 22.25C653.552 21.7167 653.402 21.3333 653.102 21.1C652.802 20.85 652.236 20.725 651.402 20.725C650.736 20.725 650.236 20.8 649.902 20.95C649.586 21.0833 649.377 21.3083 649.277 21.625C649.211 21.775 649.177 21.9833 649.177 22.25Z" fill="black"/>
</svg>
