<svg width="303" height="43" viewBox="0 0 303 43" fill="none" xmlns="http://www.w3.org/2000/svg">
<path d="M11.28 35.06C9.32 35.06 7.55 34.66 5.97 33.86C4.41 33.04 3.18 31.83 2.28 30.23C1.38 28.63 0.93 26.66 0.93 24.32C0.93 21.98 1.38 19.96 2.28 18.26C3.2 16.56 4.45 15.26 6.03 14.36C7.63 13.44 9.45 12.98 11.49 12.98C13.85 12.98 15.66 13.31 16.92 13.97C18.18 14.63 18.81 15.61 18.81 16.91C18.81 17.91 18.54 18.74 18 19.4C17.46 20.04 16.72 20.36 15.78 20.36C14.98 20.36 14.2 20.26 13.44 20.06C12.7 19.84 11.83 19.73 10.83 19.73C9.55 19.73 8.54 20.1 7.8 20.84C7.06 21.58 6.69 22.55 6.69 23.75C6.69 24.93 7.06 25.92 7.8 26.72C8.54 27.5 9.55 27.89 10.83 27.89C11.51 27.89 12.13 27.84 12.69 27.74C13.27 27.62 13.83 27.5 14.37 27.38C14.93 27.26 15.53 27.2 16.17 27.2C17.23 27.2 18.01 27.55 18.51 28.25C19.01 28.93 19.26 29.78 19.26 30.8C19.26 31.82 18.89 32.65 18.15 33.29C17.41 33.91 16.43 34.36 15.21 34.64C14.01 34.92 12.7 35.06 11.28 35.06ZM29.3121 35.09C27.1721 35.09 25.3621 34.62 23.8821 33.68C22.4021 32.74 21.2821 31.44 20.5221 29.78C19.7621 28.12 19.3821 26.21 19.3821 24.05C19.3821 21.91 19.7621 20.01 20.5221 18.35C21.2821 16.67 22.4021 15.36 23.8821 14.42C25.3621 13.46 27.1721 12.98 29.3121 12.98C31.4521 12.98 33.2521 13.46 34.7121 14.42C36.1921 15.36 37.3121 16.67 38.0721 18.35C38.8321 20.01 39.2121 21.91 39.2121 24.05C39.2121 26.21 38.8321 28.12 38.0721 29.78C37.3121 31.44 36.1921 32.74 34.7121 33.68C33.2521 34.62 31.4521 35.09 29.3121 35.09ZM23.1621 23.57C23.1621 24.19 23.3121 24.78 23.6121 25.34C23.9121 25.88 24.5021 26.32 25.3821 26.66C26.2621 26.98 27.5721 27.14 29.3121 27.14C31.0521 27.14 32.3521 26.98 33.2121 26.66C34.0921 26.32 34.6821 25.88 34.9821 25.34C35.2821 24.78 35.4321 24.19 35.4321 23.57C35.4321 22.93 35.2821 22.36 34.9821 21.86C34.6821 21.34 34.0921 20.93 33.2121 20.63C32.3521 20.31 31.0521 20.15 29.3121 20.15C27.5721 20.15 26.2621 20.31 25.3821 20.63C24.5021 20.93 23.9121 21.34 23.6121 21.86C23.3121 22.36 23.1621 22.93 23.1621 23.57ZM43.8638 35C42.8638 35 42.1038 34.69 41.5838 34.07C41.0638 33.45 40.8038 32.62 40.8038 31.58V17.51C40.8038 16.47 40.9938 15.63 41.3738 14.99C41.7738 14.33 42.2838 13.85 42.9038 13.55C43.5438 13.25 44.2338 13.1 44.9738 13.1C46.0738 13.1 47.0038 13.39 47.7637 13.97C48.5238 14.55 49.1138 15.57 49.5338 17.03L52.7738 28.1H53.2538V16.58C53.2538 15.52 53.5238 14.69 54.0638 14.09C54.6038 13.47 55.3738 13.16 56.3737 13.16C57.4138 13.16 58.1838 13.47 58.6838 14.09C59.2038 14.69 59.4638 15.52 59.4638 16.58V30.14C59.4638 31.82 59.0938 33.06 58.3538 33.86C57.6138 34.66 56.5738 35.06 55.2338 35.06C53.8738 35.06 52.8138 34.7 52.0538 33.98C51.2938 33.26 50.7138 32.2 50.3138 30.8L48.1838 23.51C48.1438 23.31 48.0638 23.13 47.9438 22.97C47.8438 22.79 47.7038 22.7 47.5238 22.7C47.3038 22.7 47.1538 22.79 47.0738 22.97C46.9938 23.13 46.9538 23.31 46.9538 23.51V31.58C46.9538 32.62 46.6938 33.45 46.1738 34.07C45.6538 34.69 44.8838 35 43.8638 35ZM64.0702 19.82C63.0702 19.82 62.2502 19.53 61.6102 18.95C60.9902 18.37 60.6802 17.57 60.6802 16.55C60.6802 15.55 60.9602 14.75 61.5202 14.15C62.1002 13.53 62.9502 13.22 64.0702 13.22H77.0002C78.1202 13.22 78.9602 13.53 79.5202 14.15C80.1002 14.75 80.3902 15.55 80.3902 16.55C80.3902 17.57 80.0702 18.37 79.4302 18.95C78.8102 19.53 78.0002 19.82 77.0002 19.82C76.3202 19.82 75.7702 19.75 75.3502 19.61C74.9502 19.45 74.6202 19.27 74.3602 19.07C74.1002 18.85 73.8502 18.67 73.6102 18.53C73.3702 18.37 73.0702 18.29 72.7102 18.29L72.4402 18.83C72.5202 19.01 72.6602 19.27 72.8602 19.61C73.0602 19.93 73.2502 20.4 73.4302 21.02C73.6102 21.62 73.7002 22.44 73.7002 23.48V32.15C73.7002 32.97 73.3902 33.65 72.7702 34.19C72.1702 34.73 71.4302 35 70.5502 35C69.6502 35 68.8902 34.73 68.2702 34.19C67.6702 33.65 67.3702 32.97 67.3702 32.15V23.48C67.3702 22.44 67.4602 21.62 67.6402 21.02C67.8202 20.4 68.0102 19.93 68.2102 19.61C68.4302 19.27 68.5802 19.01 68.6602 18.83L68.3602 18.29C68.0002 18.29 67.7002 18.37 67.4602 18.53C67.2202 18.67 66.9702 18.85 66.7102 19.07C66.4502 19.27 66.1202 19.45 65.7202 19.61C65.3202 19.75 64.7702 19.82 64.0702 19.82ZM96.3122 35C95.3122 35 94.5222 34.7 93.9422 34.1C93.3622 33.48 93.0522 32.68 93.0122 31.7C92.9322 30 92.5022 28.8 91.7222 28.1C90.9622 27.38 89.9422 27.02 88.6622 27.02H88.0622V31.82C88.0622 32.86 87.7822 33.65 87.2222 34.19C86.6622 34.73 85.9222 35 85.0022 35C84.0222 35 83.2522 34.73 82.6922 34.19C82.1322 33.65 81.8522 32.86 81.8522 31.82V27.59C81.8522 25.47 82.1622 23.86 82.7822 22.76C83.4222 21.66 84.2322 20.87 85.2122 20.39L85.0622 19.82H84.5822C83.6622 19.82 82.9322 19.53 82.3922 18.95C81.8722 18.35 81.5922 17.54 81.5522 16.52C81.5322 15.52 81.8022 14.71 82.3622 14.09C82.9222 13.47 83.6622 13.16 84.5822 13.16H92.2322C94.3722 13.16 96.1022 13.68 97.4222 14.72C98.7422 15.76 99.4022 17.42 99.4022 19.7C99.4022 20.88 99.2022 21.87 98.8022 22.67C98.4022 23.45 97.8922 24.05 97.2722 24.47C96.6522 24.89 96.0022 25.14 95.3222 25.22V25.61C96.5622 25.91 97.5822 26.57 98.3822 27.59C99.2022 28.61 99.6122 29.98 99.6122 31.7C99.6122 32.8 99.3122 33.63 98.7122 34.19C98.1322 34.73 97.3322 35 96.3122 35ZM87.9122 22.43C87.9122 22.87 87.9922 23.16 88.1522 23.3C88.3122 23.44 88.6122 23.51 89.0522 23.51H91.8722C92.7122 23.51 93.3222 23.32 93.7022 22.94C94.0822 22.56 94.2722 22.03 94.2722 21.35C94.2722 20.65 94.0822 20.11 93.7022 19.73C93.3222 19.35 92.7122 19.16 91.8722 19.16H89.0522C88.6122 19.16 88.3122 19.22 88.1522 19.34C87.9922 19.46 87.9122 19.75 87.9122 20.21V22.43ZM103.703 35C102.363 34.8 101.493 34.19 101.093 33.17C100.693 32.13 100.773 30.82 101.333 29.24L105.293 17.99C105.653 16.95 106.063 16.06 106.523 15.32C107.003 14.58 107.593 14.01 108.293 13.61C109.013 13.21 109.903 13.01 110.963 13.01C112.563 13.01 113.763 13.45 114.563 14.33C115.383 15.21 116.063 16.43 116.603 17.99L120.533 29.24C121.093 30.82 121.193 32.13 120.833 33.17C120.493 34.19 119.643 34.8 118.283 35C117.183 35.14 116.223 35.01 115.403 34.61C114.603 34.21 114.123 33.56 113.963 32.66C113.843 32.06 113.823 31.56 113.903 31.16C114.003 30.76 114.093 30.44 114.173 30.2C114.233 30 114.233 29.81 114.173 29.63C114.133 29.43 113.983 29.33 113.723 29.33H108.143C107.883 29.33 107.723 29.43 107.663 29.63C107.623 29.81 107.643 30 107.723 30.2C107.803 30.44 107.883 30.76 107.963 31.16C108.043 31.56 108.033 32.06 107.933 32.66C107.773 33.56 107.303 34.21 106.523 34.61C105.743 35.01 104.803 35.14 103.703 35ZM113.153 25.13L111.593 20.24C111.553 20.04 111.483 19.89 111.383 19.79C111.303 19.67 111.163 19.61 110.963 19.61C110.763 19.61 110.613 19.67 110.513 19.79C110.433 19.89 110.363 20.04 110.303 20.24L108.773 25.13H113.153ZM131.661 35.06C129.701 35.06 127.931 34.66 126.351 33.86C124.791 33.04 123.561 31.83 122.661 30.23C121.761 28.63 121.311 26.66 121.311 24.32C121.311 21.98 121.761 19.96 122.661 18.26C123.581 16.56 124.831 15.26 126.411 14.36C128.011 13.44 129.831 12.98 131.871 12.98C134.231 12.98 136.041 13.31 137.301 13.97C138.561 14.63 139.191 15.61 139.191 16.91C139.191 17.91 138.921 18.74 138.381 19.4C137.841 20.04 137.101 20.36 136.161 20.36C135.361 20.36 134.581 20.26 133.821 20.06C133.081 19.84 132.211 19.73 131.211 19.73C129.931 19.73 128.921 20.1 128.181 20.84C127.441 21.58 127.071 22.55 127.071 23.75C127.071 24.93 127.441 25.92 128.181 26.72C128.921 27.5 129.931 27.89 131.211 27.89C131.891 27.89 132.511 27.84 133.071 27.74C133.651 27.62 134.211 27.5 134.751 27.38C135.311 27.26 135.911 27.2 136.551 27.2C137.611 27.2 138.391 27.55 138.891 28.25C139.391 28.93 139.641 29.78 139.641 30.8C139.641 31.82 139.271 32.65 138.531 33.29C137.791 33.91 136.811 34.36 135.591 34.64C134.391 34.92 133.081 35.06 131.661 35.06ZM143.904 19.82C142.904 19.82 142.084 19.53 141.444 18.95C140.824 18.37 140.514 17.57 140.514 16.55C140.514 15.55 140.794 14.75 141.354 14.15C141.934 13.53 142.784 13.22 143.904 13.22H156.834C157.954 13.22 158.794 13.53 159.354 14.15C159.934 14.75 160.224 15.55 160.224 16.55C160.224 17.57 159.904 18.37 159.264 18.95C158.644 19.53 157.834 19.82 156.834 19.82C156.154 19.82 155.604 19.75 155.184 19.61C154.784 19.45 154.454 19.27 154.194 19.07C153.934 18.85 153.684 18.67 153.444 18.53C153.204 18.37 152.904 18.29 152.544 18.29L152.274 18.83C152.354 19.01 152.494 19.27 152.694 19.61C152.894 19.93 153.084 20.4 153.264 21.02C153.444 21.62 153.534 22.44 153.534 23.48V32.15C153.534 32.97 153.224 33.65 152.604 34.19C152.004 34.73 151.264 35 150.384 35C149.484 35 148.724 34.73 148.104 34.19C147.504 33.65 147.204 32.97 147.204 32.15V23.48C147.204 22.44 147.294 21.62 147.474 21.02C147.654 20.4 147.844 19.93 148.044 19.61C148.264 19.27 148.414 19.01 148.494 18.83L148.194 18.29C147.834 18.29 147.534 18.37 147.294 18.53C147.054 18.67 146.804 18.85 146.544 19.07C146.284 19.27 145.954 19.45 145.554 19.61C145.154 19.75 144.604 19.82 143.904 19.82ZM169.269 35C167.929 34.8 167.059 34.19 166.659 33.17C166.259 32.13 166.339 30.82 166.899 29.24L170.859 17.99C171.219 16.95 171.629 16.06 172.089 15.32C172.569 14.58 173.159 14.01 173.859 13.61C174.579 13.21 175.469 13.01 176.529 13.01C178.129 13.01 179.329 13.45 180.129 14.33C180.949 15.21 181.629 16.43 182.169 17.99L186.099 29.24C186.659 30.82 186.759 32.13 186.399 33.17C186.059 34.19 185.209 34.8 183.849 35C182.749 35.14 181.789 35.01 180.969 34.61C180.169 34.21 179.689 33.56 179.529 32.66C179.409 32.06 179.389 31.56 179.469 31.16C179.569 30.76 179.659 30.44 179.739 30.2C179.799 30 179.799 29.81 179.739 29.63C179.699 29.43 179.549 29.33 179.289 29.33H173.709C173.449 29.33 173.289 29.43 173.229 29.63C173.189 29.81 173.209 30 173.289 30.2C173.369 30.44 173.449 30.76 173.529 31.16C173.609 31.56 173.599 32.06 173.499 32.66C173.339 33.56 172.869 34.21 172.089 34.61C171.309 35.01 170.369 35.14 169.269 35ZM178.719 25.13L177.159 20.24C177.119 20.04 177.049 19.89 176.949 19.79C176.869 19.67 176.729 19.61 176.529 19.61C176.329 19.61 176.179 19.67 176.079 19.79C175.999 19.89 175.929 20.04 175.869 20.24L174.339 25.13H178.719ZM195.938 13.16C198.318 13.16 200.258 13.61 201.758 14.51C203.278 15.39 204.398 16.65 205.118 18.29C205.858 19.91 206.228 21.84 206.228 24.08C206.228 27.84 205.418 30.6 203.798 32.36C202.178 34.12 199.698 35 196.358 35H195.038C194.058 35 193.148 34.9 192.308 34.7C191.468 34.5 190.728 34.14 190.088 33.62C189.448 33.08 188.948 32.33 188.588 31.37C188.228 30.41 188.048 29.17 188.048 27.65C188.048 26.23 188.238 25 188.618 23.96C189.018 22.92 189.488 22.09 190.028 21.47C190.568 20.85 191.058 20.47 191.498 20.33L191.348 19.76H190.838C189.918 19.76 189.188 19.47 188.648 18.89C188.128 18.29 187.858 17.49 187.838 16.49C187.818 15.49 188.078 14.69 188.618 14.09C189.178 13.47 189.918 13.16 190.838 13.16H195.938ZM193.778 27.26C193.778 27.68 193.868 27.97 194.048 28.13C194.248 28.29 194.538 28.37 194.918 28.37H196.538C197.558 28.37 198.348 28.15 198.908 27.71C199.468 27.27 199.858 26.71 200.078 26.03C200.318 25.33 200.438 24.59 200.438 23.81C200.438 23.03 200.318 22.28 200.078 21.56C199.858 20.84 199.468 20.25 198.908 19.79C198.348 19.33 197.558 19.1 196.538 19.1H194.918C194.538 19.1 194.248 19.19 194.048 19.37C193.868 19.53 193.778 19.83 193.778 20.27V27.26ZM215.772 13.16C218.152 13.16 220.092 13.61 221.592 14.51C223.112 15.39 224.232 16.65 224.952 18.29C225.692 19.91 226.062 21.84 226.062 24.08C226.062 27.84 225.252 30.6 223.632 32.36C222.012 34.12 219.532 35 216.192 35H214.872C213.892 35 212.982 34.9 212.142 34.7C211.302 34.5 210.562 34.14 209.922 33.62C209.282 33.08 208.782 32.33 208.422 31.37C208.062 30.41 207.882 29.17 207.882 27.65C207.882 26.23 208.072 25 208.452 23.96C208.852 22.92 209.322 22.09 209.862 21.47C210.402 20.85 210.892 20.47 211.332 20.33L211.182 19.76H210.672C209.752 19.76 209.022 19.47 208.482 18.89C207.962 18.29 207.692 17.49 207.672 16.49C207.652 15.49 207.912 14.69 208.452 14.09C209.012 13.47 209.752 13.16 210.672 13.16H215.772ZM213.612 27.26C213.612 27.68 213.702 27.97 213.882 28.13C214.082 28.29 214.372 28.37 214.752 28.37H216.372C217.392 28.37 218.182 28.15 218.742 27.71C219.302 27.27 219.692 26.71 219.912 26.03C220.152 25.33 220.272 24.59 220.272 23.81C220.272 23.03 220.152 22.28 219.912 21.56C219.692 20.84 219.302 20.25 218.742 19.79C218.182 19.33 217.392 19.1 216.372 19.1H214.752C214.372 19.1 214.082 19.19 213.882 19.37C213.702 19.53 213.612 19.83 213.612 20.27V27.26ZM241.8 35C240.8 35 240.01 34.7 239.43 34.1C238.85 33.48 238.54 32.68 238.5 31.7C238.42 30 237.99 28.8 237.21 28.1C236.45 27.38 235.43 27.02 234.15 27.02H233.55V31.82C233.55 32.86 233.27 33.65 232.71 34.19C232.15 34.73 231.41 35 230.49 35C229.51 35 228.74 34.73 228.18 34.19C227.62 33.65 227.34 32.86 227.34 31.82V27.59C227.34 25.47 227.65 23.86 228.27 22.76C228.91 21.66 229.72 20.87 230.7 20.39L230.55 19.82H230.07C229.15 19.82 228.42 19.53 227.88 18.95C227.36 18.35 227.08 17.54 227.04 16.52C227.02 15.52 227.29 14.71 227.85 14.09C228.41 13.47 229.15 13.16 230.07 13.16H237.72C239.86 13.16 241.59 13.68 242.91 14.72C244.23 15.76 244.89 17.42 244.89 19.7C244.89 20.88 244.69 21.87 244.29 22.67C243.89 23.45 243.38 24.05 242.76 24.47C242.14 24.89 241.49 25.14 240.81 25.22V25.61C242.05 25.91 243.07 26.57 243.87 27.59C244.69 28.61 245.1 29.98 245.1 31.7C245.1 32.8 244.8 33.63 244.2 34.19C243.62 34.73 242.82 35 241.8 35ZM233.4 22.43C233.4 22.87 233.48 23.16 233.64 23.3C233.8 23.44 234.1 23.51 234.54 23.51H237.36C238.2 23.51 238.81 23.32 239.19 22.94C239.57 22.56 239.76 22.03 239.76 21.35C239.76 20.65 239.57 20.11 239.19 19.73C238.81 19.35 238.2 19.16 237.36 19.16H234.54C234.1 19.16 233.8 19.22 233.64 19.34C233.48 19.46 233.4 19.75 233.4 20.21V22.43ZM253.788 34.94C252.808 34.94 251.868 34.85 250.968 34.67C250.088 34.49 249.308 34.15 248.628 33.65C247.968 33.13 247.438 32.39 247.038 31.43C246.658 30.45 246.468 29.17 246.468 27.59C246.468 26.17 246.658 24.95 247.038 23.93C247.418 22.91 247.868 22.1 248.388 21.5C248.928 20.9 249.418 20.53 249.858 20.39L249.708 19.82H249.198C248.278 19.82 247.548 19.53 247.008 18.95C246.488 18.35 246.218 17.54 246.198 16.52C246.178 15.52 246.438 14.72 246.978 14.12C247.538 13.52 248.278 13.22 249.198 13.22H259.968C262.108 13.22 263.178 14.22 263.178 16.22C263.178 17.12 262.918 17.84 262.398 18.38C261.878 18.92 261.068 19.19 259.968 19.19H253.758C253.018 19.19 252.648 19.62 252.648 20.48V22.73C253.648 22.51 254.688 22.25 255.768 21.95C256.868 21.65 257.908 21.5 258.888 21.5C259.828 21.5 260.528 21.71 260.988 22.13C261.468 22.53 261.708 23.08 261.708 23.78C261.708 24.5 261.468 25.07 260.988 25.49C260.528 25.89 259.828 26.1 258.888 26.12C257.908 26.14 256.868 26 255.768 25.7C254.668 25.4 253.618 25.14 252.618 24.92V28.85C252.618 29.23 252.718 29.5 252.918 29.66C253.138 29.8 253.478 29.74 253.938 29.48C254.938 28.9 255.918 28.44 256.878 28.1C257.838 27.74 258.778 27.56 259.698 27.56C260.998 27.56 261.978 27.9 262.638 28.58C263.318 29.26 263.658 30.15 263.658 31.25C263.658 32.43 263.298 33.34 262.578 33.98C261.878 34.62 260.738 34.94 259.158 34.94H253.788ZM274.136 35.09C273.016 35.09 271.886 34.98 270.746 34.76C269.626 34.52 268.586 34.18 267.626 33.74C266.686 33.28 265.926 32.73 265.346 32.09C264.766 31.43 264.476 30.67 264.476 29.81C264.476 28.71 264.826 27.83 265.526 27.17C266.226 26.51 267.046 26.2 267.986 26.24C268.726 26.26 269.466 26.42 270.206 26.72C270.946 27 271.696 27.28 272.456 27.56C273.236 27.84 274.016 27.98 274.796 27.98C275.576 27.98 276.116 27.88 276.416 27.68C276.716 27.48 276.866 27.21 276.866 26.87C276.866 26.47 276.656 26.14 276.236 25.88C275.816 25.62 275.286 25.42 274.646 25.28L273.176 24.92C271.656 24.56 270.296 24.16 269.096 23.72C267.896 23.26 266.946 22.66 266.246 21.92C265.566 21.16 265.226 20.15 265.226 18.89C265.226 17.51 265.606 16.39 266.366 15.53C267.126 14.65 268.156 14.01 269.456 13.61C270.756 13.21 272.206 13.01 273.806 13.01C275.446 13.01 276.886 13.18 278.126 13.52C279.366 13.86 280.326 14.35 281.006 14.99C281.706 15.63 282.056 16.41 282.056 17.33C282.056 18.31 281.786 19.08 281.246 19.64C280.726 20.18 280.026 20.45 279.146 20.45C278.566 20.45 277.956 20.35 277.316 20.15C276.696 19.95 276.036 19.76 275.336 19.58C274.656 19.38 273.926 19.28 273.146 19.28C272.446 19.28 271.916 19.39 271.556 19.61C271.196 19.81 271.016 20.08 271.016 20.42C271.016 20.84 271.256 21.15 271.736 21.35C272.216 21.55 273.006 21.79 274.106 22.07L275.786 22.46C277.166 22.8 278.376 23.21 279.416 23.69C280.456 24.17 281.266 24.8 281.846 25.58C282.426 26.36 282.716 27.38 282.716 28.64C282.716 30.16 282.356 31.4 281.636 32.36C280.916 33.3 279.916 33.99 278.636 34.43C277.356 34.87 275.856 35.09 274.136 35.09ZM293.149 35.09C292.029 35.09 290.899 34.98 289.759 34.76C288.639 34.52 287.599 34.18 286.639 33.74C285.699 33.28 284.939 32.73 284.359 32.09C283.779 31.43 283.489 30.67 283.489 29.81C283.489 28.71 283.839 27.83 284.539 27.17C285.239 26.51 286.059 26.2 286.999 26.24C287.739 26.26 288.479 26.42 289.219 26.72C289.959 27 290.709 27.28 291.469 27.56C292.249 27.84 293.029 27.98 293.809 27.98C294.589 27.98 295.129 27.88 295.429 27.68C295.729 27.48 295.879 27.21 295.879 26.87C295.879 26.47 295.669 26.14 295.249 25.88C294.829 25.62 294.299 25.42 293.659 25.28L292.189 24.92C290.669 24.56 289.309 24.16 288.109 23.72C286.909 23.26 285.959 22.66 285.259 21.92C284.579 21.16 284.239 20.15 284.239 18.89C284.239 17.51 284.619 16.39 285.379 15.53C286.139 14.65 287.169 14.01 288.469 13.61C289.769 13.21 291.219 13.01 292.819 13.01C294.459 13.01 295.899 13.18 297.139 13.52C298.379 13.86 299.339 14.35 300.019 14.99C300.719 15.63 301.069 16.41 301.069 17.33C301.069 18.31 300.799 19.08 300.259 19.64C299.739 20.18 299.039 20.45 298.159 20.45C297.579 20.45 296.969 20.35 296.329 20.15C295.709 19.95 295.049 19.76 294.349 19.58C293.669 19.38 292.939 19.28 292.159 19.28C291.459 19.28 290.929 19.39 290.569 19.61C290.209 19.81 290.029 20.08 290.029 20.42C290.029 20.84 290.269 21.15 290.749 21.35C291.229 21.55 292.019 21.79 293.119 22.07L294.799 22.46C296.179 22.8 297.389 23.21 298.429 23.69C299.469 24.17 300.279 24.8 300.859 25.58C301.439 26.36 301.729 27.38 301.729 28.64C301.729 30.16 301.369 31.4 300.649 32.36C299.929 33.3 298.929 33.99 297.649 34.43C296.369 34.87 294.869 35.09 293.149 35.09Z" fill="black"/>
</svg>
