<svg width="701" height="658" viewBox="0 0 701 658" fill="none" xmlns="http://www.w3.org/2000/svg">
<rect x="1.5" y="1.5" width="698" height="655" rx="48.5" fill="#FFD401" stroke="black" stroke-width="3"/>
<path d="M100.451 115.94L109.451 103.22C111.051 100.94 112.791 99.66 114.671 99.38C116.551 99.06 118.251 99.5 119.771 100.7C120.771 101.46 121.431 102.48 121.751 103.76C122.071 105.04 121.971 106.4 121.451 107.84C120.931 109.28 119.891 110.64 118.331 111.92L108.311 120.02V121.28C109.591 121.28 111.091 121.44 112.811 121.76C114.531 122.08 116.091 122.8 117.491 123.92C118.611 124.76 119.571 125.72 120.371 126.8C121.211 127.88 121.871 129.22 122.351 130.82C122.831 132.38 123.071 134.36 123.071 136.76C123.071 138.72 122.531 140.3 121.451 141.5C120.411 142.66 118.851 143.24 116.771 143.24C114.691 143.24 113.091 142.66 111.971 141.5C110.891 140.3 110.351 138.72 110.351 136.76C110.351 134.56 109.991 132.82 109.271 131.54C108.591 130.22 107.671 129.26 106.511 128.66C105.351 128.06 104.091 127.76 102.731 127.76H99.7907V137.18C99.7907 138.9 99.1907 140.32 97.9907 141.44C96.8307 142.56 95.3307 143.12 93.4907 143.12C91.6507 143.12 90.1307 142.56 88.9307 141.44C87.7707 140.32 87.1907 138.9 87.1907 137.18V105.44C87.1907 103.68 87.7707 102.2 88.9307 101C90.0907 99.8 91.6107 99.2 93.4907 99.2C95.4907 99.2 97.0307 99.8 98.1107 101C99.2307 102.16 99.7907 103.6 99.7907 105.32V115.82L100.451 115.94ZM140.443 142.88C138.483 142.88 136.603 142.7 134.803 142.34C133.043 141.98 131.483 141.3 130.123 140.3C128.803 139.26 127.743 137.78 126.943 135.86C126.183 133.9 125.803 131.34 125.803 128.18C125.803 125.34 126.183 122.9 126.943 120.86C127.703 118.82 128.603 117.2 129.643 116C130.723 114.8 131.703 114.06 132.583 113.78L132.283 112.64H131.263C129.423 112.64 127.963 112.06 126.883 110.9C125.843 109.7 125.303 108.08 125.263 106.04C125.223 104.04 125.743 102.44 126.823 101.24C127.943 100.04 129.423 99.44 131.263 99.44H152.803C157.083 99.44 159.223 101.44 159.223 105.44C159.223 107.24 158.703 108.68 157.663 109.76C156.623 110.84 155.003 111.38 152.803 111.38H140.383C138.903 111.38 138.163 112.24 138.163 113.96V118.46C140.163 118.02 142.243 117.5 144.403 116.9C146.603 116.3 148.683 116 150.643 116C152.523 116 153.923 116.42 154.843 117.26C155.803 118.06 156.283 119.16 156.283 120.56C156.283 122 155.803 123.14 154.843 123.98C153.923 124.78 152.523 125.2 150.643 125.24C148.683 125.28 146.603 125 144.403 124.4C142.203 123.8 140.103 123.28 138.103 122.84V130.7C138.103 131.46 138.303 132 138.703 132.32C139.143 132.6 139.823 132.48 140.743 131.96C142.743 130.8 144.703 129.88 146.623 129.2C148.543 128.48 150.423 128.12 152.263 128.12C154.863 128.12 156.823 128.8 158.143 130.16C159.503 131.52 160.183 133.3 160.183 135.5C160.183 137.86 159.463 139.68 158.023 140.96C156.623 142.24 154.343 142.88 151.183 142.88H140.443ZM163.198 110.9C162.038 108.42 161.778 106.2 162.418 104.24C163.058 102.24 164.278 100.84 166.078 100.04C167.918 99.24 169.778 99.24 171.658 100.04C173.578 100.8 174.978 102.42 175.858 104.9C176.298 106.14 176.618 107.58 176.818 109.22C177.018 110.82 177.238 112.38 177.478 113.9C177.758 115.38 178.198 116.62 178.798 117.62C179.438 118.58 180.418 119.06 181.738 119.06C183.058 119.06 184.038 118.58 184.678 117.62C185.318 116.62 185.758 115.38 185.998 113.9C186.278 112.38 186.498 110.82 186.658 109.22C186.858 107.58 187.178 106.14 187.618 104.9C188.538 102.42 189.938 100.8 191.818 100.04C193.698 99.24 195.558 99.24 197.398 100.04C199.198 100.84 200.418 102.24 201.058 104.24C201.698 106.2 201.438 108.42 200.278 110.9C199.678 112.18 198.878 113.4 197.878 114.56C196.918 115.68 195.858 116.84 194.698 118.04C193.538 119.24 192.378 120.58 191.218 122.06C190.058 123.5 188.998 125.16 188.038 127.04V137.3C188.038 138.94 187.438 140.3 186.238 141.38C185.038 142.46 183.538 143 181.738 143C179.978 143 178.478 142.46 177.238 141.38C176.038 140.3 175.438 138.94 175.438 137.3V127.04C174.518 125.16 173.478 123.5 172.318 122.06C171.158 120.58 169.998 119.24 168.838 118.04C167.678 116.84 166.598 115.68 165.598 114.56C164.598 113.4 163.798 112.18 163.198 110.9ZM233.931 143.18C231.691 143.18 229.431 142.96 227.151 142.52C224.911 142.04 222.831 141.36 220.911 140.48C219.031 139.56 217.511 138.46 216.351 137.18C215.191 135.86 214.611 134.34 214.611 132.62C214.611 130.42 215.311 128.66 216.711 127.34C218.111 126.02 219.751 125.4 221.631 125.48C223.111 125.52 224.591 125.84 226.071 126.44C227.551 127 229.051 127.56 230.571 128.12C232.131 128.68 233.691 128.96 235.251 128.96C236.811 128.96 237.891 128.76 238.491 128.36C239.091 127.96 239.391 127.42 239.391 126.74C239.391 125.94 238.971 125.28 238.131 124.76C237.291 124.24 236.231 123.84 234.951 123.56L232.011 122.84C228.971 122.12 226.251 121.32 223.851 120.44C221.451 119.52 219.551 118.32 218.151 116.84C216.791 115.32 216.111 113.3 216.111 110.78C216.111 108.02 216.871 105.78 218.391 104.06C219.911 102.3 221.971 101.02 224.571 100.22C227.171 99.42 230.071 99.02 233.271 99.02C236.551 99.02 239.431 99.36 241.911 100.04C244.391 100.72 246.311 101.7 247.671 102.98C249.071 104.26 249.771 105.82 249.771 107.66C249.771 109.62 249.231 111.16 248.151 112.28C247.111 113.36 245.711 113.9 243.951 113.9C242.791 113.9 241.571 113.7 240.291 113.3C239.051 112.9 237.731 112.52 236.331 112.16C234.971 111.76 233.511 111.56 231.951 111.56C230.551 111.56 229.491 111.78 228.771 112.22C228.051 112.62 227.691 113.16 227.691 113.84C227.691 114.68 228.171 115.3 229.131 115.7C230.091 116.1 231.671 116.58 233.871 117.14L237.231 117.92C239.991 118.6 242.411 119.42 244.491 120.38C246.571 121.34 248.191 122.6 249.351 124.16C250.511 125.72 251.091 127.76 251.091 130.28C251.091 133.32 250.371 135.8 248.931 137.72C247.491 139.6 245.491 140.98 242.931 141.86C240.371 142.74 237.371 143.18 233.931 143.18ZM258.878 112.64C256.878 112.64 255.238 112.06 253.958 110.9C252.718 109.74 252.098 108.14 252.098 106.1C252.098 104.1 252.658 102.5 253.778 101.3C254.938 100.06 256.638 99.44 258.878 99.44H284.738C286.978 99.44 288.658 100.06 289.778 101.3C290.938 102.5 291.518 104.1 291.518 106.1C291.518 108.14 290.878 109.74 289.598 110.9C288.358 112.06 286.738 112.64 284.738 112.64C283.378 112.64 282.278 112.5 281.438 112.22C280.638 111.9 279.978 111.54 279.458 111.14C278.938 110.7 278.438 110.34 277.958 110.06C277.478 109.74 276.878 109.58 276.158 109.58L275.618 110.66C275.778 111.02 276.058 111.54 276.458 112.22C276.858 112.86 277.238 113.8 277.598 115.04C277.958 116.24 278.138 117.88 278.138 119.96V137.3C278.138 138.94 277.518 140.3 276.278 141.38C275.078 142.46 273.598 143 271.838 143C270.038 143 268.518 142.46 267.278 141.38C266.078 140.3 265.478 138.94 265.478 137.3V119.96C265.478 117.88 265.658 116.24 266.018 115.04C266.378 113.8 266.758 112.86 267.158 112.22C267.598 111.54 267.898 111.02 268.058 110.66L267.458 109.58C266.738 109.58 266.138 109.74 265.658 110.06C265.178 110.34 264.678 110.7 264.158 111.14C263.638 111.54 262.978 111.9 262.178 112.22C261.378 112.5 260.278 112.64 258.878 112.64ZM290.272 143C287.592 142.6 285.852 141.38 285.052 139.34C284.252 137.26 284.412 134.64 285.532 131.48L293.452 108.98C294.172 106.9 294.992 105.12 295.912 103.64C296.872 102.16 298.052 101.02 299.452 100.22C300.892 99.42 302.672 99.02 304.792 99.02C307.992 99.02 310.392 99.9 311.992 101.66C313.632 103.42 314.992 105.86 316.072 108.98L323.932 131.48C325.052 134.64 325.252 137.26 324.532 139.34C323.852 141.38 322.152 142.6 319.432 143C317.232 143.28 315.312 143.02 313.672 142.22C312.072 141.42 311.112 140.12 310.792 138.32C310.552 137.12 310.512 136.12 310.672 135.32C310.872 134.52 311.052 133.88 311.212 133.4C311.332 133 311.332 132.62 311.212 132.26C311.132 131.86 310.832 131.66 310.312 131.66H299.152C298.632 131.66 298.312 131.86 298.192 132.26C298.112 132.62 298.152 133 298.312 133.4C298.472 133.88 298.632 134.52 298.792 135.32C298.952 136.12 298.932 137.12 298.732 138.32C298.412 140.12 297.472 141.42 295.912 142.22C294.352 143.02 292.472 143.28 290.272 143ZM309.172 123.26L306.052 113.48C305.972 113.08 305.832 112.78 305.632 112.58C305.472 112.34 305.192 112.22 304.792 112.22C304.392 112.22 304.092 112.34 303.892 112.58C303.732 112.78 303.592 113.08 303.472 113.48L300.412 123.26H309.172ZM325.382 112.64C323.382 112.64 321.742 112.06 320.462 110.9C319.222 109.74 318.602 108.14 318.602 106.1C318.602 104.1 319.162 102.5 320.282 101.3C321.442 100.06 323.142 99.44 325.382 99.44H351.242C353.482 99.44 355.162 100.06 356.282 101.3C357.442 102.5 358.022 104.1 358.022 106.1C358.022 108.14 357.382 109.74 356.102 110.9C354.862 112.06 353.242 112.64 351.242 112.64C349.882 112.64 348.782 112.5 347.942 112.22C347.142 111.9 346.482 111.54 345.962 111.14C345.442 110.7 344.942 110.34 344.462 110.06C343.982 109.74 343.382 109.58 342.662 109.58L342.122 110.66C342.282 111.02 342.562 111.54 342.962 112.22C343.362 112.86 343.742 113.8 344.102 115.04C344.462 116.24 344.642 117.88 344.642 119.96V137.3C344.642 138.94 344.022 140.3 342.782 141.38C341.582 142.46 340.102 143 338.342 143C336.542 143 335.022 142.46 333.782 141.38C332.582 140.3 331.982 138.94 331.982 137.3V119.96C331.982 117.88 332.162 116.24 332.522 115.04C332.882 113.8 333.262 112.86 333.662 112.22C334.102 111.54 334.402 111.02 334.562 110.66L333.962 109.58C333.242 109.58 332.642 109.74 332.162 110.06C331.682 110.34 331.182 110.7 330.662 111.14C330.142 111.54 329.482 111.9 328.682 112.22C327.882 112.5 326.782 112.64 325.382 112.64ZM377.134 143.18C374.894 143.18 372.634 142.96 370.354 142.52C368.114 142.04 366.034 141.36 364.114 140.48C362.234 139.56 360.714 138.46 359.554 137.18C358.394 135.86 357.814 134.34 357.814 132.62C357.814 130.42 358.514 128.66 359.914 127.34C361.314 126.02 362.954 125.4 364.834 125.48C366.314 125.52 367.794 125.84 369.274 126.44C370.754 127 372.254 127.56 373.774 128.12C375.334 128.68 376.894 128.96 378.454 128.96C380.014 128.96 381.094 128.76 381.694 128.36C382.294 127.96 382.594 127.42 382.594 126.74C382.594 125.94 382.174 125.28 381.334 124.76C380.494 124.24 379.434 123.84 378.154 123.56L375.214 122.84C372.174 122.12 369.454 121.32 367.054 120.44C364.654 119.52 362.754 118.32 361.354 116.84C359.994 115.32 359.314 113.3 359.314 110.78C359.314 108.02 360.074 105.78 361.594 104.06C363.114 102.3 365.174 101.02 367.774 100.22C370.374 99.42 373.274 99.02 376.474 99.02C379.754 99.02 382.634 99.36 385.114 100.04C387.594 100.72 389.514 101.7 390.874 102.98C392.274 104.26 392.974 105.82 392.974 107.66C392.974 109.62 392.434 111.16 391.354 112.28C390.314 113.36 388.914 113.9 387.154 113.9C385.994 113.9 384.774 113.7 383.494 113.3C382.254 112.9 380.934 112.52 379.534 112.16C378.174 111.76 376.714 111.56 375.154 111.56C373.754 111.56 372.694 111.78 371.974 112.22C371.254 112.62 370.894 113.16 370.894 113.84C370.894 114.68 371.374 115.3 372.334 115.7C373.294 116.1 374.874 116.58 377.074 117.14L380.434 117.92C383.194 118.6 385.614 119.42 387.694 120.38C389.774 121.34 391.394 122.6 392.554 124.16C393.714 125.72 394.294 127.76 394.294 130.28C394.294 133.32 393.574 135.8 392.134 137.72C390.694 139.6 388.694 140.98 386.134 141.86C383.574 142.74 380.574 143.18 377.134 143.18Z" fill="black"/>
<line x1="59.0794" y1="194.5" x2="606.7" y2="194.5" stroke="black"/>
<line x1="63.624" y1="380.5" x2="611.245" y2="380.5" stroke="black"/>
<line x1="63.624" y1="510.5" x2="611.245" y2="510.5" stroke="black"/>
<path d="M123.519 277C122.132 277 121.106 276.587 120.439 275.76C119.772 274.933 119.439 273.827 119.439 272.44V253.8C119.439 251.773 119.986 250.28 121.079 249.32C122.199 248.36 123.532 247.88 125.079 247.88C126.546 247.88 127.786 248.36 128.799 249.32C129.839 250.28 130.599 251.8 131.079 253.88L134.199 267.44H135.239L138.359 253.88C138.839 251.8 139.599 250.28 140.639 249.32C141.706 248.36 142.972 247.88 144.439 247.88C145.986 247.88 147.306 248.36 148.399 249.32C149.519 250.28 150.079 251.773 150.079 253.8V272.44C150.079 273.827 149.732 274.933 149.039 275.76C148.372 276.587 147.346 277 145.959 277C144.626 277 143.599 276.587 142.879 275.76C142.159 274.933 141.799 273.827 141.799 272.44V261.68C141.799 261.413 141.759 261.173 141.679 260.96C141.626 260.72 141.452 260.6 141.159 260.6C140.919 260.6 140.746 260.72 140.639 260.96C140.532 261.173 140.452 261.413 140.399 261.68L138.879 271.76C138.692 272.853 138.466 273.8 138.199 274.6C137.959 275.373 137.572 275.973 137.039 276.4C136.506 276.8 135.732 277 134.719 277C133.732 277 132.959 276.8 132.399 276.4C131.866 275.973 131.466 275.373 131.199 274.6C130.959 273.8 130.759 272.853 130.599 271.76L129.039 261.68C129.012 261.413 128.946 261.173 128.839 260.96C128.732 260.72 128.546 260.6 128.279 260.6C128.012 260.6 127.839 260.72 127.759 260.96C127.679 261.173 127.639 261.413 127.639 261.68V272.44C127.639 273.827 127.279 274.933 126.559 275.76C125.866 276.587 124.852 277 123.519 277ZM155.882 277C154.095 276.733 152.935 275.92 152.402 274.56C151.869 273.173 151.975 271.427 152.722 269.32L158.002 254.32C158.482 252.933 159.029 251.747 159.642 250.76C160.282 249.773 161.069 249.013 162.002 248.48C162.962 247.947 164.149 247.68 165.562 247.68C167.695 247.68 169.295 248.267 170.362 249.44C171.455 250.613 172.362 252.24 173.082 254.32L178.322 269.32C179.069 271.427 179.202 273.173 178.722 274.56C178.269 275.92 177.135 276.733 175.322 277C173.855 277.187 172.575 277.013 171.482 276.48C170.415 275.947 169.775 275.08 169.562 273.88C169.402 273.08 169.375 272.413 169.482 271.88C169.615 271.347 169.735 270.92 169.842 270.6C169.922 270.333 169.922 270.08 169.842 269.84C169.789 269.573 169.589 269.44 169.242 269.44H161.802C161.455 269.44 161.242 269.573 161.162 269.84C161.109 270.08 161.135 270.333 161.242 270.6C161.349 270.92 161.455 271.347 161.562 271.88C161.669 272.413 161.655 273.08 161.522 273.88C161.309 275.08 160.682 275.947 159.642 276.48C158.602 277.013 157.349 277.187 155.882 277ZM168.482 263.84L166.402 257.32C166.349 257.053 166.255 256.853 166.122 256.72C166.015 256.56 165.829 256.48 165.562 256.48C165.295 256.48 165.095 256.56 164.962 256.72C164.855 256.853 164.762 257.053 164.682 257.32L162.642 263.84H168.482ZM181.801 268.6C182.788 267.293 183.881 266.173 185.081 265.24C186.281 264.28 187.615 263.347 189.081 262.44C188.415 261.693 187.681 261.027 186.881 260.44C186.108 259.853 185.321 259.253 184.521 258.64C183.748 258 183.001 257.253 182.281 256.4C181.588 255.52 181.108 254.6 180.841 253.64C180.575 252.653 180.575 251.707 180.841 250.8C181.135 249.893 181.721 249.147 182.601 248.56C183.561 247.893 184.535 247.653 185.521 247.84C186.508 248 187.441 248.467 188.321 249.24C189.201 249.987 189.961 250.933 190.601 252.08C191.188 253.093 191.761 254.067 192.321 255C192.881 255.907 193.428 256.747 193.961 257.52C194.681 256.827 195.201 256.173 195.521 255.56C195.841 254.92 196.121 254.227 196.361 253.48C196.628 252.733 197.001 251.867 197.481 250.88C197.881 250.027 198.428 249.347 199.121 248.84C199.841 248.307 200.641 248 201.521 247.92C202.401 247.84 203.268 248.067 204.121 248.6C204.975 249.107 205.535 249.813 205.801 250.72C206.095 251.6 206.108 252.547 205.841 253.56C205.601 254.573 205.108 255.533 204.361 256.44C203.508 257.453 202.468 258.36 201.241 259.16C200.041 259.933 198.775 260.627 197.441 261.24C198.775 262.467 200.068 263.627 201.321 264.72C202.575 265.813 203.708 267.08 204.721 268.52C205.735 269.96 206.201 271.413 206.121 272.88C206.068 274.347 205.415 275.493 204.161 276.32C202.855 277.147 201.508 277.307 200.121 276.8C198.735 276.293 197.521 275.267 196.481 273.72C195.468 272.173 194.628 270.84 193.961 269.72C193.321 268.573 192.695 267.493 192.081 266.48C191.868 267.013 191.681 267.627 191.521 268.32C191.388 269.013 191.188 269.813 190.921 270.72C190.681 271.627 190.268 272.68 189.681 273.88C189.201 274.92 188.535 275.72 187.681 276.28C186.828 276.813 185.908 277.053 184.921 277C183.935 276.973 182.988 276.627 182.081 275.96C181.335 275.373 180.841 274.667 180.601 273.84C180.388 272.987 180.388 272.107 180.601 271.2C180.815 270.267 181.215 269.4 181.801 268.6ZM218.937 256.76C217.604 256.76 216.511 256.373 215.657 255.6C214.831 254.827 214.417 253.76 214.417 252.4C214.417 251.067 214.791 250 215.537 249.2C216.311 248.373 217.444 247.96 218.937 247.96H236.177C237.671 247.96 238.791 248.373 239.537 249.2C240.311 250 240.697 251.067 240.697 252.4C240.697 253.76 240.271 254.827 239.417 255.6C238.591 256.373 237.511 256.76 236.177 256.76C235.271 256.76 234.537 256.667 233.977 256.48C233.444 256.267 233.004 256.027 232.657 255.76C232.311 255.467 231.977 255.227 231.657 255.04C231.337 254.827 230.937 254.72 230.457 254.72L230.097 255.44C230.204 255.68 230.391 256.027 230.657 256.48C230.924 256.907 231.177 257.533 231.417 258.36C231.657 259.16 231.777 260.253 231.777 261.64V273.2C231.777 274.293 231.364 275.2 230.537 275.92C229.737 276.64 228.751 277 227.577 277C226.377 277 225.364 276.64 224.537 275.92C223.737 275.2 223.337 274.293 223.337 273.2V261.64C223.337 260.253 223.457 259.16 223.697 258.36C223.937 257.533 224.191 256.907 224.457 256.48C224.751 256.027 224.951 255.68 225.057 255.44L224.657 254.72C224.177 254.72 223.777 254.827 223.457 255.04C223.137 255.227 222.804 255.467 222.457 255.76C222.111 256.027 221.671 256.267 221.137 256.48C220.604 256.667 219.871 256.76 218.937 256.76ZM253.257 277.12C250.404 277.12 247.991 276.493 246.017 275.24C244.044 273.987 242.551 272.253 241.537 270.04C240.524 267.827 240.017 265.28 240.017 262.4C240.017 259.547 240.524 257.013 241.537 254.8C242.551 252.56 244.044 250.813 246.017 249.56C247.991 248.28 250.404 247.64 253.257 247.64C256.111 247.64 258.511 248.28 260.457 249.56C262.431 250.813 263.924 252.56 264.937 254.8C265.951 257.013 266.457 259.547 266.457 262.4C266.457 265.28 265.951 267.827 264.937 270.04C263.924 272.253 262.431 273.987 260.457 275.24C258.511 276.493 256.111 277.12 253.257 277.12ZM245.057 261.76C245.057 262.587 245.257 263.373 245.657 264.12C246.057 264.84 246.844 265.427 248.017 265.88C249.191 266.307 250.937 266.52 253.257 266.52C255.577 266.52 257.311 266.307 258.457 265.88C259.631 265.427 260.417 264.84 260.817 264.12C261.217 263.373 261.417 262.587 261.417 261.76C261.417 260.907 261.217 260.147 260.817 259.48C260.417 258.787 259.631 258.24 258.457 257.84C257.311 257.413 255.577 257.2 253.257 257.2C250.937 257.2 249.191 257.413 248.017 257.84C246.844 258.24 246.057 258.787 245.657 259.48C245.257 260.147 245.057 260.907 245.057 261.76ZM270.578 256.76C269.245 256.76 268.151 256.373 267.298 255.6C266.471 254.827 266.058 253.76 266.058 252.4C266.058 251.067 266.431 250 267.178 249.2C267.951 248.373 269.085 247.96 270.578 247.96H287.818C289.311 247.96 290.431 248.373 291.178 249.2C291.951 250 292.338 251.067 292.338 252.4C292.338 253.76 291.911 254.827 291.058 255.6C290.231 256.373 289.151 256.76 287.818 256.76C286.911 256.76 286.178 256.667 285.618 256.48C285.085 256.267 284.645 256.027 284.298 255.76C283.951 255.467 283.618 255.227 283.298 255.04C282.978 254.827 282.578 254.72 282.098 254.72L281.738 255.44C281.845 255.68 282.031 256.027 282.298 256.48C282.565 256.907 282.818 257.533 283.058 258.36C283.298 259.16 283.418 260.253 283.418 261.64V273.2C283.418 274.293 283.005 275.2 282.178 275.92C281.378 276.64 280.391 277 279.218 277C278.018 277 277.005 276.64 276.178 275.92C275.378 275.2 274.978 274.293 274.978 273.2V261.64C274.978 260.253 275.098 259.16 275.338 258.36C275.578 257.533 275.831 256.907 276.098 256.48C276.391 256.027 276.591 255.68 276.698 255.44L276.298 254.72C275.818 254.72 275.418 254.827 275.098 255.04C274.778 255.227 274.445 255.467 274.098 255.76C273.751 256.027 273.311 256.267 272.778 256.48C272.245 256.667 271.511 256.76 270.578 256.76ZM291.507 277C289.72 276.733 288.56 275.92 288.027 274.56C287.494 273.173 287.6 271.427 288.347 269.32L293.627 254.32C294.107 252.933 294.654 251.747 295.267 250.76C295.907 249.773 296.694 249.013 297.627 248.48C298.587 247.947 299.774 247.68 301.187 247.68C303.32 247.68 304.92 248.267 305.987 249.44C307.08 250.613 307.987 252.24 308.707 254.32L313.947 269.32C314.694 271.427 314.827 273.173 314.347 274.56C313.894 275.92 312.76 276.733 310.947 277C309.48 277.187 308.2 277.013 307.107 276.48C306.04 275.947 305.4 275.08 305.187 273.88C305.027 273.08 305 272.413 305.107 271.88C305.24 271.347 305.36 270.92 305.467 270.6C305.547 270.333 305.547 270.08 305.467 269.84C305.414 269.573 305.214 269.44 304.867 269.44H297.427C297.08 269.44 296.867 269.573 296.787 269.84C296.734 270.08 296.76 270.333 296.867 270.6C296.974 270.92 297.08 271.347 297.187 271.88C297.294 272.413 297.28 273.08 297.147 273.88C296.934 275.08 296.307 275.947 295.267 276.48C294.227 277.013 292.974 277.187 291.507 277ZM304.107 263.84L302.027 257.32C301.974 257.053 301.88 256.853 301.747 256.72C301.64 256.56 301.454 256.48 301.187 256.48C300.92 256.48 300.72 256.56 300.587 256.72C300.48 256.853 300.387 257.053 300.307 257.32L298.267 263.84H304.107ZM316.626 251.76C316.626 250.533 317 249.587 317.746 248.92C318.52 248.227 319.506 247.88 320.706 247.88C321.96 247.88 322.96 248.227 323.706 248.92C324.453 249.587 324.826 250.533 324.826 251.76V268.8C324.826 269.307 324.96 269.667 325.226 269.88C325.493 270.067 325.933 269.987 326.546 269.64C327.88 268.867 329.066 268.253 330.106 267.8C331.146 267.32 332.293 267.08 333.546 267.08C335.28 267.08 336.586 267.533 337.466 268.44C338.346 269.347 338.786 270.533 338.786 272C338.786 273.573 338.306 274.787 337.346 275.64C336.413 276.493 334.906 276.92 332.826 276.92H324.586C322.826 276.92 321.36 276.72 320.186 276.32C319.013 275.893 318.12 275.133 317.506 274.04C316.92 272.947 316.626 271.36 316.626 269.28V251.76ZM131.759 335.12C130.266 335.12 128.759 334.973 127.239 334.68C125.746 334.36 124.359 333.907 123.079 333.32C121.826 332.707 120.812 331.973 120.039 331.12C119.266 330.24 118.879 329.227 118.879 328.08C118.879 326.613 119.346 325.44 120.279 324.56C121.212 323.68 122.306 323.267 123.559 323.32C124.546 323.347 125.532 323.56 126.519 323.96C127.506 324.333 128.506 324.707 129.519 325.08C130.559 325.453 131.599 325.64 132.639 325.64C133.679 325.64 134.399 325.507 134.799 325.24C135.199 324.973 135.399 324.613 135.399 324.16C135.399 323.627 135.119 323.187 134.559 322.84C133.999 322.493 133.292 322.227 132.439 322.04L130.479 321.56C128.452 321.08 126.639 320.547 125.039 319.96C123.439 319.347 122.172 318.547 121.239 317.56C120.332 316.547 119.879 315.2 119.879 313.52C119.879 311.68 120.386 310.187 121.399 309.04C122.412 307.867 123.786 307.013 125.519 306.48C127.252 305.947 129.186 305.68 131.319 305.68C133.506 305.68 135.426 305.907 137.079 306.36C138.732 306.813 140.012 307.467 140.919 308.32C141.852 309.173 142.319 310.213 142.319 311.44C142.319 312.747 141.959 313.773 141.239 314.52C140.546 315.24 139.612 315.6 138.439 315.6C137.666 315.6 136.852 315.467 135.999 315.2C135.172 314.933 134.292 314.68 133.359 314.44C132.452 314.173 131.479 314.04 130.439 314.04C129.506 314.04 128.799 314.187 128.319 314.48C127.839 314.747 127.599 315.107 127.599 315.56C127.599 316.12 127.919 316.533 128.559 316.8C129.199 317.067 130.252 317.387 131.719 317.76L133.959 318.28C135.799 318.733 137.412 319.28 138.799 319.92C140.186 320.56 141.266 321.4 142.039 322.44C142.812 323.48 143.199 324.84 143.199 326.52C143.199 328.547 142.719 330.2 141.759 331.48C140.799 332.733 139.466 333.653 137.759 334.24C136.052 334.827 134.052 335.12 131.759 335.12ZM157.341 335.12C155.741 335.093 154.208 334.88 152.741 334.48C151.301 334.08 150.008 333.427 148.861 332.52C147.714 331.613 146.808 330.4 146.141 328.88C145.501 327.36 145.181 325.48 145.181 323.24V309.68C145.181 308.4 145.594 307.453 146.421 306.84C147.274 306.2 148.261 305.88 149.381 305.88C150.474 305.88 151.448 306.2 152.301 306.84C153.154 307.453 153.581 308.4 153.581 309.68V321.36C153.581 323.253 154.021 324.64 154.901 325.52C155.808 326.4 156.968 326.8 158.381 326.72C159.874 326.613 160.941 326.04 161.581 325C162.248 323.96 162.434 322.573 162.141 320.84C161.954 319.667 161.741 318.68 161.501 317.88C161.288 317.08 161.061 316.373 160.821 315.76C160.608 315.12 160.421 314.493 160.261 313.88C160.101 313.24 159.981 312.493 159.901 311.64C159.741 309.853 160.101 308.453 160.981 307.44C161.888 306.4 163.074 305.88 164.541 305.88C166.008 305.88 167.154 306.373 167.981 307.36C168.808 308.347 169.221 309.84 169.221 311.84V323.24C169.221 325.48 168.901 327.373 168.261 328.92C167.648 330.44 166.781 331.667 165.661 332.6C164.568 333.507 163.301 334.16 161.861 334.56C160.448 334.933 158.941 335.12 157.341 335.12ZM180.024 325.76V330.76C180.024 332.147 179.65 333.2 178.904 333.92C178.184 334.64 177.224 335 176.024 335H175.984C174.677 335 173.637 334.64 172.864 333.92C172.117 333.2 171.744 332.147 171.744 330.76V325.12C171.744 322.293 172.17 320.147 173.024 318.68C173.877 317.213 174.957 316.16 176.264 315.52L176.064 314.76H175.384C174.157 314.76 173.184 314.373 172.464 313.6C171.77 312.8 171.41 311.72 171.384 310.36C171.357 309.027 171.704 307.947 172.424 307.12C173.17 306.293 174.157 305.88 175.384 305.88H185.904C188.597 305.88 190.784 306.693 192.464 308.32C194.17 309.92 195.024 312.453 195.024 315.92C195.024 318.427 194.584 320.4 193.704 321.84C192.824 323.28 191.664 324.293 190.224 324.88C188.784 325.467 187.224 325.76 185.544 325.76H180.024ZM179.504 318.04C179.504 318.627 179.61 319.013 179.824 319.2C180.064 319.387 180.477 319.48 181.064 319.48H184.784C185.904 319.48 186.717 319.227 187.224 318.72C187.73 318.187 187.984 317.44 187.984 316.48C187.984 315.52 187.73 314.787 187.224 314.28C186.717 313.773 185.904 313.52 184.784 313.52H181.064C180.477 313.52 180.064 313.6 179.824 313.76C179.61 313.92 179.504 314.307 179.504 314.92V318.04ZM205.18 325.76V330.76C205.18 332.147 204.806 333.2 204.06 333.92C203.34 334.64 202.38 335 201.18 335H201.14C199.833 335 198.793 334.64 198.02 333.92C197.273 333.2 196.9 332.147 196.9 330.76V325.12C196.9 322.293 197.326 320.147 198.18 318.68C199.033 317.213 200.113 316.16 201.42 315.52L201.22 314.76H200.54C199.313 314.76 198.34 314.373 197.62 313.6C196.926 312.8 196.566 311.72 196.54 310.36C196.513 309.027 196.86 307.947 197.58 307.12C198.326 306.293 199.313 305.88 200.54 305.88H211.06C213.753 305.88 215.94 306.693 217.62 308.32C219.326 309.92 220.18 312.453 220.18 315.92C220.18 318.427 219.74 320.4 218.86 321.84C217.98 323.28 216.82 324.293 215.38 324.88C213.94 325.467 212.38 325.76 210.7 325.76H205.18ZM204.66 318.04C204.66 318.627 204.766 319.013 204.98 319.2C205.22 319.387 205.633 319.48 206.22 319.48H209.94C211.06 319.48 211.873 319.227 212.38 318.72C212.886 318.187 213.14 317.44 213.14 316.48C213.14 315.52 212.886 314.787 212.38 314.28C211.873 313.773 211.06 313.52 209.94 313.52H206.22C205.633 313.52 205.22 313.6 204.98 313.76C204.766 313.92 204.66 314.307 204.66 314.92V318.04ZM222.056 309.76C222.056 308.533 222.429 307.587 223.176 306.92C223.949 306.227 224.936 305.88 226.136 305.88C227.389 305.88 228.389 306.227 229.136 306.92C229.883 307.587 230.256 308.533 230.256 309.76V326.8C230.256 327.307 230.389 327.667 230.656 327.88C230.923 328.067 231.363 327.987 231.976 327.64C233.309 326.867 234.496 326.253 235.536 325.8C236.576 325.32 237.723 325.08 238.976 325.08C240.709 325.08 242.016 325.533 242.896 326.44C243.776 327.347 244.216 328.533 244.216 330C244.216 331.573 243.736 332.787 242.776 333.64C241.843 334.493 240.336 334.92 238.256 334.92H230.016C228.256 334.92 226.789 334.72 225.616 334.32C224.443 333.893 223.549 333.133 222.936 332.04C222.349 330.947 222.056 329.36 222.056 327.28V309.76ZM238.236 313.6C237.463 311.947 237.29 310.467 237.716 309.16C238.143 307.827 238.956 306.893 240.156 306.36C241.383 305.827 242.623 305.827 243.876 306.36C245.156 306.867 246.09 307.947 246.676 309.6C246.97 310.427 247.183 311.387 247.316 312.48C247.45 313.547 247.596 314.587 247.756 315.6C247.943 316.587 248.236 317.413 248.636 318.08C249.063 318.72 249.716 319.04 250.596 319.04C251.476 319.04 252.13 318.72 252.556 318.08C252.983 317.413 253.276 316.587 253.436 315.6C253.623 314.587 253.77 313.547 253.876 312.48C254.01 311.387 254.223 310.427 254.516 309.6C255.13 307.947 256.063 306.867 257.316 306.36C258.57 305.827 259.81 305.827 261.036 306.36C262.236 306.893 263.05 307.827 263.476 309.16C263.903 310.467 263.73 311.947 262.956 313.6C262.556 314.453 262.023 315.267 261.356 316.04C260.716 316.787 260.01 317.56 259.236 318.36C258.463 319.16 257.69 320.053 256.916 321.04C256.143 322 255.436 323.107 254.796 324.36V331.2C254.796 332.293 254.396 333.2 253.596 333.92C252.796 334.64 251.796 335 250.596 335C249.423 335 248.423 334.64 247.596 333.92C246.796 333.2 246.396 332.293 246.396 331.2V324.36C245.783 323.107 245.09 322 244.316 321.04C243.543 320.053 242.77 319.16 241.996 318.36C241.223 317.56 240.503 316.787 239.836 316.04C239.17 315.267 238.636 314.453 238.236 313.6ZM271.844 318.84C270.271 318.84 269.044 318.427 268.164 317.6C267.284 316.747 266.844 315.627 266.844 314.24C266.844 312.827 267.284 311.68 268.164 310.8C269.071 309.92 270.297 309.48 271.844 309.48C273.337 309.48 274.524 309.92 275.404 310.8C276.284 311.653 276.724 312.787 276.724 314.2C276.724 315.587 276.297 316.707 275.444 317.56C274.591 318.413 273.391 318.84 271.844 318.84ZM266.844 329.36C266.844 327.947 267.284 326.8 268.164 325.92C269.071 325.04 270.297 324.6 271.844 324.6C273.337 324.6 274.524 325.04 275.404 325.92C276.284 326.773 276.724 327.907 276.724 329.32C276.724 330.707 276.297 331.827 275.444 332.68C274.591 333.533 273.391 333.96 271.844 333.96C270.271 333.96 269.044 333.547 268.164 332.72C267.284 331.867 266.844 330.747 266.844 329.36ZM301.286 317.64C302.886 317.64 304.299 317.88 305.526 318.36C306.779 318.84 307.752 319.667 308.446 320.84C309.166 321.987 309.526 323.613 309.526 325.72C309.526 327.56 309.192 329.093 308.526 330.32C307.886 331.52 307.006 332.467 305.886 333.16C304.792 333.827 303.552 334.307 302.166 334.6C300.779 334.867 299.339 335 297.846 335C294.459 335 291.832 334.587 289.966 333.76C288.099 332.907 287.166 331.453 287.166 329.4C287.166 327.96 287.646 326.853 288.606 326.08C289.566 325.28 290.806 324.973 292.326 325.16C293.499 325.293 294.779 325.44 296.166 325.6C297.552 325.76 299.019 325.827 300.566 325.8C301.606 325.8 302.352 325.64 302.806 325.32C303.286 324.973 303.526 324.48 303.526 323.84C303.526 323.067 303.286 322.48 302.806 322.08C302.352 321.653 301.606 321.44 300.566 321.44H292.526C291.086 321.44 289.979 321.173 289.206 320.64C288.432 320.107 288.046 319.147 288.046 317.76V311.16C288.046 309.773 288.259 308.707 288.686 307.96C289.139 307.213 289.752 306.693 290.526 306.4C291.326 306.107 292.232 305.96 293.246 305.96H304.086C305.819 305.96 307.032 306.347 307.726 307.12C308.419 307.893 308.766 308.907 308.766 310.16C308.766 311.413 308.419 312.453 307.726 313.28C307.032 314.08 305.819 314.48 304.086 314.48C302.699 314.48 301.312 314.173 299.926 313.56C298.566 312.947 297.419 312.107 296.486 311.04H295.686V317.64H301.286ZM322.942 335.12C320.275 335.12 318.102 334.52 316.422 333.32C314.742 332.12 313.502 330.413 312.702 328.2C311.928 325.987 311.542 323.387 311.542 320.4C311.542 317.413 311.955 314.827 312.782 312.64C313.635 310.427 314.902 308.707 316.582 307.48C318.262 306.253 320.382 305.64 322.942 305.64C325.502 305.64 327.622 306.253 329.302 307.48C331.008 308.707 332.275 310.427 333.102 312.64C333.955 314.827 334.382 317.413 334.382 320.4C334.382 323.387 333.982 325.987 333.182 328.2C332.408 330.413 331.182 332.12 329.502 333.32C327.822 334.52 325.635 335.12 322.942 335.12ZM316.022 319.84C316.022 320.667 316.195 321.453 316.542 322.2C316.915 322.92 317.595 323.507 318.582 323.96C319.595 324.387 321.048 324.6 322.942 324.6C324.862 324.6 326.315 324.387 327.302 323.96C328.315 323.507 328.995 322.92 329.342 322.2C329.715 321.453 329.902 320.667 329.902 319.84C329.902 318.987 329.715 318.227 329.342 317.56C328.995 316.867 328.315 316.32 327.302 315.92C326.315 315.493 324.862 315.28 322.942 315.28C321.048 315.28 319.595 315.493 318.582 315.92C317.595 316.32 316.915 316.867 316.542 317.56C316.195 318.227 316.022 318.987 316.022 319.84ZM343.185 335C341.985 335 340.865 334.867 339.825 334.6C338.812 334.333 337.985 333.827 337.345 333.08C336.705 332.333 336.385 331.227 336.385 329.76C336.385 328.533 336.665 327.507 337.225 326.68C337.785 325.853 338.479 325.147 339.305 324.56C340.132 323.973 340.932 323.44 341.705 322.96L347.905 319.08C348.919 318.44 349.585 317.907 349.905 317.48C350.225 317.053 350.385 316.587 350.385 316.08C350.385 315.627 350.239 315.24 349.945 314.92C349.679 314.6 349.039 314.44 348.025 314.44C347.039 314.44 345.999 314.547 344.905 314.76C343.812 314.973 342.759 315.08 341.745 315.08C340.279 315.08 339.079 314.733 338.145 314.04C337.239 313.32 336.785 312.267 336.785 310.88C336.785 309.547 337.265 308.507 338.225 307.76C339.185 306.987 340.479 306.44 342.105 306.12C343.759 305.8 345.599 305.64 347.625 305.64C350.905 305.64 353.439 306.253 355.225 307.48C357.039 308.707 357.945 310.613 357.945 313.2C357.945 314.987 357.425 316.507 356.385 317.76C355.372 319.013 353.959 320.24 352.145 321.44L344.745 326.32H353.905C355.399 326.32 356.572 326.693 357.425 327.44C358.305 328.16 358.745 329.24 358.745 330.68C358.745 332.12 358.305 333.2 357.425 333.92C356.572 334.64 355.399 335 353.905 335H343.185ZM363.029 339.04C363.029 338.373 363.256 337.84 363.709 337.44C364.162 337.067 364.869 336.88 365.829 336.88C366.576 336.88 367.242 336.893 367.829 336.92C368.442 336.947 368.842 336.96 369.029 336.96L368.709 335.2C368.576 335.28 368.296 335.387 367.869 335.52C367.442 335.68 366.829 335.76 366.029 335.76C364.722 335.76 363.576 335.373 362.589 334.6C361.629 333.8 361.149 332.68 361.149 331.24C361.149 329.8 361.616 328.64 362.549 327.76C363.482 326.853 364.682 326.4 366.149 326.4C367.616 326.4 368.802 326.813 369.709 327.64C370.642 328.467 371.109 329.787 371.109 331.6C371.109 332.56 371.056 333.6 370.949 334.72C370.869 335.84 370.656 336.893 370.309 337.88C369.962 338.867 369.429 339.667 368.709 340.28C368.016 340.92 367.056 341.24 365.829 341.24C364.869 341.24 364.162 341.04 363.709 340.64C363.256 340.24 363.029 339.707 363.029 339.04ZM388.904 321.28C388.397 321.493 387.664 321.733 386.704 322C385.744 322.267 384.371 322.4 382.584 322.4C381.357 322.4 380.171 322.307 379.024 322.12C377.877 321.907 376.837 321.533 375.904 321C374.997 320.44 374.264 319.653 373.704 318.64C373.171 317.627 372.904 316.307 372.904 314.68C372.904 312.52 373.397 310.773 374.384 309.44C375.371 308.107 376.664 307.147 378.264 306.56C379.891 305.947 381.611 305.64 383.424 305.64C385.637 305.64 387.477 306 388.944 306.72C390.437 307.413 391.611 308.413 392.464 309.72C393.344 311 393.971 312.52 394.344 314.28C394.717 316.013 394.904 317.92 394.904 320C394.904 324.827 393.824 328.533 391.664 331.12C389.504 333.707 386.557 335 382.824 335C379.544 335 377.171 334.573 375.704 333.72C374.264 332.84 373.544 331.48 373.544 329.64C373.544 328.467 373.917 327.44 374.664 326.56C375.411 325.68 376.384 325.24 377.584 325.24C378.677 325.24 379.664 325.333 380.544 325.52C381.424 325.68 382.317 325.76 383.224 325.76C385.277 325.76 386.731 325.32 387.584 324.44C388.464 323.56 388.904 322.507 388.904 321.28ZM378.104 316.2C378.104 316.68 378.237 317.053 378.504 317.32C378.771 317.587 379.264 317.773 379.984 317.88C380.704 317.987 381.731 318.04 383.064 318.04C385.037 318.04 386.397 317.92 387.144 317.68C387.917 317.413 388.304 316.92 388.304 316.2C388.304 315.507 387.917 315.027 387.144 314.76C386.397 314.467 385.037 314.32 383.064 314.32C381.731 314.32 380.704 314.387 379.984 314.52C379.264 314.627 378.771 314.813 378.504 315.08C378.237 315.347 378.104 315.72 378.104 316.2ZM408.498 335.12C406.098 335.12 404.005 334.827 402.218 334.24C400.431 333.653 399.045 332.76 398.058 331.56C397.098 330.36 396.618 328.853 396.618 327.04C396.618 325.467 396.898 324.147 397.458 323.08C398.045 322.013 398.805 321.187 399.738 320.6C400.671 319.987 401.671 319.627 402.738 319.52V318.92C401.111 318.733 399.831 318.187 398.898 317.28C397.965 316.347 397.498 314.987 397.498 313.2C397.498 310.907 398.431 309.08 400.298 307.72C402.165 306.333 404.898 305.64 408.498 305.64C412.098 305.64 414.818 306.333 416.658 307.72C418.525 309.08 419.458 310.907 419.458 313.2C419.458 314.987 418.991 316.347 418.058 317.28C417.151 318.187 415.885 318.733 414.258 318.92V319.52C415.351 319.627 416.351 319.987 417.258 320.6C418.191 321.187 418.938 322.013 419.498 323.08C420.085 324.147 420.378 325.467 420.378 327.04C420.378 328.853 419.885 330.36 418.898 331.56C417.938 332.76 416.565 333.653 414.778 334.24C412.991 334.827 410.898 335.12 408.498 335.12ZM403.618 314.92C403.618 315.613 403.978 316.093 404.698 316.36C405.445 316.627 406.711 316.76 408.498 316.76C410.285 316.76 411.538 316.627 412.258 316.36C412.978 316.093 413.338 315.613 413.338 314.92C413.338 314.227 412.978 313.76 412.258 313.52C411.538 313.253 410.285 313.12 408.498 313.12C406.711 313.12 405.445 313.253 404.698 313.52C403.978 313.76 403.618 314.227 403.618 314.92ZM402.938 323.76C402.938 324.453 403.338 324.947 404.138 325.24C404.938 325.507 406.391 325.64 408.498 325.64C410.658 325.64 412.125 325.507 412.898 325.24C413.698 324.947 414.098 324.453 414.098 323.76C414.098 323.067 413.698 322.587 412.898 322.32C412.125 322.053 410.658 321.92 408.498 321.92C406.391 321.92 404.938 322.053 404.138 322.32C403.338 322.587 402.938 323.067 402.938 323.76ZM433.645 335.12C430.978 335.12 428.805 334.52 427.125 333.32C425.445 332.12 424.205 330.413 423.405 328.2C422.631 325.987 422.245 323.387 422.245 320.4C422.245 317.413 422.658 314.827 423.485 312.64C424.338 310.427 425.605 308.707 427.285 307.48C428.965 306.253 431.085 305.64 433.645 305.64C436.205 305.64 438.325 306.253 440.005 307.48C441.711 308.707 442.978 310.427 443.805 312.64C444.658 314.827 445.085 317.413 445.085 320.4C445.085 323.387 444.685 325.987 443.885 328.2C443.111 330.413 441.885 332.12 440.205 333.32C438.525 334.52 436.338 335.12 433.645 335.12ZM426.725 319.84C426.725 320.667 426.898 321.453 427.245 322.2C427.618 322.92 428.298 323.507 429.285 323.96C430.298 324.387 431.751 324.6 433.645 324.6C435.565 324.6 437.018 324.387 438.005 323.96C439.018 323.507 439.698 322.92 440.045 322.2C440.418 321.453 440.605 320.667 440.605 319.84C440.605 318.987 440.418 318.227 440.045 317.56C439.698 316.867 439.018 316.32 438.005 315.92C437.018 315.493 435.565 315.28 433.645 315.28C431.751 315.28 430.298 315.493 429.285 315.92C428.298 316.32 427.618 316.867 427.245 317.56C426.898 318.227 426.725 318.987 426.725 319.84ZM448.889 339.04C448.889 338.373 449.115 337.84 449.569 337.44C450.022 337.067 450.729 336.88 451.689 336.88C452.435 336.88 453.102 336.893 453.689 336.92C454.302 336.947 454.702 336.96 454.889 336.96L454.569 335.2C454.435 335.28 454.155 335.387 453.729 335.52C453.302 335.68 452.689 335.76 451.889 335.76C450.582 335.76 449.435 335.373 448.449 334.6C447.489 333.8 447.009 332.68 447.009 331.24C447.009 329.8 447.475 328.64 448.409 327.76C449.342 326.853 450.542 326.4 452.009 326.4C453.475 326.4 454.662 326.813 455.569 327.64C456.502 328.467 456.969 329.787 456.969 331.6C456.969 332.56 456.915 333.6 456.809 334.72C456.729 335.84 456.515 336.893 456.169 337.88C455.822 338.867 455.289 339.667 454.569 340.28C453.875 340.92 452.915 341.24 451.689 341.24C450.729 341.24 450.022 341.04 449.569 340.64C449.115 340.24 448.889 339.707 448.889 339.04ZM473.044 317.64C474.644 317.64 476.057 317.88 477.284 318.36C478.537 318.84 479.51 319.667 480.204 320.84C480.924 321.987 481.284 323.613 481.284 325.72C481.284 327.56 480.95 329.093 480.284 330.32C479.644 331.52 478.764 332.467 477.644 333.16C476.55 333.827 475.31 334.307 473.924 334.6C472.537 334.867 471.097 335 469.604 335C466.217 335 463.59 334.587 461.724 333.76C459.857 332.907 458.924 331.453 458.924 329.4C458.924 327.96 459.404 326.853 460.364 326.08C461.324 325.28 462.564 324.973 464.084 325.16C465.257 325.293 466.537 325.44 467.924 325.6C469.31 325.76 470.777 325.827 472.324 325.8C473.364 325.8 474.11 325.64 474.564 325.32C475.044 324.973 475.284 324.48 475.284 323.84C475.284 323.067 475.044 322.48 474.564 322.08C474.11 321.653 473.364 321.44 472.324 321.44H464.284C462.844 321.44 461.737 321.173 460.964 320.64C460.19 320.107 459.804 319.147 459.804 317.76V311.16C459.804 309.773 460.017 308.707 460.444 307.96C460.897 307.213 461.51 306.693 462.284 306.4C463.084 306.107 463.99 305.96 465.004 305.96H475.844C477.577 305.96 478.79 306.347 479.484 307.12C480.177 307.893 480.524 308.907 480.524 310.16C480.524 311.413 480.177 312.453 479.484 313.28C478.79 314.08 477.577 314.48 475.844 314.48C474.457 314.48 473.07 314.173 471.684 313.56C470.324 312.947 469.177 312.107 468.244 311.04H467.444V317.64H473.044ZM499.459 311.96C498.713 312.413 497.793 312.92 496.699 313.48C495.633 314.013 494.366 314.48 492.899 314.88C491.433 315.28 489.739 315.48 487.819 315.48C486.219 315.48 485.019 315.04 484.219 314.16C483.419 313.253 483.019 312.12 483.019 310.76C483.019 309.373 483.419 308.227 484.219 307.32C485.019 306.413 486.219 305.96 487.819 305.96H499.579C501.553 305.96 503.059 306.427 504.099 307.36C505.166 308.293 505.699 309.733 505.699 311.68C505.699 312.667 505.539 313.533 505.219 314.28C504.899 315.027 504.473 315.733 503.939 316.4C503.406 317.067 502.833 317.76 502.219 318.48C501.633 319.2 501.059 320 500.499 320.88C499.673 322.187 499.006 323.707 498.499 325.44C497.993 327.173 497.633 328.973 497.419 330.84C497.259 332.253 496.806 333.333 496.059 334.08C495.339 334.8 494.273 335.173 492.859 335.2C491.419 335.227 490.246 334.827 489.339 334C488.433 333.173 487.993 332.013 488.019 330.52C488.073 327.933 488.473 325.56 489.219 323.4C489.993 321.24 491.033 319.493 492.339 318.16C493.113 317.36 493.939 316.64 494.819 316C495.726 315.36 496.579 314.813 497.379 314.36C498.179 313.88 498.833 313.52 499.339 313.28C499.846 313.04 500.099 312.92 500.099 312.92L499.459 311.96ZM520.895 317.64C522.495 317.64 523.908 317.88 525.135 318.36C526.388 318.84 527.362 319.667 528.055 320.84C528.775 321.987 529.135 323.613 529.135 325.72C529.135 327.56 528.802 329.093 528.135 330.32C527.495 331.52 526.615 332.467 525.495 333.16C524.402 333.827 523.162 334.307 521.775 334.6C520.388 334.867 518.948 335 517.455 335C514.068 335 511.442 334.587 509.575 333.76C507.708 332.907 506.775 331.453 506.775 329.4C506.775 327.96 507.255 326.853 508.215 326.08C509.175 325.28 510.415 324.973 511.935 325.16C513.108 325.293 514.388 325.44 515.775 325.6C517.162 325.76 518.628 325.827 520.175 325.8C521.215 325.8 521.962 325.64 522.415 325.32C522.895 324.973 523.135 324.48 523.135 323.84C523.135 323.067 522.895 322.48 522.415 322.08C521.962 321.653 521.215 321.44 520.175 321.44H512.135C510.695 321.44 509.588 321.173 508.815 320.64C508.042 320.107 507.655 319.147 507.655 317.76V311.16C507.655 309.773 507.868 308.707 508.295 307.96C508.748 307.213 509.362 306.693 510.135 306.4C510.935 306.107 511.842 305.96 512.855 305.96H523.695C525.428 305.96 526.642 306.347 527.335 307.12C528.028 307.893 528.375 308.907 528.375 310.16C528.375 311.413 528.028 312.453 527.335 313.28C526.642 314.08 525.428 314.48 523.695 314.48C522.308 314.48 520.922 314.173 519.535 313.56C518.175 312.947 517.028 312.107 516.095 311.04H515.295V317.64H520.895ZM536.151 335.76C534.578 335.76 533.351 335.347 532.471 334.52C531.591 333.667 531.151 332.547 531.151 331.16C531.151 329.747 531.604 328.6 532.511 327.72C533.418 326.84 534.631 326.4 536.151 326.4C537.644 326.4 538.831 326.84 539.711 327.72C540.618 328.573 541.071 329.707 541.071 331.12C541.071 332.507 540.644 333.627 539.791 334.48C538.938 335.333 537.724 335.76 536.151 335.76ZM558.826 321.28C558.319 321.493 557.586 321.733 556.626 322C555.666 322.267 554.293 322.4 552.506 322.4C551.279 322.4 550.093 322.307 548.946 322.12C547.799 321.907 546.759 321.533 545.826 321C544.919 320.44 544.186 319.653 543.626 318.64C543.093 317.627 542.826 316.307 542.826 314.68C542.826 312.52 543.319 310.773 544.306 309.44C545.293 308.107 546.586 307.147 548.186 306.56C549.813 305.947 551.533 305.64 553.346 305.64C555.559 305.64 557.399 306 558.866 306.72C560.359 307.413 561.533 308.413 562.386 309.72C563.266 311 563.893 312.52 564.266 314.28C564.639 316.013 564.826 317.92 564.826 320C564.826 324.827 563.746 328.533 561.586 331.12C559.426 333.707 556.479 335 552.746 335C549.466 335 547.093 334.573 545.626 333.72C544.186 332.84 543.466 331.48 543.466 329.64C543.466 328.467 543.839 327.44 544.586 326.56C545.333 325.68 546.306 325.24 547.506 325.24C548.599 325.24 549.586 325.333 550.466 325.52C551.346 325.68 552.239 325.76 553.146 325.76C555.199 325.76 556.653 325.32 557.506 324.44C558.386 323.56 558.826 322.507 558.826 321.28ZM548.026 316.2C548.026 316.68 548.159 317.053 548.426 317.32C548.693 317.587 549.186 317.773 549.906 317.88C550.626 317.987 551.653 318.04 552.986 318.04C554.959 318.04 556.319 317.92 557.066 317.68C557.839 317.413 558.226 316.92 558.226 316.2C558.226 315.507 557.839 315.027 557.066 314.76C556.319 314.467 554.959 314.32 552.986 314.32C551.653 314.32 550.626 314.387 549.906 314.52C549.186 314.627 548.693 314.813 548.426 315.08C548.159 315.347 548.026 315.72 548.026 316.2ZM582.78 311.96C582.033 312.413 581.113 312.92 580.02 313.48C578.953 314.013 577.686 314.48 576.22 314.88C574.753 315.28 573.06 315.48 571.14 315.48C569.54 315.48 568.34 315.04 567.54 314.16C566.74 313.253 566.34 312.12 566.34 310.76C566.34 309.373 566.74 308.227 567.54 307.32C568.34 306.413 569.54 305.96 571.14 305.96H582.9C584.873 305.96 586.38 306.427 587.42 307.36C588.486 308.293 589.02 309.733 589.02 311.68C589.02 312.667 588.86 313.533 588.54 314.28C588.22 315.027 587.793 315.733 587.26 316.4C586.726 317.067 586.153 317.76 585.54 318.48C584.953 319.2 584.38 320 583.82 320.88C582.993 322.187 582.326 323.707 581.82 325.44C581.313 327.173 580.953 328.973 580.74 330.84C580.58 332.253 580.126 333.333 579.38 334.08C578.66 334.8 577.593 335.173 576.18 335.2C574.74 335.227 573.566 334.827 572.66 334C571.753 333.173 571.313 332.013 571.34 330.52C571.393 327.933 571.793 325.56 572.54 323.4C573.313 321.24 574.353 319.493 575.66 318.16C576.433 317.36 577.26 316.64 578.14 316C579.046 315.36 579.9 314.813 580.7 314.36C581.5 313.88 582.153 313.52 582.66 313.28C583.166 313.04 583.42 312.92 583.42 312.92L582.78 311.96Z" fill="black"/>
<path d="M123.679 460.88C122.452 460.88 121.439 460.507 120.639 459.76C119.839 459.013 119.439 458.067 119.439 456.92V435.76C119.439 434.587 119.826 433.613 120.599 432.84C121.372 432.04 122.386 431.64 123.639 431.64C124.972 431.64 126.012 432.04 126.759 432.84C127.506 433.613 127.879 434.56 127.879 435.68V443.08H135.319V435.76C135.319 434.587 135.706 433.613 136.479 432.84C137.252 432.04 138.292 431.64 139.599 431.64C140.906 431.64 141.932 432.04 142.679 432.84C143.426 433.613 143.799 434.56 143.799 435.68V456.92C143.799 458.067 143.399 459.013 142.599 459.76C141.826 460.507 140.852 460.88 139.679 460.88C138.399 460.88 137.346 460.507 136.519 459.76C135.719 459.013 135.319 458.067 135.319 456.92V448.96H127.879V456.92C127.879 458.067 127.479 459.013 126.679 459.76C125.906 460.507 124.906 460.88 123.679 460.88ZM158.453 461.12C155.599 461.12 153.186 460.493 151.213 459.24C149.239 457.987 147.746 456.253 146.733 454.04C145.719 451.827 145.213 449.28 145.213 446.4C145.213 443.547 145.719 441.013 146.733 438.8C147.746 436.56 149.239 434.813 151.213 433.56C153.186 432.28 155.599 431.64 158.453 431.64C161.306 431.64 163.706 432.28 165.653 433.56C167.626 434.813 169.119 436.56 170.133 438.8C171.146 441.013 171.653 443.547 171.653 446.4C171.653 449.28 171.146 451.827 170.133 454.04C169.119 456.253 167.626 457.987 165.653 459.24C163.706 460.493 161.306 461.12 158.453 461.12ZM150.253 445.76C150.253 446.587 150.453 447.373 150.853 448.12C151.253 448.84 152.039 449.427 153.213 449.88C154.386 450.307 156.133 450.52 158.453 450.52C160.773 450.52 162.506 450.307 163.653 449.88C164.826 449.427 165.613 448.84 166.013 448.12C166.413 447.373 166.613 446.587 166.613 445.76C166.613 444.907 166.413 444.147 166.013 443.48C165.613 442.787 164.826 442.24 163.653 441.84C162.506 441.413 160.773 441.2 158.453 441.2C156.133 441.2 154.386 441.413 153.213 441.84C152.039 442.24 151.253 442.787 150.853 443.48C150.453 444.147 150.253 444.907 150.253 445.76ZM173.775 435.76C173.775 434.533 174.148 433.587 174.895 432.92C175.668 432.227 176.655 431.88 177.855 431.88C179.108 431.88 180.108 432.227 180.855 432.92C181.601 433.587 181.975 434.533 181.975 435.76V452.8C181.975 453.307 182.108 453.667 182.375 453.88C182.641 454.067 183.081 453.987 183.695 453.64C185.028 452.867 186.215 452.253 187.255 451.8C188.295 451.32 189.441 451.08 190.695 451.08C192.428 451.08 193.735 451.533 194.615 452.44C195.495 453.347 195.935 454.533 195.935 456C195.935 457.573 195.455 458.787 194.495 459.64C193.561 460.493 192.055 460.92 189.975 460.92H181.735C179.975 460.92 178.508 460.72 177.335 460.32C176.161 459.893 175.268 459.133 174.655 458.04C174.068 456.947 173.775 455.36 173.775 453.28V435.76ZM207.223 431.88C210.396 431.88 212.983 432.48 214.983 433.68C217.009 434.853 218.503 436.533 219.463 438.72C220.449 440.88 220.943 443.453 220.943 446.44C220.943 451.453 219.863 455.133 217.703 457.48C215.543 459.827 212.236 461 207.783 461H206.023C204.716 461 203.503 460.867 202.383 460.6C201.263 460.333 200.276 459.853 199.423 459.16C198.569 458.44 197.903 457.44 197.423 456.16C196.943 454.88 196.703 453.227 196.703 451.2C196.703 449.307 196.956 447.667 197.463 446.28C197.996 444.893 198.623 443.787 199.343 442.96C200.063 442.133 200.716 441.627 201.303 441.44L201.103 440.68H200.423C199.196 440.68 198.223 440.293 197.503 439.52C196.809 438.72 196.449 437.653 196.423 436.32C196.396 434.987 196.743 433.92 197.463 433.12C198.209 432.293 199.196 431.88 200.423 431.88H207.223ZM204.343 450.68C204.343 451.24 204.463 451.627 204.703 451.84C204.969 452.053 205.356 452.16 205.863 452.16H208.023C209.383 452.16 210.436 451.867 211.183 451.28C211.929 450.693 212.449 449.947 212.743 449.04C213.063 448.107 213.223 447.12 213.223 446.08C213.223 445.04 213.063 444.04 212.743 443.08C212.449 442.12 211.929 441.333 211.183 440.72C210.436 440.107 209.383 439.8 208.023 439.8H205.863C205.356 439.8 204.969 439.92 204.703 440.16C204.463 440.373 204.343 440.773 204.343 441.36V450.68ZM232.988 460.92C231.681 460.92 230.428 460.8 229.228 460.56C228.055 460.32 227.015 459.867 226.108 459.2C225.228 458.507 224.521 457.52 223.988 456.24C223.481 454.933 223.228 453.227 223.228 451.12C223.228 449.227 223.481 447.6 223.988 446.24C224.495 444.88 225.095 443.8 225.788 443C226.508 442.2 227.161 441.707 227.748 441.52L227.548 440.76H226.868C225.641 440.76 224.668 440.373 223.948 439.6C223.255 438.8 222.895 437.72 222.868 436.36C222.841 435.027 223.188 433.96 223.908 433.16C224.655 432.36 225.641 431.96 226.868 431.96H241.228C244.081 431.96 245.508 433.293 245.508 435.96C245.508 437.16 245.161 438.12 244.468 438.84C243.775 439.56 242.695 439.92 241.228 439.92H232.948C231.961 439.92 231.468 440.493 231.468 441.64V444.64C232.801 444.347 234.188 444 235.628 443.6C237.095 443.2 238.481 443 239.788 443C241.041 443 241.975 443.28 242.588 443.84C243.228 444.373 243.548 445.107 243.548 446.04C243.548 447 243.228 447.76 242.588 448.32C241.975 448.853 241.041 449.133 239.788 449.16C238.481 449.187 237.095 449 235.628 448.6C234.161 448.2 232.761 447.853 231.428 447.56V452.8C231.428 453.307 231.561 453.667 231.828 453.88C232.121 454.067 232.575 453.987 233.188 453.64C234.521 452.867 235.828 452.253 237.108 451.8C238.388 451.32 239.641 451.08 240.868 451.08C242.601 451.08 243.908 451.533 244.788 452.44C245.695 453.347 246.148 454.533 246.148 456C246.148 457.573 245.668 458.787 244.708 459.64C243.775 460.493 242.255 460.92 240.148 460.92H232.988ZM267.669 461C266.336 461 265.282 460.6 264.509 459.8C263.736 458.973 263.322 457.907 263.269 456.6C263.162 454.333 262.589 452.733 261.549 451.8C260.536 450.84 259.176 450.36 257.469 450.36H256.669V456.76C256.669 458.147 256.296 459.2 255.549 459.92C254.802 460.64 253.816 461 252.589 461C251.282 461 250.256 460.64 249.509 459.92C248.762 459.2 248.389 458.147 248.389 456.76V451.12C248.389 448.293 248.802 446.147 249.629 444.68C250.482 443.213 251.562 442.16 252.869 441.52L252.669 440.76H252.029C250.802 440.76 249.829 440.373 249.109 439.6C248.416 438.8 248.042 437.72 247.989 436.36C247.962 435.027 248.322 433.947 249.069 433.12C249.816 432.293 250.802 431.88 252.029 431.88H262.229C265.082 431.88 267.389 432.573 269.149 433.96C270.909 435.347 271.789 437.56 271.789 440.6C271.789 442.173 271.522 443.493 270.989 444.56C270.456 445.6 269.776 446.4 268.949 446.96C268.122 447.52 267.256 447.853 266.349 447.96V448.48C268.002 448.88 269.362 449.76 270.429 451.12C271.522 452.48 272.069 454.307 272.069 456.6C272.069 458.067 271.669 459.173 270.869 459.92C270.096 460.64 269.029 461 267.669 461ZM256.469 444.24C256.469 444.827 256.576 445.213 256.789 445.4C257.002 445.587 257.402 445.68 257.989 445.68H261.749C262.869 445.68 263.682 445.427 264.189 444.92C264.696 444.413 264.949 443.707 264.949 442.8C264.949 441.867 264.696 441.147 264.189 440.64C263.682 440.133 262.869 439.88 261.749 439.88H257.989C257.402 439.88 257.002 439.96 256.789 440.12C256.576 440.28 256.469 440.667 256.469 441.28V444.24ZM286.603 461.12C285.109 461.12 283.603 460.973 282.083 460.68C280.589 460.36 279.203 459.907 277.923 459.32C276.669 458.707 275.656 457.973 274.883 457.12C274.109 456.24 273.723 455.227 273.723 454.08C273.723 452.613 274.189 451.44 275.123 450.56C276.056 449.68 277.149 449.267 278.403 449.32C279.389 449.347 280.376 449.56 281.363 449.96C282.349 450.333 283.349 450.707 284.363 451.08C285.403 451.453 286.443 451.64 287.483 451.64C288.523 451.64 289.243 451.507 289.643 451.24C290.043 450.973 290.243 450.613 290.243 450.16C290.243 449.627 289.963 449.187 289.403 448.84C288.843 448.493 288.136 448.227 287.283 448.04L285.323 447.56C283.296 447.08 281.483 446.547 279.883 445.96C278.283 445.347 277.016 444.547 276.083 443.56C275.176 442.547 274.723 441.2 274.723 439.52C274.723 437.68 275.229 436.187 276.243 435.04C277.256 433.867 278.629 433.013 280.363 432.48C282.096 431.947 284.029 431.68 286.163 431.68C288.349 431.68 290.269 431.907 291.923 432.36C293.576 432.813 294.856 433.467 295.763 434.32C296.696 435.173 297.163 436.213 297.163 437.44C297.163 438.747 296.803 439.773 296.083 440.52C295.389 441.24 294.456 441.6 293.283 441.6C292.509 441.6 291.696 441.467 290.843 441.2C290.016 440.933 289.136 440.68 288.203 440.44C287.296 440.173 286.323 440.04 285.283 440.04C284.349 440.04 283.643 440.187 283.163 440.48C282.683 440.747 282.443 441.107 282.443 441.56C282.443 442.12 282.763 442.533 283.403 442.8C284.043 443.067 285.096 443.387 286.563 443.76L288.803 444.28C290.643 444.733 292.256 445.28 293.643 445.92C295.029 446.56 296.109 447.4 296.883 448.44C297.656 449.48 298.043 450.84 298.043 452.52C298.043 454.547 297.563 456.2 296.603 457.48C295.643 458.733 294.309 459.653 292.603 460.24C290.896 460.827 288.896 461.12 286.603 461.12ZM305.985 444.84C304.411 444.84 303.185 444.427 302.305 443.6C301.425 442.747 300.985 441.627 300.985 440.24C300.985 438.827 301.425 437.68 302.305 436.8C303.211 435.92 304.438 435.48 305.985 435.48C307.478 435.48 308.665 435.92 309.545 436.8C310.425 437.653 310.865 438.787 310.865 440.2C310.865 441.587 310.438 442.707 309.585 443.56C308.731 444.413 307.531 444.84 305.985 444.84ZM300.985 455.36C300.985 453.947 301.425 452.8 302.305 451.92C303.211 451.04 304.438 450.6 305.985 450.6C307.478 450.6 308.665 451.04 309.545 451.92C310.425 452.773 310.865 453.907 310.865 455.32C310.865 456.707 310.438 457.827 309.585 458.68C308.731 459.533 307.531 459.96 305.985 459.96C304.411 459.96 303.185 459.547 302.305 458.72C301.425 457.867 300.985 456.747 300.985 455.36ZM328.146 461C326.946 461 325.826 460.867 324.786 460.6C323.773 460.333 322.946 459.827 322.306 459.08C321.666 458.333 321.346 457.227 321.346 455.76C321.346 454.533 321.626 453.507 322.186 452.68C322.746 451.853 323.44 451.147 324.266 450.56C325.093 449.973 325.893 449.44 326.666 448.96L332.866 445.08C333.88 444.44 334.546 443.907 334.866 443.48C335.186 443.053 335.346 442.587 335.346 442.08C335.346 441.627 335.2 441.24 334.906 440.92C334.64 440.6 334 440.44 332.986 440.44C332 440.44 330.96 440.547 329.866 440.76C328.773 440.973 327.72 441.08 326.706 441.08C325.24 441.08 324.04 440.733 323.106 440.04C322.2 439.32 321.746 438.267 321.746 436.88C321.746 435.547 322.226 434.507 323.186 433.76C324.146 432.987 325.44 432.44 327.066 432.12C328.72 431.8 330.56 431.64 332.586 431.64C335.866 431.64 338.4 432.253 340.186 433.48C342 434.707 342.906 436.613 342.906 439.2C342.906 440.987 342.386 442.507 341.346 443.76C340.333 445.013 338.92 446.24 337.106 447.44L329.706 452.32H338.866C340.36 452.32 341.533 452.693 342.386 453.44C343.266 454.16 343.706 455.24 343.706 456.68C343.706 458.12 343.266 459.2 342.386 459.92C341.533 460.64 340.36 461 338.866 461H328.146ZM361.789 461C360.455 461 359.442 460.627 358.749 459.88C358.055 459.107 357.709 458.147 357.709 457V452.76H357.109C356.975 453.347 356.682 453.947 356.229 454.56C355.775 455.173 355.122 455.68 354.269 456.08C353.415 456.48 352.322 456.68 350.989 456.68C349.922 456.68 348.895 456.48 347.909 456.08C346.949 455.653 346.162 455.027 345.549 454.2C344.962 453.347 344.669 452.293 344.669 451.04C344.669 450.053 344.869 449.107 345.269 448.2C345.695 447.267 346.362 446.12 347.269 444.76L352.389 437.08C353.615 435.267 354.829 433.907 356.029 433C357.255 432.093 358.615 431.64 360.109 431.64C361.149 431.64 362.095 431.827 362.949 432.2C363.829 432.547 364.535 433.16 365.069 434.04C365.602 434.92 365.869 436.12 365.869 437.64V447.92C365.869 447.92 366.015 447.907 366.309 447.88C366.602 447.827 366.922 447.8 367.269 447.8C368.175 447.8 368.975 448.067 369.669 448.6C370.362 449.107 370.709 450.027 370.709 451.36C370.709 452.667 370.362 453.587 369.669 454.12C368.975 454.653 368.175 454.92 367.269 454.92C366.922 454.92 366.602 454.893 366.309 454.84C366.015 454.787 365.869 454.76 365.869 454.76V457C365.869 458.147 365.522 459.107 364.829 459.88C364.162 460.627 363.149 461 361.789 461ZM352.629 447.32C352.442 447.587 352.415 447.813 352.549 448C352.682 448.187 352.882 448.28 353.149 448.28H357.709V440.28H357.269L352.629 447.32ZM374.123 465.04C374.123 464.373 374.35 463.84 374.803 463.44C375.256 463.067 375.963 462.88 376.923 462.88C377.67 462.88 378.336 462.893 378.923 462.92C379.536 462.947 379.936 462.96 380.123 462.96L379.803 461.2C379.67 461.28 379.39 461.387 378.963 461.52C378.536 461.68 377.923 461.76 377.123 461.76C375.816 461.76 374.67 461.373 373.683 460.6C372.723 459.8 372.243 458.68 372.243 457.24C372.243 455.8 372.71 454.64 373.643 453.76C374.576 452.853 375.776 452.4 377.243 452.4C378.71 452.4 379.896 452.813 380.803 453.64C381.736 454.467 382.203 455.787 382.203 457.6C382.203 458.56 382.15 459.6 382.043 460.72C381.963 461.84 381.75 462.893 381.403 463.88C381.056 464.867 380.523 465.667 379.803 466.28C379.11 466.92 378.15 467.24 376.923 467.24C375.963 467.24 375.256 467.04 374.803 466.64C374.35 466.24 374.123 465.707 374.123 465.04ZM398.278 443.64C399.878 443.64 401.291 443.88 402.518 444.36C403.771 444.84 404.745 445.667 405.438 446.84C406.158 447.987 406.518 449.613 406.518 451.72C406.518 453.56 406.185 455.093 405.518 456.32C404.878 457.52 403.998 458.467 402.878 459.16C401.785 459.827 400.545 460.307 399.158 460.6C397.771 460.867 396.331 461 394.838 461C391.451 461 388.825 460.587 386.958 459.76C385.091 458.907 384.158 457.453 384.158 455.4C384.158 453.96 384.638 452.853 385.598 452.08C386.558 451.28 387.798 450.973 389.318 451.16C390.491 451.293 391.771 451.44 393.158 451.6C394.545 451.76 396.011 451.827 397.558 451.8C398.598 451.8 399.345 451.64 399.798 451.32C400.278 450.973 400.518 450.48 400.518 449.84C400.518 449.067 400.278 448.48 399.798 448.08C399.345 447.653 398.598 447.44 397.558 447.44H389.518C388.078 447.44 386.971 447.173 386.198 446.64C385.425 446.107 385.038 445.147 385.038 443.76V437.16C385.038 435.773 385.251 434.707 385.678 433.96C386.131 433.213 386.745 432.693 387.518 432.4C388.318 432.107 389.225 431.96 390.238 431.96H401.078C402.811 431.96 404.025 432.347 404.718 433.12C405.411 433.893 405.758 434.907 405.758 436.16C405.758 437.413 405.411 438.453 404.718 439.28C404.025 440.08 402.811 440.48 401.078 440.48C399.691 440.48 398.305 440.173 396.918 439.56C395.558 438.947 394.411 438.107 393.478 437.04H392.678V443.64H398.278ZM414.174 444.76C414.174 444.76 414.707 444.613 415.774 444.32C416.867 444.027 418.307 443.88 420.094 443.88C422.014 443.88 423.734 444.08 425.254 444.48C426.801 444.853 428.027 445.587 428.934 446.68C429.841 447.773 430.294 449.36 430.294 451.44C430.294 454.373 429.481 456.707 427.854 458.44C426.227 460.147 423.614 461 420.014 461C417.614 461 415.534 460.56 413.774 459.68C412.041 458.8 410.694 457.387 409.734 455.44C408.801 453.467 408.334 450.867 408.334 447.64C408.334 444.467 408.774 441.68 409.654 439.28C410.534 436.88 411.881 435.013 413.694 433.68C415.507 432.32 417.814 431.64 420.614 431.64C423.707 431.64 425.961 432.08 427.374 432.96C428.814 433.813 429.534 435.027 429.534 436.6C429.534 437.853 429.201 438.853 428.534 439.6C427.894 440.347 427.041 440.72 425.974 440.72C425.067 440.72 424.107 440.6 423.094 440.36C422.081 440.12 421.027 440 419.934 440C418.601 440 417.507 440.24 416.654 440.72C415.801 441.2 415.174 441.8 414.774 442.52C414.374 443.24 414.174 443.987 414.174 444.76ZM414.614 449.64C414.614 450.387 414.974 450.92 415.694 451.24C416.441 451.56 417.827 451.72 419.854 451.72C421.907 451.72 423.281 451.56 423.974 451.24C424.694 450.92 425.054 450.387 425.054 449.64C425.054 448.92 424.694 448.413 423.974 448.12C423.281 447.827 421.907 447.68 419.854 447.68C417.827 447.68 416.441 447.827 415.694 448.12C414.974 448.413 414.614 448.92 414.614 449.64ZM438.928 461C437.728 461 436.608 460.867 435.568 460.6C434.554 460.333 433.728 459.827 433.088 459.08C432.448 458.333 432.128 457.227 432.128 455.76C432.128 454.533 432.408 453.507 432.968 452.68C433.528 451.853 434.221 451.147 435.048 450.56C435.874 449.973 436.674 449.44 437.448 448.96L443.648 445.08C444.661 444.44 445.328 443.907 445.648 443.48C445.968 443.053 446.128 442.587 446.128 442.08C446.128 441.627 445.981 441.24 445.688 440.92C445.421 440.6 444.781 440.44 443.768 440.44C442.781 440.44 441.741 440.547 440.648 440.76C439.554 440.973 438.501 441.08 437.488 441.08C436.021 441.08 434.821 440.733 433.888 440.04C432.981 439.32 432.528 438.267 432.528 436.88C432.528 435.547 433.008 434.507 433.968 433.76C434.928 432.987 436.221 432.44 437.848 432.12C439.501 431.8 441.341 431.64 443.368 431.64C446.648 431.64 449.181 432.253 450.968 433.48C452.781 434.707 453.688 436.613 453.688 439.2C453.688 440.987 453.168 442.507 452.128 443.76C451.114 445.013 449.701 446.24 447.888 447.44L440.488 452.32H449.648C451.141 452.32 452.314 452.693 453.168 453.44C454.048 454.16 454.488 455.24 454.488 456.68C454.488 458.12 454.048 459.2 453.168 459.92C452.314 460.64 451.141 461 449.648 461H438.928Z" fill="black"/>
<path d="M128.223 582C126.917 582 125.877 581.64 125.103 580.92C124.357 580.2 123.983 579.147 123.983 577.76V572.12C123.983 569.293 124.41 567.147 125.263 565.68C126.117 564.213 127.197 563.16 128.503 562.52L128.303 561.76H127.623C126.397 561.76 125.423 561.373 124.703 560.6C124.01 559.8 123.65 558.72 123.623 557.36C123.597 556.027 123.943 554.96 124.663 554.16C125.41 553.36 126.397 552.96 127.623 552.96H141.623C144.477 552.96 145.903 554.293 145.903 556.96C145.903 558.16 145.557 559.12 144.863 559.84C144.17 560.56 143.09 560.92 141.623 560.92H133.823C132.837 560.92 132.343 561.493 132.343 562.64V565.52C133.597 565.173 134.903 564.773 136.263 564.32C137.623 563.867 138.93 563.64 140.183 563.64C141.517 563.64 142.543 563.973 143.263 564.64C144.01 565.28 144.383 566.267 144.383 567.6C144.383 568.907 144.01 569.893 143.263 570.56C142.543 571.2 141.517 571.533 140.183 571.56C138.93 571.587 137.61 571.387 136.223 570.96C134.863 570.507 133.557 570.107 132.303 569.76L132.263 577.76C132.263 579.147 131.89 580.2 131.143 580.92C130.423 581.64 129.45 582 128.223 582ZM158.134 552.88C161.308 552.88 163.894 553.48 165.894 554.68C167.921 555.853 169.414 557.533 170.374 559.72C171.361 561.88 171.854 564.453 171.854 567.44C171.854 572.453 170.774 576.133 168.614 578.48C166.454 580.827 163.148 582 158.694 582H156.934C155.628 582 154.414 581.867 153.294 581.6C152.174 581.333 151.188 580.853 150.334 580.16C149.481 579.44 148.814 578.44 148.334 577.16C147.854 575.88 147.614 574.227 147.614 572.2C147.614 570.307 147.868 568.667 148.374 567.28C148.908 565.893 149.534 564.787 150.254 563.96C150.974 563.133 151.628 562.627 152.214 562.44L152.014 561.68H151.334C150.108 561.68 149.134 561.293 148.414 560.52C147.721 559.72 147.361 558.653 147.334 557.32C147.308 555.987 147.654 554.92 148.374 554.12C149.121 553.293 150.108 552.88 151.334 552.88H158.134ZM155.254 571.68C155.254 572.24 155.374 572.627 155.614 572.84C155.881 573.053 156.268 573.16 156.774 573.16H158.934C160.294 573.16 161.348 572.867 162.094 572.28C162.841 571.693 163.361 570.947 163.654 570.04C163.974 569.107 164.134 568.12 164.134 567.08C164.134 566.04 163.974 565.04 163.654 564.08C163.361 563.12 162.841 562.333 162.094 561.72C161.348 561.107 160.294 560.8 158.934 560.8H156.774C156.268 560.8 155.881 560.92 155.614 561.16C155.374 561.373 155.254 561.773 155.254 562.36V571.68ZM178.22 582C176.833 582 175.806 581.587 175.14 580.76C174.473 579.933 174.14 578.827 174.14 577.44V558.8C174.14 556.773 174.686 555.28 175.78 554.32C176.9 553.36 178.233 552.88 179.78 552.88C181.246 552.88 182.486 553.36 183.5 554.32C184.54 555.28 185.3 556.8 185.78 558.88L188.9 572.44H189.94L193.06 558.88C193.54 556.8 194.3 555.28 195.34 554.32C196.406 553.36 197.673 552.88 199.14 552.88C200.686 552.88 202.006 553.36 203.1 554.32C204.22 555.28 204.78 556.773 204.78 558.8V577.44C204.78 578.827 204.433 579.933 203.74 580.76C203.073 581.587 202.046 582 200.66 582C199.326 582 198.3 581.587 197.58 580.76C196.86 579.933 196.5 578.827 196.5 577.44V566.68C196.5 566.413 196.46 566.173 196.38 565.96C196.326 565.72 196.153 565.6 195.86 565.6C195.62 565.6 195.446 565.72 195.34 565.96C195.233 566.173 195.153 566.413 195.1 566.68L193.58 576.76C193.393 577.853 193.166 578.8 192.9 579.6C192.66 580.373 192.273 580.973 191.74 581.4C191.206 581.8 190.433 582 189.42 582C188.433 582 187.66 581.8 187.1 581.4C186.566 580.973 186.166 580.373 185.9 579.6C185.66 578.8 185.46 577.853 185.3 576.76L183.74 566.68C183.713 566.413 183.646 566.173 183.54 565.96C183.433 565.72 183.246 565.6 182.98 565.6C182.713 565.6 182.54 565.72 182.46 565.96C182.38 566.173 182.34 566.413 182.34 566.68V577.44C182.34 578.827 181.98 579.933 181.26 580.76C180.566 581.587 179.553 582 178.22 582ZM221.103 582.08C218.489 582.08 216.129 581.547 214.023 580.48C211.943 579.387 210.303 577.773 209.103 575.64C207.903 573.507 207.303 570.88 207.303 567.76C207.303 564.64 207.903 561.947 209.103 559.68C210.329 557.413 211.996 555.68 214.103 554.48C216.236 553.253 218.663 552.64 221.383 552.64C224.529 552.64 226.943 553.08 228.623 553.96C230.303 554.84 231.143 556.147 231.143 557.88C231.143 559.213 230.783 560.32 230.063 561.2C229.343 562.053 228.356 562.48 227.103 562.48C226.036 562.48 224.996 562.347 223.983 562.08C222.996 561.787 221.836 561.64 220.503 561.64C218.796 561.64 217.449 562.133 216.463 563.12C215.476 564.107 214.983 565.4 214.983 567C214.983 568.573 215.476 569.893 216.463 570.96C217.449 572 218.796 572.52 220.503 572.52C221.409 572.52 222.236 572.453 222.983 572.32C223.756 572.16 224.503 572 225.223 571.84C225.969 571.68 226.769 571.6 227.623 571.6C229.036 571.6 230.076 572.067 230.743 573C231.409 573.907 231.743 575.04 231.743 576.4C231.743 577.76 231.249 578.867 230.263 579.72C229.276 580.547 227.969 581.147 226.343 581.52C224.743 581.893 222.996 582.08 221.103 582.08ZM239.787 565.84C238.214 565.84 236.987 565.427 236.107 564.6C235.227 563.747 234.787 562.627 234.787 561.24C234.787 559.827 235.227 558.68 236.107 557.8C237.014 556.92 238.24 556.48 239.787 556.48C241.28 556.48 242.467 556.92 243.347 557.8C244.227 558.653 244.667 559.787 244.667 561.2C244.667 562.587 244.24 563.707 243.387 564.56C242.534 565.413 241.334 565.84 239.787 565.84ZM234.787 576.36C234.787 574.947 235.227 573.8 236.107 572.92C237.014 572.04 238.24 571.6 239.787 571.6C241.28 571.6 242.467 572.04 243.347 572.92C244.227 573.773 244.667 574.907 244.667 576.32C244.667 577.707 244.24 578.827 243.387 579.68C242.534 580.533 241.334 580.96 239.787 580.96C238.214 580.96 236.987 580.547 236.107 579.72C235.227 578.867 234.787 577.747 234.787 576.36ZM261.389 565.84C259.815 565.84 258.589 565.427 257.709 564.6C256.829 563.747 256.389 562.627 256.389 561.24C256.389 559.827 256.829 558.68 257.709 557.8C258.615 556.92 259.842 556.48 261.389 556.48C262.882 556.48 264.069 556.92 264.949 557.8C265.829 558.653 266.269 559.787 266.269 561.2C266.269 562.587 265.842 563.707 264.989 564.56C264.135 565.413 262.935 565.84 261.389 565.84ZM256.389 576.36C256.389 574.947 256.829 573.8 257.709 572.92C258.615 572.04 259.842 571.6 261.389 571.6C262.882 571.6 264.069 572.04 264.949 572.92C265.829 573.773 266.269 574.907 266.269 576.32C266.269 577.707 265.842 578.827 264.989 579.68C264.135 580.533 262.935 580.96 261.389 580.96C259.815 580.96 258.589 580.547 257.709 579.72C256.829 578.867 256.389 577.747 256.389 576.36ZM277.35 574.08C277.35 572.72 277.777 571.627 278.63 570.8C279.51 569.947 280.537 569.533 281.71 569.56C282.59 569.587 283.43 569.787 284.23 570.16C285.057 570.507 285.91 570.853 286.79 571.2C287.67 571.547 288.67 571.72 289.79 571.72C290.83 571.72 291.497 571.573 291.79 571.28C292.11 570.96 292.27 570.6 292.27 570.2C292.27 569.693 292.044 569.307 291.59 569.04C291.164 568.747 290.564 568.507 289.79 568.32L287.95 567.88C286.084 567.427 284.39 566.947 282.87 566.44C281.35 565.907 280.15 565.187 279.27 564.28C278.39 563.373 277.95 562.147 277.95 560.6C277.95 559.133 278.31 557.92 279.03 556.96C279.75 555.973 280.737 555.2 281.99 554.64C283.244 554.08 284.657 553.707 286.23 553.52C286.124 553.307 286.057 553.067 286.03 552.8C286.004 552.533 285.99 552.253 285.99 551.96C285.99 551.027 286.257 550.347 286.79 549.92C287.35 549.467 288.017 549.24 288.79 549.24C289.564 549.24 290.204 549.467 290.71 549.92C291.244 550.347 291.51 551.027 291.51 551.96C291.51 552.547 291.43 553.067 291.27 553.52C293.377 553.787 295.124 554.387 296.51 555.32C297.924 556.227 298.63 557.387 298.63 558.8C298.63 560.027 298.297 560.973 297.63 561.64C296.99 562.307 296.124 562.64 295.03 562.64C294.31 562.64 293.604 562.533 292.91 562.32C292.217 562.08 291.484 561.84 290.71 561.6C289.964 561.36 289.097 561.24 288.11 561.24C287.15 561.24 286.457 561.36 286.03 561.6C285.63 561.813 285.43 562.147 285.43 562.6C285.43 563.133 285.697 563.56 286.23 563.88C286.79 564.173 287.764 564.493 289.15 564.84L291.19 565.32C292.897 565.747 294.39 566.24 295.67 566.8C296.95 567.333 297.937 568.067 298.63 569C299.35 569.907 299.71 571.133 299.71 572.68C299.71 575.16 298.937 577.027 297.39 578.28C295.87 579.507 293.817 580.24 291.23 580.48C291.417 580.933 291.51 581.493 291.51 582.16C291.51 583.067 291.244 583.747 290.71 584.2C290.204 584.653 289.564 584.88 288.79 584.88C288.017 584.88 287.35 584.653 286.79 584.2C286.257 583.747 285.99 583.067 285.99 582.16C285.99 581.787 286.017 581.453 286.07 581.16C286.124 580.867 286.204 580.6 286.31 580.36C284.764 580.147 283.31 579.773 281.95 579.24C280.59 578.68 279.484 577.973 278.63 577.12C277.777 576.24 277.35 575.227 277.35 574.08ZM309.097 582C307.897 582 306.777 581.867 305.737 581.6C304.724 581.333 303.897 580.827 303.257 580.08C302.617 579.333 302.297 578.227 302.297 576.76C302.297 575.533 302.577 574.507 303.137 573.68C303.697 572.853 304.39 572.147 305.217 571.56C306.044 570.973 306.844 570.44 307.617 569.96L313.817 566.08C314.83 565.44 315.497 564.907 315.817 564.48C316.137 564.053 316.297 563.587 316.297 563.08C316.297 562.627 316.15 562.24 315.857 561.92C315.59 561.6 314.95 561.44 313.937 561.44C312.95 561.44 311.91 561.547 310.817 561.76C309.724 561.973 308.67 562.08 307.657 562.08C306.19 562.08 304.99 561.733 304.057 561.04C303.15 560.32 302.697 559.267 302.697 557.88C302.697 556.547 303.177 555.507 304.137 554.76C305.097 553.987 306.39 553.44 308.017 553.12C309.67 552.8 311.51 552.64 313.537 552.64C316.817 552.64 319.35 553.253 321.137 554.48C322.95 555.707 323.857 557.613 323.857 560.2C323.857 561.987 323.337 563.507 322.297 564.76C321.284 566.013 319.87 567.24 318.057 568.44L310.657 573.32H319.817C321.31 573.32 322.484 573.693 323.337 574.44C324.217 575.16 324.657 576.24 324.657 577.68C324.657 579.12 324.217 580.2 323.337 580.92C322.484 581.64 321.31 582 319.817 582H309.097ZM328.941 586.04C328.941 585.373 329.168 584.84 329.621 584.44C330.074 584.067 330.781 583.88 331.741 583.88C332.488 583.88 333.154 583.893 333.741 583.92C334.354 583.947 334.754 583.96 334.941 583.96L334.621 582.2C334.488 582.28 334.208 582.387 333.781 582.52C333.354 582.68 332.741 582.76 331.941 582.76C330.634 582.76 329.488 582.373 328.501 581.6C327.541 580.8 327.061 579.68 327.061 578.24C327.061 576.8 327.528 575.64 328.461 574.76C329.394 573.853 330.594 573.4 332.061 573.4C333.528 573.4 334.714 573.813 335.621 574.64C336.554 575.467 337.021 576.787 337.021 578.6C337.021 579.56 336.968 580.6 336.861 581.72C336.781 582.84 336.568 583.893 336.221 584.88C335.874 585.867 335.341 586.667 334.621 587.28C333.928 587.92 332.968 588.24 331.741 588.24C330.781 588.24 330.074 588.04 329.621 587.64C329.168 587.24 328.941 586.707 328.941 586.04ZM350.416 582.12C347.749 582.12 345.576 581.52 343.896 580.32C342.216 579.12 340.976 577.413 340.176 575.2C339.403 572.987 339.016 570.387 339.016 567.4C339.016 564.413 339.429 561.827 340.256 559.64C341.109 557.427 342.376 555.707 344.056 554.48C345.736 553.253 347.856 552.64 350.416 552.64C352.976 552.64 355.096 553.253 356.776 554.48C358.483 555.707 359.749 557.427 360.576 559.64C361.429 561.827 361.856 564.413 361.856 567.4C361.856 570.387 361.456 572.987 360.656 575.2C359.883 577.413 358.656 579.12 356.976 580.32C355.296 581.52 353.109 582.12 350.416 582.12ZM343.496 566.84C343.496 567.667 343.669 568.453 344.016 569.2C344.389 569.92 345.069 570.507 346.056 570.96C347.069 571.387 348.523 571.6 350.416 571.6C352.336 571.6 353.789 571.387 354.776 570.96C355.789 570.507 356.469 569.92 356.816 569.2C357.189 568.453 357.376 567.667 357.376 566.84C357.376 565.987 357.189 565.227 356.816 564.56C356.469 563.867 355.789 563.32 354.776 562.92C353.789 562.493 352.336 562.28 350.416 562.28C348.523 562.28 347.069 562.493 346.056 562.92C345.069 563.32 344.389 563.867 344.016 564.56C343.669 565.227 343.496 565.987 343.496 566.84ZM377.94 564.64C379.54 564.64 380.953 564.88 382.18 565.36C383.433 565.84 384.406 566.667 385.1 567.84C385.82 568.987 386.18 570.613 386.18 572.72C386.18 574.56 385.846 576.093 385.18 577.32C384.54 578.52 383.66 579.467 382.54 580.16C381.446 580.827 380.206 581.307 378.82 581.6C377.433 581.867 375.993 582 374.5 582C371.113 582 368.486 581.587 366.62 580.76C364.753 579.907 363.82 578.453 363.82 576.4C363.82 574.96 364.3 573.853 365.26 573.08C366.22 572.28 367.46 571.973 368.98 572.16C370.153 572.293 371.433 572.44 372.82 572.6C374.206 572.76 375.673 572.827 377.22 572.8C378.26 572.8 379.006 572.64 379.46 572.32C379.94 571.973 380.18 571.48 380.18 570.84C380.18 570.067 379.94 569.48 379.46 569.08C379.006 568.653 378.26 568.44 377.22 568.44H369.18C367.74 568.44 366.633 568.173 365.86 567.64C365.086 567.107 364.7 566.147 364.7 564.76V558.16C364.7 556.773 364.913 555.707 365.34 554.96C365.793 554.213 366.406 553.693 367.18 553.4C367.98 553.107 368.886 552.96 369.9 552.96H380.74C382.473 552.96 383.686 553.347 384.38 554.12C385.073 554.893 385.42 555.907 385.42 557.16C385.42 558.413 385.073 559.453 384.38 560.28C383.686 561.08 382.473 561.48 380.74 561.48C379.353 561.48 377.966 561.173 376.58 560.56C375.22 559.947 374.073 559.107 373.14 558.04H372.34V564.64H377.94ZM402.276 564.64C403.876 564.64 405.289 564.88 406.516 565.36C407.769 565.84 408.742 566.667 409.436 567.84C410.156 568.987 410.516 570.613 410.516 572.72C410.516 574.56 410.182 576.093 409.516 577.32C408.876 578.52 407.996 579.467 406.876 580.16C405.782 580.827 404.542 581.307 403.156 581.6C401.769 581.867 400.329 582 398.836 582C395.449 582 392.822 581.587 390.956 580.76C389.089 579.907 388.156 578.453 388.156 576.4C388.156 574.96 388.636 573.853 389.596 573.08C390.556 572.28 391.796 571.973 393.316 572.16C394.489 572.293 395.769 572.44 397.156 572.6C398.542 572.76 400.009 572.827 401.556 572.8C402.596 572.8 403.342 572.64 403.796 572.32C404.276 571.973 404.516 571.48 404.516 570.84C404.516 570.067 404.276 569.48 403.796 569.08C403.342 568.653 402.596 568.44 401.556 568.44H393.516C392.076 568.44 390.969 568.173 390.196 567.64C389.422 567.107 389.036 566.147 389.036 564.76V558.16C389.036 556.773 389.249 555.707 389.676 554.96C390.129 554.213 390.742 553.693 391.516 553.4C392.316 553.107 393.222 552.96 394.236 552.96H405.076C406.809 552.96 408.022 553.347 408.716 554.12C409.409 554.893 409.756 555.907 409.756 557.16C409.756 558.413 409.409 559.453 408.716 560.28C408.022 561.08 406.809 561.48 405.076 561.48C403.689 561.48 402.302 561.173 400.916 560.56C399.556 559.947 398.409 559.107 397.476 558.04H396.676V564.64H402.276ZM414.332 586.04C414.332 585.373 414.558 584.84 415.012 584.44C415.465 584.067 416.172 583.88 417.132 583.88C417.878 583.88 418.545 583.893 419.132 583.92C419.745 583.947 420.145 583.96 420.332 583.96L420.012 582.2C419.878 582.28 419.598 582.387 419.172 582.52C418.745 582.68 418.132 582.76 417.332 582.76C416.025 582.76 414.878 582.373 413.892 581.6C412.932 580.8 412.452 579.68 412.452 578.24C412.452 576.8 412.918 575.64 413.852 574.76C414.785 573.853 415.985 573.4 417.452 573.4C418.918 573.4 420.105 573.813 421.012 574.64C421.945 575.467 422.412 576.787 422.412 578.6C422.412 579.56 422.358 580.6 422.252 581.72C422.172 582.84 421.958 583.893 421.612 584.88C421.265 585.867 420.732 586.667 420.012 587.28C419.318 587.92 418.358 588.24 417.132 588.24C416.172 588.24 415.465 588.04 415.012 587.64C414.558 587.24 414.332 586.707 414.332 586.04ZM440.567 558.96C439.82 559.413 438.9 559.92 437.807 560.48C436.74 561.013 435.473 561.48 434.007 561.88C432.54 562.28 430.847 562.48 428.927 562.48C427.327 562.48 426.127 562.04 425.327 561.16C424.527 560.253 424.127 559.12 424.127 557.76C424.127 556.373 424.527 555.227 425.327 554.32C426.127 553.413 427.327 552.96 428.927 552.96H440.687C442.66 552.96 444.167 553.427 445.207 554.36C446.273 555.293 446.807 556.733 446.807 558.68C446.807 559.667 446.647 560.533 446.327 561.28C446.007 562.027 445.58 562.733 445.047 563.4C444.513 564.067 443.94 564.76 443.327 565.48C442.74 566.2 442.167 567 441.607 567.88C440.78 569.187 440.113 570.707 439.607 572.44C439.1 574.173 438.74 575.973 438.527 577.84C438.367 579.253 437.913 580.333 437.167 581.08C436.447 581.8 435.38 582.173 433.967 582.2C432.527 582.227 431.353 581.827 430.447 581C429.54 580.173 429.1 579.013 429.127 577.52C429.18 574.933 429.58 572.56 430.327 570.4C431.1 568.24 432.14 566.493 433.447 565.16C434.22 564.36 435.047 563.64 435.927 563C436.833 562.36 437.687 561.813 438.487 561.36C439.287 560.88 439.94 560.52 440.447 560.28C440.953 560.04 441.207 559.92 441.207 559.92L440.567 558.96ZM459.388 581.96C457.468 581.933 455.681 581.773 454.028 581.48C452.401 581.187 451.081 580.653 450.068 579.88C449.081 579.107 448.588 578.027 448.588 576.64C448.588 575.227 448.961 574.147 449.708 573.4C450.481 572.627 451.441 572.24 452.588 572.24C454.028 572.24 455.295 572.333 456.388 572.52C457.508 572.707 458.721 572.8 460.028 572.8C461.148 572.8 461.895 572.627 462.268 572.28C462.668 571.933 462.868 571.453 462.868 570.84C462.868 569.533 461.815 568.88 459.708 568.88H457.428C456.521 568.88 455.868 568.667 455.468 568.24C455.068 567.787 454.868 567.253 454.868 566.64C454.868 566 455.068 565.467 455.468 565.04C455.868 564.613 456.521 564.4 457.428 564.4H459.708C460.695 564.4 461.348 564.213 461.668 563.84C461.988 563.44 462.148 562.947 462.148 562.36C462.148 561.88 461.975 561.507 461.628 561.24C461.281 560.973 460.668 560.84 459.788 560.84C458.721 560.84 457.641 560.973 456.548 561.24C455.455 561.507 454.321 561.64 453.148 561.64C451.895 561.64 450.828 561.373 449.948 560.84C449.095 560.28 448.668 559.227 448.668 557.68C448.668 556.613 448.975 555.76 449.588 555.12C450.228 554.453 451.081 553.947 452.148 553.6C453.215 553.227 454.388 552.973 455.668 552.84C456.975 552.707 458.308 552.64 459.668 552.64C461.588 552.64 463.335 552.88 464.908 553.36C466.481 553.813 467.735 554.56 468.668 555.6C469.628 556.64 470.108 558.053 470.108 559.84C470.108 561.787 469.481 563.36 468.228 564.56C467.001 565.733 465.375 566.32 463.348 566.32V567.2C464.708 567.2 465.921 567.427 466.988 567.88C468.081 568.307 468.948 569 469.588 569.96C470.228 570.92 470.548 572.2 470.548 573.8C470.548 575.613 470.041 577.133 469.028 578.36C468.015 579.56 466.668 580.467 464.988 581.08C463.308 581.667 461.441 581.96 459.388 581.96ZM488.41 568.28C487.903 568.493 487.17 568.733 486.21 569C485.25 569.267 483.876 569.4 482.09 569.4C480.863 569.4 479.676 569.307 478.53 569.12C477.383 568.907 476.343 568.533 475.41 568C474.503 567.44 473.77 566.653 473.21 565.64C472.676 564.627 472.41 563.307 472.41 561.68C472.41 559.52 472.903 557.773 473.89 556.44C474.876 555.107 476.17 554.147 477.77 553.56C479.396 552.947 481.116 552.64 482.93 552.64C485.143 552.64 486.983 553 488.45 553.72C489.943 554.413 491.116 555.413 491.97 556.72C492.85 558 493.476 559.52 493.85 561.28C494.223 563.013 494.41 564.92 494.41 567C494.41 571.827 493.33 575.533 491.17 578.12C489.01 580.707 486.063 582 482.33 582C479.05 582 476.676 581.573 475.21 580.72C473.77 579.84 473.05 578.48 473.05 576.64C473.05 575.467 473.423 574.44 474.17 573.56C474.916 572.68 475.89 572.24 477.09 572.24C478.183 572.24 479.17 572.333 480.05 572.52C480.93 572.68 481.823 572.76 482.73 572.76C484.783 572.76 486.236 572.32 487.09 571.44C487.97 570.56 488.41 569.507 488.41 568.28ZM477.61 563.2C477.61 563.68 477.743 564.053 478.01 564.32C478.276 564.587 478.77 564.773 479.49 564.88C480.21 564.987 481.236 565.04 482.57 565.04C484.543 565.04 485.903 564.92 486.65 564.68C487.423 564.413 487.81 563.92 487.81 563.2C487.81 562.507 487.423 562.027 486.65 561.76C485.903 561.467 484.543 561.32 482.57 561.32C481.236 561.32 480.21 561.387 479.49 561.52C478.77 561.627 478.276 561.813 478.01 562.08C477.743 562.347 477.61 562.72 477.61 563.2ZM501.203 582.76C499.63 582.76 498.403 582.347 497.523 581.52C496.643 580.667 496.203 579.547 496.203 578.16C496.203 576.747 496.657 575.6 497.563 574.72C498.47 573.84 499.683 573.4 501.203 573.4C502.697 573.4 503.883 573.84 504.763 574.72C505.67 575.573 506.123 576.707 506.123 578.12C506.123 579.507 505.697 580.627 504.843 581.48C503.99 582.333 502.777 582.76 501.203 582.76ZM514.878 582C513.678 582 512.558 581.867 511.518 581.6C510.505 581.333 509.678 580.827 509.038 580.08C508.398 579.333 508.078 578.227 508.078 576.76C508.078 575.533 508.358 574.507 508.918 573.68C509.478 572.853 510.172 572.147 510.998 571.56C511.825 570.973 512.625 570.44 513.398 569.96L519.598 566.08C520.612 565.44 521.278 564.907 521.598 564.48C521.918 564.053 522.078 563.587 522.078 563.08C522.078 562.627 521.932 562.24 521.638 561.92C521.372 561.6 520.732 561.44 519.718 561.44C518.732 561.44 517.692 561.547 516.598 561.76C515.505 561.973 514.452 562.08 513.438 562.08C511.972 562.08 510.772 561.733 509.838 561.04C508.932 560.32 508.478 559.267 508.478 557.88C508.478 556.547 508.958 555.507 509.918 554.76C510.878 553.987 512.172 553.44 513.798 553.12C515.452 552.8 517.292 552.64 519.318 552.64C522.598 552.64 525.132 553.253 526.918 554.48C528.732 555.707 529.638 557.613 529.638 560.2C529.638 561.987 529.118 563.507 528.078 564.76C527.065 566.013 525.652 567.24 523.838 568.44L516.438 573.32H525.598C527.092 573.32 528.265 573.693 529.118 574.44C529.998 575.16 530.438 576.24 530.438 577.68C530.438 579.12 529.998 580.2 529.118 580.92C528.265 581.64 527.092 582 525.598 582H514.878ZM538.562 565.76C538.562 565.76 539.095 565.613 540.162 565.32C541.255 565.027 542.695 564.88 544.482 564.88C546.402 564.88 548.122 565.08 549.642 565.48C551.189 565.853 552.415 566.587 553.322 567.68C554.229 568.773 554.682 570.36 554.682 572.44C554.682 575.373 553.869 577.707 552.242 579.44C550.615 581.147 548.002 582 544.402 582C542.002 582 539.922 581.56 538.162 580.68C536.429 579.8 535.082 578.387 534.122 576.44C533.189 574.467 532.722 571.867 532.722 568.64C532.722 565.467 533.162 562.68 534.042 560.28C534.922 557.88 536.269 556.013 538.082 554.68C539.895 553.32 542.202 552.64 545.002 552.64C548.095 552.64 550.349 553.08 551.762 553.96C553.202 554.813 553.922 556.027 553.922 557.6C553.922 558.853 553.589 559.853 552.922 560.6C552.282 561.347 551.429 561.72 550.362 561.72C549.455 561.72 548.495 561.6 547.482 561.36C546.469 561.12 545.415 561 544.322 561C542.989 561 541.895 561.24 541.042 561.72C540.189 562.2 539.562 562.8 539.162 563.52C538.762 564.24 538.562 564.987 538.562 565.76ZM539.002 570.64C539.002 571.387 539.362 571.92 540.082 572.24C540.829 572.56 542.215 572.72 544.242 572.72C546.295 572.72 547.669 572.56 548.362 572.24C549.082 571.92 549.442 571.387 549.442 570.64C549.442 569.92 549.082 569.413 548.362 569.12C547.669 568.827 546.295 568.68 544.242 568.68C542.215 568.68 540.829 568.827 540.082 569.12C539.362 569.413 539.002 569.92 539.002 570.64Z" fill="black"/>
<ellipse cx="71.577" cy="288" rx="11.3614" ry="10" fill="black"/>
<ellipse cx="77.2577" cy="444" rx="11.3614" ry="10" fill="black"/>
<ellipse cx="77.2577" cy="568" rx="11.3614" ry="10" fill="black"/>
</svg>
