<svg width="701" height="658" viewBox="0 0 701 658" fill="none" xmlns="http://www.w3.org/2000/svg">
<rect x="1.5" y="1.5" width="698" height="655" rx="48.5" fill="#FFD401" stroke="black" stroke-width="3"/>
<path d="M92.5307 112.64C90.5307 112.64 88.8907 112.06 87.6107 110.9C86.3707 109.74 85.7507 108.14 85.7507 106.1C85.7507 104.1 86.3107 102.5 87.4307 101.3C88.5907 100.06 90.2907 99.44 92.5307 99.44H118.391C120.631 99.44 122.311 100.06 123.431 101.3C124.591 102.5 125.171 104.1 125.171 106.1C125.171 108.14 124.531 109.74 123.251 110.9C122.011 112.06 120.391 112.64 118.391 112.64C117.031 112.64 115.931 112.5 115.091 112.22C114.291 111.9 113.631 111.54 113.111 111.14C112.591 110.7 112.091 110.34 111.611 110.06C111.131 109.74 110.531 109.58 109.811 109.58L109.271 110.66C109.431 111.02 109.711 111.54 110.111 112.22C110.511 112.86 110.891 113.8 111.251 115.04C111.611 116.24 111.791 117.88 111.791 119.96V137.3C111.791 138.94 111.171 140.3 109.931 141.38C108.731 142.46 107.251 143 105.491 143C103.691 143 102.171 142.46 100.931 141.38C99.7307 140.3 99.1307 138.94 99.1307 137.3V119.96C99.1307 117.88 99.3107 116.24 99.6707 115.04C100.031 113.8 100.411 112.86 100.811 112.22C101.251 111.54 101.551 111.02 101.711 110.66L101.111 109.58C100.391 109.58 99.7907 109.74 99.3107 110.06C98.8307 110.34 98.3307 110.7 97.8107 111.14C97.2907 111.54 96.6307 111.9 95.8307 112.22C95.0307 112.5 93.9307 112.64 92.5307 112.64ZM144.011 143.18C139.731 143.18 136.111 142.24 133.151 140.36C130.191 138.48 127.951 135.88 126.431 132.56C124.911 129.24 124.151 125.42 124.151 121.1C124.151 116.82 124.911 113.02 126.431 109.7C127.951 106.34 130.191 103.72 133.151 101.84C136.111 99.92 139.731 98.96 144.011 98.96C148.291 98.96 151.891 99.92 154.811 101.84C157.771 103.72 160.011 106.34 161.531 109.7C163.051 113.02 163.811 116.82 163.811 121.1C163.811 125.42 163.051 129.24 161.531 132.56C160.011 135.88 157.771 138.48 154.811 140.36C151.891 142.24 148.291 143.18 144.011 143.18ZM131.711 120.14C131.711 121.38 132.011 122.56 132.611 123.68C133.211 124.76 134.391 125.64 136.151 126.32C137.911 126.96 140.531 127.28 144.011 127.28C147.491 127.28 150.091 126.96 151.811 126.32C153.571 125.64 154.751 124.76 155.351 123.68C155.951 122.56 156.251 121.38 156.251 120.14C156.251 118.86 155.951 117.72 155.351 116.72C154.751 115.68 153.571 114.86 151.811 114.26C150.091 113.62 147.491 113.3 144.011 113.3C140.531 113.3 137.911 113.62 136.151 114.26C134.391 114.86 133.211 115.68 132.611 116.72C132.011 117.72 131.711 118.86 131.711 120.14ZM180.314 115.94L189.314 103.22C190.914 100.94 192.654 99.66 194.534 99.38C196.414 99.06 198.114 99.5 199.634 100.7C200.634 101.46 201.294 102.48 201.614 103.76C201.934 105.04 201.834 106.4 201.314 107.84C200.794 109.28 199.754 110.64 198.194 111.92L188.174 120.02V121.28C189.454 121.28 190.954 121.44 192.674 121.76C194.394 122.08 195.954 122.8 197.354 123.92C198.474 124.76 199.434 125.72 200.234 126.8C201.074 127.88 201.734 129.22 202.214 130.82C202.694 132.38 202.934 134.36 202.934 136.76C202.934 138.72 202.394 140.3 201.314 141.5C200.274 142.66 198.714 143.24 196.634 143.24C194.554 143.24 192.954 142.66 191.834 141.5C190.754 140.3 190.214 138.72 190.214 136.76C190.214 134.56 189.854 132.82 189.134 131.54C188.454 130.22 187.534 129.26 186.374 128.66C185.214 128.06 183.954 127.76 182.594 127.76H179.654V137.18C179.654 138.9 179.054 140.32 177.854 141.44C176.694 142.56 175.194 143.12 173.354 143.12C171.514 143.12 169.994 142.56 168.794 141.44C167.634 140.32 167.054 138.9 167.054 137.18V105.44C167.054 103.68 167.634 102.2 168.794 101C169.954 99.8 171.474 99.2 173.354 99.2C175.354 99.2 176.894 99.8 177.974 101C179.094 102.16 179.654 103.6 179.654 105.32V115.82L180.314 115.94ZM220.306 142.88C218.346 142.88 216.466 142.7 214.666 142.34C212.906 141.98 211.346 141.3 209.986 140.3C208.666 139.26 207.606 137.78 206.806 135.86C206.046 133.9 205.666 131.34 205.666 128.18C205.666 125.34 206.046 122.9 206.806 120.86C207.566 118.82 208.466 117.2 209.506 116C210.586 114.8 211.566 114.06 212.446 113.78L212.146 112.64H211.126C209.286 112.64 207.826 112.06 206.746 110.9C205.706 109.7 205.166 108.08 205.126 106.04C205.086 104.04 205.606 102.44 206.686 101.24C207.806 100.04 209.286 99.44 211.126 99.44H232.666C236.946 99.44 239.086 101.44 239.086 105.44C239.086 107.24 238.566 108.68 237.526 109.76C236.486 110.84 234.866 111.38 232.666 111.38H220.246C218.766 111.38 218.026 112.24 218.026 113.96V118.46C220.026 118.02 222.106 117.5 224.266 116.9C226.466 116.3 228.546 116 230.506 116C232.386 116 233.786 116.42 234.706 117.26C235.666 118.06 236.146 119.16 236.146 120.56C236.146 122 235.666 123.14 234.706 123.98C233.786 124.78 232.386 125.2 230.506 125.24C228.546 125.28 226.466 125 224.266 124.4C222.066 123.8 219.966 123.28 217.966 122.84V130.7C217.966 131.46 218.166 132 218.566 132.32C219.006 132.6 219.686 132.48 220.606 131.96C222.606 130.8 224.566 129.88 226.486 129.2C228.406 128.48 230.286 128.12 232.126 128.12C234.726 128.12 236.686 128.8 238.006 130.16C239.366 131.52 240.046 133.3 240.046 135.5C240.046 137.86 239.326 139.68 237.886 140.96C236.486 142.24 234.206 142.88 231.046 142.88H220.306ZM248.641 143C246.641 143 245.121 142.38 244.081 141.14C243.041 139.9 242.521 138.24 242.521 136.16V108.02C242.521 105.94 242.901 104.26 243.661 102.98C244.461 101.66 245.481 100.7 246.721 100.1C248.001 99.5 249.381 99.2 250.861 99.2C253.061 99.2 254.921 99.78 256.441 100.94C257.961 102.1 259.141 104.14 259.981 107.06L266.461 129.2H267.421V106.16C267.421 104.04 267.961 102.38 269.041 101.18C270.121 99.94 271.661 99.32 273.661 99.32C275.741 99.32 277.281 99.94 278.281 101.18C279.321 102.38 279.841 104.04 279.841 106.16V133.28C279.841 136.64 279.101 139.12 277.621 140.72C276.141 142.32 274.061 143.12 271.381 143.12C268.661 143.12 266.541 142.4 265.021 140.96C263.501 139.52 262.341 137.4 261.541 134.6L257.281 120.02C257.201 119.62 257.041 119.26 256.801 118.94C256.601 118.58 256.321 118.4 255.961 118.4C255.521 118.4 255.221 118.58 255.061 118.94C254.901 119.26 254.821 119.62 254.821 120.02V136.16C254.821 138.24 254.301 139.9 253.261 141.14C252.221 142.38 250.681 143 248.641 143ZM303.034 143.18C298.754 143.18 295.134 142.24 292.174 140.36C289.214 138.48 286.974 135.88 285.454 132.56C283.934 129.24 283.174 125.42 283.174 121.1C283.174 116.82 283.934 113.02 285.454 109.7C286.974 106.34 289.214 103.72 292.174 101.84C295.134 99.92 298.754 98.96 303.034 98.96C307.314 98.96 310.914 99.92 313.834 101.84C316.794 103.72 319.034 106.34 320.554 109.7C322.074 113.02 322.834 116.82 322.834 121.1C322.834 125.42 322.074 129.24 320.554 132.56C319.034 135.88 316.794 138.48 313.834 140.36C310.914 142.24 307.314 143.18 303.034 143.18ZM290.734 120.14C290.734 121.38 291.034 122.56 291.634 123.68C292.234 124.76 293.414 125.64 295.174 126.32C296.934 126.96 299.554 127.28 303.034 127.28C306.514 127.28 309.114 126.96 310.834 126.32C312.594 125.64 313.774 124.76 314.374 123.68C314.974 122.56 315.274 121.38 315.274 120.14C315.274 118.86 314.974 117.72 314.374 116.72C313.774 115.68 312.594 114.86 310.834 114.26C309.114 113.62 306.514 113.3 303.034 113.3C299.554 113.3 296.934 113.62 295.174 114.26C293.414 114.86 292.234 115.68 291.634 116.72C291.034 117.72 290.734 118.86 290.734 120.14ZM332.137 143C330.057 143 328.517 142.38 327.517 141.14C326.517 139.9 326.017 138.24 326.017 136.16V108.2C326.017 105.16 326.837 102.92 328.477 101.48C330.157 100.04 332.157 99.32 334.477 99.32C336.677 99.32 338.537 100.04 340.057 101.48C341.617 102.92 342.757 105.2 343.477 108.32L348.157 128.66H349.717L354.397 108.32C355.117 105.2 356.257 102.92 357.817 101.48C359.417 100.04 361.317 99.32 363.517 99.32C365.837 99.32 367.817 100.04 369.457 101.48C371.137 102.92 371.977 105.16 371.977 108.2V136.16C371.977 138.24 371.457 139.9 370.417 141.14C369.417 142.38 367.877 143 365.797 143C363.797 143 362.257 142.38 361.177 141.14C360.097 139.9 359.557 138.24 359.557 136.16V120.02C359.557 119.62 359.497 119.26 359.377 118.94C359.297 118.58 359.037 118.4 358.597 118.4C358.237 118.4 357.977 118.58 357.817 118.94C357.657 119.26 357.537 119.62 357.457 120.02L355.177 135.14C354.897 136.78 354.557 138.2 354.157 139.4C353.797 140.56 353.217 141.46 352.417 142.1C351.617 142.7 350.457 143 348.937 143C347.457 143 346.297 142.7 345.457 142.1C344.657 141.46 344.057 140.56 343.657 139.4C343.297 138.2 342.997 136.78 342.757 135.14L340.417 120.02C340.377 119.62 340.277 119.26 340.117 118.94C339.957 118.58 339.677 118.4 339.277 118.4C338.877 118.4 338.617 118.58 338.497 118.94C338.377 119.26 338.317 119.62 338.317 120.02V136.16C338.317 138.24 337.777 139.9 336.697 141.14C335.657 142.38 334.137 143 332.137 143ZM382.062 143.12C380.222 143.12 378.722 142.56 377.562 141.44C376.402 140.32 375.822 138.9 375.822 137.18V105.44C375.822 103.68 376.382 102.2 377.502 101C378.662 99.8 380.182 99.2 382.062 99.2C384.062 99.2 385.622 99.8 386.742 101C387.902 102.16 388.482 103.6 388.482 105.32V137.18C388.482 138.9 387.862 140.32 386.622 141.44C385.422 142.56 383.902 143.12 382.062 143.12ZM412.986 143.12C409.066 143.12 405.526 142.32 402.366 140.72C399.246 139.08 396.786 136.66 394.986 133.46C393.186 130.26 392.286 126.32 392.286 121.64C392.286 116.96 393.186 112.92 394.986 109.52C396.826 106.12 399.326 103.52 402.486 101.72C405.686 99.88 409.326 98.96 413.406 98.96C418.126 98.96 421.746 99.62 424.266 100.94C426.786 102.26 428.046 104.22 428.046 106.82C428.046 108.82 427.506 110.48 426.426 111.8C425.346 113.08 423.866 113.72 421.986 113.72C420.386 113.72 418.826 113.52 417.306 113.12C415.826 112.68 414.086 112.46 412.086 112.46C409.526 112.46 407.506 113.2 406.026 114.68C404.546 116.16 403.806 118.1 403.806 120.5C403.806 122.86 404.546 124.84 406.026 126.44C407.506 128 409.526 128.78 412.086 128.78C413.446 128.78 414.686 128.68 415.806 128.48C416.966 128.24 418.086 128 419.166 127.76C420.286 127.52 421.486 127.4 422.766 127.4C424.886 127.4 426.446 128.1 427.446 129.5C428.446 130.86 428.946 132.56 428.946 134.6C428.946 136.64 428.206 138.3 426.726 139.58C425.246 140.82 423.286 141.72 420.846 142.28C418.446 142.84 415.826 143.12 412.986 143.12ZM450.552 143.18C448.312 143.18 446.052 142.96 443.772 142.52C441.532 142.04 439.452 141.36 437.532 140.48C435.652 139.56 434.132 138.46 432.972 137.18C431.812 135.86 431.232 134.34 431.232 132.62C431.232 130.42 431.932 128.66 433.332 127.34C434.732 126.02 436.372 125.4 438.252 125.48C439.732 125.52 441.212 125.84 442.692 126.44C444.172 127 445.672 127.56 447.192 128.12C448.752 128.68 450.312 128.96 451.872 128.96C453.432 128.96 454.512 128.76 455.112 128.36C455.712 127.96 456.012 127.42 456.012 126.74C456.012 125.94 455.592 125.28 454.752 124.76C453.912 124.24 452.852 123.84 451.572 123.56L448.632 122.84C445.592 122.12 442.872 121.32 440.472 120.44C438.072 119.52 436.172 118.32 434.772 116.84C433.412 115.32 432.732 113.3 432.732 110.78C432.732 108.02 433.492 105.78 435.012 104.06C436.532 102.3 438.592 101.02 441.192 100.22C443.792 99.42 446.692 99.02 449.892 99.02C453.172 99.02 456.052 99.36 458.532 100.04C461.012 100.72 462.932 101.7 464.292 102.98C465.692 104.26 466.392 105.82 466.392 107.66C466.392 109.62 465.852 111.16 464.772 112.28C463.732 113.36 462.332 113.9 460.572 113.9C459.412 113.9 458.192 113.7 456.912 113.3C455.672 112.9 454.352 112.52 452.952 112.16C451.592 111.76 450.132 111.56 448.572 111.56C447.172 111.56 446.112 111.78 445.392 112.22C444.672 112.62 444.312 113.16 444.312 113.84C444.312 114.68 444.792 115.3 445.752 115.7C446.712 116.1 448.292 116.58 450.492 117.14L453.852 117.92C456.612 118.6 459.032 119.42 461.112 120.38C463.192 121.34 464.812 122.6 465.972 124.16C467.132 125.72 467.712 127.76 467.712 130.28C467.712 133.32 466.992 135.8 465.552 137.72C464.112 139.6 462.112 140.98 459.552 141.86C456.992 142.74 453.992 143.18 450.552 143.18Z" fill="black"/>
<line x1="59.0793" y1="194.5" x2="606.7" y2="194.5" stroke="black"/>
<line x1="63.624" y1="380.5" x2="611.245" y2="380.5" stroke="black"/>
<line x1="63.624" y1="510.5" x2="611.245" y2="510.5" stroke="black"/>
<path d="M123.519 277C122.132 277 121.105 276.587 120.439 275.76C119.772 274.933 119.439 273.827 119.439 272.44V253.8C119.439 251.773 119.985 250.28 121.079 249.32C122.199 248.36 123.532 247.88 125.079 247.88C126.545 247.88 127.785 248.36 128.799 249.32C129.839 250.28 130.599 251.8 131.079 253.88L134.199 267.44H135.239L138.359 253.88C138.839 251.8 139.599 250.28 140.639 249.32C141.705 248.36 142.972 247.88 144.439 247.88C145.985 247.88 147.305 248.36 148.399 249.32C149.519 250.28 150.079 251.773 150.079 253.8V272.44C150.079 273.827 149.732 274.933 149.039 275.76C148.372 276.587 147.345 277 145.959 277C144.625 277 143.599 276.587 142.879 275.76C142.159 274.933 141.799 273.827 141.799 272.44V261.68C141.799 261.413 141.759 261.173 141.679 260.96C141.625 260.72 141.452 260.6 141.159 260.6C140.919 260.6 140.745 260.72 140.639 260.96C140.532 261.173 140.452 261.413 140.399 261.68L138.879 271.76C138.692 272.853 138.465 273.8 138.199 274.6C137.959 275.373 137.572 275.973 137.039 276.4C136.505 276.8 135.732 277 134.719 277C133.732 277 132.959 276.8 132.399 276.4C131.865 275.973 131.465 275.373 131.199 274.6C130.959 273.8 130.759 272.853 130.599 271.76L129.039 261.68C129.012 261.413 128.945 261.173 128.839 260.96C128.732 260.72 128.545 260.6 128.279 260.6C128.012 260.6 127.839 260.72 127.759 260.96C127.679 261.173 127.639 261.413 127.639 261.68V272.44C127.639 273.827 127.279 274.933 126.559 275.76C125.865 276.587 124.852 277 123.519 277ZM155.882 277C154.095 276.733 152.935 275.92 152.402 274.56C151.869 273.173 151.975 271.427 152.722 269.32L158.002 254.32C158.482 252.933 159.029 251.747 159.642 250.76C160.282 249.773 161.069 249.013 162.002 248.48C162.962 247.947 164.149 247.68 165.562 247.68C167.695 247.68 169.295 248.267 170.362 249.44C171.455 250.613 172.362 252.24 173.082 254.32L178.322 269.32C179.069 271.427 179.202 273.173 178.722 274.56C178.269 275.92 177.135 276.733 175.322 277C173.855 277.187 172.575 277.013 171.482 276.48C170.415 275.947 169.775 275.08 169.562 273.88C169.402 273.08 169.375 272.413 169.482 271.88C169.615 271.347 169.735 270.92 169.842 270.6C169.922 270.333 169.922 270.08 169.842 269.84C169.789 269.573 169.589 269.44 169.242 269.44H161.802C161.455 269.44 161.242 269.573 161.162 269.84C161.109 270.08 161.135 270.333 161.242 270.6C161.349 270.92 161.455 271.347 161.562 271.88C161.669 272.413 161.655 273.08 161.522 273.88C161.309 275.08 160.682 275.947 159.642 276.48C158.602 277.013 157.349 277.187 155.882 277ZM168.482 263.84L166.402 257.32C166.349 257.053 166.255 256.853 166.122 256.72C166.015 256.56 165.829 256.48 165.562 256.48C165.295 256.48 165.095 256.56 164.962 256.72C164.855 256.853 164.762 257.053 164.682 257.32L162.642 263.84H168.482ZM181.801 268.6C182.788 267.293 183.881 266.173 185.081 265.24C186.281 264.28 187.615 263.347 189.081 262.44C188.415 261.693 187.681 261.027 186.881 260.44C186.108 259.853 185.321 259.253 184.521 258.64C183.748 258 183.001 257.253 182.281 256.4C181.588 255.52 181.108 254.6 180.841 253.64C180.575 252.653 180.575 251.707 180.841 250.8C181.135 249.893 181.721 249.147 182.601 248.56C183.561 247.893 184.535 247.653 185.521 247.84C186.508 248 187.441 248.467 188.321 249.24C189.201 249.987 189.961 250.933 190.601 252.08C191.188 253.093 191.761 254.067 192.321 255C192.881 255.907 193.428 256.747 193.961 257.52C194.681 256.827 195.201 256.173 195.521 255.56C195.841 254.92 196.121 254.227 196.361 253.48C196.628 252.733 197.001 251.867 197.481 250.88C197.881 250.027 198.428 249.347 199.121 248.84C199.841 248.307 200.641 248 201.521 247.92C202.401 247.84 203.268 248.067 204.121 248.6C204.975 249.107 205.535 249.813 205.801 250.72C206.095 251.6 206.108 252.547 205.841 253.56C205.601 254.573 205.108 255.533 204.361 256.44C203.508 257.453 202.468 258.36 201.241 259.16C200.041 259.933 198.775 260.627 197.441 261.24C198.775 262.467 200.068 263.627 201.321 264.72C202.575 265.813 203.708 267.08 204.721 268.52C205.735 269.96 206.201 271.413 206.121 272.88C206.068 274.347 205.415 275.493 204.161 276.32C202.855 277.147 201.508 277.307 200.121 276.8C198.735 276.293 197.521 275.267 196.481 273.72C195.468 272.173 194.628 270.84 193.961 269.72C193.321 268.573 192.695 267.493 192.081 266.48C191.868 267.013 191.681 267.627 191.521 268.32C191.388 269.013 191.188 269.813 190.921 270.72C190.681 271.627 190.268 272.68 189.681 273.88C189.201 274.92 188.535 275.72 187.681 276.28C186.828 276.813 185.908 277.053 184.921 277C183.935 276.973 182.988 276.627 182.081 275.96C181.335 275.373 180.841 274.667 180.601 273.84C180.388 272.987 180.388 272.107 180.601 271.2C180.815 270.267 181.215 269.4 181.801 268.6ZM218.937 256.76C217.604 256.76 216.511 256.373 215.657 255.6C214.831 254.827 214.417 253.76 214.417 252.4C214.417 251.067 214.791 250 215.537 249.2C216.311 248.373 217.444 247.96 218.937 247.96H236.177C237.671 247.96 238.791 248.373 239.537 249.2C240.311 250 240.697 251.067 240.697 252.4C240.697 253.76 240.271 254.827 239.417 255.6C238.591 256.373 237.511 256.76 236.177 256.76C235.271 256.76 234.537 256.667 233.977 256.48C233.444 256.267 233.004 256.027 232.657 255.76C232.311 255.467 231.977 255.227 231.657 255.04C231.337 254.827 230.937 254.72 230.457 254.72L230.097 255.44C230.204 255.68 230.391 256.027 230.657 256.48C230.924 256.907 231.177 257.533 231.417 258.36C231.657 259.16 231.777 260.253 231.777 261.64V273.2C231.777 274.293 231.364 275.2 230.537 275.92C229.737 276.64 228.751 277 227.577 277C226.377 277 225.364 276.64 224.537 275.92C223.737 275.2 223.337 274.293 223.337 273.2V261.64C223.337 260.253 223.457 259.16 223.697 258.36C223.937 257.533 224.191 256.907 224.457 256.48C224.751 256.027 224.951 255.68 225.057 255.44L224.657 254.72C224.177 254.72 223.777 254.827 223.457 255.04C223.137 255.227 222.804 255.467 222.457 255.76C222.111 256.027 221.671 256.267 221.137 256.48C220.604 256.667 219.871 256.76 218.937 256.76ZM253.257 277.12C250.404 277.12 247.991 276.493 246.017 275.24C244.044 273.987 242.551 272.253 241.537 270.04C240.524 267.827 240.017 265.28 240.017 262.4C240.017 259.547 240.524 257.013 241.537 254.8C242.551 252.56 244.044 250.813 246.017 249.56C247.991 248.28 250.404 247.64 253.257 247.64C256.111 247.64 258.511 248.28 260.457 249.56C262.431 250.813 263.924 252.56 264.937 254.8C265.951 257.013 266.457 259.547 266.457 262.4C266.457 265.28 265.951 267.827 264.937 270.04C263.924 272.253 262.431 273.987 260.457 275.24C258.511 276.493 256.111 277.12 253.257 277.12ZM245.057 261.76C245.057 262.587 245.257 263.373 245.657 264.12C246.057 264.84 246.844 265.427 248.017 265.88C249.191 266.307 250.937 266.52 253.257 266.52C255.577 266.52 257.311 266.307 258.457 265.88C259.631 265.427 260.417 264.84 260.817 264.12C261.217 263.373 261.417 262.587 261.417 261.76C261.417 260.907 261.217 260.147 260.817 259.48C260.417 258.787 259.631 258.24 258.457 257.84C257.311 257.413 255.577 257.2 253.257 257.2C250.937 257.2 249.191 257.413 248.017 257.84C246.844 258.24 246.057 258.787 245.657 259.48C245.257 260.147 245.057 260.907 245.057 261.76ZM270.578 256.76C269.245 256.76 268.151 256.373 267.298 255.6C266.471 254.827 266.058 253.76 266.058 252.4C266.058 251.067 266.431 250 267.178 249.2C267.951 248.373 269.085 247.96 270.578 247.96H287.818C289.311 247.96 290.431 248.373 291.178 249.2C291.951 250 292.338 251.067 292.338 252.4C292.338 253.76 291.911 254.827 291.058 255.6C290.231 256.373 289.151 256.76 287.818 256.76C286.911 256.76 286.178 256.667 285.618 256.48C285.085 256.267 284.645 256.027 284.298 255.76C283.951 255.467 283.618 255.227 283.298 255.04C282.978 254.827 282.578 254.72 282.098 254.72L281.738 255.44C281.845 255.68 282.031 256.027 282.298 256.48C282.565 256.907 282.818 257.533 283.058 258.36C283.298 259.16 283.418 260.253 283.418 261.64V273.2C283.418 274.293 283.005 275.2 282.178 275.92C281.378 276.64 280.391 277 279.218 277C278.018 277 277.005 276.64 276.178 275.92C275.378 275.2 274.978 274.293 274.978 273.2V261.64C274.978 260.253 275.098 259.16 275.338 258.36C275.578 257.533 275.831 256.907 276.098 256.48C276.391 256.027 276.591 255.68 276.698 255.44L276.298 254.72C275.818 254.72 275.418 254.827 275.098 255.04C274.778 255.227 274.445 255.467 274.098 255.76C273.751 256.027 273.311 256.267 272.778 256.48C272.245 256.667 271.511 256.76 270.578 256.76ZM291.507 277C289.72 276.733 288.56 275.92 288.027 274.56C287.494 273.173 287.6 271.427 288.347 269.32L293.627 254.32C294.107 252.933 294.654 251.747 295.267 250.76C295.907 249.773 296.694 249.013 297.627 248.48C298.587 247.947 299.774 247.68 301.187 247.68C303.32 247.68 304.92 248.267 305.987 249.44C307.08 250.613 307.987 252.24 308.707 254.32L313.947 269.32C314.694 271.427 314.827 273.173 314.347 274.56C313.894 275.92 312.76 276.733 310.947 277C309.48 277.187 308.2 277.013 307.107 276.48C306.04 275.947 305.4 275.08 305.187 273.88C305.027 273.08 305 272.413 305.107 271.88C305.24 271.347 305.36 270.92 305.467 270.6C305.547 270.333 305.547 270.08 305.467 269.84C305.414 269.573 305.214 269.44 304.867 269.44H297.427C297.08 269.44 296.867 269.573 296.787 269.84C296.734 270.08 296.76 270.333 296.867 270.6C296.974 270.92 297.08 271.347 297.187 271.88C297.294 272.413 297.28 273.08 297.147 273.88C296.934 275.08 296.307 275.947 295.267 276.48C294.227 277.013 292.974 277.187 291.507 277ZM304.107 263.84L302.027 257.32C301.974 257.053 301.88 256.853 301.747 256.72C301.64 256.56 301.454 256.48 301.187 256.48C300.92 256.48 300.72 256.56 300.587 256.72C300.48 256.853 300.387 257.053 300.307 257.32L298.267 263.84H304.107ZM316.626 251.76C316.626 250.533 317 249.587 317.746 248.92C318.52 248.227 319.506 247.88 320.706 247.88C321.96 247.88 322.96 248.227 323.706 248.92C324.453 249.587 324.826 250.533 324.826 251.76V268.8C324.826 269.307 324.96 269.667 325.226 269.88C325.493 270.067 325.933 269.987 326.546 269.64C327.88 268.867 329.066 268.253 330.106 267.8C331.146 267.32 332.293 267.08 333.546 267.08C335.28 267.08 336.586 267.533 337.466 268.44C338.346 269.347 338.786 270.533 338.786 272C338.786 273.573 338.306 274.787 337.346 275.64C336.413 276.493 334.906 276.92 332.826 276.92H324.586C322.826 276.92 321.36 276.72 320.186 276.32C319.013 275.893 318.12 275.133 317.506 274.04C316.92 272.947 316.626 271.36 316.626 269.28V251.76ZM131.759 335.12C130.265 335.12 128.759 334.973 127.239 334.68C125.745 334.36 124.359 333.907 123.079 333.32C121.825 332.707 120.812 331.973 120.039 331.12C119.265 330.24 118.879 329.227 118.879 328.08C118.879 326.613 119.345 325.44 120.279 324.56C121.212 323.68 122.305 323.267 123.559 323.32C124.545 323.347 125.532 323.56 126.519 323.96C127.505 324.333 128.505 324.707 129.519 325.08C130.559 325.453 131.599 325.64 132.639 325.64C133.679 325.64 134.399 325.507 134.799 325.24C135.199 324.973 135.399 324.613 135.399 324.16C135.399 323.627 135.119 323.187 134.559 322.84C133.999 322.493 133.292 322.227 132.439 322.04L130.479 321.56C128.452 321.08 126.639 320.547 125.039 319.96C123.439 319.347 122.172 318.547 121.239 317.56C120.332 316.547 119.879 315.2 119.879 313.52C119.879 311.68 120.385 310.187 121.399 309.04C122.412 307.867 123.785 307.013 125.519 306.48C127.252 305.947 129.185 305.68 131.319 305.68C133.505 305.68 135.425 305.907 137.079 306.36C138.732 306.813 140.012 307.467 140.919 308.32C141.852 309.173 142.319 310.213 142.319 311.44C142.319 312.747 141.959 313.773 141.239 314.52C140.545 315.24 139.612 315.6 138.439 315.6C137.665 315.6 136.852 315.467 135.999 315.2C135.172 314.933 134.292 314.68 133.359 314.44C132.452 314.173 131.479 314.04 130.439 314.04C129.505 314.04 128.799 314.187 128.319 314.48C127.839 314.747 127.599 315.107 127.599 315.56C127.599 316.12 127.919 316.533 128.559 316.8C129.199 317.067 130.252 317.387 131.719 317.76L133.959 318.28C135.799 318.733 137.412 319.28 138.799 319.92C140.185 320.56 141.265 321.4 142.039 322.44C142.812 323.48 143.199 324.84 143.199 326.52C143.199 328.547 142.719 330.2 141.759 331.48C140.799 332.733 139.465 333.653 137.759 334.24C136.052 334.827 134.052 335.12 131.759 335.12ZM157.341 335.12C155.741 335.093 154.208 334.88 152.741 334.48C151.301 334.08 150.008 333.427 148.861 332.52C147.714 331.613 146.808 330.4 146.141 328.88C145.501 327.36 145.181 325.48 145.181 323.24V309.68C145.181 308.4 145.594 307.453 146.421 306.84C147.274 306.2 148.261 305.88 149.381 305.88C150.474 305.88 151.448 306.2 152.301 306.84C153.154 307.453 153.581 308.4 153.581 309.68V321.36C153.581 323.253 154.021 324.64 154.901 325.52C155.808 326.4 156.968 326.8 158.381 326.72C159.874 326.613 160.941 326.04 161.581 325C162.248 323.96 162.434 322.573 162.141 320.84C161.954 319.667 161.741 318.68 161.501 317.88C161.288 317.08 161.061 316.373 160.821 315.76C160.608 315.12 160.421 314.493 160.261 313.88C160.101 313.24 159.981 312.493 159.901 311.64C159.741 309.853 160.101 308.453 160.981 307.44C161.888 306.4 163.074 305.88 164.541 305.88C166.008 305.88 167.154 306.373 167.981 307.36C168.808 308.347 169.221 309.84 169.221 311.84V323.24C169.221 325.48 168.901 327.373 168.261 328.92C167.648 330.44 166.781 331.667 165.661 332.6C164.568 333.507 163.301 334.16 161.861 334.56C160.448 334.933 158.941 335.12 157.341 335.12ZM180.024 325.76V330.76C180.024 332.147 179.65 333.2 178.904 333.92C178.184 334.64 177.224 335 176.024 335H175.984C174.677 335 173.637 334.64 172.864 333.92C172.117 333.2 171.744 332.147 171.744 330.76V325.12C171.744 322.293 172.17 320.147 173.024 318.68C173.877 317.213 174.957 316.16 176.264 315.52L176.064 314.76H175.384C174.157 314.76 173.184 314.373 172.464 313.6C171.77 312.8 171.41 311.72 171.384 310.36C171.357 309.027 171.704 307.947 172.424 307.12C173.17 306.293 174.157 305.88 175.384 305.88H185.904C188.597 305.88 190.784 306.693 192.464 308.32C194.17 309.92 195.024 312.453 195.024 315.92C195.024 318.427 194.584 320.4 193.704 321.84C192.824 323.28 191.664 324.293 190.224 324.88C188.784 325.467 187.224 325.76 185.544 325.76H180.024ZM179.504 318.04C179.504 318.627 179.61 319.013 179.824 319.2C180.064 319.387 180.477 319.48 181.064 319.48H184.784C185.904 319.48 186.717 319.227 187.224 318.72C187.73 318.187 187.984 317.44 187.984 316.48C187.984 315.52 187.73 314.787 187.224 314.28C186.717 313.773 185.904 313.52 184.784 313.52H181.064C180.477 313.52 180.064 313.6 179.824 313.76C179.61 313.92 179.504 314.307 179.504 314.92V318.04ZM205.18 325.76V330.76C205.18 332.147 204.806 333.2 204.06 333.92C203.34 334.64 202.38 335 201.18 335H201.14C199.833 335 198.793 334.64 198.02 333.92C197.273 333.2 196.9 332.147 196.9 330.76V325.12C196.9 322.293 197.326 320.147 198.18 318.68C199.033 317.213 200.113 316.16 201.42 315.52L201.22 314.76H200.54C199.313 314.76 198.34 314.373 197.62 313.6C196.926 312.8 196.566 311.72 196.54 310.36C196.513 309.027 196.86 307.947 197.58 307.12C198.326 306.293 199.313 305.88 200.54 305.88H211.06C213.753 305.88 215.94 306.693 217.62 308.32C219.326 309.92 220.18 312.453 220.18 315.92C220.18 318.427 219.74 320.4 218.86 321.84C217.98 323.28 216.82 324.293 215.38 324.88C213.94 325.467 212.38 325.76 210.7 325.76H205.18ZM204.66 318.04C204.66 318.627 204.766 319.013 204.98 319.2C205.22 319.387 205.633 319.48 206.22 319.48H209.94C211.06 319.48 211.873 319.227 212.38 318.72C212.886 318.187 213.14 317.44 213.14 316.48C213.14 315.52 212.886 314.787 212.38 314.28C211.873 313.773 211.06 313.52 209.94 313.52H206.22C205.633 313.52 205.22 313.6 204.98 313.76C204.766 313.92 204.66 314.307 204.66 314.92V318.04ZM222.056 309.76C222.056 308.533 222.429 307.587 223.176 306.92C223.949 306.227 224.936 305.88 226.136 305.88C227.389 305.88 228.389 306.227 229.136 306.92C229.883 307.587 230.256 308.533 230.256 309.76V326.8C230.256 327.307 230.389 327.667 230.656 327.88C230.923 328.067 231.363 327.987 231.976 327.64C233.309 326.867 234.496 326.253 235.536 325.8C236.576 325.32 237.723 325.08 238.976 325.08C240.709 325.08 242.016 325.533 242.896 326.44C243.776 327.347 244.216 328.533 244.216 330C244.216 331.573 243.736 332.787 242.776 333.64C241.843 334.493 240.336 334.92 238.256 334.92H230.016C228.256 334.92 226.789 334.72 225.616 334.32C224.443 333.893 223.549 333.133 222.936 332.04C222.349 330.947 222.056 329.36 222.056 327.28V309.76ZM238.236 313.6C237.463 311.947 237.29 310.467 237.716 309.16C238.143 307.827 238.956 306.893 240.156 306.36C241.383 305.827 242.623 305.827 243.876 306.36C245.156 306.867 246.09 307.947 246.676 309.6C246.97 310.427 247.183 311.387 247.316 312.48C247.45 313.547 247.596 314.587 247.756 315.6C247.943 316.587 248.236 317.413 248.636 318.08C249.063 318.72 249.716 319.04 250.596 319.04C251.476 319.04 252.13 318.72 252.556 318.08C252.983 317.413 253.276 316.587 253.436 315.6C253.623 314.587 253.77 313.547 253.876 312.48C254.01 311.387 254.223 310.427 254.516 309.6C255.13 307.947 256.063 306.867 257.316 306.36C258.57 305.827 259.81 305.827 261.036 306.36C262.236 306.893 263.05 307.827 263.476 309.16C263.903 310.467 263.73 311.947 262.956 313.6C262.556 314.453 262.023 315.267 261.356 316.04C260.716 316.787 260.01 317.56 259.236 318.36C258.463 319.16 257.69 320.053 256.916 321.04C256.143 322 255.436 323.107 254.796 324.36V331.2C254.796 332.293 254.396 333.2 253.596 333.92C252.796 334.64 251.796 335 250.596 335C249.423 335 248.423 334.64 247.596 333.92C246.796 333.2 246.396 332.293 246.396 331.2V324.36C245.783 323.107 245.09 322 244.316 321.04C243.543 320.053 242.77 319.16 241.996 318.36C241.223 317.56 240.503 316.787 239.836 316.04C239.17 315.267 238.636 314.453 238.236 313.6ZM271.844 318.84C270.271 318.84 269.044 318.427 268.164 317.6C267.284 316.747 266.844 315.627 266.844 314.24C266.844 312.827 267.284 311.68 268.164 310.8C269.071 309.92 270.297 309.48 271.844 309.48C273.337 309.48 274.524 309.92 275.404 310.8C276.284 311.653 276.724 312.787 276.724 314.2C276.724 315.587 276.297 316.707 275.444 317.56C274.591 318.413 273.391 318.84 271.844 318.84ZM266.844 329.36C266.844 327.947 267.284 326.8 268.164 325.92C269.071 325.04 270.297 324.6 271.844 324.6C273.337 324.6 274.524 325.04 275.404 325.92C276.284 326.773 276.724 327.907 276.724 329.32C276.724 330.707 276.297 331.827 275.444 332.68C274.591 333.533 273.391 333.96 271.844 333.96C270.271 333.96 269.044 333.547 268.164 332.72C267.284 331.867 266.844 330.747 266.844 329.36ZM299.006 335.08C297.699 335.08 296.686 334.68 295.966 333.88C295.246 333.08 294.886 332.093 294.886 330.92V316.6H294.086C293.899 317.213 293.499 317.76 292.886 318.24C292.272 318.72 291.499 318.96 290.566 318.96C289.552 318.96 288.659 318.627 287.886 317.96C287.139 317.267 286.766 316.307 286.766 315.08C286.766 314.147 286.979 313.36 287.406 312.72C287.832 312.08 288.379 311.453 289.046 310.84L291.966 308.24C292.979 307.333 293.926 306.68 294.806 306.28C295.686 305.853 296.699 305.64 297.846 305.64C298.779 305.64 299.646 305.84 300.446 306.24C301.246 306.64 301.886 307.267 302.366 308.12C302.872 308.947 303.126 310.04 303.126 311.4V330.92C303.126 332.093 302.779 333.08 302.086 333.88C301.392 334.68 300.366 335.08 299.006 335.08ZM314.837 334.96C313.61 334.907 312.463 334.733 311.397 334.44C310.357 334.147 309.437 333.653 308.637 332.96C307.837 332.24 307.21 331.253 306.757 330C306.33 328.747 306.117 327.147 306.117 325.2C306.117 323.307 306.37 321.667 306.877 320.28C307.41 318.893 308.037 317.787 308.757 316.96C309.477 316.133 310.13 315.627 310.717 315.44L310.517 314.68H309.837C308.61 314.68 307.637 314.293 306.917 313.52C306.223 312.72 305.863 311.653 305.837 310.32C305.81 308.987 306.157 307.92 306.877 307.12C307.623 306.293 308.61 305.88 309.837 305.88H320.837C323.717 305.88 325.797 306.573 327.077 307.96C328.357 309.32 328.997 311.093 328.997 313.28C328.997 315.04 328.583 316.507 327.757 317.68C326.957 318.853 325.743 319.56 324.117 319.8V320.4C325.877 320.48 327.303 321.093 328.397 322.24C329.517 323.36 330.077 325.027 330.077 327.24C330.077 329.64 329.383 331.547 327.997 332.96C326.61 334.347 324.33 335.027 321.157 335L314.837 334.96ZM313.757 317C313.757 317.587 313.863 317.973 314.077 318.16C314.29 318.347 314.69 318.44 315.277 318.44H318.957C319.97 318.44 320.743 318.293 321.277 318C321.81 317.68 322.077 317.067 322.077 316.16C322.077 315.227 321.81 314.613 321.277 314.32C320.743 314.027 319.97 313.88 318.957 313.88H315.277C314.69 313.88 314.29 313.96 314.077 314.12C313.863 314.28 313.757 314.667 313.757 315.28V317ZM313.757 325.04C313.757 325.627 313.863 326.027 314.077 326.24C314.317 326.453 314.743 326.56 315.357 326.56H319.477C320.517 326.56 321.317 326.373 321.877 326C322.437 325.627 322.717 324.96 322.717 324C322.717 323.04 322.437 322.387 321.877 322.04C321.317 321.667 320.517 321.48 319.477 321.48H315.357C314.743 321.48 314.317 321.573 314.077 321.76C313.863 321.947 313.757 322.333 313.757 322.92V325.04Z" fill="black"/>
<path d="M123.679 460.88C122.452 460.88 121.439 460.507 120.639 459.76C119.839 459.013 119.439 458.067 119.439 456.92V435.76C119.439 434.587 119.825 433.613 120.599 432.84C121.372 432.04 122.385 431.64 123.639 431.64C124.972 431.64 126.012 432.04 126.759 432.84C127.505 433.613 127.879 434.56 127.879 435.68V443.08H135.319V435.76C135.319 434.587 135.705 433.613 136.479 432.84C137.252 432.04 138.292 431.64 139.599 431.64C140.905 431.64 141.932 432.04 142.679 432.84C143.425 433.613 143.799 434.56 143.799 435.68V456.92C143.799 458.067 143.399 459.013 142.599 459.76C141.825 460.507 140.852 460.88 139.679 460.88C138.399 460.88 137.345 460.507 136.519 459.76C135.719 459.013 135.319 458.067 135.319 456.92V448.96H127.879V456.92C127.879 458.067 127.479 459.013 126.679 459.76C125.905 460.507 124.905 460.88 123.679 460.88ZM158.453 461.12C155.599 461.12 153.186 460.493 151.213 459.24C149.239 457.987 147.746 456.253 146.733 454.04C145.719 451.827 145.213 449.28 145.213 446.4C145.213 443.547 145.719 441.013 146.733 438.8C147.746 436.56 149.239 434.813 151.213 433.56C153.186 432.28 155.599 431.64 158.453 431.64C161.306 431.64 163.706 432.28 165.653 433.56C167.626 434.813 169.119 436.56 170.133 438.8C171.146 441.013 171.653 443.547 171.653 446.4C171.653 449.28 171.146 451.827 170.133 454.04C169.119 456.253 167.626 457.987 165.653 459.24C163.706 460.493 161.306 461.12 158.453 461.12ZM150.253 445.76C150.253 446.587 150.453 447.373 150.853 448.12C151.253 448.84 152.039 449.427 153.213 449.88C154.386 450.307 156.133 450.52 158.453 450.52C160.773 450.52 162.506 450.307 163.653 449.88C164.826 449.427 165.613 448.84 166.013 448.12C166.413 447.373 166.613 446.587 166.613 445.76C166.613 444.907 166.413 444.147 166.013 443.48C165.613 442.787 164.826 442.24 163.653 441.84C162.506 441.413 160.773 441.2 158.453 441.2C156.133 441.2 154.386 441.413 153.213 441.84C152.039 442.24 151.253 442.787 150.853 443.48C150.453 444.147 150.253 444.907 150.253 445.76ZM173.775 435.76C173.775 434.533 174.148 433.587 174.895 432.92C175.668 432.227 176.655 431.88 177.855 431.88C179.108 431.88 180.108 432.227 180.855 432.92C181.601 433.587 181.975 434.533 181.975 435.76V452.8C181.975 453.307 182.108 453.667 182.375 453.88C182.641 454.067 183.081 453.987 183.695 453.64C185.028 452.867 186.215 452.253 187.255 451.8C188.295 451.32 189.441 451.08 190.695 451.08C192.428 451.08 193.735 451.533 194.615 452.44C195.495 453.347 195.935 454.533 195.935 456C195.935 457.573 195.455 458.787 194.495 459.64C193.561 460.493 192.055 460.92 189.975 460.92H181.735C179.975 460.92 178.508 460.72 177.335 460.32C176.161 459.893 175.268 459.133 174.655 458.04C174.068 456.947 173.775 455.36 173.775 453.28V435.76ZM207.223 431.88C210.396 431.88 212.983 432.48 214.983 433.68C217.009 434.853 218.503 436.533 219.463 438.72C220.449 440.88 220.943 443.453 220.943 446.44C220.943 451.453 219.863 455.133 217.703 457.48C215.543 459.827 212.236 461 207.783 461H206.023C204.716 461 203.503 460.867 202.383 460.6C201.263 460.333 200.276 459.853 199.423 459.16C198.569 458.44 197.903 457.44 197.423 456.16C196.943 454.88 196.703 453.227 196.703 451.2C196.703 449.307 196.956 447.667 197.463 446.28C197.996 444.893 198.623 443.787 199.343 442.96C200.063 442.133 200.716 441.627 201.303 441.44L201.103 440.68H200.423C199.196 440.68 198.223 440.293 197.503 439.52C196.809 438.72 196.449 437.653 196.423 436.32C196.396 434.987 196.743 433.92 197.463 433.12C198.209 432.293 199.196 431.88 200.423 431.88H207.223ZM204.343 450.68C204.343 451.24 204.463 451.627 204.703 451.84C204.969 452.053 205.356 452.16 205.863 452.16H208.023C209.383 452.16 210.436 451.867 211.183 451.28C211.929 450.693 212.449 449.947 212.743 449.04C213.063 448.107 213.223 447.12 213.223 446.08C213.223 445.04 213.063 444.04 212.743 443.08C212.449 442.12 211.929 441.333 211.183 440.72C210.436 440.107 209.383 439.8 208.023 439.8H205.863C205.356 439.8 204.969 439.92 204.703 440.16C204.463 440.373 204.343 440.773 204.343 441.36V450.68ZM232.988 460.92C231.681 460.92 230.428 460.8 229.228 460.56C228.055 460.32 227.015 459.867 226.108 459.2C225.228 458.507 224.521 457.52 223.988 456.24C223.481 454.933 223.228 453.227 223.228 451.12C223.228 449.227 223.481 447.6 223.988 446.24C224.495 444.88 225.095 443.8 225.788 443C226.508 442.2 227.161 441.707 227.748 441.52L227.548 440.76H226.868C225.641 440.76 224.668 440.373 223.948 439.6C223.255 438.8 222.895 437.72 222.868 436.36C222.841 435.027 223.188 433.96 223.908 433.16C224.655 432.36 225.641 431.96 226.868 431.96H241.228C244.081 431.96 245.508 433.293 245.508 435.96C245.508 437.16 245.161 438.12 244.468 438.84C243.775 439.56 242.695 439.92 241.228 439.92H232.948C231.961 439.92 231.468 440.493 231.468 441.64V444.64C232.801 444.347 234.188 444 235.628 443.6C237.095 443.2 238.481 443 239.788 443C241.041 443 241.975 443.28 242.588 443.84C243.228 444.373 243.548 445.107 243.548 446.04C243.548 447 243.228 447.76 242.588 448.32C241.975 448.853 241.041 449.133 239.788 449.16C238.481 449.187 237.095 449 235.628 448.6C234.161 448.2 232.761 447.853 231.428 447.56V452.8C231.428 453.307 231.561 453.667 231.828 453.88C232.121 454.067 232.575 453.987 233.188 453.64C234.521 452.867 235.828 452.253 237.108 451.8C238.388 451.32 239.641 451.08 240.868 451.08C242.601 451.08 243.908 451.533 244.788 452.44C245.695 453.347 246.148 454.533 246.148 456C246.148 457.573 245.668 458.787 244.708 459.64C243.775 460.493 242.255 460.92 240.148 460.92H232.988ZM267.669 461C266.335 461 265.282 460.6 264.509 459.8C263.735 458.973 263.322 457.907 263.269 456.6C263.162 454.333 262.589 452.733 261.549 451.8C260.535 450.84 259.175 450.36 257.469 450.36H256.669V456.76C256.669 458.147 256.295 459.2 255.549 459.92C254.802 460.64 253.815 461 252.589 461C251.282 461 250.255 460.64 249.509 459.92C248.762 459.2 248.389 458.147 248.389 456.76V451.12C248.389 448.293 248.802 446.147 249.629 444.68C250.482 443.213 251.562 442.16 252.869 441.52L252.669 440.76H252.029C250.802 440.76 249.829 440.373 249.109 439.6C248.415 438.8 248.042 437.72 247.989 436.36C247.962 435.027 248.322 433.947 249.069 433.12C249.815 432.293 250.802 431.88 252.029 431.88H262.229C265.082 431.88 267.389 432.573 269.149 433.96C270.909 435.347 271.789 437.56 271.789 440.6C271.789 442.173 271.522 443.493 270.989 444.56C270.455 445.6 269.775 446.4 268.949 446.96C268.122 447.52 267.255 447.853 266.349 447.96V448.48C268.002 448.88 269.362 449.76 270.429 451.12C271.522 452.48 272.069 454.307 272.069 456.6C272.069 458.067 271.669 459.173 270.869 459.92C270.095 460.64 269.029 461 267.669 461ZM256.469 444.24C256.469 444.827 256.575 445.213 256.789 445.4C257.002 445.587 257.402 445.68 257.989 445.68H261.749C262.869 445.68 263.682 445.427 264.189 444.92C264.695 444.413 264.949 443.707 264.949 442.8C264.949 441.867 264.695 441.147 264.189 440.64C263.682 440.133 262.869 439.88 261.749 439.88H257.989C257.402 439.88 257.002 439.96 256.789 440.12C256.575 440.28 256.469 440.667 256.469 441.28V444.24ZM286.603 461.12C285.109 461.12 283.603 460.973 282.083 460.68C280.589 460.36 279.203 459.907 277.923 459.32C276.669 458.707 275.656 457.973 274.883 457.12C274.109 456.24 273.723 455.227 273.723 454.08C273.723 452.613 274.189 451.44 275.123 450.56C276.056 449.68 277.149 449.267 278.403 449.32C279.389 449.347 280.376 449.56 281.363 449.96C282.349 450.333 283.349 450.707 284.363 451.08C285.403 451.453 286.443 451.64 287.483 451.64C288.523 451.64 289.243 451.507 289.643 451.24C290.043 450.973 290.243 450.613 290.243 450.16C290.243 449.627 289.963 449.187 289.403 448.84C288.843 448.493 288.136 448.227 287.283 448.04L285.323 447.56C283.296 447.08 281.483 446.547 279.883 445.96C278.283 445.347 277.016 444.547 276.083 443.56C275.176 442.547 274.723 441.2 274.723 439.52C274.723 437.68 275.229 436.187 276.243 435.04C277.256 433.867 278.629 433.013 280.363 432.48C282.096 431.947 284.029 431.68 286.163 431.68C288.349 431.68 290.269 431.907 291.923 432.36C293.576 432.813 294.856 433.467 295.763 434.32C296.696 435.173 297.163 436.213 297.163 437.44C297.163 438.747 296.803 439.773 296.083 440.52C295.389 441.24 294.456 441.6 293.283 441.6C292.509 441.6 291.696 441.467 290.843 441.2C290.016 440.933 289.136 440.68 288.203 440.44C287.296 440.173 286.323 440.04 285.283 440.04C284.349 440.04 283.643 440.187 283.163 440.48C282.683 440.747 282.443 441.107 282.443 441.56C282.443 442.12 282.763 442.533 283.403 442.8C284.043 443.067 285.096 443.387 286.563 443.76L288.803 444.28C290.643 444.733 292.256 445.28 293.643 445.92C295.029 446.56 296.109 447.4 296.883 448.44C297.656 449.48 298.043 450.84 298.043 452.52C298.043 454.547 297.563 456.2 296.603 457.48C295.643 458.733 294.309 459.653 292.603 460.24C290.896 460.827 288.896 461.12 286.603 461.12ZM305.985 444.84C304.411 444.84 303.185 444.427 302.305 443.6C301.425 442.747 300.985 441.627 300.985 440.24C300.985 438.827 301.425 437.68 302.305 436.8C303.211 435.92 304.438 435.48 305.985 435.48C307.478 435.48 308.665 435.92 309.545 436.8C310.425 437.653 310.865 438.787 310.865 440.2C310.865 441.587 310.438 442.707 309.585 443.56C308.731 444.413 307.531 444.84 305.985 444.84ZM300.985 455.36C300.985 453.947 301.425 452.8 302.305 451.92C303.211 451.04 304.438 450.6 305.985 450.6C307.478 450.6 308.665 451.04 309.545 451.92C310.425 452.773 310.865 453.907 310.865 455.32C310.865 456.707 310.438 457.827 309.585 458.68C308.731 459.533 307.531 459.96 305.985 459.96C304.411 459.96 303.185 459.547 302.305 458.72C301.425 457.867 300.985 456.747 300.985 455.36ZM328.146 461C326.946 461 325.826 460.867 324.786 460.6C323.773 460.333 322.946 459.827 322.306 459.08C321.666 458.333 321.346 457.227 321.346 455.76C321.346 454.533 321.626 453.507 322.186 452.68C322.746 451.853 323.44 451.147 324.266 450.56C325.093 449.973 325.893 449.44 326.666 448.96L332.866 445.08C333.88 444.44 334.546 443.907 334.866 443.48C335.186 443.053 335.346 442.587 335.346 442.08C335.346 441.627 335.2 441.24 334.906 440.92C334.64 440.6 334 440.44 332.986 440.44C332 440.44 330.96 440.547 329.866 440.76C328.773 440.973 327.72 441.08 326.706 441.08C325.24 441.08 324.04 440.733 323.106 440.04C322.2 439.32 321.746 438.267 321.746 436.88C321.746 435.547 322.226 434.507 323.186 433.76C324.146 432.987 325.44 432.44 327.066 432.12C328.72 431.8 330.56 431.64 332.586 431.64C335.866 431.64 338.4 432.253 340.186 433.48C342 434.707 342.906 436.613 342.906 439.2C342.906 440.987 342.386 442.507 341.346 443.76C340.333 445.013 338.92 446.24 337.106 447.44L329.706 452.32H338.866C340.36 452.32 341.533 452.693 342.386 453.44C343.266 454.16 343.706 455.24 343.706 456.68C343.706 458.12 343.266 459.2 342.386 459.92C341.533 460.64 340.36 461 338.866 461H328.146ZM357.59 461.12C354.923 461.12 352.75 460.52 351.07 459.32C349.39 458.12 348.15 456.413 347.35 454.2C346.577 451.987 346.19 449.387 346.19 446.4C346.19 443.413 346.603 440.827 347.43 438.64C348.283 436.427 349.55 434.707 351.23 433.48C352.91 432.253 355.03 431.64 357.59 431.64C360.15 431.64 362.27 432.253 363.95 433.48C365.657 434.707 366.923 436.427 367.75 438.64C368.603 440.827 369.03 443.413 369.03 446.4C369.03 449.387 368.63 451.987 367.83 454.2C367.057 456.413 365.83 458.12 364.15 459.32C362.47 460.52 360.283 461.12 357.59 461.12ZM350.67 445.84C350.67 446.667 350.843 447.453 351.19 448.2C351.563 448.92 352.243 449.507 353.23 449.96C354.243 450.387 355.697 450.6 357.59 450.6C359.51 450.6 360.963 450.387 361.95 449.96C362.963 449.507 363.643 448.92 363.99 448.2C364.363 447.453 364.55 446.667 364.55 445.84C364.55 444.987 364.363 444.227 363.99 443.56C363.643 442.867 362.963 442.32 361.95 441.92C360.963 441.493 359.51 441.28 357.59 441.28C355.697 441.28 354.243 441.493 353.23 441.92C352.243 442.32 351.563 442.867 351.19 443.56C350.843 444.227 350.67 444.987 350.67 445.84ZM382.434 461.12C379.767 461.12 377.594 460.52 375.914 459.32C374.234 458.12 372.994 456.413 372.194 454.2C371.42 451.987 371.034 449.387 371.034 446.4C371.034 443.413 371.447 440.827 372.274 438.64C373.127 436.427 374.394 434.707 376.074 433.48C377.754 432.253 379.874 431.64 382.434 431.64C384.994 431.64 387.114 432.253 388.794 433.48C390.5 434.707 391.767 436.427 392.594 438.64C393.447 440.827 393.874 443.413 393.874 446.4C393.874 449.387 393.474 451.987 392.674 454.2C391.9 456.413 390.674 458.12 388.994 459.32C387.314 460.52 385.127 461.12 382.434 461.12ZM375.514 445.84C375.514 446.667 375.687 447.453 376.034 448.2C376.407 448.92 377.087 449.507 378.074 449.96C379.087 450.387 380.54 450.6 382.434 450.6C384.354 450.6 385.807 450.387 386.794 449.96C387.807 449.507 388.487 448.92 388.834 448.2C389.207 447.453 389.394 446.667 389.394 445.84C389.394 444.987 389.207 444.227 388.834 443.56C388.487 442.867 387.807 442.32 386.794 441.92C385.807 441.493 384.354 441.28 382.434 441.28C380.54 441.28 379.087 441.493 378.074 441.92C377.087 442.32 376.407 442.867 376.034 443.56C375.687 444.227 375.514 444.987 375.514 445.84ZM407.278 461.12C404.611 461.12 402.438 460.52 400.758 459.32C399.078 458.12 397.838 456.413 397.038 454.2C396.264 451.987 395.878 449.387 395.878 446.4C395.878 443.413 396.291 440.827 397.118 438.64C397.971 436.427 399.238 434.707 400.918 433.48C402.598 432.253 404.718 431.64 407.278 431.64C409.838 431.64 411.958 432.253 413.638 433.48C415.344 434.707 416.611 436.427 417.438 438.64C418.291 440.827 418.718 443.413 418.718 446.4C418.718 449.387 418.318 451.987 417.518 454.2C416.744 456.413 415.518 458.12 413.838 459.32C412.158 460.52 409.971 461.12 407.278 461.12ZM400.358 445.84C400.358 446.667 400.531 447.453 400.878 448.2C401.251 448.92 401.931 449.507 402.918 449.96C403.931 450.387 405.384 450.6 407.278 450.6C409.198 450.6 410.651 450.387 411.638 449.96C412.651 449.507 413.331 448.92 413.678 448.2C414.051 447.453 414.238 446.667 414.238 445.84C414.238 444.987 414.051 444.227 413.678 443.56C413.331 442.867 412.651 442.32 411.638 441.92C410.651 441.493 409.198 441.28 407.278 441.28C405.384 441.28 403.931 441.493 402.918 441.92C401.931 442.32 401.251 442.867 400.878 443.56C400.531 444.227 400.358 444.987 400.358 445.84ZM432.881 456.92C431.815 456.92 430.948 456.613 430.281 456C429.615 455.387 429.281 454.6 429.281 453.64V450.36H426.201C425.241 450.36 424.455 450.04 423.841 449.4C423.228 448.76 422.921 447.92 422.921 446.88C422.921 445.813 423.228 444.947 423.841 444.28C424.455 443.587 425.241 443.24 426.201 443.24H429.281V440.24C429.281 439.28 429.588 438.453 430.201 437.76C430.841 437.067 431.735 436.72 432.881 436.72C433.975 436.72 434.828 437.067 435.441 437.76C436.081 438.453 436.401 439.293 436.401 440.28V443.24H439.281C440.215 443.24 441.028 443.56 441.721 444.2C442.415 444.84 442.761 445.733 442.761 446.88C442.761 447.947 442.415 448.8 441.721 449.44C441.028 450.053 440.188 450.36 439.201 450.36H436.401V453.64C436.401 454.6 436.081 455.387 435.441 456C434.801 456.613 433.948 456.92 432.881 456.92Z" fill="black"/>
<path d="M137.623 582.12C135.837 582.12 134.357 581.773 133.183 581.08C132.037 580.387 131.09 579.387 130.343 578.08C129.623 576.773 128.97 575.187 128.383 573.32L123.903 558.96C123.477 557.627 123.503 556.467 123.983 555.48C124.49 554.467 125.383 553.773 126.663 553.4C127.837 553.053 128.903 553.133 129.863 553.64C130.823 554.12 131.477 554.947 131.823 556.12L136.183 569.96C136.637 571.453 137.21 572.453 137.903 572.96C138.623 573.44 139.397 573.547 140.223 573.28C141.077 573.04 141.623 572.56 141.863 571.84C142.103 571.093 142.037 569.973 141.663 568.48C141.05 565.813 140.637 563.72 140.423 562.2C140.21 560.68 140.103 559.48 140.103 558.6C140.103 557.107 140.503 555.827 141.303 554.76C142.13 553.667 143.397 553.12 145.103 553.12C146.783 553.12 147.997 553.667 148.743 554.76C149.517 555.827 149.903 557.107 149.903 558.6C149.903 559.48 149.783 560.387 149.543 561.32C149.303 562.253 149.023 563.213 148.703 564.2L145.143 574.96C144.663 576.4 144.13 577.667 143.543 578.76C142.983 579.827 142.237 580.653 141.303 581.24C140.397 581.827 139.17 582.12 137.623 582.12ZM163.622 582.12C160.769 582.12 158.355 581.493 156.382 580.24C154.409 578.987 152.915 577.253 151.902 575.04C150.889 572.827 150.382 570.28 150.382 567.4C150.382 564.547 150.889 562.013 151.902 559.8C152.915 557.56 154.409 555.813 156.382 554.56C158.355 553.28 160.769 552.64 163.622 552.64C166.475 552.64 168.875 553.28 170.822 554.56C172.795 555.813 174.289 557.56 175.302 559.8C176.315 562.013 176.822 564.547 176.822 567.4C176.822 570.28 176.315 572.827 175.302 575.04C174.289 577.253 172.795 578.987 170.822 580.24C168.875 581.493 166.475 582.12 163.622 582.12ZM155.422 566.76C155.422 567.587 155.622 568.373 156.022 569.12C156.422 569.84 157.209 570.427 158.382 570.88C159.555 571.307 161.302 571.52 163.622 571.52C165.942 571.52 167.675 571.307 168.822 570.88C169.995 570.427 170.782 569.84 171.182 569.12C171.582 568.373 171.782 567.587 171.782 566.76C171.782 565.907 171.582 565.147 171.182 564.48C170.782 563.787 169.995 563.24 168.822 562.84C167.675 562.413 165.942 562.2 163.622 562.2C161.302 562.2 159.555 562.413 158.382 562.84C157.209 563.24 156.422 563.787 156.022 564.48C155.622 565.147 155.422 565.907 155.422 566.76ZM178.944 556.76C178.944 555.533 179.318 554.587 180.064 553.92C180.838 553.227 181.824 552.88 183.024 552.88C184.278 552.88 185.278 553.227 186.024 553.92C186.771 554.587 187.144 555.533 187.144 556.76V573.8C187.144 574.307 187.278 574.667 187.544 574.88C187.811 575.067 188.251 574.987 188.864 574.64C190.198 573.867 191.384 573.253 192.424 572.8C193.464 572.32 194.611 572.08 195.864 572.08C197.598 572.08 198.904 572.533 199.784 573.44C200.664 574.347 201.104 575.533 201.104 577C201.104 578.573 200.624 579.787 199.664 580.64C198.731 581.493 197.224 581.92 195.144 581.92H186.904C185.144 581.92 183.678 581.72 182.504 581.32C181.331 580.893 180.438 580.133 179.824 579.04C179.238 577.947 178.944 576.36 178.944 574.28V556.76ZM214.112 582.12C212.512 582.093 210.979 581.88 209.512 581.48C208.072 581.08 206.779 580.427 205.632 579.52C204.485 578.613 203.579 577.4 202.912 575.88C202.272 574.36 201.952 572.48 201.952 570.24V556.68C201.952 555.4 202.365 554.453 203.192 553.84C204.045 553.2 205.032 552.88 206.152 552.88C207.245 552.88 208.219 553.2 209.072 553.84C209.925 554.453 210.352 555.4 210.352 556.68V568.36C210.352 570.253 210.792 571.64 211.672 572.52C212.579 573.4 213.739 573.8 215.152 573.72C216.645 573.613 217.712 573.04 218.352 572C219.019 570.96 219.205 569.573 218.912 567.84C218.725 566.667 218.512 565.68 218.272 564.88C218.059 564.08 217.832 563.373 217.592 562.76C217.379 562.12 217.192 561.493 217.032 560.88C216.872 560.24 216.752 559.493 216.672 558.64C216.512 556.853 216.872 555.453 217.752 554.44C218.659 553.4 219.845 552.88 221.312 552.88C222.779 552.88 223.925 553.373 224.752 554.36C225.579 555.347 225.992 556.84 225.992 558.84V570.24C225.992 572.48 225.672 574.373 225.032 575.92C224.419 577.44 223.552 578.667 222.432 579.6C221.339 580.507 220.072 581.16 218.632 581.56C217.219 581.933 215.712 582.12 214.112 582.12ZM232.595 582C231.208 582 230.181 581.587 229.515 580.76C228.848 579.933 228.515 578.827 228.515 577.44V558.8C228.515 556.773 229.061 555.28 230.155 554.32C231.275 553.36 232.608 552.88 234.155 552.88C235.621 552.88 236.861 553.36 237.875 554.32C238.915 555.28 239.675 556.8 240.155 558.88L243.275 572.44H244.315L247.435 558.88C247.915 556.8 248.675 555.28 249.715 554.32C250.781 553.36 252.048 552.88 253.515 552.88C255.061 552.88 256.381 553.36 257.475 554.32C258.595 555.28 259.155 556.773 259.155 558.8V577.44C259.155 578.827 258.808 579.933 258.115 580.76C257.448 581.587 256.421 582 255.035 582C253.701 582 252.675 581.587 251.955 580.76C251.235 579.933 250.875 578.827 250.875 577.44V566.68C250.875 566.413 250.835 566.173 250.755 565.96C250.701 565.72 250.528 565.6 250.235 565.6C249.995 565.6 249.821 565.72 249.715 565.96C249.608 566.173 249.528 566.413 249.475 566.68L247.955 576.76C247.768 577.853 247.541 578.8 247.275 579.6C247.035 580.373 246.648 580.973 246.115 581.4C245.581 581.8 244.808 582 243.795 582C242.808 582 242.035 581.8 241.475 581.4C240.941 580.973 240.541 580.373 240.275 579.6C240.035 578.8 239.835 577.853 239.675 576.76L238.115 566.68C238.088 566.413 238.021 566.173 237.915 565.96C237.808 565.72 237.621 565.6 237.355 565.6C237.088 565.6 236.915 565.72 236.835 565.96C236.755 566.173 236.715 566.413 236.715 566.68V577.44C236.715 578.827 236.355 579.933 235.635 580.76C234.941 581.587 233.928 582 232.595 582ZM271.478 581.92C270.171 581.92 268.918 581.8 267.718 581.56C266.544 581.32 265.504 580.867 264.598 580.2C263.718 579.507 263.011 578.52 262.478 577.24C261.971 575.933 261.718 574.227 261.718 572.12C261.718 570.227 261.971 568.6 262.478 567.24C262.984 565.88 263.584 564.8 264.278 564C264.998 563.2 265.651 562.707 266.238 562.52L266.038 561.76H265.358C264.131 561.76 263.158 561.373 262.438 560.6C261.744 559.8 261.384 558.72 261.358 557.36C261.331 556.027 261.678 554.96 262.398 554.16C263.144 553.36 264.131 552.96 265.358 552.96H279.718C282.571 552.96 283.998 554.293 283.998 556.96C283.998 558.16 283.651 559.12 282.958 559.84C282.264 560.56 281.184 560.92 279.718 560.92H271.438C270.451 560.92 269.958 561.493 269.958 562.64V565.64C271.291 565.347 272.678 565 274.118 564.6C275.584 564.2 276.971 564 278.278 564C279.531 564 280.464 564.28 281.078 564.84C281.718 565.373 282.038 566.107 282.038 567.04C282.038 568 281.718 568.76 281.078 569.32C280.464 569.853 279.531 570.133 278.278 570.16C276.971 570.187 275.584 570 274.118 569.6C272.651 569.2 271.251 568.853 269.918 568.56V573.8C269.918 574.307 270.051 574.667 270.318 574.88C270.611 575.067 271.064 574.987 271.678 574.64C273.011 573.867 274.318 573.253 275.598 572.8C276.878 572.32 278.131 572.08 279.358 572.08C281.091 572.08 282.398 572.533 283.278 573.44C284.184 574.347 284.638 575.533 284.638 577C284.638 578.573 284.158 579.787 283.198 580.64C282.264 581.493 280.744 581.92 278.638 581.92H271.478ZM292.248 565.84C290.675 565.84 289.448 565.427 288.568 564.6C287.688 563.747 287.248 562.627 287.248 561.24C287.248 559.827 287.688 558.68 288.568 557.8C289.475 556.92 290.701 556.48 292.248 556.48C293.741 556.48 294.928 556.92 295.808 557.8C296.688 558.653 297.128 559.787 297.128 561.2C297.128 562.587 296.701 563.707 295.848 564.56C294.995 565.413 293.795 565.84 292.248 565.84ZM287.248 576.36C287.248 574.947 287.688 573.8 288.568 572.92C289.475 572.04 290.701 571.6 292.248 571.6C293.741 571.6 294.928 572.04 295.808 572.92C296.688 573.773 297.128 574.907 297.128 576.32C297.128 577.707 296.701 578.827 295.848 579.68C294.995 580.533 293.795 580.96 292.248 580.96C290.675 580.96 289.448 580.547 288.568 579.72C287.688 578.867 287.248 577.747 287.248 576.36ZM320.81 582.12C317.956 582.12 315.543 581.493 313.57 580.24C311.596 578.987 310.103 577.253 309.09 575.04C308.076 572.827 307.57 570.28 307.57 567.4C307.57 564.547 308.076 562.013 309.09 559.8C310.103 557.56 311.596 555.813 313.57 554.56C315.543 553.28 317.956 552.64 320.81 552.64C323.663 552.64 326.063 553.28 328.01 554.56C329.983 555.813 331.476 557.56 332.49 559.8C333.503 562.013 334.01 564.547 334.01 567.4C334.01 570.28 333.503 572.827 332.49 575.04C331.476 577.253 329.983 578.987 328.01 580.24C326.063 581.493 323.663 582.12 320.81 582.12ZM312.61 566.76C312.61 567.587 312.81 568.373 313.21 569.12C313.61 569.84 314.396 570.427 315.57 570.88C316.743 571.307 318.49 571.52 320.81 571.52C323.13 571.52 324.863 571.307 326.01 570.88C327.183 570.427 327.97 569.84 328.37 569.12C328.77 568.373 328.97 567.587 328.97 566.76C328.97 565.907 328.77 565.147 328.37 564.48C327.97 563.787 327.183 563.24 326.01 562.84C324.863 562.413 323.13 562.2 320.81 562.2C318.49 562.2 316.743 562.413 315.57 562.84C314.396 563.24 313.61 563.787 313.21 564.48C312.81 565.147 312.61 565.907 312.61 566.76ZM348.092 582.12C346.305 582.12 344.825 581.773 343.652 581.08C342.505 580.387 341.559 579.387 340.812 578.08C340.092 576.773 339.439 575.187 338.852 573.32L334.372 558.96C333.945 557.627 333.972 556.467 334.452 555.48C334.959 554.467 335.852 553.773 337.132 553.4C338.305 553.053 339.372 553.133 340.332 553.64C341.292 554.12 341.945 554.947 342.292 556.12L346.652 569.96C347.105 571.453 347.679 572.453 348.372 572.96C349.092 573.44 349.865 573.547 350.692 573.28C351.545 573.04 352.092 572.56 352.332 571.84C352.572 571.093 352.505 569.973 352.132 568.48C351.519 565.813 351.105 563.72 350.892 562.2C350.679 560.68 350.572 559.48 350.572 558.6C350.572 557.107 350.972 555.827 351.772 554.76C352.599 553.667 353.865 553.12 355.572 553.12C357.252 553.12 358.465 553.667 359.212 554.76C359.985 555.827 360.372 557.107 360.372 558.6C360.372 559.48 360.252 560.387 360.012 561.32C359.772 562.253 359.492 563.213 359.172 564.2L355.612 574.96C355.132 576.4 354.599 577.667 354.012 578.76C353.452 579.827 352.705 580.653 351.772 581.24C350.865 581.827 349.639 582.12 348.092 582.12ZM372.337 581.92C371.03 581.92 369.777 581.8 368.577 581.56C367.404 581.32 366.364 580.867 365.457 580.2C364.577 579.507 363.87 578.52 363.337 577.24C362.83 575.933 362.577 574.227 362.577 572.12C362.577 570.227 362.83 568.6 363.337 567.24C363.844 565.88 364.444 564.8 365.137 564C365.857 563.2 366.51 562.707 367.097 562.52L366.897 561.76H366.217C364.99 561.76 364.017 561.373 363.297 560.6C362.604 559.8 362.244 558.72 362.217 557.36C362.19 556.027 362.537 554.96 363.257 554.16C364.004 553.36 364.99 552.96 366.217 552.96H380.577C383.43 552.96 384.857 554.293 384.857 556.96C384.857 558.16 384.51 559.12 383.817 559.84C383.124 560.56 382.044 560.92 380.577 560.92H372.297C371.31 560.92 370.817 561.493 370.817 562.64V565.64C372.15 565.347 373.537 565 374.977 564.6C376.444 564.2 377.83 564 379.137 564C380.39 564 381.324 564.28 381.937 564.84C382.577 565.373 382.897 566.107 382.897 567.04C382.897 568 382.577 568.76 381.937 569.32C381.324 569.853 380.39 570.133 379.137 570.16C377.83 570.187 376.444 570 374.977 569.6C373.51 569.2 372.11 568.853 370.777 568.56V573.8C370.777 574.307 370.91 574.667 371.177 574.88C371.47 575.067 371.924 574.987 372.537 574.64C373.87 573.867 375.177 573.253 376.457 572.8C377.737 572.32 378.99 572.08 380.217 572.08C381.95 572.08 383.257 572.533 384.137 573.44C385.044 574.347 385.497 575.533 385.497 577C385.497 578.573 385.017 579.787 384.057 580.64C383.124 581.493 381.604 581.92 379.497 581.92H372.337ZM407.018 582C405.685 582 404.631 581.6 403.858 580.8C403.085 579.973 402.671 578.907 402.618 577.6C402.511 575.333 401.938 573.733 400.898 572.8C399.885 571.84 398.525 571.36 396.818 571.36H396.018V577.76C396.018 579.147 395.645 580.2 394.898 580.92C394.151 581.64 393.165 582 391.938 582C390.631 582 389.605 581.64 388.858 580.92C388.111 580.2 387.738 579.147 387.738 577.76V572.12C387.738 569.293 388.151 567.147 388.978 565.68C389.831 564.213 390.911 563.16 392.218 562.52L392.018 561.76H391.378C390.151 561.76 389.178 561.373 388.458 560.6C387.765 559.8 387.391 558.72 387.338 557.36C387.311 556.027 387.671 554.947 388.418 554.12C389.165 553.293 390.151 552.88 391.378 552.88H401.578C404.431 552.88 406.738 553.573 408.498 554.96C410.258 556.347 411.138 558.56 411.138 561.6C411.138 563.173 410.871 564.493 410.338 565.56C409.805 566.6 409.125 567.4 408.298 567.96C407.471 568.52 406.605 568.853 405.698 568.96V569.48C407.351 569.88 408.711 570.76 409.778 572.12C410.871 573.48 411.418 575.307 411.418 577.6C411.418 579.067 411.018 580.173 410.218 580.92C409.445 581.64 408.378 582 407.018 582ZM395.818 565.24C395.818 565.827 395.925 566.213 396.138 566.4C396.351 566.587 396.751 566.68 397.338 566.68H401.098C402.218 566.68 403.031 566.427 403.538 565.92C404.045 565.413 404.298 564.707 404.298 563.8C404.298 562.867 404.045 562.147 403.538 561.64C403.031 561.133 402.218 560.88 401.098 560.88H397.338C396.751 560.88 396.351 560.96 396.138 561.12C395.925 561.28 395.818 561.667 395.818 562.28V565.24ZM435.949 568.28C435.442 568.493 434.709 568.733 433.749 569C432.789 569.267 431.415 569.4 429.629 569.4C428.402 569.4 427.215 569.307 426.069 569.12C424.922 568.907 423.882 568.533 422.949 568C422.042 567.44 421.309 566.653 420.749 565.64C420.215 564.627 419.949 563.307 419.949 561.68C419.949 559.52 420.442 557.773 421.429 556.44C422.415 555.107 423.709 554.147 425.309 553.56C426.935 552.947 428.655 552.64 430.469 552.64C432.682 552.64 434.522 553 435.989 553.72C437.482 554.413 438.655 555.413 439.509 556.72C440.389 558 441.015 559.52 441.389 561.28C441.762 563.013 441.949 564.92 441.949 567C441.949 571.827 440.869 575.533 438.709 578.12C436.549 580.707 433.602 582 429.869 582C426.589 582 424.215 581.573 422.749 580.72C421.309 579.84 420.589 578.48 420.589 576.64C420.589 575.467 420.962 574.44 421.709 573.56C422.455 572.68 423.429 572.24 424.629 572.24C425.722 572.24 426.709 572.333 427.589 572.52C428.469 572.68 429.362 572.76 430.269 572.76C432.322 572.76 433.775 572.32 434.629 571.44C435.509 570.56 435.949 569.507 435.949 568.28ZM425.149 563.2C425.149 563.68 425.282 564.053 425.549 564.32C425.815 564.587 426.309 564.773 427.029 564.88C427.749 564.987 428.775 565.04 430.109 565.04C432.082 565.04 433.442 564.92 434.189 564.68C434.962 564.413 435.349 563.92 435.349 563.2C435.349 562.507 434.962 562.027 434.189 561.76C433.442 561.467 432.082 561.32 430.109 561.32C428.775 561.32 427.749 561.387 427.029 561.52C426.309 561.627 425.815 561.813 425.549 562.08C425.282 562.347 425.149 562.72 425.149 563.2ZM455.29 582C453.903 582 452.877 581.587 452.21 580.76C451.543 579.933 451.21 578.827 451.21 577.44V558.8C451.21 556.773 451.757 555.28 452.85 554.32C453.97 553.36 455.303 552.88 456.85 552.88C458.317 552.88 459.557 553.36 460.57 554.32C461.61 555.28 462.37 556.8 462.85 558.88L465.97 572.44H467.01L470.13 558.88C470.61 556.8 471.37 555.28 472.41 554.32C473.477 553.36 474.743 552.88 476.21 552.88C477.757 552.88 479.077 553.36 480.17 554.32C481.29 555.28 481.85 556.773 481.85 558.8V577.44C481.85 578.827 481.503 579.933 480.81 580.76C480.143 581.587 479.117 582 477.73 582C476.397 582 475.37 581.587 474.65 580.76C473.93 579.933 473.57 578.827 473.57 577.44V566.68C473.57 566.413 473.53 566.173 473.45 565.96C473.397 565.72 473.223 565.6 472.93 565.6C472.69 565.6 472.517 565.72 472.41 565.96C472.303 566.173 472.223 566.413 472.17 566.68L470.65 576.76C470.463 577.853 470.237 578.8 469.97 579.6C469.73 580.373 469.343 580.973 468.81 581.4C468.277 581.8 467.503 582 466.49 582C465.503 582 464.73 581.8 464.17 581.4C463.637 580.973 463.237 580.373 462.97 579.6C462.73 578.8 462.53 577.853 462.37 576.76L460.81 566.68C460.783 566.413 460.717 566.173 460.61 565.96C460.503 565.72 460.317 565.6 460.05 565.6C459.783 565.6 459.61 565.72 459.53 565.96C459.45 566.173 459.41 566.413 459.41 566.68V577.44C459.41 578.827 459.05 579.933 458.33 580.76C457.637 581.587 456.623 582 455.29 582ZM488.573 582.08C487.346 582.08 486.346 581.707 485.573 580.96C484.8 580.213 484.413 579.267 484.413 578.12V556.96C484.413 555.787 484.786 554.8 485.533 554C486.306 553.2 487.32 552.8 488.573 552.8C489.906 552.8 490.946 553.2 491.693 554C492.466 554.773 492.853 555.733 492.853 556.88V578.12C492.853 579.267 492.44 580.213 491.613 580.96C490.813 581.707 489.8 582.08 488.573 582.08ZM495.429 556.76C495.429 555.533 495.802 554.587 496.549 553.92C497.322 553.227 498.309 552.88 499.509 552.88C500.762 552.88 501.762 553.227 502.509 553.92C503.255 554.587 503.629 555.533 503.629 556.76V573.8C503.629 574.307 503.762 574.667 504.029 574.88C504.295 575.067 504.735 574.987 505.349 574.64C506.682 573.867 507.869 573.253 508.909 572.8C509.949 572.32 511.095 572.08 512.349 572.08C514.082 572.08 515.389 572.533 516.269 573.44C517.149 574.347 517.589 575.533 517.589 577C517.589 578.573 517.109 579.787 516.149 580.64C515.215 581.493 513.709 581.92 511.629 581.92H503.389C501.629 581.92 500.162 581.72 498.989 581.32C497.815 580.893 496.922 580.133 496.309 579.04C495.722 577.947 495.429 576.36 495.429 574.28V556.76Z" fill="black"/>
<ellipse cx="71.577" cy="288" rx="11.3614" ry="10" fill="black"/>
<ellipse cx="77.2577" cy="444" rx="11.3614" ry="10" fill="black"/>
<ellipse cx="77.2577" cy="568" rx="11.3614" ry="10" fill="black"/>
</svg>
