<svg width="304" height="233" viewBox="0 0 304 233" fill="none" xmlns="http://www.w3.org/2000/svg">
<rect x="1.5" y="1.5" width="301" height="230" rx="48.5" fill="#FFD401" stroke="black" stroke-width="3"/>
<rect x="23.5" y="125.5" width="257" height="82" rx="23.5" fill="#FFD401" stroke="black" stroke-width="3"/>
<path d="M26.0871 50.557C26.0871 48.9317 26.5818 47.6773 27.5711 46.794C28.5958 45.8753 29.9031 45.416 31.4931 45.416C33.1538 45.416 34.4788 45.8753 35.4681 46.794C36.4574 47.6773 36.9521 48.9317 36.9521 50.557V73.135C36.9521 73.8063 37.1288 74.2833 37.4821 74.566C37.8354 74.8133 38.4184 74.7073 39.2311 74.248C40.9978 73.2233 42.5701 72.4107 43.9481 71.81C45.3261 71.174 46.8454 70.856 48.5061 70.856C50.8028 70.856 52.5341 71.4567 53.7001 72.658C54.8661 73.8593 55.4491 75.4317 55.4491 77.375C55.4491 79.4597 54.8131 81.0673 53.5411 82.198C52.3044 83.3287 50.3081 83.894 47.5521 83.894H36.6341C34.3021 83.894 32.3588 83.629 30.8041 83.099C29.2494 82.5337 28.0658 81.5267 27.2531 80.078C26.4758 78.6293 26.0871 76.527 26.0871 73.771V50.557ZM63.1196 84.106C61.4943 84.106 60.1693 83.6113 59.1446 82.622C58.12 81.6327 57.6076 80.3783 57.6076 78.859V50.822C57.6076 49.2673 58.1023 47.96 59.0916 46.9C60.1163 45.84 61.459 45.31 63.1196 45.31C64.8863 45.31 66.2643 45.84 67.2536 46.9C68.2783 47.9247 68.7906 49.1967 68.7906 50.716V78.859C68.7906 80.3783 68.243 81.6327 67.1476 82.622C66.0876 83.6113 64.745 84.106 63.1196 84.106ZM70.7442 63.913C70.7442 60.2737 71.4155 57.0407 72.7582 54.214C74.1008 51.3873 76.0795 49.1613 78.6942 47.536C81.3088 45.9107 84.5065 45.098 88.2872 45.098C92.0678 45.098 95.2478 45.9107 97.8272 47.536C100.442 49.1613 102.421 51.3873 103.763 54.214C105.106 57.0407 105.777 60.2737 105.777 63.913C105.777 67.1283 105.265 70.0257 104.24 72.605C103.216 75.149 101.696 77.269 99.6822 78.965C97.7035 80.6257 95.2478 81.7387 92.3152 82.304C92.4918 83.0107 92.8982 83.5053 93.5342 83.788C94.1702 84.0707 95.1065 84.212 96.3432 84.212C97.4738 84.212 98.4985 84.3887 99.4172 84.742C100.371 85.0953 101.131 85.6783 101.696 86.491C102.297 87.339 102.597 88.4873 102.597 89.936C102.597 91.3493 102.297 92.48 101.696 93.328C101.131 94.176 100.371 94.7767 99.4172 95.13C98.4985 95.4833 97.4738 95.66 96.3432 95.66C94.2938 95.66 92.5978 95.2183 91.2552 94.335C89.9125 93.487 88.9055 92.321 88.2342 90.837C87.5982 89.353 87.2802 87.7277 87.2802 85.961V82.675C83.7115 82.4983 80.6905 81.5973 78.2172 79.972C75.7792 78.3467 73.9242 76.156 72.6522 73.4C71.3802 70.644 70.7442 67.4817 70.7442 63.913ZM88.2872 69.16C91.3612 69.16 93.6578 68.8773 95.1772 68.312C96.7318 67.7467 97.7742 67.0047 98.3042 66.086C98.8342 65.1673 99.0992 64.178 99.0992 63.118C99.0992 62.0227 98.8342 61.051 98.3042 60.203C97.7742 59.3197 96.7318 58.613 95.1772 58.083C93.6578 57.553 91.3612 57.288 88.2872 57.288C85.2132 57.288 82.8988 57.553 81.3442 58.083C79.7895 58.613 78.7472 59.3197 78.2172 60.203C77.6872 61.051 77.4222 62.0227 77.4222 63.118C77.4222 64.178 77.6872 65.1673 78.2172 66.086C78.7472 67.0047 79.7895 67.7467 81.3442 68.312C82.8988 68.8773 85.2132 69.16 88.2872 69.16ZM124.856 84.159C122.736 84.1237 120.705 83.841 118.761 83.311C116.853 82.781 115.14 81.9153 113.62 80.714C112.101 79.5127 110.9 77.905 110.016 75.891C109.168 73.877 108.744 71.386 108.744 68.418V50.451C108.744 48.755 109.292 47.5007 110.387 46.688C111.518 45.84 112.825 45.416 114.309 45.416C115.758 45.416 117.048 45.84 118.178 46.688C119.309 47.5007 119.874 48.755 119.874 50.451V65.927C119.874 68.4357 120.457 70.273 121.623 71.439C122.825 72.605 124.362 73.135 126.234 73.029C128.213 72.8877 129.626 72.128 130.474 70.75C131.358 69.372 131.605 67.5347 131.216 65.238C130.969 63.6833 130.686 62.376 130.368 61.316C130.086 60.256 129.785 59.3197 129.467 58.507C129.185 57.659 128.937 56.8287 128.725 56.016C128.513 55.168 128.354 54.1787 128.248 53.048C128.036 50.6807 128.513 48.8257 129.679 47.483C130.881 46.105 132.453 45.416 134.396 45.416C136.34 45.416 137.859 46.0697 138.954 47.377C140.05 48.6843 140.597 50.663 140.597 53.313V68.418C140.597 71.386 140.173 73.8947 139.325 75.944C138.513 77.958 137.364 79.5833 135.88 80.82C134.432 82.0213 132.753 82.887 130.845 83.417C128.973 83.9117 126.976 84.159 124.856 84.159ZM149.452 84.106C147.826 84.106 146.501 83.6113 145.477 82.622C144.452 81.6327 143.94 80.3783 143.94 78.859V50.822C143.94 49.2673 144.434 47.96 145.424 46.9C146.448 45.84 147.791 45.31 149.452 45.31C151.218 45.31 152.596 45.84 153.586 46.9C154.61 47.9247 155.123 49.1967 155.123 50.716V78.859C155.123 80.3783 154.575 81.6327 153.48 82.622C152.42 83.6113 151.077 84.106 149.452 84.106ZM172.627 45.416C176.832 45.416 180.259 46.211 182.909 47.801C185.594 49.3557 187.573 51.5817 188.845 54.479C190.152 57.341 190.806 60.7507 190.806 64.708C190.806 71.3507 189.375 76.2267 186.513 79.336C183.651 82.4453 179.27 84 173.369 84H171.037C169.306 84 167.698 83.8233 166.214 83.47C164.73 83.1167 163.423 82.4807 162.292 81.562C161.161 80.608 160.278 79.283 159.642 77.587C159.006 75.891 158.688 73.7003 158.688 71.015C158.688 68.5063 159.024 66.3333 159.695 64.496C160.402 62.6587 161.232 61.1923 162.186 60.097C163.14 59.0017 164.006 58.3303 164.783 58.083L164.518 57.076H163.617C161.992 57.076 160.702 56.5637 159.748 55.539C158.829 54.479 158.352 53.0657 158.317 51.299C158.282 49.5323 158.741 48.119 159.695 47.059C160.684 45.9637 161.992 45.416 163.617 45.416H172.627ZM168.811 70.326C168.811 71.068 168.97 71.5803 169.288 71.863C169.641 72.1457 170.154 72.287 170.825 72.287H173.687C175.489 72.287 176.885 71.8983 177.874 71.121C178.863 70.3437 179.552 69.3543 179.941 68.153C180.365 66.9163 180.577 65.609 180.577 64.231C180.577 62.853 180.365 61.528 179.941 60.256C179.552 58.984 178.863 57.9417 177.874 57.129C176.885 56.3163 175.489 55.91 173.687 55.91H170.825C170.154 55.91 169.641 56.069 169.288 56.387C168.97 56.6697 168.811 57.1997 168.811 57.977V70.326ZM199.346 84.106C197.721 84.106 196.396 83.6113 195.371 82.622C194.347 81.6327 193.834 80.3783 193.834 78.859V50.822C193.834 49.2673 194.329 47.96 195.318 46.9C196.343 45.84 197.686 45.31 199.346 45.31C201.113 45.31 202.491 45.84 203.48 46.9C204.505 47.9247 205.017 49.1967 205.017 50.716V78.859C205.017 80.3783 204.47 81.6327 203.374 82.622C202.314 83.6113 200.972 84.106 199.346 84.106ZM213.2 57.182C211.433 57.182 209.985 56.6697 208.854 55.645C207.759 54.6203 207.211 53.207 207.211 51.405C207.211 49.6383 207.706 48.225 208.695 47.165C209.72 46.0697 211.221 45.522 213.2 45.522H236.043C238.022 45.522 239.506 46.0697 240.495 47.165C241.52 48.225 242.032 49.6383 242.032 51.405C242.032 53.207 241.467 54.6203 240.336 55.645C239.241 56.6697 237.81 57.182 236.043 57.182C234.842 57.182 233.87 57.0583 233.128 56.811C232.421 56.5283 231.838 56.2103 231.379 55.857C230.92 55.4683 230.478 55.1503 230.054 54.903C229.63 54.6203 229.1 54.479 228.464 54.479L227.987 55.433C228.128 55.751 228.376 56.2103 228.729 56.811C229.082 57.3763 229.418 58.2067 229.736 59.302C230.054 60.362 230.213 61.8107 230.213 63.648V78.965C230.213 80.4137 229.665 81.615 228.57 82.569C227.51 83.523 226.203 84 224.648 84C223.058 84 221.715 83.523 220.62 82.569C219.56 81.615 219.03 80.4137 219.03 78.965V63.648C219.03 61.8107 219.189 60.362 219.507 59.302C219.825 58.2067 220.161 57.3763 220.514 56.811C220.903 56.2103 221.168 55.751 221.309 55.433L220.779 54.479C220.143 54.479 219.613 54.6203 219.189 54.903C218.765 55.1503 218.323 55.4683 217.864 55.857C217.405 56.2103 216.822 56.5283 216.115 56.811C215.408 57.0583 214.437 57.182 213.2 57.182ZM244.672 55.645C243.647 53.4543 243.417 51.4933 243.983 49.762C244.548 47.9953 245.626 46.7587 247.216 46.052C248.841 45.3453 250.484 45.3453 252.145 46.052C253.841 46.7233 255.077 48.1543 255.855 50.345C256.243 51.4403 256.526 52.7123 256.703 54.161C256.879 55.5743 257.074 56.9523 257.286 58.295C257.533 59.6023 257.922 60.6977 258.452 61.581C259.017 62.429 259.883 62.853 261.049 62.853C262.215 62.853 263.08 62.429 263.646 61.581C264.211 60.6977 264.6 59.6023 264.812 58.295C265.059 56.9523 265.253 55.5743 265.395 54.161C265.571 52.7123 265.854 51.4403 266.243 50.345C267.055 48.1543 268.292 46.7233 269.953 46.052C271.613 45.3453 273.256 45.3453 274.882 46.052C276.472 46.7587 277.549 47.9953 278.115 49.762C278.68 51.4933 278.45 53.4543 277.426 55.645C276.896 56.7757 276.189 57.8533 275.306 58.878C274.458 59.8673 273.521 60.892 272.497 61.952C271.472 63.012 270.447 64.1957 269.423 65.503C268.398 66.775 267.462 68.2413 266.614 69.902V78.965C266.614 80.4137 266.084 81.615 265.024 82.569C263.964 83.523 262.639 84 261.049 84C259.494 84 258.169 83.523 257.074 82.569C256.014 81.615 255.484 80.4137 255.484 78.965V69.902C254.671 68.2413 253.752 66.775 252.728 65.503C251.703 64.1957 250.678 63.012 249.654 61.952C248.629 60.892 247.675 59.8673 246.792 58.878C245.908 57.8533 245.202 56.7757 244.672 55.645Z" fill="black"/>
<path d="M76.7175 157.76C76.7175 156.533 77.0908 155.587 77.8375 154.92C78.6108 154.227 79.5975 153.88 80.7975 153.88C82.0508 153.88 83.0508 154.227 83.7975 154.92C84.5442 155.587 84.9175 156.533 84.9175 157.76V174.8C84.9175 175.307 85.0508 175.667 85.3175 175.88C85.5842 176.067 86.0242 175.987 86.6375 175.64C87.9708 174.867 89.1575 174.253 90.1975 173.8C91.2375 173.32 92.3842 173.08 93.6375 173.08C95.3708 173.08 96.6775 173.533 97.5575 174.44C98.4375 175.347 98.8775 176.533 98.8775 178C98.8775 179.573 98.3975 180.787 97.4375 181.64C96.5042 182.493 94.9975 182.92 92.9175 182.92H84.6775C82.9175 182.92 81.4508 182.72 80.2775 182.32C79.1042 181.893 78.2108 181.133 77.5975 180.04C77.0108 178.947 76.7175 177.36 76.7175 175.28V157.76ZM111.239 183.12C108.386 183.12 105.972 182.493 103.999 181.24C102.026 179.987 100.532 178.253 99.5191 176.04C98.5057 173.827 97.9991 171.28 97.9991 168.4C97.9991 165.547 98.5057 163.013 99.5191 160.8C100.532 158.56 102.026 156.813 103.999 155.56C105.972 154.28 108.386 153.64 111.239 153.64C114.092 153.64 116.492 154.28 118.439 155.56C120.412 156.813 121.906 158.56 122.919 160.8C123.932 163.013 124.439 165.547 124.439 168.4C124.439 171.28 123.932 173.827 122.919 176.04C121.906 178.253 120.412 179.987 118.439 181.24C116.492 182.493 114.092 183.12 111.239 183.12ZM103.039 167.76C103.039 168.587 103.239 169.373 103.639 170.12C104.039 170.84 104.826 171.427 105.999 171.88C107.172 172.307 108.919 172.52 111.239 172.52C113.559 172.52 115.292 172.307 116.439 171.88C117.612 171.427 118.399 170.84 118.799 170.12C119.199 169.373 119.399 168.587 119.399 167.76C119.399 166.907 119.199 166.147 118.799 165.48C118.399 164.787 117.612 164.24 116.439 163.84C115.292 163.413 113.559 163.2 111.239 163.2C108.919 163.2 107.172 163.413 105.999 163.84C104.826 164.24 104.039 164.787 103.639 165.48C103.239 166.147 103.039 166.907 103.039 167.76ZM140.321 183.08C137.708 183.08 135.348 182.547 133.241 181.48C131.161 180.387 129.521 178.773 128.321 176.64C127.121 174.507 126.521 171.88 126.521 168.76C126.521 165.64 127.121 162.947 128.321 160.68C129.548 158.413 131.215 156.68 133.321 155.48C135.455 154.253 137.881 153.64 140.601 153.64C143.748 153.64 146.161 154.08 147.841 154.96C149.521 155.84 150.361 157.147 150.361 158.88C150.361 160.213 150.001 161.32 149.281 162.2C148.561 163.053 147.575 163.48 146.321 163.48C145.255 163.48 144.215 163.347 143.201 163.08C142.215 162.787 141.055 162.64 139.721 162.64C138.015 162.64 136.668 163.133 135.681 164.12C134.695 165.107 134.201 166.4 134.201 168C134.201 169.573 134.695 170.893 135.681 171.96C136.668 173 138.015 173.52 139.721 173.52C140.628 173.52 141.455 173.453 142.201 173.32C142.975 173.16 143.721 173 144.441 172.84C145.188 172.68 145.988 172.6 146.841 172.6C148.255 172.6 149.295 173.067 149.961 174C150.628 174.907 150.961 176.04 150.961 177.4C150.961 178.76 150.468 179.867 149.481 180.72C148.495 181.547 147.188 182.147 145.561 182.52C143.961 182.893 142.215 183.08 140.321 183.08ZM161.926 164.96L167.926 156.48C168.992 154.96 170.152 154.107 171.406 153.92C172.659 153.707 173.792 154 174.806 154.8C175.472 155.307 175.912 155.987 176.126 156.84C176.339 157.693 176.272 158.6 175.926 159.56C175.579 160.52 174.886 161.427 173.846 162.28L167.166 167.68V168.52C168.019 168.52 169.019 168.627 170.166 168.84C171.312 169.053 172.352 169.533 173.286 170.28C174.032 170.84 174.672 171.48 175.206 172.2C175.766 172.92 176.206 173.813 176.526 174.88C176.846 175.92 177.006 177.24 177.006 178.84C177.006 180.147 176.646 181.2 175.926 182C175.232 182.773 174.192 183.16 172.806 183.16C171.419 183.16 170.352 182.773 169.606 182C168.886 181.2 168.526 180.147 168.526 178.84C168.526 177.373 168.286 176.213 167.806 175.36C167.352 174.48 166.739 173.84 165.966 173.44C165.192 173.04 164.352 172.84 163.446 172.84H161.486V179.12C161.486 180.267 161.086 181.213 160.286 181.96C159.512 182.707 158.512 183.08 157.286 183.08C156.059 183.08 155.046 182.707 154.246 181.96C153.472 181.213 153.086 180.267 153.086 179.12V157.96C153.086 156.787 153.472 155.8 154.246 155C155.019 154.2 156.032 153.8 157.286 153.8C158.619 153.8 159.646 154.2 160.366 155C161.112 155.773 161.486 156.733 161.486 157.88V164.88L161.926 164.96ZM188.587 182.92C187.28 182.92 186.027 182.8 184.827 182.56C183.654 182.32 182.614 181.867 181.707 181.2C180.827 180.507 180.12 179.52 179.587 178.24C179.08 176.933 178.827 175.227 178.827 173.12C178.827 171.227 179.08 169.6 179.587 168.24C180.094 166.88 180.694 165.8 181.387 165C182.107 164.2 182.76 163.707 183.347 163.52L183.147 162.76H182.467C181.24 162.76 180.267 162.373 179.547 161.6C178.854 160.8 178.494 159.72 178.467 158.36C178.44 157.027 178.787 155.96 179.507 155.16C180.254 154.36 181.24 153.96 182.467 153.96H196.827C199.68 153.96 201.107 155.293 201.107 157.96C201.107 159.16 200.76 160.12 200.067 160.84C199.374 161.56 198.294 161.92 196.827 161.92H188.547C187.56 161.92 187.067 162.493 187.067 163.64V166.64C188.4 166.347 189.787 166 191.227 165.6C192.694 165.2 194.08 165 195.387 165C196.64 165 197.574 165.28 198.187 165.84C198.827 166.373 199.147 167.107 199.147 168.04C199.147 169 198.827 169.76 198.187 170.32C197.574 170.853 196.64 171.133 195.387 171.16C194.08 171.187 192.694 171 191.227 170.6C189.76 170.2 188.36 169.853 187.027 169.56V174.8C187.027 175.307 187.16 175.667 187.427 175.88C187.72 176.067 188.174 175.987 188.787 175.64C190.12 174.867 191.427 174.253 192.707 173.8C193.987 173.32 195.24 173.08 196.467 173.08C198.2 173.08 199.507 173.533 200.387 174.44C201.294 175.347 201.747 176.533 201.747 178C201.747 179.573 201.267 180.787 200.307 181.64C199.374 182.493 197.854 182.92 195.747 182.92H188.587ZM213.837 153.88C217.011 153.88 219.597 154.48 221.597 155.68C223.624 156.853 225.117 158.533 226.077 160.72C227.064 162.88 227.557 165.453 227.557 168.44C227.557 173.453 226.477 177.133 224.317 179.48C222.157 181.827 218.851 183 214.397 183H212.637C211.331 183 210.117 182.867 208.997 182.6C207.877 182.333 206.891 181.853 206.037 181.16C205.184 180.44 204.517 179.44 204.037 178.16C203.557 176.88 203.317 175.227 203.317 173.2C203.317 171.307 203.571 169.667 204.077 168.28C204.611 166.893 205.237 165.787 205.957 164.96C206.677 164.133 207.331 163.627 207.917 163.44L207.717 162.68H207.037C205.811 162.68 204.837 162.293 204.117 161.52C203.424 160.72 203.064 159.653 203.037 158.32C203.011 156.987 203.357 155.92 204.077 155.12C204.824 154.293 205.811 153.88 207.037 153.88H213.837ZM210.957 172.68C210.957 173.24 211.077 173.627 211.317 173.84C211.584 174.053 211.971 174.16 212.477 174.16H214.637C215.997 174.16 217.051 173.867 217.797 173.28C218.544 172.693 219.064 171.947 219.357 171.04C219.677 170.107 219.837 169.12 219.837 168.08C219.837 167.04 219.677 166.04 219.357 165.08C219.064 164.12 218.544 163.333 217.797 162.72C217.051 162.107 215.997 161.8 214.637 161.8H212.477C211.971 161.8 211.584 161.92 211.317 162.16C211.077 162.373 210.957 162.773 210.957 163.36V172.68Z" fill="black"/>
</svg>
