<svg width="304" height="233" viewBox="0 0 304 233" fill="none" xmlns="http://www.w3.org/2000/svg">
<rect x="1.5" y="1.5" width="301" height="230" rx="48.5" fill="#FD94D8" stroke="black" stroke-width="3"/>
<rect x="23.5" y="125.5" width="257" height="82" rx="23.5" fill="#FD94D8" stroke="black" stroke-width="3"/>
<path d="M99.1569 55.948C99.1569 53.1267 100.016 50.9493 101.733 49.416C103.512 47.8213 105.781 47.024 108.541 47.024C111.424 47.024 113.724 47.8213 115.441 49.416C117.158 50.9493 118.017 53.1267 118.017 55.948V95.14C118.017 96.3053 118.324 97.1333 118.937 97.624C119.55 98.0533 120.562 97.8693 121.973 97.072C125.04 95.2933 127.769 93.8827 130.161 92.84C132.553 91.736 135.19 91.184 138.073 91.184C142.06 91.184 145.065 92.2267 147.089 94.312C149.113 96.3973 150.125 99.1267 150.125 102.5C150.125 106.119 149.021 108.909 146.813 110.872C144.666 112.835 141.201 113.816 136.417 113.816H117.465C113.417 113.816 110.044 113.356 107.345 112.436C104.646 111.455 102.592 109.707 101.181 107.192C99.8316 104.677 99.1569 101.028 99.1569 96.244V55.948ZM172.916 92.748V104.248C172.916 107.437 172.057 109.86 170.34 111.516C168.684 113.172 166.476 114 163.716 114H163.624C160.618 114 158.226 113.172 156.448 111.516C154.73 109.86 153.872 107.437 153.872 104.248V91.276C153.872 84.7747 154.853 79.8373 156.816 76.464C158.778 73.0907 161.262 70.668 164.268 69.196L163.808 67.448H162.244C159.422 67.448 157.184 66.5587 155.528 64.78C153.933 62.94 153.105 60.456 153.044 57.328C152.982 54.2613 153.78 51.7773 155.436 49.876C157.153 47.9747 159.422 47.024 162.244 47.024H186.44C192.634 47.024 197.664 48.8947 201.528 52.636C205.453 56.316 207.416 62.1427 207.416 70.116C207.416 75.8813 206.404 80.42 204.38 83.732C202.356 87.044 199.688 89.3747 196.376 90.724C193.064 92.0733 189.476 92.748 185.612 92.748H172.916ZM171.72 74.992C171.72 76.3413 171.965 77.2307 172.456 77.66C173.008 78.0893 173.958 78.304 175.308 78.304H183.864C186.44 78.304 188.31 77.7213 189.476 76.556C190.641 75.3293 191.224 73.612 191.224 71.404C191.224 69.196 190.641 67.5093 189.476 66.344C188.31 65.1787 186.44 64.596 183.864 64.596H175.308C173.958 64.596 173.008 64.78 172.456 65.148C171.965 65.516 171.72 66.4053 171.72 67.816V74.992Z" fill="black"/>
<path d="M84.1973 182.96C82.9707 182.907 81.824 182.733 80.7573 182.44C79.7173 182.147 78.7973 181.653 77.9973 180.96C77.1973 180.24 76.5707 179.253 76.1173 178C75.6907 176.747 75.4773 175.147 75.4773 173.2C75.4773 171.307 75.7307 169.667 76.2373 168.28C76.7707 166.893 77.3973 165.787 78.1173 164.96C78.8373 164.133 79.4907 163.627 80.0773 163.44L79.8773 162.68H79.1973C77.9707 162.68 76.9973 162.293 76.2773 161.52C75.584 160.72 75.224 159.653 75.1973 158.32C75.1707 156.987 75.5173 155.92 76.2373 155.12C76.984 154.293 77.9707 153.88 79.1973 153.88H90.1973C93.0773 153.88 95.1573 154.573 96.4373 155.96C97.7173 157.32 98.3573 159.093 98.3573 161.28C98.3573 163.04 97.944 164.507 97.1173 165.68C96.3173 166.853 95.104 167.56 93.4773 167.8V168.4C95.2373 168.48 96.664 169.093 97.7573 170.24C98.8773 171.36 99.4373 173.027 99.4373 175.24C99.4373 177.64 98.744 179.547 97.3573 180.96C95.9707 182.347 93.6907 183.027 90.5173 183L84.1973 182.96ZM83.1173 165C83.1173 165.587 83.224 165.973 83.4373 166.16C83.6507 166.347 84.0507 166.44 84.6373 166.44H88.3173C89.3307 166.44 90.104 166.293 90.6373 166C91.1707 165.68 91.4373 165.067 91.4373 164.16C91.4373 163.227 91.1707 162.613 90.6373 162.32C90.104 162.027 89.3307 161.88 88.3173 161.88H84.6373C84.0507 161.88 83.6507 161.96 83.4373 162.12C83.224 162.28 83.1173 162.667 83.1173 163.28V165ZM83.1173 173.04C83.1173 173.627 83.224 174.027 83.4373 174.24C83.6773 174.453 84.104 174.56 84.7173 174.56H88.8373C89.8773 174.56 90.6773 174.373 91.2373 174C91.7973 173.627 92.0773 172.96 92.0773 172C92.0773 171.04 91.7973 170.387 91.2373 170.04C90.6773 169.667 89.8773 169.48 88.8373 169.48H84.7173C84.104 169.48 83.6773 169.573 83.4373 169.76C83.224 169.947 83.1173 170.333 83.1173 170.92V173.04ZM113.46 183.12C111.86 183.093 110.326 182.88 108.86 182.48C107.42 182.08 106.126 181.427 104.98 180.52C103.833 179.613 102.926 178.4 102.26 176.88C101.62 175.36 101.3 173.48 101.3 171.24V157.68C101.3 156.4 101.713 155.453 102.54 154.84C103.393 154.2 104.38 153.88 105.5 153.88C106.593 153.88 107.566 154.2 108.42 154.84C109.273 155.453 109.7 156.4 109.7 157.68V169.36C109.7 171.253 110.14 172.64 111.02 173.52C111.926 174.4 113.086 174.8 114.5 174.72C115.993 174.613 117.06 174.04 117.7 173C118.366 171.96 118.553 170.573 118.26 168.84C118.073 167.667 117.86 166.68 117.62 165.88C117.406 165.08 117.18 164.373 116.94 163.76C116.726 163.12 116.54 162.493 116.38 161.88C116.22 161.24 116.1 160.493 116.02 159.64C115.86 157.853 116.22 156.453 117.1 155.44C118.006 154.4 119.193 153.88 120.66 153.88C122.126 153.88 123.273 154.373 124.1 155.36C124.926 156.347 125.34 157.84 125.34 159.84V171.24C125.34 173.48 125.02 175.373 124.38 176.92C123.766 178.44 122.9 179.667 121.78 180.6C120.686 181.507 119.42 182.16 117.98 182.56C116.566 182.933 115.06 183.12 113.46 183.12ZM147.342 183C146.009 183 144.955 182.6 144.182 181.8C143.409 180.973 142.995 179.907 142.942 178.6C142.835 176.333 142.262 174.733 141.222 173.8C140.209 172.84 138.849 172.36 137.142 172.36H136.342V178.76C136.342 180.147 135.969 181.2 135.222 181.92C134.475 182.64 133.489 183 132.262 183C130.955 183 129.929 182.64 129.182 181.92C128.435 181.2 128.062 180.147 128.062 178.76V173.12C128.062 170.293 128.475 168.147 129.302 166.68C130.155 165.213 131.235 164.16 132.542 163.52L132.342 162.76H131.702C130.475 162.76 129.502 162.373 128.782 161.6C128.089 160.8 127.715 159.72 127.662 158.36C127.635 157.027 127.995 155.947 128.742 155.12C129.489 154.293 130.475 153.88 131.702 153.88H141.902C144.755 153.88 147.062 154.573 148.822 155.96C150.582 157.347 151.462 159.56 151.462 162.6C151.462 164.173 151.195 165.493 150.662 166.56C150.129 167.6 149.449 168.4 148.622 168.96C147.795 169.52 146.929 169.853 146.022 169.96V170.48C147.675 170.88 149.035 171.76 150.102 173.12C151.195 174.48 151.742 176.307 151.742 178.6C151.742 180.067 151.342 181.173 150.542 181.92C149.769 182.64 148.702 183 147.342 183ZM136.142 166.24C136.142 166.827 136.249 167.213 136.462 167.4C136.675 167.587 137.075 167.68 137.662 167.68H141.422C142.542 167.68 143.355 167.427 143.862 166.92C144.369 166.413 144.622 165.707 144.622 164.8C144.622 163.867 144.369 163.147 143.862 162.64C143.355 162.133 142.542 161.88 141.422 161.88H137.662C137.075 161.88 136.675 161.96 136.462 162.12C136.249 162.28 136.142 162.667 136.142 163.28V166.24ZM157.645 183C156.312 183 155.298 182.587 154.605 181.76C153.912 180.933 153.565 179.827 153.565 178.44V159.68C153.565 158.293 153.818 157.173 154.325 156.32C154.858 155.44 155.538 154.8 156.365 154.4C157.218 154 158.138 153.8 159.125 153.8C160.592 153.8 161.832 154.187 162.845 154.96C163.858 155.733 164.645 157.093 165.205 159.04L169.525 173.8H170.165V158.44C170.165 157.027 170.525 155.92 171.245 155.12C171.965 154.293 172.992 153.88 174.325 153.88C175.712 153.88 176.738 154.293 177.405 155.12C178.098 155.92 178.445 157.027 178.445 158.44V176.52C178.445 178.76 177.952 180.413 176.965 181.48C175.978 182.547 174.592 183.08 172.805 183.08C170.992 183.08 169.578 182.6 168.565 181.64C167.552 180.68 166.778 179.267 166.245 177.4L163.405 167.68C163.352 167.413 163.245 167.173 163.085 166.96C162.952 166.72 162.765 166.6 162.525 166.6C162.232 166.6 162.032 166.72 161.925 166.96C161.818 167.173 161.765 167.413 161.765 167.68V178.44C161.765 179.827 161.418 180.933 160.725 181.76C160.032 182.587 159.005 183 157.645 183ZM190.747 182.92C189.44 182.92 188.187 182.8 186.987 182.56C185.814 182.32 184.774 181.867 183.867 181.2C182.987 180.507 182.28 179.52 181.747 178.24C181.24 176.933 180.987 175.227 180.987 173.12C180.987 171.227 181.24 169.6 181.747 168.24C182.254 166.88 182.854 165.8 183.547 165C184.267 164.2 184.92 163.707 185.507 163.52L185.307 162.76H184.627C183.4 162.76 182.427 162.373 181.707 161.6C181.014 160.8 180.654 159.72 180.627 158.36C180.6 157.027 180.947 155.96 181.667 155.16C182.414 154.36 183.4 153.96 184.627 153.96H198.987C201.84 153.96 203.267 155.293 203.267 157.96C203.267 159.16 202.92 160.12 202.227 160.84C201.534 161.56 200.454 161.92 198.987 161.92H190.707C189.72 161.92 189.227 162.493 189.227 163.64V166.64C190.56 166.347 191.947 166 193.387 165.6C194.854 165.2 196.24 165 197.547 165C198.8 165 199.734 165.28 200.347 165.84C200.987 166.373 201.307 167.107 201.307 168.04C201.307 169 200.987 169.76 200.347 170.32C199.734 170.853 198.8 171.133 197.547 171.16C196.24 171.187 194.854 171 193.387 170.6C191.92 170.2 190.52 169.853 189.187 169.56V174.8C189.187 175.307 189.32 175.667 189.587 175.88C189.88 176.067 190.334 175.987 190.947 175.64C192.28 174.867 193.587 174.253 194.867 173.8C196.147 173.32 197.4 173.08 198.627 173.08C200.36 173.08 201.667 173.533 202.547 174.44C203.454 175.347 203.907 176.533 203.907 178C203.907 179.573 203.427 180.787 202.467 181.64C201.534 182.493 200.014 182.92 197.907 182.92H190.747ZM215.997 153.88C219.171 153.88 221.757 154.48 223.757 155.68C225.784 156.853 227.277 158.533 228.237 160.72C229.224 162.88 229.717 165.453 229.717 168.44C229.717 173.453 228.637 177.133 226.477 179.48C224.317 181.827 221.011 183 216.557 183H214.797C213.491 183 212.277 182.867 211.157 182.6C210.037 182.333 209.051 181.853 208.197 181.16C207.344 180.44 206.677 179.44 206.197 178.16C205.717 176.88 205.477 175.227 205.477 173.2C205.477 171.307 205.731 169.667 206.237 168.28C206.771 166.893 207.397 165.787 208.117 164.96C208.837 164.133 209.491 163.627 210.077 163.44L209.877 162.68H209.197C207.971 162.68 206.997 162.293 206.277 161.52C205.584 160.72 205.224 159.653 205.197 158.32C205.171 156.987 205.517 155.92 206.237 155.12C206.984 154.293 207.971 153.88 209.197 153.88H215.997ZM213.117 172.68C213.117 173.24 213.237 173.627 213.477 173.84C213.744 174.053 214.131 174.16 214.637 174.16H216.797C218.157 174.16 219.211 173.867 219.957 173.28C220.704 172.693 221.224 171.947 221.517 171.04C221.837 170.107 221.997 169.12 221.997 168.08C221.997 167.04 221.837 166.04 221.517 165.08C221.224 164.12 220.704 163.333 219.957 162.72C219.211 162.107 218.157 161.8 216.797 161.8H214.637C214.131 161.8 213.744 161.92 213.477 162.16C213.237 162.373 213.117 162.773 213.117 163.36V172.68Z" fill="black"/>
</svg>
