<svg width="304" height="233" viewBox="0 0 304 233" fill="none" xmlns="http://www.w3.org/2000/svg">
<rect x="1.5" y="1.5" width="301" height="230" rx="48.5" fill="#FD94D8" stroke="black" stroke-width="3"/>
<rect x="23.5" y="125.5" width="257" height="82" rx="23.5" fill="#FD94D8" stroke="black" stroke-width="3"/>
<path d="M23.9415 83C22.0748 83 20.6562 82.4213 19.6855 81.264C18.7148 80.1067 18.2295 78.5573 18.2295 76.616V50.352C18.2295 48.4107 18.5842 46.8427 19.2935 45.648C20.0402 44.416 20.9922 43.52 22.1495 42.96C23.3442 42.4 24.6322 42.12 26.0135 42.12C28.0668 42.12 29.8028 42.6613 31.2215 43.744C32.6402 44.8267 33.7415 46.7307 34.5255 49.456L40.5735 70.12H41.4695V48.616C41.4695 46.6373 41.9735 45.088 42.9815 43.968C43.9895 42.8107 45.4268 42.232 47.2935 42.232C49.2348 42.232 50.6722 42.8107 51.6055 43.968C52.5762 45.088 53.0615 46.6373 53.0615 48.616V73.928C53.0615 77.064 52.3708 79.3787 50.9895 80.872C49.6082 82.3653 47.6668 83.112 45.1655 83.112C42.6268 83.112 40.6482 82.44 39.2295 81.096C37.8108 79.752 36.7282 77.7733 35.9815 75.16L32.0055 61.552C31.9308 61.1787 31.7815 60.8427 31.5575 60.544C31.3708 60.208 31.1095 60.04 30.7735 60.04C30.3628 60.04 30.0828 60.208 29.9335 60.544C29.7842 60.8427 29.7095 61.1787 29.7095 61.552V76.616C29.7095 78.5573 29.2242 80.1067 28.2535 81.264C27.2828 82.4213 25.8455 83 23.9415 83ZM70.2841 82.888C68.4548 82.888 66.7001 82.72 65.0201 82.384C63.3775 82.048 61.9215 81.4133 60.6521 80.48C59.4201 79.5093 58.4308 78.128 57.6841 76.336C56.9748 74.5067 56.6201 72.1173 56.6201 69.168C56.6201 66.5173 56.9748 64.24 57.6841 62.336C58.3935 60.432 59.2335 58.92 60.2041 57.8C61.2121 56.68 62.1268 55.9893 62.9481 55.728L62.6681 54.664H61.7161C59.9988 54.664 58.6361 54.1227 57.6281 53.04C56.6575 51.92 56.1535 50.408 56.1161 48.504C56.0788 46.6373 56.5641 45.144 57.5721 44.024C58.6175 42.904 59.9988 42.344 61.7161 42.344H81.8201C85.8148 42.344 87.8121 44.2107 87.8121 47.944C87.8121 49.624 87.3268 50.968 86.3561 51.976C85.3855 52.984 83.8735 53.488 81.8201 53.488H70.2281C68.8468 53.488 68.1561 54.2907 68.1561 55.896V60.096C70.0228 59.6853 71.9641 59.2 73.9801 58.64C76.0335 58.08 77.9748 57.8 79.8041 57.8C81.5588 57.8 82.8655 58.192 83.7241 58.976C84.6201 59.7227 85.0681 60.7493 85.0681 62.056C85.0681 63.4 84.6201 64.464 83.7241 65.248C82.8655 65.9947 81.5588 66.3867 79.8041 66.424C77.9748 66.4613 76.0335 66.2 73.9801 65.64C71.9268 65.08 69.9668 64.5947 68.1001 64.184V71.52C68.1001 72.2293 68.2868 72.7333 68.6601 73.032C69.0708 73.2933 69.7055 73.1813 70.5641 72.696C72.4308 71.6133 74.2601 70.7547 76.0521 70.12C77.8441 69.448 79.5988 69.112 81.3161 69.112C83.7428 69.112 85.5721 69.7467 86.8041 71.016C88.0735 72.2853 88.7081 73.9467 88.7081 76C88.7081 78.2027 88.0361 79.9013 86.6921 81.096C85.3855 82.2907 83.2575 82.888 80.3081 82.888H70.2841ZM96.0586 54.664C94.1919 54.664 92.6612 54.1227 91.4666 53.04C90.3092 51.9573 89.7306 50.464 89.7306 48.56C89.7306 46.6933 90.2532 45.2 91.2986 44.08C92.3812 42.9227 93.9679 42.344 96.0586 42.344H120.195C122.285 42.344 123.853 42.9227 124.899 44.08C125.981 45.2 126.523 46.6933 126.523 48.56C126.523 50.464 125.925 51.9573 124.731 53.04C123.573 54.1227 122.061 54.664 120.195 54.664C118.925 54.664 117.899 54.5333 117.115 54.272C116.368 53.9733 115.752 53.6373 115.267 53.264C114.781 52.8533 114.315 52.5173 113.867 52.256C113.419 51.9573 112.859 51.808 112.187 51.808L111.683 52.816C111.832 53.152 112.093 53.6373 112.467 54.272C112.84 54.8693 113.195 55.7467 113.531 56.904C113.867 58.024 114.035 59.5547 114.035 61.496V77.68C114.035 79.2107 113.456 80.48 112.299 81.488C111.179 82.496 109.797 83 108.155 83C106.475 83 105.056 82.496 103.899 81.488C102.779 80.48 102.219 79.2107 102.219 77.68V61.496C102.219 59.5547 102.387 58.024 102.723 56.904C103.059 55.7467 103.413 54.8693 103.787 54.272C104.197 53.6373 104.477 53.152 104.627 52.816L104.067 51.808C103.395 51.808 102.835 51.9573 102.387 52.256C101.939 52.5173 101.472 52.8533 100.987 53.264C100.501 53.6373 99.8852 53.9733 99.1386 54.272C98.3919 54.5333 97.3652 54.664 96.0586 54.664ZM144.982 83.168C142.705 83.168 140.913 82.608 139.606 81.488C138.3 80.368 137.254 78.8373 136.47 76.896C135.724 74.9173 135.014 72.6773 134.342 70.176L128.91 50.016C128.5 48.448 128.593 46.992 129.19 45.648C129.788 44.2667 130.964 43.352 132.718 42.904C134.361 42.456 135.817 42.568 137.086 43.24C138.356 43.912 139.214 45.088 139.662 46.768L144.702 65.192C145.15 66.7973 145.617 67.9733 146.102 68.72C146.625 69.4667 147.446 69.7093 148.566 69.448C149.612 69.1867 150.172 68.608 150.246 67.712C150.321 66.816 150.134 65.5467 149.686 63.904L146.102 50.296C145.617 48.4293 145.673 46.824 146.27 45.48C146.905 44.0987 148.137 43.2027 149.966 42.792C151.833 42.344 153.326 42.5867 154.446 43.52C155.604 44.416 156.388 45.6853 156.798 47.328L161.334 65.192C161.82 67.0213 162.342 68.2533 162.902 68.888C163.5 69.5227 164.265 69.7093 165.198 69.448C166.244 69.1493 166.748 68.5707 166.71 67.712C166.673 66.816 166.542 65.528 166.318 63.848C165.982 61.2347 165.684 59.088 165.422 57.408C165.198 55.728 165.012 54.328 164.862 53.208C164.75 52.088 164.694 51.0613 164.694 50.128C164.694 48.0373 165.31 46.264 166.542 44.808C167.774 43.3147 169.454 42.568 171.582 42.568C173.748 42.568 175.39 43.24 176.51 44.584C177.63 45.8907 178.19 47.7013 178.19 50.016C178.19 51.5093 177.966 53.0773 177.518 54.72C177.108 56.3627 176.697 57.912 176.286 59.368L173.15 70.176C172.441 72.64 171.732 74.8613 171.022 76.84C170.35 78.7813 169.436 80.3307 168.278 81.488C167.121 82.608 165.478 83.168 163.35 83.168C160.774 83.168 158.758 82.3653 157.302 80.76C155.846 79.1547 154.726 76.5227 153.942 72.864H153.55C152.804 76.5227 151.814 79.1547 150.582 80.76C149.35 82.3653 147.484 83.168 144.982 83.168ZM197.372 83.168C193.378 83.168 189.999 82.2907 187.236 80.536C184.474 78.7813 182.383 76.3547 180.964 73.256C179.546 70.1573 178.836 66.592 178.836 62.56C178.836 58.5653 179.546 55.0187 180.964 51.92C182.383 48.784 184.474 46.3387 187.236 44.584C189.999 42.792 193.378 41.896 197.372 41.896C201.367 41.896 204.727 42.792 207.452 44.584C210.215 46.3387 212.306 48.784 213.724 51.92C215.143 55.0187 215.852 58.5653 215.852 62.56C215.852 66.592 215.143 70.1573 213.724 73.256C212.306 76.3547 210.215 78.7813 207.452 80.536C204.727 82.2907 201.367 83.168 197.372 83.168ZM185.892 61.664C185.892 62.8213 186.172 63.9227 186.732 64.968C187.292 65.976 188.394 66.7973 190.036 67.432C191.679 68.0293 194.124 68.328 197.372 68.328C200.62 68.328 203.047 68.0293 204.652 67.432C206.295 66.7973 207.396 65.976 207.956 64.968C208.516 63.9227 208.796 62.8213 208.796 61.664C208.796 60.4693 208.516 59.4053 207.956 58.472C207.396 57.5013 206.295 56.736 204.652 56.176C203.047 55.5787 200.62 55.28 197.372 55.28C194.124 55.28 191.679 55.5787 190.036 56.176C188.394 56.736 187.292 57.5013 186.732 58.472C186.172 59.4053 185.892 60.4693 185.892 61.664ZM245.548 83C243.682 83 242.207 82.44 241.124 81.32C240.042 80.1627 239.463 78.6693 239.388 76.84C239.239 73.6667 238.436 71.4267 236.98 70.12C235.562 68.776 233.658 68.104 231.268 68.104H230.148V77.064C230.148 79.0053 229.626 80.48 228.58 81.488C227.535 82.496 226.154 83 224.436 83C222.607 83 221.17 82.496 220.124 81.488C219.079 80.48 218.556 79.0053 218.556 77.064V69.168C218.556 65.2107 219.135 62.2053 220.292 60.152C221.487 58.0987 222.999 56.624 224.828 55.728L224.548 54.664H223.652C221.935 54.664 220.572 54.1227 219.564 53.04C218.594 51.92 218.071 50.408 217.996 48.504C217.959 46.6373 218.463 45.1253 219.508 43.968C220.554 42.8107 221.935 42.232 223.652 42.232H237.932C241.927 42.232 245.156 43.2027 247.62 45.144C250.084 47.0853 251.316 50.184 251.316 54.44C251.316 56.6427 250.943 58.4907 250.196 59.984C249.45 61.44 248.498 62.56 247.34 63.344C246.183 64.128 244.97 64.5947 243.7 64.744V65.472C246.015 66.032 247.919 67.264 249.412 69.168C250.943 71.072 251.708 73.6293 251.708 76.84C251.708 78.8933 251.148 80.4427 250.028 81.488C248.946 82.496 247.452 83 245.548 83ZM229.868 59.536C229.868 60.3573 230.018 60.8987 230.316 61.16C230.615 61.4213 231.175 61.552 231.996 61.552H237.26C238.828 61.552 239.967 61.1973 240.676 60.488C241.386 59.7787 241.74 58.7893 241.74 57.52C241.74 56.2133 241.386 55.2053 240.676 54.496C239.967 53.7867 238.828 53.432 237.26 53.432H231.996C231.175 53.432 230.615 53.544 230.316 53.768C230.018 53.992 229.868 54.5333 229.868 55.392V59.536ZM266.693 57.744L275.093 45.872C276.586 43.744 278.21 42.5493 279.965 42.288C281.719 41.9893 283.306 42.4 284.725 43.52C285.658 44.2293 286.274 45.1813 286.573 46.376C286.871 47.5707 286.778 48.84 286.293 50.184C285.807 51.528 284.837 52.7973 283.381 53.992L274.029 61.552V62.728C275.223 62.728 276.623 62.8773 278.229 63.176C279.834 63.4747 281.29 64.1467 282.597 65.192C283.642 65.976 284.538 66.872 285.285 67.88C286.069 68.888 286.685 70.1387 287.133 71.632C287.581 73.088 287.805 74.936 287.805 77.176C287.805 79.0053 287.301 80.48 286.293 81.6C285.322 82.6827 283.866 83.224 281.925 83.224C279.983 83.224 278.49 82.6827 277.445 81.6C276.437 80.48 275.933 79.0053 275.933 77.176C275.933 75.1227 275.597 73.4987 274.925 72.304C274.29 71.072 273.431 70.176 272.349 69.616C271.266 69.056 270.09 68.776 268.821 68.776H266.077V77.568C266.077 79.1733 265.517 80.4987 264.397 81.544C263.314 82.5893 261.914 83.112 260.197 83.112C258.479 83.112 257.061 82.5893 255.941 81.544C254.858 80.4987 254.317 79.1733 254.317 77.568V47.944C254.317 46.3013 254.858 44.92 255.941 43.8C257.023 42.68 258.442 42.12 260.197 42.12C262.063 42.12 263.501 42.68 264.509 43.8C265.554 44.8827 266.077 46.2267 266.077 47.832V57.632L266.693 57.744Z" fill="black"/>
<path d="M127.819 183.12C126.325 183.12 124.819 182.973 123.299 182.68C121.805 182.36 120.419 181.907 119.139 181.32C117.885 180.707 116.872 179.973 116.099 179.12C115.325 178.24 114.939 177.227 114.939 176.08C114.939 174.613 115.405 173.44 116.339 172.56C117.272 171.68 118.365 171.267 119.619 171.32C120.605 171.347 121.592 171.56 122.579 171.96C123.565 172.333 124.565 172.707 125.579 173.08C126.619 173.453 127.659 173.64 128.699 173.64C129.739 173.64 130.459 173.507 130.859 173.24C131.259 172.973 131.459 172.613 131.459 172.16C131.459 171.627 131.179 171.187 130.619 170.84C130.059 170.493 129.352 170.227 128.499 170.04L126.539 169.56C124.512 169.08 122.699 168.547 121.099 167.96C119.499 167.347 118.232 166.547 117.299 165.56C116.392 164.547 115.939 163.2 115.939 161.52C115.939 159.68 116.445 158.187 117.459 157.04C118.472 155.867 119.845 155.013 121.579 154.48C123.312 153.947 125.245 153.68 127.379 153.68C129.565 153.68 131.485 153.907 133.139 154.36C134.792 154.813 136.072 155.467 136.979 156.32C137.912 157.173 138.379 158.213 138.379 159.44C138.379 160.747 138.019 161.773 137.299 162.52C136.605 163.24 135.672 163.6 134.499 163.6C133.725 163.6 132.912 163.467 132.059 163.2C131.232 162.933 130.352 162.68 129.419 162.44C128.512 162.173 127.539 162.04 126.499 162.04C125.565 162.04 124.859 162.187 124.379 162.48C123.899 162.747 123.659 163.107 123.659 163.56C123.659 164.12 123.979 164.533 124.619 164.8C125.259 165.067 126.312 165.387 127.779 165.76L130.019 166.28C131.859 166.733 133.472 167.28 134.859 167.92C136.245 168.56 137.325 169.4 138.099 170.44C138.872 171.48 139.259 172.84 139.259 174.52C139.259 176.547 138.779 178.2 137.819 179.48C136.859 180.733 135.525 181.653 133.819 182.24C132.112 182.827 130.112 183.12 127.819 183.12ZM152.95 183.12C150.097 183.12 147.683 182.493 145.71 181.24C143.737 179.987 142.243 178.253 141.23 176.04C140.217 173.827 139.71 171.28 139.71 168.4C139.71 165.547 140.217 163.013 141.23 160.8C142.243 158.56 143.737 156.813 145.71 155.56C147.683 154.28 150.097 153.64 152.95 153.64C155.803 153.64 158.203 154.28 160.15 155.56C162.123 156.813 163.617 158.56 164.63 160.8C165.643 163.013 166.15 165.547 166.15 168.4C166.15 171.28 165.643 173.827 164.63 176.04C163.617 178.253 162.123 179.987 160.15 181.24C158.203 182.493 155.803 183.12 152.95 183.12ZM144.75 167.76C144.75 168.587 144.95 169.373 145.35 170.12C145.75 170.84 146.537 171.427 147.71 171.88C148.883 172.307 150.63 172.52 152.95 172.52C155.27 172.52 157.003 172.307 158.15 171.88C159.323 171.427 160.11 170.84 160.51 170.12C160.91 169.373 161.11 168.587 161.11 167.76C161.11 166.907 160.91 166.147 160.51 165.48C160.11 164.787 159.323 164.24 158.15 163.84C157.003 163.413 155.27 163.2 152.95 163.2C150.63 163.2 148.883 163.413 147.71 163.84C146.537 164.24 145.75 164.787 145.35 165.48C144.95 166.147 144.75 166.907 144.75 167.76ZM168.272 157.76C168.272 156.533 168.646 155.587 169.392 154.92C170.166 154.227 171.152 153.88 172.352 153.88C173.606 153.88 174.606 154.227 175.352 154.92C176.099 155.587 176.472 156.533 176.472 157.76V174.8C176.472 175.307 176.606 175.667 176.872 175.88C177.139 176.067 177.579 175.987 178.192 175.64C179.526 174.867 180.712 174.253 181.752 173.8C182.792 173.32 183.939 173.08 185.192 173.08C186.926 173.08 188.232 173.533 189.112 174.44C189.992 175.347 190.432 176.533 190.432 178C190.432 179.573 189.952 180.787 188.992 181.64C188.059 182.493 186.552 182.92 184.472 182.92H176.232C174.472 182.92 173.006 182.72 171.832 182.32C170.659 181.893 169.766 181.133 169.152 180.04C168.566 178.947 168.272 177.36 168.272 175.28V157.76Z" fill="black"/>
</svg>
