<svg width="304" height="233" viewBox="0 0 304 233" fill="none" xmlns="http://www.w3.org/2000/svg">
<rect x="1.5" y="1.5" width="301" height="230" rx="48.5" fill="#FF8F3E" stroke="black" stroke-width="3"/>
<rect x="23.5" y="125.5" width="257" height="82" rx="23.5" fill="#FF8F3E" stroke="black" stroke-width="3"/>
<path d="M75.4076 67.448C72.3409 67.448 69.8263 66.5587 67.8636 64.78C65.9623 63.0013 65.0116 60.548 65.0116 57.42C65.0116 54.3533 65.8703 51.9 67.5876 50.06C69.3663 48.1587 71.9729 47.208 75.4076 47.208H115.06C118.494 47.208 121.07 48.1587 122.788 50.06C124.566 51.9 125.456 54.3533 125.456 57.42C125.456 60.548 124.474 63.0013 122.512 64.78C120.61 66.5587 118.126 67.448 115.06 67.448C112.974 67.448 111.288 67.2333 110 66.804C108.773 66.3133 107.761 65.7613 106.964 65.148C106.166 64.4733 105.4 63.9213 104.664 63.492C103.928 63.0013 103.008 62.756 101.904 62.756L101.076 64.412C101.321 64.964 101.75 65.7613 102.364 66.804C102.977 67.7853 103.56 69.2267 104.112 71.128C104.664 72.968 104.94 75.4827 104.94 78.672V105.26C104.94 107.775 103.989 109.86 102.088 111.516C100.248 113.172 97.9783 114 95.2796 114C92.5196 114 90.1889 113.172 88.2876 111.516C86.4476 109.86 85.5276 107.775 85.5276 105.26V78.672C85.5276 75.4827 85.8036 72.968 86.3556 71.128C86.9076 69.2267 87.4903 67.7853 88.1036 66.804C88.7783 65.7613 89.2383 64.964 89.4836 64.412L88.5636 62.756C87.4596 62.756 86.5396 63.0013 85.8036 63.492C85.0676 63.9213 84.3009 64.4733 83.5036 65.148C82.7063 65.7613 81.6943 66.3133 80.4676 66.804C79.2409 67.2333 77.5543 67.448 75.4076 67.448ZM123.544 114C119.435 113.387 116.767 111.516 115.54 108.388C114.314 105.199 114.559 101.181 116.276 96.336L128.42 61.836C129.524 58.6467 130.782 55.9173 132.192 53.648C133.664 51.3787 135.474 49.6307 137.62 48.404C139.828 47.1773 142.558 46.564 145.808 46.564C150.715 46.564 154.395 47.9133 156.848 50.612C159.363 53.3107 161.448 57.052 163.104 61.836L175.156 96.336C176.874 101.181 177.18 105.199 176.076 108.388C175.034 111.516 172.427 113.387 168.256 114C164.883 114.429 161.939 114.031 159.424 112.804C156.971 111.577 155.499 109.584 155.008 106.824C154.64 104.984 154.579 103.451 154.824 102.224C155.131 100.997 155.407 100.016 155.652 99.28C155.836 98.6667 155.836 98.084 155.652 97.532C155.53 96.9187 155.07 96.612 154.272 96.612H137.16C136.363 96.612 135.872 96.9187 135.688 97.532C135.566 98.084 135.627 98.6667 135.872 99.28C136.118 100.016 136.363 100.997 136.608 102.224C136.854 103.451 136.823 104.984 136.516 106.824C136.026 109.584 134.584 111.577 132.192 112.804C129.8 114.031 126.918 114.429 123.544 114ZM152.524 83.732L147.74 68.736C147.618 68.1227 147.403 67.6627 147.096 67.356C146.851 66.988 146.422 66.804 145.808 66.804C145.195 66.804 144.735 66.988 144.428 67.356C144.183 67.6627 143.968 68.1227 143.784 68.736L139.092 83.732H152.524ZM183.159 94.68C185.428 91.6747 187.943 89.0987 190.703 86.952C193.463 84.744 196.53 82.5973 199.903 80.512C198.37 78.7947 196.683 77.2613 194.843 75.912C193.064 74.5627 191.255 73.1827 189.415 71.772C187.636 70.3 185.919 68.5827 184.263 66.62C182.668 64.596 181.564 62.48 180.951 60.272C180.338 58.0027 180.338 55.8253 180.951 53.74C181.626 51.6547 182.975 49.9373 184.999 48.588C187.207 47.0547 189.446 46.5027 191.715 46.932C193.984 47.3 196.131 48.3733 198.155 50.152C200.179 51.8693 201.927 54.0467 203.399 56.684C204.748 59.0147 206.067 61.2533 207.355 63.4C208.643 65.4853 209.9 67.4173 211.127 69.196C212.783 67.6013 213.979 66.0987 214.715 64.688C215.451 63.216 216.095 61.6213 216.647 59.904C217.26 58.1867 218.119 56.1933 219.223 53.924C220.143 51.9613 221.4 50.3973 222.995 49.232C224.651 48.0053 226.491 47.3 228.515 47.116C230.539 46.932 232.532 47.4533 234.495 48.68C236.458 49.8453 237.746 51.4707 238.359 53.556C239.034 55.58 239.064 57.7573 238.451 60.088C237.899 62.4187 236.764 64.6267 235.047 66.712C233.084 69.0427 230.692 71.128 227.871 72.968C225.111 74.7467 222.198 76.3413 219.131 77.752C222.198 80.5733 225.172 83.2413 228.055 85.756C230.938 88.2707 233.544 91.184 235.875 94.496C238.206 97.808 239.279 101.151 239.095 104.524C238.972 107.897 237.47 110.535 234.587 112.436C231.582 114.337 228.484 114.705 225.295 113.54C222.106 112.375 219.315 110.013 216.923 106.456C214.592 102.899 212.66 99.832 211.127 97.256C209.655 94.6187 208.214 92.1347 206.803 89.804C206.312 91.0307 205.883 92.4413 205.515 94.036C205.208 95.6307 204.748 97.4707 204.135 99.556C203.583 101.641 202.632 104.064 201.283 106.824C200.179 109.216 198.646 111.056 196.683 112.344C194.72 113.571 192.604 114.123 190.335 114C188.066 113.939 185.888 113.141 183.803 111.608C182.086 110.259 180.951 108.633 180.399 106.732C179.908 104.769 179.908 102.745 180.399 100.66C180.89 98.5133 181.81 96.52 183.159 94.68Z" fill="black"/>
<path d="M103.532 183C102.199 183 101.185 182.587 100.492 181.76C99.7985 180.933 99.4519 179.827 99.4519 178.44V159.68C99.4519 158.293 99.7052 157.173 100.212 156.32C100.745 155.44 101.425 154.8 102.252 154.4C103.105 154 104.025 153.8 105.012 153.8C106.479 153.8 107.719 154.187 108.732 154.96C109.745 155.733 110.532 157.093 111.092 159.04L115.412 173.8H116.052V158.44C116.052 157.027 116.412 155.92 117.132 155.12C117.852 154.293 118.879 153.88 120.212 153.88C121.599 153.88 122.625 154.293 123.292 155.12C123.985 155.92 124.332 157.027 124.332 158.44V176.52C124.332 178.76 123.839 180.413 122.852 181.48C121.865 182.547 120.479 183.08 118.692 183.08C116.879 183.08 115.465 182.6 114.452 181.64C113.439 180.68 112.665 179.267 112.132 177.4L109.292 167.68C109.239 167.413 109.132 167.173 108.972 166.96C108.839 166.72 108.652 166.6 108.412 166.6C108.119 166.6 107.919 166.72 107.812 166.96C107.705 167.173 107.652 167.413 107.652 167.68V178.44C107.652 179.827 107.305 180.933 106.612 181.76C105.919 182.587 104.892 183 103.532 183ZM139.794 183.12C136.94 183.12 134.527 182.493 132.554 181.24C130.58 179.987 129.087 178.253 128.074 176.04C127.06 173.827 126.554 171.28 126.554 168.4C126.554 165.547 127.06 163.013 128.074 160.8C129.087 158.56 130.58 156.813 132.554 155.56C134.527 154.28 136.94 153.64 139.794 153.64C142.647 153.64 145.047 154.28 146.994 155.56C148.967 156.813 150.46 158.56 151.474 160.8C152.487 163.013 152.994 165.547 152.994 168.4C152.994 171.28 152.487 173.827 151.474 176.04C150.46 178.253 148.967 179.987 146.994 181.24C145.047 182.493 142.647 183.12 139.794 183.12ZM131.594 167.76C131.594 168.587 131.794 169.373 132.194 170.12C132.594 170.84 133.38 171.427 134.554 171.88C135.727 172.307 137.474 172.52 139.794 172.52C142.114 172.52 143.847 172.307 144.994 171.88C146.167 171.427 146.954 170.84 147.354 170.12C147.754 169.373 147.954 168.587 147.954 167.76C147.954 166.907 147.754 166.147 147.354 165.48C146.954 164.787 146.167 164.24 144.994 163.84C143.847 163.413 142.114 163.2 139.794 163.2C137.474 163.2 135.727 163.413 134.554 163.84C133.38 164.24 132.594 164.787 132.194 165.48C131.794 166.147 131.594 166.907 131.594 167.76ZM159.196 183C157.863 183 156.849 182.587 156.156 181.76C155.463 180.933 155.116 179.827 155.116 178.44V159.68C155.116 158.293 155.369 157.173 155.876 156.32C156.409 155.44 157.089 154.8 157.916 154.4C158.769 154 159.689 153.8 160.676 153.8C162.143 153.8 163.383 154.187 164.396 154.96C165.409 155.733 166.196 157.093 166.756 159.04L171.076 173.8H171.716V158.44C171.716 157.027 172.076 155.92 172.796 155.12C173.516 154.293 174.543 153.88 175.876 153.88C177.263 153.88 178.289 154.293 178.956 155.12C179.649 155.92 179.996 157.027 179.996 158.44V176.52C179.996 178.76 179.503 180.413 178.516 181.48C177.529 182.547 176.143 183.08 174.356 183.08C172.543 183.08 171.129 182.6 170.116 181.64C169.103 180.68 168.329 179.267 167.796 177.4L164.956 167.68C164.903 167.413 164.796 167.173 164.636 166.96C164.503 166.72 164.316 166.6 164.076 166.6C163.783 166.6 163.583 166.72 163.476 166.96C163.369 167.173 163.316 167.413 163.316 167.68V178.44C163.316 179.827 162.969 180.933 162.276 181.76C161.583 182.587 160.556 183 159.196 183ZM192.298 182.92C190.991 182.92 189.738 182.8 188.538 182.56C187.364 182.32 186.324 181.867 185.418 181.2C184.538 180.507 183.831 179.52 183.298 178.24C182.791 176.933 182.538 175.227 182.538 173.12C182.538 171.227 182.791 169.6 183.298 168.24C183.804 166.88 184.404 165.8 185.098 165C185.818 164.2 186.471 163.707 187.058 163.52L186.858 162.76H186.178C184.951 162.76 183.978 162.373 183.258 161.6C182.564 160.8 182.204 159.72 182.178 158.36C182.151 157.027 182.498 155.96 183.218 155.16C183.964 154.36 184.951 153.96 186.178 153.96H200.538C203.391 153.96 204.818 155.293 204.818 157.96C204.818 159.16 204.471 160.12 203.778 160.84C203.084 161.56 202.004 161.92 200.538 161.92H192.258C191.271 161.92 190.778 162.493 190.778 163.64V166.64C192.111 166.347 193.498 166 194.938 165.6C196.404 165.2 197.791 165 199.098 165C200.351 165 201.284 165.28 201.898 165.84C202.538 166.373 202.858 167.107 202.858 168.04C202.858 169 202.538 169.76 201.898 170.32C201.284 170.853 200.351 171.133 199.098 171.16C197.791 171.187 196.404 171 194.938 170.6C193.471 170.2 192.071 169.853 190.738 169.56V174.8C190.738 175.307 190.871 175.667 191.138 175.88C191.431 176.067 191.884 175.987 192.498 175.64C193.831 174.867 195.138 174.253 196.418 173.8C197.698 173.32 198.951 173.08 200.178 173.08C201.911 173.08 203.218 173.533 204.098 174.44C205.004 175.347 205.458 176.533 205.458 178C205.458 179.573 204.978 180.787 204.018 181.64C203.084 182.493 201.564 182.92 199.458 182.92H192.298Z" fill="black"/>
</svg>
