<svg width="1347" height="233" viewBox="0 0 1347 233" fill="none" xmlns="http://www.w3.org/2000/svg">
<rect x="1.5" y="1.5" width="1344" height="230" rx="48.5" fill="#FF8F3E" stroke="black" stroke-width="3"/>
<rect x="98.5" y="125.5" width="1150" height="82" rx="23.5" fill="#FF8F3E" stroke="black" stroke-width="3"/>
<path d="M397.253 67.448C394.187 67.448 391.672 66.5587 389.709 64.78C387.808 63.0013 386.857 60.548 386.857 57.42C386.857 54.3533 387.716 51.9 389.433 50.06C391.212 48.1587 393.819 47.208 397.253 47.208H436.905C440.34 47.208 442.916 48.1587 444.633 50.06C446.412 51.9 447.301 54.3533 447.301 57.42C447.301 60.548 446.32 63.0013 444.357 64.78C442.456 66.5587 439.972 67.448 436.905 67.448C434.82 67.448 433.133 67.2333 431.845 66.804C430.619 66.3133 429.607 65.7613 428.809 65.148C428.012 64.4733 427.245 63.9213 426.509 63.492C425.773 63.0013 424.853 62.756 423.749 62.756L422.921 64.412C423.167 64.964 423.596 65.7613 424.209 66.804C424.823 67.7853 425.405 69.2267 425.957 71.128C426.509 72.968 426.785 75.4827 426.785 78.672V105.26C426.785 107.775 425.835 109.86 423.933 111.516C422.093 113.172 419.824 114 417.125 114C414.365 114 412.035 113.172 410.133 111.516C408.293 109.86 407.373 107.775 407.373 105.26V78.672C407.373 75.4827 407.649 72.968 408.201 71.128C408.753 69.2267 409.336 67.7853 409.949 66.804C410.624 65.7613 411.084 64.964 411.329 64.412L410.409 62.756C409.305 62.756 408.385 63.0013 407.649 63.492C406.913 63.9213 406.147 64.4733 405.349 65.148C404.552 65.7613 403.54 66.3133 402.313 66.804C401.087 67.2333 399.4 67.448 397.253 67.448ZM476.189 114.276C469.627 114.276 464.076 112.835 459.537 109.952C454.999 107.069 451.564 103.083 449.233 97.992C446.903 92.9013 445.737 87.044 445.737 80.42C445.737 73.8573 446.903 68.0307 449.233 62.94C451.564 57.788 454.999 53.7707 459.537 50.888C464.076 47.944 469.627 46.472 476.189 46.472C482.752 46.472 488.272 47.944 492.749 50.888C497.288 53.7707 500.723 57.788 503.053 62.94C505.384 68.0307 506.549 73.8573 506.549 80.42C506.549 87.044 505.384 92.9013 503.053 97.992C500.723 103.083 497.288 107.069 492.749 109.952C488.272 112.835 482.752 114.276 476.189 114.276ZM457.329 78.948C457.329 80.8493 457.789 82.6587 458.709 84.376C459.629 86.032 461.439 87.3813 464.137 88.424C466.836 89.4053 470.853 89.896 476.189 89.896C481.525 89.896 485.512 89.4053 488.149 88.424C490.848 87.3813 492.657 86.032 493.577 84.376C494.497 82.6587 494.957 80.8493 494.957 78.948C494.957 76.9853 494.497 75.2373 493.577 73.704C492.657 72.1093 490.848 70.852 488.149 69.932C485.512 68.9507 481.525 68.46 476.189 68.46C470.853 68.46 466.836 68.9507 464.137 69.932C461.439 70.852 459.629 72.1093 458.709 73.704C457.789 75.2373 457.329 76.9853 457.329 78.948ZM531.855 72.508L545.655 53.004C548.108 49.508 550.776 47.5453 553.659 47.116C556.541 46.6253 559.148 47.3 561.479 49.14C563.012 50.3053 564.024 51.8693 564.515 53.832C565.005 55.7947 564.852 57.88 564.055 60.088C563.257 62.296 561.663 64.3813 559.271 66.344L543.907 78.764V80.696C545.869 80.696 548.169 80.9413 550.807 81.432C553.444 81.9227 555.836 83.0267 557.983 84.744C559.7 86.032 561.172 87.504 562.399 89.16C563.687 90.816 564.699 92.8707 565.435 95.324C566.171 97.716 566.539 100.752 566.539 104.432C566.539 107.437 565.711 109.86 564.055 111.7C562.46 113.479 560.068 114.368 556.879 114.368C553.689 114.368 551.236 113.479 549.519 111.7C547.863 109.86 547.035 107.437 547.035 104.432C547.035 101.059 546.483 98.3907 545.379 96.428C544.336 94.404 542.925 92.932 541.147 92.012C539.368 91.092 537.436 90.632 535.351 90.632H530.843V105.076C530.843 107.713 529.923 109.891 528.083 111.608C526.304 113.325 524.004 114.184 521.183 114.184C518.361 114.184 516.031 113.325 514.191 111.608C512.412 109.891 511.523 107.713 511.523 105.076V56.408C511.523 53.7093 512.412 51.44 514.191 49.6C515.969 47.76 518.3 46.84 521.183 46.84C524.249 46.84 526.611 47.76 528.267 49.6C529.984 51.3787 530.843 53.5867 530.843 56.224V72.324L531.855 72.508ZM593.175 113.816C590.17 113.816 587.287 113.54 584.527 112.988C581.829 112.436 579.437 111.393 577.351 109.86C575.327 108.265 573.702 105.996 572.475 103.052C571.31 100.047 570.727 96.1213 570.727 91.276C570.727 86.9213 571.31 83.18 572.475 80.052C573.641 76.924 575.021 74.44 576.615 72.6C578.271 70.76 579.774 69.6253 581.123 69.196L580.663 67.448H579.099C576.278 67.448 574.039 66.5587 572.383 64.78C570.789 62.94 569.961 60.456 569.899 57.328C569.838 54.2613 570.635 51.808 572.291 49.968C574.009 48.128 576.278 47.208 579.099 47.208H612.127C618.69 47.208 621.971 50.2747 621.971 56.408C621.971 59.168 621.174 61.376 619.579 63.032C617.985 64.688 615.501 65.516 612.127 65.516H593.083C590.814 65.516 589.679 66.8347 589.679 69.472V76.372C592.746 75.6973 595.935 74.9 599.247 73.98C602.621 73.06 605.81 72.6 608.815 72.6C611.698 72.6 613.845 73.244 615.255 74.532C616.727 75.7587 617.463 77.4453 617.463 79.592C617.463 81.8 616.727 83.548 615.255 84.836C613.845 86.0627 611.698 86.7067 608.815 86.768C605.81 86.8293 602.621 86.4 599.247 85.48C595.874 84.56 592.654 83.7627 589.587 83.088V95.14C589.587 96.3053 589.894 97.1333 590.507 97.624C591.182 98.0533 592.225 97.8693 593.635 97.072C596.702 95.2933 599.707 93.8827 602.651 92.84C605.595 91.736 608.478 91.184 611.299 91.184C615.286 91.184 618.291 92.2267 620.315 94.312C622.401 96.3973 623.443 99.1267 623.443 102.5C623.443 106.119 622.339 108.909 620.131 110.872C617.985 112.835 614.489 113.816 609.643 113.816H593.175ZM636.623 114C633.556 114 631.226 113.049 629.631 111.148C628.036 109.247 627.239 106.701 627.239 103.512V60.364C627.239 57.1747 627.822 54.5987 628.987 52.636C630.214 50.612 631.778 49.14 633.679 48.22C635.642 47.3 637.758 46.84 640.027 46.84C643.4 46.84 646.252 47.7293 648.583 49.508C650.914 51.2867 652.723 54.4147 654.011 58.892L663.947 92.84H665.419V57.512C665.419 54.2613 666.247 51.716 667.903 49.876C669.559 47.9747 671.92 47.024 674.987 47.024C678.176 47.024 680.538 47.9747 682.071 49.876C683.666 51.716 684.463 54.2613 684.463 57.512V99.096C684.463 104.248 683.328 108.051 681.059 110.504C678.79 112.957 675.6 114.184 671.491 114.184C667.32 114.184 664.07 113.08 661.739 110.872C659.408 108.664 657.63 105.413 656.403 101.12L649.871 78.764C649.748 78.1507 649.503 77.5987 649.135 77.108C648.828 76.556 648.399 76.28 647.847 76.28C647.172 76.28 646.712 76.556 646.467 77.108C646.222 77.5987 646.099 78.1507 646.099 78.764V103.512C646.099 106.701 645.302 109.247 643.707 111.148C642.112 113.049 639.751 114 636.623 114ZM716.225 114C713.158 114 710.827 113.049 709.233 111.148C707.638 109.247 706.841 106.701 706.841 103.512V60.364C706.841 57.1747 707.423 54.5987 708.589 52.636C709.815 50.612 711.379 49.14 713.281 48.22C715.243 47.3 717.359 46.84 719.629 46.84C723.002 46.84 725.854 47.7293 728.185 49.508C730.515 51.2867 732.325 54.4147 733.613 58.892L743.549 92.84H745.021V57.512C745.021 54.2613 745.849 51.716 747.505 49.876C749.161 47.9747 751.522 47.024 754.589 47.024C757.778 47.024 760.139 47.9747 761.673 49.876C763.267 51.716 764.065 54.2613 764.065 57.512V99.096C764.065 104.248 762.93 108.051 760.661 110.504C758.391 112.957 755.202 114.184 751.093 114.184C746.922 114.184 743.671 113.08 741.341 110.872C739.01 108.664 737.231 105.413 736.005 101.12L729.473 78.764C729.35 78.1507 729.105 77.5987 728.737 77.108C728.43 76.556 728.001 76.28 727.449 76.28C726.774 76.28 726.314 76.556 726.069 77.108C725.823 77.5987 725.701 78.1507 725.701 78.764V103.512C725.701 106.701 724.903 109.247 723.309 111.148C721.714 113.049 719.353 114 716.225 114ZM777.363 114C773.254 113.387 770.586 111.516 769.359 108.388C768.132 105.199 768.378 101.181 770.095 96.336L782.239 61.836C783.343 58.6467 784.6 55.9173 786.011 53.648C787.483 51.3787 789.292 49.6307 791.439 48.404C793.647 47.1773 796.376 46.564 799.627 46.564C804.534 46.564 808.214 47.9133 810.667 50.612C813.182 53.3107 815.267 57.052 816.923 61.836L828.975 96.336C830.692 101.181 830.999 105.199 829.895 108.388C828.852 111.516 826.246 113.387 822.075 114C818.702 114.429 815.758 114.031 813.243 112.804C810.79 111.577 809.318 109.584 808.827 106.824C808.459 104.984 808.398 103.451 808.643 102.224C808.95 100.997 809.226 100.016 809.471 99.28C809.655 98.6667 809.655 98.084 809.471 97.532C809.348 96.9187 808.888 96.612 808.091 96.612H790.979C790.182 96.612 789.691 96.9187 789.507 97.532C789.384 98.084 789.446 98.6667 789.691 99.28C789.936 100.016 790.182 100.997 790.427 102.224C790.672 103.451 790.642 104.984 790.335 106.824C789.844 109.584 788.403 111.577 786.011 112.804C783.619 114.031 780.736 114.429 777.363 114ZM806.343 83.732L801.559 68.736C801.436 68.1227 801.222 67.6627 800.915 67.356C800.67 66.988 800.24 66.804 799.627 66.804C799.014 66.804 798.554 66.988 798.247 67.356C798.002 67.6627 797.787 68.1227 797.603 68.736L792.911 83.732H806.343ZM844.522 114C841.332 114 838.971 113.049 837.438 111.148C835.904 109.247 835.138 106.701 835.138 103.512V60.64C835.138 55.9787 836.395 52.544 838.91 50.336C841.486 48.128 844.552 47.024 848.11 47.024C851.483 47.024 854.335 48.128 856.666 50.336C859.058 52.544 860.806 56.04 861.91 60.824L869.086 92.012H871.478L878.654 60.824C879.758 56.04 881.506 52.544 883.898 50.336C886.351 48.128 889.264 47.024 892.638 47.024C896.195 47.024 899.231 48.128 901.746 50.336C904.322 52.544 905.61 55.9787 905.61 60.64V103.512C905.61 106.701 904.812 109.247 903.218 111.148C901.684 113.049 899.323 114 896.134 114C893.067 114 890.706 113.049 889.05 111.148C887.394 109.247 886.566 106.701 886.566 103.512V78.764C886.566 78.1507 886.474 77.5987 886.29 77.108C886.167 76.556 885.768 76.28 885.094 76.28C884.542 76.28 884.143 76.556 883.898 77.108C883.652 77.5987 883.468 78.1507 883.346 78.764L879.85 101.948C879.42 104.463 878.899 106.64 878.286 108.48C877.734 110.259 876.844 111.639 875.618 112.62C874.391 113.54 872.612 114 870.282 114C868.012 114 866.234 113.54 864.946 112.62C863.719 111.639 862.799 110.259 862.186 108.48C861.634 106.64 861.174 104.463 860.806 101.948L857.218 78.764C857.156 78.1507 857.003 77.5987 856.758 77.108C856.512 76.556 856.083 76.28 855.47 76.28C854.856 76.28 854.458 76.556 854.274 77.108C854.09 77.5987 853.998 78.1507 853.998 78.764V103.512C853.998 106.701 853.17 109.247 851.514 111.148C849.919 113.049 847.588 114 844.522 114ZM933.953 113.816C930.947 113.816 928.065 113.54 925.305 112.988C922.606 112.436 920.214 111.393 918.129 109.86C916.105 108.265 914.479 105.996 913.253 103.052C912.087 100.047 911.505 96.1213 911.505 91.276C911.505 86.9213 912.087 83.18 913.253 80.052C914.418 76.924 915.798 74.44 917.393 72.6C919.049 70.76 920.551 69.6253 921.901 69.196L921.441 67.448H919.877C917.055 67.448 914.817 66.5587 913.161 64.78C911.566 62.94 910.738 60.456 910.677 57.328C910.615 54.2613 911.413 51.808 913.069 49.968C914.786 48.128 917.055 47.208 919.877 47.208H952.905C959.467 47.208 962.749 50.2747 962.749 56.408C962.749 59.168 961.951 61.376 960.357 63.032C958.762 64.688 956.278 65.516 952.905 65.516H933.861C931.591 65.516 930.457 66.8347 930.457 69.472V76.372C933.523 75.6973 936.713 74.9 940.025 73.98C943.398 73.06 946.587 72.6 949.593 72.6C952.475 72.6 954.622 73.244 956.033 74.532C957.505 75.7587 958.241 77.4453 958.241 79.592C958.241 81.8 957.505 83.548 956.033 84.836C954.622 86.0627 952.475 86.7067 949.593 86.768C946.587 86.8293 943.398 86.4 940.025 85.48C936.651 84.56 933.431 83.7627 930.365 83.088V95.14C930.365 96.3053 930.671 97.1333 931.285 97.624C931.959 98.0533 933.002 97.8693 934.413 97.072C937.479 95.2933 940.485 93.8827 943.429 92.84C946.373 91.736 949.255 91.184 952.077 91.184C956.063 91.184 959.069 92.2267 961.093 94.312C963.178 96.3973 964.221 99.1267 964.221 102.5C964.221 106.119 963.117 108.909 960.909 110.872C958.762 112.835 955.266 113.816 950.421 113.816H933.953Z" fill="black"/>
<path d="M615.608 175.08C615.608 173.72 616.034 172.627 616.888 171.8C617.768 170.947 618.794 170.533 619.968 170.56C620.848 170.587 621.688 170.787 622.488 171.16C623.314 171.507 624.168 171.853 625.048 172.2C625.928 172.547 626.928 172.72 628.048 172.72C629.088 172.72 629.754 172.573 630.048 172.28C630.368 171.96 630.528 171.6 630.528 171.2C630.528 170.693 630.301 170.307 629.848 170.04C629.421 169.747 628.821 169.507 628.048 169.32L626.208 168.88C624.341 168.427 622.648 167.947 621.128 167.44C619.608 166.907 618.408 166.187 617.528 165.28C616.648 164.373 616.208 163.147 616.208 161.6C616.208 160.133 616.568 158.92 617.288 157.96C618.008 156.973 618.994 156.2 620.248 155.64C621.501 155.08 622.914 154.707 624.488 154.52C624.381 154.307 624.314 154.067 624.288 153.8C624.261 153.533 624.248 153.253 624.248 152.96C624.248 152.027 624.514 151.347 625.048 150.92C625.608 150.467 626.274 150.24 627.048 150.24C627.821 150.24 628.461 150.467 628.968 150.92C629.501 151.347 629.768 152.027 629.768 152.96C629.768 153.547 629.688 154.067 629.528 154.52C631.634 154.787 633.381 155.387 634.768 156.32C636.181 157.227 636.888 158.387 636.888 159.8C636.888 161.027 636.554 161.973 635.888 162.64C635.248 163.307 634.381 163.64 633.288 163.64C632.568 163.64 631.861 163.533 631.168 163.32C630.474 163.08 629.741 162.84 628.968 162.6C628.221 162.36 627.354 162.24 626.368 162.24C625.408 162.24 624.714 162.36 624.288 162.6C623.888 162.813 623.688 163.147 623.688 163.6C623.688 164.133 623.954 164.56 624.488 164.88C625.048 165.173 626.021 165.493 627.408 165.84L629.448 166.32C631.154 166.747 632.648 167.24 633.928 167.8C635.208 168.333 636.194 169.067 636.888 170C637.608 170.907 637.968 172.133 637.968 173.68C637.968 176.16 637.194 178.027 635.648 179.28C634.128 180.507 632.074 181.24 629.488 181.48C629.674 181.933 629.768 182.493 629.768 183.16C629.768 184.067 629.501 184.747 628.968 185.2C628.461 185.653 627.821 185.88 627.048 185.88C626.274 185.88 625.608 185.653 625.048 185.2C624.514 184.747 624.248 184.067 624.248 183.16C624.248 182.787 624.274 182.453 624.328 182.16C624.381 181.867 624.461 181.6 624.568 181.36C623.021 181.147 621.568 180.773 620.208 180.24C618.848 179.68 617.741 178.973 616.888 178.12C616.034 177.24 615.608 176.227 615.608 175.08ZM644.435 162.76C643.101 162.76 642.008 162.373 641.155 161.6C640.328 160.827 639.915 159.76 639.915 158.4C639.915 157.067 640.288 156 641.035 155.2C641.808 154.373 642.941 153.96 644.435 153.96H661.675C663.168 153.96 664.288 154.373 665.035 155.2C665.808 156 666.195 157.067 666.195 158.4C666.195 159.76 665.768 160.827 664.915 161.6C664.088 162.373 663.008 162.76 661.675 162.76C660.768 162.76 660.035 162.667 659.475 162.48C658.941 162.267 658.501 162.027 658.155 161.76C657.808 161.467 657.475 161.227 657.155 161.04C656.835 160.827 656.435 160.72 655.955 160.72L655.595 161.44C655.701 161.68 655.888 162.027 656.155 162.48C656.421 162.907 656.675 163.533 656.915 164.36C657.155 165.16 657.275 166.253 657.275 167.64V179.2C657.275 180.293 656.861 181.2 656.035 181.92C655.235 182.64 654.248 183 653.075 183C651.875 183 650.861 182.64 650.035 181.92C649.235 181.2 648.835 180.293 648.835 179.2V167.64C648.835 166.253 648.955 165.16 649.195 164.36C649.435 163.533 649.688 162.907 649.955 162.48C650.248 162.027 650.448 161.68 650.555 161.44L650.155 160.72C649.675 160.72 649.275 160.827 648.955 161.04C648.635 161.227 648.301 161.467 647.955 161.76C647.608 162.027 647.168 162.267 646.635 162.48C646.101 162.667 645.368 162.76 644.435 162.76ZM671.596 183.08C670.37 183.08 669.37 182.707 668.596 181.96C667.823 181.213 667.436 180.267 667.436 179.12V157.96C667.436 156.787 667.81 155.8 668.556 155C669.33 154.2 670.343 153.8 671.596 153.8C672.93 153.8 673.97 154.2 674.716 155C675.49 155.773 675.876 156.733 675.876 157.88V179.12C675.876 180.267 675.463 181.213 674.636 181.96C673.836 182.707 672.823 183.08 671.596 183.08ZM682.922 183C681.589 183 680.576 182.587 679.882 181.76C679.189 180.933 678.842 179.827 678.842 178.44V159.68C678.842 158.293 679.096 157.173 679.602 156.32C680.136 155.44 680.816 154.8 681.642 154.4C682.496 154 683.416 153.8 684.402 153.8C685.869 153.8 687.109 154.187 688.122 154.96C689.136 155.733 689.922 157.093 690.482 159.04L694.802 173.8H695.442V158.44C695.442 157.027 695.802 155.92 696.522 155.12C697.242 154.293 698.269 153.88 699.602 153.88C700.989 153.88 702.016 154.293 702.682 155.12C703.376 155.92 703.722 157.027 703.722 158.44V176.52C703.722 178.76 703.229 180.413 702.242 181.48C701.256 182.547 699.869 183.08 698.082 183.08C696.269 183.08 694.856 182.6 693.842 181.64C692.829 180.68 692.056 179.267 691.522 177.4L688.682 167.68C688.629 167.413 688.522 167.173 688.362 166.96C688.229 166.72 688.042 166.6 687.802 166.6C687.509 166.6 687.309 166.72 687.202 166.96C687.096 167.173 687.042 167.413 687.042 167.68V178.44C687.042 179.827 686.696 180.933 686.002 181.76C685.309 182.587 684.282 183 682.922 183ZM706.624 161.6C705.851 159.947 705.678 158.467 706.104 157.16C706.531 155.827 707.344 154.893 708.544 154.36C709.771 153.827 711.011 153.827 712.264 154.36C713.544 154.867 714.478 155.947 715.064 157.6C715.358 158.427 715.571 159.387 715.704 160.48C715.838 161.547 715.984 162.587 716.144 163.6C716.331 164.587 716.624 165.413 717.024 166.08C717.451 166.72 718.104 167.04 718.984 167.04C719.864 167.04 720.518 166.72 720.944 166.08C721.371 165.413 721.664 164.587 721.824 163.6C722.011 162.587 722.158 161.547 722.264 160.48C722.398 159.387 722.611 158.427 722.904 157.6C723.518 155.947 724.451 154.867 725.704 154.36C726.958 153.827 728.198 153.827 729.424 154.36C730.624 154.893 731.438 155.827 731.864 157.16C732.291 158.467 732.118 159.947 731.344 161.6C730.944 162.453 730.411 163.267 729.744 164.04C729.104 164.787 728.398 165.56 727.624 166.36C726.851 167.16 726.078 168.053 725.304 169.04C724.531 170 723.824 171.107 723.184 172.36V179.2C723.184 180.293 722.784 181.2 721.984 181.92C721.184 182.64 720.184 183 718.984 183C717.811 183 716.811 182.64 715.984 181.92C715.184 181.2 714.784 180.293 714.784 179.2V172.36C714.171 171.107 713.478 170 712.704 169.04C711.931 168.053 711.158 167.16 710.384 166.36C709.611 165.56 708.891 164.787 708.224 164.04C707.558 163.267 707.024 162.453 706.624 161.6Z" fill="black"/>
</svg>
