<svg width="204" height="32" viewBox="0 0 204 32" fill="none" xmlns="http://www.w3.org/2000/svg">
<path d="M6.908 26.066C6.01333 26.066 5.30933 25.846 4.796 25.406C4.28267 24.966 3.872 24.3647 3.564 23.602C3.27067 22.8247 2.992 21.9447 2.728 20.962L0.594 13.042C0.432667 12.426 0.469333 11.854 0.704 11.326C0.938667 10.7833 1.40067 10.424 2.09 10.248C2.73533 10.072 3.30733 10.116 3.806 10.38C4.30467 10.644 4.642 11.106 4.818 11.766L6.798 19.004C6.974 19.6347 7.15733 20.0967 7.348 20.39C7.55333 20.6833 7.876 20.7787 8.316 20.676C8.72667 20.5733 8.94667 20.346 8.976 19.994C9.00533 19.642 8.932 19.1433 8.756 18.498L7.348 13.152C7.15733 12.4187 7.17933 11.788 7.414 11.26C7.66333 10.7173 8.14733 10.3653 8.866 10.204C9.59933 10.028 10.186 10.1233 10.626 10.49C11.0807 10.842 11.3887 11.3407 11.55 11.986L13.332 19.004C13.5227 19.7227 13.728 20.2067 13.948 20.456C14.1827 20.7053 14.4833 20.7787 14.85 20.676C15.2607 20.5587 15.4587 20.3313 15.444 19.994C15.4293 19.642 15.378 19.136 15.29 18.476C15.158 17.4493 15.0407 16.606 14.938 15.946C14.85 15.286 14.7767 14.736 14.718 14.296C14.674 13.856 14.652 13.4527 14.652 13.086C14.652 12.2647 14.894 11.568 15.378 10.996C15.862 10.4093 16.522 10.116 17.358 10.116C18.2087 10.116 18.854 10.38 19.294 10.908C19.734 11.4213 19.954 12.1327 19.954 13.042C19.954 13.6287 19.866 14.2447 19.69 14.89C19.5287 15.5353 19.3673 16.144 19.206 16.716L17.974 20.962C17.6953 21.93 17.4167 22.8027 17.138 23.58C16.874 24.3427 16.5147 24.9513 16.06 25.406C15.6053 25.846 14.96 26.066 14.124 26.066C13.112 26.066 12.32 25.7507 11.748 25.12C11.176 24.4893 10.736 23.4553 10.428 22.018H10.274C9.98067 23.4553 9.592 24.4893 9.108 25.12C8.624 25.7507 7.89067 26.066 6.908 26.066ZM26.5251 25.956C25.8065 25.956 25.1171 25.89 24.4571 25.758C23.8118 25.626 23.2398 25.3767 22.7411 25.01C22.2571 24.6287 21.8685 24.086 21.5751 23.382C21.2965 22.6633 21.1571 21.7247 21.1571 20.566C21.1571 19.5247 21.2965 18.63 21.5751 17.882C21.8538 17.134 22.1838 16.54 22.5651 16.1C22.9611 15.66 23.3205 15.3887 23.6431 15.286L23.5331 14.868H23.1591C22.4845 14.868 21.9491 14.6553 21.5531 14.23C21.1718 13.79 20.9738 13.196 20.9591 12.448C20.9445 11.7147 21.1351 11.128 21.5311 10.688C21.9418 10.248 22.4845 10.028 23.1591 10.028H31.0571C32.6265 10.028 33.4111 10.7613 33.4111 12.228C33.4111 12.888 33.2205 13.416 32.8391 13.812C32.4578 14.208 31.8638 14.406 31.0571 14.406H26.5031C25.9605 14.406 25.6891 14.7213 25.6891 15.352V17.002C26.4225 16.8407 27.1851 16.65 27.9771 16.43C28.7838 16.21 29.5465 16.1 30.2651 16.1C30.9545 16.1 31.4678 16.254 31.8051 16.562C32.1571 16.8553 32.3331 17.2587 32.3331 17.772C32.3331 18.3 32.1571 18.718 31.8051 19.026C31.4678 19.3193 30.9545 19.4733 30.2651 19.488C29.5465 19.5027 28.7838 19.4 27.9771 19.18C27.1705 18.96 26.4005 18.7693 25.6671 18.608V21.49C25.6671 21.7687 25.7405 21.9667 25.8871 22.084C26.0485 22.1867 26.2978 22.1427 26.6351 21.952C27.3685 21.5267 28.0871 21.1893 28.7911 20.94C29.4951 20.676 30.1845 20.544 30.8591 20.544C31.8125 20.544 32.5311 20.7933 33.0151 21.292C33.5138 21.7907 33.7631 22.4433 33.7631 23.25C33.7631 24.1153 33.4991 24.7827 32.9711 25.252C32.4578 25.7213 31.6218 25.956 30.4631 25.956H26.5251ZM39.4228 25.978C38.7481 25.9487 38.1175 25.8533 37.5308 25.692C36.9588 25.5307 36.4528 25.2593 36.0128 24.878C35.5728 24.482 35.2281 23.9393 34.9788 23.25C34.7441 22.5607 34.6268 21.6807 34.6268 20.61C34.6268 19.5687 34.7661 18.6667 35.0448 17.904C35.3381 17.1413 35.6828 16.5327 36.0788 16.078C36.4748 15.6233 36.8341 15.3447 37.1568 15.242L37.0468 14.824H36.6728C35.9981 14.824 35.4628 14.6113 35.0668 14.186C34.6855 13.746 34.4875 13.1593 34.4728 12.426C34.4581 11.6927 34.6488 11.106 35.0448 10.666C35.4555 10.2113 35.9981 9.984 36.6728 9.984H42.7228C44.3068 9.984 45.4508 10.3653 46.1548 11.128C46.8588 11.876 47.2108 12.8513 47.2108 14.054C47.2108 15.022 46.9835 15.8287 46.5288 16.474C46.0888 17.1193 45.4215 17.508 44.5268 17.64V17.97C45.4948 18.014 46.2795 18.3513 46.8808 18.982C47.4968 19.598 47.8048 20.5147 47.8048 21.732C47.8048 23.052 47.4235 24.1007 46.6608 24.878C45.8981 25.6407 44.6441 26.0147 42.8988 26L39.4228 25.978ZM38.8288 16.1C38.8288 16.4227 38.8875 16.6353 39.0048 16.738C39.1221 16.8407 39.3421 16.892 39.6648 16.892H41.6888C42.2461 16.892 42.6715 16.8113 42.9648 16.65C43.2581 16.474 43.4048 16.1367 43.4048 15.638C43.4048 15.1247 43.2581 14.7873 42.9648 14.626C42.6715 14.4647 42.2461 14.384 41.6888 14.384H39.6648C39.3421 14.384 39.1221 14.428 39.0048 14.516C38.8875 14.604 38.8288 14.8167 38.8288 15.154V16.1ZM38.8288 20.522C38.8288 20.8447 38.8875 21.0647 39.0048 21.182C39.1368 21.2993 39.3715 21.358 39.7088 21.358H41.9748C42.5468 21.358 42.9868 21.2553 43.2948 21.05C43.6028 20.8447 43.7568 20.478 43.7568 19.95C43.7568 19.422 43.6028 19.0627 43.2948 18.872C42.9868 18.6667 42.5468 18.564 41.9748 18.564H39.7088C39.3715 18.564 39.1368 18.6153 39.0048 18.718C38.8875 18.8207 38.8288 19.0333 38.8288 19.356V20.522ZM55.605 26.066C54.7837 26.066 53.955 25.9853 53.119 25.824C52.2977 25.648 51.535 25.3987 50.831 25.076C50.1417 24.7387 49.5843 24.3353 49.159 23.866C48.7337 23.382 48.521 22.8247 48.521 22.194C48.521 21.3873 48.7777 20.742 49.291 20.258C49.8043 19.774 50.4057 19.5467 51.095 19.576C51.6377 19.5907 52.1803 19.708 52.723 19.928C53.2657 20.1333 53.8157 20.3387 54.373 20.544C54.945 20.7493 55.517 20.852 56.089 20.852C56.661 20.852 57.057 20.7787 57.277 20.632C57.497 20.4853 57.607 20.2873 57.607 20.038C57.607 19.7447 57.453 19.5027 57.145 19.312C56.837 19.1213 56.4483 18.9747 55.979 18.872L54.901 18.608C53.7863 18.344 52.789 18.0507 51.909 17.728C51.029 17.3907 50.3323 16.9507 49.819 16.408C49.3203 15.8507 49.071 15.11 49.071 14.186C49.071 13.174 49.3497 12.3527 49.907 11.722C50.4643 11.0767 51.2197 10.6073 52.173 10.314C53.1263 10.0207 54.1897 9.874 55.363 9.874C56.5657 9.874 57.6217 9.99867 58.531 10.248C59.4403 10.4973 60.1443 10.8567 60.643 11.326C61.1563 11.7953 61.413 12.3673 61.413 13.042C61.413 13.7607 61.215 14.3253 60.819 14.736C60.4377 15.132 59.9243 15.33 59.279 15.33C58.8537 15.33 58.4063 15.2567 57.937 15.11C57.4823 14.9633 56.9983 14.824 56.485 14.692C55.9863 14.5453 55.451 14.472 54.879 14.472C54.3657 14.472 53.977 14.5527 53.713 14.714C53.449 14.8607 53.317 15.0587 53.317 15.308C53.317 15.616 53.493 15.8433 53.845 15.99C54.197 16.1367 54.7763 16.3127 55.583 16.518L56.815 16.804C57.827 17.0533 58.7143 17.354 59.477 17.706C60.2397 18.058 60.8337 18.52 61.259 19.092C61.6843 19.664 61.897 20.412 61.897 21.336C61.897 22.4507 61.633 23.36 61.105 24.064C60.577 24.7533 59.8437 25.2593 58.905 25.582C57.9663 25.9047 56.8663 26.066 55.605 26.066ZM65.2752 26.044C64.6005 26.044 64.0505 25.8387 63.6252 25.428C63.1999 25.0173 62.9872 24.4967 62.9872 23.866V12.228C62.9872 11.5827 63.1925 11.04 63.6032 10.6C64.0285 10.16 64.5859 9.94 65.2752 9.94C66.0085 9.94 66.5805 10.16 66.9912 10.6C67.4165 11.0253 67.6292 11.5533 67.6292 12.184V23.866C67.6292 24.4967 67.4019 25.0173 66.9472 25.428C66.5072 25.8387 65.9499 26.044 65.2752 26.044ZM71.0258 14.868C70.2925 14.868 69.6911 14.6553 69.2218 14.23C68.7671 13.8047 68.5398 13.218 68.5398 12.47C68.5398 11.7367 68.7451 11.15 69.1558 10.71C69.5811 10.2553 70.2045 10.028 71.0258 10.028H80.5078C81.3291 10.028 81.9451 10.2553 82.3558 10.71C82.7811 11.15 82.9938 11.7367 82.9938 12.47C82.9938 13.218 82.7591 13.8047 82.2898 14.23C81.8351 14.6553 81.2411 14.868 80.5078 14.868C80.0091 14.868 79.6058 14.8167 79.2978 14.714C79.0045 14.5967 78.7625 14.4647 78.5718 14.318C78.3811 14.1567 78.1978 14.0247 78.0218 13.922C77.8458 13.8047 77.6258 13.746 77.3618 13.746L77.1638 14.142C77.2225 14.274 77.3251 14.4647 77.4718 14.714C77.6185 14.9487 77.7578 15.2933 77.8898 15.748C78.0218 16.188 78.0878 16.7893 78.0878 17.552V23.91C78.0878 24.5113 77.8605 25.01 77.4058 25.406C76.9658 25.802 76.4231 26 75.7778 26C75.1178 26 74.5605 25.802 74.1058 25.406C73.6658 25.01 73.4458 24.5113 73.4458 23.91V17.552C73.4458 16.7893 73.5118 16.188 73.6438 15.748C73.7758 15.2933 73.9151 14.9487 74.0618 14.714C74.2231 14.4647 74.3331 14.274 74.3918 14.142L74.1718 13.746C73.9078 13.746 73.6878 13.8047 73.5118 13.922C73.3358 14.0247 73.1525 14.1567 72.9618 14.318C72.7711 14.4647 72.5291 14.5967 72.2358 14.714C71.9425 14.8167 71.5391 14.868 71.0258 14.868ZM89.2595 25.956C88.5408 25.956 87.8515 25.89 87.1915 25.758C86.5462 25.626 85.9742 25.3767 85.4755 25.01C84.9915 24.6287 84.6028 24.086 84.3095 23.382C84.0308 22.6633 83.8915 21.7247 83.8915 20.566C83.8915 19.5247 84.0308 18.63 84.3095 17.882C84.5882 17.134 84.9182 16.54 85.2995 16.1C85.6955 15.66 86.0548 15.3887 86.3775 15.286L86.2675 14.868H85.8935C85.2188 14.868 84.6835 14.6553 84.2875 14.23C83.9062 13.79 83.7082 13.196 83.6935 12.448C83.6788 11.7147 83.8695 11.128 84.2655 10.688C84.6762 10.248 85.2188 10.028 85.8935 10.028H93.7915C95.3608 10.028 96.1455 10.7613 96.1455 12.228C96.1455 12.888 95.9548 13.416 95.5735 13.812C95.1922 14.208 94.5982 14.406 93.7915 14.406H89.2375C88.6948 14.406 88.4235 14.7213 88.4235 15.352V17.002C89.1568 16.8407 89.9195 16.65 90.7115 16.43C91.5182 16.21 92.2808 16.1 92.9995 16.1C93.6888 16.1 94.2022 16.254 94.5395 16.562C94.8915 16.8553 95.0675 17.2587 95.0675 17.772C95.0675 18.3 94.8915 18.718 94.5395 19.026C94.2022 19.3193 93.6888 19.4733 92.9995 19.488C92.2808 19.5027 91.5182 19.4 90.7115 19.18C89.9048 18.96 89.1348 18.7693 88.4015 18.608V21.49C88.4015 21.7687 88.4748 21.9667 88.6215 22.084C88.7828 22.1867 89.0322 22.1427 89.3695 21.952C90.1028 21.5267 90.8215 21.1893 91.5255 20.94C92.2295 20.676 92.9188 20.544 93.5935 20.544C94.5468 20.544 95.2655 20.7933 95.7495 21.292C96.2482 21.7907 96.4975 22.4433 96.4975 23.25C96.4975 24.1153 96.2335 24.7827 95.7055 25.252C95.1922 25.7213 94.3562 25.956 93.1975 25.956H89.2595ZM106.11 25.978C105.436 25.9487 104.805 25.8533 104.218 25.692C103.646 25.5307 103.14 25.2593 102.7 24.878C102.26 24.482 101.916 23.9393 101.666 23.25C101.432 22.5607 101.314 21.6807 101.314 20.61C101.314 19.5687 101.454 18.6667 101.732 17.904C102.026 17.1413 102.37 16.5327 102.766 16.078C103.162 15.6233 103.522 15.3447 103.844 15.242L103.734 14.824H103.36C102.686 14.824 102.15 14.6113 101.754 14.186C101.373 13.746 101.175 13.1593 101.16 12.426C101.146 11.6927 101.336 11.106 101.732 10.666C102.143 10.2113 102.686 9.984 103.36 9.984H109.41C110.994 9.984 112.138 10.3653 112.842 11.128C113.546 11.876 113.898 12.8513 113.898 14.054C113.898 15.022 113.671 15.8287 113.216 16.474C112.776 17.1193 112.109 17.508 111.214 17.64V17.97C112.182 18.014 112.967 18.3513 113.568 18.982C114.184 19.598 114.492 20.5147 114.492 21.732C114.492 23.052 114.111 24.1007 113.348 24.878C112.586 25.6407 111.332 26.0147 109.586 26L106.11 25.978ZM105.516 16.1C105.516 16.4227 105.575 16.6353 105.692 16.738C105.81 16.8407 106.03 16.892 106.352 16.892H108.376C108.934 16.892 109.359 16.8113 109.652 16.65C109.946 16.474 110.092 16.1367 110.092 15.638C110.092 15.1247 109.946 14.7873 109.652 14.626C109.359 14.4647 108.934 14.384 108.376 14.384H106.352C106.03 14.384 105.81 14.428 105.692 14.516C105.575 14.604 105.516 14.8167 105.516 15.154V16.1ZM105.516 20.522C105.516 20.8447 105.575 21.0647 105.692 21.182C105.824 21.2993 106.059 21.358 106.396 21.358H108.662C109.234 21.358 109.674 21.2553 109.982 21.05C110.29 20.8447 110.444 20.478 110.444 19.95C110.444 19.422 110.29 19.0627 109.982 18.872C109.674 18.6667 109.234 18.564 108.662 18.564H106.396C106.059 18.564 105.824 18.6153 105.692 18.718C105.575 18.8207 105.516 19.0333 105.516 19.356V20.522ZM115.715 14.23C115.289 13.3207 115.194 12.5067 115.429 11.788C115.663 11.0547 116.111 10.5413 116.771 10.248C117.445 9.95467 118.127 9.95467 118.817 10.248C119.521 10.5267 120.034 11.1207 120.357 12.03C120.518 12.4847 120.635 13.0127 120.709 13.614C120.782 14.2007 120.863 14.7727 120.951 15.33C121.053 15.8727 121.215 16.3273 121.435 16.694C121.669 17.046 122.029 17.222 122.513 17.222C122.997 17.222 123.356 17.046 123.591 16.694C123.825 16.3273 123.987 15.8727 124.075 15.33C124.177 14.7727 124.258 14.2007 124.317 13.614C124.39 13.0127 124.507 12.4847 124.669 12.03C125.006 11.1207 125.519 10.5267 126.209 10.248C126.898 9.95467 127.58 9.95467 128.255 10.248C128.915 10.5413 129.362 11.0547 129.597 11.788C129.831 12.5067 129.736 13.3207 129.311 14.23C129.091 14.6993 128.797 15.1467 128.431 15.572C128.079 15.9827 127.69 16.408 127.265 16.848C126.839 17.288 126.414 17.7793 125.989 18.322C125.563 18.85 125.175 19.4587 124.823 20.148V23.91C124.823 24.5113 124.603 25.01 124.163 25.406C123.723 25.802 123.173 26 122.513 26C121.867 26 121.317 25.802 120.863 25.406C120.423 25.01 120.203 24.5113 120.203 23.91V20.148C119.865 19.4587 119.484 18.85 119.059 18.322C118.633 17.7793 118.208 17.288 117.783 16.848C117.357 16.408 116.961 15.9827 116.595 15.572C116.228 15.1467 115.935 14.6993 115.715 14.23ZM140.462 26.132C139.289 26.132 138.269 25.7947 137.404 25.12C136.539 24.4307 135.871 23.492 135.402 22.304C134.933 21.1013 134.698 19.7447 134.698 18.234C134.698 16.826 134.903 15.594 135.314 14.538C135.739 13.4673 136.311 12.58 137.03 11.876C137.763 11.1573 138.607 10.622 139.56 10.27C140.528 9.90333 141.547 9.72 142.618 9.72C144.583 9.72 146.035 9.99867 146.974 10.556C147.927 11.0987 148.404 11.8027 148.404 12.668C148.404 13.3427 148.228 13.9367 147.876 14.45C147.539 14.9633 147.025 15.22 146.336 15.22C145.867 15.22 145.419 15.176 144.994 15.088C144.583 15 144.158 14.9193 143.718 14.846C143.293 14.758 142.816 14.714 142.288 14.714C141.129 14.714 140.293 15.044 139.78 15.704C139.281 16.364 139.032 17.1927 139.032 18.19C139.032 18.9967 139.193 19.6567 139.516 20.17C139.853 20.6833 140.293 21.0647 140.836 21.314C141.393 21.5487 142.009 21.666 142.684 21.666C143.241 21.666 143.762 21.5413 144.246 21.292C144.73 21.0427 145.038 20.5807 145.17 19.906H144.092C143.579 19.906 143.183 19.752 142.904 19.444C142.625 19.1213 142.486 18.7107 142.486 18.212C142.486 17.7133 142.625 17.31 142.904 17.002C143.183 16.694 143.579 16.54 144.092 16.54H146.732C147.685 16.54 148.353 16.7967 148.734 17.31C149.13 17.8087 149.328 18.5567 149.328 19.554V23.668C149.328 24.4307 149.123 25.01 148.712 25.406C148.301 25.802 147.759 26 147.084 26C146.365 26 145.801 25.802 145.39 25.406C144.979 25.01 144.774 24.4307 144.774 23.668V22.304H144.378C144.378 23.6387 144.041 24.614 143.366 25.23C142.691 25.8313 141.789 26.132 140.66 26.132H140.462ZM152.717 26.044C152.042 26.044 151.492 25.8387 151.067 25.428C150.641 25.0173 150.429 24.4967 150.429 23.866V12.228C150.429 11.5827 150.634 11.04 151.045 10.6C151.47 10.16 152.027 9.94 152.717 9.94C153.45 9.94 154.022 10.16 154.433 10.6C154.858 11.0253 155.071 11.5533 155.071 12.184V23.866C155.071 24.4967 154.843 25.0173 154.389 25.428C153.949 25.8387 153.391 26.044 152.717 26.044ZM158.885 25.956C158.005 25.956 157.331 25.714 156.861 25.23C156.407 24.7313 156.179 24.0933 156.179 23.316C156.179 22.8613 156.267 22.4653 156.443 22.128C156.634 21.7907 156.861 21.49 157.125 21.226C157.389 20.962 157.646 20.7127 157.895 20.478L163.197 15.286L163.065 14.868H158.665C157.991 14.868 157.433 14.6627 156.993 14.252C156.568 13.8267 156.341 13.24 156.311 12.492C156.297 11.7587 156.517 11.1647 156.971 10.71C157.426 10.2553 157.991 10.028 158.665 10.028H165.991C166.827 10.028 167.451 10.2407 167.861 10.666C168.272 11.0913 168.477 11.6927 168.477 12.47C168.477 13.0273 168.323 13.5553 168.015 14.054C167.707 14.538 167.363 14.9633 166.981 15.33L161.349 20.874C161.173 21.05 161.093 21.2407 161.107 21.446C161.122 21.6367 161.21 21.7833 161.371 21.886C161.547 21.9887 161.767 21.9887 162.031 21.886C162.515 21.6807 162.97 21.468 163.395 21.248C163.821 21.028 164.239 20.8447 164.649 20.698C165.075 20.5367 165.515 20.456 165.969 20.456C166.967 20.456 167.715 20.7273 168.213 21.27C168.712 21.798 168.961 22.4507 168.961 23.228C168.961 24.0053 168.712 24.658 168.213 25.186C167.715 25.6993 166.967 25.956 165.969 25.956H158.885ZM172.309 26C171.547 26 170.982 25.7727 170.615 25.318C170.249 24.8633 170.065 24.2547 170.065 23.492V13.24C170.065 12.1253 170.366 11.304 170.967 10.776C171.583 10.248 172.317 9.984 173.167 9.984C173.974 9.984 174.656 10.248 175.213 10.776C175.785 11.304 176.203 12.14 176.467 13.284L178.183 20.742H178.755L180.471 13.284C180.735 12.14 181.153 11.304 181.725 10.776C182.312 10.248 183.009 9.984 183.815 9.984C184.666 9.984 185.392 10.248 185.993 10.776C186.609 11.304 186.917 12.1253 186.917 13.24V23.492C186.917 24.2547 186.727 24.8633 186.345 25.318C185.979 25.7727 185.414 26 184.651 26C183.918 26 183.353 25.7727 182.957 25.318C182.561 24.8633 182.363 24.2547 182.363 23.492V17.574C182.363 17.4273 182.341 17.2953 182.297 17.178C182.268 17.046 182.173 16.98 182.011 16.98C181.879 16.98 181.784 17.046 181.725 17.178C181.667 17.2953 181.623 17.4273 181.593 17.574L180.757 23.118C180.655 23.7193 180.53 24.24 180.383 24.68C180.251 25.1053 180.039 25.4353 179.745 25.67C179.452 25.89 179.027 26 178.469 26C177.927 26 177.501 25.89 177.193 25.67C176.9 25.4353 176.68 25.1053 176.533 24.68C176.401 24.24 176.291 23.7193 176.203 23.118L175.345 17.574C175.331 17.4273 175.294 17.2953 175.235 17.178C175.177 17.046 175.074 16.98 174.927 16.98C174.781 16.98 174.685 17.046 174.641 17.178C174.597 17.2953 174.575 17.4273 174.575 17.574V23.492C174.575 24.2547 174.377 24.8633 173.981 25.318C173.6 25.7727 173.043 26 172.309 26ZM195.433 26.066C193.864 26.066 192.536 25.7213 191.451 25.032C190.366 24.3427 189.544 23.3893 188.987 22.172C188.43 20.9547 188.151 19.554 188.151 17.97C188.151 16.4007 188.43 15.0073 188.987 13.79C189.544 12.558 190.366 11.5973 191.451 10.908C192.536 10.204 193.864 9.852 195.433 9.852C197.002 9.852 198.322 10.204 199.393 10.908C200.478 11.5973 201.3 12.558 201.857 13.79C202.414 15.0073 202.693 16.4007 202.693 17.97C202.693 19.554 202.414 20.9547 201.857 22.172C201.3 23.3893 200.478 24.3427 199.393 25.032C198.322 25.7213 197.002 26.066 195.433 26.066ZM190.923 17.618C190.923 18.0727 191.033 18.5053 191.253 18.916C191.473 19.312 191.906 19.6347 192.551 19.884C193.196 20.1187 194.157 20.236 195.433 20.236C196.709 20.236 197.662 20.1187 198.293 19.884C198.938 19.6347 199.371 19.312 199.591 18.916C199.811 18.5053 199.921 18.0727 199.921 17.618C199.921 17.1487 199.811 16.7307 199.591 16.364C199.371 15.9827 198.938 15.682 198.293 15.462C197.662 15.2273 196.709 15.11 195.433 15.11C194.157 15.11 193.196 15.2273 192.551 15.462C191.906 15.682 191.473 15.9827 191.253 16.364C191.033 16.7307 190.923 17.1487 190.923 17.618Z" fill="#FFE983"/>
</svg>
