<svg width="769" height="268" viewBox="0 0 769 268" fill="none" xmlns="http://www.w3.org/2000/svg">
<g filter="url(#filter0_d_1_141)">
<mask id="path-1-outside-1_1_141" maskUnits="userSpaceOnUse" x="0" y="94" width="264" height="53" fill="black">
<rect fill="white" y="94" width="264" height="53"/>
<path d="M21.038 145.201C18.3133 145.201 16.1693 144.531 14.606 143.191C13.0427 141.851 11.792 140.02 10.854 137.697C9.96067 135.33 9.112 132.65 8.308 129.657L1.809 105.537C1.31767 103.661 1.42933 101.919 2.144 100.311C2.85867 98.6583 4.26567 97.564 6.365 97.028C8.33033 96.492 10.0723 96.626 11.591 97.43C13.1097 98.234 14.137 99.641 14.673 101.651L20.703 123.694C21.239 125.615 21.7973 127.022 22.378 127.915C23.0033 128.808 23.986 129.099 25.326 128.786C26.5767 128.473 27.2467 127.781 27.336 126.709C27.4253 125.637 27.202 124.118 26.666 122.153L22.378 105.872C21.7973 103.639 21.8643 101.718 22.579 100.11C23.3383 98.4573 24.8123 97.3853 27.001 96.894C29.2343 96.358 31.021 96.6483 32.361 97.765C33.7457 98.837 34.6837 100.356 35.175 102.321L40.602 123.694C41.1827 125.883 41.808 127.357 42.478 128.116C43.1927 128.875 44.1083 129.099 45.225 128.786C46.4757 128.429 47.0787 127.736 47.034 126.709C46.9893 125.637 46.833 124.096 46.565 122.086C46.163 118.959 45.8057 116.391 45.493 114.381C45.225 112.371 45.0017 110.696 44.823 109.356C44.689 108.016 44.622 106.788 44.622 105.671C44.622 103.17 45.359 101.048 46.833 99.306C48.307 97.5193 50.317 96.626 52.863 96.626C55.4537 96.626 57.419 97.43 58.759 99.038C60.099 100.601 60.769 102.768 60.769 105.537C60.769 107.324 60.501 109.2 59.965 111.165C59.4737 113.13 58.9823 114.984 58.491 116.726L54.739 129.657C53.8903 132.605 53.0417 135.263 52.193 137.63C51.389 139.953 50.2947 141.806 48.91 143.191C47.5253 144.531 45.56 145.201 43.014 145.201C39.932 145.201 37.52 144.241 35.778 142.32C34.036 140.399 32.696 137.25 31.758 132.873H31.289C30.3957 137.25 29.212 140.399 27.738 142.32C26.264 144.241 24.0307 145.201 21.038 145.201ZM71.5351 144.799C69.4804 144.799 67.7831 144.174 66.4431 142.923C65.1031 141.672 64.4331 140.087 64.4331 138.166V102.723C64.4331 100.758 65.0807 99.1273 66.3761 97.832C67.6714 96.492 69.3687 95.822 71.4681 95.822C73.7014 95.822 75.4434 96.492 76.6941 97.832C77.9447 99.1273 78.5701 100.713 78.5701 102.589V114.984H91.0321V102.723C91.0321 100.758 91.6797 99.1273 92.9751 97.832C94.2704 96.492 96.0124 95.822 98.2011 95.822C100.39 95.822 102.109 96.492 103.36 97.832C104.611 99.1273 105.236 100.713 105.236 102.589V138.166C105.236 140.087 104.566 141.672 103.226 142.923C101.931 144.174 100.3 144.799 98.3351 144.799C96.1911 144.799 94.4267 144.174 93.0421 142.923C91.7021 141.672 91.0321 140.087 91.0321 138.166V124.833H78.5701V138.166C78.5701 140.087 77.9001 141.672 76.5601 142.923C75.2647 144.174 73.5897 144.799 71.5351 144.799ZM113.894 145C110.902 144.553 108.959 143.191 108.065 140.913C107.172 138.59 107.351 135.665 108.601 132.136L117.445 107.011C118.249 104.688 119.165 102.701 120.192 101.048C121.264 99.3953 122.582 98.1223 124.145 97.229C125.753 96.3357 127.741 95.889 130.108 95.889C133.682 95.889 136.362 96.8717 138.148 98.837C139.98 100.802 141.498 103.527 142.704 107.011L151.481 132.136C152.732 135.665 152.955 138.59 152.151 140.913C151.392 143.191 149.494 144.553 146.456 145C144 145.313 141.856 145.022 140.024 144.129C138.238 143.236 137.166 141.784 136.808 139.774C136.54 138.434 136.496 137.317 136.674 136.424C136.898 135.531 137.099 134.816 137.277 134.28C137.411 133.833 137.411 133.409 137.277 133.007C137.188 132.56 136.853 132.337 136.272 132.337H123.81C123.23 132.337 122.872 132.56 122.738 133.007C122.649 133.409 122.694 133.833 122.872 134.28C123.051 134.816 123.23 135.531 123.408 136.424C123.587 137.317 123.565 138.434 123.341 139.774C122.984 141.784 121.934 143.236 120.192 144.129C118.45 145.022 116.351 145.313 113.894 145ZM134.999 122.957L131.515 112.036C131.426 111.589 131.27 111.254 131.046 111.031C130.868 110.763 130.555 110.629 130.108 110.629C129.662 110.629 129.327 110.763 129.103 111.031C128.925 111.254 128.768 111.589 128.634 112.036L125.217 122.957H134.999ZM153.101 111.098C150.867 111.098 149.036 110.45 147.607 109.155C146.222 107.86 145.53 106.073 145.53 103.795C145.53 101.562 146.155 99.775 147.406 98.435C148.701 97.0503 150.599 96.358 153.101 96.358H181.978C184.479 96.358 186.355 97.0503 187.606 98.435C188.901 99.775 189.549 101.562 189.549 103.795C189.549 106.073 188.834 107.86 187.405 109.155C186.02 110.45 184.211 111.098 181.978 111.098C180.459 111.098 179.231 110.942 178.293 110.629C177.399 110.272 176.662 109.87 176.082 109.423C175.501 108.932 174.943 108.53 174.407 108.217C173.871 107.86 173.201 107.681 172.397 107.681L171.794 108.887C171.972 109.289 172.285 109.87 172.732 110.629C173.178 111.344 173.603 112.393 174.005 113.778C174.407 115.118 174.608 116.949 174.608 119.272V138.635C174.608 140.466 173.915 141.985 172.531 143.191C171.191 144.397 169.538 145 167.573 145C165.563 145 163.865 144.397 162.481 143.191C161.141 141.985 160.471 140.466 160.471 138.635V119.272C160.471 116.949 160.672 115.118 161.074 113.778C161.476 112.393 161.9 111.344 162.347 110.629C162.838 109.87 163.173 109.289 163.352 108.887L162.682 107.681C161.878 107.681 161.208 107.86 160.672 108.217C160.136 108.53 159.577 108.932 158.997 109.423C158.416 109.87 157.679 110.272 156.786 110.629C155.892 110.942 154.664 111.098 153.101 111.098ZM211.29 145.134C209.235 145.134 207.56 144.509 206.265 143.258C204.969 142.007 204.322 140.422 204.322 138.501V103.058C204.322 101.093 204.947 99.44 206.198 98.1C207.493 96.76 209.19 96.09 211.29 96.09C213.523 96.09 215.265 96.76 216.516 98.1C217.811 99.3953 218.459 101.003 218.459 102.924V138.501C218.459 140.422 217.766 142.007 216.382 143.258C215.042 144.509 213.344 145.134 211.29 145.134ZM243.409 145.201C240.908 145.201 238.384 144.955 235.838 144.464C233.337 143.928 231.014 143.169 228.87 142.186C226.771 141.159 225.073 139.93 223.778 138.501C222.483 137.027 221.835 135.33 221.835 133.409C221.835 130.952 222.617 128.987 224.18 127.513C225.743 126.039 227.575 125.347 229.674 125.436C231.327 125.481 232.979 125.838 234.632 126.508C236.285 127.133 237.96 127.759 239.657 128.384C241.399 129.009 243.141 129.322 244.883 129.322C246.625 129.322 247.831 129.099 248.501 128.652C249.171 128.205 249.506 127.602 249.506 126.843C249.506 125.95 249.037 125.213 248.099 124.632C247.161 124.051 245.977 123.605 244.548 123.292L241.265 122.488C237.87 121.684 234.833 120.791 232.153 119.808C229.473 118.781 227.351 117.441 225.788 115.788C224.269 114.091 223.51 111.835 223.51 109.021C223.51 105.939 224.359 103.438 226.056 101.517C227.753 99.5517 230.054 98.1223 232.957 97.229C235.86 96.3357 239.099 95.889 242.672 95.889C246.335 95.889 249.551 96.2687 252.32 97.028C255.089 97.7873 257.233 98.8817 258.752 100.311C260.315 101.74 261.097 103.482 261.097 105.537C261.097 107.726 260.494 109.445 259.288 110.696C258.127 111.902 256.563 112.505 254.598 112.505C253.303 112.505 251.94 112.282 250.511 111.835C249.126 111.388 247.652 110.964 246.089 110.562C244.57 110.115 242.94 109.892 241.198 109.892C239.635 109.892 238.451 110.138 237.647 110.629C236.843 111.076 236.441 111.679 236.441 112.438C236.441 113.376 236.977 114.068 238.049 114.515C239.121 114.962 240.885 115.498 243.342 116.123L247.094 116.994C250.176 117.753 252.878 118.669 255.201 119.741C257.524 120.813 259.333 122.22 260.628 123.962C261.923 125.704 262.571 127.982 262.571 130.796C262.571 134.191 261.767 136.96 260.159 139.104C258.551 141.203 256.318 142.744 253.459 143.727C250.6 144.71 247.25 145.201 243.409 145.201Z"/>
</mask>
<path d="M21.038 145.201C18.3133 145.201 16.1693 144.531 14.606 143.191C13.0427 141.851 11.792 140.02 10.854 137.697C9.96067 135.33 9.112 132.65 8.308 129.657L1.809 105.537C1.31767 103.661 1.42933 101.919 2.144 100.311C2.85867 98.6583 4.26567 97.564 6.365 97.028C8.33033 96.492 10.0723 96.626 11.591 97.43C13.1097 98.234 14.137 99.641 14.673 101.651L20.703 123.694C21.239 125.615 21.7973 127.022 22.378 127.915C23.0033 128.808 23.986 129.099 25.326 128.786C26.5767 128.473 27.2467 127.781 27.336 126.709C27.4253 125.637 27.202 124.118 26.666 122.153L22.378 105.872C21.7973 103.639 21.8643 101.718 22.579 100.11C23.3383 98.4573 24.8123 97.3853 27.001 96.894C29.2343 96.358 31.021 96.6483 32.361 97.765C33.7457 98.837 34.6837 100.356 35.175 102.321L40.602 123.694C41.1827 125.883 41.808 127.357 42.478 128.116C43.1927 128.875 44.1083 129.099 45.225 128.786C46.4757 128.429 47.0787 127.736 47.034 126.709C46.9893 125.637 46.833 124.096 46.565 122.086C46.163 118.959 45.8057 116.391 45.493 114.381C45.225 112.371 45.0017 110.696 44.823 109.356C44.689 108.016 44.622 106.788 44.622 105.671C44.622 103.17 45.359 101.048 46.833 99.306C48.307 97.5193 50.317 96.626 52.863 96.626C55.4537 96.626 57.419 97.43 58.759 99.038C60.099 100.601 60.769 102.768 60.769 105.537C60.769 107.324 60.501 109.2 59.965 111.165C59.4737 113.13 58.9823 114.984 58.491 116.726L54.739 129.657C53.8903 132.605 53.0417 135.263 52.193 137.63C51.389 139.953 50.2947 141.806 48.91 143.191C47.5253 144.531 45.56 145.201 43.014 145.201C39.932 145.201 37.52 144.241 35.778 142.32C34.036 140.399 32.696 137.25 31.758 132.873H31.289C30.3957 137.25 29.212 140.399 27.738 142.32C26.264 144.241 24.0307 145.201 21.038 145.201ZM71.5351 144.799C69.4804 144.799 67.7831 144.174 66.4431 142.923C65.1031 141.672 64.4331 140.087 64.4331 138.166V102.723C64.4331 100.758 65.0807 99.1273 66.3761 97.832C67.6714 96.492 69.3687 95.822 71.4681 95.822C73.7014 95.822 75.4434 96.492 76.6941 97.832C77.9447 99.1273 78.5701 100.713 78.5701 102.589V114.984H91.0321V102.723C91.0321 100.758 91.6797 99.1273 92.9751 97.832C94.2704 96.492 96.0124 95.822 98.2011 95.822C100.39 95.822 102.109 96.492 103.36 97.832C104.611 99.1273 105.236 100.713 105.236 102.589V138.166C105.236 140.087 104.566 141.672 103.226 142.923C101.931 144.174 100.3 144.799 98.3351 144.799C96.1911 144.799 94.4267 144.174 93.0421 142.923C91.7021 141.672 91.0321 140.087 91.0321 138.166V124.833H78.5701V138.166C78.5701 140.087 77.9001 141.672 76.5601 142.923C75.2647 144.174 73.5897 144.799 71.5351 144.799ZM113.894 145C110.902 144.553 108.959 143.191 108.065 140.913C107.172 138.59 107.351 135.665 108.601 132.136L117.445 107.011C118.249 104.688 119.165 102.701 120.192 101.048C121.264 99.3953 122.582 98.1223 124.145 97.229C125.753 96.3357 127.741 95.889 130.108 95.889C133.682 95.889 136.362 96.8717 138.148 98.837C139.98 100.802 141.498 103.527 142.704 107.011L151.481 132.136C152.732 135.665 152.955 138.59 152.151 140.913C151.392 143.191 149.494 144.553 146.456 145C144 145.313 141.856 145.022 140.024 144.129C138.238 143.236 137.166 141.784 136.808 139.774C136.54 138.434 136.496 137.317 136.674 136.424C136.898 135.531 137.099 134.816 137.277 134.28C137.411 133.833 137.411 133.409 137.277 133.007C137.188 132.56 136.853 132.337 136.272 132.337H123.81C123.23 132.337 122.872 132.56 122.738 133.007C122.649 133.409 122.694 133.833 122.872 134.28C123.051 134.816 123.23 135.531 123.408 136.424C123.587 137.317 123.565 138.434 123.341 139.774C122.984 141.784 121.934 143.236 120.192 144.129C118.45 145.022 116.351 145.313 113.894 145ZM134.999 122.957L131.515 112.036C131.426 111.589 131.27 111.254 131.046 111.031C130.868 110.763 130.555 110.629 130.108 110.629C129.662 110.629 129.327 110.763 129.103 111.031C128.925 111.254 128.768 111.589 128.634 112.036L125.217 122.957H134.999ZM153.101 111.098C150.867 111.098 149.036 110.45 147.607 109.155C146.222 107.86 145.53 106.073 145.53 103.795C145.53 101.562 146.155 99.775 147.406 98.435C148.701 97.0503 150.599 96.358 153.101 96.358H181.978C184.479 96.358 186.355 97.0503 187.606 98.435C188.901 99.775 189.549 101.562 189.549 103.795C189.549 106.073 188.834 107.86 187.405 109.155C186.02 110.45 184.211 111.098 181.978 111.098C180.459 111.098 179.231 110.942 178.293 110.629C177.399 110.272 176.662 109.87 176.082 109.423C175.501 108.932 174.943 108.53 174.407 108.217C173.871 107.86 173.201 107.681 172.397 107.681L171.794 108.887C171.972 109.289 172.285 109.87 172.732 110.629C173.178 111.344 173.603 112.393 174.005 113.778C174.407 115.118 174.608 116.949 174.608 119.272V138.635C174.608 140.466 173.915 141.985 172.531 143.191C171.191 144.397 169.538 145 167.573 145C165.563 145 163.865 144.397 162.481 143.191C161.141 141.985 160.471 140.466 160.471 138.635V119.272C160.471 116.949 160.672 115.118 161.074 113.778C161.476 112.393 161.9 111.344 162.347 110.629C162.838 109.87 163.173 109.289 163.352 108.887L162.682 107.681C161.878 107.681 161.208 107.86 160.672 108.217C160.136 108.53 159.577 108.932 158.997 109.423C158.416 109.87 157.679 110.272 156.786 110.629C155.892 110.942 154.664 111.098 153.101 111.098ZM211.29 145.134C209.235 145.134 207.56 144.509 206.265 143.258C204.969 142.007 204.322 140.422 204.322 138.501V103.058C204.322 101.093 204.947 99.44 206.198 98.1C207.493 96.76 209.19 96.09 211.29 96.09C213.523 96.09 215.265 96.76 216.516 98.1C217.811 99.3953 218.459 101.003 218.459 102.924V138.501C218.459 140.422 217.766 142.007 216.382 143.258C215.042 144.509 213.344 145.134 211.29 145.134ZM243.409 145.201C240.908 145.201 238.384 144.955 235.838 144.464C233.337 143.928 231.014 143.169 228.87 142.186C226.771 141.159 225.073 139.93 223.778 138.501C222.483 137.027 221.835 135.33 221.835 133.409C221.835 130.952 222.617 128.987 224.18 127.513C225.743 126.039 227.575 125.347 229.674 125.436C231.327 125.481 232.979 125.838 234.632 126.508C236.285 127.133 237.96 127.759 239.657 128.384C241.399 129.009 243.141 129.322 244.883 129.322C246.625 129.322 247.831 129.099 248.501 128.652C249.171 128.205 249.506 127.602 249.506 126.843C249.506 125.95 249.037 125.213 248.099 124.632C247.161 124.051 245.977 123.605 244.548 123.292L241.265 122.488C237.87 121.684 234.833 120.791 232.153 119.808C229.473 118.781 227.351 117.441 225.788 115.788C224.269 114.091 223.51 111.835 223.51 109.021C223.51 105.939 224.359 103.438 226.056 101.517C227.753 99.5517 230.054 98.1223 232.957 97.229C235.86 96.3357 239.099 95.889 242.672 95.889C246.335 95.889 249.551 96.2687 252.32 97.028C255.089 97.7873 257.233 98.8817 258.752 100.311C260.315 101.74 261.097 103.482 261.097 105.537C261.097 107.726 260.494 109.445 259.288 110.696C258.127 111.902 256.563 112.505 254.598 112.505C253.303 112.505 251.94 112.282 250.511 111.835C249.126 111.388 247.652 110.964 246.089 110.562C244.57 110.115 242.94 109.892 241.198 109.892C239.635 109.892 238.451 110.138 237.647 110.629C236.843 111.076 236.441 111.679 236.441 112.438C236.441 113.376 236.977 114.068 238.049 114.515C239.121 114.962 240.885 115.498 243.342 116.123L247.094 116.994C250.176 117.753 252.878 118.669 255.201 119.741C257.524 120.813 259.333 122.22 260.628 123.962C261.923 125.704 262.571 127.982 262.571 130.796C262.571 134.191 261.767 136.96 260.159 139.104C258.551 141.203 256.318 142.744 253.459 143.727C250.6 144.71 247.25 145.201 243.409 145.201Z" fill="white"/>
<path d="M14.606 143.191L13.9552 143.95H13.9552L14.606 143.191ZM10.854 137.697L9.9184 138.05L9.92245 138.061L9.92676 138.071L10.854 137.697ZM8.308 129.657L9.27376 129.398L9.27356 129.397L8.308 129.657ZM1.809 105.537L0.841604 105.79L0.843436 105.797L1.809 105.537ZM2.144 100.311L3.05786 100.717L3.06186 100.708L2.144 100.311ZM6.365 97.028L6.61238 97.9969L6.62027 97.9949L6.62812 97.9928L6.365 97.028ZM11.591 97.43L11.1231 98.3138L11.591 97.43ZM14.673 101.651L13.7067 101.909L13.7084 101.915L14.673 101.651ZM20.703 123.694L19.7384 123.958L19.7398 123.963L20.703 123.694ZM22.378 127.915L21.5396 128.46L21.5489 128.474L21.5588 128.488L22.378 127.915ZM25.326 128.786L25.5532 129.76L25.5609 129.758L25.5685 129.756L25.326 128.786ZM27.336 126.709L28.3325 126.792L27.336 126.709ZM26.666 122.153L25.6989 122.408L25.7012 122.416L26.666 122.153ZM22.378 105.872L21.4102 106.124L21.411 106.127L22.378 105.872ZM22.579 100.11L21.6703 99.6925L21.6652 99.7039L22.579 100.11ZM27.001 96.894L27.22 97.8697L27.2272 97.8681L27.2344 97.8664L27.001 96.894ZM32.361 97.765L31.7208 98.5332L31.7346 98.5447L31.7488 98.5557L32.361 97.765ZM35.175 102.321L34.2049 102.564L34.2058 102.567L35.175 102.321ZM40.602 123.694L39.6327 123.94L39.6354 123.95L40.602 123.694ZM42.478 128.116L41.7282 128.778L41.7388 128.79L41.7498 128.801L42.478 128.116ZM45.225 128.786L45.4946 129.749L45.4997 129.748L45.225 128.786ZM47.034 126.709L46.0349 126.751L46.0349 126.752L47.034 126.709ZM46.565 122.086L45.5732 122.214L45.5738 122.218L46.565 122.086ZM45.493 114.381L44.5018 114.513L44.5032 114.524L44.5049 114.535L45.493 114.381ZM44.823 109.356L43.828 109.456L43.8296 109.472L43.8318 109.488L44.823 109.356ZM46.833 99.306L47.5965 99.952L47.6044 99.9424L46.833 99.306ZM58.759 99.038L57.9907 99.6782L57.9997 99.6888L58.759 99.038ZM59.965 111.165L59.0002 110.902L58.9974 110.912L58.9949 110.922L59.965 111.165ZM58.491 116.726L59.4514 117.005L59.4535 116.997L58.491 116.726ZM54.739 129.657L53.7786 129.378L53.778 129.38L54.739 129.657ZM52.193 137.63L51.2516 137.293L51.248 137.303L52.193 137.63ZM48.91 143.191L49.6054 143.91L49.6113 143.904L49.6171 143.898L48.91 143.191ZM35.778 142.32L36.5187 141.648L35.778 142.32ZM31.758 132.873L32.7358 132.663L32.5664 131.873H31.758V132.873ZM31.289 132.873V131.873H30.4725L30.3092 132.673L31.289 132.873ZM27.738 142.32L28.5313 142.929L27.738 142.32ZM21.038 144.201C18.4739 144.201 16.5873 143.572 15.2568 142.432L13.9552 143.95C15.7514 145.49 18.1528 146.201 21.038 146.201V144.201ZM15.2568 142.432C13.8387 141.216 12.6721 139.528 11.7812 137.323L9.92676 138.071C10.9119 140.511 12.2466 142.486 13.9552 143.95L15.2568 142.432ZM11.7896 137.344C10.9101 135.013 10.0711 132.365 9.27376 129.398L7.34225 129.916C8.15295 132.934 9.01126 135.646 9.9184 138.05L11.7896 137.344ZM9.27356 129.397L2.77456 105.277L0.843436 105.797L7.34244 129.917L9.27356 129.397ZM2.77637 105.284C2.3363 103.603 2.44485 102.096 3.05781 100.717L1.23019 99.9049C0.41382 101.742 0.299036 103.719 0.841628 105.79L2.77637 105.284ZM3.06186 100.708C3.62819 99.3983 4.74491 98.4737 6.61238 97.9969L6.11762 96.0591C3.78642 96.6543 2.08915 97.9184 1.22614 99.9141L3.06186 100.708ZM6.62812 97.9928C8.39672 97.5104 9.86969 97.6502 11.1231 98.3138L12.0589 96.5462C10.275 95.6018 8.26395 95.4736 6.10188 96.0632L6.62812 97.9928ZM11.1231 98.3138C12.3449 98.9606 13.2262 100.106 13.7068 101.909L15.6392 101.393C15.0478 99.1756 13.8745 97.5074 12.0589 96.5462L11.1231 98.3138ZM13.7084 101.915L19.7384 123.958L21.6676 123.43L15.6376 101.387L13.7084 101.915ZM19.7398 123.963C20.2837 125.912 20.8745 127.437 21.5396 128.46L23.2164 127.37C22.7201 126.606 22.1943 125.318 21.6662 123.425L19.7398 123.963ZM21.5588 128.488C21.9923 129.108 22.5777 129.548 23.3007 129.762C24.0054 129.97 24.7703 129.943 25.5532 129.76L25.0988 127.812C24.5417 127.942 24.1453 127.926 23.8673 127.844C23.6076 127.767 23.389 127.616 23.1972 127.342L21.5588 128.488ZM25.5685 129.756C26.3155 129.569 26.9832 129.246 27.4851 128.728C27.9995 128.196 28.2711 127.53 28.3325 126.792L26.3395 126.626C26.3116 126.96 26.2035 127.176 26.0479 127.337C25.8798 127.511 25.5871 127.69 25.0835 127.816L25.5685 129.756ZM28.3325 126.792C28.4368 125.542 28.1751 123.886 27.6308 121.89L25.7012 122.416C26.2289 124.351 26.4139 125.732 26.3395 126.626L28.3325 126.792ZM27.633 121.898L23.345 105.617L21.411 106.127L25.699 122.408L27.633 121.898ZM23.3458 105.62C22.8043 103.537 22.8952 101.861 23.4928 100.516L21.6652 99.7039C20.8334 101.575 20.7904 103.74 21.4102 106.124L23.3458 105.62ZM23.4877 100.528C24.0864 99.2245 25.2568 98.3104 27.22 97.8697L26.782 95.9183C24.3678 96.4602 22.5903 97.6902 21.6703 99.6925L23.4877 100.528ZM27.2344 97.8664C29.2667 97.3786 30.6965 97.6796 31.7208 98.5332L33.0012 96.9968C31.3455 95.617 29.202 95.3374 26.7676 95.9216L27.2344 97.8664ZM31.7488 98.5557C32.929 99.4694 33.759 100.78 34.2049 102.564L36.1451 102.078C35.6083 99.9311 34.5624 98.2046 32.9732 96.9743L31.7488 98.5557ZM34.2058 102.567L39.6328 123.94L41.5712 123.448L36.1442 102.075L34.2058 102.567ZM39.6354 123.95C40.2184 126.148 40.8896 127.827 41.7282 128.778L43.2278 127.454C42.7264 126.886 42.147 125.618 41.5686 123.438L39.6354 123.95ZM41.7498 128.801C42.2251 129.306 42.7983 129.662 43.4638 129.825C44.1228 129.985 44.8087 129.941 45.4946 129.749L44.9554 127.823C44.5246 127.944 44.1944 127.944 43.9377 127.881C43.6876 127.82 43.4455 127.685 43.2062 127.431L41.7498 128.801ZM45.4997 129.748C46.2369 129.537 46.8983 129.196 47.3693 128.656C47.86 128.092 48.0651 127.402 48.0331 126.666L46.0349 126.752C46.0476 127.043 45.9735 127.213 45.8612 127.342C45.7292 127.493 45.4638 127.678 44.9503 127.824L45.4997 129.748ZM48.0331 126.667C47.9865 125.549 47.8254 123.972 47.5562 121.954L45.5738 122.218C45.8406 124.22 45.9921 125.725 46.0349 126.751L48.0331 126.667ZM47.5568 121.958C47.1543 118.827 46.7957 116.249 46.4811 114.227L44.5049 114.535C44.8157 116.533 45.1718 119.091 45.5732 122.214L47.5568 121.958ZM46.4842 114.249C46.2162 112.239 45.9929 110.564 45.8142 109.224L43.8318 109.488C44.0104 110.828 44.2338 112.503 44.5018 114.513L46.4842 114.249ZM45.818 109.256C45.6867 107.943 45.622 106.749 45.622 105.671H43.622C43.622 106.827 43.6913 108.089 43.828 109.456L45.818 109.256ZM45.622 105.671C45.622 103.382 46.2902 101.496 47.5964 99.9519L46.0696 98.6601C44.4278 100.6 43.622 102.958 43.622 105.671H45.622ZM47.6044 99.9424C48.868 98.4107 50.5819 97.626 52.863 97.626V95.626C50.0521 95.626 47.746 96.628 46.0616 98.6696L47.6044 99.9424ZM52.863 97.626C55.2339 97.626 56.8851 98.3514 57.9908 99.6782L59.5272 98.3978C57.9529 96.5086 55.6734 95.626 52.863 95.626V97.626ZM57.9997 99.6888C59.1378 101.017 59.769 102.923 59.769 105.537H61.769C61.769 102.612 61.0602 100.186 59.5183 98.3872L57.9997 99.6888ZM59.769 105.537C59.769 107.223 59.5161 109.011 59.0002 110.902L60.9298 111.428C61.4859 109.389 61.769 107.424 61.769 105.537H59.769ZM58.9949 110.922C58.5057 112.879 58.0169 114.723 57.5286 116.455L59.4535 116.997C59.9478 115.245 60.4417 113.381 60.9351 111.408L58.9949 110.922ZM57.5306 116.447L53.7786 129.378L55.6994 129.936L59.4514 117.005L57.5306 116.447ZM53.778 129.38C52.934 132.312 52.0918 134.949 51.2517 137.293L53.1343 137.967C53.9916 135.576 54.8466 132.898 55.7 129.934L53.778 129.38ZM51.248 137.303C50.4812 139.518 49.4568 141.23 48.2029 142.484L49.6171 143.898C51.1325 142.383 52.2968 140.387 53.138 137.957L51.248 137.303ZM48.2146 142.472C47.0702 143.58 45.3865 144.201 43.014 144.201V146.201C45.7335 146.201 47.9804 145.482 49.6054 143.91L48.2146 142.472ZM43.014 144.201C40.1561 144.201 38.0354 143.32 36.5187 141.648L35.0373 142.992C37.0046 145.161 39.7079 146.201 43.014 146.201V144.201ZM36.5187 141.648C34.9526 139.921 33.6603 136.978 32.7358 132.663L30.7802 133.083C31.7317 137.523 33.1194 140.877 35.0373 142.992L36.5187 141.648ZM31.758 131.873H31.289V133.873H31.758V131.873ZM30.3092 132.673C29.4247 137.007 28.2778 139.974 26.9447 141.711L28.5313 142.929C30.1462 140.825 31.3666 137.494 32.2688 133.073L30.3092 132.673ZM26.9447 141.711C25.7045 143.327 23.8012 144.201 21.038 144.201V146.201C24.2602 146.201 26.8235 145.154 28.5313 142.929L26.9447 141.711ZM66.4431 142.923L65.7607 143.654L66.4431 142.923ZM66.3761 97.832L67.0832 98.5391L67.0892 98.5331L67.0951 98.527L66.3761 97.832ZM76.6941 97.832L75.963 98.5143L75.9688 98.5205L75.9747 98.5266L76.6941 97.832ZM78.5701 114.984H77.5701V115.984H78.5701V114.984ZM91.0321 114.984V115.984H92.0321V114.984H91.0321ZM92.9751 97.832L93.6822 98.5391L93.6882 98.5331L93.6941 98.527L92.9751 97.832ZM103.36 97.832L102.629 98.5143L102.635 98.5205L102.641 98.5266L103.36 97.832ZM103.226 142.923L102.544 142.192L102.538 142.198L102.531 142.204L103.226 142.923ZM93.0421 142.923L92.3597 143.654L92.3657 143.66L92.3718 143.665L93.0421 142.923ZM91.0321 124.833H92.0321V123.833H91.0321V124.833ZM78.5701 124.833V123.833H77.5701V124.833H78.5701ZM76.5601 142.923L75.8777 142.192L75.8716 142.198L75.8655 142.204L76.5601 142.923ZM71.5351 143.799C69.7006 143.799 68.2573 143.248 67.1254 142.192L65.7607 143.654C67.3088 145.099 69.2602 145.799 71.5351 145.799V143.799ZM67.1254 142.192C65.9987 141.14 65.4331 139.824 65.4331 138.166H63.4331C63.4331 140.349 64.2074 142.204 65.7607 143.654L67.1254 142.192ZM65.4331 138.166V102.723H63.4331V138.166H65.4331ZM65.4331 102.723C65.4331 101.002 65.99 99.6323 67.0832 98.5391L65.669 97.1249C64.1715 98.6224 63.4331 100.514 63.4331 102.723H65.4331ZM67.0951 98.527C68.1773 97.4074 69.6022 96.822 71.4681 96.822V94.822C69.1352 94.822 67.1654 95.5766 65.6571 97.137L67.0951 98.527ZM71.4681 96.822C73.4894 96.822 74.9418 97.4201 75.963 98.5143L77.4251 97.1497C75.945 95.5638 73.9134 94.822 71.4681 94.822V96.822ZM75.9747 98.5266C77.0371 99.627 77.5701 100.96 77.5701 102.589H79.5701C79.5701 100.466 78.8523 98.6277 77.4135 97.1374L75.9747 98.5266ZM77.5701 102.589V114.984H79.5701V102.589H77.5701ZM78.5701 115.984H91.0321V113.984H78.5701V115.984ZM92.0321 114.984V102.723H90.0321V114.984H92.0321ZM92.0321 102.723C92.0321 101.002 92.589 99.6323 93.6822 98.5391L92.268 97.1249C90.7705 98.6224 90.0321 100.514 90.0321 102.723H92.0321ZM93.6941 98.527C94.7681 97.4159 96.2323 96.822 98.2011 96.822V94.822C95.7925 94.822 93.7727 95.5681 92.2561 97.137L93.6941 98.527ZM98.2011 96.822C100.171 96.822 101.604 97.416 102.629 98.5143L104.091 97.1497C102.615 95.568 100.609 94.822 98.2011 94.822V96.822ZM102.641 98.5266C103.703 99.627 104.236 100.96 104.236 102.589H106.236C106.236 100.466 105.518 98.6277 104.079 97.1374L102.641 98.5266ZM104.236 102.589V138.166H106.236V102.589H104.236ZM104.236 138.166C104.236 139.824 103.67 141.14 102.544 142.192L103.908 143.654C105.462 142.204 106.236 140.349 106.236 138.166H104.236ZM102.531 142.204C101.44 143.257 100.067 143.799 98.3351 143.799V145.799C100.534 145.799 102.421 145.09 103.921 143.642L102.531 142.204ZM98.3351 143.799C96.3993 143.799 94.8859 143.241 93.7123 142.181L92.3718 143.665C93.9675 145.106 95.9828 145.799 98.3351 145.799V143.799ZM93.7244 142.192C92.5977 141.14 92.0321 139.824 92.0321 138.166H90.0321C90.0321 140.349 90.8064 142.204 92.3597 143.654L93.7244 142.192ZM92.0321 138.166V124.833H90.0321V138.166H92.0321ZM91.0321 123.833H78.5701V125.833H91.0321V123.833ZM77.5701 124.833V138.166H79.5701V124.833H77.5701ZM77.5701 138.166C77.5701 139.824 77.0044 141.14 75.8777 142.192L77.2424 143.654C78.7957 142.204 79.5701 140.349 79.5701 138.166H77.5701ZM75.8655 142.204C74.7832 143.249 73.3701 143.799 71.5351 143.799V145.799C73.8093 145.799 75.7463 145.099 77.2547 143.642L75.8655 142.204ZM113.894 145L113.747 145.989L113.757 145.991L113.768 145.992L113.894 145ZM108.065 140.913L107.132 141.272L107.134 141.278L108.065 140.913ZM108.601 132.136L109.544 132.47L109.545 132.468L108.601 132.136ZM117.445 107.011L118.389 107.343L118.39 107.338L117.445 107.011ZM120.192 101.048L119.353 100.504L119.348 100.512L119.343 100.52L120.192 101.048ZM124.145 97.229L123.66 96.3548L123.649 96.3608L124.145 97.229ZM138.148 98.837L137.408 99.5097L137.417 99.5187L138.148 98.837ZM142.704 107.011L141.759 107.338L141.76 107.341L142.704 107.011ZM151.481 132.136L150.537 132.466L150.539 132.47L151.481 132.136ZM152.151 140.913L151.206 140.586L151.203 140.597L152.151 140.913ZM146.456 145L146.583 145.992L146.592 145.991L146.602 145.989L146.456 145ZM140.024 144.129L139.577 145.023L139.586 145.028L140.024 144.129ZM136.808 139.774L137.793 139.599L137.791 139.588L137.789 139.578L136.808 139.774ZM136.674 136.424L135.704 136.181L135.698 136.205L135.694 136.228L136.674 136.424ZM137.277 134.28L138.226 134.596L138.231 134.582L138.235 134.567L137.277 134.28ZM137.277 133.007L136.297 133.203L136.309 133.264L136.329 133.323L137.277 133.007ZM122.738 133.007L121.78 132.72L121.77 132.755L121.762 132.79L122.738 133.007ZM122.872 134.28L123.821 133.964L123.812 133.936L123.801 133.909L122.872 134.28ZM123.408 136.424L124.389 136.228L123.408 136.424ZM123.341 139.774L124.326 139.949L124.328 139.938L123.341 139.774ZM120.192 144.129L120.649 145.019L120.192 144.129ZM134.999 122.957V123.957H136.368L135.952 122.653L134.999 122.957ZM131.515 112.036L130.535 112.232L130.546 112.287L130.563 112.34L131.515 112.036ZM131.046 111.031L130.214 111.586L130.269 111.668L130.339 111.738L131.046 111.031ZM129.103 111.031L128.335 110.391L128.329 110.398L128.322 110.406L129.103 111.031ZM128.634 112.036L129.589 112.335L129.592 112.323L128.634 112.036ZM125.217 122.957L124.263 122.658L123.857 123.957H125.217V122.957ZM114.042 144.011C111.305 143.602 109.726 142.41 108.996 140.548L107.134 141.278C108.191 143.972 110.498 145.504 113.747 145.989L114.042 144.011ZM108.999 140.554C108.225 138.542 108.334 135.883 109.544 132.47L107.659 131.802C106.367 135.446 106.119 138.638 107.132 141.272L108.999 140.554ZM109.545 132.468L118.389 107.343L116.502 106.679L107.658 131.804L109.545 132.468ZM118.39 107.338C119.176 105.068 120.062 103.151 121.042 101.576L119.343 100.52C118.268 102.25 117.323 104.308 116.5 106.684L118.39 107.338ZM121.031 101.592C122.025 100.061 123.229 98.9042 124.641 98.0972L123.649 96.3608C121.935 97.3405 120.504 98.7302 119.353 100.504L121.031 101.592ZM124.631 98.1032C126.054 97.3127 127.863 96.889 130.108 96.889V94.889C127.619 94.889 125.453 95.3586 123.66 96.3548L124.631 98.1032ZM130.108 96.889C133.502 96.889 135.87 97.8178 137.408 99.5097L138.888 98.1643C136.853 95.9256 133.862 94.889 130.108 94.889V96.889ZM137.417 99.5187C139.124 101.352 140.583 103.94 141.759 107.338L143.649 106.684C142.414 103.114 140.835 100.253 138.88 98.1553L137.417 99.5187ZM141.76 107.341L150.537 132.466L152.425 131.806L143.648 106.681L141.76 107.341ZM150.539 132.47C151.751 135.891 151.906 138.564 151.206 140.586L153.096 141.24C154.004 138.616 153.712 135.438 152.424 131.802L150.539 132.47ZM151.203 140.597C150.597 142.412 149.098 143.601 146.311 144.011L146.602 145.989C149.889 145.506 152.186 143.97 153.1 141.229L151.203 140.597ZM146.33 144.008C144.025 144.301 142.084 144.021 140.463 143.23L139.586 145.028C141.627 146.023 143.975 146.324 146.583 145.992L146.33 144.008ZM140.471 143.235C138.975 142.486 138.096 141.306 137.793 139.599L135.824 139.949C136.235 142.262 137.5 143.985 139.577 145.023L140.471 143.235ZM137.789 139.578C137.535 138.309 137.512 137.336 137.655 136.62L135.694 136.228C135.48 137.299 135.546 138.559 135.828 139.97L137.789 139.578ZM137.644 136.667C137.865 135.785 138.059 135.098 138.226 134.596L136.329 133.964C136.138 134.534 135.93 135.277 135.704 136.181L137.644 136.667ZM138.235 134.567C138.422 133.944 138.432 133.308 138.226 132.691L136.329 133.323C136.391 133.51 136.4 133.723 136.319 133.993L138.235 134.567ZM138.258 132.811C138.169 132.365 137.932 131.951 137.514 131.672C137.124 131.413 136.677 131.337 136.272 131.337V133.337C136.355 133.337 136.403 133.345 136.425 133.35C136.445 133.355 136.432 133.355 136.404 133.337C136.373 133.316 136.342 133.285 136.319 133.249C136.298 133.215 136.295 133.194 136.297 133.203L138.258 132.811ZM136.272 131.337H123.81V133.337H136.272V131.337ZM123.81 131.337C123.401 131.337 122.964 131.415 122.577 131.657C122.17 131.911 121.909 132.29 121.78 132.72L123.696 133.294C123.701 133.279 123.701 133.286 123.687 133.305C123.672 133.325 123.653 133.342 123.637 133.353C123.622 133.362 123.622 133.358 123.648 133.352C123.676 133.345 123.728 133.337 123.81 133.337V131.337ZM121.762 132.79C121.622 133.42 121.703 134.05 121.944 134.651L123.801 133.909C123.684 133.617 123.676 133.398 123.714 133.224L121.762 132.79ZM121.924 134.596C122.084 135.077 122.253 135.746 122.428 136.62L124.389 136.228C124.206 135.315 124.018 134.555 123.821 133.964L121.924 134.596ZM122.428 136.62C122.574 137.351 122.567 138.336 122.355 139.61L124.328 139.938C124.562 138.532 124.6 137.283 124.389 136.228L122.428 136.62ZM122.357 139.599C122.051 141.317 121.186 142.495 119.736 143.239L120.649 145.019C122.682 143.976 123.917 142.251 124.326 139.949L122.357 139.599ZM119.736 143.239C118.216 144.019 116.33 144.302 114.021 144.008L113.768 145.992C116.372 146.323 118.685 146.026 120.649 145.019L119.736 143.239ZM135.952 122.653L132.468 111.732L130.563 112.34L134.047 123.261L135.952 122.653ZM132.496 111.84C132.384 111.281 132.165 110.736 131.753 110.324L130.339 111.738C130.374 111.773 130.468 111.897 130.535 112.232L132.496 111.84ZM131.878 110.476C131.448 109.83 130.748 109.629 130.108 109.629V111.629C130.237 111.629 130.284 111.649 130.284 111.649C130.282 111.648 130.27 111.642 130.254 111.629C130.237 111.616 130.224 111.6 130.214 111.586L131.878 110.476ZM130.108 109.629C129.455 109.629 128.799 109.834 128.335 110.391L129.871 111.671C129.873 111.669 129.875 111.666 129.893 111.658C129.918 111.648 129.983 111.629 130.108 111.629V109.629ZM128.322 110.406C128.029 110.773 127.827 111.247 127.676 111.749L129.592 112.323C129.71 111.932 129.82 111.736 129.884 111.656L128.322 110.406ZM127.68 111.737L124.263 122.658L126.172 123.256L129.589 112.335L127.68 111.737ZM125.217 123.957H134.999V121.957H125.217V123.957ZM147.607 109.155L146.924 109.885L146.929 109.891L146.935 109.896L147.607 109.155ZM147.406 98.435L146.675 97.7518L146.675 97.7527L147.406 98.435ZM187.606 98.435L186.864 99.1053L186.875 99.1178L186.887 99.13L187.606 98.435ZM187.405 109.155L186.733 108.414L186.727 108.419L186.722 108.425L187.405 109.155ZM178.293 110.629L177.921 111.557L177.949 111.568L177.977 111.578L178.293 110.629ZM176.082 109.423L175.436 110.186L175.454 110.201L175.472 110.216L176.082 109.423ZM174.407 108.217L173.852 109.049L173.877 109.066L173.903 109.081L174.407 108.217ZM172.397 107.681V106.681H171.779L171.502 107.234L172.397 107.681ZM171.794 108.887L170.899 108.44L170.688 108.862L170.88 109.293L171.794 108.887ZM172.732 110.629L171.87 111.136L171.877 111.148L171.884 111.159L172.732 110.629ZM174.005 113.778L173.044 114.057L173.047 114.065L174.005 113.778ZM172.531 143.191L171.874 142.437L171.868 142.442L171.862 142.448L172.531 143.191ZM162.481 143.191L161.812 143.934L161.818 143.94L161.824 143.945L162.481 143.191ZM161.074 113.778L162.032 114.065L162.034 114.057L161.074 113.778ZM162.347 110.629L161.507 110.086L161.503 110.092L161.499 110.099L162.347 110.629ZM163.352 108.887L164.266 109.293L164.468 108.837L164.226 108.401L163.352 108.887ZM162.682 107.681L163.556 107.195L163.27 106.681H162.682V107.681ZM160.672 108.217L161.176 109.081L161.202 109.066L161.226 109.049L160.672 108.217ZM158.997 109.423L159.606 110.216L159.625 110.201L159.643 110.186L158.997 109.423ZM156.786 110.629L157.116 111.573L157.137 111.566L157.157 111.557L156.786 110.629ZM153.101 110.098C151.074 110.098 149.495 109.517 148.278 108.414L146.935 109.896C148.577 111.384 150.661 112.098 153.101 112.098V110.098ZM148.29 108.425C147.148 107.356 146.53 105.857 146.53 103.795H144.53C144.53 106.289 145.297 108.363 146.924 109.885L148.29 108.425ZM146.53 103.795C146.53 101.757 147.095 100.234 148.137 99.1173L146.675 97.7527C145.215 99.3165 144.53 101.367 144.53 103.795H146.53ZM148.136 99.1182C149.187 97.9945 150.784 97.358 153.101 97.358V95.358C150.415 95.358 148.215 96.1061 146.675 97.7518L148.136 99.1182ZM153.101 97.358H181.978V95.358H153.101V97.358ZM181.978 97.358C184.297 97.358 185.861 97.9953 186.864 99.1053L188.348 97.7647C186.849 96.1054 184.661 95.358 181.978 95.358V97.358ZM186.887 99.13C187.967 100.248 188.549 101.766 188.549 103.795H190.549C190.549 101.357 189.835 99.3024 188.325 97.74L186.887 99.13ZM188.549 103.795C188.549 105.847 187.915 107.343 186.733 108.414L188.076 109.896C189.753 108.377 190.549 106.299 190.549 103.795H188.549ZM186.722 108.425C185.555 109.516 184.005 110.098 181.978 110.098V112.098C184.417 112.098 186.486 111.384 188.088 109.885L186.722 108.425ZM181.978 110.098C180.515 110.098 179.406 109.946 178.609 109.68L177.977 111.578C179.056 111.937 180.403 112.098 181.978 112.098V110.098ZM178.664 109.701C177.831 109.367 177.181 109.007 176.691 108.63L175.472 110.216C176.144 110.733 176.968 111.176 177.921 111.557L178.664 109.701ZM176.728 108.66C176.112 108.139 175.507 107.701 174.911 107.353L173.903 109.081C174.379 109.358 174.89 109.725 175.436 110.186L176.728 108.66ZM174.961 107.385C174.225 106.894 173.349 106.681 172.397 106.681V108.681C173.052 108.681 173.517 108.826 173.852 109.049L174.961 107.385ZM171.502 107.234L170.899 108.44L172.688 109.334L173.291 108.128L171.502 107.234ZM170.88 109.293C171.083 109.749 171.419 110.37 171.87 111.136L173.594 110.122C173.151 109.37 172.862 108.829 172.708 108.481L170.88 109.293ZM171.884 111.159C172.259 111.759 172.653 112.707 173.044 114.057L174.965 113.499C174.553 112.079 174.098 110.928 173.58 110.099L171.884 111.159ZM173.047 114.065C173.409 115.271 173.608 116.992 173.608 119.272H175.608C175.608 116.907 175.405 114.965 174.963 113.491L173.047 114.065ZM173.608 119.272V138.635H175.608V119.272H173.608ZM173.608 138.635C173.608 140.176 173.041 141.42 171.874 142.437L173.188 143.945C174.79 142.55 175.608 140.756 175.608 138.635H173.608ZM171.862 142.448C170.723 143.473 169.315 144 167.573 144V146C169.761 146 171.659 145.321 173.2 143.934L171.862 142.448ZM167.573 144C165.78 144 164.322 143.469 163.138 142.437L161.824 143.945C163.408 145.325 165.346 146 167.573 146V144ZM163.15 142.448C162.024 141.435 161.471 140.188 161.471 138.635H159.471C159.471 140.745 160.257 142.535 161.812 143.934L163.15 142.448ZM161.471 138.635V119.272H159.471V138.635H161.471ZM161.471 119.272C161.471 116.992 161.67 115.271 162.032 114.065L160.116 113.491C159.674 114.965 159.471 116.907 159.471 119.272H161.471ZM162.034 114.057C162.426 112.707 162.82 111.759 163.195 111.159L161.499 110.099C160.981 110.928 160.526 112.079 160.113 113.499L162.034 114.057ZM163.186 111.172C163.683 110.405 164.054 109.77 164.266 109.293L162.438 108.481C162.293 108.808 161.993 109.335 161.507 110.086L163.186 111.172ZM164.226 108.401L163.556 107.195L161.808 108.167L162.478 109.373L164.226 108.401ZM162.682 106.681C161.729 106.681 160.854 106.894 160.117 107.385L161.226 109.049C161.562 108.826 162.026 108.681 162.682 108.681V106.681ZM160.168 107.353C159.572 107.701 158.966 108.139 158.351 108.66L159.643 110.186C160.189 109.725 160.7 109.358 161.176 109.081L160.168 107.353ZM158.387 108.63C157.898 109.007 157.247 109.367 156.414 109.701L157.157 111.557C158.111 111.176 158.934 110.733 159.606 110.216L158.387 108.63ZM156.455 109.685C155.715 109.944 154.615 110.098 153.101 110.098V112.098C154.713 112.098 156.07 111.939 157.116 111.573L156.455 109.685ZM206.265 143.258L206.959 142.539L206.265 143.258ZM206.198 98.1L205.479 97.405L205.473 97.4113L205.467 97.4177L206.198 98.1ZM216.516 98.1L215.785 98.7823L215.796 98.7949L215.809 98.8071L216.516 98.1ZM216.382 143.258L215.711 142.516L215.705 142.521L215.699 142.527L216.382 143.258ZM211.29 144.134C209.455 144.134 208.042 143.584 206.959 142.539L205.57 143.977C207.079 145.434 209.015 146.134 211.29 146.134V144.134ZM206.959 142.539C205.873 141.49 205.322 140.171 205.322 138.501H203.322C203.322 140.673 204.066 142.525 205.57 143.977L206.959 142.539ZM205.322 138.501V103.058H203.322V138.501H205.322ZM205.322 103.058C205.322 101.326 205.864 99.923 206.929 98.7823L205.467 97.4177C204.03 98.957 203.322 100.859 203.322 103.058H205.322ZM206.917 98.795C207.999 97.6754 209.424 97.09 211.29 97.09V95.09C208.957 95.09 206.987 95.8446 205.479 97.405L206.917 98.795ZM211.29 97.09C213.311 97.09 214.763 97.6881 215.785 98.7823L217.247 97.4177C215.767 95.8318 213.735 95.09 211.29 95.09V97.09ZM215.809 98.8071C216.907 99.905 217.459 101.254 217.459 102.924H219.459C219.459 100.752 218.716 98.8856 217.223 97.3929L215.809 98.8071ZM217.459 102.924V138.501H219.459V102.924H217.459ZM217.459 138.501C217.459 140.148 216.879 141.461 215.711 142.516L217.052 144C218.654 142.554 219.459 140.695 219.459 138.501H217.459ZM215.699 142.527C214.567 143.583 213.124 144.134 211.29 144.134V146.134C213.565 146.134 215.516 145.434 217.064 143.989L215.699 142.527ZM235.838 144.464L235.628 145.442L235.638 145.444L235.648 145.446L235.838 144.464ZM228.87 142.186L228.43 143.084L228.442 143.09L228.453 143.095L228.87 142.186ZM223.778 138.501L223.027 139.161L223.032 139.167L223.037 139.173L223.778 138.501ZM224.18 127.513L223.494 126.785L224.18 127.513ZM229.674 125.436L229.631 126.435L229.639 126.435L229.647 126.436L229.674 125.436ZM234.632 126.508L234.256 127.435L234.267 127.439L234.278 127.443L234.632 126.508ZM239.657 128.384L239.311 129.322L239.319 129.325L239.657 128.384ZM248.501 128.652L247.946 127.82V127.82L248.501 128.652ZM248.099 124.632L248.625 123.782L248.099 124.632ZM244.548 123.292L244.31 124.263L244.322 124.266L244.334 124.269L244.548 123.292ZM241.265 122.488L241.503 121.517L241.495 121.515L241.265 122.488ZM232.153 119.808L231.795 120.742L231.802 120.744L231.809 120.747L232.153 119.808ZM225.788 115.788L225.043 116.455L225.052 116.465L225.061 116.475L225.788 115.788ZM226.056 101.517L226.805 102.179L226.813 102.171L226.056 101.517ZM232.957 97.229L232.663 96.2732L232.957 97.229ZM252.32 97.028L252.055 97.9924L252.32 97.028ZM258.752 100.311L258.067 101.039L258.072 101.044L258.077 101.049L258.752 100.311ZM259.288 110.696L258.568 110.002L258.568 110.002L259.288 110.696ZM250.511 111.835L250.204 112.787L250.213 112.789L250.511 111.835ZM246.089 110.562L245.807 111.521L245.823 111.526L245.84 111.53L246.089 110.562ZM237.647 110.629L238.133 111.503L238.151 111.493L238.168 111.482L237.647 110.629ZM238.049 114.515L237.664 115.438L238.049 114.515ZM243.342 116.123L243.095 117.092L243.105 117.095L243.116 117.097L243.342 116.123ZM247.094 116.994L247.333 116.023L247.32 116.02L247.094 116.994ZM255.201 119.741L254.782 120.649L255.201 119.741ZM260.628 123.962L259.825 124.559V124.559L260.628 123.962ZM260.159 139.104L260.953 139.712L260.959 139.704L260.159 139.104ZM253.459 143.727L253.134 142.781L253.459 143.727ZM243.409 144.201C240.973 144.201 238.513 143.962 236.027 143.482L235.648 145.446C238.255 145.949 240.842 146.201 243.409 146.201V144.201ZM236.047 143.486C233.611 142.964 231.359 142.227 229.287 141.277L228.453 143.095C230.669 144.111 233.062 144.892 235.628 145.442L236.047 143.486ZM229.309 141.288C227.301 140.305 225.713 139.147 224.519 137.829L223.037 139.173C224.433 140.713 226.241 142.013 228.43 143.084L229.309 141.288ZM224.529 137.841C223.39 136.545 222.835 135.081 222.835 133.409H220.835C220.835 135.578 221.575 137.509 223.027 139.161L224.529 137.841ZM222.835 133.409C222.835 131.184 223.532 129.498 224.866 128.241L223.494 126.785C221.701 128.476 220.835 130.72 220.835 133.409H222.835ZM224.866 128.241C226.238 126.947 227.808 126.358 229.631 126.435L229.716 124.437C227.341 124.336 225.249 125.131 223.494 126.785L224.866 128.241ZM229.647 126.436C231.171 126.477 232.706 126.806 234.256 127.435L235.008 125.581C233.253 124.87 231.482 124.485 229.701 124.436L229.647 126.436ZM234.278 127.443C235.933 128.07 237.611 128.696 239.311 129.322L240.003 127.446C238.308 126.821 236.636 126.197 234.986 125.573L234.278 127.443ZM239.319 129.325C241.163 129.987 243.019 130.322 244.883 130.322V128.322C243.263 128.322 241.635 128.032 239.995 127.443L239.319 129.325ZM244.883 130.322C246.64 130.322 248.117 130.11 249.056 129.484L247.946 127.82C247.545 128.087 246.61 128.322 244.883 128.322V130.322ZM249.056 129.484C249.984 128.865 250.506 127.96 250.506 126.843H248.506C248.506 127.245 248.358 127.545 247.946 127.82L249.056 129.484ZM250.506 126.843C250.506 125.519 249.778 124.495 248.625 123.782L247.573 125.482C248.296 125.93 248.506 126.381 248.506 126.843H250.506ZM248.625 123.782C247.565 123.126 246.268 122.645 244.762 122.315L244.334 124.269C245.687 124.565 246.757 124.977 247.573 125.482L248.625 123.782ZM244.786 122.321L241.503 121.517L241.027 123.459L244.31 124.263L244.786 122.321ZM241.495 121.515C238.131 120.718 235.133 119.836 232.497 118.869L231.809 120.747C234.533 121.746 237.609 122.65 241.034 123.461L241.495 121.515ZM232.511 118.874C229.935 117.887 227.952 116.62 226.514 115.101L225.061 116.475C226.751 118.261 229.011 119.674 231.795 120.742L232.511 118.874ZM226.533 115.121C225.215 113.648 224.51 111.649 224.51 109.021H222.51C222.51 112.021 223.324 114.534 225.043 116.455L226.533 115.121ZM224.51 109.021C224.51 106.131 225.301 103.882 226.805 102.179L225.307 100.855C223.416 102.994 222.51 105.747 222.51 109.021H224.51ZM226.813 102.171C228.368 100.37 230.496 99.0324 233.251 98.1848L232.663 96.2732C229.611 97.2123 227.139 98.7332 225.299 100.863L226.813 102.171ZM233.251 98.1848C236.044 97.3254 239.181 96.889 242.672 96.889V94.889C239.016 94.889 235.676 95.3459 232.663 96.2732L233.251 98.1848ZM242.672 96.889C246.268 96.889 249.392 97.2621 252.055 97.9924L252.584 96.0636C249.709 95.2752 246.401 94.889 242.672 94.889V96.889ZM252.055 97.9924C254.724 98.724 256.703 99.756 258.067 101.039L259.437 99.5828C257.763 98.0074 255.455 96.8507 252.584 96.0636L252.055 97.9924ZM258.077 101.049C259.441 102.296 260.097 103.773 260.097 105.537H262.097C262.097 103.192 261.19 101.185 259.427 99.573L258.077 101.049ZM260.097 105.537C260.097 107.537 259.551 108.983 258.568 110.002L260.008 111.39C261.437 109.908 262.097 107.914 262.097 105.537H260.097ZM258.568 110.002C257.628 110.979 256.343 111.505 254.598 111.505V113.505C256.784 113.505 258.626 112.825 260.008 111.39L258.568 110.002ZM254.598 111.505C253.418 111.505 252.157 111.302 250.809 110.881L250.213 112.789C251.724 113.262 253.187 113.505 254.598 113.505V111.505ZM250.818 110.883C249.412 110.43 247.919 110 246.338 109.594L245.84 111.53C247.386 111.928 248.84 112.347 250.204 112.787L250.818 110.883ZM246.371 109.603C244.752 109.126 243.026 108.892 241.198 108.892V110.892C242.854 110.892 244.388 111.104 245.807 111.521L246.371 109.603ZM241.198 108.892C239.559 108.892 238.159 109.144 237.125 109.776L238.168 111.482C238.743 111.131 239.71 110.892 241.198 110.892V108.892ZM237.161 109.755C236.119 110.334 235.441 111.233 235.441 112.438H237.441C237.441 112.125 237.566 111.818 238.133 111.503L237.161 109.755ZM235.441 112.438C235.441 113.112 235.639 113.739 236.052 114.273C236.455 114.794 237.019 115.169 237.664 115.438L238.434 113.592C238.007 113.414 237.766 113.22 237.634 113.049C237.511 112.891 237.441 112.702 237.441 112.438H235.441ZM237.664 115.438C238.808 115.915 240.633 116.465 243.095 117.092L243.589 115.154C241.137 114.53 239.434 114.009 238.434 113.592L237.664 115.438ZM243.116 117.097L246.868 117.968L247.32 116.02L243.568 115.149L243.116 117.097ZM246.855 117.965C249.889 118.713 252.529 119.609 254.782 120.649L255.62 118.833C253.228 117.729 250.463 116.794 247.333 116.023L246.855 117.965ZM254.782 120.649C256.98 121.663 258.646 122.973 259.825 124.559L261.43 123.365C260.019 121.467 258.067 119.963 255.62 118.833L254.782 120.649ZM259.825 124.559C260.959 126.083 261.571 128.133 261.571 130.796H263.571C263.571 127.831 262.887 125.325 261.43 123.365L259.825 124.559ZM261.571 130.796C261.571 134.033 260.806 136.575 259.359 138.504L260.959 139.704C262.728 137.345 263.571 134.349 263.571 130.796H261.571ZM259.365 138.496C257.893 140.418 255.834 141.853 253.134 142.781L253.784 144.673C256.801 143.635 259.209 141.989 260.953 139.712L259.365 138.496ZM253.134 142.781C250.404 143.72 247.168 144.201 243.409 144.201V146.201C247.332 146.201 250.797 145.7 253.784 144.673L253.134 142.781Z" fill="black" mask="url(#path-1-outside-1_1_141)"/>
</g>
<g filter="url(#filter1_d_1_141)">
<mask id="path-3-outside-2_1_141" maskUnits="userSpaceOnUse" x="330.706" y="61.9467" width="288.588" height="156.403" fill="black">
<rect fill="white" x="330.706" y="61.9467" width="288.588" height="156.403"/>
<path d="M350.1 167.429C347.179 168.363 344.512 168.282 342.101 167.185C339.749 166.07 338.096 164.023 337.143 161.043C336.21 158.122 336.28 155.524 337.356 153.249C338.471 150.896 340.664 149.197 343.936 148.151L381.704 136.075C384.976 135.029 387.719 135.15 389.934 136.438C392.188 137.649 393.782 139.715 394.716 142.636C395.669 145.615 395.481 148.251 394.154 150.543C392.884 152.816 390.789 154.42 387.868 155.354C385.882 155.989 384.21 156.298 382.852 156.281C381.534 156.187 380.402 155.97 379.456 155.628C378.491 155.229 377.593 154.936 376.761 154.751C375.911 154.508 374.96 154.555 373.908 154.891L373.624 156.72C374.026 157.172 374.677 157.8 375.579 158.607C376.462 159.355 377.456 160.55 378.561 162.193C379.647 163.777 380.676 166.089 381.647 169.126L389.744 194.451C390.51 196.847 390.239 199.123 388.933 201.279C387.684 203.417 385.775 204.896 383.204 205.718C380.576 206.559 378.103 206.48 375.788 205.481C373.531 204.464 372.02 202.758 371.254 200.363L363.157 175.038C362.186 172 361.683 169.521 361.648 167.6C361.595 165.621 361.711 164.071 361.996 162.949C362.321 161.751 362.517 160.851 362.582 160.251L361.202 158.954C360.15 159.29 359.349 159.804 358.797 160.495C358.227 161.128 357.665 161.887 357.111 162.773C356.538 163.6 355.742 164.434 354.723 165.275C353.685 166.057 352.144 166.775 350.1 167.429ZM423.837 192.92C421.149 193.779 418.697 193.662 416.48 192.568C414.263 191.474 412.753 189.671 411.949 187.159L397.128 140.802C396.306 138.232 396.433 135.809 397.508 133.533C398.642 131.239 400.582 129.653 403.328 128.775C406.249 127.841 408.807 127.989 411.004 129.219C413.239 130.371 414.759 132.203 415.562 134.715L430.439 181.247C431.242 183.759 431 186.123 429.712 188.337C428.482 190.533 426.524 192.061 423.837 192.92ZM448.594 184.812C445.673 185.746 443.163 185.55 441.065 184.224C438.967 182.899 437.433 180.717 436.461 177.68L423.321 136.581C422.35 133.543 422.12 130.912 422.633 128.688C423.185 126.386 424.226 124.508 425.757 123.053C427.346 121.579 429.222 120.496 431.383 119.805C434.596 118.778 437.584 118.756 440.345 119.741C443.107 120.725 445.783 123.154 448.373 127.026L468.176 156.336L469.578 155.887L458.819 122.237C457.829 119.141 457.843 116.465 458.86 114.208C459.858 111.892 461.818 110.268 464.739 109.334C467.776 108.362 470.315 108.549 472.355 109.893C474.434 111.16 475.969 113.342 476.958 116.438L489.622 156.047C491.191 160.954 491.269 164.921 489.854 167.949C488.44 170.977 485.776 173.117 481.861 174.368C477.889 175.638 474.456 175.577 471.564 174.184C468.672 172.79 465.987 170.236 463.512 166.52L450.482 147.215C450.178 146.668 449.776 146.217 449.276 145.862C448.816 145.429 448.323 145.297 447.797 145.465C447.155 145.671 446.801 146.074 446.735 146.674C446.651 147.216 446.702 147.779 446.889 148.364L454.425 171.936C455.397 174.974 455.412 177.641 454.473 179.938C453.533 182.234 451.573 183.859 448.594 184.812ZM485.529 121.328C482.677 118.248 481.261 115.127 481.28 111.965C481.281 108.745 482.409 106.131 484.664 104.122C486.978 102.095 489.695 101.226 492.814 101.516C495.973 101.73 498.774 103.442 501.217 106.653C502.439 108.259 503.579 110.213 504.637 112.514C505.676 114.758 506.726 116.933 507.786 119.041C508.886 121.072 510.108 122.678 511.451 123.858C512.834 124.961 514.489 125.205 516.417 124.588C518.345 123.972 519.552 122.813 520.039 121.112C520.506 119.353 520.57 117.336 520.229 115.063C519.929 112.712 519.521 110.331 519.008 107.92C518.534 105.431 518.329 103.178 518.393 101.162C518.578 97.1103 519.867 94.0905 522.258 92.1026C524.63 90.0564 527.346 89.1878 530.407 89.497C533.41 89.8249 535.845 91.2999 537.714 93.9221C539.564 96.4858 540.221 99.8495 539.685 104.013C539.406 106.163 538.807 108.318 537.888 110.479C537.009 112.563 536.003 114.753 534.869 117.047C533.735 119.341 532.667 121.84 531.664 124.543C530.642 127.188 529.869 130.107 529.345 133.301L534.136 148.286C534.901 150.681 534.66 152.948 533.412 155.085C532.164 157.223 530.225 158.712 527.596 159.553C525.026 160.375 522.583 160.286 520.267 159.288C518.011 158.271 516.499 156.565 515.733 154.17L510.942 139.185C508.721 136.869 506.427 134.93 504.06 133.369C501.675 131.749 499.355 130.333 497.1 129.122C494.846 127.911 492.727 126.722 490.743 125.553C488.741 124.326 487.003 122.917 485.529 121.328ZM586.508 114.252C583.821 115.111 581.434 115.198 579.347 114.513C577.319 113.809 575.932 112.289 575.185 109.952C573.672 105.22 574.405 100.768 577.386 96.5955C579.634 93.5585 581.898 90.8708 584.177 88.5324C586.495 86.1169 588.313 83.4431 589.629 80.511C590.304 79.2003 590.532 78.0005 590.313 76.9116C590.075 75.7643 589.483 75.0199 588.537 74.6785C587.649 74.3185 586.717 74.4234 585.74 74.9933C584.744 75.5048 583.909 76.4158 583.233 77.7265C582.422 79.0161 581.815 80.2403 581.413 81.3992C581.011 82.5581 580.617 83.8431 580.231 85.2543C579.583 87.4576 578.566 89.7145 577.18 92.0251C575.833 94.2585 573.963 95.7582 571.567 96.524C568.53 97.4952 565.873 97.4432 563.597 96.3678C561.361 95.2152 559.786 93.2077 558.871 90.3451C558.105 87.9499 558.242 85.4591 559.283 82.8727C560.363 80.2093 562.246 77.7399 564.931 75.4647C567.675 73.1709 571.12 71.3609 575.268 70.0347C582.454 67.7373 588.072 67.4863 592.124 69.2819C596.215 71.0003 598.942 73.9918 600.305 78.2565C601.351 81.528 601.509 84.4395 600.78 86.9909C600.031 89.4839 598.309 92.3528 595.611 95.5977C594.272 97.2493 593.4 98.7516 592.996 100.104C592.631 101.38 592.682 102.748 593.149 104.209C593.896 106.545 593.648 108.589 592.404 110.339C591.161 112.088 589.195 113.393 586.508 114.252ZM580.454 133.38C579.464 130.284 579.654 127.455 581.024 124.892C582.393 122.329 584.773 120.506 588.161 119.422C591.432 118.376 594.34 118.509 596.885 119.821C599.41 121.074 601.168 123.248 602.158 126.344C603.129 129.382 602.979 132.135 601.707 134.602C600.435 137.069 598.105 138.844 594.717 139.928C591.212 141.048 588.206 141.011 585.699 139.817C583.173 138.564 581.425 136.418 580.454 133.38Z"/>
</mask>
<path d="M350.1 167.429C347.179 168.363 344.512 168.282 342.101 167.185C339.749 166.07 338.096 164.023 337.143 161.043C336.21 158.122 336.28 155.524 337.356 153.249C338.471 150.896 340.664 149.197 343.936 148.151L381.704 136.075C384.976 135.029 387.719 135.15 389.934 136.438C392.188 137.649 393.782 139.715 394.716 142.636C395.669 145.615 395.481 148.251 394.154 150.543C392.884 152.816 390.789 154.42 387.868 155.354C385.882 155.989 384.21 156.298 382.852 156.281C381.534 156.187 380.402 155.97 379.456 155.628C378.491 155.229 377.593 154.936 376.761 154.751C375.911 154.508 374.96 154.555 373.908 154.891L373.624 156.72C374.026 157.172 374.677 157.8 375.579 158.607C376.462 159.355 377.456 160.55 378.561 162.193C379.647 163.777 380.676 166.089 381.647 169.126L389.744 194.451C390.51 196.847 390.239 199.123 388.933 201.279C387.684 203.417 385.775 204.896 383.204 205.718C380.576 206.559 378.103 206.48 375.788 205.481C373.531 204.464 372.02 202.758 371.254 200.363L363.157 175.038C362.186 172 361.683 169.521 361.648 167.6C361.595 165.621 361.711 164.071 361.996 162.949C362.321 161.751 362.517 160.851 362.582 160.251L361.202 158.954C360.15 159.29 359.349 159.804 358.797 160.495C358.227 161.128 357.665 161.887 357.111 162.773C356.538 163.6 355.742 164.434 354.723 165.275C353.685 166.057 352.144 166.775 350.1 167.429ZM423.837 192.92C421.149 193.779 418.697 193.662 416.48 192.568C414.263 191.474 412.753 189.671 411.949 187.159L397.128 140.802C396.306 138.232 396.433 135.809 397.508 133.533C398.642 131.239 400.582 129.653 403.328 128.775C406.249 127.841 408.807 127.989 411.004 129.219C413.239 130.371 414.759 132.203 415.562 134.715L430.439 181.247C431.242 183.759 431 186.123 429.712 188.337C428.482 190.533 426.524 192.061 423.837 192.92ZM448.594 184.812C445.673 185.746 443.163 185.55 441.065 184.224C438.967 182.899 437.433 180.717 436.461 177.68L423.321 136.581C422.35 133.543 422.12 130.912 422.633 128.688C423.185 126.386 424.226 124.508 425.757 123.053C427.346 121.579 429.222 120.496 431.383 119.805C434.596 118.778 437.584 118.756 440.345 119.741C443.107 120.725 445.783 123.154 448.373 127.026L468.176 156.336L469.578 155.887L458.819 122.237C457.829 119.141 457.843 116.465 458.86 114.208C459.858 111.892 461.818 110.268 464.739 109.334C467.776 108.362 470.315 108.549 472.355 109.893C474.434 111.16 475.969 113.342 476.958 116.438L489.622 156.047C491.191 160.954 491.269 164.921 489.854 167.949C488.44 170.977 485.776 173.117 481.861 174.368C477.889 175.638 474.456 175.577 471.564 174.184C468.672 172.79 465.987 170.236 463.512 166.52L450.482 147.215C450.178 146.668 449.776 146.217 449.276 145.862C448.816 145.429 448.323 145.297 447.797 145.465C447.155 145.671 446.801 146.074 446.735 146.674C446.651 147.216 446.702 147.779 446.889 148.364L454.425 171.936C455.397 174.974 455.412 177.641 454.473 179.938C453.533 182.234 451.573 183.859 448.594 184.812ZM485.529 121.328C482.677 118.248 481.261 115.127 481.28 111.965C481.281 108.745 482.409 106.131 484.664 104.122C486.978 102.095 489.695 101.226 492.814 101.516C495.973 101.73 498.774 103.442 501.217 106.653C502.439 108.259 503.579 110.213 504.637 112.514C505.676 114.758 506.726 116.933 507.786 119.041C508.886 121.072 510.108 122.678 511.451 123.858C512.834 124.961 514.489 125.205 516.417 124.588C518.345 123.972 519.552 122.813 520.039 121.112C520.506 119.353 520.57 117.336 520.229 115.063C519.929 112.712 519.521 110.331 519.008 107.92C518.534 105.431 518.329 103.178 518.393 101.162C518.578 97.1103 519.867 94.0905 522.258 92.1026C524.63 90.0564 527.346 89.1878 530.407 89.497C533.41 89.8249 535.845 91.2999 537.714 93.9221C539.564 96.4858 540.221 99.8495 539.685 104.013C539.406 106.163 538.807 108.318 537.888 110.479C537.009 112.563 536.003 114.753 534.869 117.047C533.735 119.341 532.667 121.84 531.664 124.543C530.642 127.188 529.869 130.107 529.345 133.301L534.136 148.286C534.901 150.681 534.66 152.948 533.412 155.085C532.164 157.223 530.225 158.712 527.596 159.553C525.026 160.375 522.583 160.286 520.267 159.288C518.011 158.271 516.499 156.565 515.733 154.17L510.942 139.185C508.721 136.869 506.427 134.93 504.06 133.369C501.675 131.749 499.355 130.333 497.1 129.122C494.846 127.911 492.727 126.722 490.743 125.553C488.741 124.326 487.003 122.917 485.529 121.328ZM586.508 114.252C583.821 115.111 581.434 115.198 579.347 114.513C577.319 113.809 575.932 112.289 575.185 109.952C573.672 105.22 574.405 100.768 577.386 96.5955C579.634 93.5585 581.898 90.8708 584.177 88.5324C586.495 86.1169 588.313 83.4431 589.629 80.511C590.304 79.2003 590.532 78.0005 590.313 76.9116C590.075 75.7643 589.483 75.0199 588.537 74.6785C587.649 74.3185 586.717 74.4234 585.74 74.9933C584.744 75.5048 583.909 76.4158 583.233 77.7265C582.422 79.0161 581.815 80.2403 581.413 81.3992C581.011 82.5581 580.617 83.8431 580.231 85.2543C579.583 87.4576 578.566 89.7145 577.18 92.0251C575.833 94.2585 573.963 95.7582 571.567 96.524C568.53 97.4952 565.873 97.4432 563.597 96.3678C561.361 95.2152 559.786 93.2077 558.871 90.3451C558.105 87.9499 558.242 85.4591 559.283 82.8727C560.363 80.2093 562.246 77.7399 564.931 75.4647C567.675 73.1709 571.12 71.3609 575.268 70.0347C582.454 67.7373 588.072 67.4863 592.124 69.2819C596.215 71.0003 598.942 73.9918 600.305 78.2565C601.351 81.528 601.509 84.4395 600.78 86.9909C600.031 89.4839 598.309 92.3528 595.611 95.5977C594.272 97.2493 593.4 98.7516 592.996 100.104C592.631 101.38 592.682 102.748 593.149 104.209C593.896 106.545 593.648 108.589 592.404 110.339C591.161 112.088 589.195 113.393 586.508 114.252ZM580.454 133.38C579.464 130.284 579.654 127.455 581.024 124.892C582.393 122.329 584.773 120.506 588.161 119.422C591.432 118.376 594.34 118.509 596.885 119.821C599.41 121.074 601.168 123.248 602.158 126.344C603.129 129.382 602.979 132.135 601.707 134.602C600.435 137.069 598.105 138.844 594.717 139.928C591.212 141.048 588.206 141.011 585.699 139.817C583.173 138.564 581.425 136.418 580.454 133.38Z" fill="#FF8400"/>
<path d="M342.101 167.185L341.673 168.089L341.68 168.092L341.687 168.096L342.101 167.185ZM337.356 153.249L336.452 152.82L336.452 152.821L337.356 153.249ZM389.934 136.438L389.431 137.303L389.446 137.311L389.461 137.319L389.934 136.438ZM394.154 150.543L393.288 150.042L393.284 150.048L393.281 150.055L394.154 150.543ZM382.852 156.281L382.781 157.279L382.811 157.281L382.84 157.281L382.852 156.281ZM379.456 155.628L379.073 156.552L379.095 156.561L379.117 156.569L379.456 155.628ZM376.761 154.751L376.486 155.713L376.515 155.721L376.544 155.728L376.761 154.751ZM373.908 154.891L373.604 153.938L373.015 154.127L372.92 154.737L373.908 154.891ZM373.624 156.72L372.636 156.567L372.563 157.033L372.877 157.386L373.624 156.72ZM375.579 158.607L374.912 159.352L374.922 159.361L374.933 159.37L375.579 158.607ZM378.561 162.193L377.731 162.751L377.736 162.758L378.561 162.193ZM388.933 201.279L388.077 200.761L388.073 200.768L388.069 200.775L388.933 201.279ZM375.788 205.481L375.377 206.393L375.385 206.397L375.392 206.4L375.788 205.481ZM361.648 167.6L362.648 167.582L362.648 167.573L361.648 167.6ZM361.996 162.949L361.031 162.688L361.029 162.695L361.027 162.703L361.996 162.949ZM362.582 160.251L363.576 160.359L363.631 159.863L363.267 159.522L362.582 160.251ZM361.202 158.954L361.886 158.225L361.458 157.822L360.897 158.001L361.202 158.954ZM358.797 160.495L359.54 161.164L359.56 161.142L359.579 161.119L358.797 160.495ZM357.111 162.773L357.933 163.342L357.946 163.323L357.958 163.303L357.111 162.773ZM354.723 165.275L355.325 166.073L355.343 166.06L355.36 166.046L354.723 165.275ZM349.795 166.477C347.071 167.348 344.665 167.253 342.515 166.275L341.687 168.096C344.36 169.311 347.286 169.378 350.404 168.382L349.795 166.477ZM342.53 166.282C340.477 165.309 338.983 163.512 338.096 160.739L336.191 161.348C337.209 164.534 339.021 166.832 341.673 168.089L342.53 166.282ZM338.096 160.739C337.221 158.004 337.315 155.675 338.26 153.676L336.452 152.821C335.245 155.374 335.198 158.241 336.191 161.348L338.096 160.739ZM338.259 153.677C339.221 151.647 341.144 150.093 344.24 149.103L343.631 147.198C340.184 148.3 337.72 150.145 336.452 152.82L338.259 153.677ZM344.24 149.103L382.009 137.028L381.4 135.123L343.631 147.198L344.24 149.103ZM382.009 137.028C385.107 136.037 387.536 136.201 389.431 137.303L390.436 135.574C387.902 134.1 384.844 134.021 381.4 135.123L382.009 137.028ZM389.461 137.319C391.442 138.384 392.892 140.214 393.764 142.941L395.669 142.331C394.673 139.216 392.934 136.914 390.407 135.557L389.461 137.319ZM393.764 142.941C394.647 145.704 394.449 148.038 393.288 150.042L395.019 151.044C396.514 148.464 396.69 145.527 395.669 142.331L393.764 142.941ZM393.281 150.055C392.156 152.068 390.289 153.53 387.564 154.401L388.173 156.306C391.289 155.31 393.612 153.564 395.027 151.03L393.281 150.055ZM387.564 154.401C385.631 155.019 384.073 155.296 382.865 155.281L382.84 157.281C384.346 157.3 386.133 156.958 388.173 156.306L387.564 154.401ZM382.923 155.284C381.67 155.195 380.633 154.99 379.796 154.688L379.117 156.569C380.172 156.95 381.399 157.18 382.781 157.279L382.923 155.284ZM379.839 154.705C378.832 154.287 377.878 153.975 376.978 153.775L376.544 155.728C377.308 155.897 378.151 156.17 379.073 156.552L379.839 154.705ZM377.036 153.79C375.954 153.48 374.796 153.557 373.604 153.938L374.213 155.843C375.123 155.552 375.868 155.536 376.486 155.713L377.036 153.79ZM372.92 154.737L372.636 156.567L374.612 156.874L374.896 155.045L372.92 154.737ZM372.877 157.386C373.318 157.881 374.005 158.54 374.912 159.352L376.246 157.861C375.35 157.06 374.733 156.462 374.37 156.055L372.877 157.386ZM374.933 159.37C375.713 160.031 376.647 161.138 377.731 162.751L379.391 161.635C378.265 159.961 377.211 158.679 376.225 157.844L374.933 159.37ZM377.736 162.758C378.743 164.227 379.736 166.433 380.694 169.431L382.599 168.822C381.615 165.744 380.551 163.328 379.386 161.628L377.736 162.758ZM380.694 169.431L388.791 194.756L390.696 194.147L382.599 168.822L380.694 169.431ZM388.791 194.756C389.469 196.875 389.235 198.851 388.077 200.761L389.788 201.797C391.244 199.394 391.551 196.818 390.696 194.147L388.791 194.756ZM388.069 200.775C386.957 202.679 385.258 204.012 382.9 204.766L383.509 206.671C386.292 205.781 388.412 204.154 389.796 201.783L388.069 200.775ZM382.9 204.766C380.478 205.54 378.256 205.457 376.184 204.563L375.392 206.4C377.951 207.503 380.674 207.577 383.509 206.671L382.9 204.766ZM376.199 204.57C374.205 203.671 372.888 202.189 372.206 200.059L370.301 200.668C371.152 203.328 372.857 205.258 375.377 206.393L376.199 204.57ZM372.206 200.059L364.109 174.734L362.204 175.343L370.301 200.668L372.206 200.059ZM364.109 174.734C363.151 171.736 362.68 169.363 362.648 167.582L360.648 167.618C360.685 169.679 361.22 172.265 362.204 175.343L364.109 174.734ZM362.648 167.573C362.596 165.631 362.713 164.187 362.965 163.196L361.027 162.703C360.709 163.955 360.594 165.611 360.649 167.627L362.648 167.573ZM362.961 163.211C363.289 162.003 363.502 161.041 363.576 160.359L361.588 160.142C361.532 160.661 361.354 161.498 361.031 162.688L362.961 163.211ZM363.267 159.522L361.886 158.225L360.517 159.682L361.898 160.979L363.267 159.522ZM360.897 158.001C359.704 158.382 358.717 158.991 358.015 159.871L359.579 161.119C359.98 160.616 360.596 160.197 361.506 159.906L360.897 158.001ZM358.054 159.826C357.437 160.51 356.841 161.318 356.263 162.242L357.958 163.303C358.488 162.457 359.016 161.746 359.54 161.164L358.054 159.826ZM356.288 162.204C355.781 162.936 355.055 163.704 354.087 164.503L355.36 166.046C356.429 165.164 357.294 164.264 357.933 163.342L356.288 162.204ZM354.121 164.476C353.213 165.161 351.793 165.838 349.795 166.477L350.404 168.382C352.496 167.713 354.158 166.953 355.325 166.073L354.121 164.476ZM416.48 192.568L416.922 191.671L416.48 192.568ZM397.508 133.533L396.612 133.09L396.608 133.098L396.604 133.106L397.508 133.533ZM411.004 129.219L410.515 130.091L410.53 130.1L410.545 130.107L411.004 129.219ZM429.712 188.337L428.848 187.835L428.843 187.842L428.839 187.849L429.712 188.337ZM423.532 191.968C421.054 192.76 418.874 192.634 416.922 191.671L416.037 193.465C418.52 194.69 421.245 194.799 424.141 193.873L423.532 191.968ZM416.922 191.671C414.966 190.706 413.629 189.127 412.902 186.854L410.997 187.463C411.876 190.215 413.559 192.242 416.037 193.465L416.922 191.671ZM412.902 186.854L398.081 140.498L396.176 141.107L410.997 187.463L412.902 186.854ZM398.081 140.498C397.33 138.15 397.454 135.99 398.413 133.961L396.604 133.106C395.412 135.628 395.283 138.314 396.176 141.107L398.081 140.498ZM398.405 133.976C399.403 131.957 401.109 130.534 403.632 129.728L403.023 127.823C400.055 128.772 397.882 130.521 396.612 133.09L398.405 133.976ZM403.632 129.728C406.351 128.858 408.612 129.026 410.515 130.091L411.492 128.346C409.003 126.952 406.146 126.824 403.023 127.823L403.632 129.728ZM410.545 130.107C412.533 131.132 413.883 132.747 414.61 135.02L416.515 134.411C415.635 131.66 413.946 129.61 411.462 128.33L410.545 130.107ZM414.61 135.02L429.487 181.552L431.392 180.942L416.515 134.411L414.61 135.02ZM429.487 181.552C430.207 183.803 429.989 185.872 428.848 187.835L430.576 188.84C432.011 186.373 432.278 183.715 431.392 180.942L429.487 181.552ZM428.839 187.849C427.749 189.797 426.01 191.176 423.532 191.968L424.141 193.873C427.038 192.947 429.216 191.27 430.585 188.826L428.839 187.849ZM441.065 184.224L440.531 185.07L441.065 184.224ZM422.633 128.688L421.66 128.455L421.658 128.463L422.633 128.688ZM425.757 123.053L425.077 122.32L425.068 122.328L425.757 123.053ZM440.345 119.741L440.009 120.683L440.345 119.741ZM448.373 127.026L447.542 127.582L447.545 127.586L448.373 127.026ZM468.176 156.336L467.347 156.895L467.767 157.516L468.48 157.288L468.176 156.336ZM469.578 155.887L469.882 156.84L470.835 156.535L470.53 155.583L469.578 155.887ZM458.86 114.208L459.771 114.618L459.775 114.611L459.778 114.604L458.86 114.208ZM472.355 109.893L471.804 110.728L471.819 110.738L471.834 110.747L472.355 109.893ZM489.854 167.949L488.948 167.526L489.854 167.949ZM471.564 174.184L471.13 175.084L471.564 174.184ZM463.512 166.52L464.344 165.965L464.34 165.96L463.512 166.52ZM450.482 147.215L449.607 147.7L449.628 147.738L449.653 147.774L450.482 147.215ZM449.276 145.862L448.592 146.59L448.641 146.637L448.697 146.677L449.276 145.862ZM446.735 146.674L447.723 146.828L447.727 146.805L447.729 146.783L446.735 146.674ZM448.289 183.859C445.577 184.726 443.389 184.51 441.599 183.379L440.531 185.07C442.937 186.59 445.768 186.765 448.898 185.764L448.289 183.859ZM441.599 183.379C439.751 182.211 438.334 180.254 437.414 177.375L435.509 177.984C436.531 181.181 438.183 183.587 440.531 185.07L441.599 183.379ZM437.414 177.375L424.274 136.277L422.369 136.886L435.509 177.984L437.414 177.375ZM424.274 136.277C423.336 133.345 423.148 130.905 423.607 128.912L421.658 128.463C421.093 130.919 421.363 133.742 422.369 136.886L424.274 136.277ZM423.605 128.921C424.118 126.784 425.072 125.084 426.446 123.778L425.068 122.328C423.381 123.932 422.252 125.989 421.66 128.455L423.605 128.921ZM426.437 123.786C427.914 122.416 429.659 121.406 431.688 120.758L431.079 118.853C428.784 119.586 426.779 120.741 425.077 122.32L426.437 123.786ZM431.688 120.758C434.725 119.787 437.485 119.783 440.009 120.683L440.681 118.799C437.683 117.73 434.468 117.769 431.079 118.853L431.688 120.758ZM440.009 120.683C442.481 121.564 445.006 123.791 447.542 127.582L449.204 126.47C446.56 122.517 443.733 119.887 440.681 118.799L440.009 120.683ZM447.545 127.586L467.347 156.895L469.004 155.776L449.202 126.466L447.545 127.586ZM468.48 157.288L469.882 156.84L469.273 154.935L467.871 155.383L468.48 157.288ZM470.53 155.583L459.772 121.933L457.867 122.542L468.625 156.192L470.53 155.583ZM459.772 121.933C458.833 118.997 458.884 116.587 459.771 114.618L457.948 113.797C456.801 116.342 456.825 119.286 457.867 122.542L459.772 121.933ZM459.778 114.604C460.637 112.611 462.333 111.153 465.043 110.286L464.434 108.381C461.303 109.382 459.079 111.174 457.941 113.812L459.778 114.604ZM465.043 110.286C467.888 109.377 470.09 109.598 471.804 110.728L472.905 109.058C470.54 107.499 467.665 107.348 464.434 108.381L465.043 110.286ZM471.834 110.747C473.648 111.852 475.064 113.798 476.006 116.742L477.911 116.133C476.873 112.885 475.22 110.468 472.875 109.039L471.834 110.747ZM476.006 116.742L488.67 156.351L490.575 155.742L477.911 116.133L476.006 116.742ZM488.67 156.351C490.202 161.144 490.211 164.823 488.948 167.526L490.76 168.373C492.326 165.02 492.18 160.764 490.575 155.742L488.67 156.351ZM488.948 167.526C487.678 170.245 485.271 172.228 481.557 173.416L482.166 175.321C486.28 174.005 489.202 171.709 490.76 168.373L488.948 167.526ZM481.557 173.416C477.753 174.632 474.597 174.535 471.998 173.283L471.13 175.084C474.315 176.619 478.025 176.645 482.166 175.321L481.557 173.416ZM471.998 173.283C469.318 171.992 466.757 169.588 464.344 165.965L462.679 167.074C465.218 170.884 468.025 173.589 471.13 175.084L471.998 173.283ZM464.34 165.96L451.31 146.655L449.653 147.774L462.683 167.079L464.34 165.96ZM451.356 146.729C450.981 146.055 450.48 145.49 449.856 145.047L448.697 146.677C449.073 146.944 449.375 147.281 449.607 147.7L451.356 146.729ZM449.961 145.133C449.282 144.495 448.421 144.216 447.493 144.513L448.102 146.418C448.225 146.378 448.35 146.364 448.592 146.59L449.961 145.133ZM447.493 144.513C447.043 144.657 446.622 144.893 446.299 145.262C445.969 145.637 445.793 146.088 445.741 146.566L447.729 146.783C447.742 146.66 447.776 146.61 447.801 146.582C447.831 146.547 447.909 146.479 448.102 146.418L447.493 144.513ZM445.747 146.521C445.636 147.233 445.708 147.954 445.936 148.668L447.841 148.059C447.696 147.605 447.665 147.199 447.723 146.828L445.747 146.521ZM445.936 148.668L453.473 172.241L455.378 171.632L447.841 148.059L445.936 148.668ZM453.473 172.241C454.393 175.12 454.375 177.536 453.547 179.559L455.398 180.317C456.45 177.747 456.4 174.828 455.378 171.632L453.473 172.241ZM453.547 179.559C452.747 181.513 451.066 182.971 448.289 183.859L448.898 185.764C452.08 184.747 454.318 182.956 455.398 180.317L453.547 179.559ZM485.529 121.328L484.795 122.007L484.796 122.008L485.529 121.328ZM481.28 111.965L482.28 111.971L482.28 111.966L481.28 111.965ZM484.664 104.122L484.005 103.37L483.999 103.375L484.664 104.122ZM492.814 101.516L492.721 102.512L492.734 102.513L492.746 102.514L492.814 101.516ZM501.217 106.653L502.013 106.048L501.217 106.653ZM504.637 112.514L503.728 112.932L503.729 112.935L504.637 112.514ZM507.786 119.041L506.893 119.491L506.899 119.504L506.907 119.518L507.786 119.041ZM511.451 123.858L510.791 124.609L510.809 124.625L510.827 124.64L511.451 123.858ZM520.039 121.112L521 121.387L521.003 121.378L521.005 121.369L520.039 121.112ZM520.229 115.063L519.238 115.19L519.239 115.2L519.24 115.211L520.229 115.063ZM519.008 107.92L518.026 108.107L518.028 108.117L518.03 108.128L519.008 107.92ZM518.393 101.162L517.394 101.116L517.394 101.123L517.393 101.13L518.393 101.162ZM522.258 92.1026L522.897 92.8716L522.904 92.8658L522.911 92.8598L522.258 92.1026ZM530.407 89.497L530.516 88.5029L530.508 88.5021L530.407 89.497ZM537.714 93.9221L536.899 94.5024L536.903 94.5072L537.714 93.9221ZM539.685 104.013L540.676 104.142L540.676 104.141L539.685 104.013ZM537.888 110.479L536.968 110.088L536.967 110.091L537.888 110.479ZM534.869 117.047L535.765 117.49L534.869 117.047ZM531.664 124.543L532.597 124.903L532.601 124.891L531.664 124.543ZM529.345 133.301L528.358 133.139L528.319 133.377L528.392 133.606L529.345 133.301ZM520.267 159.288L519.857 160.2L519.864 160.203L519.871 160.206L520.267 159.288ZM510.942 139.185L511.895 138.88L511.824 138.66L511.664 138.493L510.942 139.185ZM504.06 133.369L503.498 134.196L503.509 134.203L504.06 133.369ZM490.743 125.553L490.221 126.405L490.228 126.41L490.236 126.414L490.743 125.553ZM486.263 120.649C483.525 117.692 482.263 114.805 482.28 111.971L480.28 111.959C480.259 115.449 481.829 118.803 484.795 122.007L486.263 120.649ZM482.28 111.966C482.281 109.01 483.302 106.674 485.329 104.869L483.999 103.375C481.515 105.588 480.281 108.481 480.28 111.965L482.28 111.966ZM485.323 104.874C487.426 103.031 489.87 102.247 492.721 102.512L492.907 100.521C489.52 100.205 486.53 101.158 484.005 103.37L485.323 104.874ZM492.746 102.514C495.542 102.703 498.102 104.21 500.422 107.259L502.013 106.048C499.447 102.675 496.403 100.757 492.881 100.519L492.746 102.514ZM500.422 107.259C501.589 108.793 502.693 110.681 503.728 112.932L505.545 112.097C504.464 109.744 503.289 107.724 502.013 106.048L500.422 107.259ZM503.729 112.935C504.773 115.187 505.827 117.373 506.893 119.491L508.679 118.592C507.624 116.494 506.579 114.328 505.544 112.094L503.729 112.935ZM506.907 119.518C508.047 121.624 509.337 123.332 510.791 124.609L512.111 123.107C510.878 122.023 509.725 120.521 508.665 118.565L506.907 119.518ZM510.827 124.64C512.513 125.984 514.529 126.242 516.722 125.541L516.113 123.636C514.45 124.167 513.155 123.938 512.075 123.076L510.827 124.64ZM516.722 125.541C518.915 124.84 520.407 123.46 521 121.387L519.077 120.837C518.697 122.166 517.776 123.104 516.113 123.636L516.722 125.541ZM521.005 121.369C521.516 119.448 521.574 117.289 521.218 114.915L519.24 115.211C519.566 117.384 519.497 119.258 519.072 120.855L521.005 121.369ZM521.221 114.936C520.917 112.557 520.505 110.149 519.986 107.711L518.03 108.128C518.538 110.513 518.94 112.867 519.238 115.19L521.221 114.936ZM519.99 107.733C519.527 105.299 519.332 103.121 519.392 101.193L517.393 101.13C517.327 103.236 517.542 105.563 518.026 108.107L519.99 107.733ZM519.392 101.208C519.569 97.3466 520.783 94.629 522.897 92.8716L521.618 91.3337C518.95 93.552 517.588 96.8739 517.394 101.116L519.392 101.208ZM522.911 92.8598C525.079 90.9892 527.525 90.2109 530.307 90.492L530.508 88.5021C527.168 88.1647 524.18 89.1235 521.604 91.3454L522.911 92.8598ZM530.299 90.4911C532.997 90.7858 535.184 92.0952 536.899 94.5024L538.528 93.3417C536.506 90.5046 533.822 88.864 530.516 88.5029L530.299 90.4911ZM536.903 94.5072C538.561 96.8048 539.207 99.8891 538.693 103.886L540.676 104.141C541.234 99.8099 540.567 96.1668 538.525 93.3369L536.903 94.5072ZM538.693 103.885C538.427 105.937 537.854 108.004 536.968 110.088L538.809 110.871C539.76 108.633 540.385 106.389 540.676 104.142L538.693 103.885ZM536.967 110.091C536.097 112.154 535.099 114.325 533.972 116.604L535.765 117.49C536.907 115.18 537.922 112.973 538.81 110.868L536.967 110.091ZM533.972 116.604C532.822 118.933 531.74 121.464 530.726 124.195L532.601 124.891C533.594 122.216 534.649 119.75 535.765 117.49L533.972 116.604ZM530.731 124.183C529.681 126.9 528.892 129.887 528.358 133.139L530.331 133.463C530.846 130.328 531.603 127.476 532.596 124.903L530.731 124.183ZM528.392 133.606L533.183 148.591L535.088 147.981L530.297 132.997L528.392 133.606ZM533.183 148.591C533.864 150.721 533.651 152.693 532.548 154.581L534.275 155.59C535.669 153.203 535.939 150.642 535.088 147.981L533.183 148.591ZM532.548 154.581C531.439 156.48 529.714 157.826 527.292 158.6L527.901 160.505C530.736 159.599 532.888 157.966 534.275 155.59L532.548 154.581ZM527.292 158.6C524.934 159.354 522.741 159.265 520.663 158.37L519.871 160.206C522.425 161.307 525.118 161.395 527.901 160.505L527.292 158.6ZM520.678 158.376C518.684 157.478 517.367 155.995 516.686 153.865L514.781 154.474C515.631 157.135 517.337 159.064 519.857 160.2L520.678 158.376ZM516.686 153.865L511.895 138.88L509.99 139.489L514.781 154.474L516.686 153.865ZM511.664 138.493C509.398 136.13 507.047 134.141 504.611 132.534L503.509 134.203C505.806 135.719 508.044 137.608 510.221 139.877L511.664 138.493ZM504.622 132.541C502.212 130.904 499.862 129.471 497.574 128.241L496.627 130.003C498.848 131.196 501.138 132.593 503.498 134.196L504.622 132.541ZM497.574 128.241C495.329 127.036 493.222 125.853 491.251 124.691L490.236 126.414C492.232 127.59 494.362 128.787 496.627 130.003L497.574 128.241ZM491.266 124.7C489.335 123.517 487.669 122.165 486.262 120.648L484.796 122.008C486.337 123.669 488.147 125.134 490.221 126.405L491.266 124.7ZM579.347 114.513L579.019 115.458L579.027 115.461L579.035 115.463L579.347 114.513ZM577.386 96.5955L576.582 96.0005L576.577 96.0073L576.572 96.0143L577.386 96.5955ZM584.177 88.5324L584.893 89.2303L584.898 89.2249L584.177 88.5324ZM589.629 80.511L588.74 80.0528L588.728 80.0768L588.716 80.1015L589.629 80.511ZM590.313 76.9116L591.293 76.7141L591.292 76.7085L590.313 76.9116ZM588.537 74.6785L588.161 75.6052L588.179 75.6126L588.197 75.6192L588.537 74.6785ZM585.74 74.9933L586.197 75.8828L586.22 75.8705L586.244 75.857L585.74 74.9933ZM583.233 77.7265L584.079 78.2589L584.102 78.2227L584.122 78.1847L583.233 77.7265ZM581.413 81.3992L580.468 81.0713L581.413 81.3992ZM580.231 85.2543L581.19 85.5364L581.193 85.5273L581.195 85.5181L580.231 85.2543ZM577.18 92.0251L578.036 92.5413L578.037 92.5395L577.18 92.0251ZM563.597 96.3678L563.139 97.2566L563.154 97.2645L563.17 97.2719L563.597 96.3678ZM559.283 82.8727L558.356 82.4969L558.355 82.4995L559.283 82.8727ZM564.931 75.4647L564.289 74.6975L564.284 74.7018L564.931 75.4647ZM592.124 69.2819L591.718 70.1961L591.727 70.2L591.736 70.2038L592.124 69.2819ZM600.78 86.9909L601.738 87.2784L601.741 87.2658L600.78 86.9909ZM595.611 95.5977L594.842 94.9584L594.835 94.9678L595.611 95.5977ZM592.996 100.104L592.037 99.8178L592.034 99.8294L592.996 100.104ZM581.024 124.892L580.142 124.42L581.024 124.892ZM596.885 119.821L596.426 120.709L596.433 120.713L596.44 120.716L596.885 119.821ZM585.699 139.817L585.254 140.713L585.262 140.716L585.269 140.72L585.699 139.817ZM586.203 113.3C583.659 114.113 581.495 114.166 579.659 113.563L579.035 115.463C581.372 116.231 583.982 116.11 586.812 115.205L586.203 113.3ZM579.675 113.568C577.99 112.984 576.804 111.734 576.137 109.648L574.232 110.257C575.059 112.844 576.649 114.635 579.019 115.458L579.675 113.568ZM576.137 109.648C574.724 105.227 575.396 101.102 578.199 97.1767L576.572 96.0143C573.415 100.434 572.619 105.213 574.232 110.257L576.137 109.648ZM578.189 97.1906C580.415 94.1843 582.65 91.5319 584.893 89.2303L583.46 87.8345C581.146 90.2097 578.853 92.9327 576.582 96.0005L578.189 97.1906ZM584.898 89.2249C587.293 86.7302 589.176 83.9615 590.541 80.9205L588.716 80.1015C587.449 82.9247 585.698 85.5036 583.455 87.8399L584.898 89.2249ZM590.518 80.9692C591.263 79.5229 591.57 78.0891 591.293 76.7141L589.333 77.1091C589.495 77.9119 589.346 78.8777 588.74 80.0528L590.518 80.9692ZM591.292 76.7085C590.997 75.2869 590.208 74.2184 588.876 73.7379L588.197 75.6192C588.758 75.8214 589.153 76.2417 589.334 77.1148L591.292 76.7085ZM588.913 73.7518C587.684 73.2536 586.426 73.4352 585.236 74.1295L586.244 75.857C587.007 75.4116 587.614 75.3834 588.161 75.6052L588.913 73.7518ZM585.283 74.1038C584.051 74.7367 583.085 75.8307 582.344 77.2683L584.122 78.1847C584.732 77.0009 585.437 76.2728 586.197 75.8828L585.283 74.1038ZM582.386 77.1941C581.544 78.5332 580.9 79.826 580.468 81.0713L582.358 81.7271C582.73 80.6547 583.299 79.499 584.079 78.2589L582.386 77.1941ZM580.468 81.0713C580.058 82.2549 579.657 83.5617 579.266 84.9905L581.195 85.5181C581.577 84.1245 581.964 82.8612 582.358 81.7271L580.468 81.0713ZM579.271 84.9722C578.651 87.0814 577.672 89.2606 576.322 91.5106L578.037 92.5395C579.46 90.1683 580.515 87.8337 581.19 85.5364L579.271 84.9722ZM576.323 91.5088C575.097 93.5432 573.418 94.8824 571.263 95.5715L571.872 97.4765C574.507 96.634 576.57 94.9738 578.036 92.5413L576.323 91.5088ZM571.263 95.5715C568.399 96.487 566.015 96.4041 564.025 95.4636L563.17 97.2719C565.731 98.4823 568.66 98.5034 571.872 97.4765L571.263 95.5715ZM564.055 95.4789C562.1 94.4711 560.674 92.7033 559.823 90.0406L557.918 90.6497C558.897 93.7121 560.622 95.9594 563.139 97.2566L564.055 95.4789ZM559.823 90.0406C559.136 87.8917 559.247 85.6412 560.21 83.2459L558.355 82.4995C557.238 85.277 557.074 88.0081 557.918 90.6497L559.823 90.0406ZM560.209 83.2486C561.217 80.7649 562.988 78.4216 565.577 76.2277L564.284 74.7018C561.503 77.0583 559.509 79.6536 558.356 82.4969L560.209 83.2486ZM565.572 76.2319C568.198 74.037 571.522 72.2823 575.573 70.9872L574.964 69.0822C570.719 70.4394 567.151 72.3048 564.289 74.6975L565.572 76.2319ZM575.573 70.9872C582.676 68.7161 588.003 68.5493 591.718 70.1961L592.529 68.3676C588.142 66.4234 582.232 66.7584 574.964 69.0822L575.573 70.9872ZM591.736 70.2038C595.555 71.8078 598.077 74.572 599.353 78.561L601.258 77.952C599.806 73.4117 596.874 70.1928 592.511 68.3599L591.736 70.2038ZM599.353 78.561C600.356 81.6993 600.48 84.403 599.818 86.7159L601.741 87.2658C602.539 84.476 602.346 81.3567 601.258 77.952L599.353 78.561ZM599.822 86.7034C599.129 89.0122 597.501 91.7605 594.842 94.9584L596.38 96.2369C599.117 92.9451 600.934 89.9555 601.738 87.2784L599.822 86.7034ZM594.835 94.9678C593.451 96.6746 592.494 98.2931 592.038 99.8178L593.954 100.391C594.307 99.21 595.094 97.8241 596.388 96.2275L594.835 94.9678ZM592.034 99.8294C591.607 101.323 591.679 102.895 592.196 104.513L594.101 103.904C593.685 102.602 593.655 101.437 593.957 100.379L592.034 99.8294ZM592.196 104.513C592.863 106.599 592.622 108.305 591.589 109.759L593.219 110.918C594.673 108.872 594.929 106.492 594.101 103.904L592.196 104.513ZM591.589 109.759C590.505 111.284 588.749 112.486 586.203 113.3L586.812 115.205C589.641 114.3 591.816 112.892 593.219 110.918L591.589 109.759ZM581.406 133.076C580.488 130.204 580.679 127.658 581.905 125.363L580.142 124.42C578.629 127.251 578.44 130.365 579.501 133.685L581.406 133.076ZM581.905 125.363C583.127 123.079 585.266 121.398 588.466 120.375L587.856 118.47C584.279 119.614 581.66 121.579 580.142 124.42L581.905 125.363ZM588.466 120.375C591.538 119.392 594.164 119.543 596.426 120.709L597.343 118.932C594.517 117.475 591.327 117.36 587.856 118.47L588.466 120.375ZM596.44 120.716C598.686 121.83 600.284 123.768 601.205 126.649L603.11 126.04C602.052 122.729 600.135 120.317 597.329 118.925L596.44 120.716ZM601.205 126.649C602.109 129.475 601.95 131.948 600.818 134.144L602.596 135.06C604.008 132.322 604.149 129.29 603.11 126.04L601.205 126.649ZM600.818 134.144C599.7 136.314 597.623 137.949 594.413 138.975L595.022 140.88C598.588 139.74 601.171 137.825 602.596 135.06L600.818 134.144ZM594.413 138.975C591.069 140.044 588.34 139.968 586.129 138.914L585.269 140.72C588.072 142.055 591.355 142.053 595.022 140.88L594.413 138.975ZM586.143 138.921C583.893 137.804 582.307 135.893 581.406 133.076L579.501 133.685C580.543 136.943 582.454 139.323 585.254 140.713L586.143 138.921Z" fill="black" mask="url(#path-3-outside-2_1_141)"/>
</g>
<defs>
<filter id="filter0_d_1_141" x="1.07199" y="95.822" width="261.499" height="52.647" filterUnits="userSpaceOnUse" color-interpolation-filters="sRGB">
<feFlood flood-opacity="0" result="BackgroundImageFix"/>
<feColorMatrix in="SourceAlpha" type="matrix" values="0 0 0 0 0 0 0 0 0 0 0 0 0 0 0 0 0 0 127 0" result="hardAlpha"/>
<feOffset dy="3"/>
<feComposite in2="hardAlpha" operator="out"/>
<feColorMatrix type="matrix" values="0 0 0 0 0 0 0 0 0 0 0 0 0 0 0 0 0 0 1 0"/>
<feBlend mode="normal" in2="BackgroundImageFix" result="effect1_dropShadow_1_141"/>
<feBlend mode="normal" in="SourceGraphic" in2="effect1_dropShadow_1_141" result="shape"/>
</filter>
<filter id="filter1_d_1_141" x="332.829" y="63.5347" width="284.847" height="156.066" filterUnits="userSpaceOnUse" color-interpolation-filters="sRGB">
<feFlood flood-opacity="0" result="BackgroundImageFix"/>
<feColorMatrix in="SourceAlpha" type="matrix" values="0 0 0 0 0 0 0 0 0 0 0 0 0 0 0 0 0 0 127 0" result="hardAlpha"/>
<feOffset dy="3"/>
<feComposite in2="hardAlpha" operator="out"/>
<feColorMatrix type="matrix" values="0 0 0 0 0 0 0 0 0 0 0 0 0 0 0 0 0 0 1 0"/>
<feBlend mode="normal" in2="BackgroundImageFix" result="effect1_dropShadow_1_141"/>
<feBlend mode="normal" in="SourceGraphic" in2="effect1_dropShadow_1_141" result="shape"/>
</filter>
</defs>
</svg>
