<svg width="769" height="268" viewBox="0 0 769 268" fill="none" xmlns="http://www.w3.org/2000/svg">
<g filter="url(#filter0_d_1_141)">
<mask id="path-1-outside-1_1_141" maskUnits="userSpaceOnUse" x="0" y="94" width="264" height="53" fill="black">
<rect fill="white" y="94" width="264" height="53"/>
<path d="M21.038 145.201C18.3133 145.201 16.1693 144.531 14.606 143.191C13.0427 141.851 11.792 140.02 10.854 137.697C9.96067 135.33 9.112 132.65 8.308 129.657L1.809 105.537C1.31767 103.661 1.42933 101.919 2.144 100.311C2.85867 98.6583 4.26567 97.564 6.365 97.028C8.33033 96.492 10.0723 96.626 11.591 97.43C13.1097 98.234 14.137 99.641 14.673 101.651L20.703 123.694C21.239 125.615 21.7973 127.022 22.378 127.915C23.0033 128.808 23.986 129.099 25.326 128.786C26.5767 128.473 27.2467 127.781 27.336 126.709C27.4253 125.637 27.202 124.118 26.666 122.153L22.378 105.872C21.7973 103.639 21.8643 101.718 22.579 100.11C23.3383 98.4573 24.8123 97.3853 27.001 96.894C29.2343 96.358 31.021 96.6483 32.361 97.765C33.7457 98.837 34.6837 100.356 35.175 102.321L40.602 123.694C41.1827 125.883 41.808 127.357 42.478 128.116C43.1927 128.875 44.1083 129.099 45.225 128.786C46.4757 128.429 47.0787 127.736 47.034 126.709C46.9893 125.637 46.833 124.096 46.565 122.086C46.163 118.959 45.8057 116.391 45.493 114.381C45.225 112.371 45.0017 110.696 44.823 109.356C44.689 108.016 44.622 106.788 44.622 105.671C44.622 103.17 45.359 101.048 46.833 99.306C48.307 97.5193 50.317 96.626 52.863 96.626C55.4537 96.626 57.419 97.43 58.759 99.038C60.099 100.601 60.769 102.768 60.769 105.537C60.769 107.324 60.501 109.2 59.965 111.165C59.4737 113.13 58.9823 114.984 58.491 116.726L54.739 129.657C53.8903 132.605 53.0417 135.263 52.193 137.63C51.389 139.953 50.2947 141.806 48.91 143.191C47.5253 144.531 45.56 145.201 43.014 145.201C39.932 145.201 37.52 144.241 35.778 142.32C34.036 140.399 32.696 137.25 31.758 132.873H31.289C30.3957 137.25 29.212 140.399 27.738 142.32C26.264 144.241 24.0307 145.201 21.038 145.201ZM71.5351 144.799C69.4804 144.799 67.7831 144.174 66.4431 142.923C65.1031 141.672 64.4331 140.087 64.4331 138.166V102.723C64.4331 100.758 65.0807 99.1273 66.3761 97.832C67.6714 96.492 69.3687 95.822 71.4681 95.822C73.7014 95.822 75.4434 96.492 76.6941 97.832C77.9447 99.1273 78.5701 100.713 78.5701 102.589V114.984H91.0321V102.723C91.0321 100.758 91.6797 99.1273 92.9751 97.832C94.2704 96.492 96.0124 95.822 98.2011 95.822C100.39 95.822 102.109 96.492 103.36 97.832C104.611 99.1273 105.236 100.713 105.236 102.589V138.166C105.236 140.087 104.566 141.672 103.226 142.923C101.931 144.174 100.3 144.799 98.3351 144.799C96.1911 144.799 94.4267 144.174 93.0421 142.923C91.7021 141.672 91.0321 140.087 91.0321 138.166V124.833H78.5701V138.166C78.5701 140.087 77.9001 141.672 76.5601 142.923C75.2647 144.174 73.5897 144.799 71.5351 144.799ZM113.894 145C110.902 144.553 108.959 143.191 108.065 140.913C107.172 138.59 107.351 135.665 108.601 132.136L117.445 107.011C118.249 104.688 119.165 102.701 120.192 101.048C121.264 99.3953 122.582 98.1223 124.145 97.229C125.753 96.3357 127.741 95.889 130.108 95.889C133.682 95.889 136.362 96.8717 138.148 98.837C139.98 100.802 141.498 103.527 142.704 107.011L151.481 132.136C152.732 135.665 152.955 138.59 152.151 140.913C151.392 143.191 149.494 144.553 146.456 145C144 145.313 141.856 145.022 140.024 144.129C138.238 143.236 137.166 141.784 136.808 139.774C136.54 138.434 136.496 137.317 136.674 136.424C136.898 135.531 137.099 134.816 137.277 134.28C137.411 133.833 137.411 133.409 137.277 133.007C137.188 132.56 136.853 132.337 136.272 132.337H123.81C123.23 132.337 122.872 132.56 122.738 133.007C122.649 133.409 122.694 133.833 122.872 134.28C123.051 134.816 123.23 135.531 123.408 136.424C123.587 137.317 123.565 138.434 123.341 139.774C122.984 141.784 121.934 143.236 120.192 144.129C118.45 145.022 116.351 145.313 113.894 145ZM134.999 122.957L131.515 112.036C131.426 111.589 131.27 111.254 131.046 111.031C130.868 110.763 130.555 110.629 130.108 110.629C129.662 110.629 129.327 110.763 129.103 111.031C128.925 111.254 128.768 111.589 128.634 112.036L125.217 122.957H134.999ZM153.101 111.098C150.867 111.098 149.036 110.45 147.607 109.155C146.222 107.86 145.53 106.073 145.53 103.795C145.53 101.562 146.155 99.775 147.406 98.435C148.701 97.0503 150.599 96.358 153.101 96.358H181.978C184.479 96.358 186.355 97.0503 187.606 98.435C188.901 99.775 189.549 101.562 189.549 103.795C189.549 106.073 188.834 107.86 187.405 109.155C186.02 110.45 184.211 111.098 181.978 111.098C180.459 111.098 179.231 110.942 178.293 110.629C177.399 110.272 176.662 109.87 176.082 109.423C175.501 108.932 174.943 108.53 174.407 108.217C173.871 107.86 173.201 107.681 172.397 107.681L171.794 108.887C171.972 109.289 172.285 109.87 172.732 110.629C173.178 111.344 173.603 112.393 174.005 113.778C174.407 115.118 174.608 116.949 174.608 119.272V138.635C174.608 140.466 173.915 141.985 172.531 143.191C171.191 144.397 169.538 145 167.573 145C165.563 145 163.865 144.397 162.481 143.191C161.141 141.985 160.471 140.466 160.471 138.635V119.272C160.471 116.949 160.672 115.118 161.074 113.778C161.476 112.393 161.9 111.344 162.347 110.629C162.838 109.87 163.173 109.289 163.352 108.887L162.682 107.681C161.878 107.681 161.208 107.86 160.672 108.217C160.136 108.53 159.577 108.932 158.997 109.423C158.416 109.87 157.679 110.272 156.786 110.629C155.892 110.942 154.664 111.098 153.101 111.098ZM211.29 145.134C209.235 145.134 207.56 144.509 206.265 143.258C204.969 142.007 204.322 140.422 204.322 138.501V103.058C204.322 101.093 204.947 99.44 206.198 98.1C207.493 96.76 209.19 96.09 211.29 96.09C213.523 96.09 215.265 96.76 216.516 98.1C217.811 99.3953 218.459 101.003 218.459 102.924V138.501C218.459 140.422 217.766 142.007 216.382 143.258C215.042 144.509 213.344 145.134 211.29 145.134ZM243.409 145.201C240.908 145.201 238.384 144.955 235.838 144.464C233.337 143.928 231.014 143.169 228.87 142.186C226.771 141.159 225.073 139.93 223.778 138.501C222.483 137.027 221.835 135.33 221.835 133.409C221.835 130.952 222.617 128.987 224.18 127.513C225.743 126.039 227.575 125.347 229.674 125.436C231.327 125.481 232.979 125.838 234.632 126.508C236.285 127.133 237.96 127.759 239.657 128.384C241.399 129.009 243.141 129.322 244.883 129.322C246.625 129.322 247.831 129.099 248.501 128.652C249.171 128.205 249.506 127.602 249.506 126.843C249.506 125.95 249.037 125.213 248.099 124.632C247.161 124.051 245.977 123.605 244.548 123.292L241.265 122.488C237.87 121.684 234.833 120.791 232.153 119.808C229.473 118.781 227.351 117.441 225.788 115.788C224.269 114.091 223.51 111.835 223.51 109.021C223.51 105.939 224.359 103.438 226.056 101.517C227.753 99.5517 230.054 98.1223 232.957 97.229C235.86 96.3357 239.099 95.889 242.672 95.889C246.335 95.889 249.551 96.2687 252.32 97.028C255.089 97.7873 257.233 98.8817 258.752 100.311C260.315 101.74 261.097 103.482 261.097 105.537C261.097 107.726 260.494 109.445 259.288 110.696C258.127 111.902 256.563 112.505 254.598 112.505C253.303 112.505 251.94 112.282 250.511 111.835C249.126 111.388 247.652 110.964 246.089 110.562C244.57 110.115 242.94 109.892 241.198 109.892C239.635 109.892 238.451 110.138 237.647 110.629C236.843 111.076 236.441 111.679 236.441 112.438C236.441 113.376 236.977 114.068 238.049 114.515C239.121 114.962 240.885 115.498 243.342 116.123L247.094 116.994C250.176 117.753 252.878 118.669 255.201 119.741C257.524 120.813 259.333 122.22 260.628 123.962C261.923 125.704 262.571 127.982 262.571 130.796C262.571 134.191 261.767 136.96 260.159 139.104C258.551 141.203 256.318 142.744 253.459 143.727C250.6 144.71 247.25 145.201 243.409 145.201Z"/>
</mask>
<path d="M21.038 145.201C18.3133 145.201 16.1693 144.531 14.606 143.191C13.0427 141.851 11.792 140.02 10.854 137.697C9.96067 135.33 9.112 132.65 8.308 129.657L1.809 105.537C1.31767 103.661 1.42933 101.919 2.144 100.311C2.85867 98.6583 4.26567 97.564 6.365 97.028C8.33033 96.492 10.0723 96.626 11.591 97.43C13.1097 98.234 14.137 99.641 14.673 101.651L20.703 123.694C21.239 125.615 21.7973 127.022 22.378 127.915C23.0033 128.808 23.986 129.099 25.326 128.786C26.5767 128.473 27.2467 127.781 27.336 126.709C27.4253 125.637 27.202 124.118 26.666 122.153L22.378 105.872C21.7973 103.639 21.8643 101.718 22.579 100.11C23.3383 98.4573 24.8123 97.3853 27.001 96.894C29.2343 96.358 31.021 96.6483 32.361 97.765C33.7457 98.837 34.6837 100.356 35.175 102.321L40.602 123.694C41.1827 125.883 41.808 127.357 42.478 128.116C43.1927 128.875 44.1083 129.099 45.225 128.786C46.4757 128.429 47.0787 127.736 47.034 126.709C46.9893 125.637 46.833 124.096 46.565 122.086C46.163 118.959 45.8057 116.391 45.493 114.381C45.225 112.371 45.0017 110.696 44.823 109.356C44.689 108.016 44.622 106.788 44.622 105.671C44.622 103.17 45.359 101.048 46.833 99.306C48.307 97.5193 50.317 96.626 52.863 96.626C55.4537 96.626 57.419 97.43 58.759 99.038C60.099 100.601 60.769 102.768 60.769 105.537C60.769 107.324 60.501 109.2 59.965 111.165C59.4737 113.13 58.9823 114.984 58.491 116.726L54.739 129.657C53.8903 132.605 53.0417 135.263 52.193 137.63C51.389 139.953 50.2947 141.806 48.91 143.191C47.5253 144.531 45.56 145.201 43.014 145.201C39.932 145.201 37.52 144.241 35.778 142.32C34.036 140.399 32.696 137.25 31.758 132.873H31.289C30.3957 137.25 29.212 140.399 27.738 142.32C26.264 144.241 24.0307 145.201 21.038 145.201ZM71.5351 144.799C69.4804 144.799 67.7831 144.174 66.4431 142.923C65.1031 141.672 64.4331 140.087 64.4331 138.166V102.723C64.4331 100.758 65.0807 99.1273 66.3761 97.832C67.6714 96.492 69.3687 95.822 71.4681 95.822C73.7014 95.822 75.4434 96.492 76.6941 97.832C77.9447 99.1273 78.5701 100.713 78.5701 102.589V114.984H91.0321V102.723C91.0321 100.758 91.6797 99.1273 92.9751 97.832C94.2704 96.492 96.0124 95.822 98.2011 95.822C100.39 95.822 102.109 96.492 103.36 97.832C104.611 99.1273 105.236 100.713 105.236 102.589V138.166C105.236 140.087 104.566 141.672 103.226 142.923C101.931 144.174 100.3 144.799 98.3351 144.799C96.1911 144.799 94.4267 144.174 93.0421 142.923C91.7021 141.672 91.0321 140.087 91.0321 138.166V124.833H78.5701V138.166C78.5701 140.087 77.9001 141.672 76.5601 142.923C75.2647 144.174 73.5897 144.799 71.5351 144.799ZM113.894 145C110.902 144.553 108.959 143.191 108.065 140.913C107.172 138.59 107.351 135.665 108.601 132.136L117.445 107.011C118.249 104.688 119.165 102.701 120.192 101.048C121.264 99.3953 122.582 98.1223 124.145 97.229C125.753 96.3357 127.741 95.889 130.108 95.889C133.682 95.889 136.362 96.8717 138.148 98.837C139.98 100.802 141.498 103.527 142.704 107.011L151.481 132.136C152.732 135.665 152.955 138.59 152.151 140.913C151.392 143.191 149.494 144.553 146.456 145C144 145.313 141.856 145.022 140.024 144.129C138.238 143.236 137.166 141.784 136.808 139.774C136.54 138.434 136.496 137.317 136.674 136.424C136.898 135.531 137.099 134.816 137.277 134.28C137.411 133.833 137.411 133.409 137.277 133.007C137.188 132.56 136.853 132.337 136.272 132.337H123.81C123.23 132.337 122.872 132.56 122.738 133.007C122.649 133.409 122.694 133.833 122.872 134.28C123.051 134.816 123.23 135.531 123.408 136.424C123.587 137.317 123.565 138.434 123.341 139.774C122.984 141.784 121.934 143.236 120.192 144.129C118.45 145.022 116.351 145.313 113.894 145ZM134.999 122.957L131.515 112.036C131.426 111.589 131.27 111.254 131.046 111.031C130.868 110.763 130.555 110.629 130.108 110.629C129.662 110.629 129.327 110.763 129.103 111.031C128.925 111.254 128.768 111.589 128.634 112.036L125.217 122.957H134.999ZM153.101 111.098C150.867 111.098 149.036 110.45 147.607 109.155C146.222 107.86 145.53 106.073 145.53 103.795C145.53 101.562 146.155 99.775 147.406 98.435C148.701 97.0503 150.599 96.358 153.101 96.358H181.978C184.479 96.358 186.355 97.0503 187.606 98.435C188.901 99.775 189.549 101.562 189.549 103.795C189.549 106.073 188.834 107.86 187.405 109.155C186.02 110.45 184.211 111.098 181.978 111.098C180.459 111.098 179.231 110.942 178.293 110.629C177.399 110.272 176.662 109.87 176.082 109.423C175.501 108.932 174.943 108.53 174.407 108.217C173.871 107.86 173.201 107.681 172.397 107.681L171.794 108.887C171.972 109.289 172.285 109.87 172.732 110.629C173.178 111.344 173.603 112.393 174.005 113.778C174.407 115.118 174.608 116.949 174.608 119.272V138.635C174.608 140.466 173.915 141.985 172.531 143.191C171.191 144.397 169.538 145 167.573 145C165.563 145 163.865 144.397 162.481 143.191C161.141 141.985 160.471 140.466 160.471 138.635V119.272C160.471 116.949 160.672 115.118 161.074 113.778C161.476 112.393 161.9 111.344 162.347 110.629C162.838 109.87 163.173 109.289 163.352 108.887L162.682 107.681C161.878 107.681 161.208 107.86 160.672 108.217C160.136 108.53 159.577 108.932 158.997 109.423C158.416 109.87 157.679 110.272 156.786 110.629C155.892 110.942 154.664 111.098 153.101 111.098ZM211.29 145.134C209.235 145.134 207.56 144.509 206.265 143.258C204.969 142.007 204.322 140.422 204.322 138.501V103.058C204.322 101.093 204.947 99.44 206.198 98.1C207.493 96.76 209.19 96.09 211.29 96.09C213.523 96.09 215.265 96.76 216.516 98.1C217.811 99.3953 218.459 101.003 218.459 102.924V138.501C218.459 140.422 217.766 142.007 216.382 143.258C215.042 144.509 213.344 145.134 211.29 145.134ZM243.409 145.201C240.908 145.201 238.384 144.955 235.838 144.464C233.337 143.928 231.014 143.169 228.87 142.186C226.771 141.159 225.073 139.93 223.778 138.501C222.483 137.027 221.835 135.33 221.835 133.409C221.835 130.952 222.617 128.987 224.18 127.513C225.743 126.039 227.575 125.347 229.674 125.436C231.327 125.481 232.979 125.838 234.632 126.508C236.285 127.133 237.96 127.759 239.657 128.384C241.399 129.009 243.141 129.322 244.883 129.322C246.625 129.322 247.831 129.099 248.501 128.652C249.171 128.205 249.506 127.602 249.506 126.843C249.506 125.95 249.037 125.213 248.099 124.632C247.161 124.051 245.977 123.605 244.548 123.292L241.265 122.488C237.87 121.684 234.833 120.791 232.153 119.808C229.473 118.781 227.351 117.441 225.788 115.788C224.269 114.091 223.51 111.835 223.51 109.021C223.51 105.939 224.359 103.438 226.056 101.517C227.753 99.5517 230.054 98.1223 232.957 97.229C235.86 96.3357 239.099 95.889 242.672 95.889C246.335 95.889 249.551 96.2687 252.32 97.028C255.089 97.7873 257.233 98.8817 258.752 100.311C260.315 101.74 261.097 103.482 261.097 105.537C261.097 107.726 260.494 109.445 259.288 110.696C258.127 111.902 256.563 112.505 254.598 112.505C253.303 112.505 251.94 112.282 250.511 111.835C249.126 111.388 247.652 110.964 246.089 110.562C244.57 110.115 242.94 109.892 241.198 109.892C239.635 109.892 238.451 110.138 237.647 110.629C236.843 111.076 236.441 111.679 236.441 112.438C236.441 113.376 236.977 114.068 238.049 114.515C239.121 114.962 240.885 115.498 243.342 116.123L247.094 116.994C250.176 117.753 252.878 118.669 255.201 119.741C257.524 120.813 259.333 122.22 260.628 123.962C261.923 125.704 262.571 127.982 262.571 130.796C262.571 134.191 261.767 136.96 260.159 139.104C258.551 141.203 256.318 142.744 253.459 143.727C250.6 144.71 247.25 145.201 243.409 145.201Z" fill="white"/>
<path d="M14.606 143.191L13.9552 143.95H13.9552L14.606 143.191ZM10.854 137.697L9.9184 138.05L9.92245 138.061L9.92676 138.071L10.854 137.697ZM8.308 129.657L9.27376 129.398L9.27356 129.397L8.308 129.657ZM1.809 105.537L0.841604 105.79L0.843436 105.797L1.809 105.537ZM2.144 100.311L3.05786 100.717L3.06186 100.708L2.144 100.311ZM6.365 97.028L6.61238 97.9969L6.62027 97.9949L6.62812 97.9928L6.365 97.028ZM11.591 97.43L11.1231 98.3138L11.591 97.43ZM14.673 101.651L13.7067 101.909L13.7084 101.915L14.673 101.651ZM20.703 123.694L19.7384 123.958L19.7398 123.963L20.703 123.694ZM22.378 127.915L21.5396 128.46L21.5489 128.474L21.5588 128.488L22.378 127.915ZM25.326 128.786L25.5532 129.76L25.5609 129.758L25.5685 129.756L25.326 128.786ZM27.336 126.709L28.3325 126.792L27.336 126.709ZM26.666 122.153L25.6989 122.408L25.7012 122.416L26.666 122.153ZM22.378 105.872L21.4102 106.124L21.411 106.127L22.378 105.872ZM22.579 100.11L21.6703 99.6925L21.6652 99.7039L22.579 100.11ZM27.001 96.894L27.22 97.8697L27.2272 97.8681L27.2344 97.8664L27.001 96.894ZM32.361 97.765L31.7208 98.5332L31.7346 98.5447L31.7488 98.5557L32.361 97.765ZM35.175 102.321L34.2049 102.564L34.2058 102.567L35.175 102.321ZM40.602 123.694L39.6327 123.94L39.6354 123.95L40.602 123.694ZM42.478 128.116L41.7282 128.778L41.7388 128.79L41.7498 128.801L42.478 128.116ZM45.225 128.786L45.4946 129.749L45.4997 129.748L45.225 128.786ZM47.034 126.709L46.0349 126.751L46.0349 126.752L47.034 126.709ZM46.565 122.086L45.5732 122.214L45.5738 122.218L46.565 122.086ZM45.493 114.381L44.5018 114.513L44.5032 114.524L44.5049 114.535L45.493 114.381ZM44.823 109.356L43.828 109.456L43.8296 109.472L43.8318 109.488L44.823 109.356ZM46.833 99.306L47.5965 99.952L47.6044 99.9424L46.833 99.306ZM58.759 99.038L57.9907 99.6782L57.9997 99.6888L58.759 99.038ZM59.965 111.165L59.0002 110.902L58.9974 110.912L58.9949 110.922L59.965 111.165ZM58.491 116.726L59.4514 117.005L59.4535 116.997L58.491 116.726ZM54.739 129.657L53.7786 129.378L53.778 129.38L54.739 129.657ZM52.193 137.63L51.2516 137.293L51.248 137.303L52.193 137.63ZM48.91 143.191L49.6054 143.91L49.6113 143.904L49.6171 143.898L48.91 143.191ZM35.778 142.32L36.5187 141.648L35.778 142.32ZM31.758 132.873L32.7358 132.663L32.5664 131.873H31.758V132.873ZM31.289 132.873V131.873H30.4725L30.3092 132.673L31.289 132.873ZM27.738 142.32L28.5313 142.929L27.738 142.32ZM21.038 144.201C18.4739 144.201 16.5873 143.572 15.2568 142.432L13.9552 143.95C15.7514 145.49 18.1528 146.201 21.038 146.201V144.201ZM15.2568 142.432C13.8387 141.216 12.6721 139.528 11.7812 137.323L9.92676 138.071C10.9119 140.511 12.2466 142.486 13.9552 143.95L15.2568 142.432ZM11.7896 137.344C10.9101 135.013 10.0711 132.365 9.27376 129.398L7.34225 129.916C8.15295 132.934 9.01126 135.646 9.9184 138.05L11.7896 137.344ZM9.27356 129.397L2.77456 105.277L0.843436 105.797L7.34244 129.917L9.27356 129.397ZM2.77637 105.284C2.3363 103.603 2.44485 102.096 3.05781 100.717L1.23019 99.9049C0.41382 101.742 0.299036 103.719 0.841628 105.79L2.77637 105.284ZM3.06186 100.708C3.62819 99.3983 4.74491 98.4737 6.61238 97.9969L6.11762 96.0591C3.78642 96.6543 2.08915 97.9184 1.22614 99.9141L3.06186 100.708ZM6.62812 97.9928C8.39672 97.5104 9.86969 97.6502 11.1231 98.3138L12.0589 96.5462C10.275 95.6018 8.26395 95.4736 6.10188 96.0632L6.62812 97.9928ZM11.1231 98.3138C12.3449 98.9606 13.2262 100.106 13.7068 101.909L15.6392 101.393C15.0478 99.1756 13.8745 97.5074 12.0589 96.5462L11.1231 98.3138ZM13.7084 101.915L19.7384 123.958L21.6676 123.43L15.6376 101.387L13.7084 101.915ZM19.7398 123.963C20.2837 125.912 20.8745 127.437 21.5396 128.46L23.2164 127.37C22.7201 126.606 22.1943 125.318 21.6662 123.425L19.7398 123.963ZM21.5588 128.488C21.9923 129.108 22.5777 129.548 23.3007 129.762C24.0054 129.97 24.7703 129.943 25.5532 129.76L25.0988 127.812C24.5417 127.942 24.1453 127.926 23.8673 127.844C23.6076 127.767 23.389 127.616 23.1972 127.342L21.5588 128.488ZM25.5685 129.756C26.3155 129.569 26.9832 129.246 27.4851 128.728C27.9995 128.196 28.2711 127.53 28.3325 126.792L26.3395 126.626C26.3116 126.96 26.2035 127.176 26.0479 127.337C25.8798 127.511 25.5871 127.69 25.0835 127.816L25.5685 129.756ZM28.3325 126.792C28.4368 125.542 28.1751 123.886 27.6308 121.89L25.7012 122.416C26.2289 124.351 26.4139 125.732 26.3395 126.626L28.3325 126.792ZM27.633 121.898L23.345 105.617L21.411 106.127L25.699 122.408L27.633 121.898ZM23.3458 105.62C22.8043 103.537 22.8952 101.861 23.4928 100.516L21.6652 99.7039C20.8334 101.575 20.7904 103.74 21.4102 106.124L23.3458 105.62ZM23.4877 100.528C24.0864 99.2245 25.2568 98.3104 27.22 97.8697L26.782 95.9183C24.3678 96.4602 22.5903 97.6902 21.6703 99.6925L23.4877 100.528ZM27.2344 97.8664C29.2667 97.3786 30.6965 97.6796 31.7208 98.5332L33.0012 96.9968C31.3455 95.617 29.202 95.3374 26.7676 95.9216L27.2344 97.8664ZM31.7488 98.5557C32.929 99.4694 33.759 100.78 34.2049 102.564L36.1451 102.078C35.6083 99.9311 34.5624 98.2046 32.9732 96.9743L31.7488 98.5557ZM34.2058 102.567L39.6328 123.94L41.5712 123.448L36.1442 102.075L34.2058 102.567ZM39.6354 123.95C40.2184 126.148 40.8896 127.827 41.7282 128.778L43.2278 127.454C42.7264 126.886 42.147 125.618 41.5686 123.438L39.6354 123.95ZM41.7498 128.801C42.2251 129.306 42.7983 129.662 43.4638 129.825C44.1228 129.985 44.8087 129.941 45.4946 129.749L44.9554 127.823C44.5246 127.944 44.1944 127.944 43.9377 127.881C43.6876 127.82 43.4455 127.685 43.2062 127.431L41.7498 128.801ZM45.4997 129.748C46.2369 129.537 46.8983 129.196 47.3693 128.656C47.86 128.092 48.0651 127.402 48.0331 126.666L46.0349 126.752C46.0476 127.043 45.9735 127.213 45.8612 127.342C45.7292 127.493 45.4638 127.678 44.9503 127.824L45.4997 129.748ZM48.0331 126.667C47.9865 125.549 47.8254 123.972 47.5562 121.954L45.5738 122.218C45.8406 124.22 45.9921 125.725 46.0349 126.751L48.0331 126.667ZM47.5568 121.958C47.1543 118.827 46.7957 116.249 46.4811 114.227L44.5049 114.535C44.8157 116.533 45.1718 119.091 45.5732 122.214L47.5568 121.958ZM46.4842 114.249C46.2162 112.239 45.9929 110.564 45.8142 109.224L43.8318 109.488C44.0104 110.828 44.2338 112.503 44.5018 114.513L46.4842 114.249ZM45.818 109.256C45.6867 107.943 45.622 106.749 45.622 105.671H43.622C43.622 106.827 43.6913 108.089 43.828 109.456L45.818 109.256ZM45.622 105.671C45.622 103.382 46.2902 101.496 47.5964 99.9519L46.0696 98.6601C44.4278 100.6 43.622 102.958 43.622 105.671H45.622ZM47.6044 99.9424C48.868 98.4107 50.5819 97.626 52.863 97.626V95.626C50.0521 95.626 47.746 96.628 46.0616 98.6696L47.6044 99.9424ZM52.863 97.626C55.2339 97.626 56.8851 98.3514 57.9908 99.6782L59.5272 98.3978C57.9529 96.5086 55.6734 95.626 52.863 95.626V97.626ZM57.9997 99.6888C59.1378 101.017 59.769 102.923 59.769 105.537H61.769C61.769 102.612 61.0602 100.186 59.5183 98.3872L57.9997 99.6888ZM59.769 105.537C59.769 107.223 59.5161 109.011 59.0002 110.902L60.9298 111.428C61.4859 109.389 61.769 107.424 61.769 105.537H59.769ZM58.9949 110.922C58.5057 112.879 58.0169 114.723 57.5286 116.455L59.4535 116.997C59.9478 115.245 60.4417 113.381 60.9351 111.408L58.9949 110.922ZM57.5306 116.447L53.7786 129.378L55.6994 129.936L59.4514 117.005L57.5306 116.447ZM53.778 129.38C52.934 132.312 52.0918 134.949 51.2517 137.293L53.1343 137.967C53.9916 135.576 54.8466 132.898 55.7 129.934L53.778 129.38ZM51.248 137.303C50.4812 139.518 49.4568 141.23 48.2029 142.484L49.6171 143.898C51.1325 142.383 52.2968 140.387 53.138 137.957L51.248 137.303ZM48.2146 142.472C47.0702 143.58 45.3865 144.201 43.014 144.201V146.201C45.7335 146.201 47.9804 145.482 49.6054 143.91L48.2146 142.472ZM43.014 144.201C40.1561 144.201 38.0354 143.32 36.5187 141.648L35.0373 142.992C37.0046 145.161 39.7079 146.201 43.014 146.201V144.201ZM36.5187 141.648C34.9526 139.921 33.6603 136.978 32.7358 132.663L30.7802 133.083C31.7317 137.523 33.1194 140.877 35.0373 142.992L36.5187 141.648ZM31.758 131.873H31.289V133.873H31.758V131.873ZM30.3092 132.673C29.4247 137.007 28.2778 139.974 26.9447 141.711L28.5313 142.929C30.1462 140.825 31.3666 137.494 32.2688 133.073L30.3092 132.673ZM26.9447 141.711C25.7045 143.327 23.8012 144.201 21.038 144.201V146.201C24.2602 146.201 26.8235 145.154 28.5313 142.929L26.9447 141.711ZM66.4431 142.923L65.7607 143.654L66.4431 142.923ZM66.3761 97.832L67.0832 98.5391L67.0892 98.5331L67.0951 98.527L66.3761 97.832ZM76.6941 97.832L75.963 98.5143L75.9688 98.5205L75.9747 98.5266L76.6941 97.832ZM78.5701 114.984H77.5701V115.984H78.5701V114.984ZM91.0321 114.984V115.984H92.0321V114.984H91.0321ZM92.9751 97.832L93.6822 98.5391L93.6882 98.5331L93.6941 98.527L92.9751 97.832ZM103.36 97.832L102.629 98.5143L102.635 98.5205L102.641 98.5266L103.36 97.832ZM103.226 142.923L102.544 142.192L102.538 142.198L102.531 142.204L103.226 142.923ZM93.0421 142.923L92.3597 143.654L92.3657 143.66L92.3718 143.665L93.0421 142.923ZM91.0321 124.833H92.0321V123.833H91.0321V124.833ZM78.5701 124.833V123.833H77.5701V124.833H78.5701ZM76.5601 142.923L75.8777 142.192L75.8716 142.198L75.8655 142.204L76.5601 142.923ZM71.5351 143.799C69.7006 143.799 68.2573 143.248 67.1254 142.192L65.7607 143.654C67.3088 145.099 69.2602 145.799 71.5351 145.799V143.799ZM67.1254 142.192C65.9987 141.14 65.4331 139.824 65.4331 138.166H63.4331C63.4331 140.349 64.2074 142.204 65.7607 143.654L67.1254 142.192ZM65.4331 138.166V102.723H63.4331V138.166H65.4331ZM65.4331 102.723C65.4331 101.002 65.99 99.6323 67.0832 98.5391L65.669 97.1249C64.1715 98.6224 63.4331 100.514 63.4331 102.723H65.4331ZM67.0951 98.527C68.1773 97.4074 69.6022 96.822 71.4681 96.822V94.822C69.1352 94.822 67.1654 95.5766 65.6571 97.137L67.0951 98.527ZM71.4681 96.822C73.4894 96.822 74.9418 97.4201 75.963 98.5143L77.4251 97.1497C75.945 95.5638 73.9134 94.822 71.4681 94.822V96.822ZM75.9747 98.5266C77.0371 99.627 77.5701 100.96 77.5701 102.589H79.5701C79.5701 100.466 78.8523 98.6277 77.4135 97.1374L75.9747 98.5266ZM77.5701 102.589V114.984H79.5701V102.589H77.5701ZM78.5701 115.984H91.0321V113.984H78.5701V115.984ZM92.0321 114.984V102.723H90.0321V114.984H92.0321ZM92.0321 102.723C92.0321 101.002 92.589 99.6323 93.6822 98.5391L92.268 97.1249C90.7705 98.6224 90.0321 100.514 90.0321 102.723H92.0321ZM93.6941 98.527C94.7681 97.4159 96.2323 96.822 98.2011 96.822V94.822C95.7925 94.822 93.7727 95.5681 92.2561 97.137L93.6941 98.527ZM98.2011 96.822C100.171 96.822 101.604 97.416 102.629 98.5143L104.091 97.1497C102.615 95.568 100.609 94.822 98.2011 94.822V96.822ZM102.641 98.5266C103.703 99.627 104.236 100.96 104.236 102.589H106.236C106.236 100.466 105.518 98.6277 104.079 97.1374L102.641 98.5266ZM104.236 102.589V138.166H106.236V102.589H104.236ZM104.236 138.166C104.236 139.824 103.67 141.14 102.544 142.192L103.908 143.654C105.462 142.204 106.236 140.349 106.236 138.166H104.236ZM102.531 142.204C101.44 143.257 100.067 143.799 98.3351 143.799V145.799C100.534 145.799 102.421 145.09 103.921 143.642L102.531 142.204ZM98.3351 143.799C96.3993 143.799 94.8859 143.241 93.7123 142.181L92.3718 143.665C93.9675 145.106 95.9828 145.799 98.3351 145.799V143.799ZM93.7244 142.192C92.5977 141.14 92.0321 139.824 92.0321 138.166H90.0321C90.0321 140.349 90.8064 142.204 92.3597 143.654L93.7244 142.192ZM92.0321 138.166V124.833H90.0321V138.166H92.0321ZM91.0321 123.833H78.5701V125.833H91.0321V123.833ZM77.5701 124.833V138.166H79.5701V124.833H77.5701ZM77.5701 138.166C77.5701 139.824 77.0044 141.14 75.8777 142.192L77.2424 143.654C78.7957 142.204 79.5701 140.349 79.5701 138.166H77.5701ZM75.8655 142.204C74.7832 143.249 73.3701 143.799 71.5351 143.799V145.799C73.8093 145.799 75.7463 145.099 77.2547 143.642L75.8655 142.204ZM113.894 145L113.747 145.989L113.757 145.991L113.768 145.992L113.894 145ZM108.065 140.913L107.132 141.272L107.134 141.278L108.065 140.913ZM108.601 132.136L109.544 132.47L109.545 132.468L108.601 132.136ZM117.445 107.011L118.389 107.343L118.39 107.338L117.445 107.011ZM120.192 101.048L119.353 100.504L119.348 100.512L119.343 100.52L120.192 101.048ZM124.145 97.229L123.66 96.3548L123.649 96.3608L124.145 97.229ZM138.148 98.837L137.408 99.5097L137.417 99.5187L138.148 98.837ZM142.704 107.011L141.759 107.338L141.76 107.341L142.704 107.011ZM151.481 132.136L150.537 132.466L150.539 132.47L151.481 132.136ZM152.151 140.913L151.206 140.586L151.203 140.597L152.151 140.913ZM146.456 145L146.583 145.992L146.592 145.991L146.602 145.989L146.456 145ZM140.024 144.129L139.577 145.023L139.586 145.028L140.024 144.129ZM136.808 139.774L137.793 139.599L137.791 139.588L137.789 139.578L136.808 139.774ZM136.674 136.424L135.704 136.181L135.698 136.205L135.694 136.228L136.674 136.424ZM137.277 134.28L138.226 134.596L138.231 134.582L138.235 134.567L137.277 134.28ZM137.277 133.007L136.297 133.203L136.309 133.264L136.329 133.323L137.277 133.007ZM122.738 133.007L121.78 132.72L121.77 132.755L121.762 132.79L122.738 133.007ZM122.872 134.28L123.821 133.964L123.812 133.936L123.801 133.909L122.872 134.28ZM123.408 136.424L124.389 136.228L123.408 136.424ZM123.341 139.774L124.326 139.949L124.328 139.938L123.341 139.774ZM120.192 144.129L120.649 145.019L120.192 144.129ZM134.999 122.957V123.957H136.368L135.952 122.653L134.999 122.957ZM131.515 112.036L130.535 112.232L130.546 112.287L130.563 112.34L131.515 112.036ZM131.046 111.031L130.214 111.586L130.269 111.668L130.339 111.738L131.046 111.031ZM129.103 111.031L128.335 110.391L128.329 110.398L128.322 110.406L129.103 111.031ZM128.634 112.036L129.589 112.335L129.592 112.323L128.634 112.036ZM125.217 122.957L124.263 122.658L123.857 123.957H125.217V122.957ZM114.042 144.011C111.305 143.602 109.726 142.41 108.996 140.548L107.134 141.278C108.191 143.972 110.498 145.504 113.747 145.989L114.042 144.011ZM108.999 140.554C108.225 138.542 108.334 135.883 109.544 132.47L107.659 131.802C106.367 135.446 106.119 138.638 107.132 141.272L108.999 140.554ZM109.545 132.468L118.389 107.343L116.502 106.679L107.658 131.804L109.545 132.468ZM118.39 107.338C119.176 105.068 120.062 103.151 121.042 101.576L119.343 100.52C118.268 102.25 117.323 104.308 116.5 106.684L118.39 107.338ZM121.031 101.592C122.025 100.061 123.229 98.9042 124.641 98.0972L123.649 96.3608C121.935 97.3405 120.504 98.7302 119.353 100.504L121.031 101.592ZM124.631 98.1032C126.054 97.3127 127.863 96.889 130.108 96.889V94.889C127.619 94.889 125.453 95.3586 123.66 96.3548L124.631 98.1032ZM130.108 96.889C133.502 96.889 135.87 97.8178 137.408 99.5097L138.888 98.1643C136.853 95.9256 133.862 94.889 130.108 94.889V96.889ZM137.417 99.5187C139.124 101.352 140.583 103.94 141.759 107.338L143.649 106.684C142.414 103.114 140.835 100.253 138.88 98.1553L137.417 99.5187ZM141.76 107.341L150.537 132.466L152.425 131.806L143.648 106.681L141.76 107.341ZM150.539 132.47C151.751 135.891 151.906 138.564 151.206 140.586L153.096 141.24C154.004 138.616 153.712 135.438 152.424 131.802L150.539 132.47ZM151.203 140.597C150.597 142.412 149.098 143.601 146.311 144.011L146.602 145.989C149.889 145.506 152.186 143.97 153.1 141.229L151.203 140.597ZM146.33 144.008C144.025 144.301 142.084 144.021 140.463 143.23L139.586 145.028C141.627 146.023 143.975 146.324 146.583 145.992L146.33 144.008ZM140.471 143.235C138.975 142.486 138.096 141.306 137.793 139.599L135.824 139.949C136.235 142.262 137.5 143.985 139.577 145.023L140.471 143.235ZM137.789 139.578C137.535 138.309 137.512 137.336 137.655 136.62L135.694 136.228C135.48 137.299 135.546 138.559 135.828 139.97L137.789 139.578ZM137.644 136.667C137.865 135.785 138.059 135.098 138.226 134.596L136.329 133.964C136.138 134.534 135.93 135.277 135.704 136.181L137.644 136.667ZM138.235 134.567C138.422 133.944 138.432 133.308 138.226 132.691L136.329 133.323C136.391 133.51 136.4 133.723 136.319 133.993L138.235 134.567ZM138.258 132.811C138.169 132.365 137.932 131.951 137.514 131.672C137.124 131.413 136.677 131.337 136.272 131.337V133.337C136.355 133.337 136.403 133.345 136.425 133.35C136.445 133.355 136.432 133.355 136.404 133.337C136.373 133.316 136.342 133.285 136.319 133.249C136.298 133.215 136.295 133.194 136.297 133.203L138.258 132.811ZM136.272 131.337H123.81V133.337H136.272V131.337ZM123.81 131.337C123.401 131.337 122.964 131.415 122.577 131.657C122.17 131.911 121.909 132.29 121.78 132.72L123.696 133.294C123.701 133.279 123.701 133.286 123.687 133.305C123.672 133.325 123.653 133.342 123.637 133.353C123.622 133.362 123.622 133.358 123.648 133.352C123.676 133.345 123.728 133.337 123.81 133.337V131.337ZM121.762 132.79C121.622 133.42 121.703 134.05 121.944 134.651L123.801 133.909C123.684 133.617 123.676 133.398 123.714 133.224L121.762 132.79ZM121.924 134.596C122.084 135.077 122.253 135.746 122.428 136.62L124.389 136.228C124.206 135.315 124.018 134.555 123.821 133.964L121.924 134.596ZM122.428 136.62C122.574 137.351 122.567 138.336 122.355 139.61L124.328 139.938C124.562 138.532 124.6 137.283 124.389 136.228L122.428 136.62ZM122.357 139.599C122.051 141.317 121.186 142.495 119.736 143.239L120.649 145.019C122.682 143.976 123.917 142.251 124.326 139.949L122.357 139.599ZM119.736 143.239C118.216 144.019 116.33 144.302 114.021 144.008L113.768 145.992C116.372 146.323 118.685 146.026 120.649 145.019L119.736 143.239ZM135.952 122.653L132.468 111.732L130.563 112.34L134.047 123.261L135.952 122.653ZM132.496 111.84C132.384 111.281 132.165 110.736 131.753 110.324L130.339 111.738C130.374 111.773 130.468 111.897 130.535 112.232L132.496 111.84ZM131.878 110.476C131.448 109.83 130.748 109.629 130.108 109.629V111.629C130.237 111.629 130.284 111.649 130.284 111.649C130.282 111.648 130.27 111.642 130.254 111.629C130.237 111.616 130.224 111.6 130.214 111.586L131.878 110.476ZM130.108 109.629C129.455 109.629 128.799 109.834 128.335 110.391L129.871 111.671C129.873 111.669 129.875 111.666 129.893 111.658C129.918 111.648 129.983 111.629 130.108 111.629V109.629ZM128.322 110.406C128.029 110.773 127.827 111.247 127.676 111.749L129.592 112.323C129.71 111.932 129.82 111.736 129.884 111.656L128.322 110.406ZM127.68 111.737L124.263 122.658L126.172 123.256L129.589 112.335L127.68 111.737ZM125.217 123.957H134.999V121.957H125.217V123.957ZM147.607 109.155L146.924 109.885L146.929 109.891L146.935 109.896L147.607 109.155ZM147.406 98.435L146.675 97.7518L146.675 97.7527L147.406 98.435ZM187.606 98.435L186.864 99.1053L186.875 99.1178L186.887 99.13L187.606 98.435ZM187.405 109.155L186.733 108.414L186.727 108.419L186.722 108.425L187.405 109.155ZM178.293 110.629L177.921 111.557L177.949 111.568L177.977 111.578L178.293 110.629ZM176.082 109.423L175.436 110.186L175.454 110.201L175.472 110.216L176.082 109.423ZM174.407 108.217L173.852 109.049L173.877 109.066L173.903 109.081L174.407 108.217ZM172.397 107.681V106.681H171.779L171.502 107.234L172.397 107.681ZM171.794 108.887L170.899 108.44L170.688 108.862L170.88 109.293L171.794 108.887ZM172.732 110.629L171.87 111.136L171.877 111.148L171.884 111.159L172.732 110.629ZM174.005 113.778L173.044 114.057L173.047 114.065L174.005 113.778ZM172.531 143.191L171.874 142.437L171.868 142.442L171.862 142.448L172.531 143.191ZM162.481 143.191L161.812 143.934L161.818 143.94L161.824 143.945L162.481 143.191ZM161.074 113.778L162.032 114.065L162.034 114.057L161.074 113.778ZM162.347 110.629L161.507 110.086L161.503 110.092L161.499 110.099L162.347 110.629ZM163.352 108.887L164.266 109.293L164.468 108.837L164.226 108.401L163.352 108.887ZM162.682 107.681L163.556 107.195L163.27 106.681H162.682V107.681ZM160.672 108.217L161.176 109.081L161.202 109.066L161.226 109.049L160.672 108.217ZM158.997 109.423L159.606 110.216L159.625 110.201L159.643 110.186L158.997 109.423ZM156.786 110.629L157.116 111.573L157.137 111.566L157.157 111.557L156.786 110.629ZM153.101 110.098C151.074 110.098 149.495 109.517 148.278 108.414L146.935 109.896C148.577 111.384 150.661 112.098 153.101 112.098V110.098ZM148.29 108.425C147.148 107.356 146.53 105.857 146.53 103.795H144.53C144.53 106.289 145.297 108.363 146.924 109.885L148.29 108.425ZM146.53 103.795C146.53 101.757 147.095 100.234 148.137 99.1173L146.675 97.7527C145.215 99.3165 144.53 101.367 144.53 103.795H146.53ZM148.136 99.1182C149.187 97.9945 150.784 97.358 153.101 97.358V95.358C150.415 95.358 148.215 96.1061 146.675 97.7518L148.136 99.1182ZM153.101 97.358H181.978V95.358H153.101V97.358ZM181.978 97.358C184.297 97.358 185.861 97.9953 186.864 99.1053L188.348 97.7647C186.849 96.1054 184.661 95.358 181.978 95.358V97.358ZM186.887 99.13C187.967 100.248 188.549 101.766 188.549 103.795H190.549C190.549 101.357 189.835 99.3024 188.325 97.74L186.887 99.13ZM188.549 103.795C188.549 105.847 187.915 107.343 186.733 108.414L188.076 109.896C189.753 108.377 190.549 106.299 190.549 103.795H188.549ZM186.722 108.425C185.555 109.516 184.005 110.098 181.978 110.098V112.098C184.417 112.098 186.486 111.384 188.088 109.885L186.722 108.425ZM181.978 110.098C180.515 110.098 179.406 109.946 178.609 109.68L177.977 111.578C179.056 111.937 180.403 112.098 181.978 112.098V110.098ZM178.664 109.701C177.831 109.367 177.181 109.007 176.691 108.63L175.472 110.216C176.144 110.733 176.968 111.176 177.921 111.557L178.664 109.701ZM176.728 108.66C176.112 108.139 175.507 107.701 174.911 107.353L173.903 109.081C174.379 109.358 174.89 109.725 175.436 110.186L176.728 108.66ZM174.961 107.385C174.225 106.894 173.349 106.681 172.397 106.681V108.681C173.052 108.681 173.517 108.826 173.852 109.049L174.961 107.385ZM171.502 107.234L170.899 108.44L172.688 109.334L173.291 108.128L171.502 107.234ZM170.88 109.293C171.083 109.749 171.419 110.37 171.87 111.136L173.594 110.122C173.151 109.37 172.862 108.829 172.708 108.481L170.88 109.293ZM171.884 111.159C172.259 111.759 172.653 112.707 173.044 114.057L174.965 113.499C174.553 112.079 174.098 110.928 173.58 110.099L171.884 111.159ZM173.047 114.065C173.409 115.271 173.608 116.992 173.608 119.272H175.608C175.608 116.907 175.405 114.965 174.963 113.491L173.047 114.065ZM173.608 119.272V138.635H175.608V119.272H173.608ZM173.608 138.635C173.608 140.176 173.041 141.42 171.874 142.437L173.188 143.945C174.79 142.55 175.608 140.756 175.608 138.635H173.608ZM171.862 142.448C170.723 143.473 169.315 144 167.573 144V146C169.761 146 171.659 145.321 173.2 143.934L171.862 142.448ZM167.573 144C165.78 144 164.322 143.469 163.138 142.437L161.824 143.945C163.408 145.325 165.346 146 167.573 146V144ZM163.15 142.448C162.024 141.435 161.471 140.188 161.471 138.635H159.471C159.471 140.745 160.257 142.535 161.812 143.934L163.15 142.448ZM161.471 138.635V119.272H159.471V138.635H161.471ZM161.471 119.272C161.471 116.992 161.67 115.271 162.032 114.065L160.116 113.491C159.674 114.965 159.471 116.907 159.471 119.272H161.471ZM162.034 114.057C162.426 112.707 162.82 111.759 163.195 111.159L161.499 110.099C160.981 110.928 160.526 112.079 160.113 113.499L162.034 114.057ZM163.186 111.172C163.683 110.405 164.054 109.77 164.266 109.293L162.438 108.481C162.293 108.808 161.993 109.335 161.507 110.086L163.186 111.172ZM164.226 108.401L163.556 107.195L161.808 108.167L162.478 109.373L164.226 108.401ZM162.682 106.681C161.729 106.681 160.854 106.894 160.117 107.385L161.226 109.049C161.562 108.826 162.026 108.681 162.682 108.681V106.681ZM160.168 107.353C159.572 107.701 158.966 108.139 158.351 108.66L159.643 110.186C160.189 109.725 160.7 109.358 161.176 109.081L160.168 107.353ZM158.387 108.63C157.898 109.007 157.247 109.367 156.414 109.701L157.157 111.557C158.111 111.176 158.934 110.733 159.606 110.216L158.387 108.63ZM156.455 109.685C155.715 109.944 154.615 110.098 153.101 110.098V112.098C154.713 112.098 156.07 111.939 157.116 111.573L156.455 109.685ZM206.265 143.258L206.959 142.539L206.265 143.258ZM206.198 98.1L205.479 97.405L205.473 97.4113L205.467 97.4177L206.198 98.1ZM216.516 98.1L215.785 98.7823L215.796 98.7949L215.809 98.8071L216.516 98.1ZM216.382 143.258L215.711 142.516L215.705 142.521L215.699 142.527L216.382 143.258ZM211.29 144.134C209.455 144.134 208.042 143.584 206.959 142.539L205.57 143.977C207.079 145.434 209.015 146.134 211.29 146.134V144.134ZM206.959 142.539C205.873 141.49 205.322 140.171 205.322 138.501H203.322C203.322 140.673 204.066 142.525 205.57 143.977L206.959 142.539ZM205.322 138.501V103.058H203.322V138.501H205.322ZM205.322 103.058C205.322 101.326 205.864 99.923 206.929 98.7823L205.467 97.4177C204.03 98.957 203.322 100.859 203.322 103.058H205.322ZM206.917 98.795C207.999 97.6754 209.424 97.09 211.29 97.09V95.09C208.957 95.09 206.987 95.8446 205.479 97.405L206.917 98.795ZM211.29 97.09C213.311 97.09 214.763 97.6881 215.785 98.7823L217.247 97.4177C215.767 95.8318 213.735 95.09 211.29 95.09V97.09ZM215.809 98.8071C216.907 99.905 217.459 101.254 217.459 102.924H219.459C219.459 100.752 218.716 98.8856 217.223 97.3929L215.809 98.8071ZM217.459 102.924V138.501H219.459V102.924H217.459ZM217.459 138.501C217.459 140.148 216.879 141.461 215.711 142.516L217.052 144C218.654 142.554 219.459 140.695 219.459 138.501H217.459ZM215.699 142.527C214.567 143.583 213.124 144.134 211.29 144.134V146.134C213.565 146.134 215.516 145.434 217.064 143.989L215.699 142.527ZM235.838 144.464L235.628 145.442L235.638 145.444L235.648 145.446L235.838 144.464ZM228.87 142.186L228.43 143.084L228.442 143.09L228.453 143.095L228.87 142.186ZM223.778 138.501L223.027 139.161L223.032 139.167L223.037 139.173L223.778 138.501ZM224.18 127.513L223.494 126.785L224.18 127.513ZM229.674 125.436L229.631 126.435L229.639 126.435L229.647 126.436L229.674 125.436ZM234.632 126.508L234.256 127.435L234.267 127.439L234.278 127.443L234.632 126.508ZM239.657 128.384L239.311 129.322L239.319 129.325L239.657 128.384ZM248.501 128.652L247.946 127.82V127.82L248.501 128.652ZM248.099 124.632L248.625 123.782L248.099 124.632ZM244.548 123.292L244.31 124.263L244.322 124.266L244.334 124.269L244.548 123.292ZM241.265 122.488L241.503 121.517L241.495 121.515L241.265 122.488ZM232.153 119.808L231.795 120.742L231.802 120.744L231.809 120.747L232.153 119.808ZM225.788 115.788L225.043 116.455L225.052 116.465L225.061 116.475L225.788 115.788ZM226.056 101.517L226.805 102.179L226.813 102.171L226.056 101.517ZM232.957 97.229L232.663 96.2732L232.957 97.229ZM252.32 97.028L252.055 97.9924L252.32 97.028ZM258.752 100.311L258.067 101.039L258.072 101.044L258.077 101.049L258.752 100.311ZM259.288 110.696L258.568 110.002L258.568 110.002L259.288 110.696ZM250.511 111.835L250.204 112.787L250.213 112.789L250.511 111.835ZM246.089 110.562L245.807 111.521L245.823 111.526L245.84 111.53L246.089 110.562ZM237.647 110.629L238.133 111.503L238.151 111.493L238.168 111.482L237.647 110.629ZM238.049 114.515L237.664 115.438L238.049 114.515ZM243.342 116.123L243.095 117.092L243.105 117.095L243.116 117.097L243.342 116.123ZM247.094 116.994L247.333 116.023L247.32 116.02L247.094 116.994ZM255.201 119.741L254.782 120.649L255.201 119.741ZM260.628 123.962L259.825 124.559V124.559L260.628 123.962ZM260.159 139.104L260.953 139.712L260.959 139.704L260.159 139.104ZM253.459 143.727L253.134 142.781L253.459 143.727ZM243.409 144.201C240.973 144.201 238.513 143.962 236.027 143.482L235.648 145.446C238.255 145.949 240.842 146.201 243.409 146.201V144.201ZM236.047 143.486C233.611 142.964 231.359 142.227 229.287 141.277L228.453 143.095C230.669 144.111 233.062 144.892 235.628 145.442L236.047 143.486ZM229.309 141.288C227.301 140.305 225.713 139.147 224.519 137.829L223.037 139.173C224.433 140.713 226.241 142.013 228.43 143.084L229.309 141.288ZM224.529 137.841C223.39 136.545 222.835 135.081 222.835 133.409H220.835C220.835 135.578 221.575 137.509 223.027 139.161L224.529 137.841ZM222.835 133.409C222.835 131.184 223.532 129.498 224.866 128.241L223.494 126.785C221.701 128.476 220.835 130.72 220.835 133.409H222.835ZM224.866 128.241C226.238 126.947 227.808 126.358 229.631 126.435L229.716 124.437C227.341 124.336 225.249 125.131 223.494 126.785L224.866 128.241ZM229.647 126.436C231.171 126.477 232.706 126.806 234.256 127.435L235.008 125.581C233.253 124.87 231.482 124.485 229.701 124.436L229.647 126.436ZM234.278 127.443C235.933 128.07 237.611 128.696 239.311 129.322L240.003 127.446C238.308 126.821 236.636 126.197 234.986 125.573L234.278 127.443ZM239.319 129.325C241.163 129.987 243.019 130.322 244.883 130.322V128.322C243.263 128.322 241.635 128.032 239.995 127.443L239.319 129.325ZM244.883 130.322C246.64 130.322 248.117 130.11 249.056 129.484L247.946 127.82C247.545 128.087 246.61 128.322 244.883 128.322V130.322ZM249.056 129.484C249.984 128.865 250.506 127.96 250.506 126.843H248.506C248.506 127.245 248.358 127.545 247.946 127.82L249.056 129.484ZM250.506 126.843C250.506 125.519 249.778 124.495 248.625 123.782L247.573 125.482C248.296 125.93 248.506 126.381 248.506 126.843H250.506ZM248.625 123.782C247.565 123.126 246.268 122.645 244.762 122.315L244.334 124.269C245.687 124.565 246.757 124.977 247.573 125.482L248.625 123.782ZM244.786 122.321L241.503 121.517L241.027 123.459L244.31 124.263L244.786 122.321ZM241.495 121.515C238.131 120.718 235.133 119.836 232.497 118.869L231.809 120.747C234.533 121.746 237.609 122.65 241.034 123.461L241.495 121.515ZM232.511 118.874C229.935 117.887 227.952 116.62 226.514 115.101L225.061 116.475C226.751 118.261 229.011 119.674 231.795 120.742L232.511 118.874ZM226.533 115.121C225.215 113.648 224.51 111.649 224.51 109.021H222.51C222.51 112.021 223.324 114.534 225.043 116.455L226.533 115.121ZM224.51 109.021C224.51 106.131 225.301 103.882 226.805 102.179L225.307 100.855C223.416 102.994 222.51 105.747 222.51 109.021H224.51ZM226.813 102.171C228.368 100.37 230.496 99.0324 233.251 98.1848L232.663 96.2732C229.611 97.2123 227.139 98.7332 225.299 100.863L226.813 102.171ZM233.251 98.1848C236.044 97.3254 239.181 96.889 242.672 96.889V94.889C239.016 94.889 235.676 95.3459 232.663 96.2732L233.251 98.1848ZM242.672 96.889C246.268 96.889 249.392 97.2621 252.055 97.9924L252.584 96.0636C249.709 95.2752 246.401 94.889 242.672 94.889V96.889ZM252.055 97.9924C254.724 98.724 256.703 99.756 258.067 101.039L259.437 99.5828C257.763 98.0074 255.455 96.8507 252.584 96.0636L252.055 97.9924ZM258.077 101.049C259.441 102.296 260.097 103.773 260.097 105.537H262.097C262.097 103.192 261.19 101.185 259.427 99.573L258.077 101.049ZM260.097 105.537C260.097 107.537 259.551 108.983 258.568 110.002L260.008 111.39C261.437 109.908 262.097 107.914 262.097 105.537H260.097ZM258.568 110.002C257.628 110.979 256.343 111.505 254.598 111.505V113.505C256.784 113.505 258.626 112.825 260.008 111.39L258.568 110.002ZM254.598 111.505C253.418 111.505 252.157 111.302 250.809 110.881L250.213 112.789C251.724 113.262 253.187 113.505 254.598 113.505V111.505ZM250.818 110.883C249.412 110.43 247.919 110 246.338 109.594L245.84 111.53C247.386 111.928 248.84 112.347 250.204 112.787L250.818 110.883ZM246.371 109.603C244.752 109.126 243.026 108.892 241.198 108.892V110.892C242.854 110.892 244.388 111.104 245.807 111.521L246.371 109.603ZM241.198 108.892C239.559 108.892 238.159 109.144 237.125 109.776L238.168 111.482C238.743 111.131 239.71 110.892 241.198 110.892V108.892ZM237.161 109.755C236.119 110.334 235.441 111.233 235.441 112.438H237.441C237.441 112.125 237.566 111.818 238.133 111.503L237.161 109.755ZM235.441 112.438C235.441 113.112 235.639 113.739 236.052 114.273C236.455 114.794 237.019 115.169 237.664 115.438L238.434 113.592C238.007 113.414 237.766 113.22 237.634 113.049C237.511 112.891 237.441 112.702 237.441 112.438H235.441ZM237.664 115.438C238.808 115.915 240.633 116.465 243.095 117.092L243.589 115.154C241.137 114.53 239.434 114.009 238.434 113.592L237.664 115.438ZM243.116 117.097L246.868 117.968L247.32 116.02L243.568 115.149L243.116 117.097ZM246.855 117.965C249.889 118.713 252.529 119.609 254.782 120.649L255.62 118.833C253.228 117.729 250.463 116.794 247.333 116.023L246.855 117.965ZM254.782 120.649C256.98 121.663 258.646 122.973 259.825 124.559L261.43 123.365C260.019 121.467 258.067 119.963 255.62 118.833L254.782 120.649ZM259.825 124.559C260.959 126.083 261.571 128.133 261.571 130.796H263.571C263.571 127.831 262.887 125.325 261.43 123.365L259.825 124.559ZM261.571 130.796C261.571 134.033 260.806 136.575 259.359 138.504L260.959 139.704C262.728 137.345 263.571 134.349 263.571 130.796H261.571ZM259.365 138.496C257.893 140.418 255.834 141.853 253.134 142.781L253.784 144.673C256.801 143.635 259.209 141.989 260.953 139.712L259.365 138.496ZM253.134 142.781C250.404 143.72 247.168 144.201 243.409 144.201V146.201C247.332 146.201 250.797 145.7 253.784 144.673L253.134 142.781Z" fill="black" mask="url(#path-1-outside-1_1_141)"/>
</g>
<g filter="url(#filter1_d_1_141)">
<mask id="path-3-outside-2_1_141" maskUnits="userSpaceOnUse" x="331.659" y="34.2338" width="374.313" height="183.812" fill="black">
<rect fill="white" x="331.659" y="34.2338" width="374.313" height="183.812"/>
<path d="M363.488 212.022C359.387 212.689 356.276 211.72 354.155 209.114C352.015 206.45 351.025 202.549 351.186 197.41L352.246 160.851C352.326 157.477 352.693 154.494 353.345 151.903C354.056 149.293 355.248 147.077 356.919 145.255C358.648 143.414 361.061 141.999 364.157 141.009C368.831 139.515 372.747 139.679 375.906 141.503C379.123 143.307 382.248 146.236 385.283 150.288L407.269 179.479C410.38 183.572 411.896 187.305 411.815 190.679C411.775 193.976 409.862 196.551 406.076 198.406C402.994 199.842 400.068 200.359 397.299 199.956C394.589 199.535 392.58 198.084 391.272 195.605C390.361 193.964 389.836 192.523 389.696 191.28C389.614 190.018 389.578 188.999 389.588 188.223C389.576 187.583 389.399 187.028 389.055 186.558C388.752 186.011 388.22 185.859 387.461 186.102L371.162 191.313C370.402 191.556 370.028 191.998 370.04 192.638C370.091 193.201 370.327 193.737 370.747 194.247C371.205 194.873 371.738 195.733 372.345 196.827C372.952 197.921 373.39 199.39 373.658 201.236C374.031 204.015 373.265 206.352 371.361 208.249C369.456 210.146 366.832 211.404 363.488 212.022ZM381.873 174.366L372.75 161.54C372.446 160.993 372.102 160.62 371.716 160.421C371.37 160.145 370.905 160.101 370.321 160.288C369.737 160.474 369.355 160.79 369.175 161.234C369.035 161.601 368.97 162.104 368.982 162.744L369.079 178.457L381.873 174.366ZM427.456 191.57C424.535 192.504 422.026 192.308 419.928 190.983C417.83 189.657 416.295 187.476 415.324 184.438L402.184 143.339C401.213 140.301 400.983 137.67 401.495 135.446C402.047 133.145 403.089 131.266 404.62 129.811C406.209 128.337 408.084 127.254 410.246 126.563C413.459 125.536 416.446 125.514 419.208 126.499C421.97 127.483 424.646 129.912 427.236 133.784L447.038 163.094L448.44 162.645L437.682 128.996C436.692 125.899 436.705 123.223 437.722 120.966C438.721 118.65 440.68 117.026 443.601 116.092C446.639 115.121 449.178 115.307 451.217 116.651C453.297 117.918 454.831 120.1 455.821 123.196L468.485 162.805C470.054 167.712 470.131 171.68 468.717 174.707C467.302 177.735 464.638 179.875 460.724 181.126C456.751 182.397 453.319 182.335 450.427 180.942C447.534 179.548 444.85 176.994 442.374 173.278L429.344 153.973C429.041 153.426 428.639 152.975 428.139 152.62C427.679 152.187 427.186 152.055 426.66 152.223C426.017 152.429 425.663 152.832 425.598 153.432C425.513 153.974 425.565 154.538 425.751 155.122L433.288 178.694C434.259 181.732 434.275 184.399 433.335 186.696C432.395 188.993 430.436 190.617 427.456 191.57ZM501.019 168.63C496.345 170.124 491.855 170.078 487.549 168.493C483.225 166.849 479.371 163.96 475.989 159.826C472.588 155.633 469.925 150.528 468.001 144.511C466.208 138.903 465.457 133.734 465.748 129.005C466.079 124.198 467.227 119.936 469.193 116.216C471.199 112.42 473.876 109.213 477.225 106.597C480.614 103.904 484.441 101.875 488.705 100.512C496.534 98.0091 502.672 97.2699 507.121 98.2945C511.609 99.2419 514.404 101.439 515.506 104.886C516.366 107.573 516.421 110.163 515.673 112.656C514.983 115.131 513.265 116.807 510.519 117.685C508.65 118.282 506.812 118.677 505.006 118.868C503.258 119.04 501.461 119.261 499.615 119.529C497.809 119.72 495.854 120.152 493.751 120.824C489.136 122.3 486.226 124.679 485.022 127.962C483.876 131.226 483.938 134.844 485.208 138.816C486.236 142.029 487.719 144.453 489.658 146.087C491.655 147.702 493.893 148.66 496.373 148.962C498.891 149.187 501.494 148.87 504.182 148.011C506.402 147.301 508.317 146.142 509.927 144.532C511.537 142.923 512.176 140.69 511.843 137.835L507.549 139.208C505.504 139.861 503.73 139.752 502.228 138.88C500.707 137.95 499.629 136.492 498.994 134.505C498.359 132.519 498.401 130.735 499.118 129.153C499.836 127.572 501.217 126.454 503.262 125.8L513.778 122.438C517.575 121.224 520.56 121.396 522.733 122.955C524.945 124.437 526.686 127.165 527.956 131.137L533.196 147.524C534.167 150.562 534.087 153.131 532.955 155.231C531.824 157.332 529.914 158.811 527.227 159.671C524.365 160.586 521.863 160.516 519.723 159.462C517.583 158.408 516.027 156.362 515.056 153.324L513.319 147.891L511.742 148.395C513.441 153.711 513.34 158.026 511.437 161.339C509.516 164.593 506.306 166.939 501.807 168.378L501.019 168.63ZM561.875 148.4C559.013 149.315 556.183 149.93 553.386 150.245C550.647 150.541 548.051 150.276 545.598 149.451C543.185 148.548 540.946 146.881 538.881 144.451C536.855 141.943 535.105 138.382 533.629 133.767C532.303 129.619 531.719 125.878 531.876 122.543C532.034 119.209 532.592 116.423 533.55 114.185C534.567 111.928 535.653 110.389 536.807 109.569L535.837 108.044L534.347 108.521C531.66 109.38 529.257 109.215 527.138 108.025C525.058 106.758 523.513 104.644 522.502 101.683C521.51 98.7809 521.522 96.2012 522.539 93.9443C523.615 91.6687 525.496 90.1013 528.183 89.2421L559.643 79.1839C565.893 77.1853 569.953 79.107 571.821 84.949C572.661 87.5779 572.574 89.9239 571.56 91.9868C570.545 94.0498 568.431 95.595 565.218 96.6223L547.079 102.422C544.917 103.113 544.238 104.715 545.041 107.227L547.142 113.799C549.858 112.222 552.653 110.492 555.527 108.607C558.46 106.703 561.358 105.294 564.221 104.378C566.966 103.501 569.207 103.46 570.943 104.257C572.719 104.978 573.933 106.36 574.587 108.405C575.26 110.508 575.091 112.397 574.081 114.072C573.111 115.67 571.262 116.937 568.535 117.873C565.691 118.847 562.523 119.409 559.03 119.56C555.536 119.711 552.226 119.933 549.1 120.224L552.77 131.703C553.125 132.813 553.669 133.509 554.403 133.789C555.176 133.993 556.113 133.5 557.214 132.311C559.594 129.683 562.027 127.424 564.513 125.534C566.981 123.586 569.559 122.182 572.246 121.323C576.043 120.109 579.224 120.187 581.787 121.557C584.408 122.908 586.232 125.19 587.259 128.403C588.362 131.85 588.16 134.845 586.654 137.386C585.207 139.91 582.176 141.909 577.561 143.385L561.875 148.4ZM577.383 82.6878C576.524 80.0005 576.678 77.665 577.847 75.6816C579.056 73.621 580.974 72.1704 583.603 71.3299C586.349 70.452 588.783 70.511 590.904 71.507C593.007 72.4445 594.488 74.2569 595.347 76.9442L607.282 114.275C607.637 115.385 608.181 116.08 608.915 116.36C609.63 116.583 610.538 116.099 611.639 114.91C614.018 112.282 616.188 110.107 618.149 108.386C620.091 106.606 622.435 105.277 625.181 104.399C628.978 103.185 632.158 103.263 634.721 104.632C637.284 106.002 639.079 108.294 640.107 111.507C641.209 114.954 641.007 117.948 639.501 120.49C638.054 123.013 635.053 125.003 630.496 126.46L612.444 132.232C608.588 133.464 605.235 134.054 602.384 133.999C599.515 133.886 597.026 132.847 594.916 130.881C592.865 128.897 591.111 125.626 589.654 121.07L577.383 82.6878ZM672.598 86.7272C669.91 87.5864 667.523 87.6734 665.437 86.9882C663.409 86.2844 662.021 84.7641 661.274 82.4273C659.761 77.6953 660.495 73.243 663.475 69.0706C665.724 66.0336 667.987 63.3459 670.266 61.0075C672.585 58.592 674.402 55.9182 675.718 52.9861C676.394 51.6754 676.622 50.4756 676.403 49.3867C676.165 48.2394 675.573 47.495 674.626 47.1536C673.739 46.7935 672.806 46.8985 671.829 47.4684C670.834 47.9798 669.998 48.8909 669.323 50.2016C668.512 51.4912 667.905 52.7154 667.503 53.8743C667.1 55.0331 666.706 56.3182 666.321 57.7294C665.673 59.9326 664.656 62.1896 663.27 64.5001C661.923 66.7336 660.052 68.2332 657.657 68.999C654.619 69.9703 651.963 69.9182 649.687 68.8428C647.451 67.6903 645.876 65.6828 644.96 62.8202C644.194 60.425 644.332 57.9342 645.372 55.3478C646.452 52.6843 648.335 50.215 651.021 47.9398C653.764 45.6459 657.21 43.8359 661.358 42.5098C668.544 40.2123 674.162 39.9614 678.213 41.7569C682.304 43.4754 685.031 46.4669 686.395 50.7316C687.441 54.0031 687.599 56.9146 686.869 59.466C686.121 61.9589 684.398 64.8279 681.701 68.0728C680.362 69.7244 679.49 71.2266 679.085 72.5794C678.72 73.8551 678.771 75.2232 679.238 76.6837C679.986 79.0205 679.737 81.0638 678.494 82.8136C677.25 84.5635 675.285 85.868 672.598 86.7272ZM666.543 105.856C665.553 102.759 665.743 99.9297 667.113 97.3667C668.483 94.8038 670.862 92.9807 674.251 91.8973C677.522 90.8514 680.43 90.9841 682.974 92.2956C685.5 93.5486 687.258 95.7233 688.248 98.8196C689.219 101.857 689.069 104.61 687.797 107.077C686.525 109.544 684.195 111.319 680.807 112.403C677.302 113.523 674.295 113.486 671.789 112.292C669.263 111.039 667.515 108.893 666.543 105.856Z"/>
</mask>
<path d="M363.488 212.022C359.387 212.689 356.276 211.72 354.155 209.114C352.015 206.45 351.025 202.549 351.186 197.41L352.246 160.851C352.326 157.477 352.693 154.494 353.345 151.903C354.056 149.293 355.248 147.077 356.919 145.255C358.648 143.414 361.061 141.999 364.157 141.009C368.831 139.515 372.747 139.679 375.906 141.503C379.123 143.307 382.248 146.236 385.283 150.288L407.269 179.479C410.38 183.572 411.896 187.305 411.815 190.679C411.775 193.976 409.862 196.551 406.076 198.406C402.994 199.842 400.068 200.359 397.299 199.956C394.589 199.535 392.58 198.084 391.272 195.605C390.361 193.964 389.836 192.523 389.696 191.28C389.614 190.018 389.578 188.999 389.588 188.223C389.576 187.583 389.399 187.028 389.055 186.558C388.752 186.011 388.22 185.859 387.461 186.102L371.162 191.313C370.402 191.556 370.028 191.998 370.04 192.638C370.091 193.201 370.327 193.737 370.747 194.247C371.205 194.873 371.738 195.733 372.345 196.827C372.952 197.921 373.39 199.39 373.658 201.236C374.031 204.015 373.265 206.352 371.361 208.249C369.456 210.146 366.832 211.404 363.488 212.022ZM381.873 174.366L372.75 161.54C372.446 160.993 372.102 160.62 371.716 160.421C371.37 160.145 370.905 160.101 370.321 160.288C369.737 160.474 369.355 160.79 369.175 161.234C369.035 161.601 368.97 162.104 368.982 162.744L369.079 178.457L381.873 174.366ZM427.456 191.57C424.535 192.504 422.026 192.308 419.928 190.983C417.83 189.657 416.295 187.476 415.324 184.438L402.184 143.339C401.213 140.301 400.983 137.67 401.495 135.446C402.047 133.145 403.089 131.266 404.62 129.811C406.209 128.337 408.084 127.254 410.246 126.563C413.459 125.536 416.446 125.514 419.208 126.499C421.97 127.483 424.646 129.912 427.236 133.784L447.038 163.094L448.44 162.645L437.682 128.996C436.692 125.899 436.705 123.223 437.722 120.966C438.721 118.65 440.68 117.026 443.601 116.092C446.639 115.121 449.178 115.307 451.217 116.651C453.297 117.918 454.831 120.1 455.821 123.196L468.485 162.805C470.054 167.712 470.131 171.68 468.717 174.707C467.302 177.735 464.638 179.875 460.724 181.126C456.751 182.397 453.319 182.335 450.427 180.942C447.534 179.548 444.85 176.994 442.374 173.278L429.344 153.973C429.041 153.426 428.639 152.975 428.139 152.62C427.679 152.187 427.186 152.055 426.66 152.223C426.017 152.429 425.663 152.832 425.598 153.432C425.513 153.974 425.565 154.538 425.751 155.122L433.288 178.694C434.259 181.732 434.275 184.399 433.335 186.696C432.395 188.993 430.436 190.617 427.456 191.57ZM501.019 168.63C496.345 170.124 491.855 170.078 487.549 168.493C483.225 166.849 479.371 163.96 475.989 159.826C472.588 155.633 469.925 150.528 468.001 144.511C466.208 138.903 465.457 133.734 465.748 129.005C466.079 124.198 467.227 119.936 469.193 116.216C471.199 112.42 473.876 109.213 477.225 106.597C480.614 103.904 484.441 101.875 488.705 100.512C496.534 98.0091 502.672 97.2699 507.121 98.2945C511.609 99.2419 514.404 101.439 515.506 104.886C516.366 107.573 516.421 110.163 515.673 112.656C514.983 115.131 513.265 116.807 510.519 117.685C508.65 118.282 506.812 118.677 505.006 118.868C503.258 119.04 501.461 119.261 499.615 119.529C497.809 119.72 495.854 120.152 493.751 120.824C489.136 122.3 486.226 124.679 485.022 127.962C483.876 131.226 483.938 134.844 485.208 138.816C486.236 142.029 487.719 144.453 489.658 146.087C491.655 147.702 493.893 148.66 496.373 148.962C498.891 149.187 501.494 148.87 504.182 148.011C506.402 147.301 508.317 146.142 509.927 144.532C511.537 142.923 512.176 140.69 511.843 137.835L507.549 139.208C505.504 139.861 503.73 139.752 502.228 138.88C500.707 137.95 499.629 136.492 498.994 134.505C498.359 132.519 498.401 130.735 499.118 129.153C499.836 127.572 501.217 126.454 503.262 125.8L513.778 122.438C517.575 121.224 520.56 121.396 522.733 122.955C524.945 124.437 526.686 127.165 527.956 131.137L533.196 147.524C534.167 150.562 534.087 153.131 532.955 155.231C531.824 157.332 529.914 158.811 527.227 159.671C524.365 160.586 521.863 160.516 519.723 159.462C517.583 158.408 516.027 156.362 515.056 153.324L513.319 147.891L511.742 148.395C513.441 153.711 513.34 158.026 511.437 161.339C509.516 164.593 506.306 166.939 501.807 168.378L501.019 168.63ZM561.875 148.4C559.013 149.315 556.183 149.93 553.386 150.245C550.647 150.541 548.051 150.276 545.598 149.451C543.185 148.548 540.946 146.881 538.881 144.451C536.855 141.943 535.105 138.382 533.629 133.767C532.303 129.619 531.719 125.878 531.876 122.543C532.034 119.209 532.592 116.423 533.55 114.185C534.567 111.928 535.653 110.389 536.807 109.569L535.837 108.044L534.347 108.521C531.66 109.38 529.257 109.215 527.138 108.025C525.058 106.758 523.513 104.644 522.502 101.683C521.51 98.7809 521.522 96.2012 522.539 93.9443C523.615 91.6687 525.496 90.1013 528.183 89.2421L559.643 79.1839C565.893 77.1853 569.953 79.107 571.821 84.949C572.661 87.5779 572.574 89.9239 571.56 91.9868C570.545 94.0498 568.431 95.595 565.218 96.6223L547.079 102.422C544.917 103.113 544.238 104.715 545.041 107.227L547.142 113.799C549.858 112.222 552.653 110.492 555.527 108.607C558.46 106.703 561.358 105.294 564.221 104.378C566.966 103.501 569.207 103.46 570.943 104.257C572.719 104.978 573.933 106.36 574.587 108.405C575.26 110.508 575.091 112.397 574.081 114.072C573.111 115.67 571.262 116.937 568.535 117.873C565.691 118.847 562.523 119.409 559.03 119.56C555.536 119.711 552.226 119.933 549.1 120.224L552.77 131.703C553.125 132.813 553.669 133.509 554.403 133.789C555.176 133.993 556.113 133.5 557.214 132.311C559.594 129.683 562.027 127.424 564.513 125.534C566.981 123.586 569.559 122.182 572.246 121.323C576.043 120.109 579.224 120.187 581.787 121.557C584.408 122.908 586.232 125.19 587.259 128.403C588.362 131.85 588.16 134.845 586.654 137.386C585.207 139.91 582.176 141.909 577.561 143.385L561.875 148.4ZM577.383 82.6878C576.524 80.0005 576.678 77.665 577.847 75.6816C579.056 73.621 580.974 72.1704 583.603 71.3299C586.349 70.452 588.783 70.511 590.904 71.507C593.007 72.4445 594.488 74.2569 595.347 76.9442L607.282 114.275C607.637 115.385 608.181 116.08 608.915 116.36C609.63 116.583 610.538 116.099 611.639 114.91C614.018 112.282 616.188 110.107 618.149 108.386C620.091 106.606 622.435 105.277 625.181 104.399C628.978 103.185 632.158 103.263 634.721 104.632C637.284 106.002 639.079 108.294 640.107 111.507C641.209 114.954 641.007 117.948 639.501 120.49C638.054 123.013 635.053 125.003 630.496 126.46L612.444 132.232C608.588 133.464 605.235 134.054 602.384 133.999C599.515 133.886 597.026 132.847 594.916 130.881C592.865 128.897 591.111 125.626 589.654 121.07L577.383 82.6878ZM672.598 86.7272C669.91 87.5864 667.523 87.6734 665.437 86.9882C663.409 86.2844 662.021 84.7641 661.274 82.4273C659.761 77.6953 660.495 73.243 663.475 69.0706C665.724 66.0336 667.987 63.3459 670.266 61.0075C672.585 58.592 674.402 55.9182 675.718 52.9861C676.394 51.6754 676.622 50.4756 676.403 49.3867C676.165 48.2394 675.573 47.495 674.626 47.1536C673.739 46.7935 672.806 46.8985 671.829 47.4684C670.834 47.9798 669.998 48.8909 669.323 50.2016C668.512 51.4912 667.905 52.7154 667.503 53.8743C667.1 55.0331 666.706 56.3182 666.321 57.7294C665.673 59.9326 664.656 62.1896 663.27 64.5001C661.923 66.7336 660.052 68.2332 657.657 68.999C654.619 69.9703 651.963 69.9182 649.687 68.8428C647.451 67.6903 645.876 65.6828 644.96 62.8202C644.194 60.425 644.332 57.9342 645.372 55.3478C646.452 52.6843 648.335 50.215 651.021 47.9398C653.764 45.6459 657.21 43.8359 661.358 42.5098C668.544 40.2123 674.162 39.9614 678.213 41.7569C682.304 43.4754 685.031 46.4669 686.395 50.7316C687.441 54.0031 687.599 56.9146 686.869 59.466C686.121 61.9589 684.398 64.8279 681.701 68.0728C680.362 69.7244 679.49 71.2266 679.085 72.5794C678.72 73.8551 678.771 75.2232 679.238 76.6837C679.986 79.0205 679.737 81.0638 678.494 82.8136C677.25 84.5635 675.285 85.868 672.598 86.7272ZM666.543 105.856C665.553 102.759 665.743 99.9297 667.113 97.3667C668.483 94.8038 670.862 92.9807 674.251 91.8973C677.522 90.8514 680.43 90.9841 682.974 92.2956C685.5 93.5486 687.258 95.7233 688.248 98.8196C689.219 101.857 689.069 104.61 687.797 107.077C686.525 109.544 684.195 111.319 680.807 112.403C677.302 113.523 674.295 113.486 671.789 112.292C669.263 111.039 667.515 108.893 666.543 105.856Z" fill="#FF8400"/>
<path d="M363.488 212.022L363.648 213.009L363.659 213.007L363.67 213.005L363.488 212.022ZM354.155 209.114L353.375 209.74L353.379 209.745L354.155 209.114ZM351.186 197.41L352.185 197.442L352.185 197.439L351.186 197.41ZM352.246 160.851L353.246 160.88L353.246 160.875L352.246 160.851ZM353.345 151.903L352.381 151.64L352.378 151.65L352.376 151.659L353.345 151.903ZM356.919 145.255L356.19 144.57L356.182 144.579L356.919 145.255ZM375.906 141.503L375.406 142.369L375.417 142.375L375.906 141.503ZM385.283 150.288L384.482 150.888L384.484 150.89L385.283 150.288ZM407.269 179.479L406.47 180.081L406.473 180.085L407.269 179.479ZM411.815 190.679L410.816 190.655L410.815 190.666L411.815 190.679ZM406.076 198.406L406.498 199.312L406.507 199.308L406.516 199.304L406.076 198.406ZM397.299 199.956L397.146 200.944L397.155 200.946L397.299 199.956ZM391.272 195.605L392.156 195.138L392.151 195.129L392.146 195.12L391.272 195.605ZM389.696 191.28L388.698 191.344L388.699 191.368L388.702 191.391L389.696 191.28ZM389.588 188.223L390.588 188.235L390.588 188.22L390.588 188.205L389.588 188.223ZM389.055 186.558L388.181 187.044L388.211 187.098L388.248 187.148L389.055 186.558ZM370.04 192.638L369.04 192.656L369.041 192.692L369.044 192.729L370.04 192.638ZM370.747 194.247L371.555 193.657L371.537 193.633L371.519 193.61L370.747 194.247ZM372.345 196.827L373.219 196.342L372.345 196.827ZM373.658 201.236L374.649 201.103L374.648 201.093L373.658 201.236ZM371.361 208.249L372.066 208.958L371.361 208.249ZM381.873 174.366L382.178 175.319L383.482 174.902L382.688 173.787L381.873 174.366ZM372.75 161.54L371.876 162.025L371.903 162.074L371.935 162.119L372.75 161.54ZM371.716 160.421L371.093 161.203L371.17 161.265L371.258 161.31L371.716 160.421ZM369.175 161.234L368.248 160.858L368.244 160.867L368.241 160.876L369.175 161.234ZM368.982 162.744L369.982 162.738L369.982 162.726L368.982 162.744ZM369.079 178.457L368.079 178.463L368.088 179.824L369.384 179.409L369.079 178.457ZM363.327 211.035C359.482 211.661 356.769 210.742 354.93 208.483L353.379 209.745C355.782 212.698 359.292 213.718 363.648 213.009L363.327 211.035ZM354.934 208.488C353.004 206.084 352.029 202.458 352.185 197.442L350.186 197.379C350.022 202.64 351.027 206.816 353.375 209.74L354.934 208.488ZM352.185 197.439L353.246 160.88L351.247 160.822L350.186 197.381L352.185 197.439ZM353.246 160.875C353.325 157.557 353.685 154.65 354.315 152.147L352.376 151.659C351.701 154.338 351.328 157.397 351.246 160.827L353.246 160.875ZM354.31 152.166C354.983 149.695 356.102 147.625 357.656 145.931L356.182 144.579C354.393 146.53 353.13 148.891 352.381 151.64L354.31 152.166ZM357.647 145.94C359.232 144.254 361.482 142.914 364.462 141.962L363.853 140.057C360.64 141.084 358.065 142.575 356.19 144.57L357.647 145.94ZM364.462 141.962C368.964 140.522 372.567 140.73 375.406 142.369L376.406 140.637C372.927 138.629 368.698 138.507 363.853 140.057L364.462 141.962ZM375.417 142.375C378.476 144.091 381.502 146.908 384.482 150.888L386.083 149.689C382.995 145.564 379.77 142.524 376.395 140.631L375.417 142.375ZM384.484 150.89L406.47 180.081L408.068 178.878L386.081 149.687L384.484 150.89ZM406.473 180.085C409.515 184.086 410.888 187.599 410.816 190.655L412.815 190.702C412.903 187.01 411.245 183.057 408.065 178.874L406.473 180.085ZM410.815 190.666C410.781 193.476 409.195 195.764 405.636 197.508L406.516 199.304C410.529 197.338 412.769 194.475 412.815 190.691L410.815 190.666ZM405.654 197.499C402.709 198.871 399.981 199.336 397.443 198.967L397.155 200.946C400.155 201.382 403.278 200.813 406.498 199.312L405.654 197.499ZM397.453 198.968C395.063 198.597 393.32 197.346 392.156 195.138L390.387 196.072C391.839 198.823 394.115 200.473 397.146 200.944L397.453 198.968ZM392.146 195.12C391.27 193.542 390.809 192.231 390.689 191.168L388.702 191.391C388.862 192.814 389.452 194.387 390.398 196.09L392.146 195.12ZM390.694 191.215C390.613 189.965 390.579 188.975 390.588 188.235L388.588 188.211C388.578 189.023 388.616 190.07 388.698 191.344L390.694 191.215ZM390.588 188.205C390.573 187.381 390.34 186.621 389.863 185.968L388.248 187.148C388.458 187.435 388.58 187.785 388.588 188.241L390.588 188.205ZM389.93 186.073C389.668 185.601 389.259 185.231 388.704 185.073C388.182 184.923 387.645 184.993 387.156 185.15L387.765 187.055C388.036 186.968 388.145 186.993 388.154 186.996C388.155 186.996 388.148 186.993 388.143 186.989C388.141 186.987 388.156 186.998 388.181 187.044L389.93 186.073ZM387.156 185.15L370.857 190.361L371.466 192.266L387.765 187.055L387.156 185.15ZM370.857 190.361C370.364 190.519 369.894 190.772 369.548 191.18C369.187 191.607 369.03 192.121 369.04 192.656L371.04 192.62C371.038 192.56 371.047 192.527 371.052 192.513C371.056 192.5 371.062 192.488 371.075 192.473C371.103 192.44 371.2 192.351 371.466 192.266L370.857 190.361ZM369.044 192.729C369.116 193.524 369.45 194.246 369.976 194.883L371.519 193.61C371.204 193.229 371.066 192.878 371.036 192.547L369.044 192.729ZM369.94 194.837C370.363 195.416 370.873 196.236 371.471 197.312L373.219 196.342C372.602 195.231 372.047 194.331 371.555 193.657L369.94 194.837ZM371.471 197.312C371.998 198.262 372.41 199.601 372.669 201.38L374.648 201.093C374.37 199.18 373.907 197.58 373.219 196.342L371.471 197.312ZM372.667 201.37C373.001 203.854 372.328 205.875 370.655 207.541L372.066 208.958C374.203 206.83 375.062 204.176 374.649 201.103L372.667 201.37ZM370.655 207.541C368.927 209.262 366.504 210.447 363.306 211.039L363.67 213.005C367.159 212.36 369.985 211.031 372.066 208.958L370.655 207.541ZM382.688 173.787L373.565 160.96L371.935 162.119L381.059 174.946L382.688 173.787ZM373.624 161.054C373.265 160.407 372.797 159.853 372.174 159.532L371.258 161.31C371.406 161.387 371.627 161.578 371.876 162.025L373.624 161.054ZM372.34 159.639C371.639 159.08 370.785 159.09 370.017 159.335L370.626 161.24C370.827 161.176 370.95 161.17 371.013 161.176C371.064 161.181 371.08 161.193 371.093 161.203L372.34 159.639ZM370.017 159.335C369.235 159.585 368.57 160.065 368.248 160.858L370.102 161.61C370.14 161.514 370.239 161.364 370.626 161.24L370.017 159.335ZM368.241 160.876C368.035 161.415 367.969 162.065 367.982 162.762L369.982 162.726C369.971 162.144 370.034 161.786 370.109 161.591L368.241 160.876ZM367.982 162.75L368.079 178.463L370.079 178.451L369.982 162.738L367.982 162.75ZM369.384 179.409L382.178 175.319L381.569 173.414L368.775 177.504L369.384 179.409ZM419.928 190.983L419.394 191.828L419.928 190.983ZM401.495 135.446L400.523 135.213L400.521 135.222L401.495 135.446ZM404.62 129.811L403.94 129.078L403.931 129.086L404.62 129.811ZM419.208 126.499L418.872 127.441L419.208 126.499ZM427.236 133.784L426.405 134.34L426.407 134.344L427.236 133.784ZM447.038 163.094L446.21 163.654L446.629 164.274L447.343 164.046L447.038 163.094ZM448.44 162.645L448.745 163.598L449.697 163.293L449.393 162.341L448.44 162.645ZM437.722 120.966L438.634 121.377L438.637 121.369L438.641 121.362L437.722 120.966ZM451.217 116.651L450.667 117.486L450.682 117.496L450.697 117.505L451.217 116.651ZM468.717 174.707L467.811 174.284L468.717 174.707ZM450.427 180.942L449.993 181.843L450.427 180.942ZM442.374 173.278L443.206 172.723L443.203 172.718L442.374 173.278ZM429.344 153.973L428.47 154.458L428.491 154.496L428.515 154.532L429.344 153.973ZM428.139 152.62L427.454 153.349L427.504 153.395L427.56 153.435L428.139 152.62ZM425.598 153.432L426.586 153.586L426.589 153.563L426.592 153.541L425.598 153.432ZM427.152 190.617C424.44 191.484 422.252 191.268 420.462 190.137L419.394 191.828C421.8 193.348 424.631 193.523 427.761 192.522L427.152 190.617ZM420.462 190.137C418.614 188.97 417.197 187.012 416.276 184.133L414.371 184.742C415.394 187.939 417.046 190.345 419.394 191.828L420.462 190.137ZM416.276 184.133L403.136 143.035L401.231 143.644L414.371 184.742L416.276 184.133ZM403.136 143.035C402.199 140.103 402.011 137.664 402.47 135.67L400.521 135.222C399.955 137.677 400.226 140.5 401.231 143.644L403.136 143.035ZM402.468 135.679C402.98 133.542 403.934 131.842 405.309 130.536L403.931 129.086C402.243 130.69 401.114 132.747 400.523 135.213L402.468 135.679ZM405.3 130.544C406.776 129.175 408.522 128.164 410.55 127.516L409.941 125.611C407.647 126.344 405.641 127.499 403.94 129.078L405.3 130.544ZM410.55 127.516C413.587 126.545 416.347 126.541 418.872 127.441L419.544 125.557C416.545 124.488 413.33 124.527 409.941 125.611L410.55 127.516ZM418.872 127.441C421.344 128.322 423.869 130.549 426.405 134.34L428.067 133.228C425.423 129.275 422.596 126.645 419.544 125.557L418.872 127.441ZM426.407 134.344L446.21 163.654L447.867 162.534L428.064 133.224L426.407 134.344ZM447.343 164.046L448.745 163.598L448.136 161.693L446.734 162.141L447.343 164.046ZM449.393 162.341L438.634 128.691L436.729 129.3L447.488 162.95L449.393 162.341ZM438.634 128.691C437.695 125.755 437.747 123.345 438.634 121.377L436.811 120.555C435.664 123.1 435.688 126.044 436.729 129.3L438.634 128.691ZM438.641 121.362C439.5 119.369 441.195 117.911 443.906 117.044L443.297 115.139C440.165 116.141 437.941 117.932 436.804 120.57L438.641 121.362ZM443.906 117.044C446.751 116.135 448.953 116.356 450.667 117.486L451.768 115.816C449.403 114.258 446.528 114.106 443.297 115.139L443.906 117.044ZM450.697 117.505C452.511 118.61 453.927 120.556 454.869 123.5L456.774 122.891C455.735 119.644 454.083 117.226 451.738 115.797L450.697 117.505ZM454.869 123.5L467.533 163.109L469.438 162.5L456.774 122.891L454.869 123.5ZM467.533 163.109C469.065 167.902 469.074 171.581 467.811 174.284L469.623 175.131C471.189 171.778 471.043 167.522 469.438 162.5L467.533 163.109ZM467.811 174.284C466.541 177.003 464.134 178.986 460.42 180.174L461.029 182.079C465.143 180.764 468.064 178.467 469.623 175.131L467.811 174.284ZM460.42 180.174C456.615 181.39 453.46 181.293 450.861 180.041L449.993 181.843C453.178 183.377 456.888 183.403 461.029 182.079L460.42 180.174ZM450.861 180.041C448.181 178.75 445.62 176.346 443.206 172.723L441.542 173.832C444.08 177.642 446.888 180.347 449.993 181.843L450.861 180.041ZM443.203 172.718L430.173 153.414L428.515 154.532L441.545 173.837L443.203 172.718ZM430.219 153.488C429.844 152.813 429.342 152.248 428.718 151.805L427.56 153.435C427.935 153.702 428.237 154.039 428.47 154.458L430.219 153.488ZM428.824 151.891C428.145 151.253 427.283 150.974 426.355 151.271L426.964 153.176C427.088 153.136 427.213 153.122 427.454 153.349L428.824 151.891ZM426.355 151.271C425.905 151.415 425.485 151.651 425.161 152.02C424.832 152.395 424.656 152.846 424.604 153.324L426.592 153.541C426.605 153.418 426.639 153.368 426.664 153.34C426.694 153.305 426.772 153.237 426.964 153.176L426.355 151.271ZM424.61 153.279C424.499 153.991 424.571 154.712 424.799 155.426L426.704 154.817C426.559 154.363 426.528 153.957 426.586 153.586L424.61 153.279ZM424.799 155.426L432.336 178.999L434.241 178.39L426.704 154.817L424.799 155.426ZM432.336 178.999C433.256 181.878 433.238 184.294 432.41 186.317L434.261 187.075C435.312 184.505 435.263 181.586 434.241 178.39L432.336 178.999ZM432.41 186.317C431.61 188.271 429.929 189.729 427.152 190.617L427.761 192.522C430.942 191.505 433.181 189.714 434.261 187.075L432.41 186.317ZM487.549 168.493L487.194 169.428L487.204 169.432L487.549 168.493ZM475.989 159.826L475.212 160.456L475.215 160.459L475.989 159.826ZM465.748 129.005L464.75 128.936L464.75 128.943L465.748 129.005ZM469.193 116.216L470.077 116.683L470.077 116.683L469.193 116.216ZM477.225 106.597L477.841 107.385L477.847 107.38L477.225 106.597ZM507.121 98.2945L506.896 99.2689L506.905 99.271L506.914 99.2729L507.121 98.2945ZM515.673 112.656L514.715 112.369L514.712 112.378L514.709 112.388L515.673 112.656ZM505.006 118.868L505.104 119.863L505.111 119.862L505.006 118.868ZM499.615 119.529L499.72 120.523L499.739 120.521L499.759 120.519L499.615 119.529ZM485.022 127.962L484.083 127.617L484.078 127.63L485.022 127.962ZM489.658 146.087L489.013 146.851L489.021 146.858L489.029 146.864L489.658 146.087ZM496.373 148.962L496.252 149.955L496.268 149.957L496.284 149.958L496.373 148.962ZM509.927 144.532L510.634 145.239L509.927 144.532ZM511.843 137.835L512.836 137.719L512.695 136.512L511.538 136.882L511.843 137.835ZM502.228 138.88L501.706 139.733L501.716 139.739L501.726 139.745L502.228 138.88ZM522.733 122.955L522.15 123.768L522.163 123.777L522.176 123.786L522.733 122.955ZM519.723 159.462L520.165 158.565L519.723 159.462ZM513.319 147.891L514.272 147.586L513.967 146.634L513.015 146.938L513.319 147.891ZM511.742 148.395L511.437 147.442L510.485 147.747L510.789 148.699L511.742 148.395ZM511.437 161.339L512.298 161.847L512.304 161.837L511.437 161.339ZM500.714 167.677C496.237 169.109 491.977 169.058 487.895 167.555L487.204 169.432C491.734 171.099 496.453 171.139 501.323 169.582L500.714 167.677ZM487.905 167.558C483.767 165.986 480.052 163.213 476.763 159.193L475.215 160.459C478.691 164.708 482.682 167.713 487.194 169.428L487.905 167.558ZM476.765 159.196C473.455 155.115 470.846 150.125 468.954 144.207L467.049 144.816C469.004 150.932 471.721 156.152 475.212 160.456L476.765 159.196ZM468.954 144.207C467.19 138.689 466.464 133.646 466.746 129.066L464.75 128.943C464.45 133.822 465.227 139.117 467.049 144.816L468.954 144.207ZM466.746 129.073C467.068 124.386 468.185 120.263 470.077 116.683L468.309 115.749C466.269 119.608 465.089 124.011 464.75 128.936L466.746 129.073ZM470.077 116.683C472.018 113.01 474.604 109.914 477.841 107.385L476.61 105.809C473.148 108.513 470.38 111.829 468.309 115.749L470.077 116.683ZM477.847 107.38C481.138 104.765 484.856 102.792 489.01 101.464L488.401 99.5595C484.025 100.959 480.09 103.043 476.603 105.814L477.847 107.38ZM489.01 101.464C496.785 98.9787 502.713 98.3055 506.896 99.2689L507.345 97.32C502.631 96.2343 496.283 97.0395 488.401 99.5595L489.01 101.464ZM506.914 99.2729C511.16 100.169 513.592 102.181 514.554 105.19L516.459 104.581C515.217 100.697 512.058 98.3146 507.327 97.316L506.914 99.2729ZM514.554 105.19C515.357 107.702 515.4 110.085 514.715 112.369L516.63 112.944C517.442 110.241 517.374 107.444 516.459 104.581L514.554 105.19ZM514.709 112.388C514.122 114.494 512.686 115.942 510.215 116.732L510.824 118.637C513.844 117.671 515.843 115.767 516.636 112.925L514.709 112.388ZM510.215 116.732C508.405 117.311 506.634 117.69 504.9 117.873L505.111 119.862C506.99 119.663 508.895 119.254 510.824 118.637L510.215 116.732ZM504.907 117.873C503.143 118.047 501.331 118.269 499.471 118.539L499.759 120.519C501.59 120.252 503.372 120.034 505.104 119.863L504.907 117.873ZM499.51 118.534C497.623 118.734 495.601 119.183 493.446 119.872L494.055 121.777C496.107 121.121 497.994 120.706 499.72 120.523L499.51 118.534ZM493.446 119.872C488.658 121.403 485.43 123.944 484.083 127.617L485.961 128.306C487.022 125.414 489.614 123.197 494.055 121.777L493.446 119.872ZM484.078 127.63C482.847 131.139 482.933 134.985 484.256 139.121L486.161 138.512C484.943 134.703 484.906 131.312 485.965 128.293L484.078 127.63ZM484.256 139.121C485.322 142.456 486.89 145.062 489.013 146.851L490.302 145.322C488.547 143.843 487.149 141.603 486.161 138.512L484.256 139.121ZM489.029 146.864C491.168 148.594 493.581 149.63 496.252 149.955L496.493 147.97C494.206 147.691 492.143 146.81 490.287 145.309L489.029 146.864ZM496.284 149.958C498.95 150.197 501.687 149.859 504.486 148.964L503.877 147.059C501.302 147.882 498.833 148.178 496.461 147.966L496.284 149.958ZM504.486 148.964C506.854 148.206 508.908 146.964 510.634 145.239L509.22 143.825C507.725 145.319 505.949 146.396 503.877 147.059L504.486 148.964ZM510.634 145.239C512.516 143.358 513.194 140.79 512.836 137.719L510.849 137.951C511.157 140.59 510.559 142.487 509.22 143.825L510.634 145.239ZM511.538 136.882L507.244 138.255L507.853 140.16L512.147 138.787L511.538 136.882ZM507.244 138.255C505.4 138.845 503.932 138.713 502.73 138.015L501.726 139.745C503.529 140.791 505.608 140.878 507.853 140.16L507.244 138.255ZM502.75 138.027C501.468 137.243 500.522 135.999 499.947 134.201L498.042 134.81C498.737 136.984 499.947 138.657 501.706 139.733L502.75 138.027ZM499.947 134.201C499.371 132.401 499.433 130.879 500.029 129.567L498.208 128.74C497.368 130.591 497.347 132.637 498.042 134.81L499.947 134.201ZM500.029 129.567C500.603 128.301 501.723 127.342 503.567 126.753L502.957 124.848C500.712 125.566 499.069 126.842 498.208 128.74L500.029 129.567ZM503.567 126.753L514.082 123.391L513.473 121.486L502.957 124.848L503.567 126.753ZM514.082 123.391C517.732 122.224 520.342 122.471 522.15 123.768L523.316 122.143C520.778 120.322 517.418 120.224 513.473 121.486L514.082 123.391ZM522.176 123.786C524.121 125.089 525.766 127.57 527.004 131.442L528.909 130.833C527.607 126.76 525.769 123.786 523.289 122.125L522.176 123.786ZM527.004 131.442L532.243 147.829L534.148 147.22L528.909 130.833L527.004 131.442ZM532.243 147.829C533.161 150.698 533.039 152.968 532.075 154.757L533.836 155.706C535.135 153.294 535.173 150.426 534.148 147.22L532.243 147.829ZM532.075 154.757C531.088 156.589 529.411 157.922 526.923 158.718L527.532 160.623C530.417 159.701 532.559 158.075 533.836 155.706L532.075 154.757ZM526.923 158.718C524.24 159.576 522.017 159.477 520.165 158.565L519.281 160.359C521.71 161.556 524.49 161.596 527.532 160.623L526.923 158.718ZM520.165 158.565C518.342 157.667 516.926 155.889 516.009 153.019L514.104 153.628C515.129 156.834 516.824 159.148 519.281 160.359L520.165 158.565ZM516.009 153.019L514.272 147.586L512.367 148.195L514.104 153.628L516.009 153.019ZM513.015 146.938L511.437 147.442L512.046 149.347L513.624 148.843L513.015 146.938ZM510.789 148.699C512.443 153.873 512.279 157.866 510.57 160.84L512.304 161.837C514.401 158.186 514.44 153.549 512.694 148.09L510.789 148.699ZM510.576 160.83C508.808 163.824 505.828 166.042 501.503 167.425L502.112 169.33C506.783 167.836 510.223 165.362 512.298 161.847L510.576 160.83ZM501.503 167.425L500.714 167.677L501.323 169.582L502.112 169.33L501.503 167.425ZM553.386 150.245L553.493 151.239L553.498 151.238L553.386 150.245ZM545.598 149.451L545.248 150.387L545.264 150.393L545.279 150.398L545.598 149.451ZM538.881 144.451L538.103 145.079L538.11 145.089L538.118 145.098L538.881 144.451ZM531.876 122.543L532.875 122.59L531.876 122.543ZM533.55 114.185L532.638 113.774L532.635 113.782L532.631 113.791L533.55 114.185ZM536.807 109.569L537.386 110.385L538.161 109.834L537.651 109.032L536.807 109.569ZM535.837 108.044L536.681 107.508L536.267 106.857L535.532 107.092L535.837 108.044ZM527.138 108.025L526.617 108.879L526.633 108.888L526.648 108.897L527.138 108.025ZM522.502 101.683L523.449 101.36L523.448 101.36L522.502 101.683ZM522.539 93.9443L521.635 93.5171L521.631 93.5252L521.628 93.5335L522.539 93.9443ZM547.142 113.799L546.19 114.103L546.569 115.288L547.644 114.664L547.142 113.799ZM555.527 108.607L554.983 107.768L554.979 107.77L555.527 108.607ZM570.943 104.257L570.526 105.166L570.546 105.176L570.567 105.184L570.943 104.257ZM574.081 114.072L574.936 114.591L574.937 114.588L574.081 114.072ZM568.535 117.873L568.859 118.82L568.86 118.819L568.535 117.873ZM559.03 119.56L559.073 120.559L559.03 119.56ZM549.1 120.224L549.007 119.228L547.769 119.344L548.147 120.528L549.1 120.224ZM554.403 133.789L554.046 134.723L554.096 134.743L554.149 134.756L554.403 133.789ZM557.214 132.311L557.948 132.99L557.956 132.982L557.214 132.311ZM564.513 125.534L565.118 126.33L565.126 126.325L565.133 126.319L564.513 125.534ZM581.787 121.557L581.315 122.439L581.322 122.442L581.328 122.446L581.787 121.557ZM586.654 137.386L585.794 136.877L585.787 136.889L586.654 137.386ZM561.571 147.447C558.767 148.344 556.001 148.944 553.274 149.251L553.498 151.238C556.364 150.916 559.259 150.286 562.18 149.352L561.571 147.447ZM553.278 149.25C550.674 149.532 548.225 149.279 545.917 148.503L545.279 150.398C547.878 151.273 550.62 151.549 553.493 151.239L553.278 149.25ZM545.948 148.514C543.728 147.684 541.623 146.135 539.643 143.803L538.118 145.098C540.268 147.628 542.641 149.412 545.248 150.387L545.948 148.514ZM539.659 143.823C537.74 141.447 536.037 138.013 534.582 133.462L532.677 134.071C534.173 138.751 535.971 142.44 538.103 145.079L539.659 143.823ZM534.582 133.462C533.282 129.395 532.725 125.776 532.875 122.59L530.877 122.496C530.713 125.98 531.325 129.842 532.677 134.071L534.582 133.462ZM532.875 122.59C533.029 119.334 533.572 116.674 534.469 114.578L532.631 113.791C531.611 116.171 531.038 119.084 530.877 122.496L532.875 122.59ZM534.462 114.595C535.453 112.395 536.448 111.051 537.386 110.385L536.228 108.754C534.857 109.728 533.681 111.46 532.638 113.774L534.462 114.595ZM537.651 109.032L536.681 107.508L534.993 108.581L535.964 110.106L537.651 109.032ZM535.532 107.092L534.043 107.568L534.652 109.473L536.141 108.997L535.532 107.092ZM534.043 107.568C531.573 108.358 529.465 108.185 527.627 107.153L526.648 108.897C529.049 110.245 531.747 110.402 534.652 109.473L534.043 107.568ZM527.658 107.171C525.83 106.057 524.406 104.164 523.449 101.36L521.556 102.006C522.621 105.124 524.287 107.459 526.617 108.879L527.658 107.171ZM523.448 101.36C522.518 98.6374 522.562 96.3284 523.451 94.3552L521.628 93.5335C520.483 96.0741 520.502 98.9244 521.556 102.007L523.448 101.36ZM523.443 94.3716C524.385 92.3783 526.029 90.9807 528.488 90.1946L527.879 88.2896C524.963 89.222 522.844 90.9592 521.635 93.5171L523.443 94.3716ZM528.488 90.1946L559.947 80.1364L559.338 78.2314L527.879 88.2896L528.488 90.1946ZM559.947 80.1364C562.941 79.1791 565.233 79.2187 566.947 80.0301C568.646 80.834 569.987 82.4965 570.868 85.2536L572.773 84.6445C571.787 81.5595 570.164 79.3402 567.803 78.2224C565.458 77.1121 562.595 77.1901 559.338 78.2314L559.947 80.1364ZM570.868 85.2536C571.647 87.6886 571.54 89.7599 570.662 91.5455L572.457 92.4282C573.608 90.0879 573.676 87.4672 572.773 84.6445L570.868 85.2536ZM570.662 91.5455C569.814 93.2701 567.989 94.6864 564.913 95.6698L565.523 97.5748C568.873 96.5035 571.276 94.8295 572.457 92.4282L570.662 91.5455ZM564.913 95.6698L546.774 101.469L547.383 103.374L565.523 97.5748L564.913 95.6698ZM546.774 101.469C545.506 101.875 544.513 102.606 544.027 103.751C543.557 104.861 543.65 106.16 544.089 107.531L545.994 106.922C545.629 105.781 545.66 105.023 545.869 104.532C546.062 104.075 546.49 103.66 547.383 103.374L546.774 101.469ZM544.089 107.531L546.19 114.103L548.095 113.494L545.994 106.922L544.089 107.531ZM547.644 114.664C550.377 113.077 553.187 111.337 556.076 109.443L554.979 107.77C552.118 109.646 549.339 111.367 546.64 112.934L547.644 114.664ZM556.072 109.445C558.942 107.583 561.76 106.215 564.525 105.331L563.916 103.426C560.956 104.372 557.979 105.824 554.983 107.768L556.072 109.445ZM564.525 105.331C567.151 104.491 569.108 104.515 570.526 105.166L571.36 103.349C569.306 102.405 566.782 102.51 563.916 103.426L564.525 105.331ZM570.567 105.184C572.033 105.778 573.059 106.909 573.635 108.709L575.54 108.1C574.808 105.811 573.405 104.177 571.319 103.331L570.567 105.184ZM573.635 108.709C574.232 110.577 574.065 112.161 573.225 113.556L574.937 114.588C576.116 112.633 576.287 110.438 575.54 108.1L573.635 108.709ZM573.226 113.553C572.428 114.868 570.831 116.028 568.211 116.928L568.86 118.819C571.694 117.846 573.794 116.472 574.936 114.591L573.226 113.553ZM568.211 116.927C565.471 117.865 562.399 118.414 558.986 118.561L559.073 120.559C562.646 120.405 565.911 119.829 568.859 118.82L568.211 116.927ZM558.986 118.561C555.478 118.713 552.152 118.935 549.007 119.228L549.193 121.22C552.301 120.93 555.594 120.71 559.073 120.559L558.986 118.561ZM548.147 120.528L551.818 132.008L553.723 131.399L550.052 119.919L548.147 120.528ZM551.818 132.008C552.219 133.263 552.912 134.29 554.046 134.723L554.76 132.855C554.427 132.728 554.031 132.364 553.723 131.399L551.818 132.008ZM554.149 134.756C554.847 134.94 555.535 134.782 556.151 134.457C556.759 134.138 557.357 133.629 557.948 132.99L556.481 131.632C555.971 132.182 555.55 132.514 555.22 132.687C554.9 132.856 554.733 132.842 554.657 132.822L554.149 134.756ZM557.956 132.982C560.299 130.394 562.687 128.178 565.118 126.33L563.908 124.738C561.366 126.67 558.888 128.972 556.473 131.64L557.956 132.982ZM565.133 126.319C567.517 124.437 569.99 123.094 572.551 122.276L571.942 120.371C569.128 121.27 566.445 122.735 563.894 124.749L565.133 126.319ZM572.551 122.276C576.189 121.113 579.069 121.238 581.315 122.439L582.258 120.675C579.379 119.136 575.898 119.106 571.942 120.371L572.551 122.276ZM581.328 122.446C583.68 123.658 585.348 125.708 586.307 128.708L588.212 128.099C587.117 124.673 585.136 122.159 582.245 120.668L581.328 122.446ZM586.307 128.708C587.343 131.949 587.122 134.635 585.794 136.877L587.515 137.896C589.198 135.054 589.38 131.751 588.212 128.099L586.307 128.708ZM585.787 136.889C584.524 139.091 581.782 140.985 577.257 142.432L577.866 144.337C582.571 142.833 585.891 140.729 587.522 137.884L585.787 136.889ZM577.257 142.432L561.571 147.447L562.18 149.352L577.866 144.337L577.257 142.432ZM577.847 75.6816L578.709 76.1892L578.71 76.1875L577.847 75.6816ZM590.904 71.507L590.479 72.4122L590.488 72.4163L590.497 72.4203L590.904 71.507ZM608.915 116.36L608.558 117.294L608.588 117.306L608.618 117.315L608.915 116.36ZM611.639 114.91L612.373 115.589L612.38 115.581L611.639 114.91ZM618.149 108.386L618.809 109.137L618.817 109.13L618.825 109.123L618.149 108.386ZM634.721 104.632L635.193 103.751L634.721 104.632ZM639.501 120.49L638.641 119.98L638.634 119.992L639.501 120.49ZM602.384 133.999L602.345 134.998L602.355 134.999L602.365 134.999L602.384 133.999ZM594.916 130.881L594.221 131.6L594.228 131.607L594.235 131.613L594.916 130.881ZM578.335 82.3832C577.542 79.901 577.716 77.8732 578.709 76.1892L576.986 75.1739C575.64 77.4569 575.505 80.0999 576.43 82.9923L578.335 82.3832ZM578.71 76.1875C579.774 74.3721 581.475 73.0603 583.908 72.2824L583.299 70.3774C580.474 71.2805 578.337 72.8698 576.985 75.1756L578.71 76.1875ZM583.908 72.2824C586.471 71.4628 588.636 71.5469 590.479 72.4122L591.329 70.6018C588.929 69.4752 586.227 69.4412 583.299 70.3774L583.908 72.2824ZM590.497 72.4203C592.282 73.2162 593.601 74.7665 594.394 77.2487L596.299 76.6397C595.375 73.7473 593.732 71.6727 591.311 70.5936L590.497 72.4203ZM594.394 77.2487L606.33 114.579L608.235 113.97L596.299 76.6397L594.394 77.2487ZM606.33 114.579C606.731 115.834 607.424 116.861 608.558 117.294L609.272 115.426C608.939 115.299 608.543 114.935 608.235 113.97L606.33 114.579ZM608.618 117.315C609.314 117.532 610.003 117.366 610.602 117.047C611.195 116.732 611.785 116.224 612.373 115.589L610.905 114.231C610.392 114.785 609.977 115.114 609.662 115.282C609.354 115.446 609.231 115.411 609.212 115.405L608.618 117.315ZM612.38 115.581C614.742 112.972 616.885 110.826 618.809 109.137L617.489 107.634C615.492 109.388 613.294 111.592 610.897 114.239L612.38 115.581ZM618.825 109.123C620.65 107.449 622.864 106.189 625.485 105.351L624.876 103.446C622.006 104.364 619.532 105.762 617.473 107.648L618.825 109.123ZM625.485 105.351C629.124 104.188 632.003 104.314 634.25 105.514L635.193 103.751C632.313 102.212 628.833 102.181 624.876 103.446L625.485 105.351ZM634.25 105.514C636.547 106.742 638.192 108.803 639.154 111.811L641.059 111.202C639.966 107.784 638.022 105.263 635.193 103.751L634.25 105.514ZM639.154 111.811C640.19 115.053 639.969 117.738 638.641 119.98L640.362 120.999C642.045 118.158 642.227 114.855 641.059 111.202L639.154 111.811ZM638.634 119.992C637.37 122.196 634.654 124.081 630.191 125.508L630.8 127.413C635.451 125.926 638.739 123.83 640.369 120.987L638.634 119.992ZM630.191 125.508L612.14 131.279L612.749 133.184L630.8 127.413L630.191 125.508ZM612.14 131.279C608.348 132.491 605.109 133.051 602.404 132.999L602.365 134.999C605.361 135.056 608.829 134.437 612.749 133.184L612.14 131.279ZM602.424 133C599.795 132.896 597.533 131.953 595.598 130.15L594.235 131.613C596.518 133.741 599.235 134.876 602.345 134.998L602.424 133ZM595.612 130.163C593.734 128.346 592.043 125.258 590.607 120.765L588.702 121.374C590.179 125.995 591.997 129.448 594.221 131.6L595.612 130.163ZM590.607 120.765L578.335 82.3832L576.43 82.9923L588.702 121.374L590.607 120.765ZM665.437 86.9882L665.109 87.933L665.117 87.9357L665.125 87.9383L665.437 86.9882ZM663.475 69.0706L662.672 68.4755L662.666 68.4824L662.661 68.4894L663.475 69.0706ZM670.266 61.0075L670.982 61.7054L670.988 61.6999L670.266 61.0075ZM675.718 52.9861L674.83 52.5279L674.817 52.5519L674.806 52.5765L675.718 52.9861ZM676.403 49.3867L677.383 49.1892L677.382 49.1835L676.403 49.3867ZM674.626 47.1536L674.251 48.0803L674.269 48.0876L674.287 48.0943L674.626 47.1536ZM671.829 47.4684L672.286 48.3578L672.31 48.3456L672.333 48.3321L671.829 47.4684ZM669.323 50.2016L670.169 50.734L670.192 50.6978L670.211 50.6597L669.323 50.2016ZM667.503 53.8743L666.558 53.5464L667.503 53.8743ZM666.321 57.7294L667.28 58.0115L667.283 58.0023L667.285 57.9932L666.321 57.7294ZM663.27 64.5001L664.126 65.0164L664.127 65.0146L663.27 64.5001ZM649.687 68.8428L649.229 69.7317L649.244 69.7396L649.26 69.7469L649.687 68.8428ZM645.372 55.3478L644.446 54.972L644.444 54.9746L645.372 55.3478ZM651.021 47.9398L650.379 47.1726L650.374 47.1768L651.021 47.9398ZM678.213 41.7569L677.808 42.6712L677.817 42.6751L677.826 42.6789L678.213 41.7569ZM686.869 59.466L687.827 59.7535L687.831 59.7409L686.869 59.466ZM681.701 68.0728L680.932 67.4335L680.924 67.4429L681.701 68.0728ZM679.085 72.5794L678.127 72.2929L678.124 72.3045L679.085 72.5794ZM667.113 97.3667L666.231 96.8953L667.113 97.3667ZM682.974 92.2956L682.516 93.1844L682.523 93.188L682.53 93.1914L682.974 92.2956ZM671.789 112.292L671.344 113.188L671.351 113.191L671.358 113.195L671.789 112.292ZM672.293 85.7747C669.749 86.588 667.585 86.641 665.749 86.0382L665.125 87.9383C667.462 88.7057 670.071 88.5847 672.902 87.6797L672.293 85.7747ZM665.765 86.0435C664.08 85.4586 662.894 84.2086 662.227 82.1228L660.322 82.7318C661.149 85.3196 662.738 87.1102 665.109 87.933L665.765 86.0435ZM662.227 82.1228C660.814 77.7025 661.485 73.5771 664.289 69.6518L662.661 68.4894C659.505 72.9089 658.709 77.688 660.322 82.7318L662.227 82.1228ZM664.279 69.6656C666.505 66.6593 668.74 64.0069 670.982 61.7054L669.55 60.3095C667.235 62.6848 664.943 65.4078 662.672 68.4755L664.279 69.6656ZM670.988 61.6999C673.382 59.2053 675.266 56.4366 676.631 53.3956L674.806 52.5765C673.539 55.3998 671.787 57.9787 669.545 60.315L670.988 61.6999ZM676.607 53.4443C677.353 51.998 677.66 50.5642 677.383 49.1892L675.422 49.5842C675.584 50.387 675.435 51.3528 674.83 52.5279L676.607 53.4443ZM677.382 49.1835C677.087 47.762 676.298 46.6935 674.966 46.213L674.287 48.0943C674.847 48.2965 675.243 48.7167 675.424 49.5898L677.382 49.1835ZM675.002 46.2269C673.774 45.7287 672.516 45.9102 671.325 46.6046L672.333 48.3321C673.097 47.8867 673.703 47.8584 674.251 48.0803L675.002 46.2269ZM671.372 46.5789C670.141 47.2117 669.175 48.3058 668.434 49.7434L670.211 50.6597C670.822 49.476 671.527 48.7479 672.286 48.3578L671.372 46.5789ZM668.476 49.6691C667.634 51.0082 666.99 52.3011 666.558 53.5464L668.447 54.2021C668.82 53.1297 669.389 51.9741 670.169 50.734L668.476 49.6691ZM666.558 53.5464C666.147 54.73 665.747 56.0368 665.356 57.4656L667.285 57.9932C667.666 56.5996 668.054 55.3363 668.447 54.2021L666.558 53.5464ZM665.361 57.4473C664.741 59.5565 663.762 61.7357 662.412 63.9857L664.127 65.0146C665.55 62.6434 666.604 60.3088 667.28 58.0115L665.361 57.4473ZM662.413 63.9838C661.187 66.0183 659.508 67.3574 657.353 68.0465L657.962 69.9515C660.597 69.109 662.66 67.4489 664.126 65.0164L662.413 63.9838ZM657.353 68.0465C654.489 68.9621 652.104 68.8792 650.114 67.9387L649.26 69.7469C651.821 70.9573 654.75 70.9785 657.962 69.9515L657.353 68.0465ZM650.145 67.954C648.19 66.9462 646.764 65.1783 645.913 62.5157L644.008 63.1247C644.987 66.1872 646.712 68.4345 649.229 69.7317L650.145 67.954ZM645.913 62.5157C645.226 60.3667 645.336 58.1163 646.3 55.721L644.444 54.9746C643.327 57.7521 643.163 60.4832 644.008 63.1247L645.913 62.5157ZM646.299 55.7236C647.306 53.24 649.078 50.8966 651.667 48.7028L650.374 47.1768C647.593 49.5334 645.599 52.1287 644.446 54.972L646.299 55.7236ZM651.662 48.707C654.287 46.512 657.612 44.7574 661.662 43.4623L661.053 41.5573C656.808 42.9145 653.241 44.7798 650.379 47.1726L651.662 48.707ZM661.662 43.4623C668.766 41.1912 674.092 41.0243 677.808 42.6712L678.618 40.8427C674.232 38.8985 668.321 39.2335 661.053 41.5573L661.662 43.4623ZM677.826 42.6789C681.645 44.2829 684.167 47.0471 685.442 51.0361L687.347 50.427C685.896 45.8867 682.964 42.6678 678.601 40.835L677.826 42.6789ZM685.442 51.0361C686.446 54.1744 686.569 56.8781 685.908 59.191L687.831 59.7409C688.629 56.9511 688.436 53.8318 687.347 50.427L685.442 51.0361ZM685.912 59.1785C685.219 61.4873 683.59 64.2356 680.932 67.4335L682.47 68.712C685.206 65.4202 687.024 62.4306 687.827 59.7535L685.912 59.1785ZM680.924 67.4429C679.54 69.1497 678.583 70.7682 678.127 72.2929L680.043 72.866C680.396 71.6851 681.183 70.2991 682.478 68.7026L680.924 67.4429ZM678.124 72.3045C677.697 73.7982 677.768 75.3698 678.286 76.9883L680.191 76.3792C679.775 75.0767 679.744 73.9121 680.047 72.8544L678.124 72.3045ZM678.286 76.9883C678.953 79.0741 678.712 80.7803 677.679 82.2344L679.309 83.3929C680.763 81.3474 681.018 78.9669 680.191 76.3792L678.286 76.9883ZM677.679 82.2344C676.595 83.7595 674.839 84.9607 672.293 85.7747L672.902 87.6797C675.731 86.7752 677.906 85.3674 679.309 83.3929L677.679 82.2344ZM667.496 105.551C666.577 102.679 666.768 100.133 667.995 97.8381L666.231 96.8953C664.718 99.7261 664.529 102.84 665.591 106.16L667.496 105.551ZM667.995 97.8381C669.216 95.5537 671.356 93.8728 674.555 92.8498L673.946 90.9448C670.369 92.0886 667.75 94.0539 666.231 96.8953L667.995 97.8381ZM674.555 92.8498C677.628 91.8673 680.254 92.0182 682.516 93.1844L683.432 91.4067C680.606 89.95 677.416 89.8354 673.946 90.9448L674.555 92.8498ZM682.53 93.1914C684.775 94.3055 686.374 96.2426 687.295 99.1241L689.2 98.515C688.141 95.204 686.224 92.7917 683.419 91.3998L682.53 93.1914ZM687.295 99.1241C688.199 101.95 688.04 104.423 686.908 106.619L688.686 107.535C690.097 104.797 690.239 101.765 689.2 98.515L687.295 99.1241ZM686.908 106.619C685.789 108.789 683.712 110.424 680.502 111.45L681.111 113.355C684.678 112.215 687.261 110.3 688.686 107.535L686.908 106.619ZM680.502 111.45C677.158 112.519 674.429 112.443 672.219 111.389L671.358 113.195C674.162 114.53 677.445 114.528 681.111 113.355L680.502 111.45ZM672.233 111.396C669.983 110.28 668.397 108.368 667.496 105.551L665.591 106.16C666.633 109.419 668.543 111.798 671.344 113.188L672.233 111.396Z" fill="black" mask="url(#path-3-outside-2_1_141)"/>
</g>
<defs>
<filter id="filter0_d_1_141" x="1.07199" y="95.822" width="261.499" height="52.647" filterUnits="userSpaceOnUse" color-interpolation-filters="sRGB">
<feFlood flood-opacity="0" result="BackgroundImageFix"/>
<feColorMatrix in="SourceAlpha" type="matrix" values="0 0 0 0 0 0 0 0 0 0 0 0 0 0 0 0 0 0 127 0" result="hardAlpha"/>
<feOffset dy="3"/>
<feComposite in2="hardAlpha" operator="out"/>
<feColorMatrix type="matrix" values="0 0 0 0 0 0 0 0 0 0 0 0 0 0 0 0 0 0 1 0"/>
<feBlend mode="normal" in2="BackgroundImageFix" result="effect1_dropShadow_1_141"/>
<feBlend mode="normal" in="SourceGraphic" in2="effect1_dropShadow_1_141" result="shape"/>
</filter>
<filter id="filter1_d_1_141" x="332.566" y="36.0097" width="371.2" height="183.675" filterUnits="userSpaceOnUse" color-interpolation-filters="sRGB">
<feFlood flood-opacity="0" result="BackgroundImageFix"/>
<feColorMatrix in="SourceAlpha" type="matrix" values="0 0 0 0 0 0 0 0 0 0 0 0 0 0 0 0 0 0 127 0" result="hardAlpha"/>
<feOffset dy="3"/>
<feComposite in2="hardAlpha" operator="out"/>
<feColorMatrix type="matrix" values="0 0 0 0 0 0 0 0 0 0 0 0 0 0 0 0 0 0 1 0"/>
<feBlend mode="normal" in2="BackgroundImageFix" result="effect1_dropShadow_1_141"/>
<feBlend mode="normal" in="SourceGraphic" in2="effect1_dropShadow_1_141" result="shape"/>
</filter>
</defs>
</svg>
