<svg width="308" height="307" viewBox="0 0 308 307" fill="none" xmlns="http://www.w3.org/2000/svg">
<g filter="url(#filter0_d_2004_4)">
<mask id="path-1-outside-1_2004_4" maskUnits="userSpaceOnUse" x="0" y="27" width="264" height="53" fill="black">
<rect fill="white" y="27" width="264" height="53"/>
<path d="M21.038 78.201C18.3133 78.201 16.1693 77.531 14.606 76.191C13.0427 74.851 11.792 73.0197 10.854 70.697C9.96067 68.3297 9.112 65.6497 8.308 62.657L1.809 38.537C1.31767 36.661 1.42933 34.919 2.144 33.311C2.85867 31.6583 4.26567 30.564 6.365 30.028C8.33033 29.492 10.0723 29.626 11.591 30.43C13.1097 31.234 14.137 32.641 14.673 34.651L20.703 56.694C21.239 58.6147 21.7973 60.0217 22.378 60.915C23.0033 61.8083 23.986 62.0987 25.326 61.786C26.5767 61.4733 27.2467 60.781 27.336 59.709C27.4253 58.637 27.202 57.1183 26.666 55.153L22.378 38.872C21.7973 36.6387 21.8643 34.718 22.579 33.11C23.3383 31.4573 24.8123 30.3853 27.001 29.894C29.2343 29.358 31.021 29.6483 32.361 30.765C33.7457 31.837 34.6837 33.3557 35.175 35.321L40.602 56.694C41.1827 58.8827 41.808 60.3567 42.478 61.116C43.1927 61.8753 44.1083 62.0987 45.225 61.786C46.4757 61.4287 47.0787 60.7363 47.034 59.709C46.9893 58.637 46.833 57.096 46.565 55.086C46.163 51.9593 45.8057 49.391 45.493 47.381C45.225 45.371 45.0017 43.696 44.823 42.356C44.689 41.016 44.622 39.7877 44.622 38.671C44.622 36.1697 45.359 34.048 46.833 32.306C48.307 30.5193 50.317 29.626 52.863 29.626C55.4537 29.626 57.419 30.43 58.759 32.038C60.099 33.6013 60.769 35.7677 60.769 38.537C60.769 40.3237 60.501 42.1997 59.965 44.165C59.4737 46.1303 58.9823 47.984 58.491 49.726L54.739 62.657C53.8903 65.605 53.0417 68.2627 52.193 70.63C51.389 72.9527 50.2947 74.8063 48.91 76.191C47.5253 77.531 45.56 78.201 43.014 78.201C39.932 78.201 37.52 77.2407 35.778 75.32C34.036 73.3993 32.696 70.2503 31.758 65.873H31.289C30.3957 70.2503 29.212 73.3993 27.738 75.32C26.264 77.2407 24.0307 78.201 21.038 78.201ZM71.5351 77.799C69.4804 77.799 67.7831 77.1737 66.4431 75.923C65.1031 74.6723 64.4331 73.0867 64.4331 71.166V35.723C64.4331 33.7577 65.0807 32.1273 66.3761 30.832C67.6714 29.492 69.3687 28.822 71.4681 28.822C73.7014 28.822 75.4434 29.492 76.6941 30.832C77.9447 32.1273 78.5701 33.713 78.5701 35.589V47.984H91.0321V35.723C91.0321 33.7577 91.6797 32.1273 92.9751 30.832C94.2704 29.492 96.0124 28.822 98.2011 28.822C100.39 28.822 102.109 29.492 103.36 30.832C104.611 32.1273 105.236 33.713 105.236 35.589V71.166C105.236 73.0867 104.566 74.6723 103.226 75.923C101.931 77.1737 100.3 77.799 98.3351 77.799C96.1911 77.799 94.4267 77.1737 93.0421 75.923C91.7021 74.6723 91.0321 73.0867 91.0321 71.166V57.833H78.5701V71.166C78.5701 73.0867 77.9001 74.6723 76.5601 75.923C75.2647 77.1737 73.5897 77.799 71.5351 77.799ZM113.894 78C110.902 77.5533 108.959 76.191 108.065 73.913C107.172 71.5903 107.351 68.6647 108.601 65.136L117.445 40.011C118.249 37.6883 119.165 35.7007 120.192 34.048C121.264 32.3953 122.582 31.1223 124.145 30.229C125.753 29.3357 127.741 28.889 130.108 28.889C133.682 28.889 136.362 29.8717 138.148 31.837C139.98 33.8023 141.498 36.527 142.704 40.011L151.481 65.136C152.732 68.6647 152.955 71.5903 152.151 73.913C151.392 76.191 149.494 77.5533 146.456 78C144 78.3127 141.856 78.0223 140.024 77.129C138.238 76.2357 137.166 74.784 136.808 72.774C136.54 71.434 136.496 70.3173 136.674 69.424C136.898 68.5307 137.099 67.816 137.277 67.28C137.411 66.8333 137.411 66.409 137.277 66.007C137.188 65.5603 136.853 65.337 136.272 65.337H123.81C123.23 65.337 122.872 65.5603 122.738 66.007C122.649 66.409 122.694 66.8333 122.872 67.28C123.051 67.816 123.23 68.5307 123.408 69.424C123.587 70.3173 123.565 71.434 123.341 72.774C122.984 74.784 121.934 76.2357 120.192 77.129C118.45 78.0223 116.351 78.3127 113.894 78ZM134.999 55.957L131.515 45.036C131.426 44.5893 131.27 44.2543 131.046 44.031C130.868 43.763 130.555 43.629 130.108 43.629C129.662 43.629 129.327 43.763 129.103 44.031C128.925 44.2543 128.768 44.5893 128.634 45.036L125.217 55.957H134.999ZM153.101 44.098C150.867 44.098 149.036 43.4503 147.607 42.155C146.222 40.8597 145.53 39.073 145.53 36.795C145.53 34.5617 146.155 32.775 147.406 31.435C148.701 30.0503 150.599 29.358 153.101 29.358H181.978C184.479 29.358 186.355 30.0503 187.606 31.435C188.901 32.775 189.549 34.5617 189.549 36.795C189.549 39.073 188.834 40.8597 187.405 42.155C186.02 43.4503 184.211 44.098 181.978 44.098C180.459 44.098 179.231 43.9417 178.293 43.629C177.399 43.2717 176.662 42.8697 176.082 42.423C175.501 41.9317 174.943 41.5297 174.407 41.217C173.871 40.8597 173.201 40.681 172.397 40.681L171.794 41.887C171.972 42.289 172.285 42.8697 172.732 43.629C173.178 44.3437 173.603 45.3933 174.005 46.778C174.407 48.118 174.608 49.9493 174.608 52.272V71.635C174.608 73.4663 173.915 74.985 172.531 76.191C171.191 77.397 169.538 78 167.573 78C165.563 78 163.865 77.397 162.481 76.191C161.141 74.985 160.471 73.4663 160.471 71.635V52.272C160.471 49.9493 160.672 48.118 161.074 46.778C161.476 45.3933 161.9 44.3437 162.347 43.629C162.838 42.8697 163.173 42.289 163.352 41.887L162.682 40.681C161.878 40.681 161.208 40.8597 160.672 41.217C160.136 41.5297 159.577 41.9317 158.997 42.423C158.416 42.8697 157.679 43.2717 156.786 43.629C155.892 43.9417 154.664 44.098 153.101 44.098ZM211.29 78.134C209.235 78.134 207.56 77.5087 206.265 76.258C204.969 75.0073 204.322 73.4217 204.322 71.501V36.058C204.322 34.0927 204.947 32.44 206.198 31.1C207.493 29.76 209.19 29.09 211.29 29.09C213.523 29.09 215.265 29.76 216.516 31.1C217.811 32.3953 218.459 34.0033 218.459 35.924V71.501C218.459 73.4217 217.766 75.0073 216.382 76.258C215.042 77.5087 213.344 78.134 211.29 78.134ZM243.409 78.201C240.908 78.201 238.384 77.9553 235.838 77.464C233.337 76.928 231.014 76.1687 228.87 75.186C226.771 74.1587 225.073 72.9303 223.778 71.501C222.483 70.027 221.835 68.3297 221.835 66.409C221.835 63.9523 222.617 61.987 224.18 60.513C225.743 59.039 227.575 58.3467 229.674 58.436C231.327 58.4807 232.979 58.838 234.632 59.508C236.285 60.1333 237.96 60.7587 239.657 61.384C241.399 62.0093 243.141 62.322 244.883 62.322C246.625 62.322 247.831 62.0987 248.501 61.652C249.171 61.2053 249.506 60.6023 249.506 59.843C249.506 58.9497 249.037 58.2127 248.099 57.632C247.161 57.0513 245.977 56.6047 244.548 56.292L241.265 55.488C237.87 54.684 234.833 53.7907 232.153 52.808C229.473 51.7807 227.351 50.4407 225.788 48.788C224.269 47.0907 223.51 44.835 223.51 42.021C223.51 38.939 224.359 36.4377 226.056 34.517C227.753 32.5517 230.054 31.1223 232.957 30.229C235.86 29.3357 239.099 28.889 242.672 28.889C246.335 28.889 249.551 29.2687 252.32 30.028C255.089 30.7873 257.233 31.8817 258.752 33.311C260.315 34.7403 261.097 36.4823 261.097 38.537C261.097 40.7257 260.494 42.4453 259.288 43.696C258.127 44.902 256.563 45.505 254.598 45.505C253.303 45.505 251.94 45.2817 250.511 44.835C249.126 44.3883 247.652 43.964 246.089 43.562C244.57 43.1153 242.94 42.892 241.198 42.892C239.635 42.892 238.451 43.1377 237.647 43.629C236.843 44.0757 236.441 44.6787 236.441 45.438C236.441 46.376 236.977 47.0683 238.049 47.515C239.121 47.9617 240.885 48.4977 243.342 49.123L247.094 49.994C250.176 50.7533 252.878 51.669 255.201 52.741C257.524 53.813 259.333 55.22 260.628 56.962C261.923 58.704 262.571 60.982 262.571 63.796C262.571 67.1907 261.767 69.96 260.159 72.104C258.551 74.2033 256.318 75.7443 253.459 76.727C250.6 77.7097 247.25 78.201 243.409 78.201Z"/>
</mask>
<path d="M21.038 78.201C18.3133 78.201 16.1693 77.531 14.606 76.191C13.0427 74.851 11.792 73.0197 10.854 70.697C9.96067 68.3297 9.112 65.6497 8.308 62.657L1.809 38.537C1.31767 36.661 1.42933 34.919 2.144 33.311C2.85867 31.6583 4.26567 30.564 6.365 30.028C8.33033 29.492 10.0723 29.626 11.591 30.43C13.1097 31.234 14.137 32.641 14.673 34.651L20.703 56.694C21.239 58.6147 21.7973 60.0217 22.378 60.915C23.0033 61.8083 23.986 62.0987 25.326 61.786C26.5767 61.4733 27.2467 60.781 27.336 59.709C27.4253 58.637 27.202 57.1183 26.666 55.153L22.378 38.872C21.7973 36.6387 21.8643 34.718 22.579 33.11C23.3383 31.4573 24.8123 30.3853 27.001 29.894C29.2343 29.358 31.021 29.6483 32.361 30.765C33.7457 31.837 34.6837 33.3557 35.175 35.321L40.602 56.694C41.1827 58.8827 41.808 60.3567 42.478 61.116C43.1927 61.8753 44.1083 62.0987 45.225 61.786C46.4757 61.4287 47.0787 60.7363 47.034 59.709C46.9893 58.637 46.833 57.096 46.565 55.086C46.163 51.9593 45.8057 49.391 45.493 47.381C45.225 45.371 45.0017 43.696 44.823 42.356C44.689 41.016 44.622 39.7877 44.622 38.671C44.622 36.1697 45.359 34.048 46.833 32.306C48.307 30.5193 50.317 29.626 52.863 29.626C55.4537 29.626 57.419 30.43 58.759 32.038C60.099 33.6013 60.769 35.7677 60.769 38.537C60.769 40.3237 60.501 42.1997 59.965 44.165C59.4737 46.1303 58.9823 47.984 58.491 49.726L54.739 62.657C53.8903 65.605 53.0417 68.2627 52.193 70.63C51.389 72.9527 50.2947 74.8063 48.91 76.191C47.5253 77.531 45.56 78.201 43.014 78.201C39.932 78.201 37.52 77.2407 35.778 75.32C34.036 73.3993 32.696 70.2503 31.758 65.873H31.289C30.3957 70.2503 29.212 73.3993 27.738 75.32C26.264 77.2407 24.0307 78.201 21.038 78.201ZM71.5351 77.799C69.4804 77.799 67.7831 77.1737 66.4431 75.923C65.1031 74.6723 64.4331 73.0867 64.4331 71.166V35.723C64.4331 33.7577 65.0807 32.1273 66.3761 30.832C67.6714 29.492 69.3687 28.822 71.4681 28.822C73.7014 28.822 75.4434 29.492 76.6941 30.832C77.9447 32.1273 78.5701 33.713 78.5701 35.589V47.984H91.0321V35.723C91.0321 33.7577 91.6797 32.1273 92.9751 30.832C94.2704 29.492 96.0124 28.822 98.2011 28.822C100.39 28.822 102.109 29.492 103.36 30.832C104.611 32.1273 105.236 33.713 105.236 35.589V71.166C105.236 73.0867 104.566 74.6723 103.226 75.923C101.931 77.1737 100.3 77.799 98.3351 77.799C96.1911 77.799 94.4267 77.1737 93.0421 75.923C91.7021 74.6723 91.0321 73.0867 91.0321 71.166V57.833H78.5701V71.166C78.5701 73.0867 77.9001 74.6723 76.5601 75.923C75.2647 77.1737 73.5897 77.799 71.5351 77.799ZM113.894 78C110.902 77.5533 108.959 76.191 108.065 73.913C107.172 71.5903 107.351 68.6647 108.601 65.136L117.445 40.011C118.249 37.6883 119.165 35.7007 120.192 34.048C121.264 32.3953 122.582 31.1223 124.145 30.229C125.753 29.3357 127.741 28.889 130.108 28.889C133.682 28.889 136.362 29.8717 138.148 31.837C139.98 33.8023 141.498 36.527 142.704 40.011L151.481 65.136C152.732 68.6647 152.955 71.5903 152.151 73.913C151.392 76.191 149.494 77.5533 146.456 78C144 78.3127 141.856 78.0223 140.024 77.129C138.238 76.2357 137.166 74.784 136.808 72.774C136.54 71.434 136.496 70.3173 136.674 69.424C136.898 68.5307 137.099 67.816 137.277 67.28C137.411 66.8333 137.411 66.409 137.277 66.007C137.188 65.5603 136.853 65.337 136.272 65.337H123.81C123.23 65.337 122.872 65.5603 122.738 66.007C122.649 66.409 122.694 66.8333 122.872 67.28C123.051 67.816 123.23 68.5307 123.408 69.424C123.587 70.3173 123.565 71.434 123.341 72.774C122.984 74.784 121.934 76.2357 120.192 77.129C118.45 78.0223 116.351 78.3127 113.894 78ZM134.999 55.957L131.515 45.036C131.426 44.5893 131.27 44.2543 131.046 44.031C130.868 43.763 130.555 43.629 130.108 43.629C129.662 43.629 129.327 43.763 129.103 44.031C128.925 44.2543 128.768 44.5893 128.634 45.036L125.217 55.957H134.999ZM153.101 44.098C150.867 44.098 149.036 43.4503 147.607 42.155C146.222 40.8597 145.53 39.073 145.53 36.795C145.53 34.5617 146.155 32.775 147.406 31.435C148.701 30.0503 150.599 29.358 153.101 29.358H181.978C184.479 29.358 186.355 30.0503 187.606 31.435C188.901 32.775 189.549 34.5617 189.549 36.795C189.549 39.073 188.834 40.8597 187.405 42.155C186.02 43.4503 184.211 44.098 181.978 44.098C180.459 44.098 179.231 43.9417 178.293 43.629C177.399 43.2717 176.662 42.8697 176.082 42.423C175.501 41.9317 174.943 41.5297 174.407 41.217C173.871 40.8597 173.201 40.681 172.397 40.681L171.794 41.887C171.972 42.289 172.285 42.8697 172.732 43.629C173.178 44.3437 173.603 45.3933 174.005 46.778C174.407 48.118 174.608 49.9493 174.608 52.272V71.635C174.608 73.4663 173.915 74.985 172.531 76.191C171.191 77.397 169.538 78 167.573 78C165.563 78 163.865 77.397 162.481 76.191C161.141 74.985 160.471 73.4663 160.471 71.635V52.272C160.471 49.9493 160.672 48.118 161.074 46.778C161.476 45.3933 161.9 44.3437 162.347 43.629C162.838 42.8697 163.173 42.289 163.352 41.887L162.682 40.681C161.878 40.681 161.208 40.8597 160.672 41.217C160.136 41.5297 159.577 41.9317 158.997 42.423C158.416 42.8697 157.679 43.2717 156.786 43.629C155.892 43.9417 154.664 44.098 153.101 44.098ZM211.29 78.134C209.235 78.134 207.56 77.5087 206.265 76.258C204.969 75.0073 204.322 73.4217 204.322 71.501V36.058C204.322 34.0927 204.947 32.44 206.198 31.1C207.493 29.76 209.19 29.09 211.29 29.09C213.523 29.09 215.265 29.76 216.516 31.1C217.811 32.3953 218.459 34.0033 218.459 35.924V71.501C218.459 73.4217 217.766 75.0073 216.382 76.258C215.042 77.5087 213.344 78.134 211.29 78.134ZM243.409 78.201C240.908 78.201 238.384 77.9553 235.838 77.464C233.337 76.928 231.014 76.1687 228.87 75.186C226.771 74.1587 225.073 72.9303 223.778 71.501C222.483 70.027 221.835 68.3297 221.835 66.409C221.835 63.9523 222.617 61.987 224.18 60.513C225.743 59.039 227.575 58.3467 229.674 58.436C231.327 58.4807 232.979 58.838 234.632 59.508C236.285 60.1333 237.96 60.7587 239.657 61.384C241.399 62.0093 243.141 62.322 244.883 62.322C246.625 62.322 247.831 62.0987 248.501 61.652C249.171 61.2053 249.506 60.6023 249.506 59.843C249.506 58.9497 249.037 58.2127 248.099 57.632C247.161 57.0513 245.977 56.6047 244.548 56.292L241.265 55.488C237.87 54.684 234.833 53.7907 232.153 52.808C229.473 51.7807 227.351 50.4407 225.788 48.788C224.269 47.0907 223.51 44.835 223.51 42.021C223.51 38.939 224.359 36.4377 226.056 34.517C227.753 32.5517 230.054 31.1223 232.957 30.229C235.86 29.3357 239.099 28.889 242.672 28.889C246.335 28.889 249.551 29.2687 252.32 30.028C255.089 30.7873 257.233 31.8817 258.752 33.311C260.315 34.7403 261.097 36.4823 261.097 38.537C261.097 40.7257 260.494 42.4453 259.288 43.696C258.127 44.902 256.563 45.505 254.598 45.505C253.303 45.505 251.94 45.2817 250.511 44.835C249.126 44.3883 247.652 43.964 246.089 43.562C244.57 43.1153 242.94 42.892 241.198 42.892C239.635 42.892 238.451 43.1377 237.647 43.629C236.843 44.0757 236.441 44.6787 236.441 45.438C236.441 46.376 236.977 47.0683 238.049 47.515C239.121 47.9617 240.885 48.4977 243.342 49.123L247.094 49.994C250.176 50.7533 252.878 51.669 255.201 52.741C257.524 53.813 259.333 55.22 260.628 56.962C261.923 58.704 262.571 60.982 262.571 63.796C262.571 67.1907 261.767 69.96 260.159 72.104C258.551 74.2033 256.318 75.7443 253.459 76.727C250.6 77.7097 247.25 78.201 243.409 78.201Z" fill="white"/>
<path d="M14.606 76.191L13.9552 76.9503H13.9552L14.606 76.191ZM10.854 70.697L9.9184 71.0501L9.92245 71.0608L9.92676 71.0715L10.854 70.697ZM8.308 62.657L9.27376 62.3975L9.27356 62.3968L8.308 62.657ZM1.809 38.537L0.841604 38.7904L0.843436 38.7972L1.809 38.537ZM2.144 33.311L3.05786 33.7172L3.06186 33.7079L2.144 33.311ZM6.365 30.028L6.61238 30.9969L6.62027 30.9949L6.62812 30.9928L6.365 30.028ZM11.591 30.43L11.1231 31.3138L11.591 30.43ZM14.673 34.651L13.7067 34.9087L13.7084 34.9149L14.673 34.651ZM20.703 56.694L19.7384 56.9579L19.7398 56.9628L20.703 56.694ZM22.378 60.915L21.5396 61.46L21.5489 61.4744L21.5588 61.4885L22.378 60.915ZM25.326 61.786L25.5532 62.7598L25.5609 62.7581L25.5685 62.7561L25.326 61.786ZM27.336 59.709L28.3325 59.792L27.336 59.709ZM26.666 55.153L25.6989 55.4077L25.7012 55.4161L26.666 55.153ZM22.378 38.872L21.4102 39.1236L21.411 39.1267L22.378 38.872ZM22.579 33.11L21.6703 32.6925L21.6652 32.7039L22.579 33.11ZM27.001 29.894L27.22 30.8697L27.2272 30.8681L27.2344 30.8664L27.001 29.894ZM32.361 30.765L31.7208 31.5332L31.7346 31.5447L31.7488 31.5557L32.361 30.765ZM35.175 35.321L34.2049 35.5635L34.2058 35.5671L35.175 35.321ZM40.602 56.694L39.6327 56.9401L39.6354 56.9504L40.602 56.694ZM42.478 61.116L41.7282 61.7776L41.7388 61.7897L41.7498 61.8014L42.478 61.116ZM45.225 61.786L45.4946 62.749L45.4997 62.7475L45.225 61.786ZM47.034 59.709L46.0349 59.7506L46.0349 59.7524L47.034 59.709ZM46.565 55.086L45.5732 55.2135L45.5738 55.2182L46.565 55.086ZM45.493 47.381L44.5018 47.5132L44.5032 47.524L44.5049 47.5347L45.493 47.381ZM44.823 42.356L43.828 42.4555L43.8296 42.4719L43.8318 42.4882L44.823 42.356ZM46.833 32.306L47.5965 32.952L47.6044 32.9424L46.833 32.306ZM58.759 32.038L57.9907 32.6782L57.9997 32.6888L58.759 32.038ZM59.965 44.165L59.0002 43.9019L58.9974 43.9121L58.9949 43.9225L59.965 44.165ZM58.491 49.726L59.4514 50.0047L59.4535 49.9975L58.491 49.726ZM54.739 62.657L53.7786 62.3783L53.778 62.3804L54.739 62.657ZM52.193 70.63L51.2516 70.2925L51.248 70.3029L52.193 70.63ZM48.91 76.191L49.6054 76.9096L49.6113 76.9039L49.6171 76.8981L48.91 76.191ZM35.778 75.32L36.5187 74.6482L35.778 75.32ZM31.758 65.873L32.7358 65.6635L32.5664 64.873H31.758V65.873ZM31.289 65.873V64.873H30.4725L30.3092 65.673L31.289 65.873ZM27.738 75.32L28.5313 75.9288L27.738 75.32ZM21.038 77.201C18.4739 77.201 16.5873 76.5721 15.2568 75.4317L13.9552 76.9503C15.7514 78.4899 18.1528 79.201 21.038 79.201V77.201ZM15.2568 75.4317C13.8387 74.2162 12.6721 72.5284 11.7812 70.3225L9.92676 71.0715C10.9119 73.5109 12.2466 75.4858 13.9552 76.9503L15.2568 75.4317ZM11.7896 70.3439C10.9101 68.0132 10.0711 65.3653 9.27376 62.3975L7.34225 62.9165C8.15295 65.9341 9.01126 68.6461 9.9184 71.0501L11.7896 70.3439ZM9.27356 62.3968L2.77456 38.2768L0.843436 38.7972L7.34244 62.9172L9.27356 62.3968ZM2.77637 38.2836C2.3363 36.6034 2.44485 35.0963 3.05781 33.7171L1.23019 32.9049C0.41382 34.7417 0.299036 36.7186 0.841628 38.7904L2.77637 38.2836ZM3.06186 33.7079C3.62819 32.3983 4.74491 31.4737 6.61238 30.9969L6.11762 29.0591C3.78642 29.6543 2.08915 30.9184 1.22614 32.9141L3.06186 33.7079ZM6.62812 30.9928C8.39672 30.5104 9.86969 30.6502 11.1231 31.3138L12.0589 29.5462C10.275 28.6018 8.26395 28.4736 6.10188 29.0632L6.62812 30.9928ZM11.1231 31.3138C12.3449 31.9606 13.2262 33.1064 13.7068 34.9087L15.6392 34.3933C15.0478 32.1756 13.8745 30.5074 12.0589 29.5462L11.1231 31.3138ZM13.7084 34.9149L19.7384 56.9579L21.6676 56.4301L15.6376 34.3871L13.7084 34.9149ZM19.7398 56.9628C20.2837 58.9118 20.8745 60.4369 21.5396 61.46L23.2164 60.37C22.7201 59.6065 22.1943 58.3175 21.6662 56.4252L19.7398 56.9628ZM21.5588 61.4885C21.9923 62.1078 22.5777 62.5482 23.3007 62.7618C24.0054 62.97 24.7703 62.9425 25.5532 62.7598L25.0988 60.8122C24.5417 60.9421 24.1453 60.9258 23.8673 60.8437C23.6076 60.767 23.389 60.6155 23.1972 60.3415L21.5588 61.4885ZM25.5685 62.7561C26.3155 62.5694 26.9832 62.2463 27.4851 61.7277C27.9995 61.1961 28.2711 60.5296 28.3325 59.792L26.3395 59.626C26.3116 59.9604 26.2035 60.176 26.0479 60.3368C25.8798 60.5106 25.5871 60.6899 25.0835 60.8159L25.5685 62.7561ZM28.3325 59.792C28.4368 58.5416 28.1751 56.8858 27.6308 54.8899L25.7012 55.4161C26.2289 57.3509 26.4139 58.7324 26.3395 59.626L28.3325 59.792ZM27.633 54.8983L23.345 38.6173L21.411 39.1267L25.699 55.4077L27.633 54.8983ZM23.3458 38.6204C22.8043 36.5374 22.8952 34.8607 23.4928 33.5161L21.6652 32.7039C20.8334 34.5753 20.7904 36.7399 21.4102 39.1236L23.3458 38.6204ZM23.4877 33.5275C24.0864 32.2245 25.2568 31.3104 27.22 30.8697L26.782 28.9183C24.3678 29.4602 22.5903 30.6902 21.6703 32.6925L23.4877 33.5275ZM27.2344 30.8664C29.2667 30.3786 30.6965 30.6796 31.7208 31.5332L33.0012 29.9968C31.3455 28.617 29.202 28.3374 26.7676 28.9216L27.2344 30.8664ZM31.7488 31.5557C32.929 32.4694 33.759 33.7802 34.2049 35.5635L36.1451 35.0785C35.6083 32.9311 34.5624 31.2046 32.9732 29.9743L31.7488 31.5557ZM34.2058 35.5671L39.6328 56.9401L41.5712 56.4479L36.1442 35.0749L34.2058 35.5671ZM39.6354 56.9504C40.2184 59.1476 40.8896 60.8272 41.7282 61.7776L43.2278 60.4544C42.7264 59.8861 42.147 58.6178 41.5686 56.4376L39.6354 56.9504ZM41.7498 61.8014C42.2251 62.3064 42.7983 62.6622 43.4638 62.8245C44.1228 62.9852 44.8087 62.941 45.4946 62.749L44.9554 60.823C44.5246 60.9436 44.1944 60.9441 43.9377 60.8815C43.6876 60.8205 43.4455 60.6849 43.2062 60.4306L41.7498 61.8014ZM45.4997 62.7475C46.2369 62.5369 46.8983 62.1964 47.3693 61.6555C47.86 61.0922 48.0651 60.4021 48.0331 59.6656L46.0349 59.7524C46.0476 60.0433 45.9735 60.2129 45.8612 60.342C45.7292 60.4935 45.4638 60.6778 44.9503 60.8245L45.4997 62.7475ZM48.0331 59.6674C47.9865 58.5493 47.8254 56.9725 47.5562 54.9538L45.5738 55.2182C45.8406 57.2195 45.9921 58.7247 46.0349 59.7506L48.0331 59.6674ZM47.5568 54.9585C47.1543 51.8272 46.7957 49.2494 46.4811 47.2273L44.5049 47.5347C44.8157 49.5326 45.1718 52.0914 45.5732 55.2135L47.5568 54.9585ZM46.4842 47.2488C46.2162 45.2388 45.9929 43.5638 45.8142 42.2238L43.8318 42.4882C44.0104 43.8282 44.2338 45.5032 44.5018 47.5132L46.4842 47.2488ZM45.818 42.2565C45.6867 40.9431 45.622 39.7485 45.622 38.671H43.622C43.622 39.8268 43.6913 41.0889 43.828 42.4555L45.818 42.2565ZM45.622 38.671C45.622 36.3818 46.2902 34.4956 47.5964 32.9519L46.0696 31.6601C44.4278 33.6004 43.622 35.9575 43.622 38.671H45.622ZM47.6044 32.9424C48.868 31.4107 50.5819 30.626 52.863 30.626V28.626C50.0521 28.626 47.746 29.628 46.0616 31.6696L47.6044 32.9424ZM52.863 30.626C55.2339 30.626 56.8851 31.3514 57.9908 32.6782L59.5272 31.3978C57.9529 29.5086 55.6734 28.626 52.863 28.626V30.626ZM57.9997 32.6888C59.1378 34.0165 59.769 35.9234 59.769 38.537H61.769C61.769 35.6119 61.0602 33.1861 59.5183 31.3872L57.9997 32.6888ZM59.769 38.537C59.769 40.2234 59.5161 42.0105 59.0002 43.9019L60.9298 44.4281C61.4859 42.3888 61.769 40.424 61.769 38.537H59.769ZM58.9949 43.9225C58.5057 45.8792 58.0169 47.7232 57.5286 49.4545L59.4535 49.9975C59.9478 48.2448 60.4417 46.3814 60.9351 44.4075L58.9949 43.9225ZM57.5306 49.4473L53.7786 62.3783L55.6994 62.9357L59.4514 50.0047L57.5306 49.4473ZM53.778 62.3804C52.934 65.3121 52.0918 67.949 51.2517 70.2925L53.1343 70.9675C53.9916 68.5763 54.8466 65.8979 55.7 62.9336L53.778 62.3804ZM51.248 70.3029C50.4812 72.5181 49.4568 74.23 48.2029 75.4839L49.6171 76.8981C51.1325 75.3827 52.2968 73.3873 53.138 70.9571L51.248 70.3029ZM48.2146 75.4724C47.0702 76.5798 45.3865 77.201 43.014 77.201V79.201C45.7335 79.201 47.9804 78.4822 49.6054 76.9096L48.2146 75.4724ZM43.014 77.201C40.1561 77.201 38.0354 76.3204 36.5187 74.6482L35.0373 75.9918C37.0046 78.1609 39.7079 79.201 43.014 79.201V77.201ZM36.5187 74.6482C34.9526 72.9214 33.6603 69.9779 32.7358 65.6635L30.7802 66.0825C31.7317 70.5228 33.1194 73.8772 35.0373 75.9918L36.5187 74.6482ZM31.758 64.873H31.289V66.873H31.758V64.873ZM30.3092 65.673C29.4247 70.0069 28.2778 72.9741 26.9447 74.7112L28.5313 75.9288C30.1462 73.8246 31.3666 70.4937 32.2688 66.073L30.3092 65.673ZM26.9447 74.7112C25.7045 76.3272 23.8012 77.201 21.038 77.201V79.201C24.2602 79.201 26.8235 78.1542 28.5313 75.9288L26.9447 74.7112ZM66.4431 75.923L65.7607 76.6541L66.4431 75.923ZM66.3761 30.832L67.0832 31.5391L67.0892 31.5331L67.0951 31.527L66.3761 30.832ZM76.6941 30.832L75.963 31.5143L75.9688 31.5205L75.9747 31.5266L76.6941 30.832ZM78.5701 47.984H77.5701V48.984H78.5701V47.984ZM91.0321 47.984V48.984H92.0321V47.984H91.0321ZM92.9751 30.832L93.6822 31.5391L93.6882 31.5331L93.6941 31.527L92.9751 30.832ZM103.36 30.832L102.629 31.5143L102.635 31.5205L102.641 31.5266L103.36 30.832ZM103.226 75.923L102.544 75.1919L102.538 75.1977L102.531 75.2036L103.226 75.923ZM93.0421 75.923L92.3597 76.6541L92.3657 76.6596L92.3718 76.6651L93.0421 75.923ZM91.0321 57.833H92.0321V56.833H91.0321V57.833ZM78.5701 57.833V56.833H77.5701V57.833H78.5701ZM76.5601 75.923L75.8777 75.1919L75.8716 75.1977L75.8655 75.2036L76.5601 75.923ZM71.5351 76.799C69.7006 76.799 68.2573 76.2484 67.1254 75.1919L65.7607 76.6541C67.3088 78.0989 69.2602 78.799 71.5351 78.799V76.799ZM67.1254 75.1919C65.9987 74.1404 65.4331 72.8244 65.4331 71.166H63.4331C63.4331 73.3489 64.2074 75.2043 65.7607 76.6541L67.1254 75.1919ZM65.4331 71.166V35.723H63.4331V71.166H65.4331ZM65.4331 35.723C65.4331 34.0015 65.99 32.6323 67.0832 31.5391L65.669 30.1249C64.1715 31.6224 63.4331 33.5138 63.4331 35.723H65.4331ZM67.0951 31.527C68.1773 30.4074 69.6022 29.822 71.4681 29.822V27.822C69.1352 27.822 67.1654 28.5766 65.6571 30.137L67.0951 31.527ZM71.4681 29.822C73.4894 29.822 74.9418 30.4201 75.963 31.5143L77.4251 30.1497C75.945 28.5638 73.9134 27.822 71.4681 27.822V29.822ZM75.9747 31.5266C77.0371 32.627 77.5701 33.9601 77.5701 35.589H79.5701C79.5701 33.4659 78.8523 31.6277 77.4135 30.1374L75.9747 31.5266ZM77.5701 35.589V47.984H79.5701V35.589H77.5701ZM78.5701 48.984H91.0321V46.984H78.5701V48.984ZM92.0321 47.984V35.723H90.0321V47.984H92.0321ZM92.0321 35.723C92.0321 34.0015 92.589 32.6323 93.6822 31.5391L92.268 30.1249C90.7705 31.6224 90.0321 33.5138 90.0321 35.723H92.0321ZM93.6941 31.527C94.7681 30.4159 96.2323 29.822 98.2011 29.822V27.822C95.7925 27.822 93.7727 28.5681 92.2561 30.137L93.6941 31.527ZM98.2011 29.822C100.171 29.822 101.604 30.416 102.629 31.5143L104.091 30.1497C102.615 28.568 100.609 27.822 98.2011 27.822V29.822ZM102.641 31.5266C103.703 32.627 104.236 33.9601 104.236 35.589H106.236C106.236 33.4659 105.518 31.6277 104.079 30.1374L102.641 31.5266ZM104.236 35.589V71.166H106.236V35.589H104.236ZM104.236 71.166C104.236 72.8244 103.67 74.1404 102.544 75.1919L103.908 76.6541C105.462 75.2043 106.236 73.3489 106.236 71.166H104.236ZM102.531 75.2036C101.44 76.257 100.067 76.799 98.3351 76.799V78.799C100.534 78.799 102.421 78.0903 103.921 76.6424L102.531 75.2036ZM98.3351 76.799C96.3993 76.799 94.8859 76.2409 93.7123 75.1809L92.3718 76.6651C93.9675 78.1064 95.9828 78.799 98.3351 78.799V76.799ZM93.7244 75.1919C92.5977 74.1404 92.0321 72.8244 92.0321 71.166H90.0321C90.0321 73.3489 90.8064 75.2043 92.3597 76.6541L93.7244 75.1919ZM92.0321 71.166V57.833H90.0321V71.166H92.0321ZM91.0321 56.833H78.5701V58.833H91.0321V56.833ZM77.5701 57.833V71.166H79.5701V57.833H77.5701ZM77.5701 71.166C77.5701 72.8244 77.0044 74.1404 75.8777 75.1919L77.2424 76.6541C78.7957 75.2043 79.5701 73.3489 79.5701 71.166H77.5701ZM75.8655 75.2036C74.7832 76.2486 73.3701 76.799 71.5351 76.799V78.799C73.8093 78.799 75.7463 78.0988 77.2547 76.6424L75.8655 75.2036ZM113.894 78L113.747 78.989L113.757 78.9906L113.768 78.992L113.894 78ZM108.065 73.913L107.132 74.272L107.134 74.2781L108.065 73.913ZM108.601 65.136L109.544 65.4701L109.545 65.468L108.601 65.136ZM117.445 40.011L118.389 40.343L118.39 40.3381L117.445 40.011ZM120.192 34.048L119.353 33.5038L119.348 33.5119L119.343 33.5201L120.192 34.048ZM124.145 30.229L123.66 29.3548L123.649 29.3608L124.145 30.229ZM138.148 31.837L137.408 32.5097L137.417 32.5187L138.148 31.837ZM142.704 40.011L141.759 40.3381L141.76 40.3408L142.704 40.011ZM151.481 65.136L150.537 65.4658L150.539 65.4701L151.481 65.136ZM152.151 73.913L151.206 73.5859L151.203 73.5968L152.151 73.913ZM146.456 78L146.583 78.992L146.592 78.9908L146.602 78.9894L146.456 78ZM140.024 77.129L139.577 78.0235L139.586 78.0278L140.024 77.129ZM136.808 72.774L137.793 72.599L137.791 72.5884L137.789 72.5779L136.808 72.774ZM136.674 69.424L135.704 69.1815L135.698 69.2046L135.694 69.2279L136.674 69.424ZM137.277 67.28L138.226 67.5962L138.231 67.5819L138.235 67.5674L137.277 67.28ZM137.277 66.007L136.297 66.2031L136.309 66.2642L136.329 66.3232L137.277 66.007ZM122.738 66.007L121.78 65.7197L121.77 65.7545L121.762 65.7901L122.738 66.007ZM122.872 67.28L123.821 66.9638L123.812 66.9359L123.801 66.9086L122.872 67.28ZM123.408 69.424L124.389 69.2279L123.408 69.424ZM123.341 72.774L124.326 72.949L124.328 72.9384L123.341 72.774ZM120.192 77.129L120.649 78.0188L120.192 77.129ZM134.999 55.957V56.957H136.368L135.952 55.6531L134.999 55.957ZM131.515 45.036L130.535 45.2321L130.546 45.2868L130.563 45.3399L131.515 45.036ZM131.046 44.031L130.214 44.5857L130.269 44.6681L130.339 44.7381L131.046 44.031ZM129.103 44.031L128.335 43.3908L128.329 43.3985L128.322 43.4063L129.103 44.031ZM128.634 45.036L129.589 45.3346L129.592 45.3233L128.634 45.036ZM125.217 55.957L124.263 55.6584L123.857 56.957H125.217V55.957ZM114.042 77.011C111.305 76.6025 109.726 75.4098 108.996 73.5479L107.134 74.2781C108.191 76.9722 110.498 78.5042 113.747 78.989L114.042 77.011ZM108.999 73.554C108.225 71.5424 108.334 68.8834 109.544 65.4701L107.659 64.8019C106.367 68.4459 106.119 71.6382 107.132 74.272L108.999 73.554ZM109.545 65.468L118.389 40.343L116.502 39.679L107.658 64.804L109.545 65.468ZM118.39 40.3381C119.176 38.0683 120.062 36.1515 121.042 34.5759L119.343 33.5201C118.268 35.2499 117.323 37.3084 116.5 39.6839L118.39 40.3381ZM121.031 34.5922C122.025 33.0605 123.229 31.9042 124.641 31.0972L123.649 29.3608C121.935 30.3405 120.504 31.7302 119.353 33.5038L121.031 34.5922ZM124.631 31.1032C126.054 30.3127 127.863 29.889 130.108 29.889V27.889C127.619 27.889 125.453 28.3586 123.66 29.3548L124.631 31.1032ZM130.108 29.889C133.502 29.889 135.87 30.8178 137.408 32.5097L138.888 31.1643C136.853 28.9256 133.862 27.889 130.108 27.889V29.889ZM137.417 32.5187C139.124 34.3515 140.583 36.9398 141.759 40.3381L143.649 39.6839C142.414 36.1142 140.835 33.2531 138.88 31.1553L137.417 32.5187ZM141.76 40.3408L150.537 65.4658L152.425 64.8062L143.648 39.6812L141.76 40.3408ZM150.539 65.4701C151.751 68.8914 151.906 71.5642 151.206 73.5859L153.096 74.2401C154.004 71.6165 153.712 68.4379 152.424 64.8019L150.539 65.4701ZM151.203 73.5968C150.597 75.4123 149.098 76.6007 146.311 77.0106L146.602 78.9894C149.889 78.5059 152.186 76.9697 153.1 74.2292L151.203 73.5968ZM146.33 77.008C144.025 77.3014 142.084 77.0213 140.463 76.2302L139.586 78.0278C141.627 79.0234 143.975 79.3239 146.583 78.992L146.33 77.008ZM140.471 76.2346C138.975 75.4863 138.096 74.3058 137.793 72.599L135.824 72.949C136.235 75.2622 137.5 76.9851 139.577 78.0234L140.471 76.2346ZM137.789 72.5779C137.535 71.3087 137.512 70.336 137.655 69.6201L135.694 69.2279C135.48 70.2986 135.546 71.5593 135.828 72.9701L137.789 72.5779ZM137.644 69.6665C137.865 68.7847 138.059 68.0977 138.226 67.5962L136.329 66.9638C136.138 67.5343 135.93 68.2766 135.704 69.1815L137.644 69.6665ZM138.235 67.5674C138.422 66.9441 138.432 66.3078 138.226 65.6908L136.329 66.3232C136.391 66.5102 136.4 66.7225 136.319 66.9927L138.235 67.5674ZM138.258 65.8109C138.169 65.3647 137.932 64.951 137.514 64.6724C137.124 64.4128 136.677 64.337 136.272 64.337V66.337C136.355 66.337 136.403 66.3452 136.425 66.3504C136.445 66.3553 136.432 66.3553 136.404 66.3365C136.373 66.316 136.342 66.2852 136.319 66.2489C136.298 66.2148 136.295 66.1941 136.297 66.2031L138.258 65.8109ZM136.272 64.337H123.81V66.337H136.272V64.337ZM123.81 64.337C123.401 64.337 122.964 64.4147 122.577 64.6565C122.17 64.9109 121.909 65.2904 121.78 65.7197L123.696 66.2943C123.701 66.2786 123.701 66.2865 123.687 66.3052C123.672 66.3253 123.653 66.3421 123.637 66.3525C123.622 66.3618 123.622 66.358 123.648 66.3517C123.676 66.3451 123.728 66.337 123.81 66.337V64.337ZM121.762 65.7901C121.622 66.4199 121.703 67.0501 121.944 67.6514L123.801 66.9086C123.684 66.6165 123.676 66.3981 123.714 66.2239L121.762 65.7901ZM121.924 67.5962C122.084 68.0766 122.253 68.7461 122.428 69.6201L124.389 69.2279C124.206 68.3152 124.018 67.5554 123.821 66.9638L121.924 67.5962ZM122.428 69.6201C122.574 70.3513 122.567 71.3361 122.355 72.6096L124.328 72.9384C124.562 71.5319 124.6 70.2833 124.389 69.2279L122.428 69.6201ZM122.357 72.599C122.051 74.3166 121.186 75.4955 119.736 76.2392L120.649 78.0188C122.682 76.9759 123.917 75.2514 124.326 72.949L122.357 72.599ZM119.736 76.2392C118.216 77.0188 116.33 77.302 114.021 77.008L113.768 78.992C116.372 79.3234 118.685 79.0259 120.649 78.0188L119.736 76.2392ZM135.952 55.6531L132.468 44.7321L130.563 45.3399L134.047 56.2609L135.952 55.6531ZM132.496 44.8399C132.384 44.2812 132.165 43.7359 131.753 43.3239L130.339 44.7381C130.374 44.7728 130.468 44.8975 130.535 45.2321L132.496 44.8399ZM131.878 43.4763C131.448 42.8302 130.748 42.629 130.108 42.629V44.629C130.237 44.629 130.284 44.6489 130.284 44.6486C130.282 44.6478 130.27 44.6423 130.254 44.6291C130.237 44.6156 130.224 44.6 130.214 44.5857L131.878 43.4763ZM130.108 42.629C129.455 42.629 128.799 42.8338 128.335 43.3908L129.871 44.6712C129.873 44.6692 129.875 44.6655 129.893 44.658C129.918 44.648 129.983 44.629 130.108 44.629V42.629ZM128.322 43.4063C128.029 43.7731 127.827 44.2469 127.676 44.7486L129.592 45.3233C129.71 44.9318 129.82 44.7356 129.884 44.6557L128.322 43.4063ZM127.68 44.7374L124.263 55.6584L126.172 56.2556L129.589 45.3346L127.68 44.7374ZM125.217 56.957H134.999V54.957H125.217V56.957ZM147.607 42.155L146.924 42.8853L146.929 42.8907L146.935 42.896L147.607 42.155ZM147.406 31.435L146.675 30.7518L146.675 30.7527L147.406 31.435ZM187.606 31.435L186.864 32.1053L186.875 32.1178L186.887 32.13L187.606 31.435ZM187.405 42.155L186.733 41.414L186.727 41.4193L186.722 41.4247L187.405 42.155ZM178.293 43.629L177.921 44.5575L177.949 44.5684L177.977 44.5777L178.293 43.629ZM176.082 42.423L175.436 43.1864L175.454 43.2014L175.472 43.2156L176.082 42.423ZM174.407 41.217L173.852 42.049L173.877 42.0657L173.903 42.0808L174.407 41.217ZM172.397 40.681V39.681H171.779L171.502 40.2338L172.397 40.681ZM171.794 41.887L170.899 41.4398L170.688 41.8619L170.88 42.2931L171.794 41.887ZM172.732 43.629L171.87 44.136L171.877 44.1476L171.884 44.159L172.732 43.629ZM174.005 46.778L173.044 47.0568L173.047 47.0653L174.005 46.778ZM172.531 76.191L171.874 75.4369L171.868 75.4423L171.862 75.4477L172.531 76.191ZM162.481 76.191L161.812 76.9343L161.818 76.9397L161.824 76.9451L162.481 76.191ZM161.074 46.778L162.032 47.0654L162.034 47.0568L161.074 46.778ZM162.347 43.629L161.507 43.0857L161.503 43.0923L161.499 43.099L162.347 43.629ZM163.352 41.887L164.266 42.2931L164.468 41.8374L164.226 41.4014L163.352 41.887ZM162.682 40.681L163.556 40.1954L163.27 39.681H162.682V40.681ZM160.672 41.217L161.176 42.0808L161.202 42.0657L161.226 42.049L160.672 41.217ZM158.997 42.423L159.606 43.2156L159.625 43.2014L159.643 43.1864L158.997 42.423ZM156.786 43.629L157.116 44.5729L157.137 44.5656L157.157 44.5575L156.786 43.629ZM153.101 43.098C151.074 43.098 149.495 42.5166 148.278 41.414L146.935 42.896C148.577 44.3841 150.661 45.098 153.101 45.098V43.098ZM148.29 41.4247C147.148 40.3561 146.53 38.8565 146.53 36.795H144.53C144.53 39.2895 145.297 41.3633 146.924 42.8853L148.29 41.4247ZM146.53 36.795C146.53 34.7566 147.095 33.2335 148.137 32.1173L146.675 30.7527C145.215 32.3165 144.53 34.3667 144.53 36.795H146.53ZM148.136 32.1182C149.187 30.9945 150.784 30.358 153.101 30.358V28.358C150.415 28.358 148.215 29.1061 146.675 30.7518L148.136 32.1182ZM153.101 30.358H181.978V28.358H153.101V30.358ZM181.978 30.358C184.297 30.358 185.861 30.9953 186.864 32.1053L188.348 30.7647C186.849 29.1054 184.661 28.358 181.978 28.358V30.358ZM186.887 32.13C187.967 33.2476 188.549 34.7662 188.549 36.795H190.549C190.549 34.3571 189.835 32.3024 188.325 30.74L186.887 32.13ZM188.549 36.795C188.549 38.8465 187.915 40.3427 186.733 41.414L188.076 42.896C189.753 41.3766 190.549 39.2995 190.549 36.795H188.549ZM186.722 41.4247C185.555 42.5165 184.005 43.098 181.978 43.098V45.098C184.417 45.098 186.486 44.3842 188.088 42.8853L186.722 41.4247ZM181.978 43.098C180.515 43.098 179.406 42.9459 178.609 42.6803L177.977 44.5777C179.056 44.9374 180.403 45.098 181.978 45.098V43.098ZM178.664 42.7005C177.831 42.3673 177.181 42.0067 176.691 41.6304L175.472 43.2156C176.144 43.7327 176.968 44.176 177.921 44.5575L178.664 42.7005ZM176.728 41.6596C176.112 41.1388 175.507 40.7008 174.911 40.3532L173.903 42.0808C174.379 42.3585 174.89 42.7245 175.436 43.1864L176.728 41.6596ZM174.961 40.3849C174.225 39.8937 173.349 39.681 172.397 39.681V41.681C173.052 41.681 173.517 41.8256 173.852 42.049L174.961 40.3849ZM171.502 40.2338L170.899 41.4398L172.688 42.3342L173.291 41.1282L171.502 40.2338ZM170.88 42.2931C171.083 42.749 171.419 43.3695 171.87 44.136L173.594 43.122C173.151 42.3698 172.862 41.829 172.708 41.4809L170.88 42.2931ZM171.884 44.159C172.259 44.7594 172.653 45.7074 173.044 47.0568L174.965 46.4992C174.553 45.0792 174.098 43.9279 173.58 43.099L171.884 44.159ZM173.047 47.0653C173.409 48.271 173.608 49.9915 173.608 52.272H175.608C175.608 49.9072 175.405 47.965 174.963 46.4907L173.047 47.0653ZM173.608 52.272V71.635H175.608V52.272H173.608ZM173.608 71.635C173.608 73.1763 173.041 74.4202 171.874 75.4369L173.188 76.9451C174.79 75.5498 175.608 73.7564 175.608 71.635H173.608ZM171.862 75.4477C170.723 76.473 169.315 77 167.573 77V79C169.761 79 171.659 78.321 173.2 76.9343L171.862 75.4477ZM167.573 77C165.78 77 164.322 76.4689 163.138 75.4369L161.824 76.9451C163.408 78.3251 165.346 79 167.573 79V77ZM163.15 75.4477C162.024 74.4348 161.471 73.188 161.471 71.635H159.471C159.471 73.7447 160.257 75.5352 161.812 76.9343L163.15 75.4477ZM161.471 71.635V52.272H159.471V71.635H161.471ZM161.471 52.272C161.471 49.9915 161.67 48.271 162.032 47.0653L160.116 46.4907C159.674 47.965 159.471 49.9072 159.471 52.272H161.471ZM162.034 47.0568C162.426 45.7074 162.82 44.7594 163.195 44.159L161.499 43.099C160.981 43.9279 160.526 45.0792 160.113 46.4992L162.034 47.0568ZM163.186 44.1722C163.683 43.4048 164.054 42.77 164.266 42.2931L162.438 41.4809C162.293 41.808 161.993 42.3345 161.507 43.0857L163.186 44.1722ZM164.226 41.4014L163.556 40.1954L161.808 41.1666L162.478 42.3726L164.226 41.4014ZM162.682 39.681C161.729 39.681 160.854 39.8937 160.117 40.3849L161.226 42.049C161.562 41.8256 162.026 41.681 162.682 41.681V39.681ZM160.168 40.3532C159.572 40.7008 158.966 41.1388 158.351 41.6596L159.643 43.1864C160.189 42.7245 160.7 42.3585 161.176 42.0808L160.168 40.3532ZM158.387 41.6304C157.898 42.0067 157.247 42.3673 156.414 42.7005L157.157 44.5575C158.111 44.176 158.934 43.7327 159.606 43.2156L158.387 41.6304ZM156.455 42.6851C155.715 42.9443 154.615 43.098 153.101 43.098V45.098C154.713 45.098 156.07 44.939 157.116 44.5729L156.455 42.6851ZM206.265 76.258L206.959 75.5386L206.265 76.258ZM206.198 31.1L205.479 30.405L205.473 30.4113L205.467 30.4177L206.198 31.1ZM216.516 31.1L215.785 31.7823L215.796 31.7949L215.809 31.8071L216.516 31.1ZM216.382 76.258L215.711 75.5159L215.705 75.5214L215.699 75.5269L216.382 76.258ZM211.29 77.134C209.455 77.134 208.042 76.5836 206.959 75.5386L205.57 76.9774C207.079 78.4338 209.015 79.134 211.29 79.134V77.134ZM206.959 75.5386C205.873 74.4899 205.322 73.1705 205.322 71.501H203.322C203.322 73.6728 204.066 75.5247 205.57 76.9774L206.959 75.5386ZM205.322 71.501V36.058H203.322V71.501H205.322ZM205.322 36.058C205.322 34.3259 205.864 32.923 206.929 31.7823L205.467 30.4177C204.03 31.957 203.322 33.8594 203.322 36.058H205.322ZM206.917 31.795C207.999 30.6754 209.424 30.09 211.29 30.09V28.09C208.957 28.09 206.987 28.8446 205.479 30.405L206.917 31.795ZM211.29 30.09C213.311 30.09 214.763 30.6881 215.785 31.7823L217.247 30.4177C215.767 28.8318 213.735 28.09 211.29 28.09V30.09ZM215.809 31.8071C216.907 32.905 217.459 34.2542 217.459 35.924H219.459C219.459 33.7524 218.716 31.8856 217.223 30.3929L215.809 31.8071ZM217.459 35.924V71.501H219.459V35.924H217.459ZM217.459 71.501C217.459 73.1482 216.879 74.4611 215.711 75.5159L217.052 77.0001C218.654 75.5536 219.459 73.6951 219.459 71.501H217.459ZM215.699 75.5269C214.567 76.5834 213.124 77.134 211.29 77.134V79.134C213.565 79.134 215.516 78.4339 217.064 76.9891L215.699 75.5269ZM235.838 77.464L235.628 78.4418L235.638 78.4439L235.648 78.4459L235.838 77.464ZM228.87 75.186L228.43 76.0842L228.442 76.0898L228.453 76.0951L228.87 75.186ZM223.778 71.501L223.027 72.1611L223.032 72.1669L223.037 72.1725L223.778 71.501ZM224.18 60.513L223.494 59.7854L224.18 60.513ZM229.674 58.436L229.631 59.4351L229.639 59.4354L229.647 59.4356L229.674 58.436ZM234.632 59.508L234.256 60.4347L234.267 60.4391L234.278 60.4433L234.632 59.508ZM239.657 61.384L239.311 62.3224L239.319 62.3252L239.657 61.384ZM248.501 61.652L247.946 60.8199V60.82L248.501 61.652ZM248.099 57.632L248.625 56.7817L248.099 57.632ZM244.548 56.292L244.31 57.2633L244.322 57.2662L244.334 57.2689L244.548 56.292ZM241.265 55.488L241.503 54.5167L241.495 54.5149L241.265 55.488ZM232.153 52.808L231.795 53.7417L231.802 53.7444L231.809 53.7469L232.153 52.808ZM225.788 48.788L225.043 49.4548L225.052 49.4651L225.061 49.4752L225.788 48.788ZM226.056 34.517L226.805 35.1792L226.813 35.1706L226.056 34.517ZM232.957 30.229L232.663 29.2732L232.957 30.229ZM252.32 30.028L252.055 30.9924L252.32 30.028ZM258.752 33.311L258.067 34.0392L258.072 34.0441L258.077 34.049L258.752 33.311ZM259.288 43.696L258.568 43.0019L258.568 43.0024L259.288 43.696ZM250.511 44.835L250.204 45.7867L250.213 45.7895L250.511 44.835ZM246.089 43.562L245.807 44.5214L245.823 44.5262L245.84 44.5305L246.089 43.562ZM237.647 43.629L238.133 44.5032L238.151 44.4931L238.168 44.4823L237.647 43.629ZM238.049 47.515L237.664 48.4381L238.049 47.515ZM243.342 49.123L243.095 50.0921L243.105 50.0947L243.116 50.0971L243.342 49.123ZM247.094 49.994L247.333 49.0229L247.32 49.0199L247.094 49.994ZM255.201 52.741L254.782 53.649L255.201 52.741ZM260.628 56.962L259.825 57.5587V57.5587L260.628 56.962ZM260.159 72.104L260.953 72.7121L260.959 72.704L260.159 72.104ZM253.459 76.727L253.134 75.7813L253.459 76.727ZM243.409 77.201C240.973 77.201 238.513 76.9618 236.027 76.4821L235.648 78.4459C238.255 78.9488 240.842 79.201 243.409 79.201V77.201ZM236.047 76.4862C233.611 75.9642 231.359 75.2268 229.287 74.2769L228.453 76.0951C230.669 77.1106 233.062 77.8918 235.628 78.4418L236.047 76.4862ZM229.309 74.2878C227.301 73.3047 225.713 72.1472 224.519 70.8295L223.037 72.1725C224.433 73.7135 226.241 75.0126 228.43 76.0842L229.309 74.2878ZM224.529 70.8409C223.39 69.545 222.835 68.081 222.835 66.409H220.835C220.835 68.5784 221.575 70.509 223.027 72.1611L224.529 70.8409ZM222.835 66.409C222.835 64.1845 223.532 62.4979 224.866 61.2406L223.494 59.7854C221.701 61.4761 220.835 63.7202 220.835 66.409H222.835ZM224.866 61.2406C226.238 59.947 227.808 59.3575 229.631 59.4351L229.716 57.4369C227.341 57.3358 225.249 58.131 223.494 59.7854L224.866 61.2406ZM229.647 59.4356C231.171 59.4768 232.706 59.8062 234.256 60.4347L235.008 58.5813C233.253 57.8698 231.482 57.4845 229.701 57.4364L229.647 59.4356ZM234.278 60.4433C235.933 61.0697 237.611 61.696 239.311 62.3223L240.003 60.4457C238.308 59.8213 236.636 59.197 234.986 58.5727L234.278 60.4433ZM239.319 62.3252C241.163 62.987 243.019 63.322 244.883 63.322V61.322C243.263 61.322 241.635 61.0317 239.995 60.4428L239.319 62.3252ZM244.883 63.322C246.64 63.322 248.117 63.1101 249.056 62.484L247.946 60.82C247.545 61.0873 246.61 61.322 244.883 61.322V63.322ZM249.056 62.4841C249.984 61.8653 250.506 60.9601 250.506 59.843H248.506C248.506 60.2446 248.358 60.5454 247.946 60.8199L249.056 62.4841ZM250.506 59.843C250.506 58.5188 249.778 57.4953 248.625 56.7817L247.573 58.4823C248.296 58.9301 248.506 59.3805 248.506 59.843H250.506ZM248.625 56.7817C247.565 56.1256 246.268 55.6445 244.762 55.3151L244.334 57.2689C245.687 57.5648 246.757 57.9771 247.573 58.4823L248.625 56.7817ZM244.786 55.3207L241.503 54.5167L241.027 56.4593L244.31 57.2633L244.786 55.3207ZM241.495 54.5149C238.131 53.7181 235.133 52.8355 232.497 51.8691L231.809 53.7469C234.533 54.7458 237.609 55.6499 241.034 56.4611L241.495 54.5149ZM232.511 51.8743C229.935 50.8869 227.952 49.6201 226.514 48.1008L225.061 49.4752C226.751 51.2612 229.011 52.6745 231.795 53.7417L232.511 51.8743ZM226.533 48.1212C225.215 46.6478 224.51 44.6494 224.51 42.021H222.51C222.51 45.0206 223.324 47.5336 225.043 49.4548L226.533 48.1212ZM224.51 42.021C224.51 39.1311 225.301 36.8817 226.805 35.1792L225.307 33.8548C223.416 35.9937 222.51 38.7469 222.51 42.021H224.51ZM226.813 35.1706C228.368 33.3702 230.496 32.0324 233.251 31.1848L232.663 29.2732C229.611 30.2123 227.139 31.7332 225.299 33.8634L226.813 35.1706ZM233.251 31.1848C236.044 30.3254 239.181 29.889 242.672 29.889V27.889C239.016 27.889 235.676 28.3459 232.663 29.2732L233.251 31.1848ZM242.672 29.889C246.268 29.889 249.392 30.2621 252.055 30.9924L252.584 29.0636C249.709 28.2752 246.401 27.889 242.672 27.889V29.889ZM252.055 30.9924C254.724 31.724 256.703 32.756 258.067 34.0392L259.437 32.5828C257.763 31.0074 255.455 29.8507 252.584 29.0636L252.055 30.9924ZM258.077 34.049C259.441 35.2956 260.097 36.7728 260.097 38.537H262.097C262.097 36.1919 261.19 34.1851 259.427 32.573L258.077 34.049ZM260.097 38.537C260.097 40.5372 259.551 41.9828 258.568 43.0019L260.008 44.3901C261.437 42.9079 262.097 40.9141 262.097 38.537H260.097ZM258.568 43.0024C257.628 43.9785 256.343 44.505 254.598 44.505V46.505C256.784 46.505 258.626 45.8255 260.008 44.3896L258.568 43.0024ZM254.598 44.505C253.418 44.505 252.157 44.3016 250.809 43.8805L250.213 45.7895C251.724 46.2617 253.187 46.505 254.598 46.505V44.505ZM250.818 43.8833C249.412 43.4298 247.919 43 246.338 42.5935L245.84 44.5305C247.386 44.928 248.84 45.3468 250.204 45.7867L250.818 43.8833ZM246.371 42.6026C244.752 42.1265 243.026 41.892 241.198 41.892V43.892C242.854 43.892 244.388 44.1042 245.807 44.5214L246.371 42.6026ZM241.198 41.892C239.559 41.892 238.159 42.1444 237.125 42.7757L238.168 44.4823C238.743 44.1309 239.71 43.892 241.198 43.892V41.892ZM237.161 42.7548C236.119 43.3337 235.441 44.2328 235.441 45.438H237.441C237.441 45.1245 237.566 44.8176 238.133 44.5032L237.161 42.7548ZM235.441 45.438C235.441 46.1117 235.639 46.7386 236.052 47.2729C236.455 47.7938 237.019 48.1691 237.664 48.4381L238.434 46.5919C238.007 46.4142 237.766 46.2201 237.634 46.0486C237.511 45.8905 237.441 45.7023 237.441 45.438H235.441ZM237.664 48.4381C238.808 48.9147 240.633 49.4654 243.095 50.0921L243.589 48.1539C241.137 47.5299 239.434 47.0086 238.434 46.5919L237.664 48.4381ZM243.116 50.0971L246.868 50.9681L247.32 49.0199L243.568 48.1489L243.116 50.0971ZM246.855 50.965C249.889 51.7125 252.529 52.6091 254.782 53.649L255.62 51.833C253.228 50.7289 250.463 49.7941 247.333 49.023L246.855 50.965ZM254.782 53.649C256.98 54.6634 258.646 55.973 259.825 57.5587L261.43 56.3653C260.019 54.467 258.067 52.9626 255.62 51.833L254.782 53.649ZM259.825 57.5587C260.959 59.0832 261.571 61.1332 261.571 63.796H263.571C263.571 60.8308 262.887 58.3248 261.43 56.3653L259.825 57.5587ZM261.571 63.796C261.571 67.0326 260.806 69.5746 259.359 71.504L260.959 72.704C262.728 70.3454 263.571 67.3487 263.571 63.796H261.571ZM259.365 71.4959C257.893 73.4175 255.834 74.8532 253.134 75.7813L253.784 77.6727C256.801 76.6355 259.209 74.9891 260.953 72.7121L259.365 71.4959ZM253.134 75.7813C250.404 76.7198 247.168 77.201 243.409 77.201V79.201C247.332 79.201 250.797 78.6995 253.784 77.6727L253.134 75.7813Z" fill="black" mask="url(#path-1-outside-1_2004_4)"/>
</g>
<g filter="url(#filter1_d_2004_4)">
<mask id="path-3-outside-2_2004_4" maskUnits="userSpaceOnUse" x="9.7063" y="128.947" width="288.588" height="156.403" fill="black">
<rect fill="white" x="9.7063" y="128.947" width="288.588" height="156.403"/>
<path d="M29.0995 234.429C26.1785 235.363 23.5125 235.282 21.1014 234.185C18.7487 233.07 17.096 231.023 16.1434 228.043C15.2095 225.122 15.2803 222.524 16.3557 220.249C17.4708 217.896 19.6642 216.197 22.9357 215.151L60.7042 203.075C63.9758 202.029 66.7189 202.15 68.9337 203.438C71.1882 204.649 72.7825 206.715 73.7164 209.636C74.669 212.615 74.4814 215.251 73.1536 217.543C71.8843 219.816 69.7891 221.42 66.8681 222.354C64.8818 222.989 63.2099 223.298 61.8523 223.281C60.5345 223.187 59.4024 222.97 58.4562 222.628C57.4913 222.229 56.5929 221.936 55.7611 221.751C54.9107 221.508 53.9597 221.555 52.9081 221.891L52.6237 223.72C53.0255 224.172 53.6773 224.8 54.579 225.607C55.4621 226.355 56.456 227.55 57.5608 229.193C58.6469 230.777 59.6756 233.089 60.6469 236.126L68.7439 261.451C69.5097 263.847 69.2393 266.123 67.9326 268.279C66.6843 270.417 64.7749 271.896 62.2044 272.718C59.5755 273.559 57.1034 273.48 54.7881 272.481C52.5312 271.464 51.0198 269.758 50.254 267.363L42.157 242.038C41.1857 239 40.6828 236.521 40.6482 234.6C40.595 232.621 40.711 231.071 40.9964 229.949C41.3214 228.751 41.5168 227.851 41.5823 227.251L40.2017 225.954C39.1502 226.29 38.3486 226.804 37.797 227.495C37.2267 228.128 36.6645 228.887 36.1105 229.773C35.5379 230.6 34.742 231.434 33.7231 232.275C32.6854 233.057 31.1442 233.775 29.0995 234.429ZM102.837 259.92C100.149 260.779 97.697 260.662 95.4799 259.568C93.2627 258.474 91.7525 256.671 90.9494 254.159L76.1281 207.802C75.3063 205.232 75.4331 202.809 76.5085 200.533C77.6423 198.239 79.5821 196.653 82.3278 195.775C85.2488 194.841 87.8074 194.989 90.0035 196.219C92.2394 197.371 93.7589 199.203 94.562 201.715L109.439 248.247C110.242 250.759 110 253.123 108.712 255.337C107.482 257.533 105.524 259.061 102.837 259.92ZM127.594 251.812C124.673 252.746 122.163 252.55 120.065 251.224C117.967 249.899 116.433 247.717 115.461 244.68L102.321 203.581C101.35 200.543 101.12 197.912 101.633 195.688C102.185 193.386 103.226 191.508 104.757 190.053C106.346 188.579 108.222 187.496 110.383 186.805C113.596 185.778 116.584 185.756 119.345 186.741C122.107 187.725 124.783 190.154 127.373 194.026L147.176 223.336L148.578 222.887L137.819 189.237C136.829 186.141 136.843 183.465 137.86 181.208C138.858 178.892 140.818 177.268 143.739 176.334C146.776 175.362 149.315 175.549 151.355 176.893C153.434 178.16 154.969 180.342 155.958 183.438L168.622 223.047C170.191 227.954 170.269 231.921 168.854 234.949C167.44 237.977 164.776 240.117 160.861 241.368C156.889 242.638 153.456 242.577 150.564 241.184C147.672 239.79 144.987 237.236 142.512 233.52L129.482 214.215C129.178 213.668 128.776 213.217 128.276 212.862C127.816 212.429 127.323 212.297 126.797 212.465C126.155 212.671 125.801 213.074 125.735 213.674C125.651 214.216 125.702 214.779 125.889 215.364L133.425 238.936C134.397 241.974 134.412 244.641 133.473 246.938C132.533 249.234 130.573 250.859 127.594 251.812ZM164.529 188.328C161.677 185.248 160.261 182.127 160.28 178.965C160.281 175.745 161.409 173.131 163.664 171.122C165.978 169.095 168.695 168.226 171.814 168.516C174.973 168.73 177.774 170.442 180.217 173.653C181.439 175.259 182.579 177.213 183.637 179.514C184.676 181.758 185.726 183.933 186.786 186.041C187.886 188.072 189.108 189.678 190.451 190.858C191.834 191.961 193.489 192.205 195.417 191.588C197.345 190.972 198.552 189.813 199.039 188.112C199.506 186.353 199.57 184.336 199.229 182.063C198.929 179.712 198.521 177.331 198.008 174.92C197.534 172.431 197.329 170.178 197.393 168.162C197.578 164.11 198.867 161.091 201.258 159.103C203.63 157.056 206.346 156.188 209.407 156.497C212.41 156.825 214.845 158.3 216.714 160.922C218.564 163.486 219.221 166.85 218.685 171.013C218.406 173.163 217.807 175.318 216.888 177.479C216.009 179.563 215.003 181.753 213.869 184.047C212.735 186.341 211.667 188.84 210.664 191.543C209.642 194.188 208.869 197.107 208.345 200.301L213.136 215.286C213.901 217.681 213.66 219.948 212.412 222.085C211.164 224.223 209.225 225.712 206.596 226.553C204.026 227.375 201.583 227.286 199.267 226.288C197.011 225.271 195.499 223.565 194.733 221.17L189.942 206.185C187.721 203.869 185.427 201.93 183.06 200.369C180.675 198.749 178.355 197.333 176.1 196.122C173.846 194.911 171.727 193.722 169.743 192.553C167.741 191.326 166.003 189.917 164.529 188.328ZM265.508 181.252C262.821 182.111 260.434 182.198 258.347 181.513C256.319 180.809 254.932 179.289 254.185 176.952C252.672 172.22 253.405 167.768 256.386 163.596C258.634 160.558 260.898 157.871 263.177 155.532C265.495 153.117 267.313 150.443 268.629 147.511C269.304 146.2 269.532 145.001 269.313 143.912C269.075 142.764 268.483 142.02 267.537 141.679C266.649 141.318 265.717 141.423 264.74 141.993C263.744 142.505 262.909 143.416 262.233 144.726C261.422 146.016 260.815 147.24 260.413 148.399C260.011 149.558 259.617 150.843 259.231 152.254C258.583 154.458 257.566 156.714 256.18 159.025C254.833 161.259 252.963 162.758 250.567 163.524C247.53 164.495 244.873 164.443 242.597 163.368C240.361 162.215 238.786 160.208 237.871 157.345C237.105 154.95 237.242 152.459 238.283 149.873C239.363 147.209 241.246 144.74 243.931 142.465C246.675 140.171 250.12 138.361 254.268 137.035C261.454 134.737 267.072 134.486 271.124 136.282C275.215 138 277.942 140.992 279.305 145.257C280.351 148.528 280.509 151.439 279.78 153.991C279.031 156.484 277.309 159.353 274.611 162.598C273.272 164.249 272.4 165.752 271.996 167.104C271.631 168.38 271.682 169.748 272.149 171.209C272.896 173.545 272.648 175.589 271.404 177.339C270.161 179.088 268.195 180.393 265.508 181.252ZM259.454 200.38C258.464 197.284 258.654 194.455 260.024 191.892C261.393 189.329 263.773 187.506 267.161 186.422C270.432 185.376 273.34 185.509 275.885 186.821C278.41 188.074 280.168 190.248 281.158 193.344C282.129 196.382 281.979 199.135 280.707 201.602C279.435 204.069 277.105 205.844 273.717 206.928C270.212 208.048 267.206 208.011 264.699 206.817C262.173 205.564 260.425 203.418 259.454 200.38Z"/>
</mask>
<path d="M29.0995 234.429C26.1785 235.363 23.5125 235.282 21.1014 234.185C18.7487 233.07 17.096 231.023 16.1434 228.043C15.2095 225.122 15.2803 222.524 16.3557 220.249C17.4708 217.896 19.6642 216.197 22.9357 215.151L60.7042 203.075C63.9758 202.029 66.7189 202.15 68.9337 203.438C71.1882 204.649 72.7825 206.715 73.7164 209.636C74.669 212.615 74.4814 215.251 73.1536 217.543C71.8843 219.816 69.7891 221.42 66.8681 222.354C64.8818 222.989 63.2099 223.298 61.8523 223.281C60.5345 223.187 59.4024 222.97 58.4562 222.628C57.4913 222.229 56.5929 221.936 55.7611 221.751C54.9107 221.508 53.9597 221.555 52.9081 221.891L52.6237 223.72C53.0255 224.172 53.6773 224.8 54.579 225.607C55.4621 226.355 56.456 227.55 57.5608 229.193C58.6469 230.777 59.6756 233.089 60.6469 236.126L68.7439 261.451C69.5097 263.847 69.2393 266.123 67.9326 268.279C66.6843 270.417 64.7749 271.896 62.2044 272.718C59.5755 273.559 57.1034 273.48 54.7881 272.481C52.5312 271.464 51.0198 269.758 50.254 267.363L42.157 242.038C41.1857 239 40.6828 236.521 40.6482 234.6C40.595 232.621 40.711 231.071 40.9964 229.949C41.3214 228.751 41.5168 227.851 41.5823 227.251L40.2017 225.954C39.1502 226.29 38.3486 226.804 37.797 227.495C37.2267 228.128 36.6645 228.887 36.1105 229.773C35.5379 230.6 34.742 231.434 33.7231 232.275C32.6854 233.057 31.1442 233.775 29.0995 234.429ZM102.837 259.92C100.149 260.779 97.697 260.662 95.4799 259.568C93.2627 258.474 91.7525 256.671 90.9494 254.159L76.1281 207.802C75.3063 205.232 75.4331 202.809 76.5085 200.533C77.6423 198.239 79.5821 196.653 82.3278 195.775C85.2488 194.841 87.8074 194.989 90.0035 196.219C92.2394 197.371 93.7589 199.203 94.562 201.715L109.439 248.247C110.242 250.759 110 253.123 108.712 255.337C107.482 257.533 105.524 259.061 102.837 259.92ZM127.594 251.812C124.673 252.746 122.163 252.55 120.065 251.224C117.967 249.899 116.433 247.717 115.461 244.68L102.321 203.581C101.35 200.543 101.12 197.912 101.633 195.688C102.185 193.386 103.226 191.508 104.757 190.053C106.346 188.579 108.222 187.496 110.383 186.805C113.596 185.778 116.584 185.756 119.345 186.741C122.107 187.725 124.783 190.154 127.373 194.026L147.176 223.336L148.578 222.887L137.819 189.237C136.829 186.141 136.843 183.465 137.86 181.208C138.858 178.892 140.818 177.268 143.739 176.334C146.776 175.362 149.315 175.549 151.355 176.893C153.434 178.16 154.969 180.342 155.958 183.438L168.622 223.047C170.191 227.954 170.269 231.921 168.854 234.949C167.44 237.977 164.776 240.117 160.861 241.368C156.889 242.638 153.456 242.577 150.564 241.184C147.672 239.79 144.987 237.236 142.512 233.52L129.482 214.215C129.178 213.668 128.776 213.217 128.276 212.862C127.816 212.429 127.323 212.297 126.797 212.465C126.155 212.671 125.801 213.074 125.735 213.674C125.651 214.216 125.702 214.779 125.889 215.364L133.425 238.936C134.397 241.974 134.412 244.641 133.473 246.938C132.533 249.234 130.573 250.859 127.594 251.812ZM164.529 188.328C161.677 185.248 160.261 182.127 160.28 178.965C160.281 175.745 161.409 173.131 163.664 171.122C165.978 169.095 168.695 168.226 171.814 168.516C174.973 168.73 177.774 170.442 180.217 173.653C181.439 175.259 182.579 177.213 183.637 179.514C184.676 181.758 185.726 183.933 186.786 186.041C187.886 188.072 189.108 189.678 190.451 190.858C191.834 191.961 193.489 192.205 195.417 191.588C197.345 190.972 198.552 189.813 199.039 188.112C199.506 186.353 199.57 184.336 199.229 182.063C198.929 179.712 198.521 177.331 198.008 174.92C197.534 172.431 197.329 170.178 197.393 168.162C197.578 164.11 198.867 161.091 201.258 159.103C203.63 157.056 206.346 156.188 209.407 156.497C212.41 156.825 214.845 158.3 216.714 160.922C218.564 163.486 219.221 166.85 218.685 171.013C218.406 173.163 217.807 175.318 216.888 177.479C216.009 179.563 215.003 181.753 213.869 184.047C212.735 186.341 211.667 188.84 210.664 191.543C209.642 194.188 208.869 197.107 208.345 200.301L213.136 215.286C213.901 217.681 213.66 219.948 212.412 222.085C211.164 224.223 209.225 225.712 206.596 226.553C204.026 227.375 201.583 227.286 199.267 226.288C197.011 225.271 195.499 223.565 194.733 221.17L189.942 206.185C187.721 203.869 185.427 201.93 183.06 200.369C180.675 198.749 178.355 197.333 176.1 196.122C173.846 194.911 171.727 193.722 169.743 192.553C167.741 191.326 166.003 189.917 164.529 188.328ZM265.508 181.252C262.821 182.111 260.434 182.198 258.347 181.513C256.319 180.809 254.932 179.289 254.185 176.952C252.672 172.22 253.405 167.768 256.386 163.596C258.634 160.558 260.898 157.871 263.177 155.532C265.495 153.117 267.313 150.443 268.629 147.511C269.304 146.2 269.532 145.001 269.313 143.912C269.075 142.764 268.483 142.02 267.537 141.679C266.649 141.318 265.717 141.423 264.74 141.993C263.744 142.505 262.909 143.416 262.233 144.726C261.422 146.016 260.815 147.24 260.413 148.399C260.011 149.558 259.617 150.843 259.231 152.254C258.583 154.458 257.566 156.714 256.18 159.025C254.833 161.259 252.963 162.758 250.567 163.524C247.53 164.495 244.873 164.443 242.597 163.368C240.361 162.215 238.786 160.208 237.871 157.345C237.105 154.95 237.242 152.459 238.283 149.873C239.363 147.209 241.246 144.74 243.931 142.465C246.675 140.171 250.12 138.361 254.268 137.035C261.454 134.737 267.072 134.486 271.124 136.282C275.215 138 277.942 140.992 279.305 145.257C280.351 148.528 280.509 151.439 279.78 153.991C279.031 156.484 277.309 159.353 274.611 162.598C273.272 164.249 272.4 165.752 271.996 167.104C271.631 168.38 271.682 169.748 272.149 171.209C272.896 173.545 272.648 175.589 271.404 177.339C270.161 179.088 268.195 180.393 265.508 181.252ZM259.454 200.38C258.464 197.284 258.654 194.455 260.024 191.892C261.393 189.329 263.773 187.506 267.161 186.422C270.432 185.376 273.34 185.509 275.885 186.821C278.41 188.074 280.168 190.248 281.158 193.344C282.129 196.382 281.979 199.135 280.707 201.602C279.435 204.069 277.105 205.844 273.717 206.928C270.212 208.048 267.206 208.011 264.699 206.817C262.173 205.564 260.425 203.418 259.454 200.38Z" fill="#FF8400"/>
<path d="M21.1014 234.185L20.673 235.089L20.6802 235.092L20.6874 235.096L21.1014 234.185ZM16.3557 220.249L15.4521 219.82L15.4516 219.821L16.3557 220.249ZM68.9337 203.438L68.431 204.303L68.4456 204.311L68.4605 204.319L68.9337 203.438ZM73.1536 217.543L72.2883 217.042L72.2844 217.048L72.2805 217.055L73.1536 217.543ZM61.8523 223.281L61.7813 224.279L61.8106 224.281L61.84 224.281L61.8523 223.281ZM58.4562 222.628L58.0734 223.552L58.0949 223.561L58.1168 223.569L58.4562 222.628ZM55.7611 221.751L55.4862 222.713L55.515 222.721L55.5443 222.728L55.7611 221.751ZM52.9081 221.891L52.6036 220.938L52.0149 221.127L51.92 221.737L52.9081 221.891ZM52.6237 223.72L51.6356 223.567L51.5631 224.033L51.877 224.386L52.6237 223.72ZM54.579 225.607L53.9124 226.352L53.9224 226.361L53.9327 226.37L54.579 225.607ZM57.5608 229.193L56.7309 229.751L56.736 229.758L57.5608 229.193ZM67.9326 268.279L67.0774 267.761L67.0731 267.768L67.069 267.775L67.9326 268.279ZM54.7881 272.481L54.3773 273.393L54.3847 273.397L54.3921 273.4L54.7881 272.481ZM40.6482 234.6L41.6481 234.582L41.6478 234.573L40.6482 234.6ZM40.9964 229.949L40.0312 229.688L40.0292 229.695L40.0272 229.703L40.9964 229.949ZM41.5823 227.251L42.5764 227.359L42.6306 226.863L42.2671 226.522L41.5823 227.251ZM40.2017 225.954L40.8865 225.225L40.4577 224.822L39.8972 225.001L40.2017 225.954ZM37.797 227.495L38.54 228.164L38.56 228.142L38.5787 228.119L37.797 227.495ZM36.1105 229.773L36.9327 230.342L36.9459 230.323L36.9583 230.303L36.1105 229.773ZM33.7231 232.275L34.3252 233.073L34.3427 233.06L34.3596 233.046L33.7231 232.275ZM28.795 233.477C26.0706 234.348 23.6651 234.253 21.5153 233.275L20.6874 235.096C23.3598 236.311 26.2864 236.378 29.4041 235.382L28.795 233.477ZM21.5297 233.282C19.4768 232.309 17.9826 230.512 17.0959 227.739L15.1909 228.348C16.2095 231.534 18.0205 233.832 20.673 235.089L21.5297 233.282ZM17.0959 227.739C16.2214 225.004 16.3152 222.675 17.2598 220.676L15.4516 219.821C14.2453 222.374 14.1976 225.241 15.1909 228.348L17.0959 227.739ZM17.2593 220.677C18.2214 218.647 20.1442 217.093 23.2402 216.103L22.6312 214.198C19.1842 215.3 16.7203 217.145 15.4521 219.82L17.2593 220.677ZM23.2402 216.103L61.0088 204.028L60.3997 202.123L22.6312 214.198L23.2402 216.103ZM61.0088 204.028C64.107 203.037 66.5362 203.201 68.431 204.303L69.4364 202.574C66.9017 201.1 63.8445 201.021 60.3997 202.123L61.0088 204.028ZM68.4605 204.319C70.4425 205.384 71.8923 207.214 72.7639 209.941L74.6689 209.331C73.6727 206.216 71.934 203.914 69.4069 202.557L68.4605 204.319ZM72.7639 209.941C73.6475 212.704 73.4488 215.038 72.2883 217.042L74.0189 218.044C75.5139 215.464 75.6904 212.527 74.6689 209.331L72.7639 209.941ZM72.2805 217.055C71.1564 219.068 69.2887 220.53 66.5635 221.401L67.1726 223.306C70.2895 222.31 72.6121 220.564 74.0267 218.03L72.2805 217.055ZM66.5635 221.401C64.6309 222.019 63.0733 222.296 61.8646 222.281L61.84 224.281C63.3465 224.3 65.1327 223.958 67.1726 223.306L66.5635 221.401ZM61.9233 222.284C60.6702 222.195 59.6332 221.99 58.7956 221.688L58.1168 223.569C59.1716 223.95 60.3987 224.18 61.7813 224.279L61.9233 222.284ZM58.839 221.705C57.8319 221.287 56.8775 220.975 55.978 220.775L55.5443 222.728C56.3083 222.897 57.1507 223.17 58.0734 223.552L58.839 221.705ZM56.0361 220.79C54.9536 220.48 53.7964 220.557 52.6036 220.938L53.2126 222.843C54.1229 222.552 54.8678 222.536 55.4862 222.713L56.0361 220.79ZM51.92 221.737L51.6356 223.567L53.6119 223.874L53.8962 222.045L51.92 221.737ZM51.877 224.386C52.318 224.881 53.0045 225.54 53.9124 226.352L55.2456 224.861C54.35 224.06 53.733 223.462 53.3705 223.055L51.877 224.386ZM53.9327 226.37C54.7129 227.031 55.6467 228.138 56.731 229.751L58.3906 228.635C57.2653 226.961 56.2112 225.679 55.2253 224.844L53.9327 226.37ZM56.736 229.758C57.7428 231.227 58.736 233.433 59.6944 236.431L61.5994 235.822C60.6153 232.744 59.5511 230.328 58.3856 228.628L56.736 229.758ZM59.6944 236.431L67.7914 261.756L69.6964 261.147L61.5994 235.822L59.6944 236.431ZM67.7914 261.756C68.4689 263.875 68.2347 265.851 67.0774 267.761L68.7878 268.797C70.2439 266.394 70.5506 263.818 69.6964 261.147L67.7914 261.756ZM67.069 267.775C65.957 269.679 64.2581 271.012 61.8999 271.766L62.509 273.671C65.2918 272.781 67.4116 271.154 68.7961 268.783L67.069 267.775ZM61.8999 271.766C59.4775 272.54 57.256 272.457 55.184 271.563L54.3921 273.4C56.9508 274.503 59.6736 274.577 62.509 273.671L61.8999 271.766ZM55.1989 271.57C53.2051 270.671 51.8875 269.189 51.2065 267.059L49.3015 267.668C50.1521 270.328 51.8572 272.258 54.3773 273.393L55.1989 271.57ZM51.2065 267.059L43.1095 241.734L41.2045 242.343L49.3015 267.668L51.2065 267.059ZM43.1095 241.734C42.151 238.736 41.6801 236.363 41.648 234.582L39.6484 234.618C39.6855 236.679 40.2203 239.265 41.2045 242.343L43.1095 241.734ZM41.6478 234.573C41.5956 232.631 41.7134 231.187 41.9655 230.196L40.0272 229.703C39.7087 230.955 39.5943 232.611 39.6486 234.627L41.6478 234.573ZM41.9615 230.211C42.2891 229.003 42.502 228.041 42.5764 227.359L40.5883 227.142C40.5316 227.661 40.3538 228.498 40.0312 229.688L41.9615 230.211ZM42.2671 226.522L40.8865 225.225L39.517 226.682L40.8976 227.979L42.2671 226.522ZM39.8972 225.001C38.7043 225.382 37.7174 225.991 37.0152 226.871L38.5787 228.119C38.9798 227.616 39.596 227.197 40.5063 226.906L39.8972 225.001ZM37.054 226.826C36.4373 227.51 35.841 228.318 35.2628 229.242L36.9583 230.303C37.4881 229.457 38.0161 228.746 38.54 228.164L37.054 226.826ZM35.2884 229.204C34.7814 229.936 34.0555 230.704 33.0866 231.503L34.3596 233.046C35.4286 232.164 36.2943 231.264 36.9327 230.342L35.2884 229.204ZM33.121 231.476C32.2127 232.161 30.7929 232.838 28.795 233.477L29.4041 235.382C31.4955 234.713 33.1582 233.953 34.3252 233.073L33.121 231.476ZM95.4799 259.568L95.9224 258.671L95.9224 258.671L95.4799 259.568ZM76.5085 200.533L75.612 200.09L75.6081 200.098L75.6044 200.106L76.5085 200.533ZM90.0035 196.219L89.515 197.091L89.53 197.1L89.5453 197.107L90.0035 196.219ZM108.712 255.337L107.848 254.835L107.843 254.842L107.839 254.849L108.712 255.337ZM102.532 258.968C100.054 259.76 97.874 259.634 95.9224 258.671L95.0373 260.465C97.5201 261.69 100.245 261.799 103.141 260.873L102.532 258.968ZM95.9224 258.671C93.966 257.706 92.6285 256.127 91.9019 253.854L89.9969 254.463C90.8765 257.215 92.5594 259.242 95.0373 260.465L95.9224 258.671ZM91.9019 253.854L77.0806 207.498L75.1756 208.107L89.9969 254.463L91.9019 253.854ZM77.0806 207.498C76.3298 205.15 76.4537 202.99 77.4126 200.961L75.6044 200.106C74.4125 202.628 74.2828 205.314 75.1756 208.107L77.0806 207.498ZM77.405 200.976C78.403 198.957 80.1091 197.534 82.6324 196.728L82.0233 194.823C79.0552 195.772 76.8816 197.521 75.612 200.09L77.405 200.976ZM82.6324 196.728C85.3515 195.858 87.6123 196.026 89.515 197.091L90.4921 195.346C88.0025 193.952 85.1462 193.824 82.0233 194.823L82.6324 196.728ZM89.5453 197.107C91.533 198.132 92.8828 199.747 93.6095 202.02L95.5145 201.411C94.635 198.66 92.9457 196.61 90.4617 195.33L89.5453 197.107ZM93.6095 202.02L108.487 248.552L110.392 247.942L95.5145 201.411L93.6095 202.02ZM108.487 248.552C109.207 250.803 108.989 252.872 107.848 254.835L109.576 255.84C111.011 253.373 111.278 250.715 110.392 247.942L108.487 248.552ZM107.839 254.849C106.749 256.797 105.01 258.176 102.532 258.968L103.141 260.873C106.038 259.947 108.216 258.27 109.585 255.826L107.839 254.849ZM120.065 251.224L119.531 252.07L119.531 252.07L120.065 251.224ZM101.633 195.688L100.66 195.455L100.658 195.463L101.633 195.688ZM104.757 190.053L104.077 189.32L104.068 189.328L104.757 190.053ZM119.345 186.741L119.009 187.683L119.009 187.683L119.345 186.741ZM127.373 194.026L126.542 194.582L126.545 194.586L127.373 194.026ZM147.176 223.336L146.347 223.895L146.767 224.516L147.48 224.288L147.176 223.336ZM148.578 222.887L148.882 223.84L149.835 223.535L149.53 222.583L148.578 222.887ZM137.86 181.208L138.771 181.618L138.775 181.611L138.778 181.604L137.86 181.208ZM151.355 176.893L150.804 177.728L150.819 177.738L150.834 177.747L151.355 176.893ZM168.854 234.949L167.948 234.526L167.948 234.526L168.854 234.949ZM150.564 241.184L150.13 242.084L150.13 242.084L150.564 241.184ZM142.512 233.52L143.344 232.965L143.34 232.96L142.512 233.52ZM129.482 214.215L128.607 214.7L128.628 214.738L128.653 214.774L129.482 214.215ZM128.276 212.862L127.592 213.59L127.641 213.637L127.697 213.677L128.276 212.862ZM125.735 213.674L126.723 213.828L126.727 213.805L126.729 213.783L125.735 213.674ZM127.289 250.859C124.577 251.726 122.389 251.51 120.599 250.379L119.531 252.07C121.937 253.59 124.768 253.765 127.898 252.764L127.289 250.859ZM120.599 250.379C118.751 249.211 117.334 247.254 116.414 244.375L114.509 244.984C115.531 248.181 117.183 250.587 119.531 252.07L120.599 250.379ZM116.414 244.375L103.274 203.277L101.369 203.886L114.509 244.984L116.414 244.375ZM103.274 203.277C102.336 200.345 102.148 197.905 102.607 195.912L100.658 195.463C100.093 197.919 100.363 200.742 101.369 203.886L103.274 203.277ZM102.605 195.921C103.118 193.784 104.071 192.084 105.446 190.778L104.068 189.328C102.381 190.932 101.252 192.989 100.66 195.455L102.605 195.921ZM105.437 190.786C106.914 189.416 108.659 188.406 110.688 187.758L110.079 185.853C107.784 186.586 105.779 187.741 104.077 189.32L105.437 190.786ZM110.688 187.758C113.725 186.787 116.485 186.783 119.009 187.683L119.681 185.799C116.683 184.73 113.468 184.769 110.079 185.853L110.688 187.758ZM119.009 187.683C121.481 188.564 124.006 190.791 126.542 194.582L128.204 193.47C125.56 189.517 122.733 186.887 119.681 185.799L119.009 187.683ZM126.545 194.586L146.347 223.895L148.004 222.776L128.202 193.466L126.545 194.586ZM147.48 224.288L148.882 223.84L148.273 221.935L146.871 222.383L147.48 224.288ZM149.53 222.583L138.772 188.933L136.867 189.542L147.625 223.192L149.53 222.583ZM138.772 188.933C137.833 185.997 137.884 183.587 138.771 181.618L136.948 180.797C135.801 183.342 135.825 186.286 136.867 189.542L138.772 188.933ZM138.778 181.604C139.637 179.611 141.333 178.153 144.043 177.286L143.434 175.381C140.303 176.382 138.079 178.174 136.941 180.812L138.778 181.604ZM144.043 177.286C146.888 176.377 149.09 176.598 150.804 177.728L151.905 176.058C149.54 174.499 146.665 174.348 143.434 175.381L144.043 177.286ZM150.834 177.747C152.648 178.852 154.064 180.798 155.006 183.742L156.911 183.133C155.873 179.885 154.22 177.468 151.875 176.039L150.834 177.747ZM155.006 183.742L167.67 223.351L169.575 222.742L156.911 183.133L155.006 183.742ZM167.67 223.351C169.202 228.144 169.211 231.823 167.948 234.526L169.76 235.373C171.326 232.02 171.18 227.764 169.575 222.742L167.67 223.351ZM167.948 234.526C166.678 237.245 164.271 239.228 160.557 240.416L161.166 242.321C165.28 241.005 168.202 238.709 169.76 235.373L167.948 234.526ZM160.557 240.416C156.753 241.632 153.597 241.535 150.998 240.283L150.13 242.084C153.315 243.619 157.025 243.645 161.166 242.321L160.557 240.416ZM150.998 240.283C148.318 238.992 145.757 236.588 143.344 232.965L141.679 234.074C144.218 237.884 147.025 240.589 150.13 242.084L150.998 240.283ZM143.34 232.96L130.31 213.655L128.653 214.774L141.683 234.079L143.34 232.96ZM130.356 213.729C129.981 213.055 129.48 212.49 128.856 212.047L127.697 213.677C128.073 213.944 128.375 214.281 128.607 214.7L130.356 213.729ZM128.961 212.133C128.282 211.495 127.421 211.216 126.493 211.513L127.102 213.418C127.225 213.378 127.35 213.364 127.592 213.59L128.961 212.133ZM126.493 211.513C126.043 211.657 125.622 211.893 125.299 212.262C124.969 212.637 124.793 213.088 124.741 213.566L126.729 213.783C126.742 213.66 126.776 213.61 126.801 213.582C126.831 213.547 126.909 213.479 127.102 213.418L126.493 211.513ZM124.747 213.521C124.636 214.233 124.708 214.954 124.936 215.668L126.841 215.059C126.696 214.605 126.665 214.199 126.723 213.828L124.747 213.521ZM124.936 215.668L132.473 239.241L134.378 238.632L126.841 215.059L124.936 215.668ZM132.473 239.241C133.393 242.12 133.375 244.536 132.547 246.559L134.398 247.317C135.45 244.747 135.4 241.828 134.378 238.632L132.473 239.241ZM132.547 246.559C131.747 248.513 130.066 249.971 127.289 250.859L127.898 252.764C131.08 251.747 133.318 249.956 134.398 247.317L132.547 246.559ZM164.529 188.328L163.795 189.007L163.796 189.008L164.529 188.328ZM160.28 178.965L161.28 178.971L161.28 178.966L160.28 178.965ZM163.664 171.122L163.005 170.37L162.999 170.375L163.664 171.122ZM171.814 168.516L171.721 169.512L171.734 169.513L171.746 169.514L171.814 168.516ZM180.217 173.653L181.013 173.048L181.013 173.048L180.217 173.653ZM183.637 179.514L182.728 179.932L182.729 179.935L183.637 179.514ZM186.786 186.041L185.893 186.491L185.899 186.504L185.907 186.518L186.786 186.041ZM190.451 190.858L189.791 191.609L189.809 191.625L189.827 191.64L190.451 190.858ZM199.039 188.112L200 188.387L200.003 188.378L200.005 188.369L199.039 188.112ZM199.229 182.063L198.238 182.19L198.239 182.2L198.24 182.211L199.229 182.063ZM198.008 174.92L197.026 175.107L197.028 175.117L197.03 175.128L198.008 174.92ZM197.393 168.162L196.394 168.116L196.394 168.123L196.393 168.13L197.393 168.162ZM201.258 159.103L201.897 159.872L201.904 159.866L201.911 159.86L201.258 159.103ZM209.407 156.497L209.516 155.503L209.508 155.502L209.407 156.497ZM216.714 160.922L215.899 161.502L215.903 161.507L216.714 160.922ZM218.685 171.013L219.676 171.142L219.676 171.141L218.685 171.013ZM216.888 177.479L215.968 177.088L215.967 177.091L216.888 177.479ZM213.869 184.047L214.765 184.49L214.765 184.49L213.869 184.047ZM210.664 191.543L211.597 191.903L211.601 191.891L210.664 191.543ZM208.345 200.301L207.358 200.139L207.319 200.377L207.392 200.606L208.345 200.301ZM199.267 226.288L198.857 227.2L198.864 227.203L198.871 227.206L199.267 226.288ZM189.942 206.185L190.895 205.88L190.824 205.66L190.664 205.493L189.942 206.185ZM183.06 200.369L182.498 201.196L182.509 201.203L183.06 200.369ZM169.743 192.553L169.221 193.405L169.228 193.41L169.236 193.414L169.743 192.553ZM165.263 187.649C162.525 184.692 161.263 181.805 161.28 178.971L159.28 178.959C159.259 182.449 160.829 185.803 163.795 189.007L165.263 187.649ZM161.28 178.966C161.281 176.01 162.302 173.674 164.329 171.869L162.999 170.375C160.515 172.588 159.281 175.481 159.28 178.965L161.28 178.966ZM164.323 171.874C166.426 170.031 168.87 169.247 171.721 169.512L171.907 167.521C168.52 167.205 165.53 168.158 163.005 170.37L164.323 171.874ZM171.746 169.514C174.542 169.703 177.102 171.21 179.422 174.259L181.013 173.048C178.447 169.675 175.403 167.757 171.881 167.519L171.746 169.514ZM179.422 174.259C180.589 175.793 181.693 177.681 182.728 179.932L184.545 179.097C183.464 176.744 182.289 174.724 181.013 173.048L179.422 174.259ZM182.729 179.935C183.773 182.187 184.827 184.373 185.893 186.491L187.679 185.592C186.624 183.494 185.579 181.328 184.544 179.094L182.729 179.935ZM185.907 186.518C187.047 188.624 188.337 190.332 189.791 191.609L191.111 190.107C189.878 189.023 188.725 187.521 187.665 185.565L185.907 186.518ZM189.827 191.64C191.513 192.984 193.529 193.242 195.722 192.541L195.113 190.636C193.45 191.167 192.155 190.938 191.075 190.076L189.827 191.64ZM195.722 192.541C197.915 191.84 199.407 190.46 200 188.387L198.077 187.837C197.697 189.166 196.776 190.104 195.113 190.636L195.722 192.541ZM200.005 188.369C200.516 186.448 200.574 184.289 200.218 181.915L198.24 182.211C198.566 184.384 198.497 186.258 198.072 187.855L200.005 188.369ZM200.221 181.936C199.917 179.557 199.505 177.149 198.986 174.711L197.03 175.128C197.538 177.513 197.94 179.867 198.238 182.19L200.221 181.936ZM198.99 174.733C198.527 172.299 198.332 170.121 198.392 168.193L196.393 168.13C196.327 170.236 196.542 172.563 197.026 175.107L198.99 174.733ZM198.392 168.208C198.569 164.347 199.783 161.629 201.897 159.872L200.618 158.334C197.95 160.552 196.588 163.874 196.394 168.116L198.392 168.208ZM201.911 159.86C204.079 157.989 206.525 157.211 209.307 157.492L209.508 155.502C206.168 155.165 203.18 156.124 200.604 158.345L201.911 159.86ZM209.299 157.491C211.997 157.786 214.184 159.095 215.899 161.502L217.528 160.342C215.506 157.505 212.822 155.864 209.516 155.503L209.299 157.491ZM215.903 161.507C217.561 163.805 218.207 166.889 217.693 170.886L219.676 171.141C220.234 166.81 219.567 163.167 217.525 160.337L215.903 161.507ZM217.693 170.885C217.427 172.937 216.854 175.004 215.968 177.088L217.809 177.871C218.76 175.633 219.385 173.389 219.676 171.142L217.693 170.885ZM215.967 177.091C215.097 179.154 214.099 181.325 212.972 183.604L214.765 184.49C215.907 182.18 216.922 179.973 217.81 177.868L215.967 177.091ZM212.972 183.604C211.822 185.933 210.74 188.464 209.726 191.195L211.601 191.891C212.594 189.216 213.649 186.75 214.765 184.49L212.972 183.604ZM209.731 191.183C208.681 193.9 207.892 196.887 207.358 200.139L209.331 200.463C209.846 197.328 210.603 194.476 211.596 191.903L209.731 191.183ZM207.392 200.606L212.183 215.591L214.088 214.981L209.297 199.997L207.392 200.606ZM212.183 215.591C212.864 217.721 212.651 219.693 211.548 221.581L213.275 222.59C214.669 220.203 214.939 217.642 214.088 214.981L212.183 215.591ZM211.548 221.581C210.439 223.48 208.714 224.826 206.292 225.6L206.901 227.505C209.736 226.599 211.888 224.966 213.275 222.59L211.548 221.581ZM206.292 225.6C203.934 226.354 201.741 226.265 199.663 225.37L198.871 227.206C201.425 228.307 204.118 228.395 206.901 227.505L206.292 225.6ZM199.678 225.376C197.684 224.478 196.367 222.995 195.686 220.865L193.781 221.474C194.631 224.135 196.337 226.064 198.857 227.2L199.678 225.376ZM195.686 220.865L190.895 205.88L188.99 206.489L193.781 221.474L195.686 220.865ZM190.664 205.493C188.398 203.13 186.047 201.141 183.611 199.534L182.509 201.203C184.806 202.719 187.044 204.608 189.221 206.877L190.664 205.493ZM183.622 199.541C181.212 197.904 178.862 196.471 176.574 195.241L175.627 197.003C177.848 198.196 180.138 199.593 182.498 201.196L183.622 199.541ZM176.574 195.241C174.329 194.036 172.222 192.853 170.251 191.691L169.236 193.414C171.232 194.59 173.362 195.787 175.627 197.003L176.574 195.241ZM170.266 191.7C168.335 190.517 166.669 189.165 165.262 187.648L163.796 189.008C165.337 190.669 167.147 192.134 169.221 193.405L170.266 191.7ZM258.347 181.513L258.019 182.458L258.027 182.461L258.035 182.463L258.347 181.513ZM256.386 163.596L255.582 163L255.577 163.007L255.572 163.014L256.386 163.596ZM263.177 155.532L263.893 156.23L263.898 156.225L263.177 155.532ZM268.629 147.511L267.74 147.053L267.728 147.077L267.716 147.101L268.629 147.511ZM269.313 143.912L270.293 143.714L270.292 143.708L269.313 143.912ZM267.537 141.679L267.161 142.605L267.179 142.613L267.197 142.619L267.537 141.679ZM264.74 141.993L265.197 142.883L265.22 142.871L265.244 142.857L264.74 141.993ZM262.233 144.726L263.079 145.259L263.102 145.223L263.122 145.185L262.233 144.726ZM260.413 148.399L259.468 148.071L259.468 148.071L260.413 148.399ZM259.231 152.254L260.19 152.536L260.193 152.527L260.195 152.518L259.231 152.254ZM256.18 159.025L257.036 159.541L257.037 159.54L256.18 159.025ZM242.597 163.368L242.139 164.257L242.154 164.265L242.17 164.272L242.597 163.368ZM238.283 149.873L237.356 149.497L237.355 149.5L238.283 149.873ZM243.931 142.465L243.289 141.698L243.284 141.702L243.931 142.465ZM271.124 136.282L270.718 137.196L270.727 137.2L270.736 137.204L271.124 136.282ZM279.78 153.991L280.738 154.278L280.741 154.266L279.78 153.991ZM274.611 162.598L273.842 161.958L273.835 161.968L274.611 162.598ZM271.996 167.104L271.037 166.818L271.034 166.829L271.996 167.104ZM260.024 191.892L259.142 191.42L260.024 191.892ZM275.885 186.821L275.426 187.709L275.433 187.713L275.44 187.716L275.885 186.821ZM264.699 206.817L264.254 207.713L264.262 207.716L264.269 207.72L264.699 206.817ZM265.203 180.3C262.659 181.113 260.495 181.166 258.659 180.563L258.035 182.463C260.372 183.231 262.982 183.11 265.812 182.205L265.203 180.3ZM258.675 180.568C256.99 179.984 255.804 178.734 255.137 176.648L253.232 177.257C254.059 179.844 255.649 181.635 258.019 182.458L258.675 180.568ZM255.137 176.648C253.724 172.227 254.396 168.102 257.199 164.177L255.572 163.014C252.415 167.434 251.619 172.213 253.232 177.257L255.137 176.648ZM257.189 164.191C259.415 161.184 261.65 158.532 263.893 156.23L262.46 154.834C260.146 157.21 257.853 159.933 255.582 163L257.189 164.191ZM263.898 156.225C266.293 153.73 268.176 150.962 269.541 147.921L267.716 147.101C266.449 149.925 264.698 152.504 262.455 154.84L263.898 156.225ZM269.518 147.969C270.263 146.523 270.57 145.089 270.293 143.714L268.333 144.109C268.495 144.912 268.346 145.878 267.74 147.053L269.518 147.969ZM270.292 143.708C269.997 142.287 269.208 141.218 267.876 140.738L267.197 142.619C267.758 142.821 268.153 143.242 268.334 144.115L270.292 143.708ZM267.913 140.752C266.684 140.254 265.426 140.435 264.236 141.13L265.244 142.857C266.007 142.412 266.614 142.383 267.161 142.605L267.913 140.752ZM264.283 141.104C263.051 141.737 262.085 142.831 261.344 144.268L263.122 145.185C263.732 144.001 264.437 143.273 265.197 142.883L264.283 141.104ZM261.386 144.194C260.544 145.533 259.9 146.826 259.468 148.071L261.358 148.727C261.73 147.655 262.299 146.499 263.079 145.259L261.386 144.194ZM259.468 148.071C259.058 149.255 258.657 150.562 258.266 151.991L260.195 152.518C260.577 151.124 260.964 149.861 261.358 148.727L259.468 148.071ZM258.271 151.972C257.651 154.081 256.672 156.261 255.322 158.511L257.037 159.54C258.46 157.168 259.515 154.834 260.19 152.536L258.271 151.972ZM255.323 158.509C254.097 160.543 252.418 161.882 250.263 162.571L250.872 164.476C253.507 163.634 255.57 161.974 257.036 159.541L255.323 158.509ZM250.263 162.571C247.399 163.487 245.015 163.404 243.025 162.464L242.17 164.272C244.731 165.482 247.66 165.503 250.872 164.476L250.263 162.571ZM243.055 162.479C241.1 161.471 239.674 159.703 238.823 157.041L236.918 157.65C237.897 160.712 239.622 162.959 242.139 164.257L243.055 162.479ZM238.823 157.041C238.136 154.892 238.247 152.641 239.21 150.246L237.355 149.5C236.238 152.277 236.074 155.008 236.918 157.65L238.823 157.041ZM239.209 150.249C240.217 147.765 241.988 145.422 244.577 143.228L243.284 141.702C240.503 144.058 238.509 146.654 237.356 149.497L239.209 150.249ZM244.572 143.232C247.198 141.037 250.522 139.282 254.573 137.987L253.964 136.082C249.719 137.439 246.151 139.305 243.289 141.698L244.572 143.232ZM254.573 137.987C261.676 135.716 267.003 135.549 270.718 137.196L271.529 135.368C267.142 133.423 261.232 133.758 253.964 136.082L254.573 137.987ZM270.736 137.204C274.555 138.808 277.077 141.572 278.353 145.561L280.258 144.952C278.806 140.412 275.874 137.193 271.511 135.36L270.736 137.204ZM278.353 145.561C279.356 148.699 279.48 151.403 278.818 153.716L280.741 154.266C281.539 151.476 281.346 148.357 280.258 144.952L278.353 145.561ZM278.822 153.703C278.129 156.012 276.501 158.761 273.842 161.958L275.38 163.237C278.117 159.945 279.934 156.956 280.738 154.278L278.822 153.703ZM273.835 161.968C272.451 163.675 271.494 165.293 271.038 166.818L272.954 167.391C273.307 166.21 274.093 164.824 275.388 163.228L273.835 161.968ZM271.034 166.829C270.607 168.323 270.679 169.895 271.196 171.513L273.101 170.904C272.685 169.602 272.655 168.437 272.957 167.379L271.034 166.829ZM271.196 171.513C271.863 173.599 271.622 175.305 270.589 176.759L272.219 177.918C273.673 175.872 273.929 173.492 273.101 170.904L271.196 171.513ZM270.589 176.759C269.505 178.284 267.749 179.486 265.203 180.3L265.812 182.205C268.641 181.3 270.816 179.892 272.219 177.918L270.589 176.759ZM260.406 200.076C259.488 197.204 259.679 194.658 260.906 192.363L259.142 191.42C257.629 194.251 257.44 197.365 258.501 200.685L260.406 200.076ZM260.906 192.363C262.127 190.079 264.266 188.398 267.466 187.375L266.856 185.47C263.279 186.614 260.66 188.579 259.142 191.42L260.906 192.363ZM267.466 187.375C270.538 186.392 273.164 186.543 275.426 187.709L276.343 185.932C273.517 184.475 270.327 184.36 266.856 185.47L267.466 187.375ZM275.44 187.716C277.686 188.83 279.284 190.768 280.205 193.649L282.11 193.04C281.052 189.729 279.135 187.317 276.329 185.925L275.44 187.716ZM280.205 193.649C281.109 196.475 280.95 198.948 279.818 201.144L281.596 202.06C283.008 199.322 283.149 196.29 282.11 193.04L280.205 193.649ZM279.818 201.144C278.7 203.314 276.623 204.949 273.413 205.975L274.022 207.88C277.588 206.74 280.171 204.824 281.596 202.06L279.818 201.144ZM273.413 205.975C270.069 207.044 267.34 206.968 265.129 205.914L264.269 207.72C267.072 209.055 270.355 209.053 274.022 207.88L273.413 205.975ZM265.143 205.921C262.893 204.804 261.307 202.893 260.406 200.076L258.501 200.685C259.543 203.943 261.454 206.323 264.254 207.713L265.143 205.921Z" fill="black" mask="url(#path-3-outside-2_2004_4)"/>
</g>
<defs>
<filter id="filter0_d_2004_4" x="1.07202" y="28.822" width="261.499" height="52.647" filterUnits="userSpaceOnUse" color-interpolation-filters="sRGB">
<feFlood flood-opacity="0" result="BackgroundImageFix"/>
<feColorMatrix in="SourceAlpha" type="matrix" values="0 0 0 0 0 0 0 0 0 0 0 0 0 0 0 0 0 0 127 0" result="hardAlpha"/>
<feOffset dy="3"/>
<feComposite in2="hardAlpha" operator="out"/>
<feColorMatrix type="matrix" values="0 0 0 0 0 0 0 0 0 0 0 0 0 0 0 0 0 0 1 0"/>
<feBlend mode="normal" in2="BackgroundImageFix" result="effect1_dropShadow_2004_4"/>
<feBlend mode="normal" in="SourceGraphic" in2="effect1_dropShadow_2004_4" result="shape"/>
</filter>
<filter id="filter1_d_2004_4" x="11.8289" y="130.535" width="284.847" height="156.066" filterUnits="userSpaceOnUse" color-interpolation-filters="sRGB">
<feFlood flood-opacity="0" result="BackgroundImageFix"/>
<feColorMatrix in="SourceAlpha" type="matrix" values="0 0 0 0 0 0 0 0 0 0 0 0 0 0 0 0 0 0 127 0" result="hardAlpha"/>
<feOffset dy="3"/>
<feComposite in2="hardAlpha" operator="out"/>
<feColorMatrix type="matrix" values="0 0 0 0 0 0 0 0 0 0 0 0 0 0 0 0 0 0 1 0"/>
<feBlend mode="normal" in2="BackgroundImageFix" result="effect1_dropShadow_2004_4"/>
<feBlend mode="normal" in="SourceGraphic" in2="effect1_dropShadow_2004_4" result="shape"/>
</filter>
</defs>
</svg>
