<svg width="393" height="307" viewBox="0 0 393 307" fill="none" xmlns="http://www.w3.org/2000/svg">
<g filter="url(#filter0_d_2004_4)">
<mask id="path-1-outside-1_2004_4" maskUnits="userSpaceOnUse" x="0" y="27" width="264" height="53" fill="black">
<rect fill="white" y="27" width="264" height="53"/>
<path d="M21.038 78.201C18.3133 78.201 16.1693 77.531 14.606 76.191C13.0427 74.851 11.792 73.0197 10.854 70.697C9.96067 68.3297 9.112 65.6497 8.308 62.657L1.809 38.537C1.31767 36.661 1.42933 34.919 2.144 33.311C2.85867 31.6583 4.26567 30.564 6.365 30.028C8.33033 29.492 10.0723 29.626 11.591 30.43C13.1097 31.234 14.137 32.641 14.673 34.651L20.703 56.694C21.239 58.6147 21.7973 60.0217 22.378 60.915C23.0033 61.8083 23.986 62.0987 25.326 61.786C26.5767 61.4733 27.2467 60.781 27.336 59.709C27.4253 58.637 27.202 57.1183 26.666 55.153L22.378 38.872C21.7973 36.6387 21.8643 34.718 22.579 33.11C23.3383 31.4573 24.8123 30.3853 27.001 29.894C29.2343 29.358 31.021 29.6483 32.361 30.765C33.7457 31.837 34.6837 33.3557 35.175 35.321L40.602 56.694C41.1827 58.8827 41.808 60.3567 42.478 61.116C43.1927 61.8753 44.1083 62.0987 45.225 61.786C46.4757 61.4287 47.0787 60.7363 47.034 59.709C46.9893 58.637 46.833 57.096 46.565 55.086C46.163 51.9593 45.8057 49.391 45.493 47.381C45.225 45.371 45.0017 43.696 44.823 42.356C44.689 41.016 44.622 39.7877 44.622 38.671C44.622 36.1697 45.359 34.048 46.833 32.306C48.307 30.5193 50.317 29.626 52.863 29.626C55.4537 29.626 57.419 30.43 58.759 32.038C60.099 33.6013 60.769 35.7677 60.769 38.537C60.769 40.3237 60.501 42.1997 59.965 44.165C59.4737 46.1303 58.9823 47.984 58.491 49.726L54.739 62.657C53.8903 65.605 53.0417 68.2627 52.193 70.63C51.389 72.9527 50.2947 74.8063 48.91 76.191C47.5253 77.531 45.56 78.201 43.014 78.201C39.932 78.201 37.52 77.2407 35.778 75.32C34.036 73.3993 32.696 70.2503 31.758 65.873H31.289C30.3957 70.2503 29.212 73.3993 27.738 75.32C26.264 77.2407 24.0307 78.201 21.038 78.201ZM71.5351 77.799C69.4804 77.799 67.7831 77.1737 66.4431 75.923C65.1031 74.6723 64.4331 73.0867 64.4331 71.166V35.723C64.4331 33.7577 65.0807 32.1273 66.3761 30.832C67.6714 29.492 69.3687 28.822 71.4681 28.822C73.7014 28.822 75.4434 29.492 76.6941 30.832C77.9447 32.1273 78.5701 33.713 78.5701 35.589V47.984H91.0321V35.723C91.0321 33.7577 91.6797 32.1273 92.9751 30.832C94.2704 29.492 96.0124 28.822 98.2011 28.822C100.39 28.822 102.109 29.492 103.36 30.832C104.611 32.1273 105.236 33.713 105.236 35.589V71.166C105.236 73.0867 104.566 74.6723 103.226 75.923C101.931 77.1737 100.3 77.799 98.3351 77.799C96.1911 77.799 94.4267 77.1737 93.0421 75.923C91.7021 74.6723 91.0321 73.0867 91.0321 71.166V57.833H78.5701V71.166C78.5701 73.0867 77.9001 74.6723 76.5601 75.923C75.2647 77.1737 73.5897 77.799 71.5351 77.799ZM113.894 78C110.902 77.5533 108.959 76.191 108.065 73.913C107.172 71.5903 107.351 68.6647 108.601 65.136L117.445 40.011C118.249 37.6883 119.165 35.7007 120.192 34.048C121.264 32.3953 122.582 31.1223 124.145 30.229C125.753 29.3357 127.741 28.889 130.108 28.889C133.682 28.889 136.362 29.8717 138.148 31.837C139.98 33.8023 141.498 36.527 142.704 40.011L151.481 65.136C152.732 68.6647 152.955 71.5903 152.151 73.913C151.392 76.191 149.494 77.5533 146.456 78C144 78.3127 141.856 78.0223 140.024 77.129C138.238 76.2357 137.166 74.784 136.808 72.774C136.54 71.434 136.496 70.3173 136.674 69.424C136.898 68.5307 137.099 67.816 137.277 67.28C137.411 66.8333 137.411 66.409 137.277 66.007C137.188 65.5603 136.853 65.337 136.272 65.337H123.81C123.23 65.337 122.872 65.5603 122.738 66.007C122.649 66.409 122.694 66.8333 122.872 67.28C123.051 67.816 123.23 68.5307 123.408 69.424C123.587 70.3173 123.565 71.434 123.341 72.774C122.984 74.784 121.934 76.2357 120.192 77.129C118.45 78.0223 116.351 78.3127 113.894 78ZM134.999 55.957L131.515 45.036C131.426 44.5893 131.27 44.2543 131.046 44.031C130.868 43.763 130.555 43.629 130.108 43.629C129.662 43.629 129.327 43.763 129.103 44.031C128.925 44.2543 128.768 44.5893 128.634 45.036L125.217 55.957H134.999ZM153.101 44.098C150.867 44.098 149.036 43.4503 147.607 42.155C146.222 40.8597 145.53 39.073 145.53 36.795C145.53 34.5617 146.155 32.775 147.406 31.435C148.701 30.0503 150.599 29.358 153.101 29.358H181.978C184.479 29.358 186.355 30.0503 187.606 31.435C188.901 32.775 189.549 34.5617 189.549 36.795C189.549 39.073 188.834 40.8597 187.405 42.155C186.02 43.4503 184.211 44.098 181.978 44.098C180.459 44.098 179.231 43.9417 178.293 43.629C177.399 43.2717 176.662 42.8697 176.082 42.423C175.501 41.9317 174.943 41.5297 174.407 41.217C173.871 40.8597 173.201 40.681 172.397 40.681L171.794 41.887C171.972 42.289 172.285 42.8697 172.732 43.629C173.178 44.3437 173.603 45.3933 174.005 46.778C174.407 48.118 174.608 49.9493 174.608 52.272V71.635C174.608 73.4663 173.915 74.985 172.531 76.191C171.191 77.397 169.538 78 167.573 78C165.563 78 163.865 77.397 162.481 76.191C161.141 74.985 160.471 73.4663 160.471 71.635V52.272C160.471 49.9493 160.672 48.118 161.074 46.778C161.476 45.3933 161.9 44.3437 162.347 43.629C162.838 42.8697 163.173 42.289 163.352 41.887L162.682 40.681C161.878 40.681 161.208 40.8597 160.672 41.217C160.136 41.5297 159.577 41.9317 158.997 42.423C158.416 42.8697 157.679 43.2717 156.786 43.629C155.892 43.9417 154.664 44.098 153.101 44.098ZM211.29 78.134C209.235 78.134 207.56 77.5087 206.265 76.258C204.969 75.0073 204.322 73.4217 204.322 71.501V36.058C204.322 34.0927 204.947 32.44 206.198 31.1C207.493 29.76 209.19 29.09 211.29 29.09C213.523 29.09 215.265 29.76 216.516 31.1C217.811 32.3953 218.459 34.0033 218.459 35.924V71.501C218.459 73.4217 217.766 75.0073 216.382 76.258C215.042 77.5087 213.344 78.134 211.29 78.134ZM243.409 78.201C240.908 78.201 238.384 77.9553 235.838 77.464C233.337 76.928 231.014 76.1687 228.87 75.186C226.771 74.1587 225.073 72.9303 223.778 71.501C222.483 70.027 221.835 68.3297 221.835 66.409C221.835 63.9523 222.617 61.987 224.18 60.513C225.743 59.039 227.575 58.3467 229.674 58.436C231.327 58.4807 232.979 58.838 234.632 59.508C236.285 60.1333 237.96 60.7587 239.657 61.384C241.399 62.0093 243.141 62.322 244.883 62.322C246.625 62.322 247.831 62.0987 248.501 61.652C249.171 61.2053 249.506 60.6023 249.506 59.843C249.506 58.9497 249.037 58.2127 248.099 57.632C247.161 57.0513 245.977 56.6047 244.548 56.292L241.265 55.488C237.87 54.684 234.833 53.7907 232.153 52.808C229.473 51.7807 227.351 50.4407 225.788 48.788C224.269 47.0907 223.51 44.835 223.51 42.021C223.51 38.939 224.359 36.4377 226.056 34.517C227.753 32.5517 230.054 31.1223 232.957 30.229C235.86 29.3357 239.099 28.889 242.672 28.889C246.335 28.889 249.551 29.2687 252.32 30.028C255.089 30.7873 257.233 31.8817 258.752 33.311C260.315 34.7403 261.097 36.4823 261.097 38.537C261.097 40.7257 260.494 42.4453 259.288 43.696C258.127 44.902 256.563 45.505 254.598 45.505C253.303 45.505 251.94 45.2817 250.511 44.835C249.126 44.3883 247.652 43.964 246.089 43.562C244.57 43.1153 242.94 42.892 241.198 42.892C239.635 42.892 238.451 43.1377 237.647 43.629C236.843 44.0757 236.441 44.6787 236.441 45.438C236.441 46.376 236.977 47.0683 238.049 47.515C239.121 47.9617 240.885 48.4977 243.342 49.123L247.094 49.994C250.176 50.7533 252.878 51.669 255.201 52.741C257.524 53.813 259.333 55.22 260.628 56.962C261.923 58.704 262.571 60.982 262.571 63.796C262.571 67.1907 261.767 69.96 260.159 72.104C258.551 74.2033 256.318 75.7443 253.459 76.727C250.6 77.7097 247.25 78.201 243.409 78.201Z"/>
</mask>
<path d="M21.038 78.201C18.3133 78.201 16.1693 77.531 14.606 76.191C13.0427 74.851 11.792 73.0197 10.854 70.697C9.96067 68.3297 9.112 65.6497 8.308 62.657L1.809 38.537C1.31767 36.661 1.42933 34.919 2.144 33.311C2.85867 31.6583 4.26567 30.564 6.365 30.028C8.33033 29.492 10.0723 29.626 11.591 30.43C13.1097 31.234 14.137 32.641 14.673 34.651L20.703 56.694C21.239 58.6147 21.7973 60.0217 22.378 60.915C23.0033 61.8083 23.986 62.0987 25.326 61.786C26.5767 61.4733 27.2467 60.781 27.336 59.709C27.4253 58.637 27.202 57.1183 26.666 55.153L22.378 38.872C21.7973 36.6387 21.8643 34.718 22.579 33.11C23.3383 31.4573 24.8123 30.3853 27.001 29.894C29.2343 29.358 31.021 29.6483 32.361 30.765C33.7457 31.837 34.6837 33.3557 35.175 35.321L40.602 56.694C41.1827 58.8827 41.808 60.3567 42.478 61.116C43.1927 61.8753 44.1083 62.0987 45.225 61.786C46.4757 61.4287 47.0787 60.7363 47.034 59.709C46.9893 58.637 46.833 57.096 46.565 55.086C46.163 51.9593 45.8057 49.391 45.493 47.381C45.225 45.371 45.0017 43.696 44.823 42.356C44.689 41.016 44.622 39.7877 44.622 38.671C44.622 36.1697 45.359 34.048 46.833 32.306C48.307 30.5193 50.317 29.626 52.863 29.626C55.4537 29.626 57.419 30.43 58.759 32.038C60.099 33.6013 60.769 35.7677 60.769 38.537C60.769 40.3237 60.501 42.1997 59.965 44.165C59.4737 46.1303 58.9823 47.984 58.491 49.726L54.739 62.657C53.8903 65.605 53.0417 68.2627 52.193 70.63C51.389 72.9527 50.2947 74.8063 48.91 76.191C47.5253 77.531 45.56 78.201 43.014 78.201C39.932 78.201 37.52 77.2407 35.778 75.32C34.036 73.3993 32.696 70.2503 31.758 65.873H31.289C30.3957 70.2503 29.212 73.3993 27.738 75.32C26.264 77.2407 24.0307 78.201 21.038 78.201ZM71.5351 77.799C69.4804 77.799 67.7831 77.1737 66.4431 75.923C65.1031 74.6723 64.4331 73.0867 64.4331 71.166V35.723C64.4331 33.7577 65.0807 32.1273 66.3761 30.832C67.6714 29.492 69.3687 28.822 71.4681 28.822C73.7014 28.822 75.4434 29.492 76.6941 30.832C77.9447 32.1273 78.5701 33.713 78.5701 35.589V47.984H91.0321V35.723C91.0321 33.7577 91.6797 32.1273 92.9751 30.832C94.2704 29.492 96.0124 28.822 98.2011 28.822C100.39 28.822 102.109 29.492 103.36 30.832C104.611 32.1273 105.236 33.713 105.236 35.589V71.166C105.236 73.0867 104.566 74.6723 103.226 75.923C101.931 77.1737 100.3 77.799 98.3351 77.799C96.1911 77.799 94.4267 77.1737 93.0421 75.923C91.7021 74.6723 91.0321 73.0867 91.0321 71.166V57.833H78.5701V71.166C78.5701 73.0867 77.9001 74.6723 76.5601 75.923C75.2647 77.1737 73.5897 77.799 71.5351 77.799ZM113.894 78C110.902 77.5533 108.959 76.191 108.065 73.913C107.172 71.5903 107.351 68.6647 108.601 65.136L117.445 40.011C118.249 37.6883 119.165 35.7007 120.192 34.048C121.264 32.3953 122.582 31.1223 124.145 30.229C125.753 29.3357 127.741 28.889 130.108 28.889C133.682 28.889 136.362 29.8717 138.148 31.837C139.98 33.8023 141.498 36.527 142.704 40.011L151.481 65.136C152.732 68.6647 152.955 71.5903 152.151 73.913C151.392 76.191 149.494 77.5533 146.456 78C144 78.3127 141.856 78.0223 140.024 77.129C138.238 76.2357 137.166 74.784 136.808 72.774C136.54 71.434 136.496 70.3173 136.674 69.424C136.898 68.5307 137.099 67.816 137.277 67.28C137.411 66.8333 137.411 66.409 137.277 66.007C137.188 65.5603 136.853 65.337 136.272 65.337H123.81C123.23 65.337 122.872 65.5603 122.738 66.007C122.649 66.409 122.694 66.8333 122.872 67.28C123.051 67.816 123.23 68.5307 123.408 69.424C123.587 70.3173 123.565 71.434 123.341 72.774C122.984 74.784 121.934 76.2357 120.192 77.129C118.45 78.0223 116.351 78.3127 113.894 78ZM134.999 55.957L131.515 45.036C131.426 44.5893 131.27 44.2543 131.046 44.031C130.868 43.763 130.555 43.629 130.108 43.629C129.662 43.629 129.327 43.763 129.103 44.031C128.925 44.2543 128.768 44.5893 128.634 45.036L125.217 55.957H134.999ZM153.101 44.098C150.867 44.098 149.036 43.4503 147.607 42.155C146.222 40.8597 145.53 39.073 145.53 36.795C145.53 34.5617 146.155 32.775 147.406 31.435C148.701 30.0503 150.599 29.358 153.101 29.358H181.978C184.479 29.358 186.355 30.0503 187.606 31.435C188.901 32.775 189.549 34.5617 189.549 36.795C189.549 39.073 188.834 40.8597 187.405 42.155C186.02 43.4503 184.211 44.098 181.978 44.098C180.459 44.098 179.231 43.9417 178.293 43.629C177.399 43.2717 176.662 42.8697 176.082 42.423C175.501 41.9317 174.943 41.5297 174.407 41.217C173.871 40.8597 173.201 40.681 172.397 40.681L171.794 41.887C171.972 42.289 172.285 42.8697 172.732 43.629C173.178 44.3437 173.603 45.3933 174.005 46.778C174.407 48.118 174.608 49.9493 174.608 52.272V71.635C174.608 73.4663 173.915 74.985 172.531 76.191C171.191 77.397 169.538 78 167.573 78C165.563 78 163.865 77.397 162.481 76.191C161.141 74.985 160.471 73.4663 160.471 71.635V52.272C160.471 49.9493 160.672 48.118 161.074 46.778C161.476 45.3933 161.9 44.3437 162.347 43.629C162.838 42.8697 163.173 42.289 163.352 41.887L162.682 40.681C161.878 40.681 161.208 40.8597 160.672 41.217C160.136 41.5297 159.577 41.9317 158.997 42.423C158.416 42.8697 157.679 43.2717 156.786 43.629C155.892 43.9417 154.664 44.098 153.101 44.098ZM211.29 78.134C209.235 78.134 207.56 77.5087 206.265 76.258C204.969 75.0073 204.322 73.4217 204.322 71.501V36.058C204.322 34.0927 204.947 32.44 206.198 31.1C207.493 29.76 209.19 29.09 211.29 29.09C213.523 29.09 215.265 29.76 216.516 31.1C217.811 32.3953 218.459 34.0033 218.459 35.924V71.501C218.459 73.4217 217.766 75.0073 216.382 76.258C215.042 77.5087 213.344 78.134 211.29 78.134ZM243.409 78.201C240.908 78.201 238.384 77.9553 235.838 77.464C233.337 76.928 231.014 76.1687 228.87 75.186C226.771 74.1587 225.073 72.9303 223.778 71.501C222.483 70.027 221.835 68.3297 221.835 66.409C221.835 63.9523 222.617 61.987 224.18 60.513C225.743 59.039 227.575 58.3467 229.674 58.436C231.327 58.4807 232.979 58.838 234.632 59.508C236.285 60.1333 237.96 60.7587 239.657 61.384C241.399 62.0093 243.141 62.322 244.883 62.322C246.625 62.322 247.831 62.0987 248.501 61.652C249.171 61.2053 249.506 60.6023 249.506 59.843C249.506 58.9497 249.037 58.2127 248.099 57.632C247.161 57.0513 245.977 56.6047 244.548 56.292L241.265 55.488C237.87 54.684 234.833 53.7907 232.153 52.808C229.473 51.7807 227.351 50.4407 225.788 48.788C224.269 47.0907 223.51 44.835 223.51 42.021C223.51 38.939 224.359 36.4377 226.056 34.517C227.753 32.5517 230.054 31.1223 232.957 30.229C235.86 29.3357 239.099 28.889 242.672 28.889C246.335 28.889 249.551 29.2687 252.32 30.028C255.089 30.7873 257.233 31.8817 258.752 33.311C260.315 34.7403 261.097 36.4823 261.097 38.537C261.097 40.7257 260.494 42.4453 259.288 43.696C258.127 44.902 256.563 45.505 254.598 45.505C253.303 45.505 251.94 45.2817 250.511 44.835C249.126 44.3883 247.652 43.964 246.089 43.562C244.57 43.1153 242.94 42.892 241.198 42.892C239.635 42.892 238.451 43.1377 237.647 43.629C236.843 44.0757 236.441 44.6787 236.441 45.438C236.441 46.376 236.977 47.0683 238.049 47.515C239.121 47.9617 240.885 48.4977 243.342 49.123L247.094 49.994C250.176 50.7533 252.878 51.669 255.201 52.741C257.524 53.813 259.333 55.22 260.628 56.962C261.923 58.704 262.571 60.982 262.571 63.796C262.571 67.1907 261.767 69.96 260.159 72.104C258.551 74.2033 256.318 75.7443 253.459 76.727C250.6 77.7097 247.25 78.201 243.409 78.201Z" fill="white"/>
<path d="M14.606 76.191L13.9552 76.9503L13.9552 76.9503L14.606 76.191ZM10.854 70.697L9.9184 71.0501L9.92246 71.0608L9.92676 71.0715L10.854 70.697ZM8.308 62.657L9.27376 62.3975L9.27356 62.3968L8.308 62.657ZM1.809 38.537L0.841604 38.7904L0.843436 38.7972L1.809 38.537ZM2.144 33.311L3.05786 33.7172L3.06186 33.7079L2.144 33.311ZM6.365 30.028L6.61238 30.9969L6.62027 30.9949L6.62812 30.9928L6.365 30.028ZM11.591 30.43L11.1231 31.3138L11.1231 31.3138L11.591 30.43ZM14.673 34.651L13.7067 34.9087L13.7084 34.9149L14.673 34.651ZM20.703 56.694L19.7384 56.9579L19.7398 56.9628L20.703 56.694ZM22.378 60.915L21.5396 61.46L21.5489 61.4744L21.5588 61.4885L22.378 60.915ZM25.326 61.786L25.5532 62.7598L25.5609 62.7581L25.5685 62.7561L25.326 61.786ZM27.336 59.709L28.3325 59.792L28.3325 59.792L27.336 59.709ZM26.666 55.153L25.6989 55.4077L25.7012 55.4161L26.666 55.153ZM22.378 38.872L21.4102 39.1236L21.411 39.1267L22.378 38.872ZM22.579 33.11L21.6703 32.6925L21.6652 32.7039L22.579 33.11ZM27.001 29.894L27.22 30.8697L27.2272 30.8681L27.2344 30.8664L27.001 29.894ZM32.361 30.765L31.7208 31.5332L31.7346 31.5447L31.7488 31.5557L32.361 30.765ZM35.175 35.321L34.2049 35.5635L34.2058 35.5671L35.175 35.321ZM40.602 56.694L39.6327 56.9401L39.6354 56.9504L40.602 56.694ZM42.478 61.116L41.7282 61.7776L41.7388 61.7897L41.7498 61.8014L42.478 61.116ZM45.225 61.786L45.4946 62.749L45.4997 62.7475L45.225 61.786ZM47.034 59.709L46.0349 59.7506L46.0349 59.7524L47.034 59.709ZM46.565 55.086L45.5732 55.2135L45.5738 55.2182L46.565 55.086ZM45.493 47.381L44.5018 47.5132L44.5032 47.524L44.5049 47.5347L45.493 47.381ZM44.823 42.356L43.828 42.4555L43.8296 42.4719L43.8318 42.4882L44.823 42.356ZM46.833 32.306L47.5964 32.952L47.6044 32.9424L46.833 32.306ZM58.759 32.038L57.9907 32.6782L57.9997 32.6888L58.759 32.038ZM59.965 44.165L59.0002 43.9019L58.9974 43.9121L58.9949 43.9225L59.965 44.165ZM58.491 49.726L59.4514 50.0047L59.4535 49.9975L58.491 49.726ZM54.739 62.657L53.7786 62.3783L53.778 62.3804L54.739 62.657ZM52.193 70.63L51.2516 70.2925L51.248 70.3029L52.193 70.63ZM48.91 76.191L49.6054 76.9096L49.6113 76.9039L49.6171 76.8981L48.91 76.191ZM35.778 75.32L36.5187 74.6482L36.5187 74.6482L35.778 75.32ZM31.758 65.873L32.7358 65.6635L32.5664 64.873H31.758V65.873ZM31.289 65.873V64.873H30.4725L30.3092 65.673L31.289 65.873ZM27.738 75.32L28.5313 75.9288L28.5313 75.9288L27.738 75.32ZM21.038 77.201C18.4739 77.201 16.5873 76.5721 15.2568 75.4317L13.9552 76.9503C15.7514 78.4899 18.1528 79.201 21.038 79.201V77.201ZM15.2568 75.4317C13.8387 74.2162 12.6721 72.5284 11.7812 70.3225L9.92676 71.0715C10.9119 73.5109 12.2466 75.4858 13.9552 76.9503L15.2568 75.4317ZM11.7896 70.3439C10.9101 68.0132 10.0711 65.3653 9.27376 62.3975L7.34225 62.9165C8.15295 65.9341 9.01126 68.6461 9.9184 71.0501L11.7896 70.3439ZM9.27356 62.3968L2.77456 38.2768L0.843436 38.7972L7.34244 62.9172L9.27356 62.3968ZM2.77637 38.2836C2.3363 36.6034 2.44485 35.0963 3.05781 33.7171L1.23019 32.9049C0.41382 34.7417 0.299036 36.7186 0.841628 38.7904L2.77637 38.2836ZM3.06186 33.7079C3.62819 32.3983 4.74491 31.4737 6.61238 30.9969L6.11762 29.0591C3.78642 29.6543 2.08915 30.9184 1.22614 32.9141L3.06186 33.7079ZM6.62812 30.9928C8.39672 30.5104 9.86969 30.6502 11.1231 31.3138L12.0589 29.5462C10.275 28.6018 8.26395 28.4736 6.10188 29.0632L6.62812 30.9928ZM11.1231 31.3138C12.3449 31.9606 13.2262 33.1064 13.7068 34.9087L15.6392 34.3933C15.0478 32.1756 13.8745 30.5074 12.0589 29.5462L11.1231 31.3138ZM13.7084 34.9149L19.7384 56.9579L21.6676 56.4301L15.6376 34.3871L13.7084 34.9149ZM19.7398 56.9628C20.2837 58.9118 20.8745 60.4369 21.5396 61.46L23.2164 60.37C22.7201 59.6065 22.1943 58.3175 21.6662 56.4252L19.7398 56.9628ZM21.5588 61.4885C21.9923 62.1078 22.5777 62.5482 23.3007 62.7618C24.0054 62.97 24.7703 62.9425 25.5532 62.7598L25.0988 60.8122C24.5417 60.9421 24.1453 60.9259 23.8673 60.8437C23.6076 60.767 23.389 60.6155 23.1972 60.3415L21.5588 61.4885ZM25.5685 62.7561C26.3155 62.5694 26.9832 62.2463 27.4851 61.7277C27.9995 61.1961 28.2711 60.5296 28.3325 59.792L26.3395 59.626C26.3116 59.9604 26.2035 60.176 26.0479 60.3368C25.8798 60.5106 25.5871 60.6899 25.0835 60.8159L25.5685 62.7561ZM28.3325 59.792C28.4368 58.5416 28.1751 56.8858 27.6308 54.8899L25.7012 55.4161C26.2289 57.3509 26.4139 58.7324 26.3395 59.626L28.3325 59.792ZM27.633 54.8983L23.345 38.6173L21.411 39.1267L25.699 55.4077L27.633 54.8983ZM23.3458 38.6204C22.8043 36.5374 22.8952 34.8607 23.4928 33.5161L21.6652 32.7039C20.8334 34.5753 20.7904 36.7399 21.4102 39.1236L23.3458 38.6204ZM23.4877 33.5275C24.0864 32.2245 25.2568 31.3104 27.22 30.8697L26.782 28.9183C24.3678 29.4602 22.5903 30.6902 21.6703 32.6925L23.4877 33.5275ZM27.2344 30.8664C29.2667 30.3786 30.6965 30.6796 31.7208 31.5332L33.0012 29.9968C31.3455 28.617 29.202 28.3374 26.7676 28.9216L27.2344 30.8664ZM31.7488 31.5557C32.929 32.4694 33.759 33.7802 34.2049 35.5635L36.1451 35.0785C35.6083 32.9311 34.5624 31.2046 32.9732 29.9743L31.7488 31.5557ZM34.2058 35.5671L39.6328 56.9401L41.5712 56.4479L36.1442 35.0749L34.2058 35.5671ZM39.6354 56.9504C40.2184 59.1476 40.8896 60.8272 41.7282 61.7776L43.2278 60.4544C42.7264 59.8861 42.147 58.6178 41.5686 56.4376L39.6354 56.9504ZM41.7498 61.8014C42.2251 62.3064 42.7983 62.6622 43.4638 62.8245C44.1228 62.9852 44.8087 62.941 45.4946 62.749L44.9554 60.823C44.5246 60.9436 44.1944 60.9441 43.9377 60.8815C43.6876 60.8205 43.4455 60.6849 43.2062 60.4306L41.7498 61.8014ZM45.4997 62.7475C46.2369 62.5369 46.8983 62.1964 47.3693 61.6555C47.86 61.0922 48.0651 60.4021 48.0331 59.6656L46.0349 59.7524C46.0476 60.0433 45.9735 60.2129 45.8612 60.342C45.7292 60.4935 45.4638 60.6778 44.9503 60.8245L45.4997 62.7475ZM48.0331 59.6674C47.9865 58.5493 47.8254 56.9725 47.5562 54.9538L45.5738 55.2182C45.8406 57.2195 45.9921 58.7247 46.0349 59.7506L48.0331 59.6674ZM47.5568 54.9585C47.1543 51.8272 46.7957 49.2494 46.4811 47.2273L44.5049 47.5347C44.8157 49.5326 45.1718 52.0914 45.5732 55.2135L47.5568 54.9585ZM46.4842 47.2488C46.2162 45.2388 45.9929 43.5638 45.8142 42.2238L43.8318 42.4882C44.0104 43.8282 44.2338 45.5032 44.5018 47.5132L46.4842 47.2488ZM45.818 42.2565C45.6867 40.9431 45.622 39.7485 45.622 38.671H43.622C43.622 39.8268 43.6913 41.0889 43.828 42.4555L45.818 42.2565ZM45.622 38.671C45.622 36.3818 46.2902 34.4956 47.5964 32.9519L46.0696 31.6601C44.4278 33.6004 43.622 35.9575 43.622 38.671H45.622ZM47.6044 32.9424C48.868 31.4107 50.5819 30.626 52.863 30.626V28.626C50.0521 28.626 47.746 29.628 46.0616 31.6696L47.6044 32.9424ZM52.863 30.626C55.2339 30.626 56.8851 31.3514 57.9908 32.6782L59.5272 31.3978C57.9529 29.5086 55.6734 28.626 52.863 28.626V30.626ZM57.9997 32.6888C59.1378 34.0165 59.769 35.9234 59.769 38.537H61.769C61.769 35.6119 61.0602 33.1861 59.5183 31.3872L57.9997 32.6888ZM59.769 38.537C59.769 40.2234 59.5161 42.0105 59.0002 43.9019L60.9298 44.4281C61.4859 42.3888 61.769 40.424 61.769 38.537H59.769ZM58.9949 43.9225C58.5057 45.8792 58.0169 47.7232 57.5286 49.4545L59.4535 49.9975C59.9478 48.2448 60.4417 46.3814 60.9351 44.4075L58.9949 43.9225ZM57.5306 49.4473L53.7786 62.3783L55.6994 62.9357L59.4514 50.0047L57.5306 49.4473ZM53.778 62.3804C52.934 65.3121 52.0918 67.949 51.2517 70.2925L53.1343 70.9675C53.9916 68.5763 54.8466 65.8979 55.7 62.9336L53.778 62.3804ZM51.248 70.3029C50.4812 72.5181 49.4568 74.23 48.2029 75.4839L49.6171 76.8981C51.1326 75.3827 52.2968 73.3873 53.138 70.9571L51.248 70.3029ZM48.2146 75.4724C47.0702 76.5798 45.3865 77.201 43.014 77.201V79.201C45.7335 79.201 47.9804 78.4822 49.6054 76.9096L48.2146 75.4724ZM43.014 77.201C40.1561 77.201 38.0354 76.3204 36.5187 74.6482L35.0373 75.9918C37.0046 78.1609 39.7079 79.201 43.014 79.201V77.201ZM36.5187 74.6482C34.9526 72.9214 33.6603 69.9779 32.7358 65.6635L30.7802 66.0825C31.7317 70.5228 33.1194 73.8772 35.0373 75.9918L36.5187 74.6482ZM31.758 64.873H31.289V66.873H31.758V64.873ZM30.3092 65.673C29.4247 70.0069 28.2778 72.9741 26.9447 74.7112L28.5313 75.9288C30.1462 73.8246 31.3666 70.4937 32.2688 66.073L30.3092 65.673ZM26.9447 74.7112C25.7045 76.3272 23.8012 77.201 21.038 77.201V79.201C24.2602 79.201 26.8235 78.1542 28.5313 75.9288L26.9447 74.7112ZM66.4431 75.923L65.7607 76.6541L65.7607 76.6541L66.4431 75.923ZM66.3761 30.832L67.0832 31.5391L67.0892 31.5331L67.0951 31.527L66.3761 30.832ZM76.6941 30.832L75.963 31.5143L75.9688 31.5205L75.9747 31.5266L76.6941 30.832ZM78.5701 47.984H77.5701V48.984H78.5701V47.984ZM91.0321 47.984V48.984H92.0321V47.984H91.0321ZM92.9751 30.832L93.6822 31.5391L93.6882 31.5331L93.6941 31.527L92.9751 30.832ZM103.36 30.832L102.629 31.5143L102.635 31.5205L102.641 31.5266L103.36 30.832ZM103.226 75.923L102.544 75.1919L102.538 75.1977L102.531 75.2036L103.226 75.923ZM93.0421 75.923L92.3597 76.6541L92.3657 76.6596L92.3718 76.6651L93.0421 75.923ZM91.0321 57.833H92.0321V56.833H91.0321V57.833ZM78.5701 57.833V56.833H77.5701V57.833H78.5701ZM76.5601 75.923L75.8777 75.1919L75.8716 75.1977L75.8655 75.2036L76.5601 75.923ZM71.5351 76.799C69.7006 76.799 68.2573 76.2484 67.1254 75.1919L65.7607 76.6541C67.3088 78.0989 69.2602 78.799 71.5351 78.799V76.799ZM67.1254 75.1919C65.9987 74.1404 65.4331 72.8244 65.4331 71.166H63.4331C63.4331 73.3489 64.2074 75.2043 65.7607 76.6541L67.1254 75.1919ZM65.4331 71.166V35.723H63.4331V71.166H65.4331ZM65.4331 35.723C65.4331 34.0015 65.99 32.6323 67.0832 31.5391L65.669 30.1249C64.1715 31.6224 63.4331 33.5138 63.4331 35.723H65.4331ZM67.0951 31.527C68.1773 30.4074 69.6022 29.822 71.4681 29.822V27.822C69.1352 27.822 67.1654 28.5766 65.6571 30.137L67.0951 31.527ZM71.4681 29.822C73.4894 29.822 74.9418 30.4201 75.963 31.5143L77.4251 30.1497C75.945 28.5638 73.9134 27.822 71.4681 27.822V29.822ZM75.9747 31.5266C77.0371 32.627 77.5701 33.9601 77.5701 35.589H79.5701C79.5701 33.4659 78.8523 31.6277 77.4135 30.1374L75.9747 31.5266ZM77.5701 35.589V47.984H79.5701V35.589H77.5701ZM78.5701 48.984H91.0321V46.984H78.5701V48.984ZM92.0321 47.984V35.723H90.0321V47.984H92.0321ZM92.0321 35.723C92.0321 34.0015 92.589 32.6323 93.6822 31.5391L92.268 30.1249C90.7705 31.6224 90.0321 33.5138 90.0321 35.723H92.0321ZM93.6941 31.527C94.7681 30.4159 96.2323 29.822 98.2011 29.822V27.822C95.7925 27.822 93.7727 28.5681 92.2561 30.137L93.6941 31.527ZM98.2011 29.822C100.171 29.822 101.604 30.416 102.629 31.5143L104.091 30.1497C102.615 28.568 100.609 27.822 98.2011 27.822V29.822ZM102.641 31.5266C103.703 32.627 104.236 33.9601 104.236 35.589H106.236C106.236 33.4659 105.518 31.6277 104.079 30.1374L102.641 31.5266ZM104.236 35.589V71.166H106.236V35.589H104.236ZM104.236 71.166C104.236 72.8244 103.67 74.1404 102.544 75.1919L103.908 76.6541C105.462 75.2043 106.236 73.3489 106.236 71.166H104.236ZM102.531 75.2036C101.44 76.257 100.067 76.799 98.3351 76.799V78.799C100.534 78.799 102.421 78.0903 103.921 76.6424L102.531 75.2036ZM98.3351 76.799C96.3993 76.799 94.8859 76.2409 93.7124 75.1809L92.3718 76.6651C93.9675 78.1064 95.9828 78.799 98.3351 78.799V76.799ZM93.7244 75.1919C92.5977 74.1404 92.0321 72.8244 92.0321 71.166H90.0321C90.0321 73.3489 90.8064 75.2043 92.3597 76.6541L93.7244 75.1919ZM92.0321 71.166V57.833H90.0321V71.166H92.0321ZM91.0321 56.833H78.5701V58.833H91.0321V56.833ZM77.5701 57.833V71.166H79.5701V57.833H77.5701ZM77.5701 71.166C77.5701 72.8244 77.0044 74.1404 75.8777 75.1919L77.2424 76.6541C78.7957 75.2043 79.5701 73.3489 79.5701 71.166H77.5701ZM75.8655 75.2036C74.7832 76.2486 73.3701 76.799 71.5351 76.799V78.799C73.8093 78.799 75.7463 78.0988 77.2547 76.6424L75.8655 75.2036ZM113.894 78L113.747 78.989L113.757 78.9906L113.768 78.992L113.894 78ZM108.065 73.913L107.132 74.272L107.134 74.2781L108.065 73.913ZM108.601 65.136L109.544 65.4701L109.545 65.468L108.601 65.136ZM117.445 40.011L118.389 40.343L118.39 40.3381L117.445 40.011ZM120.192 34.048L119.353 33.5038L119.348 33.5119L119.343 33.5201L120.192 34.048ZM124.145 30.229L123.66 29.3548L123.649 29.3608L124.145 30.229ZM138.148 31.837L137.408 32.5097L137.417 32.5187L138.148 31.837ZM142.704 40.011L141.759 40.3381L141.76 40.3408L142.704 40.011ZM151.481 65.136L150.537 65.4658L150.539 65.4701L151.481 65.136ZM152.151 73.913L151.206 73.5859L151.203 73.5968L152.151 73.913ZM146.456 78L146.582 78.992L146.592 78.9908L146.602 78.9894L146.456 78ZM140.024 77.129L139.577 78.0235L139.586 78.0278L140.024 77.129ZM136.808 72.774L137.793 72.599L137.791 72.5884L137.789 72.5779L136.808 72.774ZM136.674 69.424L135.704 69.1815L135.698 69.2045L135.694 69.2279L136.674 69.424ZM137.277 67.28L138.226 67.5962L138.231 67.5819L138.235 67.5673L137.277 67.28ZM137.277 66.007L136.297 66.2031L136.309 66.2642L136.329 66.3232L137.277 66.007ZM122.738 66.007L121.78 65.7197L121.77 65.7545L121.762 65.7901L122.738 66.007ZM122.872 67.28L123.821 66.9638L123.812 66.9359L123.801 66.9086L122.872 67.28ZM123.408 69.424L124.389 69.2279L124.389 69.2279L123.408 69.424ZM123.341 72.774L124.326 72.949L124.328 72.9384L123.341 72.774ZM120.192 77.129L120.649 78.0188L120.649 78.0188L120.192 77.129ZM134.999 55.957V56.957H136.368L135.952 55.6531L134.999 55.957ZM131.515 45.036L130.535 45.2321L130.546 45.2868L130.563 45.3399L131.515 45.036ZM131.046 44.031L130.214 44.5857L130.269 44.6681L130.339 44.7381L131.046 44.031ZM129.103 44.031L128.335 43.3908L128.329 43.3985L128.322 43.4063L129.103 44.031ZM128.634 45.036L129.589 45.3346L129.592 45.3233L128.634 45.036ZM125.217 55.957L124.263 55.6584L123.857 56.957H125.217V55.957ZM114.042 77.011C111.305 76.6025 109.726 75.4098 108.996 73.5479L107.134 74.2781C108.191 76.9722 110.498 78.5042 113.747 78.989L114.042 77.011ZM108.999 73.554C108.225 71.5424 108.334 68.8834 109.544 65.4701L107.659 64.8019C106.367 68.4459 106.119 71.6382 107.132 74.272L108.999 73.554ZM109.545 65.468L118.389 40.343L116.502 39.679L107.658 64.804L109.545 65.468ZM118.39 40.3381C119.176 38.0683 120.062 36.1515 121.042 34.5759L119.343 33.5201C118.268 35.2499 117.323 37.3084 116.5 39.6839L118.39 40.3381ZM121.031 34.5922C122.025 33.0605 123.229 31.9042 124.641 31.0972L123.649 29.3608C121.935 30.3405 120.504 31.7302 119.353 33.5038L121.031 34.5922ZM124.631 31.1032C126.054 30.3127 127.863 29.889 130.108 29.889V27.889C127.619 27.889 125.453 28.3586 123.66 29.3548L124.631 31.1032ZM130.108 29.889C133.502 29.889 135.87 30.8178 137.408 32.5097L138.888 31.1643C136.853 28.9256 133.862 27.889 130.108 27.889V29.889ZM137.417 32.5187C139.124 34.3515 140.583 36.9398 141.759 40.3381L143.649 39.6839C142.414 36.1142 140.835 33.2531 138.88 31.1553L137.417 32.5187ZM141.76 40.3408L150.537 65.4658L152.425 64.8062L143.648 39.6812L141.76 40.3408ZM150.539 65.4701C151.751 68.8914 151.906 71.5642 151.206 73.5859L153.096 74.2401C154.004 71.6165 153.712 68.4379 152.424 64.8019L150.539 65.4701ZM151.203 73.5968C150.597 75.4123 149.098 76.6007 146.311 77.0106L146.602 78.9894C149.889 78.5059 152.186 76.9697 153.1 74.2292L151.203 73.5968ZM146.33 77.008C144.025 77.3014 142.084 77.0213 140.463 76.2302L139.586 78.0278C141.627 79.0234 143.975 79.3239 146.582 78.992L146.33 77.008ZM140.471 76.2346C138.975 75.4862 138.096 74.3058 137.793 72.599L135.824 72.949C136.235 75.2622 137.5 76.9851 139.577 78.0234L140.471 76.2346ZM137.789 72.5779C137.535 71.3087 137.512 70.336 137.655 69.6201L135.694 69.2279C135.48 70.2986 135.545 71.5593 135.828 72.9701L137.789 72.5779ZM137.644 69.6665C137.865 68.7847 138.059 68.0977 138.226 67.5962L136.329 66.9638C136.138 67.5343 135.93 68.2766 135.704 69.1815L137.644 69.6665ZM138.235 67.5673C138.422 66.9441 138.432 66.3078 138.226 65.6908L136.329 66.3232C136.391 66.5102 136.4 66.7225 136.319 66.9926L138.235 67.5673ZM138.258 65.8109C138.169 65.3647 137.932 64.951 137.514 64.6724C137.124 64.4128 136.677 64.337 136.272 64.337V66.337C136.355 66.337 136.403 66.3452 136.425 66.3504C136.445 66.3553 136.432 66.3554 136.404 66.3365C136.373 66.316 136.342 66.2852 136.319 66.2489C136.298 66.2148 136.295 66.1941 136.297 66.2031L138.258 65.8109ZM136.272 64.337H123.81V66.337H136.272V64.337ZM123.81 64.337C123.401 64.337 122.964 64.4147 122.577 64.6565C122.17 64.9109 121.909 65.2904 121.78 65.7197L123.696 66.2943C123.701 66.2786 123.701 66.2865 123.687 66.3052C123.672 66.3253 123.653 66.3421 123.637 66.3525C123.622 66.3618 123.622 66.358 123.648 66.3517C123.676 66.3451 123.728 66.337 123.81 66.337V64.337ZM121.762 65.7901C121.622 66.4199 121.703 67.0501 121.944 67.6514L123.801 66.9086C123.684 66.6165 123.676 66.3981 123.714 66.2239L121.762 65.7901ZM121.924 67.5962C122.084 68.0766 122.253 68.7461 122.428 69.6201L124.389 69.2279C124.206 68.3152 124.018 67.5554 123.821 66.9638L121.924 67.5962ZM122.428 69.6201C122.574 70.3514 122.567 71.3361 122.355 72.6096L124.328 72.9384C124.562 71.5319 124.6 70.2833 124.389 69.2279L122.428 69.6201ZM122.357 72.599C122.051 74.3166 121.186 75.4955 119.736 76.2392L120.649 78.0188C122.682 76.9759 123.917 75.2514 124.326 72.949L122.357 72.599ZM119.736 76.2392C118.216 77.0188 116.33 77.302 114.02 77.008L113.768 78.992C116.372 79.3234 118.685 79.0259 120.649 78.0188L119.736 76.2392ZM135.952 55.6531L132.468 44.7321L130.563 45.3399L134.047 56.2609L135.952 55.6531ZM132.496 44.8399C132.384 44.2812 132.165 43.7359 131.753 43.3239L130.339 44.7381C130.374 44.7728 130.468 44.8975 130.535 45.2321L132.496 44.8399ZM131.878 43.4763C131.448 42.8302 130.748 42.629 130.108 42.629V44.629C130.237 44.629 130.284 44.6489 130.284 44.6486C130.282 44.6478 130.27 44.6423 130.254 44.6291C130.237 44.6156 130.224 44.6 130.214 44.5857L131.878 43.4763ZM130.108 42.629C129.455 42.629 128.799 42.8338 128.335 43.3908L129.871 44.6712C129.873 44.6692 129.875 44.6655 129.893 44.658C129.918 44.648 129.983 44.629 130.108 44.629V42.629ZM128.322 43.4063C128.029 43.7731 127.827 44.2469 127.676 44.7486L129.592 45.3233C129.71 44.9318 129.82 44.7356 129.884 44.6557L128.322 43.4063ZM127.68 44.7374L124.263 55.6584L126.172 56.2556L129.589 45.3346L127.68 44.7374ZM125.217 56.957H134.999V54.957H125.217V56.957ZM147.607 42.155L146.924 42.8853L146.929 42.8907L146.935 42.896L147.607 42.155ZM147.406 31.435L146.675 30.7518L146.675 30.7527L147.406 31.435ZM187.606 31.435L186.864 32.1053L186.875 32.1178L186.887 32.13L187.606 31.435ZM187.405 42.155L186.733 41.414L186.727 41.4193L186.722 41.4247L187.405 42.155ZM178.293 43.629L177.921 44.5575L177.949 44.5684L177.977 44.5777L178.293 43.629ZM176.082 42.423L175.436 43.1864L175.454 43.2014L175.472 43.2156L176.082 42.423ZM174.407 41.217L173.852 42.049L173.877 42.0657L173.903 42.0808L174.407 41.217ZM172.397 40.681V39.681H171.779L171.502 40.2338L172.397 40.681ZM171.794 41.887L170.899 41.4398L170.688 41.8619L170.88 42.2931L171.794 41.887ZM172.732 43.629L171.87 44.136L171.877 44.1476L171.884 44.159L172.732 43.629ZM174.005 46.778L173.044 47.0568L173.047 47.0653L174.005 46.778ZM172.531 76.191L171.874 75.4369L171.868 75.4423L171.862 75.4477L172.531 76.191ZM162.481 76.191L161.812 76.9343L161.818 76.9397L161.824 76.9451L162.481 76.191ZM161.074 46.778L162.032 47.0654L162.034 47.0568L161.074 46.778ZM162.347 43.629L161.507 43.0857L161.503 43.0923L161.499 43.099L162.347 43.629ZM163.352 41.887L164.266 42.2931L164.468 41.8374L164.226 41.4014L163.352 41.887ZM162.682 40.681L163.556 40.1954L163.27 39.681H162.682V40.681ZM160.672 41.217L161.176 42.0808L161.202 42.0657L161.226 42.049L160.672 41.217ZM158.997 42.423L159.606 43.2156L159.625 43.2014L159.643 43.1864L158.997 42.423ZM156.786 43.629L157.116 44.5729L157.137 44.5656L157.157 44.5575L156.786 43.629ZM153.101 43.098C151.074 43.098 149.495 42.5166 148.278 41.414L146.935 42.896C148.577 44.3841 150.661 45.098 153.101 45.098V43.098ZM148.29 41.4247C147.148 40.3561 146.53 38.8565 146.53 36.795H144.53C144.53 39.2895 145.297 41.3633 146.924 42.8853L148.29 41.4247ZM146.53 36.795C146.53 34.7566 147.095 33.2335 148.137 32.1173L146.675 30.7527C145.215 32.3165 144.53 34.3667 144.53 36.795H146.53ZM148.136 32.1182C149.187 30.9945 150.784 30.358 153.101 30.358V28.358C150.415 28.358 148.215 29.1061 146.675 30.7518L148.136 32.1182ZM153.101 30.358H181.978V28.358H153.101V30.358ZM181.978 30.358C184.297 30.358 185.861 30.9953 186.864 32.1053L188.348 30.7647C186.849 29.1054 184.661 28.358 181.978 28.358V30.358ZM186.887 32.13C187.967 33.2476 188.549 34.7662 188.549 36.795H190.549C190.549 34.3571 189.835 32.3024 188.325 30.74L186.887 32.13ZM188.549 36.795C188.549 38.8465 187.915 40.3427 186.733 41.414L188.076 42.896C189.753 41.3766 190.549 39.2995 190.549 36.795H188.549ZM186.722 41.4247C185.555 42.5165 184.005 43.098 181.978 43.098V45.098C184.417 45.098 186.486 44.3842 188.088 42.8853L186.722 41.4247ZM181.978 43.098C180.515 43.098 179.406 42.9459 178.609 42.6803L177.977 44.5777C179.056 44.9374 180.403 45.098 181.978 45.098V43.098ZM178.664 42.7005C177.831 42.3673 177.181 42.0067 176.691 41.6304L175.472 43.2156C176.144 43.7327 176.968 44.176 177.921 44.5575L178.664 42.7005ZM176.728 41.6596C176.112 41.1388 175.507 40.7008 174.911 40.3532L173.903 42.0808C174.379 42.3585 174.89 42.7245 175.436 43.1864L176.728 41.6596ZM174.961 40.3849C174.225 39.8937 173.349 39.681 172.397 39.681V41.681C173.052 41.681 173.517 41.8256 173.852 42.049L174.961 40.3849ZM171.502 40.2338L170.899 41.4398L172.688 42.3342L173.291 41.1282L171.502 40.2338ZM170.88 42.2931C171.083 42.749 171.419 43.3695 171.87 44.136L173.594 43.122C173.151 42.3698 172.862 41.829 172.708 41.4809L170.88 42.2931ZM171.884 44.159C172.259 44.7594 172.653 45.7074 173.044 47.0568L174.965 46.4992C174.553 45.0792 174.098 43.9279 173.58 43.099L171.884 44.159ZM173.047 47.0653C173.409 48.271 173.608 49.9915 173.608 52.272H175.608C175.608 49.9071 175.405 47.965 174.963 46.4907L173.047 47.0653ZM173.608 52.272V71.635H175.608V52.272H173.608ZM173.608 71.635C173.608 73.1763 173.041 74.4202 171.874 75.4369L173.188 76.9451C174.79 75.5498 175.608 73.7564 175.608 71.635H173.608ZM171.862 75.4477C170.723 76.473 169.315 77 167.573 77V79C169.761 79 171.659 78.321 173.2 76.9343L171.862 75.4477ZM167.573 77C165.78 77 164.322 76.4689 163.138 75.4369L161.824 76.9451C163.408 78.3251 165.346 79 167.573 79V77ZM163.15 75.4477C162.024 74.4348 161.471 73.188 161.471 71.635H159.471C159.471 73.7447 160.257 75.5352 161.812 76.9343L163.15 75.4477ZM161.471 71.635V52.272H159.471V71.635H161.471ZM161.471 52.272C161.471 49.9915 161.67 48.271 162.032 47.0653L160.116 46.4907C159.674 47.965 159.471 49.9071 159.471 52.272H161.471ZM162.034 47.0568C162.426 45.7074 162.82 44.7594 163.195 44.159L161.499 43.099C160.981 43.9279 160.526 45.0792 160.113 46.4992L162.034 47.0568ZM163.186 44.1723C163.683 43.4048 164.054 42.77 164.266 42.2931L162.438 41.4809C162.293 41.808 161.993 42.3345 161.507 43.0857L163.186 44.1723ZM164.226 41.4014L163.556 40.1954L161.808 41.1666L162.478 42.3726L164.226 41.4014ZM162.682 39.681C161.729 39.681 160.854 39.8937 160.117 40.3849L161.226 42.049C161.562 41.8256 162.026 41.681 162.682 41.681V39.681ZM160.168 40.3532C159.572 40.7008 158.966 41.1388 158.351 41.6596L159.643 43.1864C160.189 42.7245 160.7 42.3585 161.176 42.0808L160.168 40.3532ZM158.387 41.6304C157.898 42.0067 157.247 42.3673 156.414 42.7005L157.157 44.5575C158.111 44.176 158.934 43.7327 159.606 43.2156L158.387 41.6304ZM156.455 42.6851C155.715 42.9443 154.615 43.098 153.101 43.098V45.098C154.713 45.098 156.07 44.939 157.116 44.5729L156.455 42.6851ZM206.265 76.258L206.959 75.5386L206.959 75.5386L206.265 76.258ZM206.198 31.1L205.479 30.405L205.473 30.4113L205.467 30.4177L206.198 31.1ZM216.516 31.1L215.785 31.7823L215.796 31.7949L215.809 31.8071L216.516 31.1ZM216.382 76.258L215.711 75.5159L215.705 75.5214L215.699 75.5269L216.382 76.258ZM211.29 77.134C209.455 77.134 208.042 76.5836 206.959 75.5386L205.57 76.9774C207.079 78.4338 209.015 79.134 211.29 79.134V77.134ZM206.959 75.5386C205.873 74.4899 205.322 73.1705 205.322 71.501H203.322C203.322 73.6728 204.066 75.5247 205.57 76.9774L206.959 75.5386ZM205.322 71.501V36.058H203.322V71.501H205.322ZM205.322 36.058C205.322 34.3259 205.864 32.923 206.929 31.7823L205.467 30.4177C204.03 31.957 203.322 33.8594 203.322 36.058H205.322ZM206.917 31.795C207.999 30.6754 209.424 30.09 211.29 30.09V28.09C208.957 28.09 206.987 28.8446 205.479 30.405L206.917 31.795ZM211.29 30.09C213.311 30.09 214.763 30.6881 215.785 31.7823L217.247 30.4177C215.767 28.8318 213.735 28.09 211.29 28.09V30.09ZM215.809 31.8071C216.907 32.905 217.459 34.2542 217.459 35.924H219.459C219.459 33.7524 218.716 31.8856 217.223 30.3929L215.809 31.8071ZM217.459 35.924V71.501H219.459V35.924H217.459ZM217.459 71.501C217.459 73.1482 216.879 74.4611 215.711 75.5159L217.052 77.0001C218.654 75.5536 219.459 73.6951 219.459 71.501H217.459ZM215.699 75.5269C214.567 76.5834 213.124 77.134 211.29 77.134V79.134C213.565 79.134 215.516 78.4339 217.064 76.9891L215.699 75.5269ZM235.838 77.464L235.628 78.4418L235.638 78.4439L235.648 78.4459L235.838 77.464ZM228.87 75.186L228.43 76.0842L228.442 76.0898L228.453 76.0951L228.87 75.186ZM223.778 71.501L223.027 72.1611L223.032 72.1669L223.037 72.1725L223.778 71.501ZM224.18 60.513L223.494 59.7854L223.494 59.7854L224.18 60.513ZM229.674 58.436L229.631 59.4351L229.639 59.4354L229.647 59.4356L229.674 58.436ZM234.632 59.508L234.256 60.4347L234.267 60.4391L234.278 60.4433L234.632 59.508ZM239.657 61.384L239.311 62.3224L239.319 62.3252L239.657 61.384ZM248.501 61.652L247.946 60.8199L247.946 60.8199L248.501 61.652ZM248.099 57.632L248.625 56.7817L248.625 56.7817L248.099 57.632ZM244.548 56.292L244.31 57.2633L244.322 57.2662L244.334 57.2689L244.548 56.292ZM241.265 55.488L241.503 54.5167L241.495 54.5149L241.265 55.488ZM232.153 52.808L231.795 53.7417L231.802 53.7444L231.809 53.7469L232.153 52.808ZM225.788 48.788L225.043 49.4548L225.052 49.4651L225.061 49.4752L225.788 48.788ZM226.056 34.517L226.805 35.1792L226.813 35.1706L226.056 34.517ZM232.957 30.229L232.663 29.2732L232.663 29.2732L232.957 30.229ZM252.32 30.028L252.055 30.9924L252.055 30.9924L252.32 30.028ZM258.752 33.311L258.067 34.0392L258.072 34.0441L258.077 34.049L258.752 33.311ZM259.288 43.696L258.568 43.0019L258.568 43.0024L259.288 43.696ZM250.511 44.835L250.204 45.7867L250.213 45.7895L250.511 44.835ZM246.089 43.562L245.807 44.5214L245.823 44.5262L245.84 44.5305L246.089 43.562ZM237.647 43.629L238.133 44.5032L238.151 44.4931L238.168 44.4823L237.647 43.629ZM238.049 47.515L237.664 48.4381L237.664 48.4381L238.049 47.515ZM243.342 49.123L243.095 50.0921L243.105 50.0947L243.116 50.0971L243.342 49.123ZM247.094 49.994L247.333 49.0229L247.32 49.0199L247.094 49.994ZM255.201 52.741L254.782 53.649L254.782 53.649L255.201 52.741ZM260.628 56.962L259.825 57.5587L259.825 57.5587L260.628 56.962ZM260.159 72.104L260.953 72.7121L260.959 72.704L260.159 72.104ZM253.459 76.727L253.134 75.7813L253.134 75.7813L253.459 76.727ZM243.409 77.201C240.973 77.201 238.513 76.9618 236.027 76.4821L235.648 78.4459C238.255 78.9488 240.842 79.201 243.409 79.201V77.201ZM236.047 76.4862C233.611 75.9642 231.359 75.2268 229.287 74.2769L228.453 76.0951C230.669 77.1106 233.062 77.8918 235.628 78.4418L236.047 76.4862ZM229.309 74.2878C227.301 73.3047 225.713 72.1472 224.519 70.8295L223.037 72.1725C224.433 73.7135 226.241 75.0126 228.43 76.0842L229.309 74.2878ZM224.529 70.8409C223.39 69.545 222.835 68.081 222.835 66.409H220.835C220.835 68.5784 221.575 70.509 223.027 72.1611L224.529 70.8409ZM222.835 66.409C222.835 64.1845 223.532 62.4979 224.866 61.2406L223.494 59.7854C221.701 61.4761 220.835 63.7202 220.835 66.409H222.835ZM224.866 61.2406C226.238 59.947 227.808 59.3575 229.631 59.4351L229.716 57.4369C227.341 57.3358 225.249 58.131 223.494 59.7854L224.866 61.2406ZM229.647 59.4356C231.171 59.4768 232.706 59.8062 234.256 60.4347L235.008 58.5813C233.253 57.8698 231.482 57.4845 229.701 57.4364L229.647 59.4356ZM234.278 60.4433C235.933 61.0697 237.611 61.696 239.311 62.3223L240.003 60.4457C238.308 59.8213 236.636 59.197 234.986 58.5727L234.278 60.4433ZM239.319 62.3252C241.163 62.987 243.019 63.322 244.883 63.322V61.322C243.263 61.322 241.635 61.0317 239.995 60.4428L239.319 62.3252ZM244.883 63.322C246.64 63.322 248.117 63.1101 249.056 62.484L247.946 60.8199C247.545 61.0873 246.61 61.322 244.883 61.322V63.322ZM249.056 62.484C249.984 61.8653 250.506 60.9601 250.506 59.843H248.506C248.506 60.2446 248.358 60.5454 247.946 60.8199L249.056 62.484ZM250.506 59.843C250.506 58.5188 249.778 57.4953 248.625 56.7817L247.573 58.4823C248.296 58.9301 248.506 59.3805 248.506 59.843H250.506ZM248.625 56.7817C247.565 56.1256 246.268 55.6445 244.762 55.3151L244.334 57.2689C245.687 57.5648 246.757 57.9771 247.573 58.4823L248.625 56.7817ZM244.786 55.3207L241.503 54.5167L241.027 56.4593L244.31 57.2633L244.786 55.3207ZM241.495 54.5149C238.131 53.7181 235.133 52.8355 232.497 51.8691L231.809 53.7469C234.533 54.7458 237.609 55.6499 241.034 56.4611L241.495 54.5149ZM232.511 51.8743C229.935 50.8869 227.952 49.6201 226.514 48.1008L225.061 49.4752C226.751 51.2612 229.011 52.6745 231.795 53.7417L232.511 51.8743ZM226.533 48.1212C225.215 46.6478 224.51 44.6494 224.51 42.021H222.51C222.51 45.0206 223.324 47.5336 225.043 49.4548L226.533 48.1212ZM224.51 42.021C224.51 39.1311 225.301 36.8817 226.805 35.1792L225.307 33.8548C223.416 35.9937 222.51 38.7469 222.51 42.021H224.51ZM226.813 35.1706C228.368 33.3702 230.496 32.0324 233.251 31.1848L232.663 29.2732C229.611 30.2123 227.139 31.7332 225.299 33.8634L226.813 35.1706ZM233.251 31.1848C236.044 30.3254 239.181 29.889 242.672 29.889V27.889C239.016 27.889 235.676 28.3459 232.663 29.2732L233.251 31.1848ZM242.672 29.889C246.268 29.889 249.392 30.2621 252.055 30.9924L252.584 29.0636C249.709 28.2752 246.401 27.889 242.672 27.889V29.889ZM252.055 30.9924C254.724 31.724 256.703 32.756 258.067 34.0392L259.437 32.5828C257.763 31.0074 255.455 29.8507 252.584 29.0636L252.055 30.9924ZM258.077 34.049C259.441 35.2956 260.097 36.7728 260.097 38.537H262.097C262.097 36.1919 261.19 34.1851 259.427 32.573L258.077 34.049ZM260.097 38.537C260.097 40.5372 259.551 41.9828 258.568 43.0019L260.008 44.3901C261.437 42.9079 262.097 40.9141 262.097 38.537H260.097ZM258.568 43.0024C257.628 43.9785 256.343 44.505 254.598 44.505V46.505C256.784 46.505 258.626 45.8255 260.008 44.3896L258.568 43.0024ZM254.598 44.505C253.418 44.505 252.157 44.3016 250.809 43.8805L250.213 45.7895C251.724 46.2617 253.187 46.505 254.598 46.505V44.505ZM250.818 43.8833C249.412 43.4298 247.919 43 246.338 42.5935L245.84 44.5305C247.386 44.928 248.84 45.3468 250.204 45.7867L250.818 43.8833ZM246.371 42.6026C244.752 42.1265 243.026 41.892 241.198 41.892V43.892C242.854 43.892 244.388 44.1042 245.807 44.5214L246.371 42.6026ZM241.198 41.892C239.559 41.892 238.159 42.1444 237.125 42.7757L238.168 44.4823C238.743 44.1309 239.71 43.892 241.198 43.892V41.892ZM237.161 42.7548C236.119 43.3337 235.441 44.2328 235.441 45.438H237.441C237.441 45.1245 237.566 44.8176 238.133 44.5032L237.161 42.7548ZM235.441 45.438C235.441 46.1117 235.639 46.7386 236.052 47.2729C236.455 47.7938 237.019 48.1691 237.664 48.4381L238.434 46.5919C238.007 46.4142 237.766 46.22 237.634 46.0486C237.511 45.8905 237.441 45.7023 237.441 45.438H235.441ZM237.664 48.4381C238.808 48.9147 240.633 49.4654 243.095 50.0921L243.589 48.1539C241.137 47.53 239.434 47.0086 238.434 46.5919L237.664 48.4381ZM243.116 50.0971L246.868 50.9681L247.32 49.0199L243.568 48.1489L243.116 50.0971ZM246.855 50.965C249.889 51.7125 252.529 52.6091 254.782 53.649L255.62 51.833C253.228 50.7289 250.463 49.7941 247.333 49.023L246.855 50.965ZM254.782 53.649C256.98 54.6634 258.646 55.973 259.825 57.5587L261.43 56.3653C260.019 54.467 258.067 52.9626 255.62 51.833L254.782 53.649ZM259.825 57.5587C260.959 59.0832 261.571 61.1332 261.571 63.796H263.571C263.571 60.8308 262.887 58.3248 261.43 56.3653L259.825 57.5587ZM261.571 63.796C261.571 67.0326 260.806 69.5746 259.359 71.504L260.959 72.704C262.728 70.3454 263.571 67.3487 263.571 63.796H261.571ZM259.365 71.4959C257.893 73.4175 255.834 74.8532 253.134 75.7813L253.784 77.6727C256.801 76.6355 259.209 74.9891 260.953 72.7121L259.365 71.4959ZM253.134 75.7813C250.404 76.7198 247.168 77.201 243.409 77.201V79.201C247.332 79.201 250.797 78.6995 253.784 77.6727L253.134 75.7813Z" fill="black" mask="url(#path-1-outside-1_2004_4)"/>
</g>
<g filter="url(#filter1_d_2004_4)">
<mask id="path-3-outside-2_2004_4" maskUnits="userSpaceOnUse" x="10.6588" y="101.234" width="374.313" height="183.812" fill="black">
<rect fill="white" x="10.6588" y="101.234" width="374.313" height="183.812"/>
<path d="M42.4877 279.022C38.3867 279.689 35.2758 278.72 33.1548 276.114C31.0151 273.45 30.0254 269.549 30.1856 264.41L31.2462 227.851C31.3265 224.477 31.6929 221.494 32.3455 218.903C33.0565 216.293 34.2475 214.077 35.9186 212.255C37.6482 210.414 40.0611 208.999 43.1574 208.009C47.831 206.515 51.7471 206.679 54.9057 208.503C58.1228 210.307 61.2485 213.236 64.2827 217.288L86.2688 246.479C89.3801 250.572 90.8957 254.305 90.8154 257.679C90.7748 260.976 88.8617 263.551 85.0759 265.406C81.9935 266.842 79.068 267.359 76.2992 266.956C73.5888 266.535 71.5797 265.084 70.2718 262.605C69.3609 260.964 68.8355 259.523 68.6957 258.28C68.6142 257.018 68.5782 255.999 68.5878 255.223C68.5762 254.583 68.3988 254.028 68.0554 253.558C67.7518 253.011 67.2203 252.859 66.4608 253.102L50.1616 258.313C49.4022 258.556 49.0282 258.998 49.0397 259.638C49.091 260.201 49.3268 260.737 49.7473 261.247C50.2051 261.873 50.7377 262.733 51.3449 263.827C51.9522 264.921 52.3899 266.39 52.6582 268.236C53.0313 271.015 52.2655 273.352 50.3607 275.249C48.4559 277.146 45.8315 278.404 42.4877 279.022ZM60.8734 241.366L51.7498 228.54C51.4462 227.993 51.1016 227.62 50.7161 227.421C50.3704 227.145 49.9054 227.101 49.3212 227.288C48.737 227.474 48.3549 227.79 48.1749 228.234C48.0346 228.601 47.9702 229.104 47.9817 229.744L48.0794 245.457L60.8734 241.366ZM106.456 258.57C103.535 259.504 101.026 259.308 98.9278 257.983C96.8299 256.657 95.2953 254.476 94.324 251.438L81.1838 210.339C80.2125 207.301 79.983 204.67 80.4953 202.446C81.0473 200.145 82.0888 198.266 83.6196 196.811C85.2089 195.337 87.0843 194.254 89.2458 193.563C92.4589 192.536 95.4463 192.514 98.2079 193.499C100.97 194.483 103.646 196.912 106.236 200.784L126.038 230.094L127.44 229.645L116.682 195.996C115.692 192.899 115.705 190.223 116.722 187.966C117.721 185.65 119.68 184.026 122.601 183.092C125.639 182.121 128.178 182.307 130.217 183.651C132.297 184.918 133.831 187.1 134.821 190.196L147.485 229.805C149.054 234.712 149.131 238.68 147.717 241.707C146.302 244.735 143.638 246.875 139.724 248.126C135.751 249.397 132.319 249.335 129.427 247.942C126.534 246.548 123.85 243.994 121.374 240.278L108.344 220.973C108.041 220.426 107.639 219.975 107.139 219.62C106.679 219.187 106.186 219.055 105.66 219.223C105.017 219.429 104.663 219.832 104.598 220.432C104.513 220.974 104.565 221.538 104.751 222.122L112.288 245.694C113.259 248.732 113.275 251.399 112.335 253.696C111.395 255.993 109.436 257.617 106.456 258.57ZM180.019 235.63C175.345 237.124 170.855 237.078 166.549 235.493C162.225 233.849 158.371 230.96 154.989 226.826C151.588 222.633 148.925 217.528 147.001 211.511C145.208 205.903 144.457 200.734 144.748 196.005C145.079 191.198 146.227 186.936 148.193 183.216C150.199 179.42 152.876 176.213 156.225 173.597C159.614 170.904 163.441 168.875 167.705 167.512C175.534 165.009 181.672 164.27 186.121 165.294C190.609 166.242 193.404 168.439 194.506 171.886C195.366 174.573 195.421 177.163 194.673 179.656C193.983 182.131 192.265 183.807 189.519 184.685C187.65 185.282 185.812 185.677 184.006 185.868C182.258 186.04 180.461 186.261 178.615 186.529C176.809 186.72 174.854 187.152 172.751 187.824C168.136 189.3 165.226 191.679 164.022 194.962C162.876 198.226 162.938 201.844 164.208 205.816C165.236 209.029 166.719 211.453 168.658 213.087C170.655 214.702 172.893 215.66 175.373 215.962C177.891 216.187 180.494 215.87 183.182 215.011C185.402 214.301 187.317 213.142 188.927 211.532C190.537 209.923 191.176 207.69 190.843 204.835L186.549 206.208C184.504 206.861 182.73 206.752 181.228 205.88C179.707 204.95 178.629 203.492 177.994 201.505C177.359 199.519 177.401 197.735 178.118 196.153C178.836 194.572 180.217 193.454 182.262 192.8L192.778 189.438C196.575 188.224 199.56 188.396 201.733 189.955C203.945 191.437 205.686 194.165 206.956 198.137L212.196 214.524C213.167 217.562 213.087 220.131 211.955 222.231C210.824 224.332 208.914 225.811 206.227 226.671C203.365 227.586 200.863 227.516 198.723 226.462C196.583 225.408 195.027 223.362 194.056 220.324L192.319 214.891L190.742 215.395C192.441 220.711 192.34 225.026 190.437 228.339C188.516 231.593 185.306 233.939 180.807 235.378L180.019 235.63ZM240.875 215.4C238.013 216.315 235.183 216.93 232.386 217.245C229.647 217.541 227.051 217.276 224.598 216.451C222.185 215.548 219.946 213.881 217.881 211.451C215.855 208.943 214.105 205.382 212.629 200.767C211.303 196.619 210.719 192.878 210.876 189.543C211.034 186.209 211.592 183.423 212.55 181.185C213.567 178.928 214.653 177.389 215.807 176.569L214.837 175.044L213.347 175.521C210.66 176.38 208.257 176.215 206.138 175.025C204.058 173.758 202.513 171.644 201.502 168.683C200.51 165.781 200.522 163.201 201.539 160.944C202.615 158.669 204.496 157.101 207.183 156.242L238.643 146.184C244.893 144.185 248.953 146.107 250.821 151.949C251.661 154.578 251.574 156.924 250.56 158.987C249.545 161.05 247.431 162.595 244.218 163.622L226.079 169.422C223.917 170.113 223.238 171.715 224.041 174.227L226.142 180.799C228.858 179.222 231.653 177.492 234.527 175.607C237.46 173.703 240.358 172.294 243.221 171.378C245.966 170.501 248.207 170.46 249.943 171.257C251.719 171.978 252.933 173.36 253.587 175.405C254.26 177.508 254.091 179.397 253.081 181.072C252.111 182.67 250.262 183.937 247.535 184.873C244.691 185.847 241.523 186.409 238.03 186.56C234.536 186.711 231.226 186.933 228.1 187.224L231.77 198.703C232.125 199.813 232.669 200.509 233.403 200.789C234.176 200.993 235.113 200.5 236.214 199.311C238.594 196.683 241.027 194.424 243.513 192.534C245.981 190.586 248.559 189.182 251.246 188.323C255.043 187.109 258.224 187.187 260.787 188.557C263.408 189.908 265.232 192.19 266.259 195.403C267.362 198.85 267.16 201.845 265.654 204.386C264.207 206.91 261.176 208.909 256.561 210.385L240.875 215.4ZM256.383 149.688C255.524 147 255.678 144.665 256.847 142.682C258.056 140.621 259.974 139.17 262.603 138.33C265.349 137.452 267.783 137.511 269.904 138.507C272.007 139.444 273.488 141.257 274.347 143.944L286.282 181.275C286.637 182.385 287.181 183.08 287.915 183.36C288.63 183.583 289.538 183.099 290.639 181.91C293.018 179.282 295.188 177.107 297.149 175.386C299.091 173.606 301.435 172.277 304.181 171.399C307.978 170.185 311.158 170.263 313.721 171.632C316.284 173.002 318.079 175.294 319.107 178.507C320.209 181.954 320.007 184.948 318.501 187.49C317.054 190.013 314.053 192.003 309.496 193.46L291.444 199.232C287.588 200.464 284.235 201.054 281.384 200.999C278.515 200.886 276.026 199.847 273.916 197.881C271.865 195.897 270.111 192.626 268.654 188.07L256.383 149.688ZM351.598 153.727C348.91 154.586 346.523 154.673 344.437 153.988C342.409 153.284 341.021 151.764 340.274 149.427C338.761 144.695 339.495 140.243 342.475 136.071C344.724 133.034 346.987 130.346 349.266 128.007C351.585 125.592 353.402 122.918 354.718 119.986C355.394 118.675 355.622 117.476 355.403 116.387C355.165 115.239 354.573 114.495 353.626 114.154C352.739 113.794 351.806 113.898 350.829 114.468C349.834 114.98 348.998 115.891 348.323 117.202C347.512 118.491 346.905 119.715 346.503 120.874C346.1 122.033 345.706 123.318 345.321 124.729C344.673 126.933 343.656 129.19 342.27 131.5C340.923 133.734 339.052 135.233 336.657 135.999C333.619 136.97 330.963 136.918 328.687 135.843C326.451 134.69 324.876 132.683 323.96 129.82C323.194 127.425 323.332 124.934 324.372 122.348C325.452 119.684 327.335 117.215 330.021 114.94C332.764 112.646 336.21 110.836 340.358 109.51C347.544 107.212 353.162 106.961 357.213 108.757C361.304 110.475 364.031 113.467 365.395 117.732C366.441 121.003 366.599 123.915 365.869 126.466C365.121 128.959 363.398 131.828 360.701 135.073C359.362 136.724 358.49 138.227 358.085 139.579C357.72 140.855 357.771 142.223 358.238 143.684C358.986 146.021 358.737 148.064 357.494 149.814C356.25 151.563 354.285 152.868 351.598 153.727ZM345.543 172.856C344.553 169.759 344.743 166.93 346.113 164.367C347.483 161.804 349.862 159.981 353.251 158.897C356.522 157.851 359.43 157.984 361.974 159.296C364.5 160.549 366.258 162.723 367.248 165.82C368.219 168.857 368.069 171.61 366.797 174.077C365.525 176.544 363.195 178.319 359.807 179.403C356.302 180.523 353.295 180.486 350.789 179.292C348.263 178.039 346.515 175.893 345.543 172.856Z"/>
</mask>
<path d="M42.4877 279.022C38.3867 279.689 35.2758 278.72 33.1548 276.114C31.0151 273.45 30.0254 269.549 30.1856 264.41L31.2462 227.851C31.3265 224.477 31.6929 221.494 32.3455 218.903C33.0565 216.293 34.2475 214.077 35.9186 212.255C37.6482 210.414 40.0611 208.999 43.1574 208.009C47.831 206.515 51.7471 206.679 54.9057 208.503C58.1228 210.307 61.2485 213.236 64.2827 217.288L86.2688 246.479C89.3801 250.572 90.8957 254.305 90.8154 257.679C90.7748 260.976 88.8617 263.551 85.0759 265.406C81.9935 266.842 79.068 267.359 76.2992 266.956C73.5888 266.535 71.5797 265.084 70.2718 262.605C69.3609 260.964 68.8355 259.523 68.6957 258.28C68.6142 257.018 68.5782 255.999 68.5878 255.223C68.5762 254.583 68.3988 254.028 68.0554 253.558C67.7518 253.011 67.2203 252.859 66.4608 253.102L50.1616 258.313C49.4022 258.556 49.0282 258.998 49.0397 259.638C49.091 260.201 49.3268 260.737 49.7473 261.247C50.2051 261.873 50.7377 262.733 51.3449 263.827C51.9522 264.921 52.3899 266.39 52.6582 268.236C53.0313 271.015 52.2655 273.352 50.3607 275.249C48.4559 277.146 45.8315 278.404 42.4877 279.022ZM60.8734 241.366L51.7498 228.54C51.4462 227.993 51.1016 227.62 50.7161 227.421C50.3704 227.145 49.9054 227.101 49.3212 227.288C48.737 227.474 48.3549 227.79 48.1749 228.234C48.0346 228.601 47.9702 229.104 47.9817 229.744L48.0794 245.457L60.8734 241.366ZM106.456 258.57C103.535 259.504 101.026 259.308 98.9278 257.983C96.8299 256.657 95.2953 254.476 94.324 251.438L81.1838 210.339C80.2125 207.301 79.983 204.67 80.4953 202.446C81.0473 200.145 82.0888 198.266 83.6196 196.811C85.2089 195.337 87.0843 194.254 89.2458 193.563C92.4589 192.536 95.4463 192.514 98.2079 193.499C100.97 194.483 103.646 196.912 106.236 200.784L126.038 230.094L127.44 229.645L116.682 195.996C115.692 192.899 115.705 190.223 116.722 187.966C117.721 185.65 119.68 184.026 122.601 183.092C125.639 182.121 128.178 182.307 130.217 183.651C132.297 184.918 133.831 187.1 134.821 190.196L147.485 229.805C149.054 234.712 149.131 238.68 147.717 241.707C146.302 244.735 143.638 246.875 139.724 248.126C135.751 249.397 132.319 249.335 129.427 247.942C126.534 246.548 123.85 243.994 121.374 240.278L108.344 220.973C108.041 220.426 107.639 219.975 107.139 219.62C106.679 219.187 106.186 219.055 105.66 219.223C105.017 219.429 104.663 219.832 104.598 220.432C104.513 220.974 104.565 221.538 104.751 222.122L112.288 245.694C113.259 248.732 113.275 251.399 112.335 253.696C111.395 255.993 109.436 257.617 106.456 258.57ZM180.019 235.63C175.345 237.124 170.855 237.078 166.549 235.493C162.225 233.849 158.371 230.96 154.989 226.826C151.588 222.633 148.925 217.528 147.001 211.511C145.208 205.903 144.457 200.734 144.748 196.005C145.079 191.198 146.227 186.936 148.193 183.216C150.199 179.42 152.876 176.213 156.225 173.597C159.614 170.904 163.441 168.875 167.705 167.512C175.534 165.009 181.672 164.27 186.121 165.294C190.609 166.242 193.404 168.439 194.506 171.886C195.366 174.573 195.421 177.163 194.673 179.656C193.983 182.131 192.265 183.807 189.519 184.685C187.65 185.282 185.812 185.677 184.006 185.868C182.258 186.04 180.461 186.261 178.615 186.529C176.809 186.72 174.854 187.152 172.751 187.824C168.136 189.3 165.226 191.679 164.022 194.962C162.876 198.226 162.938 201.844 164.208 205.816C165.236 209.029 166.719 211.453 168.658 213.087C170.655 214.702 172.893 215.66 175.373 215.962C177.891 216.187 180.494 215.87 183.182 215.011C185.402 214.301 187.317 213.142 188.927 211.532C190.537 209.923 191.176 207.69 190.843 204.835L186.549 206.208C184.504 206.861 182.73 206.752 181.228 205.88C179.707 204.95 178.629 203.492 177.994 201.505C177.359 199.519 177.401 197.735 178.118 196.153C178.836 194.572 180.217 193.454 182.262 192.8L192.778 189.438C196.575 188.224 199.56 188.396 201.733 189.955C203.945 191.437 205.686 194.165 206.956 198.137L212.196 214.524C213.167 217.562 213.087 220.131 211.955 222.231C210.824 224.332 208.914 225.811 206.227 226.671C203.365 227.586 200.863 227.516 198.723 226.462C196.583 225.408 195.027 223.362 194.056 220.324L192.319 214.891L190.742 215.395C192.441 220.711 192.34 225.026 190.437 228.339C188.516 231.593 185.306 233.939 180.807 235.378L180.019 235.63ZM240.875 215.4C238.013 216.315 235.183 216.93 232.386 217.245C229.647 217.541 227.051 217.276 224.598 216.451C222.185 215.548 219.946 213.881 217.881 211.451C215.855 208.943 214.105 205.382 212.629 200.767C211.303 196.619 210.719 192.878 210.876 189.543C211.034 186.209 211.592 183.423 212.55 181.185C213.567 178.928 214.653 177.389 215.807 176.569L214.837 175.044L213.347 175.521C210.66 176.38 208.257 176.215 206.138 175.025C204.058 173.758 202.513 171.644 201.502 168.683C200.51 165.781 200.522 163.201 201.539 160.944C202.615 158.669 204.496 157.101 207.183 156.242L238.643 146.184C244.893 144.185 248.953 146.107 250.821 151.949C251.661 154.578 251.574 156.924 250.56 158.987C249.545 161.05 247.431 162.595 244.218 163.622L226.079 169.422C223.917 170.113 223.238 171.715 224.041 174.227L226.142 180.799C228.858 179.222 231.653 177.492 234.527 175.607C237.46 173.703 240.358 172.294 243.221 171.378C245.966 170.501 248.207 170.46 249.943 171.257C251.719 171.978 252.933 173.36 253.587 175.405C254.26 177.508 254.091 179.397 253.081 181.072C252.111 182.67 250.262 183.937 247.535 184.873C244.691 185.847 241.523 186.409 238.03 186.56C234.536 186.711 231.226 186.933 228.1 187.224L231.77 198.703C232.125 199.813 232.669 200.509 233.403 200.789C234.176 200.993 235.113 200.5 236.214 199.311C238.594 196.683 241.027 194.424 243.513 192.534C245.981 190.586 248.559 189.182 251.246 188.323C255.043 187.109 258.224 187.187 260.787 188.557C263.408 189.908 265.232 192.19 266.259 195.403C267.362 198.85 267.16 201.845 265.654 204.386C264.207 206.91 261.176 208.909 256.561 210.385L240.875 215.4ZM256.383 149.688C255.524 147 255.678 144.665 256.847 142.682C258.056 140.621 259.974 139.17 262.603 138.33C265.349 137.452 267.783 137.511 269.904 138.507C272.007 139.444 273.488 141.257 274.347 143.944L286.282 181.275C286.637 182.385 287.181 183.08 287.915 183.36C288.63 183.583 289.538 183.099 290.639 181.91C293.018 179.282 295.188 177.107 297.149 175.386C299.091 173.606 301.435 172.277 304.181 171.399C307.978 170.185 311.158 170.263 313.721 171.632C316.284 173.002 318.079 175.294 319.107 178.507C320.209 181.954 320.007 184.948 318.501 187.49C317.054 190.013 314.053 192.003 309.496 193.46L291.444 199.232C287.588 200.464 284.235 201.054 281.384 200.999C278.515 200.886 276.026 199.847 273.916 197.881C271.865 195.897 270.111 192.626 268.654 188.07L256.383 149.688ZM351.598 153.727C348.91 154.586 346.523 154.673 344.437 153.988C342.409 153.284 341.021 151.764 340.274 149.427C338.761 144.695 339.495 140.243 342.475 136.071C344.724 133.034 346.987 130.346 349.266 128.007C351.585 125.592 353.402 122.918 354.718 119.986C355.394 118.675 355.622 117.476 355.403 116.387C355.165 115.239 354.573 114.495 353.626 114.154C352.739 113.794 351.806 113.898 350.829 114.468C349.834 114.98 348.998 115.891 348.323 117.202C347.512 118.491 346.905 119.715 346.503 120.874C346.1 122.033 345.706 123.318 345.321 124.729C344.673 126.933 343.656 129.19 342.27 131.5C340.923 133.734 339.052 135.233 336.657 135.999C333.619 136.97 330.963 136.918 328.687 135.843C326.451 134.69 324.876 132.683 323.96 129.82C323.194 127.425 323.332 124.934 324.372 122.348C325.452 119.684 327.335 117.215 330.021 114.94C332.764 112.646 336.21 110.836 340.358 109.51C347.544 107.212 353.162 106.961 357.213 108.757C361.304 110.475 364.031 113.467 365.395 117.732C366.441 121.003 366.599 123.915 365.869 126.466C365.121 128.959 363.398 131.828 360.701 135.073C359.362 136.724 358.49 138.227 358.085 139.579C357.72 140.855 357.771 142.223 358.238 143.684C358.986 146.021 358.737 148.064 357.494 149.814C356.25 151.563 354.285 152.868 351.598 153.727ZM345.543 172.856C344.553 169.759 344.743 166.93 346.113 164.367C347.483 161.804 349.862 159.981 353.251 158.897C356.522 157.851 359.43 157.984 361.974 159.296C364.5 160.549 366.258 162.723 367.248 165.82C368.219 168.857 368.069 171.61 366.797 174.077C365.525 176.544 363.195 178.319 359.807 179.403C356.302 180.523 353.295 180.486 350.789 179.292C348.263 178.039 346.515 175.893 345.543 172.856Z" fill="#FF8400"/>
<path d="M42.4877 279.022L42.6483 280.009L42.6589 280.007L42.6695 280.005L42.4877 279.022ZM33.1548 276.114L32.3751 276.74L32.3792 276.745L33.1548 276.114ZM30.1856 264.41L31.1851 264.442L31.1851 264.439L30.1856 264.41ZM31.2462 227.851L32.2458 227.88L32.2459 227.875L31.2462 227.851ZM32.3455 218.903L31.3806 218.64L31.3781 218.65L31.3757 218.659L32.3455 218.903ZM35.9186 212.255L35.1898 211.57L35.1817 211.579L35.9186 212.255ZM54.9057 208.503L54.4058 209.369L54.4165 209.375L54.9057 208.503ZM64.2827 217.288L63.4822 217.888L63.4839 217.89L64.2827 217.288ZM86.2688 246.479L85.47 247.081L85.4727 247.085L86.2688 246.479ZM90.8154 257.679L89.8156 257.655L89.8154 257.666L90.8154 257.679ZM85.0759 265.406L85.4982 266.312L85.507 266.308L85.5158 266.304L85.0759 265.406ZM76.2992 266.956L76.1456 267.944L76.1553 267.946L76.2992 266.956ZM70.2718 262.605L71.1563 262.138L71.1513 262.129L71.1461 262.12L70.2718 262.605ZM68.6957 258.28L67.6977 258.344L67.6993 258.368L67.7019 258.391L68.6957 258.28ZM68.5878 255.223L69.5877 255.235L69.5879 255.22L69.5876 255.205L68.5878 255.223ZM68.0554 253.558L67.1812 254.044L67.2114 254.098L67.2481 254.148L68.0554 253.558ZM49.0397 259.638L48.0399 259.656L48.0405 259.692L48.0438 259.729L49.0397 259.638ZM49.7473 261.247L50.5546 260.657L50.5373 260.633L50.5186 260.61L49.7473 261.247ZM51.3449 263.827L52.2192 263.342L52.2192 263.342L51.3449 263.827ZM52.6582 268.236L53.6493 268.103L53.6478 268.093L52.6582 268.236ZM50.3607 275.249L51.0663 275.958L51.0663 275.958L50.3607 275.249ZM60.8734 241.366L61.1779 242.319L62.4816 241.902L61.6883 240.787L60.8734 241.366ZM51.7498 228.54L50.8755 229.025L50.9026 229.074L50.9349 229.119L51.7498 228.54ZM50.7161 227.421L50.0925 228.203L50.1699 228.265L50.258 228.31L50.7161 227.421ZM48.1749 228.234L47.2482 227.858L47.2444 227.867L47.2408 227.876L48.1749 228.234ZM47.9817 229.744L48.9818 229.738L48.9815 229.726L47.9817 229.744ZM48.0794 245.457L47.0794 245.463L47.0879 246.824L48.384 246.409L48.0794 245.457ZM42.3271 278.035C38.4816 278.661 35.7692 277.742 33.9304 275.483L32.3792 276.745C34.7824 279.698 38.2919 280.718 42.6483 280.009L42.3271 278.035ZM33.9345 275.488C32.0035 273.084 31.0287 269.458 31.1851 264.442L29.186 264.379C29.0221 269.64 30.0267 273.816 32.3751 276.74L33.9345 275.488ZM31.1851 264.439L32.2458 227.88L30.2466 227.822L29.186 264.381L31.1851 264.439ZM32.2459 227.875C32.3249 224.557 32.6848 221.65 33.3152 219.147L31.3757 218.659C30.701 221.338 30.3281 224.397 30.2465 227.827L32.2459 227.875ZM33.3103 219.166C33.9834 216.695 35.1022 214.625 36.6556 212.931L35.1817 211.579C33.3928 213.53 32.1295 215.891 31.3806 218.64L33.3103 219.166ZM36.6474 212.94C38.2319 211.254 40.4822 209.914 43.4619 208.962L42.8528 207.057C39.64 208.084 37.0645 209.575 35.1899 211.57L36.6474 212.94ZM43.4619 208.962C47.9641 207.522 51.5672 207.73 54.4058 209.369L55.4057 207.637C51.927 205.629 47.6979 205.507 42.8528 207.057L43.4619 208.962ZM54.4165 209.375C57.4756 211.091 60.5023 213.908 63.4822 217.888L65.0832 216.689C61.9946 212.564 58.77 209.524 55.395 207.631L54.4165 209.375ZM63.4839 217.89L85.47 247.081L87.0676 245.878L65.0815 216.687L63.4839 217.89ZM85.4727 247.085C88.5152 251.086 89.8884 254.599 89.8156 257.655L91.8151 257.702C91.903 254.01 90.2451 250.057 87.0648 245.874L85.4727 247.085ZM89.8154 257.666C89.7809 260.476 88.1948 262.764 84.636 264.508L85.5158 266.304C89.5285 264.338 91.7687 261.475 91.8153 257.691L89.8154 257.666ZM84.6535 264.499C81.7094 265.871 78.981 266.336 76.4431 265.967L76.1553 267.946C79.1549 268.382 82.2777 267.813 85.4982 266.312L84.6535 264.499ZM76.4527 265.968C74.0628 265.596 72.3205 264.346 71.1563 262.138L69.3873 263.072C70.8388 265.823 73.1148 267.473 76.1456 267.944L76.4527 265.968ZM71.1461 262.12C70.2703 260.542 69.809 259.231 69.6894 258.168L67.7019 258.391C67.8621 259.814 68.4516 261.387 69.3975 263.09L71.1461 262.12ZM69.6936 258.215C69.6129 256.965 69.5786 255.975 69.5877 255.235L67.5878 255.211C67.5779 256.023 67.6155 257.07 67.6977 258.344L69.6936 258.215ZM69.5876 255.205C69.5728 254.381 69.3399 253.621 68.8628 252.968L67.2481 254.148C67.4577 254.435 67.5797 254.785 67.5879 255.241L69.5876 255.205ZM68.9297 253.073C68.6676 252.601 68.2591 252.231 67.704 252.073C67.1818 251.923 66.6448 251.993 66.1563 252.15L66.7654 254.055C67.0362 253.968 67.1448 253.993 67.1541 253.996C67.1546 253.996 67.1478 253.993 67.1432 253.989C67.1406 253.987 67.1561 253.998 67.1812 254.044L68.9297 253.073ZM66.1563 252.15L49.8571 257.361L50.4662 259.266L66.7654 254.055L66.1563 252.15ZM49.8571 257.361C49.3638 257.519 48.8942 257.772 48.5485 258.18C48.1874 258.607 48.0303 259.121 48.0399 259.656L50.0396 259.62C50.0385 259.56 50.0466 259.527 50.0516 259.513C50.056 259.5 50.0619 259.488 50.0746 259.473C50.1029 259.44 50.2 259.351 50.4662 259.266L49.8571 257.361ZM48.0438 259.729C48.1163 260.524 48.4496 261.246 48.976 261.883L50.5186 260.61C50.2041 260.229 50.0657 259.878 50.0356 259.547L48.0438 259.729ZM48.94 261.837C49.3632 262.416 49.8729 263.236 50.4706 264.312L52.2192 263.342C51.6024 262.231 51.0471 261.331 50.5546 260.657L48.94 261.837ZM50.4706 264.312C50.9976 265.262 51.41 266.601 51.6685 268.38L53.6478 268.093C53.3698 266.18 52.9067 264.58 52.2192 263.342L50.4706 264.312ZM51.6671 268.37C52.0007 270.854 51.3275 272.875 49.655 274.541L51.0663 275.958C53.2034 273.83 54.0619 271.176 53.6493 268.103L51.6671 268.37ZM49.655 274.541C47.9268 276.262 45.504 277.447 42.3058 278.039L42.6695 280.005C46.1591 279.36 48.9849 278.031 51.0663 275.958L49.655 274.541ZM61.6883 240.787L52.5647 227.96L50.9349 229.119L60.0585 241.946L61.6883 240.787ZM52.6241 228.054C52.265 227.407 51.7969 226.853 51.1743 226.532L50.258 228.31C50.4063 228.387 50.6274 228.578 50.8755 229.025L52.6241 228.054ZM51.3397 226.639C50.6387 226.08 49.7848 226.09 49.0167 226.335L49.6257 228.24C49.8273 228.176 49.9502 228.17 50.0128 228.176C50.0636 228.181 50.08 228.193 50.0925 228.203L51.3397 226.639ZM49.0167 226.335C48.2354 226.585 47.5696 227.065 47.2482 227.858L49.1015 228.61C49.1402 228.514 49.2387 228.364 49.6257 228.24L49.0167 226.335ZM47.2408 227.876C47.0349 228.415 46.9693 229.065 46.9819 229.762L48.9815 229.726C48.9711 229.144 49.0342 228.786 49.1089 228.591L47.2408 227.876ZM46.9817 229.75L47.0794 245.463L49.0794 245.451L48.9817 229.738L46.9817 229.75ZM48.384 246.409L61.1779 242.319L60.5689 240.414L47.7749 244.504L48.384 246.409ZM98.9278 257.983L98.3937 258.828L98.3937 258.828L98.9278 257.983ZM80.4953 202.446L79.5229 202.213L79.5208 202.222L80.4953 202.446ZM83.6196 196.811L82.9395 196.078L82.9306 196.086L83.6196 196.811ZM98.2079 193.499L97.8722 194.441L97.8722 194.441L98.2079 193.499ZM106.236 200.784L105.405 201.34L105.407 201.344L106.236 200.784ZM126.038 230.094L125.21 230.654L125.629 231.274L126.343 231.046L126.038 230.094ZM127.44 229.645L127.745 230.598L128.697 230.293L128.393 229.341L127.44 229.645ZM116.722 187.966L117.634 188.377L117.637 188.369L117.641 188.362L116.722 187.966ZM130.217 183.651L129.667 184.486L129.682 184.496L129.697 184.505L130.217 183.651ZM147.717 241.707L146.811 241.284L146.811 241.284L147.717 241.707ZM129.427 247.942L128.993 248.843L128.993 248.843L129.427 247.942ZM121.374 240.278L122.206 239.723L122.203 239.718L121.374 240.278ZM108.344 220.973L107.47 221.458L107.491 221.496L107.515 221.532L108.344 220.973ZM107.139 219.62L106.454 220.349L106.504 220.395L106.56 220.435L107.139 219.62ZM104.598 220.432L105.586 220.586L105.589 220.563L105.592 220.541L104.598 220.432ZM106.152 257.617C103.44 258.484 101.252 258.268 99.4619 257.137L98.3937 258.828C100.8 260.348 103.631 260.523 106.761 259.522L106.152 257.617ZM99.4619 257.137C97.6137 255.97 96.197 254.012 95.2765 251.133L93.3715 251.742C94.3935 254.939 96.046 257.345 98.3937 258.828L99.4619 257.137ZM95.2765 251.133L82.1363 210.035L80.2313 210.644L93.3715 251.742L95.2765 251.133ZM82.1363 210.035C81.199 207.103 81.0108 204.664 81.4698 202.67L79.5208 202.222C78.9553 204.677 79.226 207.5 80.2313 210.644L82.1363 210.035ZM81.4677 202.679C81.9803 200.542 82.9342 198.842 84.3086 197.536L82.9306 196.086C81.2434 197.69 80.1144 199.747 79.5229 202.213L81.4677 202.679ZM84.2996 197.544C85.7763 196.175 87.5218 195.164 89.5504 194.516L88.9413 192.611C86.6467 193.344 84.6415 194.499 82.9396 196.078L84.2996 197.544ZM89.5504 194.516C92.5875 193.545 95.3473 193.541 97.8722 194.441L98.5437 192.557C95.5453 191.488 92.3304 191.527 88.9413 192.611L89.5504 194.516ZM97.8722 194.441C100.344 195.322 102.869 197.549 105.405 201.34L107.067 200.228C104.423 196.275 101.596 193.645 98.5437 192.557L97.8722 194.441ZM105.407 201.344L125.21 230.654L126.867 229.534L107.064 200.224L105.407 201.344ZM126.343 231.046L127.745 230.598L127.136 228.693L125.734 229.141L126.343 231.046ZM128.393 229.341L117.634 195.691L115.729 196.3L126.488 229.95L128.393 229.341ZM117.634 195.691C116.695 192.755 116.747 190.345 117.634 188.377L115.811 187.555C114.664 190.1 114.688 193.044 115.729 196.3L117.634 195.691ZM117.641 188.362C118.5 186.369 120.195 184.911 122.906 184.044L122.297 182.139C119.165 183.141 116.941 184.932 115.804 187.57L117.641 188.362ZM122.906 184.044C125.751 183.135 127.953 183.356 129.667 184.486L130.768 182.816C128.403 181.258 125.528 181.106 122.297 182.139L122.906 184.044ZM129.697 184.505C131.511 185.61 132.927 187.556 133.869 190.5L135.774 189.891C134.735 186.644 133.083 184.226 130.738 182.797L129.697 184.505ZM133.869 190.5L146.533 230.109L148.438 229.5L135.774 189.891L133.869 190.5ZM146.533 230.109C148.065 234.902 148.074 238.581 146.811 241.284L148.623 242.131C150.189 238.778 150.043 234.522 148.438 229.5L146.533 230.109ZM146.811 241.284C145.541 244.003 143.134 245.986 139.42 247.174L140.029 249.079C144.143 247.764 147.064 245.467 148.623 242.131L146.811 241.284ZM139.42 247.174C135.615 248.39 132.46 248.293 129.861 247.041L128.993 248.843C132.178 250.377 135.888 250.403 140.029 249.079L139.42 247.174ZM129.861 247.041C127.181 245.75 124.62 243.346 122.206 239.723L120.542 240.832C123.08 244.642 125.888 247.347 128.993 248.843L129.861 247.041ZM122.203 239.718L109.173 220.414L107.515 221.532L120.545 240.837L122.203 239.718ZM109.219 220.488C108.844 219.813 108.342 219.248 107.718 218.805L106.56 220.435C106.935 220.702 107.237 221.039 107.47 221.458L109.219 220.488ZM107.824 218.891C107.145 218.253 106.283 217.974 105.355 218.271L105.964 220.176C106.088 220.136 106.213 220.122 106.454 220.349L107.824 218.891ZM105.355 218.271C104.905 218.415 104.485 218.651 104.161 219.02C103.832 219.395 103.656 219.846 103.604 220.324L105.592 220.541C105.605 220.418 105.639 220.368 105.664 220.34C105.694 220.305 105.772 220.237 105.964 220.176L105.355 218.271ZM103.61 220.279C103.499 220.992 103.571 221.712 103.799 222.426L105.704 221.817C105.559 221.363 105.528 220.957 105.586 220.586L103.61 220.279ZM103.799 222.426L111.336 245.999L113.241 245.39L105.704 221.817L103.799 222.426ZM111.336 245.999C112.256 248.878 112.238 251.294 111.41 253.317L113.261 254.075C114.312 251.505 114.263 248.586 113.241 245.39L111.336 245.999ZM111.41 253.317C110.61 255.271 108.929 256.729 106.152 257.617L106.761 259.522C109.942 258.505 112.181 256.714 113.261 254.075L111.41 253.317ZM166.549 235.493L166.194 236.428L166.204 236.432L166.549 235.493ZM154.989 226.826L154.212 227.456L154.215 227.459L154.989 226.826ZM144.748 196.005L143.75 195.936L143.75 195.943L144.748 196.005ZM148.193 183.216L149.077 183.683L149.077 183.683L148.193 183.216ZM156.225 173.597L156.841 174.385L156.847 174.38L156.225 173.597ZM186.121 165.294L185.896 166.269L185.905 166.271L185.914 166.273L186.121 165.294ZM194.673 179.656L193.715 179.369L193.712 179.378L193.709 179.388L194.673 179.656ZM184.006 185.868L184.104 186.863L184.111 186.862L184.006 185.868ZM178.615 186.529L178.72 187.523L178.739 187.521L178.759 187.519L178.615 186.529ZM164.022 194.962L163.083 194.617L163.078 194.63L164.022 194.962ZM168.658 213.087L168.013 213.851L168.021 213.858L168.029 213.864L168.658 213.087ZM175.373 215.962L175.252 216.955L175.268 216.957L175.284 216.958L175.373 215.962ZM188.927 211.532L189.634 212.239L188.927 211.532ZM190.843 204.835L191.836 204.719L191.695 203.512L190.538 203.882L190.843 204.835ZM181.228 205.88L180.706 206.733L180.716 206.739L180.726 206.745L181.228 205.88ZM201.733 189.955L201.15 190.768L201.163 190.777L201.176 190.786L201.733 189.955ZM198.723 226.462L199.165 225.565L199.165 225.565L198.723 226.462ZM192.319 214.891L193.272 214.586L192.967 213.634L192.015 213.938L192.319 214.891ZM190.742 215.395L190.437 214.442L189.485 214.747L189.789 215.699L190.742 215.395ZM190.437 228.339L191.298 228.847L191.304 228.837L190.437 228.339ZM179.714 234.677C175.237 236.109 170.977 236.058 166.895 234.555L166.204 236.432C170.734 238.099 175.453 238.139 180.323 236.582L179.714 234.677ZM166.905 234.558C162.767 232.986 159.052 230.213 155.763 226.193L154.215 227.459C157.691 231.708 161.682 234.713 166.194 236.428L166.905 234.558ZM155.765 226.196C152.455 222.115 149.846 217.125 147.954 211.207L146.049 211.816C148.004 217.932 150.721 223.152 154.212 227.456L155.765 226.196ZM147.954 211.207C146.19 205.689 145.464 200.646 145.746 196.066L143.75 195.943C143.45 200.822 144.227 206.117 146.049 211.816L147.954 211.207ZM145.746 196.073C146.068 191.386 147.185 187.263 149.077 183.683L147.309 182.749C145.269 186.608 144.089 191.011 143.75 195.936L145.746 196.073ZM149.077 183.683C151.018 180.01 153.604 176.914 156.841 174.385L155.61 172.809C152.148 175.513 149.38 178.829 147.309 182.749L149.077 183.683ZM156.847 174.38C160.138 171.765 163.856 169.792 168.01 168.464L167.401 166.559C163.025 167.959 159.09 170.043 155.603 172.814L156.847 174.38ZM168.01 168.464C175.785 165.979 181.713 165.306 185.896 166.269L186.345 164.32C181.631 163.234 175.283 164.039 167.401 166.559L168.01 168.464ZM185.914 166.273C190.16 167.169 192.592 169.181 193.554 172.19L195.459 171.581C194.217 167.697 191.058 165.315 186.327 164.316L185.914 166.273ZM193.554 172.19C194.357 174.702 194.4 177.085 193.715 179.369L195.63 179.944C196.442 177.241 196.374 174.444 195.459 171.581L193.554 172.19ZM193.709 179.388C193.122 181.494 191.686 182.942 189.215 183.732L189.824 185.637C192.844 184.671 194.843 182.767 195.636 179.925L193.709 179.388ZM189.215 183.732C187.405 184.311 185.634 184.69 183.9 184.873L184.111 186.862C185.99 186.663 187.895 186.254 189.824 185.637L189.215 183.732ZM183.907 184.873C182.143 185.047 180.331 185.269 178.471 185.539L178.759 187.519C180.59 187.252 182.372 187.034 184.104 186.863L183.907 184.873ZM178.51 185.534C176.623 185.734 174.601 186.183 172.446 186.872L173.055 188.777C175.107 188.121 176.994 187.706 178.72 187.523L178.51 185.534ZM172.446 186.872C167.658 188.403 164.43 190.944 163.083 194.617L164.961 195.306C166.022 192.414 168.614 190.197 173.055 188.777L172.446 186.872ZM163.078 194.63C161.847 198.139 161.933 201.985 163.256 206.121L165.161 205.512C163.943 201.703 163.906 198.312 164.965 195.293L163.078 194.63ZM163.256 206.121C164.322 209.456 165.89 212.062 168.013 213.851L169.302 212.322C167.547 210.843 166.149 208.603 165.161 205.512L163.256 206.121ZM168.029 213.864C170.168 215.594 172.581 216.63 175.252 216.955L175.493 214.97C173.206 214.691 171.143 213.81 169.287 212.309L168.029 213.864ZM175.284 216.958C177.95 217.197 180.687 216.859 183.486 215.964L182.877 214.059C180.302 214.882 177.833 215.178 175.461 214.966L175.284 216.958ZM183.486 215.964C185.854 215.206 187.908 213.964 189.634 212.239L188.22 210.825C186.725 212.319 184.949 213.396 182.877 214.059L183.486 215.964ZM189.634 212.239C191.516 210.358 192.194 207.79 191.836 204.719L189.849 204.951C190.157 207.59 189.559 209.487 188.22 210.825L189.634 212.239ZM190.538 203.882L186.244 205.255L186.853 207.16L191.147 205.787L190.538 203.882ZM186.244 205.255C184.4 205.845 182.932 205.713 181.73 205.015L180.726 206.745C182.529 207.791 184.608 207.878 186.853 207.16L186.244 205.255ZM181.75 205.027C180.468 204.243 179.522 202.999 178.947 201.201L177.042 201.81C177.737 203.984 178.947 205.657 180.706 206.733L181.75 205.027ZM178.947 201.201C178.371 199.401 178.433 197.879 179.029 196.567L177.208 195.74C176.368 197.591 176.347 199.637 177.042 201.81L178.947 201.201ZM179.029 196.567C179.603 195.301 180.723 194.342 182.567 193.753L181.957 191.848C179.712 192.566 178.069 193.842 177.208 195.74L179.029 196.567ZM182.567 193.753L193.082 190.391L192.473 188.486L181.957 191.848L182.567 193.753ZM193.082 190.391C196.732 189.224 199.342 189.471 201.15 190.768L202.316 189.143C199.778 187.322 196.418 187.224 192.473 188.486L193.082 190.391ZM201.176 190.786C203.121 192.089 204.766 194.57 206.004 198.442L207.909 197.833C206.607 193.76 204.769 190.786 202.289 189.125L201.176 190.786ZM206.004 198.442L211.243 214.829L213.148 214.22L207.909 197.833L206.004 198.442ZM211.243 214.829C212.161 217.698 212.039 219.968 211.075 221.757L212.836 222.706C214.135 220.294 214.173 217.426 213.148 214.22L211.243 214.829ZM211.075 221.757C210.088 223.589 208.411 224.922 205.923 225.718L206.532 227.623C209.417 226.701 211.559 225.075 212.836 222.706L211.075 221.757ZM205.923 225.718C203.24 226.576 201.017 226.477 199.165 225.565L198.281 227.359C200.71 228.556 203.49 228.596 206.532 227.623L205.923 225.718ZM199.165 225.565C197.342 224.667 195.926 222.889 195.009 220.019L193.104 220.628C194.129 223.834 195.824 226.148 198.281 227.359L199.165 225.565ZM195.009 220.019L193.272 214.586L191.367 215.195L193.104 220.628L195.009 220.019ZM192.015 213.938L190.437 214.442L191.046 216.347L192.624 215.843L192.015 213.938ZM189.789 215.699C191.443 220.873 191.279 224.866 189.57 227.84L191.304 228.837C193.401 225.186 193.44 220.549 191.694 215.09L189.789 215.699ZM189.576 227.83C187.808 230.824 184.828 233.042 180.503 234.425L181.112 236.33C185.783 234.836 189.223 232.362 191.298 228.847L189.576 227.83ZM180.503 234.425L179.714 234.677L180.323 236.582L181.112 236.33L180.503 234.425ZM232.386 217.245L232.493 218.239L232.498 218.238L232.386 217.245ZM224.598 216.451L224.248 217.387L224.264 217.393L224.279 217.398L224.598 216.451ZM217.881 211.451L217.103 212.079L217.11 212.089L217.118 212.098L217.881 211.451ZM210.876 189.543L211.875 189.59L211.875 189.59L210.876 189.543ZM212.55 181.185L211.638 180.774L211.635 180.782L211.631 180.791L212.55 181.185ZM215.807 176.569L216.386 177.385L217.161 176.834L216.651 176.032L215.807 176.569ZM214.837 175.044L215.681 174.508L215.267 173.857L214.532 174.092L214.837 175.044ZM206.138 175.025L205.617 175.879L205.633 175.888L205.648 175.897L206.138 175.025ZM201.502 168.683L202.449 168.36L202.448 168.36L201.502 168.683ZM201.539 160.944L200.635 160.517L200.631 160.525L200.628 160.534L201.539 160.944ZM226.142 180.799L225.19 181.103L225.569 182.288L226.644 181.664L226.142 180.799ZM234.527 175.607L233.983 174.768L233.979 174.77L234.527 175.607ZM249.943 171.257L249.526 172.166L249.546 172.176L249.567 172.184L249.943 171.257ZM253.081 181.072L253.936 181.591L253.937 181.588L253.081 181.072ZM247.535 184.873L247.859 185.82L247.86 185.819L247.535 184.873ZM238.03 186.56L238.073 187.559L238.073 187.559L238.03 186.56ZM228.1 187.224L228.007 186.228L226.769 186.344L227.147 187.528L228.1 187.224ZM233.403 200.789L233.046 201.723L233.096 201.743L233.149 201.756L233.403 200.789ZM236.214 199.311L236.948 199.99L236.956 199.982L236.214 199.311ZM243.513 192.534L244.118 193.33L244.126 193.325L244.133 193.319L243.513 192.534ZM260.787 188.557L260.315 189.439L260.322 189.442L260.328 189.446L260.787 188.557ZM265.654 204.386L264.794 203.877L264.787 203.889L265.654 204.386ZM240.571 214.447C237.767 215.344 235.001 215.944 232.274 216.251L232.498 218.238C235.364 217.916 238.259 217.286 241.18 216.352L240.571 214.447ZM232.278 216.25C229.674 216.532 227.225 216.279 224.917 215.503L224.279 217.398C226.878 218.273 229.62 218.549 232.493 218.239L232.278 216.25ZM224.948 215.514C222.728 214.684 220.623 213.135 218.643 210.803L217.118 212.098C219.268 214.628 221.641 216.412 224.248 217.387L224.948 215.514ZM218.659 210.823C216.74 208.447 215.037 205.013 213.582 200.462L211.677 201.071C213.173 205.751 214.971 209.44 217.103 212.079L218.659 210.823ZM213.582 200.462C212.282 196.395 211.725 192.776 211.875 189.59L209.877 189.496C209.713 192.98 210.325 196.842 211.677 201.071L213.582 200.462ZM211.875 189.59C212.029 186.334 212.572 183.674 213.469 181.578L211.631 180.791C210.611 183.171 210.038 186.084 209.877 189.496L211.875 189.59ZM213.462 181.595C214.453 179.395 215.448 178.051 216.386 177.385L215.228 175.754C213.857 176.728 212.681 178.46 211.638 180.774L213.462 181.595ZM216.651 176.032L215.681 174.508L213.993 175.581L214.964 177.106L216.651 176.032ZM214.532 174.092L213.043 174.568L213.652 176.473L215.141 175.997L214.532 174.092ZM213.043 174.568C210.573 175.358 208.465 175.185 206.627 174.153L205.648 175.897C208.049 177.245 210.747 177.402 213.652 176.473L213.043 174.568ZM206.658 174.171C204.83 173.057 203.406 171.164 202.449 168.36L200.556 169.006C201.621 172.124 203.287 174.459 205.617 175.879L206.658 174.171ZM202.448 168.36C201.518 165.637 201.562 163.328 202.451 161.355L200.628 160.534C199.483 163.074 199.502 165.924 200.556 169.007L202.448 168.36ZM202.443 161.372C203.385 159.378 205.029 157.981 207.488 157.195L206.879 155.29C203.963 156.222 201.844 157.959 200.635 160.517L202.443 161.372ZM207.488 157.195L238.947 147.136L238.338 145.231L206.879 155.29L207.488 157.195ZM238.947 147.136C241.941 146.179 244.233 146.219 245.947 147.03C247.646 147.834 248.987 149.497 249.868 152.254L251.773 151.644C250.787 148.56 249.164 146.34 246.803 145.222C244.458 144.112 241.595 144.19 238.338 145.231L238.947 147.136ZM249.868 152.254C250.647 154.689 250.54 156.76 249.662 158.546L251.457 159.428C252.608 157.088 252.676 154.467 251.773 151.644L249.868 152.254ZM249.662 158.546C248.814 160.27 246.989 161.686 243.913 162.67L244.523 164.575C247.873 163.503 250.276 161.83 251.457 159.428L249.662 158.546ZM243.913 162.67L225.774 168.469L226.383 170.374L244.523 164.575L243.913 162.67ZM225.774 168.469C224.506 168.875 223.513 169.606 223.027 170.751C222.557 171.861 222.65 173.16 223.089 174.531L224.994 173.922C224.629 172.781 224.66 172.023 224.869 171.532C225.062 171.075 225.49 170.66 226.383 170.374L225.774 168.469ZM223.089 174.531L225.19 181.103L227.095 180.494L224.994 173.922L223.089 174.531ZM226.644 181.664C229.377 180.077 232.187 178.337 235.076 176.443L233.979 174.77C231.118 176.646 228.339 178.367 225.64 179.934L226.644 181.664ZM235.072 176.445C237.942 174.583 240.76 173.215 243.525 172.331L242.916 170.426C239.956 171.372 236.979 172.824 233.983 174.768L235.072 176.445ZM243.525 172.331C246.151 171.491 248.108 171.515 249.526 172.166L250.36 170.349C248.306 169.405 245.782 169.51 242.916 170.426L243.525 172.331ZM249.567 172.184C251.033 172.778 252.059 173.909 252.635 175.709L254.54 175.1C253.808 172.811 252.405 171.177 250.319 170.331L249.567 172.184ZM252.635 175.709C253.232 177.577 253.065 179.161 252.225 180.556L253.937 181.588C255.116 179.633 255.287 177.438 254.54 175.1L252.635 175.709ZM252.226 180.553C251.428 181.868 249.831 183.028 247.211 183.928L247.86 185.819C250.694 184.846 252.794 183.472 253.936 181.591L252.226 180.553ZM247.211 183.927C244.471 184.865 241.399 185.414 237.986 185.561L238.073 187.559C241.646 187.405 244.911 186.829 247.859 185.82L247.211 183.927ZM237.986 185.561C234.478 185.713 231.152 185.935 228.007 186.228L228.193 188.22C231.301 187.93 234.594 187.71 238.073 187.559L237.986 185.561ZM227.147 187.528L230.818 199.008L232.723 198.399L229.052 186.919L227.147 187.528ZM230.818 199.008C231.219 200.263 231.912 201.29 233.046 201.723L233.76 199.855C233.427 199.728 233.031 199.364 232.723 198.399L230.818 199.008ZM233.149 201.756C233.847 201.94 234.535 201.782 235.151 201.457C235.759 201.138 236.357 200.629 236.948 199.99L235.481 198.632C234.971 199.182 234.55 199.514 234.22 199.687C233.9 199.856 233.733 199.842 233.657 199.822L233.149 201.756ZM236.956 199.982C239.299 197.394 241.687 195.178 244.118 193.33L242.908 191.738C240.366 193.67 237.888 195.972 235.473 198.64L236.956 199.982ZM244.133 193.319C246.517 191.437 248.99 190.094 251.551 189.276L250.942 187.371C248.128 188.27 245.445 189.735 242.894 191.749L244.133 193.319ZM251.551 189.276C255.189 188.113 258.069 188.238 260.315 189.439L261.258 187.675C258.379 186.136 254.898 186.106 250.942 187.371L251.551 189.276ZM260.328 189.446C262.679 190.658 264.348 192.708 265.307 195.708L267.212 195.099C266.117 191.673 264.136 189.159 261.245 187.668L260.328 189.446ZM265.307 195.708C266.343 198.949 266.122 201.635 264.794 203.877L266.515 204.896C268.198 202.054 268.38 198.751 267.212 195.099L265.307 195.708ZM264.787 203.889C263.524 206.091 260.782 207.985 256.257 209.432L256.866 211.337C261.571 209.833 264.891 207.729 266.522 204.884L264.787 203.889ZM256.257 209.432L240.571 214.447L241.18 216.352L256.866 211.337L256.257 209.432ZM256.847 142.682L257.709 143.189L257.71 143.187L256.847 142.682ZM269.904 138.507L269.479 139.412L269.488 139.416L269.497 139.42L269.904 138.507ZM287.915 183.36L287.558 184.294L287.588 184.306L287.618 184.315L287.915 183.36ZM290.639 181.91L291.373 182.589L291.38 182.581L290.639 181.91ZM297.149 175.386L297.809 176.137L297.817 176.13L297.825 176.123L297.149 175.386ZM313.721 171.632L314.193 170.751L314.193 170.751L313.721 171.632ZM318.501 187.49L317.641 186.98L317.634 186.992L318.501 187.49ZM281.384 200.999L281.345 201.998L281.355 201.999L281.365 201.999L281.384 200.999ZM273.916 197.881L273.221 198.6L273.228 198.607L273.235 198.613L273.916 197.881ZM257.335 149.383C256.542 146.901 256.716 144.873 257.709 143.189L255.986 142.174C254.64 144.457 254.505 147.1 255.43 149.992L257.335 149.383ZM257.71 143.187C258.774 141.372 260.475 140.06 262.908 139.282L262.299 137.377C259.474 138.281 257.337 139.87 255.985 142.176L257.71 143.187ZM262.908 139.282C265.471 138.463 267.636 138.547 269.479 139.412L270.329 137.602C267.929 136.475 265.227 136.441 262.299 137.377L262.908 139.282ZM269.497 139.42C271.282 140.216 272.601 141.767 273.394 144.249L275.299 143.64C274.375 140.747 272.731 138.673 270.311 137.594L269.497 139.42ZM273.394 144.249L285.33 181.579L287.235 180.97L275.299 143.64L273.394 144.249ZM285.33 181.579C285.731 182.834 286.424 183.861 287.558 184.294L288.272 182.426C287.939 182.299 287.543 181.935 287.235 180.97L285.33 181.579ZM287.618 184.315C288.314 184.532 289.003 184.366 289.602 184.047C290.195 183.732 290.785 183.224 291.373 182.589L289.905 181.231C289.392 181.785 288.977 182.114 288.662 182.282C288.354 182.446 288.231 182.411 288.212 182.405L287.618 184.315ZM291.38 182.581C293.742 179.972 295.885 177.826 297.809 176.137L296.489 174.634C294.492 176.388 292.294 178.592 289.897 181.239L291.38 182.581ZM297.825 176.123C299.65 174.449 301.864 173.189 304.485 172.351L303.876 170.446C301.006 171.364 298.532 172.762 296.473 174.648L297.825 176.123ZM304.485 172.351C308.124 171.188 311.003 171.314 313.25 172.514L314.193 170.751C311.313 169.212 307.833 169.181 303.876 170.446L304.485 172.351ZM313.25 172.514C315.547 173.742 317.192 175.803 318.154 178.811L320.059 178.202C318.966 174.784 317.022 172.263 314.193 170.751L313.25 172.514ZM318.154 178.811C319.19 182.053 318.969 184.738 317.641 186.98L319.362 187.999C321.045 185.158 321.227 181.855 320.059 178.202L318.154 178.811ZM317.634 186.992C316.37 189.196 313.654 191.081 309.191 192.508L309.8 194.413C314.451 192.926 317.739 190.83 319.369 187.987L317.634 186.992ZM309.191 192.508L291.14 198.279L291.749 200.184L309.8 194.413L309.191 192.508ZM291.14 198.279C287.348 199.491 284.109 200.051 281.404 199.999L281.365 201.999C284.361 202.056 287.829 201.437 291.749 200.184L291.14 198.279ZM281.424 200C278.795 199.896 276.533 198.953 274.598 197.15L273.235 198.613C275.518 200.741 278.235 201.876 281.345 201.998L281.424 200ZM274.612 197.163C272.734 195.346 271.043 192.258 269.607 187.765L267.702 188.374C269.179 192.995 270.997 196.448 273.221 198.6L274.612 197.163ZM269.607 187.765L257.335 149.383L255.43 149.992L267.702 188.374L269.607 187.765ZM344.437 153.988L344.109 154.933L344.117 154.936L344.125 154.938L344.437 153.988ZM342.475 136.071L341.672 135.476L341.666 135.482L341.661 135.489L342.475 136.071ZM349.266 128.007L349.982 128.705L349.988 128.7L349.266 128.007ZM354.718 119.986L353.83 119.528L353.817 119.552L353.806 119.577L354.718 119.986ZM355.403 116.387L356.383 116.189L356.382 116.184L355.403 116.387ZM353.626 114.154L353.251 115.08L353.269 115.088L353.287 115.094L353.626 114.154ZM350.829 114.468L351.286 115.358L351.31 115.346L351.333 115.332L350.829 114.468ZM348.323 117.202L349.169 117.734L349.192 117.698L349.212 117.66L348.323 117.202ZM346.503 120.874L345.558 120.546L345.558 120.546L346.503 120.874ZM345.321 124.729L346.28 125.011L346.283 125.002L346.285 124.993L345.321 124.729ZM342.27 131.5L343.126 132.016L343.127 132.015L342.27 131.5ZM328.687 135.843L328.229 136.732L328.244 136.74L328.26 136.747L328.687 135.843ZM324.372 122.348L323.446 121.972L323.444 121.975L324.372 122.348ZM330.021 114.94L329.379 114.173L329.374 114.177L330.021 114.94ZM357.213 108.757L356.808 109.671L356.817 109.675L356.826 109.679L357.213 108.757ZM365.869 126.466L366.827 126.753L366.831 126.741L365.869 126.466ZM360.701 135.073L359.932 134.433L359.924 134.443L360.701 135.073ZM358.085 139.579L357.127 139.293L357.124 139.304L358.085 139.579ZM346.113 164.367L345.231 163.895L346.113 164.367ZM361.974 159.296L361.516 160.184L361.523 160.188L361.53 160.191L361.974 159.296ZM350.789 179.292L350.344 180.188L350.351 180.191L350.358 180.195L350.789 179.292ZM351.293 152.775C348.749 153.588 346.585 153.641 344.749 153.038L344.125 154.938C346.462 155.706 349.071 155.585 351.902 154.68L351.293 152.775ZM344.765 153.044C343.08 152.459 341.894 151.209 341.227 149.123L339.322 149.732C340.149 152.32 341.738 154.11 344.109 154.933L344.765 153.044ZM341.227 149.123C339.814 144.703 340.485 140.577 343.289 136.652L341.661 135.489C338.505 139.909 337.709 144.688 339.322 149.732L341.227 149.123ZM343.279 136.666C345.505 133.659 347.74 131.007 349.982 128.705L348.55 127.31C346.235 129.685 343.943 132.408 341.672 135.476L343.279 136.666ZM349.988 128.7C352.382 126.205 354.266 123.437 355.631 120.396L353.806 119.577C352.539 122.4 350.787 124.979 348.545 127.315L349.988 128.7ZM355.607 120.444C356.353 118.998 356.66 117.564 356.383 116.189L354.422 116.584C354.584 117.387 354.435 118.353 353.83 119.528L355.607 120.444ZM356.382 116.184C356.087 114.762 355.298 113.694 353.966 113.213L353.287 115.094C353.847 115.296 354.242 115.717 354.424 116.59L356.382 116.184ZM354.002 113.227C352.774 112.729 351.516 112.91 350.325 113.605L351.333 115.332C352.097 114.887 352.703 114.858 353.251 115.08L354.002 113.227ZM350.372 113.579C349.141 114.212 348.175 115.306 347.434 116.743L349.212 117.66C349.822 116.476 350.527 115.748 351.286 115.358L350.372 113.579ZM347.476 116.669C346.634 118.008 345.99 119.301 345.558 120.546L347.447 121.202C347.82 120.13 348.389 118.974 349.169 117.734L347.476 116.669ZM345.558 120.546C345.147 121.73 344.747 123.037 344.356 124.466L346.285 124.993C346.666 123.6 347.054 122.336 347.447 121.202L345.558 120.546ZM344.361 124.447C343.741 126.556 342.762 128.736 341.412 130.986L343.127 132.015C344.55 129.643 345.604 127.309 346.28 125.011L344.361 124.447ZM341.413 130.984C340.187 133.018 338.508 134.357 336.353 135.047L336.962 136.952C339.597 136.109 341.66 134.449 343.126 132.016L341.413 130.984ZM336.353 135.047C333.489 135.962 331.104 135.879 329.114 134.939L328.26 136.747C330.821 137.957 333.75 137.979 336.962 136.952L336.353 135.047ZM329.145 134.954C327.19 133.946 325.764 132.178 324.913 129.516L323.008 130.125C323.987 133.187 325.712 135.434 328.229 136.732L329.145 134.954ZM324.913 129.516C324.226 127.367 324.336 125.116 325.3 122.721L323.444 121.975C322.327 124.752 322.163 127.483 323.008 130.125L324.913 129.516ZM325.299 122.724C326.306 120.24 328.078 117.897 330.667 115.703L329.374 114.177C326.593 116.533 324.599 119.129 323.446 121.972L325.299 122.724ZM330.662 115.707C333.287 113.512 336.612 111.757 340.662 110.462L340.053 108.557C335.808 109.914 332.241 111.78 329.379 114.173L330.662 115.707ZM340.662 110.462C347.766 108.191 353.092 108.024 356.808 109.671L357.618 107.843C353.232 105.898 347.321 106.234 340.053 108.557L340.662 110.462ZM356.826 109.679C360.645 111.283 363.167 114.047 364.442 118.036L366.347 117.427C364.896 112.887 361.964 109.668 357.601 107.835L356.826 109.679ZM364.442 118.036C365.446 121.174 365.569 123.878 364.908 126.191L366.831 126.741C367.629 123.951 367.436 120.832 366.347 117.427L364.442 118.036ZM364.912 126.178C364.219 128.487 362.59 131.236 359.932 134.434L361.47 135.712C364.206 132.42 366.024 129.431 366.827 126.753L364.912 126.178ZM359.924 134.443C358.54 136.15 357.583 137.768 357.127 139.293L359.043 139.866C359.396 138.685 360.183 137.299 361.478 135.703L359.924 134.443ZM357.124 139.304C356.697 140.798 356.768 142.37 357.286 143.988L359.191 143.379C358.775 142.077 358.744 140.912 359.047 139.854L357.124 139.304ZM357.286 143.988C357.953 146.074 357.712 147.78 356.679 149.234L358.309 150.393C359.763 148.347 360.018 145.967 359.191 143.379L357.286 143.988ZM356.679 149.234C355.595 150.76 353.839 151.961 351.293 152.775L351.902 154.68C354.731 153.775 356.906 152.367 358.309 150.393L356.679 149.234ZM346.496 172.551C345.577 169.679 345.768 167.133 346.995 164.838L345.231 163.895C343.718 166.726 343.529 169.84 344.591 173.16L346.496 172.551ZM346.995 164.838C348.216 162.554 350.356 160.873 353.555 159.85L352.946 157.945C349.369 159.089 346.75 161.054 345.231 163.895L346.995 164.838ZM353.555 159.85C356.628 158.867 359.254 159.018 361.516 160.184L362.432 158.407C359.606 156.95 356.416 156.835 352.946 157.945L353.555 159.85ZM361.53 160.191C363.775 161.306 365.374 163.243 366.295 166.124L368.2 165.515C367.141 162.204 365.224 159.792 362.419 158.4L361.53 160.191ZM366.295 166.124C367.199 168.95 367.04 171.423 365.908 173.619L367.686 174.535C369.097 171.797 369.239 168.765 368.2 165.515L366.295 166.124ZM365.908 173.619C364.789 175.789 362.712 177.424 359.502 178.45L360.111 180.355C363.678 179.215 366.261 177.3 367.686 174.535L365.908 173.619ZM359.502 178.45C356.158 179.519 353.429 179.443 351.219 178.389L350.358 180.195C353.162 181.53 356.445 181.528 360.111 180.355L359.502 178.45ZM351.233 178.396C348.983 177.279 347.397 175.368 346.496 172.551L344.591 173.16C345.633 176.419 347.543 178.798 350.344 180.188L351.233 178.396Z" fill="black" mask="url(#path-3-outside-2_2004_4)"/>
</g>
<defs>
<filter id="filter0_d_2004_4" x="1.07202" y="28.822" width="261.499" height="52.647" filterUnits="userSpaceOnUse" color-interpolation-filters="sRGB">
<feFlood flood-opacity="0" result="BackgroundImageFix"/>
<feColorMatrix in="SourceAlpha" type="matrix" values="0 0 0 0 0 0 0 0 0 0 0 0 0 0 0 0 0 0 127 0" result="hardAlpha"/>
<feOffset dy="3"/>
<feComposite in2="hardAlpha" operator="out"/>
<feColorMatrix type="matrix" values="0 0 0 0 0 0 0 0 0 0 0 0 0 0 0 0 0 0 1 0"/>
<feBlend mode="normal" in2="BackgroundImageFix" result="effect1_dropShadow_2004_4"/>
<feBlend mode="normal" in="SourceGraphic" in2="effect1_dropShadow_2004_4" result="shape"/>
</filter>
<filter id="filter1_d_2004_4" x="11.5659" y="103.01" width="371.2" height="183.675" filterUnits="userSpaceOnUse" color-interpolation-filters="sRGB">
<feFlood flood-opacity="0" result="BackgroundImageFix"/>
<feColorMatrix in="SourceAlpha" type="matrix" values="0 0 0 0 0 0 0 0 0 0 0 0 0 0 0 0 0 0 127 0" result="hardAlpha"/>
<feOffset dy="3"/>
<feComposite in2="hardAlpha" operator="out"/>
<feColorMatrix type="matrix" values="0 0 0 0 0 0 0 0 0 0 0 0 0 0 0 0 0 0 1 0"/>
<feBlend mode="normal" in2="BackgroundImageFix" result="effect1_dropShadow_2004_4"/>
<feBlend mode="normal" in="SourceGraphic" in2="effect1_dropShadow_2004_4" result="shape"/>
</filter>
</defs>
</svg>
